<svg viewBox="0 0 31 32" fill="none" xmlns="http://www.w3.org/2000/svg">
  <path d="M15.3333 32.0002C11.2933 32.0002 8 28.7068 8 24.6668C8 20.6268 11.2933 17.3335 15.3333 17.3335C19.3733 17.3335 22.6667 20.6268 22.6667 24.6668C22.6667 28.7068 19.3733 32.0002 15.3333 32.0002ZM15.3333 18.6668C12.0267 18.6668 9.33333 21.3602 9.33333 24.6668C9.33333 27.9735 12.0267 30.6668 15.3333 30.6668C18.64 30.6668 21.3333 27.9735 21.3333 24.6668C21.3333 21.3602 18.64 18.6668 15.3333 18.6668Z" fill="currentColor"/>
  <path d="M15.3346 29.3334C15.1613 29.3334 14.988 29.2668 14.868 29.1468C14.7346 29.0134 14.668 28.8401 14.668 28.6668C14.668 28.4934 14.7346 28.3201 14.8546 28.2001C15.1213 27.9334 15.548 27.9468 15.8013 28.1868C15.9346 28.3201 16.0013 28.4934 16.0013 28.6668C16.0013 28.8401 15.9346 29.0134 15.8013 29.1334C15.6813 29.2668 15.508 29.3334 15.3346 29.3334Z" fill="currentColor"/>
  <path d="M15.3331 26.667C14.9598 26.667 14.6665 26.3603 14.6665 26.0003V24.667C14.6665 24.347 14.8931 24.0803 15.1998 24.0137L15.3465 23.987C16.7065 23.7337 17.3331 23.3203 17.3331 22.667C17.3331 21.947 16.4131 21.3337 15.3331 21.3337C14.2531 21.3337 13.3865 21.8937 13.3331 22.6003C13.3065 22.9603 12.9731 23.2403 12.6131 23.2137C12.2531 23.187 11.9731 22.867 11.9998 22.4937C12.1198 21.0803 13.5465 20.0137 15.3331 20.0137C17.1198 20.0137 18.6665 21.2137 18.6665 22.6803C18.6665 23.947 17.7731 24.8137 15.9998 25.227V26.0137C15.9998 26.3737 15.6931 26.6803 15.3331 26.6803V26.667Z" fill="currentColor"/>
  <path d="M27.3333 25.3332H24.6667C24.2933 25.3332 24 25.0398 24 24.6665C24 24.2932 24.2933 23.9998 24.6667 23.9998H27.3333C28.44 23.9998 29.3333 23.1065 29.3333 21.9998V9.99984C29.3333 8.89317 28.44 7.99984 27.3333 7.99984H11.92C10.48 7.99984 9.21333 7.07984 8.76 5.71984L8.64 5.35984C8.37333 4.5465 7.6 3.9865 6.74667 3.9865H3.33333C2.22667 3.9865 1.33333 4.87984 1.33333 5.9865V21.9865C1.33333 23.0932 2.22667 23.9865 3.33333 23.9865H6C6.37333 23.9865 6.66667 24.2798 6.66667 24.6532C6.66667 25.0265 6.37333 25.3198 6 25.3198H3.33333C1.49333 25.3198 0 23.8265 0 21.9865V5.99984C0 4.15984 1.49333 2.6665 3.33333 2.6665H6.74667C8.18667 2.6665 9.45333 3.5865 9.90667 4.9465L10.0267 5.29317C10.2933 6.1065 11.0667 6.6665 11.92 6.6665H27.3333C29.1733 6.6665 30.6667 8.15984 30.6667 9.99984V21.9998C30.6667 23.8398 29.1733 25.3332 27.3333 25.3332Z" fill="currentColor"/>
  <path d="M28.6654 8C28.292 8 27.9987 7.70667 27.9987 7.33333V3.33333C27.9987 2.22667 27.1054 1.33333 25.9987 1.33333H4.66536C3.5587 1.33333 2.66536 2.22667 2.66536 3.33333C2.66536 3.70667 2.37203 4 1.9987 4C1.62536 4 1.33203 3.70667 1.33203 3.33333C1.33203 1.49333 2.82536 0 4.66536 0H25.9987C27.8387 0 29.332 1.49333 29.332 3.33333V7.33333C29.332 7.70667 29.0387 8 28.6654 8Z" fill="currentColor"/>
</svg>
