<svg viewBox="0 0 31 32" fill="none" xmlns="http://www.w3.org/2000/svg">
  <path d="M14.6654 29.3332C11.7187 29.3332 9.33203 26.9465 9.33203 23.9998C9.33203 21.0532 11.7187 18.6665 14.6654 18.6665C17.612 18.6665 19.9987 21.0532 19.9987 23.9998C19.9987 26.9465 17.612 29.3332 14.6654 29.3332ZM14.6654 19.9998C12.4654 19.9998 10.6654 21.7998 10.6654 23.9998C10.6654 26.1998 12.4654 27.9998 14.6654 27.9998C16.8654 27.9998 18.6654 26.1998 18.6654 23.9998C18.6654 21.7998 16.8654 19.9998 14.6654 19.9998Z" fill="currentColor"/>
  <path d="M21.9985 31.9999C21.8251 31.9999 21.6518 31.9332 21.5318 31.7999L17.5318 27.7999C17.2785 27.5466 17.2785 27.1199 17.5318 26.8532C17.7851 26.5866 18.2118 26.5999 18.4785 26.8532L22.4785 30.8532C22.7318 31.1066 22.7318 31.5332 22.4785 31.7999C22.3451 31.9332 22.1718 31.9999 22.0118 31.9999H21.9985Z" fill="currentColor"/>
  <path d="M27.3333 25.3332H22C21.6267 25.3332 21.3333 25.0398 21.3333 24.6665C21.3333 24.2932 21.6267 23.9998 22 23.9998H27.3333C28.44 23.9998 29.3333 23.1065 29.3333 21.9998V9.99984C29.3333 8.89317 28.44 7.99984 27.3333 7.99984H11.92C10.48 7.99984 9.21333 7.07984 8.76 5.71984L8.64 5.35984C8.37333 4.5465 7.6 3.9865 6.74667 3.9865H3.33333C2.22667 3.9865 1.33333 4.87984 1.33333 5.9865V21.9865C1.33333 23.0932 2.22667 23.9865 3.33333 23.9865H7.33333C7.70667 23.9865 8 24.2798 8 24.6532C8 25.0265 7.70667 25.3198 7.33333 25.3198H3.33333C1.49333 25.3198 0 23.8265 0 21.9865V5.99984C0 4.15984 1.49333 2.6665 3.33333 2.6665H6.74667C8.18667 2.6665 9.45333 3.5865 9.90667 4.9465L10.0267 5.29317C10.2933 6.1065 11.0667 6.6665 11.92 6.6665H27.3333C29.1733 6.6665 30.6667 8.15984 30.6667 9.99984V21.9998C30.6667 23.8398 29.1733 25.3332 27.3333 25.3332Z" fill="currentColor"/>
  <path d="M28.6654 8C28.292 8 27.9987 7.70667 27.9987 7.33333V3.33333C27.9987 2.22667 27.1054 1.33333 25.9987 1.33333H4.66536C3.5587 1.33333 2.66536 2.22667 2.66536 3.33333C2.66536 3.70667 2.37203 4 1.9987 4C1.62536 4 1.33203 3.70667 1.33203 3.33333C1.33203 1.49333 2.82536 0 4.66536 0H25.9987C27.8387 0 29.332 1.49333 29.332 3.33333V7.33333C29.332 7.70667 29.0387 8 28.6654 8Z" fill="currentColor"/>
</svg>
