<svg viewBox="0 0 76 76" fill="none" xmlns="http://www.w3.org/2000/svg">
  <path d="M28.4592 58.4167H47.5404M37.9998 1.25V5.33333M63.986 12.0138L61.0986 14.9012M74.75 37.9998H70.6667M5.33333 37.9998H1.25M14.901 14.9012L12.0136 12.0138M23.563 52.4369C15.5898 44.4637 15.5898 31.5365 23.563 23.5633C31.5362 15.5901 44.4633 15.5901 52.4365 23.5633C60.4098 31.5365 60.4098 44.4637 52.4365 52.4369L50.2026 54.6708C47.6183 57.2551 46.1664 60.7602 46.1665 64.4149V66.5833C46.1665 71.0937 42.5101 74.75 37.9998 74.75C33.4895 74.75 29.8331 71.0937 29.8331 66.5833V64.4149C29.8331 60.7602 28.3813 57.2551 25.797 54.6708L23.563 52.4369Z" stroke="url(#paint0_linear_1_5576)" stroke-width="2" stroke-linecap="round" stroke-linejoin="round"/>
  <path d="M37 31C37 29.8954 37.8954 29 39 29C40.1046 29 41 29.8954 41 31V32C41 32.5523 41.4477 33 42 33H45C45.5523 33 46 33.4477 46 34V37C46 37.5523 45.5523 38 45 38H44C42.8954 38 42 38.8954 42 40C42 41.1046 42.8954 42 44 42H45C45.5523 42 46 42.4477 46 43V46C46 46.5523 45.5523 47 45 47H42C41.4477 47 41 46.5523 41 46V45C41 43.8954 40.1046 43 39 43C37.8954 43 37 43.8954 37 45V46C37 46.5523 36.5523 47 36 47H33C32.4477 47 32 46.5523 32 46V43C32 42.4477 31.5523 42 31 42H30C28.8954 42 28 41.1046 28 40C28 38.8954 28.8954 38 30 38H31C31.5523 38 32 37.5523 32 37V34C32 33.4477 32.4477 33 33 33H36C36.5523 33 37 32.5523 37 32V31Z" stroke="#FDBD00" stroke-width="1.5" stroke-linecap="round" stroke-linejoin="round"/>
  <defs>
    <linearGradient id="paint0_linear_1_5576" x1="38" y1="1.25" x2="38" y2="74.75" gradientUnits="userSpaceOnUse">
      <stop stop-color="#FEDE80"/>
      <stop offset="1" stop-color="#FDAF00"/>
    </linearGradient>
  </defs>
</svg>
