<svg viewBox="0 0 32 32" fill="none" xmlns="http://www.w3.org/2000/svg">
  <path d="M6 26.6665C4.89333 26.6665 4 25.7732 4 24.6665C4 23.5598 4.89333 22.6665 6 22.6665C7.10667 22.6665 8 23.5598 8 24.6665C8 25.7732 7.10667 26.6665 6 26.6665ZM6 23.9998C5.62667 23.9998 5.33333 24.2932 5.33333 24.6665C5.33333 25.0398 5.62667 25.3332 6 25.3332C6.37333 25.3332 6.66667 25.0398 6.66667 24.6665C6.66667 24.2932 6.37333 23.9998 6 23.9998Z" fill="currentColor"/>
  <path d="M5.99857 31.9732C5.70524 31.9732 5.42524 31.9465 5.14524 31.9199C3.95857 31.7465 2.87857 31.2399 1.99857 30.4532C1.7719 30.2399 1.70524 29.9065 1.86524 29.6398C2.66524 28.1998 4.39857 28.0132 5.99857 28.0132C7.59857 28.0132 9.3319 28.2132 10.1319 29.6398C10.2786 29.9065 10.2252 30.2532 9.99857 30.4532C9.11857 31.2399 8.03857 31.7465 6.87857 31.9199C6.5719 31.9465 6.2919 31.9865 5.99857 31.9865V31.9732ZM3.39857 29.8532C3.9719 30.2398 4.62524 30.4932 5.31857 30.5999C5.7319 30.6399 6.23857 30.6399 6.70524 30.5999C7.3719 30.4932 8.02524 30.2532 8.59857 29.8665C8.11857 29.5065 7.2919 29.3465 5.99857 29.3465C4.70524 29.3465 3.8919 29.5065 3.39857 29.8665V29.8532Z" fill="currentColor"/>
  <path d="M6 32C2.69333 32 0 29.3067 0 26C0 22.6933 2.69333 20 6 20C9.30667 20 12 22.6933 12 26C12 29.3067 9.30667 32 6 32ZM6 21.3333C3.42667 21.3333 1.33333 23.4267 1.33333 26C1.33333 28.5733 3.42667 30.6667 6 30.6667C8.57333 30.6667 10.6667 28.5733 10.6667 26C10.6667 23.4267 8.57333 21.3333 6 21.3333Z" fill="currentColor"/>
  <path d="M24.6654 14.6667C20.6254 14.6667 17.332 11.3733 17.332 7.33333C17.332 3.29333 20.6254 0 24.6654 0C28.7054 0 31.9987 3.29333 31.9987 7.33333C31.9987 11.3733 28.7054 14.6667 24.6654 14.6667ZM24.6654 1.33333C21.3587 1.33333 18.6654 4.02667 18.6654 7.33333C18.6654 10.64 21.3587 13.3333 24.6654 13.3333C27.972 13.3333 30.6654 10.64 30.6654 7.33333C30.6654 4.02667 27.972 1.33333 24.6654 1.33333Z" fill="currentColor"/>
  <path d="M10 10.6666C9.82667 10.6666 9.65333 10.5999 9.53333 10.4666L0.2 1.13325C-0.0666667 0.879915 -0.0666667 0.453248 0.2 0.199915C0.466667 -0.0534185 0.88 -0.0667518 1.13333 0.199915L10.4667 9.53325C10.72 9.79992 10.72 10.2132 10.4667 10.4799C10.3333 10.6132 10.1733 10.6799 10 10.6799V10.6666Z" fill="currentColor"/>
  <path d="M0.666432 10.6664C0.493099 10.6664 0.319766 10.5998 0.199766 10.4664C-0.0535677 10.1998 -0.0535677 9.78643 0.199766 9.51977L9.5331 0.199766C9.79977 -0.0535677 10.2131 -0.0535677 10.4798 0.199766C10.7464 0.453099 10.7331 0.879766 10.4798 1.14643L1.1331 10.4664C0.999766 10.5998 0.839766 10.6664 0.666432 10.6664Z" fill="currentColor"/>
  <path d="M29.9998 30.6667C29.8264 30.6667 29.6531 30.6001 29.5331 30.4667L20.1998 21.1334C19.9464 20.8801 19.9464 20.4534 20.1998 20.1867C20.4531 19.9201 20.8798 19.9334 21.1464 20.1867L30.4798 29.5201C30.7331 29.7734 30.7331 30.2001 30.4798 30.4667C30.3464 30.6001 30.1731 30.6667 30.0131 30.6667H29.9998Z" fill="currentColor"/>
  <path d="M8.66604 21.3333C8.59937 21.3333 8.53271 21.3333 8.45271 21.3066C8.10604 21.1866 7.91937 20.8133 8.02604 20.4666C9.43937 16.1866 11.7994 13.8266 16.426 12.0533C16.7727 11.9199 17.1594 12.0933 17.2927 12.4399C17.426 12.7866 17.2527 13.1733 16.906 13.3066C12.6527 14.9333 10.586 16.9866 9.30604 20.8933C9.21271 21.1733 8.94604 21.3466 8.66604 21.3466V21.3333Z" fill="currentColor"/>
  <path d="M15.3324 17.3335C15.2657 17.3335 15.199 17.3335 15.119 17.2935C14.7724 17.1735 14.5857 16.8002 14.6924 16.4535L15.8124 13.0802L12.439 11.9602C12.0924 11.8402 11.9057 11.4669 12.0124 11.1202C12.1324 10.7735 12.5057 10.5869 12.8524 10.6935L16.8524 12.0269C17.199 12.1469 17.3857 12.5202 17.279 12.8669L15.9457 16.8669C15.8524 17.1469 15.5857 17.3202 15.319 17.3202L15.3324 17.3335Z" fill="currentColor"/>
  <path d="M20.6664 30.6666C20.4931 30.6666 20.3198 30.5999 20.1998 30.4666C19.9464 30.2132 19.9464 29.7866 20.1998 29.5199L29.5331 20.1866C29.7864 19.9332 30.2131 19.9332 30.4798 20.1866C30.7464 20.4399 30.7331 20.8666 30.4798 21.1332L21.1464 30.4666C21.0131 30.5999 20.8398 30.6666 20.6798 30.6666H20.6664Z" fill="currentColor"/>
  <path d="M24.6654 10.6667C22.8787 10.6667 21.4787 9.89333 21.3454 8.84C21.3054 8.48 21.5587 8.14667 21.9187 8.09333C22.2787 8.05333 22.612 8.30667 22.6654 8.66667C22.692 8.86667 23.4254 9.33333 24.6654 9.33333C26.0254 9.33333 26.6654 8.8 26.6654 8.66667C26.6654 8.66667 26.6387 8.25333 24.7187 8.01333H24.572C23.5987 7.88 21.332 7.6 21.332 6C21.332 4.85333 22.772 4 24.6654 4C26.452 4 27.852 4.77333 27.9854 5.82667C28.0254 6.18667 27.772 6.52 27.412 6.57333C27.052 6.61333 26.7187 6.36 26.6654 6C26.6387 5.81333 25.9054 5.33333 24.6654 5.33333C23.4254 5.33333 22.6654 5.84 22.6654 6C22.6654 6 22.692 6.41333 24.6254 6.65333H24.7587C25.732 6.78667 27.9987 7.06667 27.9987 8.66667C27.9987 9.81333 26.5587 10.6667 24.6654 10.6667Z" fill="currentColor"/>
  <path d="M24.6667 11.9998C24.2933 11.9998 24 11.7065 24 11.3332V3.33317C24 2.95984 24.2933 2.6665 24.6667 2.6665C25.04 2.6665 25.3333 2.95984 25.3333 3.33317V11.3332C25.3333 11.7065 25.04 11.9998 24.6667 11.9998Z" fill="currentColor"/>
</svg>
