<svg viewBox="0 0 32 20" fill="none" xmlns="http://www.w3.org/2000/svg">
  <path d="M16.0005 20.0002C15.1872 20.0002 14.1205 19.5469 13.6405 19.2269C13.0405 18.8402 10.0672 16.5869 7.57384 14.5202C7.1605 14.1736 6.54717 13.5336 5.94717 12.9069C5.50717 12.4402 5.10717 12.0269 4.89384 11.8536C4.61384 11.6136 4.57384 11.2002 4.81384 10.9202C5.05384 10.6402 5.46717 10.6002 5.76051 10.8402C5.98717 11.0269 6.42717 11.4936 6.90717 11.9869C7.45384 12.5602 8.06717 13.2002 8.42717 13.4936C10.9605 15.6136 13.8938 17.8002 14.3605 18.1202C14.7472 18.3736 15.5472 18.6802 15.9872 18.6802C16.6138 18.6802 16.6672 18.5202 16.6938 18.4536C16.7738 18.2402 16.9472 18.0936 17.1605 18.0269C17.3738 17.9736 17.6005 18.0269 17.7738 18.1869C18.0405 18.4269 18.3338 18.3869 18.5338 18.3069C18.9605 18.1469 19.2805 17.7202 19.3205 17.2802C19.3472 17.0269 19.5072 16.8136 19.7472 16.7202C19.9872 16.6269 20.2538 16.6802 20.4405 16.8536C20.6005 17.0136 21.0538 17.0402 21.4805 16.8269C21.6538 16.7469 22.0405 16.4936 21.9872 16.0802C21.9605 15.8269 22.0805 15.5736 22.3072 15.4402C22.5338 15.3069 22.8138 15.3202 23.0272 15.4669C23.2272 15.6002 23.5872 15.5336 23.8538 15.3069C24.0405 15.1602 24.2938 14.8136 24.0538 14.3069C23.5472 13.2669 21.3338 11.4669 19.3738 9.88024C18.2938 9.00024 17.2538 8.17357 16.4938 7.45357C16.2938 7.53357 16.1472 7.60024 16.0272 7.65357C15.6805 7.81357 15.4538 7.9069 15.0272 7.97357C14.0005 9.33357 12.6272 9.81357 11.1072 9.32024C10.5072 9.12024 10.0938 8.69357 9.9605 8.12024C9.6405 6.77357 10.8805 4.92024 11.7872 4.01357C14.1872 1.61357 15.8672 0.720238 18.9205 2.08024C21.5472 3.25357 24.1738 4.17357 24.2005 4.1869C24.5472 4.3069 24.7338 4.69357 24.6138 5.04024C24.4938 5.3869 24.1205 5.57357 23.7605 5.45357C23.7338 5.45357 21.0538 4.5069 18.3738 3.3069C16.0138 2.25357 14.8938 2.80024 12.7338 4.96024C11.8272 5.8669 11.1205 7.2269 11.2538 7.81357C11.2805 7.89357 11.3072 7.9869 11.5205 8.05357C12.1738 8.2669 13.1472 8.3869 14.0938 6.9869C14.2005 6.8269 14.3872 6.72024 14.5872 6.69357C15.0405 6.65357 15.1472 6.60024 15.4805 6.45357C15.6938 6.36024 15.9738 6.2269 16.4272 6.0669C16.6672 5.9869 16.9472 6.04024 17.1205 6.2269C17.8538 6.96024 18.9872 7.88024 20.2005 8.8669C22.3738 10.6269 24.6138 12.4402 25.2405 13.7469C25.6805 14.6669 25.4672 15.6802 24.7072 16.3336C24.2538 16.7202 23.7072 16.9069 23.1738 16.8802C22.9872 17.3602 22.6005 17.7736 22.0672 18.0402C21.5205 18.3202 20.9205 18.3869 20.3872 18.2802C20.1072 18.8536 19.6005 19.3202 19.0005 19.5602C18.4805 19.7602 17.9605 19.7602 17.4805 19.5736C17.1338 19.8669 16.6272 20.0136 15.9605 20.0136L16.0005 20.0002Z" fill="currentColor"/>
  <path d="M13.3346 3.99984H7.33464C6.9613 3.99984 6.66797 3.7065 6.66797 3.33317C6.66797 2.95984 6.9613 2.6665 7.33464 2.6665H13.3346C13.708 2.6665 14.0013 2.95984 14.0013 3.33317C14.0013 3.7065 13.708 3.99984 13.3346 3.99984Z" fill="currentColor"/>
  <path d="M24.7205 14.64C24.5072 14.64 24.2938 14.5333 24.1605 14.3466C23.9605 14.04 24.0405 13.6266 24.3472 13.4266L26.2938 12.12C26.6005 11.9066 27.0138 12 27.2138 12.3066C27.4138 12.6133 27.3338 13.0266 27.0272 13.2266L25.0805 14.5333C24.9605 14.6133 24.8405 14.6533 24.7072 14.6533L24.7205 14.64Z" fill="currentColor"/>
  <path d="M22.6668 16.6666C22.5201 16.6666 22.3735 16.6266 22.2535 16.5199C21.5468 15.9599 18.5335 12.8133 18.1868 12.4533C17.9335 12.1866 17.9335 11.7599 18.2135 11.5066C18.4801 11.2533 18.9068 11.2533 19.1601 11.5333C20.4801 12.9066 22.6135 15.0933 23.0935 15.4666C23.3868 15.6933 23.4268 16.1199 23.2001 16.4C23.0668 16.5599 22.8668 16.6533 22.6801 16.6533L22.6668 16.6666Z" fill="currentColor"/>
  <path d="M19.9986 18.0002C19.8519 18.0002 19.7052 17.9469 19.5852 17.8535C18.5986 17.0669 16.1986 14.4802 16.1719 14.4535C15.9186 14.1869 15.9452 13.7602 16.2119 13.5069C16.4786 13.2535 16.9052 13.2802 17.1586 13.5469C17.6119 14.0402 19.6252 16.1735 20.4119 16.8135C20.7052 17.0402 20.7452 17.4669 20.5186 17.7469C20.3852 17.9069 20.1986 18.0002 19.9986 18.0002Z" fill="currentColor"/>
  <path d="M17.3332 19.3335C17.1865 19.3335 17.0265 19.2802 16.9065 19.1735C15.9198 18.3468 14.0665 16.3735 13.5198 15.7868C13.2665 15.5202 13.2798 15.0935 13.5465 14.8402C13.8132 14.5868 14.2398 14.6002 14.4932 14.8668C14.8665 15.2802 16.8132 17.3468 17.7732 18.1468C18.0532 18.3868 18.0932 18.8002 17.8532 19.0802C17.7198 19.2402 17.5332 19.3202 17.3465 19.3202L17.3332 19.3335Z" fill="currentColor"/>
  <path d="M4.66667 13.3333H0.666667C0.293333 13.3333 0 13.04 0 12.6667V0.666667C0 0.48 0.08 0.306667 0.213333 0.186667C0.346667 0.0533333 0.52 0 0.706667 0C2.08 0.08 6.65333 0.426667 7.78667 1.52C7.93333 1.65333 8.01333 1.85333 7.98667 2.06667C7.68 5.53333 5.38667 12.5867 5.29333 12.88C5.2 13.16 4.94667 13.3333 4.66667 13.3333ZM1.33333 12H4.17333C4.66667 10.44 6.26667 5.24 6.62667 2.32C5.78667 1.90667 3.48 1.54667 1.33333 1.37333V11.9867V12Z" fill="currentColor"/>
  <path d="M31.3333 14.6665H27.3333C27.0266 14.6665 26.7733 14.4665 26.6933 14.1732C26.2 12.3732 23.6133 5.01316 22.8 3.67982C22.6933 3.51982 22.68 3.31982 22.72 3.13316C22.76 2.94649 22.9066 2.79982 23.08 2.71982C23.2 2.66649 26.1066 1.31982 31.3333 1.31982C31.7066 1.31982 32 1.61316 32 1.98649V13.9998C32 14.3732 31.7066 14.6665 31.3333 14.6665ZM27.8266 13.3332H30.6666V2.67982C27.4933 2.75982 25.3066 3.34649 24.2933 3.69316C25.3333 5.90649 27.2 11.2798 27.84 13.3332H27.8266Z" fill="currentColor"/>
</svg>
