<svg viewBox="0 0 32 32" fill="none" xmlns="http://www.w3.org/2000/svg">
  <path d="M31.332 29.3332H13.9987C13.6254 29.3332 13.332 29.0398 13.332 28.6665C13.332 28.2932 13.6254 27.9998 13.9987 27.9998H30.6654V11.6132L23.052 3.99984H17.9987C17.6254 3.99984 17.332 3.7065 17.332 3.33317C17.332 2.95984 17.6254 2.6665 17.9987 2.6665H23.332C23.5054 2.6665 23.6787 2.73317 23.7987 2.8665L31.7987 10.8665C31.9187 10.9865 31.9987 11.1598 31.9987 11.3332V28.6665C31.9987 29.0398 31.7054 29.3332 31.332 29.3332Z" fill="currentColor"/>
  <path d="M31.3307 11.9998H23.3307C22.9574 11.9998 22.6641 11.7065 22.6641 11.3332V3.33317C22.6641 2.95984 22.9574 2.6665 23.3307 2.6665C23.7041 2.6665 23.9974 2.95984 23.9974 3.33317V10.6665H31.3307C31.7041 10.6665 31.9974 10.9598 31.9974 11.3332C31.9974 11.7065 31.7041 11.9998 31.3307 11.9998Z" fill="currentColor"/>
  <path d="M27.3333 17.3333H16.6667C16.2933 17.3333 16 17.04 16 16.6667C16 16.2933 16.2933 16 16.6667 16H27.3333C27.7067 16 28 16.2933 28 16.6667C28 17.04 27.7067 17.3333 27.3333 17.3333Z" fill="currentColor"/>
  <path d="M27.3333 21.3333H16.6667C16.2933 21.3333 16 21.04 16 20.6667C16 20.2933 16.2933 20 16.6667 20H27.3333C27.7067 20 28 20.2933 28 20.6667C28 21.04 27.7067 21.3333 27.3333 21.3333Z" fill="currentColor"/>
  <path d="M27.3333 25.3333H16.6667C16.2933 25.3333 16 25.04 16 24.6667C16 24.2933 16.2933 24 16.6667 24H27.3333C27.7067 24 28 24.2933 28 24.6667C28 25.04 27.7067 25.3333 27.3333 25.3333Z" fill="currentColor"/>
  <path d="M12.6667 32C11.7067 32 10.76 31.8267 9.85333 31.4933L2.16 28.6133C0.866667 28.1333 0 26.88 0 25.4933V6.65333C0 5.17333 0.96 3.88 2.37333 3.46667L11.2533 0.786667C13.0133 0.266667 14.8267 0 16.6667 0C17.7733 0 18.6667 0.893333 18.6667 2V9.04C18.6667 9.90667 18.12 10.6667 17.3067 10.9333L15.1333 11.6533C14.8667 11.7467 14.68 12 14.68 12.2933V30C14.68 31.1067 13.7867 32 12.68 32H12.6667ZM11.64 2.06667L2.76 4.73333C1.90667 4.98667 1.33333 5.76 1.33333 6.65333V25.4933C1.33333 26.32 1.85333 27.08 2.62667 27.36L10.32 30.24C11.08 30.52 11.8667 30.6667 12.6667 30.6667C13.04 30.6667 13.3333 30.36 13.3333 30V12.2933C13.3333 11.4267 13.88 10.6667 14.6933 10.4L16.8667 9.68C17.1333 9.58667 17.32 9.33333 17.32 9.05333V2C17.32 1.62667 17.0267 1.33333 16.6533 1.33333C14.9467 1.33333 13.2533 1.58667 11.6267 2.06667H11.64Z" fill="currentColor"/>
</svg>
