<svg viewBox="0 0 32 22" fill="none" xmlns="http://www.w3.org/2000/svg">
  <path d="M31.332 14.6667H16.6654C16.292 14.6667 15.9987 14.3733 15.9987 14C15.9987 13.6267 16.292 13.3333 16.6654 13.3333H30.6654V1.33333H10.6654V7.33333C10.6654 7.70667 10.372 8 9.9987 8C9.62536 8 9.33203 7.70667 9.33203 7.33333V0.666667C9.33203 0.293333 9.62536 0 9.9987 0H31.332C31.7054 0 31.9987 0.293333 31.9987 0.666667V14C31.9987 14.3733 31.7054 14.6667 31.332 14.6667Z" fill="currentColor"/>
  <path d="M14.4271 21.4399C13.8804 21.4399 13.4537 21.3999 13.1471 21.3066L4.56042 19.9866C4.37375 19.9599 4.21375 19.8533 4.10708 19.6933C4.00042 19.5333 3.97375 19.3466 4.01375 19.1599L5.49375 13.5733C5.49375 13.5733 5.52042 13.4933 5.54708 13.4399C6.34708 11.8266 7.93375 10.7999 9.72042 10.6933L13.0937 7.31994C13.9337 6.47994 15.4004 6.47994 16.2404 7.31994C16.9871 8.06661 17.1071 9.23994 16.5204 10.1199L14.4271 12.9999C14.1604 13.3733 14.0137 13.8133 14.0137 14.2799C14.0137 15.4799 15.0804 16.4399 16.2937 16.2666L19.2937 16.0266H23.3471C23.6404 16.0266 23.9071 16.2266 23.9871 16.5066C24.0671 16.7999 23.9471 17.0933 23.6938 17.2533L18.4138 20.5333C17.6004 21.2533 15.4804 21.4399 14.4404 21.4399H14.4271ZM5.49375 18.7866L13.4271 20.0133C13.5737 20.0533 13.8271 20.1066 14.4271 20.1066C15.8271 20.1066 17.2671 19.7866 17.5204 19.5333C17.5604 19.4933 17.6004 19.4666 17.6404 19.4399L20.9871 17.3599H19.3204L16.4138 17.5866C16.2938 17.5999 16.1337 17.6133 15.9737 17.6133C14.1337 17.6133 12.6404 16.1199 12.6404 14.2799C12.6404 13.5333 12.8804 12.8133 13.3071 12.2133L15.3871 9.35994C15.6004 9.02661 15.5604 8.55994 15.2537 8.26661C14.9204 7.93327 14.3337 7.93327 14.0004 8.26661L10.4271 11.8399C10.3071 11.9599 10.1337 12.0266 9.96042 12.0266C8.58708 12.0266 7.36042 12.7733 6.72042 13.9866L5.45375 18.7999L5.49375 18.7866Z" fill="currentColor"/>
  <path d="M0.666667 21.3598C0.293333 21.3598 0 21.0664 0 20.6931V11.3598C0 11.1731 0.08 10.9998 0.213333 10.8664C0.346667 10.7464 0.52 10.6798 0.72 10.6931C1.48 10.7464 5.29333 11.1064 6.45333 12.2131C6.6 12.3464 6.68 12.5598 6.65333 12.7598C6.34667 16.2264 5.33333 19.4398 5.29333 19.5731C5.24 19.7331 5.13333 19.8664 4.98667 19.9464C4.88 19.9998 2.48 21.3731 0.653333 21.3731L0.666667 21.3598ZM1.33333 12.0931V19.9598C2.33333 19.7731 3.49333 19.2264 4.10667 18.9064C4.33333 18.1331 5.02667 15.6531 5.29333 13.0131C4.53333 12.5998 2.77333 12.2664 1.32 12.1064L1.33333 12.0931Z" fill="currentColor"/>
  <path d="M20.6546 11.9998C19.8013 11.9998 18.9346 11.7598 18.1613 11.2665C17.8546 11.0665 17.7613 10.6532 17.9613 10.3465C18.1613 10.0398 18.5746 9.94649 18.8813 10.1465C20.4279 11.1332 22.4946 10.6798 23.4813 9.11982C23.9613 8.37315 24.1213 7.47982 23.9213 6.59982C23.7213 5.73315 23.2146 4.98649 22.4546 4.50649C20.9079 3.51982 18.8413 3.97315 17.8546 5.53315C17.6546 5.83982 17.2413 5.93315 16.9346 5.73315C16.6279 5.53315 16.5346 5.11982 16.7346 4.81315C18.1213 2.63982 21.0013 1.99982 23.1746 3.38649C24.2279 4.05315 24.9613 5.09315 25.2279 6.30649C25.4946 7.51982 25.2813 8.77315 24.6146 9.82649C23.7213 11.2265 22.2146 11.9865 20.6679 11.9865L20.6546 11.9998Z" fill="currentColor"/>
</svg>
