<svg viewBox="0 0 32 32" fill="none" xmlns="http://www.w3.org/2000/svg">
  <path d="M10 22.6667C11.84 22.6667 13.3333 21.1733 13.3333 19.3333C13.3333 18.6533 13.1333 18.0267 12.7733 17.4933L16.16 14.1067C16.6933 14.4533 17.32 14.6667 18 14.6667C19.84 14.6667 21.3333 13.1733 21.3333 11.3333C21.3333 11.0267 21.28 10.7333 21.2 10.44L24.7467 8.06667C25.36 8.82667 26.28 9.32 27.3333 9.32C29.1733 9.32 30.6667 7.82667 30.6667 5.98667C30.6667 4.14667 29.1733 2.65333 27.3333 2.65333C25.4933 2.65333 24 4.14667 24 5.98667C24 6.29333 24.0533 6.58667 24.1333 6.86667L20.5867 9.24C19.9733 8.48 19.0533 7.98667 18 7.98667C16.16 7.98667 14.6667 9.48 14.6667 11.32C14.6667 12 14.8667 12.6267 15.2267 13.16L11.84 16.5467C11.3067 16.2 10.68 15.9867 10 15.9867C8.16 15.9867 6.66667 17.48 6.66667 19.32C6.66667 21.16 8.16 22.6533 10 22.6533V22.6667ZM27.3333 4C28.44 4 29.3333 4.89333 29.3333 6C29.3333 7.10667 28.44 8 27.3333 8C26.2267 8 25.3333 7.10667 25.3333 6C25.3333 4.89333 26.2267 4 27.3333 4ZM18 9.33333C19.1067 9.33333 20 10.2267 20 11.3333C20 12.44 19.1067 13.3333 18 13.3333C16.8933 13.3333 16 12.44 16 11.3333C16 10.2267 16.8933 9.33333 18 9.33333ZM10 17.3333C11.1067 17.3333 12 18.2267 12 19.3333C12 20.44 11.1067 21.3333 10 21.3333C8.89333 21.3333 8 20.44 8 19.3333C8 18.2267 8.89333 17.3333 10 17.3333ZM31.3333 28H4V0.666667C4 0.293333 3.70667 0 3.33333 0C2.96 0 2.66667 0.293333 2.66667 0.666667V28H0.666667C0.293333 28 0 28.2933 0 28.6667C0 29.04 0.293333 29.3333 0.666667 29.3333H2.66667V31.3333C2.66667 31.7067 2.96 32 3.33333 32C3.70667 32 4 31.7067 4 31.3333V29.3333H31.3333C31.7067 29.3333 32 29.04 32 28.6667C32 28.2933 31.7067 28 31.3333 28ZM26.6667 11.3333V26C26.6667 26.3733 26.96 26.6667 27.3333 26.6667C27.7067 26.6667 28 26.3733 28 26V11.3333C28 10.96 27.7067 10.6667 27.3333 10.6667C26.96 10.6667 26.6667 10.96 26.6667 11.3333ZM9.33333 24.6667V26C9.33333 26.3733 9.62667 26.6667 10 26.6667C10.3733 26.6667 10.6667 26.3733 10.6667 26V24.6667C10.6667 24.2933 10.3733 24 10 24C9.62667 24 9.33333 24.2933 9.33333 24.6667ZM17.3333 16.6667V26C17.3333 26.3733 17.6267 26.6667 18 26.6667C18.3733 26.6667 18.6667 26.3733 18.6667 26V16.6667C18.6667 16.2933 18.3733 16 18 16C17.6267 16 17.3333 16.2933 17.3333 16.6667Z" fill="currentColor"/>
</svg>
