<svg width="48" height="48" viewBox="0 0 48 48" fill="none" xmlns="http://www.w3.org/2000/svg">
  <g clip-path="url(#clip0_4788_138429)">
    <path d="M43 0H23C20.24 0 18 2.24 18 5V7C18 7.56 18.44 8 19 8C19.56 8 20 7.56 20 7V5C20 3.34 21.34 2 23 2H43C44.66 2 46 3.34 46 5V15C46 16.66 44.66 18 43 18H40C39.72 18 39.44 18.12 39.24 18.34L34.4 23.88L35 19.12C35.04 18.84 34.94 18.54 34.76 18.34C34.58 18.12 34.3 18 34 18H33C32.44 18 32 18.44 32 19C32 19.5 32.38 19.92 32.86 20L32 26.88C31.94 27.32 32.18 27.74 32.58 27.92C32.72 27.98 32.86 28 32.98 28C33.26 28 33.54 27.88 33.74 27.66L40.44 20H42.98C45.74 20 47.98 17.76 47.98 15V5C47.98 2.24 45.74 0 42.98 0H43Z" fill="black"/>
    <path d="M31.18 38.24L25.32 36.78L24.88 34.98C26.44 33.4 27.52 31.26 27.86 29.08C28.76 28.78 29.46 27.96 29.58 26.96L29.98 23.82C30.08 23.1 29.84 22.36 29.36 21.82C29.12 21.54 28.82 21.32 28.48 21.16L28.62 18.46L29.16 17.92C30.1 16.92 30.88 15.22 29.26 12.78C28.04 10.92 25.98 9.97998 23.14 9.97998C22.04 9.97998 19.52 9.97998 17.14 11.54C10.34 11.7 9.42004 14.9 9.42004 18.02C9.42004 18.7 9.58004 20.14 9.68004 21.12C9.30004 21.26 8.98004 21.5 8.70004 21.8C8.22004 22.34 7.98004 23.08 8.08004 23.82L8.48004 26.94C8.62004 28 9.38004 28.84 10.38 29.1C10.72 31.2 11.74 33.26 13.2 34.8L12.72 36.74L6.86004 38.2C2.84004 39.2 0.0400391 42.8 0.0400391 46.94C0.0400391 47.2 0.140039 47.46 0.340039 47.64C0.540039 47.82 0.780039 47.94 1.04004 47.94H37.04C37.6 47.94 38.04 47.48 38.04 46.94C38.04 42.8 35.24 39.2 31.22 38.2L31.18 38.24ZM2.08004 45.98C2.48004 43.18 4.52004 40.88 7.32004 40.18L13.78 38.56C14.14 38.46 14.42 38.2 14.5 37.84L15.26 34.78C15.34 34.42 15.24 34.06 14.98 33.8C13.44 32.36 12.42 30.24 12.24 28.12C12.2 27.6 11.76 27.2 11.24 27.2H10.98C10.7 27.2 10.46 26.98 10.42 26.7L10.02 23.58C10 23.36 10.1 23.2 10.16 23.14C10.22 23.08 10.36 22.94 10.74 22.94C11.02 22.94 11.3 22.82 11.5 22.6C11.68 22.38 11.78 22.1 11.74 21.82C11.64 21.02 11.38 18.78 11.38 18.04C11.38 15.62 11.84 13.62 17.44 13.56C17.64 13.56 17.84 13.5 18 13.38C19.7 12.16 21.54 12 23.1 12C25.22 12 26.72 12.64 27.54 13.9C28.5 15.36 28.12 16.06 27.66 16.56L26.88 17.34C26.7 17.52 26.6 17.74 26.58 18L26.38 21.92C26.38 22.2 26.46 22.46 26.66 22.66C26.84 22.86 27.1 22.98 27.38 22.98C27.6 22.98 27.74 23.1 27.8 23.18C27.86 23.24 27.96 23.4 27.94 23.62L27.54 26.74C27.5 27.02 27.26 27.24 26.9 27.24C26.38 27.24 25.94 27.64 25.9 28.16C25.72 30.34 24.66 32.5 23.04 33.94C22.76 34.18 22.64 34.56 22.74 34.92L23.48 37.86C23.58 38.22 23.86 38.5 24.2 38.58L30.66 40.2C33.46 40.9 35.5 43.22 35.9 46H2.08004V45.98Z" fill="black"/>
  </g>
  <defs>
    <clipPath id="clip0_4788_138429">
      <rect width="48" height="48" fill="white"/>
    </clipPath>
  </defs>
</svg>
