<svg width="48" height="48" viewBox="0 0 48 48" fill="none" xmlns="http://www.w3.org/2000/svg">
  <g clip-path="url(#clip0_5344_14118)">
    <path d="M18 42C14.7 42 12 39.3 12 36C12 35.44 12.44 35 13 35C13.56 35 14 35.44 14 36C14 38.2 15.8 40 18 40C20.2 40 22 38.2 22 36C22 33.8 20.2 32 18 32H15C14.44 32 14 31.56 14 31C14 30.44 14.44 30 15 30H18C20.2 30 22 28.2 22 26C22 23.8 20.2 22 18 22C15.8 22 14 23.8 14 26C14 26.56 13.56 27 13 27C12.44 27 12 26.56 12 26C12 22.7 14.7 20 18 20C21.3 20 24 22.7 24 26C24 28.08 22.94 29.92 21.32 31C22.94 32.08 24 33.92 24 36C24 39.3 21.3 42 18 42Z" fill="black"/>
    <path d="M32.9999 41.9998C32.4399 41.9998 31.9999 41.5598 31.9999 40.9998V23.4198L29.6999 25.7198C29.3199 26.0998 28.6799 26.0998 28.2799 25.7198C27.8799 25.3398 27.8999 24.6998 28.2799 24.2998L32.2799 20.2998C32.5599 20.0198 32.9999 19.9198 33.3799 20.0798C33.7599 20.2398 33.9999 20.5998 33.9999 20.9998V40.9998C33.9999 41.5598 33.5599 41.9998 32.9999 41.9998Z" fill="black"/>
    <path d="M41 48H7C3.14 48 0 44.86 0 41V11C0 7.14 3.14 4 7 4C7.56 4 8 4.44 8 5C8 5.56 7.56 6 7 6C4.24 6 2 8.24 2 11V41C2 43.76 4.24 46 7 46H41C43.76 46 46 43.76 46 41V11C46 8.24 43.76 6 41 6C40.44 6 40 5.56 40 5C40 4.44 40.44 4 41 4C44.86 4 48 7.14 48 11V41C48 44.86 44.86 48 41 48Z" fill="black"/>
    <path d="M33 6H15C14.44 6 14 5.56 14 5C14 4.44 14.44 4 15 4H33C33.56 4 34 4.44 34 5C34 5.56 33.56 6 33 6Z" fill="black"/>
    <path d="M11 10C10.44 10 10 9.56 10 9V1C10 0.44 10.44 0 11 0C11.56 0 12 0.44 12 1V9C12 9.56 11.56 10 11 10Z" fill="black"/>
    <path d="M37 10C36.44 10 36 9.56 36 9V1C36 0.44 36.44 0 37 0C37.56 0 38 0.44 38 1V9C38 9.56 37.56 10 37 10Z" fill="black"/>
    <path d="M47 16H1C0.44 16 0 15.56 0 15C0 14.44 0.44 14 1 14H47C47.56 14 48 14.44 48 15C48 15.56 47.56 16 47 16Z" fill="black"/>
  </g>
  <defs>
    <clipPath id="clip0_5344_14118">
      <rect width="48" height="48" fill="white"/>
    </clipPath>
  </defs>
</svg>
