<svg width="48" height="48" viewBox="0 0 48 48" fill="none" xmlns="http://www.w3.org/2000/svg">
  <g clip-path="url(#clip0_5344_14158)">
    <path d="M9.78761 26.08C9.39109 25.92 8.95283 26.02 8.63978 26.3L5.19631 29.6L1.75283 26.3C1.46065 26.02 1.00152 25.92 0.605001 26.08C0.250218 26.22 -0.000216484 26.6 -0.000216484 27V47C-0.000216484 47.56 0.458914 48 1.04326 48H9.39109C9.97544 48 10.4346 47.56 10.4346 47V27C10.4346 26.6 10.1841 26.22 9.78761 26.08ZM8.34761 46H2.08674V29.42L4.48674 31.72C4.88326 32.12 5.55109 32.12 5.96848 31.72L8.36848 29.42V46H8.34761ZM45.5998 10.3C45.412 10.12 45.1407 10 44.8693 10H42.7824C42.5111 10 42.2398 10.1 42.052 10.3L37.878 14.3C37.6902 14.48 37.565 14.74 37.565 15V47C37.565 47.56 38.0241 48 38.6085 48H46.9563C47.5407 48 47.9998 47.56 47.9998 47V13C47.9998 12.74 47.8954 12.48 47.6867 12.3L45.5998 10.3ZM45.9128 46H39.652V15.42L43.2206 12H44.452L45.9337 13.42V46H45.9128ZM46.9563 0H40.6954C40.278 0 39.9024 0.24 39.7354 0.62C39.5685 1 39.6728 1.42 39.965 1.7L42.365 4L34.4554 11.58L31.012 8.28C30.6154 7.9 29.9476 7.9 29.5302 8.28L21.9128 15.58L18.4694 12.28C18.0728 11.88 17.405 11.88 16.9876 12.28L5.19631 23.58L1.75283 20.28C1.33544 19.9 0.688479 19.9 0.271088 20.28C-0.146303 20.66 -0.125434 21.3 0.271088 21.7L4.445 25.7C4.6537 25.9 4.925 26 5.17544 26C5.42587 26 5.71804 25.9 5.90587 25.7L17.6972 14.4L21.1407 17.7C21.5372 18.08 22.205 18.08 22.6224 17.7L30.2398 10.4L33.6833 13.7C34.0798 14.1 34.7476 14.1 35.165 13.7L43.8259 5.4L46.2259 7.7C46.4346 7.88 46.685 8 46.9563 8C47.0815 8 47.2276 7.98 47.3528 7.92C47.7493 7.76 47.9998 7.4 47.9998 7V1C47.9998 0.44 47.5407 0 46.9563 0ZM45.9128 4.58L43.2206 2H45.9128V4.58ZM30.9911 14.28C30.5946 13.88 29.9267 13.88 29.5093 14.28L25.3354 18.28C25.1476 18.46 25.0224 18.72 25.0224 18.98V46.98C25.0224 47.54 25.4815 47.98 26.0659 47.98H34.4137C34.998 47.98 35.4572 47.54 35.4572 46.98V18.98C35.4572 18.72 35.3528 18.46 35.1441 18.28L30.9702 14.28H30.9911ZM33.3911 45.98H27.1302V19.4L30.2607 16.4L33.3911 19.4V45.98ZM18.4694 18.28C18.0728 17.9 17.405 17.9 16.9876 18.28L12.8137 22.28C12.6259 22.46 12.5007 22.72 12.5007 22.98V46.98C12.5007 47.54 12.9598 47.98 13.5441 47.98H21.892C22.4763 47.98 22.9354 47.54 22.9354 46.98V22.98C22.9354 22.72 22.8311 22.46 22.6224 22.28L18.4485 18.28H18.4694ZM20.8693 45.98H14.6085V23.4L17.7389 20.4L20.8693 23.4V45.98Z" fill="black"/>
  </g>
  <defs>
    <clipPath id="clip0_5344_14158">
      <rect width="48" height="48" fill="white"/>
    </clipPath>
  </defs>
</svg>
