<svg width="50" height="44" viewBox="0 0 50 44" fill="none" xmlns="http://www.w3.org/2000/svg">
  <path d="M13.168 31.4204V42.7194C19.8889 42.7174 25.3361 37.6593 25.3361 31.4204L13.168 31.4204Z" stroke="black" stroke-width="2"/>
  <path d="M1 31.3315H12.9877V19.3477C6.36857 19.3477 1.00213 24.7124 1 31.3315Z" stroke="black" stroke-width="2"/>
  <path d="M25.3359 31.4206H36.635V19.2524C30.3961 19.2524 25.3379 24.6997 25.3359 31.4206Z" stroke="black" stroke-width="2"/>
  <circle cx="43.0085" cy="6.99192" r="5.99192" stroke="black" stroke-width="2"/>
  <path d="M36.6357 19.2524C42.4108 19.2524 47.3906 23.3112 48.5573 28.9686C48.7211 29.7756 48.8037 30.5971 48.8039 31.4206V19.2524L36.6357 19.2524Z" stroke="black" stroke-width="2"/>
  <path d="M47.3505 25.6225C46.7927 24.5901 46.0866 23.645 45.2545 22.8175C42.9741 20.5242 39.8699 19.2402 36.6357 19.2525V31.4206H48.8039C48.8037 30.597 48.721 29.7754 48.5571 28.9682C48.3232 27.7993 47.9165 26.6717 47.3505 25.6225Z" stroke="black" stroke-width="2"/>
  <rect x="36.6357" y="31.4204" width="12.1682" height="11.299" stroke="black" stroke-width="2"/>
  <path d="M12.9883 1V19.0105C17.9617 19.0105 21.9935 14.9787 21.9935 10.0052C21.9935 5.03179 17.9617 1 12.9883 1Z" stroke="black" stroke-width="2"/>
  <path d="M25.0896 28.9682C24.6107 26.6371 23.4583 24.4983 21.7757 22.8175C19.4981 20.5242 16.3979 19.2402 13.168 19.2525V31.4206H25.3361C25.3379 30.5968 25.2553 29.7751 25.0896 28.9682H25.0896Z" stroke="black" stroke-width="2"/>
</svg>
