<svg width="48" height="48" viewBox="0 0 48 48" fill="none" xmlns="http://www.w3.org/2000/svg">
  <g clip-path="url(#clip0_5344_14942)">
    <path d="M25 46C24.44 46 24 45.56 24 45V1C24 0.44 24.44 0 25 0C25.56 0 26 0.44 26 1V45C26 45.56 25.56 46 25 46Z" fill="black"/>
    <path d="M47 24H3C2.44 24 2 23.56 2 23C2 22.44 2.44 22 3 22H47C47.56 22 48 22.44 48 23C48 23.56 47.56 24 47 24Z" fill="black"/>
    <path d="M43 12H7C6.44 12 6 11.56 6 11C6 10.44 6.44 10 7 10H43C43.56 10 44 10.44 44 11C44 11.56 43.56 12 43 12Z" fill="black"/>
    <path d="M43 36H25C24.44 36 24 35.56 24 35C24 34.44 24.44 34 25 34H43C43.56 34 44 34.44 44 35C44 35.56 43.56 36 43 36Z" fill="black"/>
    <path d="M25 46C24.46 46 23.92 45.96 23.38 45.92C22.84 45.88 22.36 45.4 22.4 44.84C22.44 44.3 22.84 43.86 23.42 43.92H23.52C24 43.96 24.5 44 24.98 44C36.56 44 45.98 34.58 45.98 23C45.98 11.42 36.58 2 25 2C13.42 2 4 11.42 4 23C4 23.56 3.56 24 3 24C2.44 24 2 23.56 2 23C2 10.32 12.32 0 25 0C37.68 0 48 10.32 48 23C48 35.68 37.68 46 25 46Z" fill="black"/>
    <path d="M12.82 47.9998C10.36 47.9998 8.06 47.0398 6.32 45.3198C2.36 41.3598 0 34.5198 0 26.9998C0 26.5998 0.24 26.2198 0.62 26.0798C1 25.9198 1.42 26.0198 1.7 26.2998C3.74 28.3398 7.48 28.9598 11.08 29.5398C14.42 30.0798 17.58 30.5998 19.3 32.3198C21.04 34.0598 21.98 36.3598 21.98 38.8198C21.98 41.2798 21.02 43.5798 19.28 45.3198C17.54 47.0598 15.24 47.9998 12.78 47.9998H12.82ZM2.06 29.0398C2.44 35.1998 4.5 40.6398 7.74 43.8798C10.46 46.5998 15.18 46.5998 17.9 43.8798C19.26 42.5198 20 40.7198 20 38.7998C20 36.8798 19.26 35.0798 17.9 33.7198C16.64 32.4598 13.78 31.9998 10.76 31.4998C7.8 31.0198 4.54 30.4798 2.06 29.0398Z" fill="black"/>
    <path d="M25 46C24.44 46 23.88 45.92 23.2 45.76C22.66 45.62 22.34 45.1 22.46 44.56C22.58 44.02 23.12 43.7 23.66 43.82C24.18 43.94 24.6 44 25 44C30.96 44 36 34.38 36 23C36 11.62 30.96 2 25 2C19.04 2 14 11.62 14 23C14 24.2 14.06 25.44 14.2 26.76C14.26 27.3 13.84 27.8 13.3 27.86C12.76 27.9 12.26 27.52 12.2 26.96C12.06 25.56 12 24.28 12 23C12 10.1 17.7 0 25 0C32.3 0 38 10.1 38 23C38 35.9 32.3 46 25 46Z" fill="black"/>
    <path d="M18.9998 45C18.9998 45 18.8998 45 18.8598 45C16.0198 44.6 9.57979 38.9 8.31979 37.76C7.91979 37.38 7.87979 36.76 8.25979 36.34C8.63979 35.92 9.25979 35.9 9.67979 36.28C12.4198 38.76 17.4198 42.78 19.1398 43.04C19.6798 43.12 20.0598 43.62 19.9998 44.16C19.9398 44.66 19.4998 45.02 19.0198 45.02L18.9998 45Z" fill="black"/>
  </g>
  <defs>
    <clipPath id="clip0_5344_14942">
      <rect width="48" height="48" fill="white"/>
    </clipPath>
  </defs>
</svg>
