<svg width="48" height="48" viewBox="0 0 48 48" fill="none" xmlns="http://www.w3.org/2000/svg">
  <g clip-path="url(#clip0_5344_14855)">
    <path d="M37 48C30.94 48 26 43.06 26 37C26 30.94 30.94 26 37 26C43.06 26 48 30.94 48 37C48 43.06 43.06 48 37 48ZM37 28C32.04 28 28 32.04 28 37C28 41.96 32.04 46 37 46C41.96 46 46 41.96 46 37C46 32.04 41.96 28 37 28Z" fill="black"/>
    <path d="M41 38H33C32.44 38 32 37.56 32 37C32 36.44 32.44 36 33 36H41C41.56 36 42 36.44 42 37C42 37.56 41.56 38 41 38Z" fill="black"/>
    <path d="M37 42C36.44 42 36 41.56 36 41V33C36 32.44 36.44 32 37 32C37.56 32 38 32.44 38 33V41C38 41.56 37.56 42 37 42Z" fill="black"/>
    <path d="M34.6 24.22C34.34 24.22 34.06 24.12 33.88 23.9C33.5 23.5 33.52 22.86 33.92 22.48C35.38 21.12 36.34 19.12 36.5 17.18C36.54 16.66 36.98 16.26 37.5 16.26C37.62 16.26 37.68 16.24 37.78 16.2C37.94 16.12 38.04 16 38.06 15.84L38.42 12.88C38.44 12.7 38.36 12.56 38.3 12.52C38.24 12.46 38.14 12.36 37.94 12.36C37.66 12.36 37.4 12.24 37.22 12.04C37.04 11.84 36.94 11.58 36.94 11.3L37.12 7.60002C37.12 7.36002 37.24 7.12002 37.42 6.94002L38.16 6.20002C38.58 5.76002 38.92 5.10002 38.04 3.76002C37.28 2.58002 35.88 2.00002 33.9 2.00002C33.06 2.00002 31.96 2.04002 30.8 2.44002C30.28 2.62002 29.7 2.34002 29.54 1.82002C29.36 1.30002 29.64 0.72002 30.16 0.56002C31.58 0.0800196 32.9 0.0200195 33.9 0.0200195C36.6 0.0200195 38.56 0.92002 39.72 2.70002C41.26 5.04002 40.52 6.68002 39.62 7.62002L39.14 8.10002L39.02 10.6C39.32 10.74 39.6 10.96 39.84 11.22C40.3 11.74 40.52 12.46 40.44 13.16L40.08 16.12C39.98 16.96 39.44 17.68 38.66 18.04C38.6 18.08 38.52 18.1 38.46 18.12C38.1 20.3 36.98 22.44 35.34 23.96C35.14 24.14 34.9 24.22 34.66 24.22H34.6Z" fill="black"/>
    <path d="M1 36C0.44 36 0 35.56 0 35C0 31.06 2.66 27.64 6.5 26.68L12.02 25.3L12.46 23.54C11.1 22.08 10.14 20.16 9.8 18.18C8.86 17.92 8.12 17.12 8 16.1L7.62 13.14C7.54 12.44 7.76 11.72 8.22 11.2C8.46 10.92 8.78 10.7 9.12 10.56C9.02 9.64004 8.88 8.32004 8.88 7.68004C8.88 4.88004 9.72 1.68004 16.22 1.52004C18.48 0.0400391 20.86 0.0400391 21.9 0.0400391C24.6 0.0400391 26.56 0.940039 27.72 2.72004C29.26 5.06004 28.52 6.70004 27.62 7.64004L27.14 8.12004L27.02 10.62C27.32 10.76 27.6 10.98 27.84 11.24C28.3 11.76 28.52 12.48 28.44 13.18L28.06 16.14C27.94 17.1 27.3 17.86 26.44 18.16C26.1 20.22 25.1 22.22 23.64 23.72L24.04 25.36L27.38 26.2C27.92 26.34 28.24 26.88 28.1 27.42C27.96 27.96 27.42 28.28 26.88 28.14L22.96 27.16C22.6 27.08 22.32 26.78 22.24 26.44L21.54 23.66C21.44 23.3 21.56 22.92 21.84 22.68C23.36 21.32 24.36 19.3 24.52 17.26C24.56 16.74 25 16.34 25.52 16.34C25.84 16.34 26.04 16.16 26.06 15.92L26.44 12.96C26.46 12.78 26.38 12.64 26.32 12.6C26.26 12.54 26.16 12.44 25.96 12.44C25.68 12.44 25.42 12.32 25.24 12.12C25.06 11.92 24.96 11.66 24.96 11.38L25.14 7.68004C25.14 7.44004 25.26 7.20004 25.44 7.02004L26.18 6.28004C26.6 5.84004 26.94 5.18004 26.06 3.84004C25.3 2.66004 23.9 2.08004 21.92 2.08004C20.44 2.08004 18.72 2.24004 17.14 3.38004C16.98 3.50004 16.78 3.56004 16.56 3.56004C10.9 3.62004 10.9 5.90004 10.9 7.74004C10.9 8.44004 11.14 10.56 11.24 11.32C11.28 11.6 11.18 11.9 11 12.1C10.8 12.32 10.54 12.44 10.24 12.44C9.9 12.44 9.78 12.54 9.72 12.6C9.66 12.66 9.58 12.8 9.6 12.98L9.96 15.94C9.98 16.18 10.2 16.36 10.44 16.36H10.68C11.2 16.36 11.64 16.76 11.68 17.28C11.84 19.26 12.8 21.24 14.24 22.6C14.5 22.84 14.62 23.22 14.52 23.58L13.8 26.48C13.72 26.84 13.44 27.12 13.08 27.2L6.98 28.72C4.04 29.46 2 32.08 2 35.1C2 35.66 1.56 36.1 1 36.1V36Z" fill="black"/>
  </g>
  <defs>
    <clipPath id="clip0_5344_14855">
      <rect width="48" height="48" fill="white"/>
    </clipPath>
  </defs>
</svg>
