<svg width="40" height="40" viewBox="0 0 30 32" fill="none" xmlns="http://www.w3.org/2000/svg">
  <path d="M18.3327 12.6667L14.9993 14.3333M14.9993 14.3333L11.666 12.6667M14.9993 14.3333V18.5M28.3327 7.66667L24.9993 9.33333M28.3327 7.66667L24.9993 6M28.3327 7.66667V11.8333M18.3327 2.66667L14.9993 1L11.666 2.66667M1.66602 7.66667L4.99935 6M1.66602 7.66667L4.99935 9.33333M1.66602 7.66667V11.8333M14.9993 31L11.666 29.3333M14.9993 31L18.3327 29.3333M14.9993 31V26.8333M4.99935 26L1.66602 24.3333V20.1667M24.9993 26L28.3327 24.3333V20.1667" stroke="black" stroke-opacity="0.87" stroke-width="2" stroke-linecap="round" stroke-linejoin="round" />
</svg>
