<svg width="40" height="40" viewBox="0 0 32 35" fill="none" xmlns="http://www.w3.org/2000/svg">
  <path fill-rule="evenodd" clip-rule="evenodd" d="M2.70498e-05 32.3872V7.75142C2.70498e-05 7.08709 0.249156 6.50579 0.719728 6.00755C1.1903 5.5093 1.77159 5.28784 2.43593 5.28784H4.87182V3.43324C4.87182 2.57514 5.17631 1.85544 5.75761 1.24647C6.36658 0.637494 7.0586 0.333008 7.9167 0.333008H9.13464C9.96506 0.333008 10.6848 0.637494 11.2937 1.24647C11.9027 1.85544 12.1795 2.57514 12.1795 3.43324V5.28784H19.4872V3.43324C19.4872 2.57514 19.7917 1.85544 20.373 1.24647C20.9819 0.637494 21.674 0.333008 22.5321 0.333008H23.75C24.5804 0.333008 25.3001 0.637494 25.9091 1.24647C26.5181 1.85544 26.7949 2.57514 26.7949 3.43324V5.28784H29.2308C29.8951 5.28784 30.4487 5.53697 30.947 6.00755C31.4175 6.5058 31.6667 7.05942 31.6667 7.75142V32.3595C31.6667 33.0238 31.4175 33.6051 30.947 34.1034C30.4764 34.6016 29.8951 34.8231 29.2308 34.8231H2.4359C1.77157 34.8231 1.21796 34.574 0.719701 34.1034C0.249129 33.6051 0 33.0515 0 32.3872L2.70498e-05 32.3872ZM2.43567 32.3872H29.2305V12.6786H2.43567V32.3872ZM7.30701 8.99705C7.30701 9.16313 7.36237 9.32922 7.4731 9.43993C7.58383 9.55066 7.72223 9.60602 7.91599 9.60602H9.13393C9.30002 9.60602 9.4661 9.55065 9.57682 9.43993C9.68755 9.32921 9.7429 9.19081 9.7429 8.99705V3.46092C9.7429 3.29484 9.68755 3.12875 9.57682 3.01804C9.46609 2.90731 9.32769 2.85195 9.13393 2.85195H7.91599C7.7499 2.85195 7.58381 2.90731 7.4731 3.01804C7.36237 3.12877 7.30701 3.29484 7.30701 3.46092V8.99705ZM21.921 8.99705C21.921 9.16313 21.9764 9.32922 22.0871 9.43993C22.1979 9.55066 22.3363 9.60602 22.53 9.60602H23.748C23.914 9.60602 24.0801 9.55065 24.1908 9.43993C24.3016 9.32921 24.3569 9.19081 24.3569 8.99705V3.46092C24.3569 3.29484 24.3016 3.12875 24.1908 3.01804C24.0801 2.90731 23.9417 2.85195 23.748 2.85195H22.53C22.3639 2.85195 22.1978 2.90731 22.0871 3.01804C21.9764 3.12877 21.921 3.29484 21.921 3.46092V8.99705Z" fill="black" fill-opacity="0.87" />
</svg>
