<svg width="40" height="40" viewBox="0 0 34 34" fill="none" xmlns="http://www.w3.org/2000/svg">
  <path fill-rule="evenodd" clip-rule="evenodd" d="M2.16797 0.416992C1.20147 0.416992 0.417969 1.20049 0.417969 2.16699V31.8764C0.417969 32.8429 1.20147 33.6264 2.16797 33.6264H9.22781C10.1943 33.6264 10.9778 32.8429 10.9778 31.8764V11.2268C10.9778 11.0888 11.0897 10.9768 11.2278 10.9768H14.7429C14.7478 10.9769 14.7527 10.977 14.7575 10.977C14.7624 10.977 14.7673 10.9769 14.7721 10.9768H19.2744C19.2788 10.9769 19.2831 10.9769 19.2875 10.9769C19.2919 10.9769 19.2962 10.9769 19.3006 10.9768H23.8045C23.8088 10.9769 23.8132 10.9769 23.8175 10.9769C23.8219 10.9769 23.8262 10.9769 23.8306 10.9768H28.3344C28.3387 10.9769 28.3431 10.9769 28.3475 10.9769C28.3518 10.9769 28.3562 10.9769 28.3605 10.9768H31.8774C32.8439 10.9768 33.6274 10.1933 33.6274 9.22683V2.16699C33.6274 1.20049 32.8439 0.416992 31.8774 0.416992H2.16797ZM29.0975 9.47683H31.8774C32.0155 9.47683 32.1274 9.3649 32.1274 9.22683V2.16699C32.1274 2.02892 32.0155 1.91699 31.8774 1.91699H10.8729C10.9395 2.02898 10.9777 2.15976 10.9777 2.29947L10.9777 9.49456C11.0594 9.48288 11.1429 9.47683 11.2278 9.47683H14.0075V6.26329C14.0075 5.84908 14.3433 5.51329 14.7575 5.51329C15.1718 5.51329 15.5075 5.84908 15.5075 6.26329V9.47683H18.5375V6.26327C18.5375 5.84905 18.8733 5.51327 19.2875 5.51327C19.7017 5.51327 20.0375 5.84905 20.0375 6.26327V9.47683H23.0675V5.13079C23.0675 4.71657 23.4033 4.38079 23.8175 4.38079C24.2317 4.38079 24.5675 4.71657 24.5675 5.13079V9.47683H27.5975V6.26327C27.5975 5.84905 27.9332 5.51327 28.3475 5.51327C28.7617 5.51327 29.0975 5.84905 29.0975 6.26327V9.47683ZM9.49551 10.977L2.30025 10.9769C2.16063 10.9769 2.02991 10.9388 1.91797 10.8723V31.8764C1.91797 32.0145 2.0299 32.1264 2.16797 32.1264H9.22781C9.36588 32.1264 9.47781 32.0145 9.47781 31.8764V29.0966H6.26399C5.84978 29.0966 5.51399 28.7608 5.51399 28.3466C5.51399 27.9324 5.84978 27.5966 6.26399 27.5966H9.47781V24.5667H5.13151C4.7173 24.5667 4.38151 24.2309 4.38151 23.8167C4.38151 23.4024 4.7173 23.0667 5.13151 23.0667H9.47781V20.0368L6.26398 20.0367C5.84977 20.0367 5.51399 19.7009 5.51399 19.2867C5.514 18.8725 5.84979 18.5367 6.264 18.5367L9.47781 18.5368V15.5068L6.26392 15.5068C5.84971 15.5068 5.51393 15.171 5.51394 14.7567C5.51394 14.3425 5.84973 14.0068 6.26395 14.0068L9.47781 14.0068V11.2268C9.47781 11.142 9.48384 11.0586 9.49551 10.977ZM1.91797 9.58155C2.02992 9.5151 2.16063 9.47694 2.30026 9.47694L9.47774 9.47699L9.47767 2.29949C9.47767 2.15977 9.51587 2.02898 9.58239 1.91699H2.16797C2.0299 1.91699 1.91797 2.02892 1.91797 2.16699V9.58155Z" fill="black" fill-opacity="0.87" />
</svg>
