<svg width="40" height="40" viewBox="0 0 32 25" fill="none" xmlns="http://www.w3.org/2000/svg">
  <path d="M17.6667 19H18.6667H17.6667ZM17.6667 6H16.6667H17.6667ZM24.8215 4.85095L25.5196 4.13495L25.5196 4.13495L24.8215 4.85095ZM30.5118 10.399L31.2099 9.68305H31.2099L30.5118 10.399ZM2.66667 2.125H16V0.125H2.66667V2.125ZM16.6667 2.75V19H18.6667V2.75H16.6667ZM2 19V2.75H0V19H2ZM4.33333 19.625H2.66667V21.625H4.33333V19.625ZM16 19.625H11V21.625H16V19.625ZM0 19C0 20.4735 1.21792 21.625 2.66667 21.625V19.625C2.27446 19.625 2 19.3215 2 19H0ZM16.6667 19C16.6667 19.3215 16.3922 19.625 16 19.625V21.625C17.4487 21.625 18.6667 20.4735 18.6667 19H16.6667ZM16 2.125C16.3922 2.125 16.6667 2.42854 16.6667 2.75H18.6667C18.6667 1.27654 17.4487 0.125 16 0.125V2.125ZM2.66667 0.125C1.21793 0.125 0 1.27654 0 2.75H2C2 2.42854 2.27446 2.125 2.66667 2.125V0.125ZM18.6667 19L18.6667 6L16.6667 6L16.6667 19H18.6667ZM19.3333 5.375H23.643V3.375H19.3333V5.375ZM30 11.5481V19H32V11.5481H30ZM24.1234 5.56695L29.8137 11.115L31.2099 9.68305L25.5196 4.13495L24.1234 5.56695ZM21 19.625H19.3333V21.625H21V19.625ZM29.3333 19.625H27.6667V21.625H29.3333V19.625ZM32 11.5481C32 10.8436 31.7127 10.1733 31.2099 9.68305L29.8137 11.115C29.9361 11.2343 30 11.3906 30 11.5481H32ZM23.643 5.375C23.8278 5.375 24.0002 5.44684 24.1234 5.56695L25.5196 4.13495C25.0177 3.64557 24.3422 3.375 23.643 3.375V5.375ZM16.6667 19C16.6667 20.4735 17.8846 21.625 19.3333 21.625V19.625C18.9411 19.625 18.6667 19.3215 18.6667 19H16.6667ZM30 19C30 19.3215 29.7255 19.625 29.3333 19.625V21.625C30.7821 21.625 32 20.4735 32 19H30ZM18.6667 6C18.6667 5.67854 18.9411 5.375 19.3333 5.375V3.375C17.8846 3.375 16.6667 4.52654 16.6667 6H18.6667ZM10 20.625C10 21.8439 8.97935 22.875 7.66667 22.875V24.875C10.0359 24.875 12 22.9959 12 20.625H10ZM7.66667 22.875C6.35398 22.875 5.33333 21.8439 5.33333 20.625H3.33333C3.33333 22.9959 5.29745 24.875 7.66667 24.875V22.875ZM5.33333 20.625C5.33333 19.4061 6.35398 18.375 7.66667 18.375V16.375C5.29745 16.375 3.33333 18.2541 3.33333 20.625H5.33333ZM7.66667 18.375C8.97935 18.375 10 19.4061 10 20.625H12C12 18.2541 10.0359 16.375 7.66667 16.375V18.375ZM26.6667 20.625C26.6667 21.8439 25.646 22.875 24.3333 22.875V24.875C26.7026 24.875 28.6667 22.9959 28.6667 20.625H26.6667ZM24.3333 22.875C23.0207 22.875 22 21.8439 22 20.625H20C20 22.9959 21.9641 24.875 24.3333 24.875V22.875ZM22 20.625C22 19.4061 23.0207 18.375 24.3333 18.375V16.375C21.9641 16.375 20 18.2541 20 20.625H22ZM24.3333 18.375C25.646 18.375 26.6667 19.4061 26.6667 20.625H28.6667C28.6667 18.2541 26.7026 16.375 24.3333 16.375V18.375Z" fill="black" fill-opacity="0.87" />
</svg>
