<svg width="20" height="20" viewBox="0 0 20 20" fill="none" xmlns="http://www.w3.org/2000/svg">
    <path
        d="M4.16634 15H2.49967C2.05765 15 1.63372 14.8244 1.32116 14.5118C1.0086 14.1993 0.833008 13.7754 0.833008 13.3333V6.66667C0.833008 6.22464 1.0086 5.80072 1.32116 5.48816C1.63372 5.17559 2.05765 5 2.49967 5H5.15801M12.4997 5H14.1663C14.6084 5 15.0323 5.17559 15.3449 5.48816C15.6574 5.80072 15.833 6.22464 15.833 6.66667V13.3333C15.833 13.7754 15.6574 14.1993 15.3449 14.5118C15.0323 14.8244 14.6084 15 14.1663 15H11.508"
        stroke="currentColor" stroke-width="1.25" stroke-linecap="round" stroke-linejoin="round" />
    <path d="M19.167 10.8332V9.1665" stroke="currentColor" stroke-width="1.25" stroke-linecap="round"
        stroke-linejoin="round" />
    <path d="M9.16634 5L5.83301 10H10.833L7.49967 15" stroke="currentColor" stroke-width="1.25" stroke-linecap="round"
        stroke-linejoin="round" />
</svg>
