<svg width="20" height="21" viewBox="0 0 20 21" fill="none" xmlns="http://www.w3.org/2000/svg">
<path d="M6 8.58594L7.33522 7.69579C7.44481 7.62273 7.54691 7.53903 7.64003 7.4459L8.41421 6.67172C8.78929 6.29665 9.29799 6.08594 9.82843 6.08594H10.5279C10.8384 6.08594 11.1446 6.15823 11.4223 6.29708L12.3199 6.74588C12.758 6.96493 13.1005 7.33716 13.2824 7.79195L13.6817 8.7901C13.8849 9.29831 14.2876 9.70099 14.7958 9.90427L15.7042 10.2676C16.2124 10.4709 16.6151 10.8736 16.8183 11.3818L17.3246 12.6473C17.4396 12.9348 17.6271 13.1876 17.8689 13.381L18.5547 13.9297C18.8144 14.1375 18.8937 14.4985 18.745 14.796V14.796C18.6255 15.035 18.3812 15.1859 18.114 15.1859H2.76436C2.49418 15.1859 2.23004 15.106 2.00523 14.9561V14.9561C1.43095 14.5732 1.23163 13.8227 1.54029 13.2054L1.66807 12.9498C1.81922 12.6475 2.05743 12.3974 2.35201 12.2317L2.85195 11.9505C3.27001 11.7153 3.58963 11.3377 3.75254 10.8866L3.92156 10.4186C4.06977 10.0081 4.34817 9.6574 4.71428 9.41992L6 8.58594Z" stroke="currentColor" stroke-width="1.2"/>
<ellipse cx="7.07656" cy="10.0111" rx="0.225" ry="0.225" fill="currentColor"/>
<ellipse cx="5.27578" cy="10.9105" rx="0.225" ry="0.225" fill="currentColor"/>
<ellipse cx="8.87344" cy="8.21133" rx="0.225" ry="0.225" fill="currentColor"/>
<ellipse cx="10.6742" cy="7.31094" rx="0.225" ry="0.225" fill="currentColor"/>
<ellipse cx="10.6742" cy="9.11074" rx="0.225" ry="0.225" fill="currentColor"/>
<ellipse cx="8.87344" cy="10.9105" rx="0.225" ry="0.225" fill="currentColor"/>
<ellipse cx="4.37344" cy="12.7113" rx="0.225" ry="0.225" fill="currentColor"/>
<ellipse cx="6.17422" cy="11.8109" rx="0.225" ry="0.225" fill="currentColor"/>
</svg>
