<svg width="27" height="26" viewBox="0 0 27 26" fill="none" xmlns="http://www.w3.org/2000/svg">
<path fill-rule="evenodd" clip-rule="evenodd" d="M13.5016 4.04883C14.2012 4.04883 14.7683 4.61593 14.7683 5.31549V11.6488H21.1016C21.8012 11.6488 22.3683 12.2159 22.3683 12.9155C22.3683 13.6151 21.8012 14.1822 21.1016 14.1822H14.7683V20.5155C14.7683 21.2151 14.2012 21.7822 13.5016 21.7822C12.8021 21.7822 12.235 21.2151 12.235 20.5155V14.1822H5.90163C5.20207 14.1822 4.63496 13.6151 4.63496 12.9155C4.63496 12.2159 5.20207 11.6488 5.90163 11.6488L12.235 11.6488V5.31549C12.235 4.61593 12.8021 4.04883 13.5016 4.04883Z" fill="currentColor"/>
</svg>
