<svg width="20" height="21" viewBox="0 0 20 21" fill="none" xmlns="http://www.w3.org/2000/svg">
<g clip-path="url(#clip0_6896_33561)">
<path d="M12.9475 15.168C12.8175 15 12.5817 14.9592 12.4017 15.0682C11.5475 15.5897 10.5733 15.865 9.58333 15.865C6.59667 15.865 4.16667 13.4397 4.16667 10.4589C4.16667 7.79074 6.1625 5.49356 8.80917 5.11513C9.01417 5.08519 9.16667 4.91053 9.16667 4.70344V1.31006C9.16667 1.08051 8.98 0.894209 8.75 0.894209C3.925 0.894209 0 5.185 0 10.4589C0 15.7327 4.29917 20.0235 9.58333 20.0235C11.9475 20.0235 13.2267 19.596 14.8475 18.2653C15.0217 18.1222 15.05 17.8669 14.9117 17.6889L12.9475 15.168ZM9.58333 19.1918C4.75833 19.1918 0.833333 15.2745 0.833333 10.4589C0.833333 5.79796 4.16083 1.97793 8.33333 1.73756V4.35329C5.45917 4.93798 3.33333 7.5013 3.33333 10.4589C3.33333 13.8988 6.13667 16.6967 9.58333 16.6967C10.6033 16.6967 11.6083 16.4438 12.5117 15.9639L14.0017 17.8752C12.6858 18.8774 11.5883 19.1918 9.58333 19.1918ZM10.4167 4.22104C13.4033 4.22104 15.8333 6.64631 15.8333 9.62715C15.8333 9.8567 16.02 10.043 16.25 10.043H19.5833C19.8133 10.043 20 9.8567 20 9.62715C20 4.35329 15.7008 0.0625 10.4167 0.0625C10.1867 0.0625 10 0.248803 10 0.478354V3.80519C10 4.03474 10.1867 4.22104 10.4167 4.22104ZM10.8333 0.904189C15.3275 1.11544 18.945 4.72589 19.1567 9.2113H16.6525C16.4467 6.10237 13.9475 3.60891 10.8333 3.40347V0.904189ZM19.5833 10.8747H16.1842C15.9767 10.8747 15.8008 11.0269 15.7708 11.2315C15.5833 12.5423 14.9208 13.7341 13.9075 14.5891C13.7342 14.7347 13.71 14.9925 13.8525 15.168L16.3425 18.2445C16.415 18.3351 16.5217 18.39 16.6375 18.3984C16.6475 18.3992 16.6567 18.3992 16.6667 18.3992C16.7717 18.3992 16.8733 18.3593 16.9508 18.2877C18.8883 16.4838 20 13.9337 20 11.2906C20 11.061 19.8133 10.8747 19.5833 10.8747ZM16.7025 17.3654L14.7483 14.9509C15.66 14.0751 16.2825 12.9448 16.535 11.7064H19.1567C19.0542 13.8206 18.1775 15.8425 16.7025 17.3654Z" fill="currentColor"/>
</g>
</svg>
