<svg width="20" height="21" viewBox="0 0 20 21" fill="none" xmlns="http://www.w3.org/2000/svg">
<path d="M1.31623 11.0385H3.25839V13.5427C3.25839 13.7683 3.44145 13.9512 3.66763 13.9512H5.19941V14.4422C5.19941 14.6677 5.38248 14.8507 5.60866 14.8507H8.10826V16.5952H5.98773C5.76155 16.5952 5.57849 16.7781 5.57849 17.0037C5.57849 17.2292 5.76155 17.4121 5.98773 17.4121H16.2181C16.4443 17.4121 16.6274 17.2293 16.6274 17.0037C16.6274 16.7781 16.4443 16.5952 16.2181 16.5952H14.0974L14.0973 14.8506H15.8379C15.8964 15.0047 16.0431 15.1152 16.2181 15.1152H18.1982C18.9415 15.1152 19.2268 14.0361 19.3767 13.2244C19.5482 12.2976 19.6425 11.0554 19.6425 9.72639C19.6425 7.71407 19.4547 4.33765 18.1982 4.33765H16.2181C16.043 4.33765 15.8963 4.44836 15.8378 4.60248L7.54903 4.60256H5.6084C5.38221 4.60256 5.19915 4.78541 5.19915 5.011V5.50202H3.66737C3.44119 5.50202 3.25812 5.68487 3.25812 5.91047V8.41472L1.31597 8.41457C0.967525 8.41457 0.637798 8.54955 0.383198 8.79963C0.136275 9.05099 0 9.37962 0 9.72521C0 10.4496 0.590209 11.0386 1.31597 11.0386L1.31623 11.0385ZM16.6276 5.15458H18.1621C18.4451 5.39552 18.8244 7.07942 18.8244 9.72643C18.8244 12.3736 18.4451 14.0576 18.1622 14.2985H16.6276L16.6276 5.15458ZM13.2791 16.5952H8.92673V14.8506H13.2791V16.5952ZM7.95852 5.41932H15.8093V14.0337H7.95852V5.41932ZM6.01789 13.5427V5.41932H7.14006V14.0337H6.01789V13.5427ZM4.07688 10.63V6.31875H5.19941V13.1343H4.07688V10.63ZM0.962557 9.37687C1.05804 9.28291 1.18397 9.23132 1.31623 9.23132H3.25839V10.2217H1.31623C1.0421 10.2217 0.818662 9.99891 0.818662 9.72508C0.818662 9.59487 0.871398 9.46943 0.962557 9.37687Z" fill="currentColor"/>
<path d="M9.10993 7.469H14.6568C14.883 7.469 15.0661 7.28614 15.0661 7.06055C15.0661 6.83503 14.883 6.6521 14.6568 6.6521L9.10993 6.65217C8.88375 6.65217 8.70068 6.83503 8.70068 7.06062C8.70068 7.28614 8.88374 7.469 9.10993 7.469Z" fill="currentColor"/>
<path d="M9.10993 9.2461H14.6568C14.883 9.2461 15.0661 9.06324 15.0661 8.83765C15.0661 8.61213 14.883 8.4292 14.6568 8.4292H9.10993C8.88375 8.4292 8.70068 8.61205 8.70068 8.83765C8.70068 9.06324 8.88374 9.2461 9.10993 9.2461Z" fill="currentColor"/>
<path d="M9.10993 11.0234H14.6568C14.883 11.0234 15.0661 10.8406 15.0661 10.615C15.0661 10.3895 14.883 10.2065 14.6568 10.2065L9.10993 10.2066C8.88375 10.2066 8.70068 10.3895 8.70068 10.6151C8.70068 10.8406 8.88374 11.0234 9.10993 11.0234Z" fill="currentColor"/>
<path d="M9.10993 12.8005H14.6568C14.883 12.8005 15.0661 12.6177 15.0661 12.3921C15.0661 12.1666 14.883 11.9836 14.6568 11.9836L9.10993 11.9837C8.88375 11.9837 8.70068 12.1666 8.70068 12.3922C8.70068 12.6177 8.88374 12.8005 9.10993 12.8005Z" fill="currentColor"/>
</svg>
