<svg width="20" height="20" viewBox="0 0 20 20" fill="currentColor" xmlns="http://www.w3.org/2000/svg">
    <g clip-path="url(#clip0_289_8324)">
        <path
            d="M18.9074 14.2542L16.3865 9.94571C16.2386 9.69252 15.9135 9.60709 15.6594 9.75559C15.4063 9.90354 15.3206 10.2291 15.469 10.4823L17.9896 14.7908C18.1277 15.027 18.1277 15.321 17.99 15.557C17.8492 15.7968 17.5868 15.9457 17.3047 15.9457H12.7906L14.0426 14.6939C14.2503 14.4861 14.2503 14.1497 14.0426 13.9424C13.8351 13.7348 13.4987 13.7348 13.2911 13.9424L11.1324 16.1009C11.0328 16.2005 10.9766 16.3356 10.9766 16.4766C10.9766 16.6176 11.0328 16.7527 11.1324 16.8522L13.2911 19.0108C13.3949 19.1146 13.5309 19.1666 13.667 19.1666C13.8028 19.1666 13.9387 19.1148 14.0426 19.0108C14.2503 18.8036 14.2503 18.467 14.0426 18.2593L12.7912 17.0081H17.3047C17.9625 17.0081 18.5763 16.6579 18.9074 16.0936C19.2388 15.5266 19.2388 14.8215 18.9074 14.2542Z"
        />
        <path
            d="M7.6605 15.9092L2.66906 15.9114C2.39553 15.9114 2.1418 15.7629 2.00723 15.5249C1.8712 15.2831 1.87486 14.9815 2.01731 14.7379L4.29505 10.84L4.7444 12.5529C4.80691 12.7916 5.02233 12.9494 5.2581 12.9494C5.30283 12.9494 5.3483 12.9438 5.39321 12.932C5.6772 12.8574 5.84696 12.567 5.77235 12.2832L4.99758 9.32989C4.92315 9.04573 4.63293 8.87596 4.34858 8.95076L1.39471 9.72553C1.11091 9.79978 0.941147 10.0904 1.01558 10.3742C1.08983 10.6581 1.37803 10.8274 1.66458 10.7537L3.37691 10.3043L1.09936 14.2018C0.767714 14.7698 0.760747 15.4765 1.08158 16.0467C1.40443 16.6187 2.01291 16.9743 2.66925 16.9743L7.66086 16.9721C7.95438 16.9721 8.19198 16.734 8.19198 16.4407C8.19198 16.1473 7.95383 15.9092 7.6605 15.9092Z"
        />
        <path
            d="M13.9633 7.6227C14.0536 7.6227 14.1438 7.59941 14.2241 7.55413C14.347 7.4852 14.4374 7.36988 14.4751 7.23385L15.295 4.29355C15.374 4.01066 15.2086 3.7177 14.9258 3.63905C14.6438 3.55985 14.3499 3.72521 14.2713 4.0081L13.7959 5.71328L11.5799 1.78005C11.2565 1.20713 10.6502 0.844496 9.99647 0.833863C9.98712 0.833496 9.9774 0.833496 9.96768 0.833496C9.32217 0.833496 8.72139 1.17743 8.3945 1.73623L5.87807 6.04713C5.7303 6.30068 5.81592 6.6261 6.06928 6.77386C6.32137 6.92145 6.6477 6.83638 6.79602 6.58283L9.31245 2.27248C9.45069 2.03635 9.71138 1.90288 9.97942 1.89628C10.2572 1.90086 10.5155 2.0567 10.6541 2.302L12.8697 6.23431L11.1654 5.75875C10.8816 5.67955 10.5896 5.84491 10.5104 6.1278C10.4315 6.41031 10.5971 6.70328 10.8796 6.78211L13.8204 7.60308C13.8674 7.61628 13.915 7.6227 13.9633 7.6227Z"
        />
    </g>
    <defs>
        <clipPath id="clip0_289_8324">
            <rect width="20" height="20" fill="white" />
        </clipPath>
    </defs>
</svg>