
<svg width="14" height="12" viewBox="0 0 14 12" fill="none" xmlns="http://www.w3.org/2000/svg">
<path d="M3.448 8.55194V12C5.35189 11.9994 6.89496 10.4558 6.89496 8.55194L3.448 8.55194Z" fill="#FDBD00"/>
<path d="M0 8.72455H3.44807V5.27759C1.54419 5.27759 0.000611729 6.82067 0 8.72455Z" fill="#FDBD00"/>
<path d="M6.89331 8.72455H10.3414V5.27759C8.4375 5.27759 6.89392 6.82067 6.89331 8.72455Z" fill="#FDBD00"/>
<ellipse cx="12.0829" cy="1.72348" rx="1.72348" ry="1.72348" fill="#FDBD00"/>
<path d="M10.3594 5.27759C11.9958 5.27759 13.407 6.42735 13.7376 8.02995C13.784 8.25857 13.8074 8.49127 13.8074 8.72456V5.27759L10.3594 5.27759Z" fill="#FDBD00"/>
<path d="M13.391 7.08211C13.233 6.78964 13.0329 6.52192 12.7972 6.28751C12.1512 5.63786 11.2719 5.27413 10.3557 5.27761V8.72458H13.8027C13.8026 8.49125 13.7792 8.25852 13.7328 8.02986C13.6665 7.69872 13.5513 7.37931 13.391 7.08211Z" fill="#E18800"/>
<rect x="10.3594" y="8.55194" width="3.44697" height="3.44697" fill="#FDBD00"/>
<path d="M3.448 0V5.18044C4.87854 5.18044 6.03822 4.02076 6.03822 2.59022C6.03822 1.15968 4.87854 0 3.448 0Z" fill="#FDBD00"/>
<path d="M6.82411 8.02986C6.68827 7.36952 6.36141 6.76364 5.88414 6.28751C5.23814 5.63786 4.35878 5.27413 3.44263 5.27761V8.72458H6.89403C6.89453 8.49122 6.8711 8.25843 6.82412 8.02986H6.82411Z" fill="#E18800"/>
</svg>
