<svg width="171" height="43" viewBox="0 0 171 43" fill="none" xmlns="http://www.w3.org/2000/svg">
<g opacity="0.7" clip-path="url(#clip0_3835_55623)">
<path d="M32.1046 18H36.0086L31.1126 6.8H27.4006L22.5046 18H26.3446L27.0966 16.048H31.3526L32.1046 18ZM28.1366 13.328L29.2246 10.512L30.3126 13.328H28.1366ZM38.4807 18H42.2567V9.728H45.5367V6.8H35.2007V9.728H38.4807V18ZM49.1057 18H52.8817V9.728H56.1617V6.8H45.8257V9.728H49.1057V18ZM60.8545 15.152V13.68H65.5905V10.96H60.8545V9.648H66.2465V6.8H57.1425V18H66.4545V15.152H60.8545ZM74.6121 18H78.6441L76.2921 14.544C77.6361 13.856 78.4041 12.64 78.4041 11.024C78.4041 8.432 76.4201 6.8 73.3001 6.8H67.9081V18H71.6841V15.184H72.7081L74.6121 18ZM74.5961 11.024C74.5961 11.84 74.1001 12.336 73.0601 12.336H71.6841V9.712H73.0601C74.1001 9.712 74.5961 10.208 74.5961 11.024ZM90.5537 6.8H86.9057L84.6017 10.672L82.3137 6.8H78.3297L82.5537 13.888V18H86.3297V13.936L90.5537 6.8Z" fill="#25262A"/>
<path d="M36.0977 24.9727H45.2867V28.0232H39.7645V29.4405H45.1585V32.491H39.7645V34.0334H45.2867V37.084H36.0977V24.9727Z" fill="#25262A"/>
<path d="M52.9403 24.7734C55.7562 24.7734 57.4269 26.1907 58.2623 27.752L55.1743 29.332C54.7738 28.5873 53.976 28.0054 52.9403 28.0054C51.1789 28.0054 49.9962 29.3476 49.9962 31.0371C49.9962 32.7266 51.1757 34.0689 52.9403 34.0689C53.7225 34.0689 54.4484 33.8686 54.9208 33.5245V32.9957H52.5774V29.9796H58.4813V34.8479C57.1391 36.3372 55.3213 37.3008 52.9435 37.3008C49.2735 37.3008 46.2793 34.9042 46.2793 31.034C46.2762 27.1544 49.2704 24.7734 52.9403 24.7734Z" fill="#25262A"/>
<path fill-rule="evenodd" clip-rule="evenodd" d="M67.7311 35.5258H63.0818L62.6094 37.0871H58.6328L63.1006 24.9727H67.7124L72.1802 37.0871H68.2004L67.7311 35.5258ZM64.0236 32.4722H66.7831L65.4034 28.2046L64.0236 32.4722Z" fill="#25262A"/>
<path d="M72.841 24.9727H82.0301V28.0232H76.5079V29.4405H81.9018V32.491H76.5079V37.0871H72.8379V24.9727H72.841Z" fill="#25262A"/>
<path fill-rule="evenodd" clip-rule="evenodd" d="M90.4811 35.5258H85.8318L85.3594 37.0871H81.3828L85.8506 24.9727H90.4624L94.9301 37.0871H90.9536L90.4811 35.5258ZM86.7767 32.4722H89.5363L88.1565 28.2046L86.7767 32.4722Z" fill="#25262A"/>
<path d="M94.3906 31.0403C94.3906 27.2983 97.2596 24.7734 100.964 24.7734C104.234 24.7734 105.832 26.6256 106.558 28.2964L103.398 29.7669C103.089 28.822 102.144 28.0054 100.964 28.0054C99.2933 28.0054 98.1107 29.3476 98.1107 31.0371C98.1107 32.7266 99.2902 34.0689 100.964 34.0689C102.144 34.0689 103.089 33.2523 103.398 32.3074L106.558 33.7591C105.851 35.3767 104.234 37.3008 100.964 37.3008C97.2596 37.3071 94.3906 34.7634 94.3906 31.0403Z" fill="#25262A"/>
<path fill-rule="evenodd" clip-rule="evenodd" d="M125.159 24.7734C128.901 24.7734 131.789 27.314 131.789 31.0403C131.789 34.7634 128.901 37.3071 125.159 37.3071C121.417 37.3071 118.529 34.7634 118.529 31.0403C118.532 27.3171 121.42 24.7734 125.159 24.7734ZM125.159 28.0054C123.398 28.0054 122.252 29.3476 122.252 31.0371C122.252 32.7266 123.398 34.0689 125.159 34.0689C126.921 34.0689 128.066 32.7235 128.066 31.0371C128.066 29.3507 126.921 28.0054 125.159 28.0054Z" fill="#25262A"/>
<path fill-rule="evenodd" clip-rule="evenodd" d="M137.075 33.2012H135.748V37.0871H132.078V24.9727H138.545C141.377 24.9727 142.904 26.8624 142.904 29.1307C142.904 31.2176 141.686 32.3283 140.723 32.7976L142.919 37.0839H138.742L137.075 33.2012ZM137.982 28.0232H135.748V30.1476H137.982C138.598 30.1476 139.18 29.7471 139.18 29.0775C139.18 28.4236 138.602 28.0232 137.982 28.0232Z" fill="#25262A"/>
<path d="M144.398 24.9727H148.068V37.0871H144.398V24.9727Z" fill="#25262A"/>
<path d="M110.029 25.1543H113.699V37.2687H110.029V25.1543Z" fill="#FDBD00"/>
<path d="M117.923 29.3789V33.0489H105.809V29.3789H117.923Z" fill="#FDBD00"/>
<path d="M17.4131 30.6431L21.6557 42.6355H24.2212L28.4669 30.6431V42.6355H34.2206V23.6348H26.2736L22.9384 33.3213L19.6063 23.6348H11.6562V25.5245L17.4131 37.1759V30.6431Z" fill="#25262A"/>
<path d="M161.844 32.6574C162.751 33.5303 164.116 34.2186 165.749 34.2186C166.437 34.2186 167.091 33.984 167.091 33.5115C167.091 33.0391 166.584 32.8044 165.383 32.5854C163.387 32.2225 160.333 31.7501 160.333 28.7183C160.333 26.6659 162.041 24.7949 165.364 24.7949C167.344 24.7949 169.121 25.3581 170.504 26.4844L168.543 29.0813C167.488 28.2835 166.127 27.883 165.164 27.883C164.256 27.883 164.056 28.2084 164.056 28.5181C164.056 28.9906 164.547 29.1532 165.836 29.3723C167.836 29.7164 170.795 30.2984 170.795 33.0954C170.795 35.7642 168.815 37.3098 165.564 37.3098C162.986 37.3098 161.225 36.5464 159.936 35.3857L161.844 32.6574Z" fill="#25262A"/>
<path fill-rule="evenodd" clip-rule="evenodd" d="M14.8378 22.3328C19.3244 22.3328 21.4332 19.3856 21.4332 16.2725C21.4332 13.3941 19.5903 11.1821 17.1812 10.816C19.3588 10.3467 20.9983 8.47259 20.9983 5.69115C21.0014 3.0818 18.9927 0 14.3716 0H0.808594V3.92342L9.90066 22.3328H14.8378ZM7.5729 5.49091H12.7979C13.5018 5.49091 14.137 6.09475 14.137 6.86442C14.137 7.6685 13.5018 8.30363 12.7979 8.30363H7.5729V5.49091ZM7.5729 13.7945H12.9981C13.968 13.7945 14.5719 14.5298 14.5719 15.3339C14.5719 16.1724 13.968 16.8419 12.9981 16.8419H7.5729V13.7945Z" fill="#25262A"/>
<path d="M150.033 37.0872H159.222V34.0335H153.7V33.4297H150.033V37.0872Z" fill="#FDBD00"/>
<path d="M159.222 28.0232V24.9727H150.033V28.4393H153.7V28.0232H159.222Z" fill="#FDBD00"/>
<path d="M159.131 29.3789V32.4951H149.26V29.3789H159.131Z" fill="#FD8B00"/>
</g>
<defs>
<clipPath id="clip0_3835_55623">
<rect width="169.987" height="42.6348" fill="white" transform="translate(0.808594)"/>
</clipPath>
</defs>
</svg>
