<svg width="173" height="77" viewBox="0 0 173 77" fill="none" xmlns="http://www.w3.org/2000/svg">
<g opacity="0.7">
<path d="M21.0578 16.5193C22.2824 16.9785 23.2264 17.6674 23.8897 18.5858C24.5785 19.5043 24.9229 20.6269 24.9229 21.9535C24.9229 23.867 24.132 25.3594 22.5503 26.431C20.994 27.477 18.7234 28 15.7384 28H3.87502V5.99536H15.1261C17.958 5.99536 20.1138 6.51837 21.5935 7.56438C23.0733 8.6104 23.8131 10.0136 23.8131 11.774C23.8131 12.82 23.5708 13.7512 23.086 14.5676C22.6268 15.384 21.9507 16.0346 21.0578 16.5193ZM9.84498 10.2432V14.8738H14.3607C15.4578 14.8738 16.2997 14.6824 16.8865 14.2997C17.4733 13.8915 17.7666 13.3175 17.7666 12.5776C17.7666 11.8122 17.4733 11.2382 16.8865 10.8555C16.3252 10.4473 15.4833 10.2432 14.3607 10.2432H9.84498ZM15.3174 23.7521C17.6646 23.7521 18.8382 22.9485 18.8382 21.3412C18.8382 19.7339 17.6646 18.9303 15.3174 18.9303H9.84498V23.7521H15.3174ZM44.3331 23.6373H34.0387L32.2018 28H26.3467L36.2201 5.99536H42.19L52.1017 28H46.1317L44.3331 23.6373ZM42.4962 19.2747L39.205 11.3147L35.8756 19.2747H42.4962ZM58.0761 10.7024H51.1494V5.99536H71.0493V10.7024H64.1226V28H58.0761V10.7024ZM79.2421 10.7024H72.3154V5.99536H92.2153V10.7024H85.2886V28H79.2421V10.7024ZM113.62 23.3695V28H95.9014V5.99536H113.199V10.6259H101.871V14.6441H111.898V19.0451H101.871V23.3695H113.62ZM128.358 22.1066H124.646V28H118.6V5.99536H128.626C131.662 5.99536 134.073 6.72247 135.859 8.17669C137.645 9.6054 138.538 11.5826 138.538 14.1084C138.538 15.7157 138.142 17.1189 137.351 18.318C136.586 19.4915 135.489 20.41 134.06 21.0733L138.959 28H132.453L128.358 22.1066ZM132.453 14.1084C132.453 13.0113 132.096 12.1694 131.381 11.5826C130.667 10.9958 129.608 10.7024 128.205 10.7024H124.646V17.5143H128.205C129.608 17.5143 130.667 17.2209 131.381 16.6341C132.096 16.0473 132.453 15.2054 132.453 14.1084ZM7.6755 44.1292C6.7427 44.1292 5.84577 43.9928 4.98472 43.7202C4.13802 43.4331 3.4707 43.06 2.98277 42.6008L3.62856 41.3953C4.08779 41.8115 4.68335 42.1559 5.41524 42.4286C6.16149 42.6869 6.92926 42.8161 7.71856 42.8161C8.78052 42.8161 9.56264 42.6295 10.0649 42.2564C10.5816 41.8832 10.8399 41.4025 10.8399 40.8141C10.8399 40.3549 10.6964 39.9889 10.4093 39.7163C10.1223 39.4293 9.76355 39.214 9.33303 39.0705C8.9025 38.927 8.32129 38.7691 7.5894 38.5969C6.67094 38.3816 5.93187 38.1664 5.37219 37.9511C4.81251 37.7359 4.33175 37.4058 3.92993 36.9609C3.54246 36.5017 3.34872 35.8918 3.34872 35.1312C3.34872 34.1123 3.75772 33.2871 4.57572 32.6557C5.39372 32.0099 6.53461 31.687 7.9984 31.687C8.73029 31.687 9.44066 31.7802 10.1295 31.9668C10.8327 32.1534 11.4283 32.4189 11.9162 32.7633L11.3565 34.0118C10.4237 33.3517 9.28997 33.0216 7.95534 33.0216C6.93643 33.0216 6.16866 33.2153 5.65203 33.6028C5.1354 33.9759 4.87709 34.4639 4.87709 35.0666C4.87709 35.5258 5.0206 35.8989 5.30761 36.186C5.59463 36.4586 5.9534 36.6667 6.38393 36.8102C6.8288 36.9537 7.42436 37.1116 8.17061 37.2838C9.07471 37.4991 9.8066 37.7143 10.3663 37.9296C10.926 38.1305 11.3995 38.4534 11.787 38.8983C12.1888 39.3431 12.3898 39.9387 12.3898 40.685C12.3898 41.7182 11.9736 42.5506 11.1412 43.182C10.3232 43.8134 9.16799 44.1292 7.6755 44.1292ZM21.3756 44.1292C19.754 44.1292 18.4839 43.6699 17.5655 42.7515C16.6614 41.833 16.2093 40.5271 16.2093 38.8337V31.8377H17.7592V38.7906C17.7592 40.1109 18.0678 41.1083 18.6848 41.7828C19.3019 42.4573 20.1989 42.7945 21.3756 42.7945C22.5524 42.7945 23.4493 42.4573 24.0664 41.7828C24.6979 41.1083 25.0136 40.1109 25.0136 38.7906V31.8377H26.5204V38.8337C26.5204 40.5271 26.0684 41.833 25.1643 42.7515C24.2602 43.6699 22.9973 44.1292 21.3756 44.1292ZM35.0181 44.1292C34.0853 44.1292 33.1883 43.9928 32.3273 43.7202C31.4806 43.4331 30.8133 43.06 30.3254 42.6008L30.9711 41.3953C31.4304 41.8115 32.0259 42.1559 32.7578 42.4286C33.5041 42.6869 34.2718 42.8161 35.0611 42.8161C36.1231 42.8161 36.9052 42.6295 37.4075 42.2564C37.9241 41.8832 38.1824 41.4025 38.1824 40.8141C38.1824 40.3549 38.0389 39.9889 37.7519 39.7163C37.4649 39.4293 37.1061 39.214 36.6756 39.0705C36.2451 38.927 35.6639 38.7691 34.932 38.5969C34.0135 38.3816 33.2745 38.1664 32.7148 37.9511C32.1551 37.7359 31.6743 37.4058 31.2725 36.9609C30.885 36.5017 30.6913 35.8918 30.6913 35.1312C30.6913 34.1123 31.1003 33.2871 31.9183 32.6557C32.7363 32.0099 33.8772 31.687 35.341 31.687C36.0729 31.687 36.7832 31.7802 37.4721 31.9668C38.1753 32.1534 38.7708 32.4189 39.2588 32.7633L38.6991 34.0118C37.7663 33.3517 36.6326 33.0216 35.2979 33.0216C34.279 33.0216 33.5112 33.2153 32.9946 33.6028C32.478 33.9759 32.2197 34.4639 32.2197 35.0666C32.2197 35.5258 32.3632 35.8989 32.6502 36.186C32.9372 36.4586 33.296 36.6667 33.7265 36.8102C34.1714 36.9537 34.7669 37.1116 35.5132 37.2838C36.4173 37.4991 37.1492 37.7143 37.7089 37.9296C38.2685 38.1305 38.7421 38.4534 39.1296 38.8983C39.5314 39.3431 39.7323 39.9387 39.7323 40.685C39.7323 41.7182 39.3162 42.5506 38.4838 43.182C37.6658 43.8134 36.5106 44.1292 35.0181 44.1292ZM45.5804 33.1292H41.2967V31.8377H51.414V33.1292H47.1303V44H45.5804V33.1292ZM61.3244 40.8572H54.5005L53.0798 44H51.5299L57.1483 31.8377H58.6766L64.295 44H62.7451L61.3244 40.8572ZM60.7647 39.6086L57.9232 33.3014L55.0602 39.6086H60.7647ZM67.3659 31.8377H68.9157V44H67.3659V31.8377ZM84.6779 31.8377V44H83.3863L75.7445 34.5069V44H74.1946V31.8377H75.4861L83.128 41.3307V31.8377H84.6779ZM97.5348 40.8572H90.7109L89.2902 44H87.7403L93.3587 31.8377H94.887L100.505 44H98.9555L97.5348 40.8572ZM96.9751 39.6086L94.1336 33.3014L91.2706 39.6086H96.9751ZM111.584 37.7143C112.388 37.9009 112.998 38.2525 113.414 38.7691C113.844 39.2714 114.06 39.9244 114.06 40.728C114.06 41.7756 113.658 42.5864 112.854 43.1605C112.065 43.7202 110.895 44 109.345 44H103.576V31.8377H109.001C110.393 31.8377 111.469 32.1103 112.23 32.6557C113.005 33.201 113.392 33.9688 113.392 34.959C113.392 35.6191 113.234 36.186 112.919 36.6595C112.603 37.1188 112.158 37.4704 111.584 37.7143ZM105.126 33.0431V37.2407H108.872C109.833 37.2407 110.572 37.0614 111.089 36.7026C111.606 36.3438 111.864 35.82 111.864 35.1312C111.864 34.4423 111.606 33.9257 111.089 33.5813C110.572 33.2225 109.833 33.0431 108.872 33.0431H105.126ZM109.281 42.7945C111.419 42.7945 112.488 42.0698 112.488 40.6204C112.488 39.8741 112.215 39.3288 111.67 38.9844C111.139 38.6256 110.343 38.4462 109.281 38.4462H105.126V42.7945H109.281ZM118.057 31.8377H119.607V44H118.057V31.8377ZM124.886 31.8377H126.435V42.7084H133.216V44H124.886V31.8377ZM136.402 31.8377H137.952V44H136.402V31.8377ZM145.34 33.1292H141.057V31.8377H151.174V33.1292H146.89V44H145.34V33.1292ZM158.636 40.0392V44H157.108V39.9961L152.071 31.8377H153.728L157.904 38.5539L162.08 31.8377H163.673L158.636 40.0392ZM9.05465 65.2296C7.79178 65.2296 6.5576 65.0574 5.35213 64.713C4.16579 64.3494 3.23777 63.8711 2.56807 63.2779L3.65873 61.0966C4.3093 61.6323 5.12252 62.0629 6.09838 62.3881C7.09337 62.7134 8.11706 62.8761 9.16946 62.8761C10.4515 62.8761 11.3891 62.6656 11.9822 62.2446C12.5945 61.8237 12.9007 61.2783 12.9007 60.6086C12.9007 60.092 12.7189 59.6711 12.3553 59.3458C12.0109 59.0205 11.5708 58.7717 11.0351 58.5995C10.4993 58.4273 9.77219 58.2455 8.85374 58.0542C7.61 57.7863 6.59587 57.5089 5.81136 57.2218C5.04598 56.9348 4.38584 56.4852 3.83094 55.8729C3.29518 55.2414 3.02729 54.3899 3.02729 53.3184C3.02729 51.8642 3.6109 50.697 4.7781 49.8168C5.96444 48.9175 7.57173 48.4678 9.59998 48.4678C10.6332 48.4678 11.6282 48.5922 12.585 48.8409C13.5608 49.0706 14.3932 49.415 15.082 49.8742L14.0775 52.1129C12.8337 51.2519 11.3125 50.8214 9.51388 50.8214C8.27014 50.8214 7.34212 51.0414 6.72981 51.4815C6.11751 51.9025 5.81136 52.4574 5.81136 53.1462C5.81136 53.6628 5.98357 54.0838 6.32799 54.4091C6.69154 54.7344 7.1412 54.9831 7.67697 55.1553C8.23187 55.3275 8.96855 55.5093 9.887 55.7006C11.1499 55.9877 12.1544 56.2747 12.9007 56.5617C13.6661 56.8296 14.3166 57.2697 14.8524 57.882C15.4073 58.4943 15.6847 59.3171 15.6847 60.3503C15.6847 61.8428 15.0916 63.0291 13.9052 63.9093C12.738 64.7895 11.1212 65.2296 9.05465 65.2296ZM38.1367 65.2296C35.8979 65.2296 34.1471 64.5982 32.8842 63.3353C31.6214 62.0724 30.9899 60.3025 30.9899 58.0255V48.6974H33.774V57.9681C33.774 59.5562 34.1471 60.7617 34.8934 61.5845C35.6396 62.4073 36.7303 62.8187 38.1654 62.8187C39.5813 62.8187 40.6624 62.4073 41.4086 61.5845C42.174 60.7617 42.5567 59.5562 42.5567 57.9681V48.6974H45.2834V58.0255C45.2834 60.3025 44.6519 62.0724 43.3891 63.3353C42.1262 64.5982 40.3754 65.2296 38.1367 65.2296ZM77.5351 65L77.5064 53.6915L71.8809 63.0483H70.5893L64.9638 53.9498V65H62.2945V48.6974H64.6768L71.2782 59.6615L77.7647 48.6974H80.1757L80.2044 65H77.5351ZM112.648 65L112.619 53.6915L106.993 63.0483H105.702L100.076 53.9498V65H97.407V48.6974H99.7893L106.391 59.6615L112.877 48.6974H115.288L115.317 65H112.648ZM132.52 48.6974H135.304V65H132.52V48.6974ZM155.367 50.9936H149.799V48.6974H163.719V50.9936H158.151V65H155.367V50.9936Z" fill="#25262A"/>
<line x1="123.178" y1="71.1565" x2="3.5873" y2="71.1566" stroke="#25262A" stroke-width="1.1959"/>
<path fill-rule="evenodd" clip-rule="evenodd" d="M161.68 4.45055L160.849 4.78303L159.32 5.39466C158.356 5.78016 157.481 6.35739 156.747 7.09134C155.905 7.93271 155.271 8.95841 154.895 10.0872L154.759 10.4969C154.436 11.4649 154.271 12.4787 154.271 13.4991V14.8779L155.009 13.4027C155.546 12.3288 156.253 11.3485 157.102 10.4995C157.475 10.1258 157.875 9.77898 158.298 9.46182L158.345 9.42689C159.516 8.54867 160.837 7.89228 162.245 7.49017L162.923 7.29627C163.857 7.02953 164.763 6.67403 165.629 6.23464L168.308 4.87516C168.455 4.80044 168.635 4.85923 168.71 5.00647C168.784 5.15372 168.726 5.33366 168.578 5.40838L165.899 6.76786C165 7.22452 164.058 7.59399 163.088 7.87122L162.409 8.06511C161.072 8.44717 159.816 9.07083 158.703 9.90525L158.657 9.94018C158.257 10.2404 157.878 10.5686 157.524 10.9223C156.721 11.7259 156.052 12.6537 155.544 13.6701L154.36 16.0386L154.271 15.9945V16.1441L154.554 16.0028C155.941 15.3093 157.471 14.9482 159.021 14.9482C159.838 14.9482 160.652 14.8481 161.444 14.65L162.643 14.3503L164.356 13.6649C165.206 13.3251 166.027 12.9179 166.811 12.4471L167.922 11.7809C168.387 11.5017 168.816 11.1665 169.2 10.7828C169.998 9.98518 170.579 8.99751 170.889 7.91298L172.808 1.19531C170.839 2.37658 168.633 3.10764 166.349 3.3361L166.152 3.35579C164.617 3.50925 163.112 3.87778 161.68 4.45055Z" fill="#FDBD00"/>
<path d="M140.52 5.38086H147.097L152.479 14.9481L155.468 16.742V20.3297V27.5051H149.489V20.3297L140.52 5.38086Z" fill="#25262A"/>
</g>
</svg>
