<svg width="109" height="61" viewBox="0 0 109 61" fill="none" xmlns="http://www.w3.org/2000/svg">
<rect opacity="0.7" x="10" y="48.002" width="3" height="8" fill="#FDBD00"/>
<rect opacity="0.7" x="30" y="48.002" width="4" height="8" fill="#FDBD00"/>
<g clip-path="url(#clip0_3835_55664)">
<path opacity="0.7" d="M4.298 45.084C6.804 45.084 7.952 43.852 7.952 42.41C7.952 38.84 1.918 40.464 1.918 37.776C1.918 36.796 2.716 35.998 4.508 35.998C5.376 35.998 6.356 36.264 7.196 36.81L7.546 35.984C6.762 35.438 5.614 35.116 4.508 35.116C2.016 35.116 0.896 36.362 0.896 37.804C0.896 41.43 6.93 39.778 6.93 42.466C6.93 43.432 6.132 44.202 4.298 44.202C3.01 44.202 1.764 43.698 1.064 43.012L0.658 43.81C1.386 44.566 2.828 45.084 4.298 45.084ZM23.6913 45.084C26.1973 45.084 27.7093 43.628 27.7093 40.814V35.2H26.7013V40.772C26.7013 43.096 25.6093 44.16 23.6913 44.16C21.7873 44.16 20.6953 43.096 20.6953 40.772V35.2H19.6593V40.814C19.6593 43.628 21.1853 45.084 23.6913 45.084ZM49.6892 35.2L45.4752 42.466L41.2192 35.2H40.3652V45H41.3592V37.202L45.2092 43.754H45.6992L49.5492 37.16V45H50.5432V35.2H49.6892ZM72.5943 35.2L68.3803 42.466L64.1243 35.2H63.2703V45H64.2643V37.202L68.1143 43.754H68.6043L72.4543 37.16V45H73.4483V35.2H72.5943ZM86.1754 45H87.2114V35.2H86.1754V45ZM101.838 45H102.874V36.096H106.318V35.2H98.394V36.096H101.838V45Z" fill="#25262A"/>
<rect opacity="0.7" x="0.748047" y="55.4707" width="101.047" height="3.58452" fill="#FDBD00"/>
<g opacity="0.7" clip-path="url(#clip1_3835_55664)">
<path fill-rule="evenodd" clip-rule="evenodd" d="M0.525391 21.1309H5.46463C6.68002 21.1309 7.63885 21.4685 8.24654 22.0728C8.73024 22.5486 8.9944 23.2041 8.97577 23.8824V23.9128C8.99999 24.8777 8.46092 25.7687 7.59496 26.195C8.82724 26.6677 9.58686 27.38 9.58686 28.8081V28.8385C9.58686 30.7865 8.00686 31.7588 5.60306 31.7588H0.538881L0.525391 21.1309ZM6.65301 24.2774C6.65301 23.5785 6.10272 23.1835 5.11689 23.1835H2.80424V25.432H4.96496C5.99804 25.432 6.65301 25.0944 6.65301 24.3078V24.2774ZM5.51188 27.38H2.81101V29.7197H5.5929C6.62937 29.7197 7.25057 29.3551 7.25057 28.5651V28.5347C7.25734 27.8189 6.71378 27.38 5.51189 27.38H5.51188Z" fill="#25262A"/>
<path d="M11.4785 21.1309H19.5035V23.2139H13.8046V25.3713H18.8216V27.4543H13.8046V29.6893H19.5812V31.7723H11.4785V21.1309Z" fill="#25262A"/>
<path d="M21.6426 21.1309H23.7999L28.7864 27.6839V21.1309H31.0957V31.7723H29.1038L23.9519 25.0201V31.7723H21.6426L21.6426 21.1309Z" fill="#25262A"/>
<path d="M33.1572 26.4828V26.4524C33.129 24.9761 33.7063 23.5527 34.7548 22.5131C35.8033 21.4735 37.2316 20.9085 38.7076 20.9493C40.713 20.9493 41.9149 21.6246 42.9007 22.5901L41.4118 24.3086C40.5914 23.5658 39.7542 23.1067 38.6907 23.1067C36.898 23.1067 35.6049 24.5989 35.6049 26.422V26.4524C35.6049 28.2755 36.8676 29.7947 38.6907 29.7947C39.9061 29.7947 40.6522 29.3086 41.4895 28.549L42.9783 30.0547C41.8933 31.3244 40.2851 32.0252 38.6164 31.9554C37.159 31.9795 35.7543 31.4102 34.7249 30.3782C33.6954 29.3463 33.1296 27.9402 33.1572 26.4828V26.4828Z" fill="#25262A"/>
<path d="M44.8242 21.1309H47.1638V25.3409H51.4819V21.1309H53.8215V31.7723H51.4819V27.5016H47.1638V31.7723H44.8242V21.1309Z" fill="#25262A"/>
<path d="M56.3516 21.1309H58.8736L61.6724 25.6312L64.4677 21.1309H66.9897V31.7723H64.6669V24.8243L61.6724 29.3686H61.6116L58.6473 24.8716V31.7723H56.3516V21.1309Z" fill="#25262A"/>
<path fill-rule="evenodd" clip-rule="evenodd" d="M73.1686 21.0566H75.3124L79.8735 31.7724H77.4394L76.467 29.3855H71.9667L70.9944 31.7724H68.6074L73.1686 21.0566ZM75.6298 27.3193L74.2151 23.8689L72.804 27.3193H75.6298Z" fill="#25262A"/>
<path fill-rule="evenodd" clip-rule="evenodd" d="M81.4824 21.1309H86.3474C87.6978 21.1309 88.7511 21.5124 89.45 22.2112C90.069 22.8655 90.3977 23.742 90.3616 24.642V24.6724C90.4323 26.1609 89.4972 27.5124 88.0793 27.9708L90.679 31.7723H87.9443L85.6654 28.3658H83.8254V31.7723H81.4824L81.4824 21.1309ZM86.209 26.2997C87.3501 26.2997 88.0017 25.692 88.0017 24.7939V24.7636C88.0017 23.7507 87.3028 23.2443 86.1651 23.2443H83.8389V26.2828L86.209 26.2997Z" fill="#25262A"/>
<path d="M92.4863 21.1309H94.826V25.7831L99.1338 21.1309H101.96L97.6282 25.6447L102.159 31.7723H99.3466L96.0482 27.2416L94.8159 28.5178V31.7723H92.4863L92.4863 21.1309Z" fill="#25262A"/>
</g>
<path d="M0 13.5969L50.5332 0L99.6743 13.5969" stroke="#FDBD00" stroke-width="4"/>
<rect opacity="0.7" x="51" y="48.002" width="4" height="8" fill="#FDBD00"/>
</g>
<rect opacity="0.7" x="71" y="48.002" width="3" height="8" fill="#FDBD00"/>
<rect opacity="0.7" x="91" y="48.002" width="4" height="8" fill="#FDBD00"/>
<defs>
<clipPath id="clip0_3835_55664">
<rect width="109" height="60.88" fill="white"/>
</clipPath>
<clipPath id="clip1_3835_55664">
<rect width="101.633" height="11.0129" fill="white" transform="translate(0.525391 20.9473)"/>
</clipPath>
</defs>
</svg>
