<svg width="187" height="51" viewBox="0 0 187 51" fill="none" xmlns="http://www.w3.org/2000/svg">
<g opacity="0.7">
<path d="M28.886 11.5745C30.5305 10.709 31.5691 9.15102 31.5691 7.13147C31.5691 3.98674 28.9726 1.88063 23.9237 1.88063H14.0567V22.0762H24.5007C29.8092 22.0762 32.5789 20.0566 32.5789 16.5657C32.5789 14.0268 31.1364 12.2958 28.886 11.5745ZM23.3467 5.40042C25.6259 5.40042 26.8665 6.1794 26.8665 7.76619C26.8665 9.35298 25.6259 10.1608 23.3467 10.1608H18.7017V5.40042H23.3467ZM24.1545 18.5564H18.7017V13.5652H24.1545C26.578 13.5652 27.8762 14.373 27.8762 16.0752C27.8762 17.8063 26.578 18.5564 24.1545 18.5564ZM40.0123 18.5852V15.3251H47.5712V12.0073H40.0123V8.97792H48.5521V5.48698H35.5116V22.0762H48.8695V18.5852H40.0123ZM63.1542 5.48698V14.6615L55.5088 5.48698H51.7582V22.0762H56.23V12.9305L63.8755 22.0762H67.6261V5.48698H63.1542ZM79.6886 22.3935C82.7757 22.3935 85.1414 21.4992 86.8436 19.3642L83.9008 16.6811C82.7757 18.0371 81.4197 18.6718 79.8617 18.6718C77.0632 18.6718 75.0148 16.7099 75.0148 13.796C75.0148 10.8532 77.0632 8.89137 79.8617 8.89137C81.4197 8.89137 82.7757 9.52608 83.9008 10.8821L86.8436 8.19895C85.1414 6.06399 82.8045 5.16962 79.6886 5.16962C74.3801 5.16962 70.4275 8.80482 70.4275 13.796C70.4275 18.7872 74.3801 22.3935 79.6886 22.3935ZM89.2664 22.0762H93.8248V15.4982H100.576V22.0762H105.134V5.48698H100.576V11.8341H93.8248V5.48698H89.2664V22.0762ZM128.593 22.0762L128.535 5.48698H124.698L118.899 15.1231L112.956 5.48698H109.148V22.0762H113.389V13.3055L117.803 20.3163H119.851L124.294 13.017L124.323 22.0762H128.593ZM145.013 22.0762H149.514L142.042 5.48698H137.541L130.097 22.0762H134.512L135.896 18.7872H143.657L145.013 22.0762ZM137.281 15.4982L139.791 9.49723L142.272 15.4982H137.281ZM161.495 22.0762H166.4L162.707 16.8542C164.842 15.8733 166.082 14.0557 166.082 11.6033C166.082 7.76619 163.168 5.48698 158.61 5.48698H151.051V22.0762H155.609V17.6332H158.408L161.495 22.0762ZM161.495 11.6033C161.495 13.219 160.428 14.1711 158.293 14.1711H155.609V9.03562H158.293C160.428 9.03562 161.495 9.95885 161.495 11.6033ZM180.524 22.0762H185.832L178.562 12.8728L185.457 5.48698H180.437L173.686 12.5554V5.48698H169.185V22.0762H173.686V17.8928L175.561 15.9598L180.524 22.0762ZM56.9803 23.4951L51.0235 41.6211L45.1764 23.4951H39.6948L33.665 41.475L27.891 23.4951H21.7515L30.1567 49.0762H36.4789L42.2894 31.7542L47.9173 49.0762H54.276L62.6446 23.4951H56.9803ZM70.8474 44.6543V40.5248H80.422V36.3222H70.8474V32.4851H81.6645V28.0632H65.1465V49.0762H82.0665V44.6543H70.8474ZM91.4264 44.6543V40.5248H101.001V36.3222H91.4264V32.4851H102.244V28.0632H85.7255V49.0762H102.646V44.6543H91.4264ZM120.666 49.0762H127.391L118.181 37.4185L126.916 28.0632H120.557L112.005 37.0165V28.0632H106.305V49.0762H112.005V43.7772L114.381 41.3288L120.666 49.0762Z" fill="#25262A"/>
<path d="M0 0H13.4637L47.1229 50.9697H31.8233L0 0Z" fill="#FBBA00"/>
</g>
</svg>
