<svg width="186" height="60" viewBox="0 0 186 60" fill="none" xmlns="http://www.w3.org/2000/svg">
<g opacity="0.7">
<path d="M18.8086 20.1445C19.4487 20.578 20.0456 21.0722 20.5909 21.6201C20.0456 21.0722 19.4487 20.578 18.8086 20.1445V20.1445Z" fill="#7A7B80"/>
<path d="M20.5918 21.6152C21.4165 22.4354 22.1164 23.3722 22.6692 24.3955C22.1164 23.3722 21.4165 22.4354 20.5918 21.6152H20.5918Z" fill="#7A7B80"/>
<path d="M12.0645 30.1074V42.1721C18.7261 42.1699 24.1252 36.769 24.1252 30.1074L12.0645 30.1074Z" fill="#FDBD00"/>
<path d="M22.6699 24.3906C23.2364 25.4296 23.6447 26.5473 23.8814 27.7068C23.6447 26.5473 23.2364 25.4296 22.6699 24.3906V24.3906Z" fill="#7A7B80"/>
<path d="M0 30.1389H12.0646V18.0781C5.40303 18.0781 0.00214 23.4773 0 30.1389Z" fill="#FDBD00"/>
<path d="M24.125 30.1389H36.1896V18.0781C29.528 18.0781 24.1272 23.4773 24.125 30.1389H24.125Z" fill="#FDBD00"/>
<circle cx="42.1476" cy="6.03037" r="6.03037" fill="#FDBD00"/>
<path d="M36.1152 18.0781C41.8411 18.0781 46.7786 22.1011 47.9353 27.7085C48.0977 28.5084 48.1797 29.3226 48.1799 30.1389V18.0781H36.1152Z" fill="#FDBD00"/>
<path d="M46.7217 24.392C46.1689 23.3687 45.4689 22.432 44.6443 21.6118C42.384 19.3387 39.3071 18.066 36.1016 18.0782V30.139H48.1623C48.1621 29.3226 48.0801 28.5082 47.9177 27.7082C47.6858 26.5496 47.2828 25.4319 46.7217 24.392H46.7217Z" fill="#FD8B00"/>
<rect x="36.1172" y="30.1074" width="12.0607" height="12.0607" fill="#FDBD00"/>
<path d="M12.0645 0V18.1261C17.0698 18.1261 21.1275 14.0684 21.1275 9.06304C21.1275 4.05766 17.0698 0 12.0645 0Z" fill="#FDBD00"/>
<path fill-rule="evenodd" clip-rule="evenodd" d="M52.5879 29.5879H58.2688C59.6667 29.5879 60.7695 29.9762 61.4684 30.6713C62.0248 31.2186 62.3286 31.9725 62.3071 32.7526V32.7875C62.335 33.8974 61.715 34.9221 60.719 35.4125C62.1363 35.9561 63.01 36.7754 63.01 38.4179V38.4529C63.01 40.6934 61.1927 41.8117 58.428 41.8117H52.6034L52.5879 29.5879ZM59.6356 33.2069C59.6356 32.4031 59.0027 31.9488 57.8688 31.9488H55.2089V34.5349H57.6941C58.8823 34.5349 59.6356 34.1466 59.6356 33.2419L59.6356 33.2069ZM58.3231 36.7754H55.2167V39.4664H58.4163C59.6084 39.4664 60.3229 39.047 60.3229 38.1384V38.1034C60.3307 37.2802 59.7055 36.7754 58.3232 36.7754H58.3231Z" fill="#25262A"/>
<path d="M65.1856 29.5879H74.4156V31.9837H67.861V34.465H73.6312V36.8608H67.861V39.4314H74.5049V41.8273H65.1855L65.1856 29.5879Z" fill="#25262A"/>
<path d="M76.877 29.5879H79.3582L85.0935 37.1249V29.5879H87.7495V41.8273H85.4585L79.533 34.0612V41.8273H76.877L76.877 29.5879Z" fill="#25262A"/>
<path d="M90.1164 35.7397V35.7048C90.0839 34.0069 90.7478 32.3697 91.9538 31.174C93.1598 29.9783 94.8026 29.3284 96.5002 29.3754C98.8067 29.3754 100.189 30.152 101.323 31.2626L99.6105 33.2391C98.6669 32.3848 97.7039 31.8567 96.4807 31.8567C94.4188 31.8567 92.9316 33.573 92.9316 35.6699V35.7048C92.9316 37.8017 94.3839 39.549 96.4807 39.549C97.8786 39.549 98.7368 38.9899 99.6998 38.1162L101.412 39.848C100.164 41.3084 98.3145 42.1144 96.3953 42.0342C94.719 42.0619 93.1034 41.4071 91.9194 40.2201C90.7353 39.0332 90.0845 37.416 90.1164 35.7398V35.7397Z" fill="#25262A"/>
<path d="M103.537 29.5879H106.228V34.4301H111.194V29.5879H113.885V41.8273H111.194V36.9152H106.228V41.8273H103.537V29.5879Z" fill="#25262A"/>
<path d="M116.797 29.5879H119.698L122.917 34.764L126.132 29.5879H129.032V41.8273H126.361V33.836L122.917 39.0625H122.847L119.437 33.8903V41.8273H116.797L116.797 29.5879Z" fill="#25262A"/>
<path fill-rule="evenodd" clip-rule="evenodd" d="M136.139 29.502H138.604L143.85 41.8267H141.051L139.932 39.0814H134.756L133.638 41.8267H130.893L136.139 29.502ZM138.969 36.705L137.342 32.7365L135.719 36.705H138.969Z" fill="#25262A"/>
<path fill-rule="evenodd" clip-rule="evenodd" d="M145.701 29.5879H151.297C152.85 29.5879 154.061 30.0267 154.865 30.8305C155.577 31.5831 155.955 32.5911 155.914 33.6263V33.6612C155.995 35.3732 154.919 36.9276 153.289 37.455L156.279 41.8273H153.133L150.512 37.9093H148.396V41.8273H145.701L145.701 29.5879ZM151.137 35.5328C152.45 35.5328 153.199 34.8339 153.199 33.801V33.7661C153.199 32.6011 152.396 32.0187 151.087 32.0187H148.412V35.5134L151.137 35.5328Z" fill="#25262A"/>
<path d="M158.355 29.5879H161.046V34.9387L166.001 29.5879H169.251L164.269 34.7795L169.48 41.8273H166.246L162.452 36.6162L161.035 38.084V41.8273H158.355V29.5879Z" fill="#25262A"/>
<path d="M23.8805 27.7082C23.4052 25.3977 22.2615 23.2778 20.5915 21.6118C18.3312 19.3387 15.2544 18.066 12.0488 18.0782V30.139H24.1251C24.1268 29.3225 24.0449 28.508 23.8805 27.7082Z" fill="#FD8B00"/>
</g>
<path opacity="0.7" d="M67.128 44.8L63.688 54.896L60.2 44.8H59.416L55.912 54.88L52.504 44.8H51.64L55.448 56H56.312L59.8 45.952L63.272 56H64.136L67.928 44.8H67.128ZM77.0188 56.08C80.3468 56.08 82.8428 53.664 82.8428 50.4C82.8428 47.136 80.3468 44.72 77.0188 44.72C73.6748 44.72 71.1948 47.152 71.1948 50.4C71.1948 53.648 73.6748 56.08 77.0188 56.08ZM77.0188 55.328C74.1548 55.328 72.0108 53.232 72.0108 50.4C72.0108 47.568 74.1548 45.472 77.0188 45.472C79.8668 45.472 82.0108 47.568 82.0108 50.4C82.0108 53.232 79.8668 55.328 77.0188 55.328ZM96.473 56L93.673 52.08C95.337 51.584 96.297 50.352 96.297 48.576C96.297 46.208 94.601 44.8 91.785 44.8H87.769V56H88.585V52.336H91.785C92.169 52.336 92.521 52.304 92.873 52.256L95.545 56H96.473ZM88.585 51.616V45.536H91.785C94.185 45.536 95.465 46.64 95.465 48.576C95.465 50.496 94.185 51.616 91.785 51.616H88.585ZM101.381 56H108.645V55.264H102.197V44.8H101.381V56ZM112.836 56H117.268C120.82 56 123.22 53.664 123.22 50.4C123.22 47.136 120.82 44.8 117.268 44.8H112.836V56ZM113.652 55.264V45.536H117.204C120.372 45.536 122.404 47.552 122.404 50.4C122.404 53.248 120.372 55.264 117.204 55.264H113.652ZM136.5 56H137.316V45.536H141.348V44.8H132.468V45.536H136.5V56ZM150.063 56.08C153.391 56.08 155.887 53.664 155.887 50.4C155.887 47.136 153.391 44.72 150.063 44.72C146.719 44.72 144.239 47.152 144.239 50.4C144.239 53.648 146.719 56.08 150.063 56.08ZM150.063 55.328C147.199 55.328 145.055 53.232 145.055 50.4C145.055 47.568 147.199 45.472 150.063 45.472C152.911 45.472 155.055 47.568 155.055 50.4C155.055 53.232 152.911 55.328 150.063 55.328ZM165.198 56.08C167.982 56.08 169.694 54.448 169.694 51.248V44.8H168.878V51.216C168.878 54.016 167.55 55.328 165.214 55.328C162.878 55.328 161.534 54.016 161.534 51.216V44.8H160.718V51.248C160.718 54.448 162.414 56.08 165.198 56.08ZM184.301 56L181.501 52.08C183.165 51.584 184.125 50.352 184.125 48.576C184.125 46.208 182.429 44.8 179.613 44.8H175.597V56H176.413V52.336H179.613C179.997 52.336 180.349 52.304 180.701 52.256L183.373 56H184.301ZM176.413 51.616V45.536H179.613C182.013 45.536 183.293 46.64 183.293 48.576C183.293 50.496 182.013 51.616 179.613 51.616H176.413Z" fill="#25262A"/>
</svg>
