<svg width="136" height="63" viewBox="0 0 136 63" fill="none" xmlns="http://www.w3.org/2000/svg">
<g opacity="0.7">
<path d="M9.96856 39.9346C8.19756 39.9346 6.62158 39.5316 5.23858 38.7236C3.85558 37.9156 2.77056 36.8206 1.98559 35.4376C1.20056 34.0546 0.808594 32.4896 0.808594 30.7416C0.808594 28.9496 1.19458 27.3566 1.96954 25.9626C2.74359 24.5686 3.80658 23.4796 5.15558 22.6936C6.50556 21.9086 8.05457 21.5156 9.80255 21.5156C11.1066 21.5156 12.3026 21.7646 13.3866 22.2616C14.4706 22.7596 15.4436 23.5066 16.3076 24.5016C16.6166 24.8566 16.7266 25.2216 16.6386 25.5976C16.5505 25.9736 16.3076 26.3056 15.9086 26.5926C15.5986 26.8146 15.2556 26.8866 14.8796 26.8086C14.5035 26.7316 14.1606 26.5376 13.8506 26.2286C12.7665 25.0786 11.4166 24.5016 9.80256 24.5016C8.67359 24.5016 7.6786 24.7626 6.81458 25.2826C5.95258 25.8026 5.27656 26.5266 4.79059 27.4556C4.30359 28.3846 4.05957 29.4806 4.05957 30.7416C4.05957 31.9366 4.30859 32.9976 4.80756 33.9276C5.30555 34.8566 5.99659 35.5926 6.8816 36.1346C7.76655 36.6766 8.79456 36.9476 9.96858 36.9476C10.7416 36.9476 11.4226 36.8536 12.0096 36.6656C12.5956 36.4776 13.1316 36.1846 13.6186 35.7866C13.9726 35.4986 14.3376 35.3376 14.7136 35.3046C15.0896 35.2716 15.4216 35.3766 15.7096 35.6206C16.0856 35.9306 16.2956 36.2786 16.3406 36.6656C16.3846 37.0526 16.2516 37.4016 15.9416 37.7106C14.3486 39.1936 12.3566 39.9346 9.96858 39.9346H9.96856Z" fill="#25262A"/>
<path fill-rule="evenodd" clip-rule="evenodd" d="M25.2499 39.9346C23.6349 39.9346 22.1849 39.5316 20.9019 38.7236C19.619 37.9156 18.606 36.8206 17.8649 35.4376C17.124 34.0546 16.7539 32.4896 16.7539 30.7416C16.7539 28.9946 17.1569 27.4226 17.9649 26.0296C18.7719 24.6346 19.8679 23.5356 21.2509 22.7266C22.6329 21.9186 24.187 21.5156 25.9139 21.5156C27.6399 21.5156 29.1869 21.9186 30.559 22.7266C31.9319 23.5356 33.02 24.6346 33.8289 26.0296C34.637 27.4226 35.0399 28.9946 35.0399 30.7416H33.7459C33.7459 32.4896 33.3749 34.0546 32.6339 35.4376C31.8929 36.8206 30.8809 37.9156 29.598 38.7236C28.3139 39.5316 26.8639 39.9346 25.2499 39.9346Z" fill="#25262A"/>
<path fill-rule="evenodd" clip-rule="evenodd" d="M25.9139 36.948C27.0419 36.948 28.0489 36.6769 28.9339 36.135C29.8179 35.5929 30.5159 34.852 31.0239 33.9119C31.5329 32.971 31.7878 31.9139 31.7878 30.7419C31.7878 29.547 31.5329 28.48 31.0239 27.5389C30.5159 26.599 29.8179 25.8579 28.9339 25.316C28.0489 24.7739 27.0419 24.502 25.9139 24.502C24.8069 24.502 23.8069 24.7739 22.9098 25.316C22.0138 25.8579 21.3058 26.599 20.7859 27.5389C20.2659 28.48 20.0059 29.547 20.0059 30.7419C20.0059 31.9139 20.2659 32.9709 20.7859 33.9119C21.3058 34.8519 22.0139 35.5929 22.9098 36.135C23.8069 36.6769 24.8069 36.948 25.9139 36.948Z" fill="white"/>
<path fill-rule="evenodd" clip-rule="evenodd" d="M33.3474 39.8349C32.8593 39.8349 32.4563 39.6749 32.1364 39.3539C31.8143 39.0339 31.6543 38.6289 31.6543 38.1429V33.0649L32.2853 29.5469L35.0393 30.7419V38.1429C35.0393 38.6289 34.8793 39.0339 34.5583 39.3539C34.2373 39.6749 33.8333 39.8349 33.3473 39.8349H33.3474Z" fill="#25262A"/>
<path fill-rule="evenodd" clip-rule="evenodd" d="M35.3207 25.1645C34.8557 25.1645 34.4797 25.0325 34.1917 24.7665C33.9047 24.5005 33.7617 24.1695 33.7617 23.7715C33.7617 23.3285 33.9047 22.9745 34.1917 22.7085C34.4797 22.4435 34.8557 22.3105 35.3207 22.3105H42.9867C43.4517 22.3105 43.8277 22.4435 44.1157 22.7085C44.4027 22.9745 44.5467 23.3285 44.5467 23.7715C44.5467 24.1695 44.4027 24.5005 44.1157 24.7665C43.8277 25.0325 43.4517 25.1645 42.9867 25.1645H35.3207Z" fill="#25262A"/>
<path fill-rule="evenodd" clip-rule="evenodd" d="M42.6876 39.801C41.5816 39.801 40.5866 39.519 39.7016 38.954C38.8156 38.391 38.1196 37.622 37.6107 36.649C37.1006 35.675 36.8477 34.579 36.8477 33.363V17.533C36.8477 17.046 37.0016 16.648 37.3116 16.337C37.6216 16.028 38.0197 15.873 38.5067 15.873C38.9926 15.873 39.3916 16.028 39.7016 16.337C40.0117 16.648 40.1666 17.046 40.1666 17.533V33.363C40.1666 34.248 40.4096 34.989 40.8956 35.586C41.3826 36.184 41.9796 36.483 42.6876 36.483H43.8167C44.2156 36.483 44.5526 36.637 44.8286 36.947C45.1046 37.257 45.2437 37.656 45.2437 38.142C45.2437 38.628 45.0606 39.027 44.6956 39.336C44.3316 39.647 43.8607 39.801 43.2857 39.801L42.6876 39.801Z" fill="#25262A"/>
<path fill-rule="evenodd" clip-rule="evenodd" d="M48.0846 33.1988C47.5976 33.1988 47.1926 33.0388 46.8726 32.7168C46.5525 32.3968 46.3926 31.9938 46.3926 31.5058V15.5768C46.3926 15.0678 46.5525 14.6588 46.8726 14.3478C47.1926 14.0388 47.5976 13.8828 48.0846 13.8828C48.5936 13.8828 49.0026 14.0388 49.3116 14.3478C49.6216 14.6588 49.7766 15.0678 49.7766 15.5768V31.5058C49.7766 31.9938 49.6216 32.3968 49.3116 32.7168C49.0026 33.0388 48.5936 33.1988 48.0846 33.1988Z" fill="#25262A"/>
<path fill-rule="evenodd" clip-rule="evenodd" d="M48.0846 39.8364C47.5976 39.8364 47.1926 39.6764 46.8726 39.3554C46.5525 39.0354 46.3926 38.6304 46.3926 38.1444V23.3424C46.3926 22.8334 46.5525 22.4244 46.8726 22.1154C47.1926 21.8054 47.5976 21.6504 48.0846 21.6504C48.5936 21.6504 49.0026 21.8054 49.3116 22.1154C49.6216 22.4244 49.7766 22.8334 49.7766 23.3424V38.1444C49.7766 38.6304 49.6216 39.0354 49.3116 39.3554C49.0026 39.6764 48.5936 39.8364 48.0846 39.8364Z" fill="#25262A"/>
<path fill-rule="evenodd" clip-rule="evenodd" d="M61.7245 39.8364C61.2375 39.8364 60.8335 39.6764 60.5135 39.3554C60.1916 39.0354 60.0315 38.6304 60.0315 38.1444V29.9804C60.0315 28.7184 59.7996 27.6904 59.3346 26.8934C58.8705 26.0974 58.2446 25.5054 57.4596 25.1184C56.6746 24.7314 55.7715 24.5374 54.7555 24.5374C53.8256 24.5374 52.9845 24.7254 52.2325 25.1014C51.4795 25.4784 50.8835 25.9814 50.4405 26.6114C49.9976 27.2424 49.7765 27.9664 49.7765 28.7854H47.6855C47.6855 27.3914 48.0226 26.1474 48.6976 25.0514C49.3726 23.9564 50.2966 23.0884 51.4695 22.4464C52.6426 21.8054 53.9585 21.4844 55.4186 21.4844C56.9446 21.4844 58.3105 21.8104 59.5176 22.4624C60.7236 23.1164 61.6746 24.0734 62.3716 25.3334C63.0685 26.5944 63.4166 28.1434 63.4166 29.9804V38.1444C63.4166 38.6304 63.2566 39.0354 62.9355 39.3554C62.6146 39.6764 62.2106 39.8364 61.7245 39.8364V39.8364Z" fill="#25262A"/>
<rect x="69.2695" y="36.1562" width="0.694809" height="15.6453" transform="rotate(25.0258 69.2695 36.1562)" fill="#BBBBBA"/>
<rect x="82.6816" y="10.0312" width="0.694809" height="15.6453" transform="rotate(25.0258 82.6816 10.0312)" fill="#BBBBBA"/>
<rect x="80.4668" y="47.5215" width="0.694809" height="15.6453" transform="rotate(63.5985 80.4668 47.5215)" fill="#BBBBBA"/>
<rect x="79.998" y="6.48438" width="0.676304" height="19.2676" transform="rotate(74.2809 79.998 6.48438)" fill="#BBBBBA"/>
<rect x="76.8848" y="37.8652" width="0.804607" height="8.45565" transform="rotate(-35.8396 76.8848 37.8652)" fill="#BBBBBA"/>
<rect x="60.123" y="15.1172" width="0.643769" height="12.3951" transform="rotate(-35.8396 60.123 15.1172)" fill="#BBBBBA"/>
<path fill-rule="evenodd" clip-rule="evenodd" d="M73.2889 39.9346C71.4959 39.9346 69.9139 39.5416 68.5429 38.7566C67.1709 37.9716 66.0919 36.8866 65.3069 35.5036C64.5209 34.1206 64.1289 32.5336 64.1289 30.7416C64.1289 28.9276 64.5209 27.3286 65.3069 25.9466C66.0919 24.5636 67.1709 23.4796 68.5429 22.6936C69.9139 21.9086 71.4959 21.5156 73.2889 21.5156C75.0579 21.5156 76.6289 21.9086 78.0009 22.6936C79.3729 23.4796 80.4509 24.5636 81.2369 25.9466C82.0219 27.3286 82.4149 28.9276 82.4149 30.7416C82.4149 32.5336 82.0279 34.1206 81.2539 35.5036C80.4779 36.8866 79.4059 37.9716 78.0339 38.7566C76.6619 39.5416 75.0809 39.9346 73.2889 39.9346ZM73.2889 36.9476C74.4379 36.9476 75.4569 36.6826 76.3419 36.1516C77.2259 35.6206 77.9179 34.8896 78.4159 33.9606C78.9139 33.0316 79.1629 31.9586 79.1629 30.7416C79.1629 29.5256 78.9139 28.4466 78.4159 27.5056C77.9179 26.5656 77.2259 25.8296 76.3419 25.2986C75.4569 24.7676 74.4379 24.5016 73.2889 24.5016C72.1379 24.5016 71.1199 24.7676 70.2349 25.2986C69.3499 25.8296 68.6529 26.5656 68.1439 27.5056C67.6359 28.4466 67.3809 29.5256 67.3809 30.7416C67.3809 31.9586 67.6359 33.0316 68.1439 33.9606C68.6529 34.8896 69.3499 35.6206 70.2349 36.1516C71.1199 36.6826 72.1379 36.9476 73.2889 36.9476Z" fill="#FBBA00"/>
<path fill-rule="evenodd" clip-rule="evenodd" d="M84.8981 11.53C83.7761 11.53 82.785 11.284 81.9271 10.793C81.0681 10.301 80.3931 9.62201 79.9011 8.75602C79.41 7.89101 79.1641 6.89701 79.1641 5.77502C79.1641 4.64003 79.41 3.63902 79.9011 2.77401C80.3931 1.90801 81.0681 1.23002 81.9271 0.73801C82.785 0.24601 83.7761 0 84.8981 0C86.006 0 86.988 0.246 87.847 0.73801C88.7061 1.23001 89.381 1.90801 89.873 2.77401C90.365 3.63902 90.61 4.64002 90.61 5.77502C90.61 6.89701 90.368 7.89102 89.884 8.75602C89.3981 9.62202 88.7271 10.301 87.868 10.793C87.009 11.284 86.0201 11.53 84.8981 11.53ZM84.8981 9.66001C85.6171 9.66001 86.2551 9.49401 86.8091 9.16201C87.363 8.82902 87.795 8.37202 88.1071 7.79101C88.4191 7.20902 88.5751 6.53802 88.5751 5.77502C88.5751 5.01402 88.4191 4.33902 88.1071 3.75001C87.795 3.16102 87.363 2.70101 86.8091 2.36901C86.2551 2.03602 85.6171 1.87002 84.8981 1.87002C84.1771 1.87002 83.54 2.03602 82.9861 2.36901C82.433 2.70101 81.996 3.16102 81.678 3.75001C81.3591 4.33901 81.2001 5.01402 81.2001 5.77502C81.2001 6.53802 81.3591 7.20903 81.678 7.79101C81.996 8.37202 82.433 8.82902 82.9861 9.16201C83.54 9.49401 84.1771 9.66001 84.8981 9.66001Z" fill="#FBBA00"/>
<path fill-rule="evenodd" clip-rule="evenodd" d="M60.5503 62.3183C59.2074 62.3183 58.0234 62.0243 56.9974 61.4373C55.9704 60.8493 55.1623 60.0373 54.5744 59.0023C53.9874 57.9663 53.6934 56.7782 53.6934 55.4363C53.6934 54.0793 53.9874 52.8822 54.5744 51.8472C55.1623 50.8123 55.9704 50.0013 56.9974 49.4122C58.0234 48.8253 59.2074 48.5312 60.5503 48.5312C61.8744 48.5312 63.0504 48.8253 64.0774 49.4122C65.1044 50.0013 65.9114 50.8123 66.4994 51.8472C67.0874 52.8822 67.3814 54.0793 67.3814 55.4363C67.3814 56.7782 67.0914 57.9663 66.5124 59.0023C65.9314 60.0373 65.1294 60.8493 64.1014 61.4373C63.0744 62.0243 61.8914 62.3183 60.5503 62.3183ZM60.5503 60.0822C61.4104 60.0822 62.1724 59.8842 62.8354 59.4863C63.4974 59.0893 64.0144 58.5423 64.3874 57.8472C64.7604 57.1512 64.9474 56.3483 64.9474 55.4362C64.9474 54.5262 64.7604 53.7192 64.3874 53.0153C64.0144 52.3112 63.4974 51.7603 62.8354 51.3632C62.1724 50.9653 61.4104 50.7662 60.5503 50.7662C59.6883 50.7662 58.9264 50.9653 58.2644 51.3632C57.6014 51.7602 57.0794 52.3112 56.6994 53.0153C56.3184 53.7192 56.1274 54.5262 56.1274 55.4362C56.1274 56.3482 56.3184 57.1512 56.6994 57.8472C57.0794 58.5423 57.6014 59.0892 58.2644 59.4863C58.9264 59.8842 59.6883 60.0822 60.5503 60.0822Z" fill="#FBBA00"/>
<path fill-rule="evenodd" clip-rule="evenodd" d="M84.3185 52.525C83.4115 52.525 82.6115 52.327 81.9185 51.93C81.2245 51.532 80.6785 50.984 80.2816 50.284C79.8845 49.585 79.6855 48.782 79.6855 47.875C79.6855 46.958 79.8845 46.15 80.2816 45.45C80.6785 44.751 81.2245 44.203 81.9185 43.805C82.6115 43.408 83.4115 43.209 84.3185 43.209C85.2135 43.209 86.0075 43.408 86.7015 43.805C87.3955 44.203 87.9415 44.751 88.3385 45.45C88.7355 46.15 88.9345 46.958 88.9345 47.875C88.9345 48.782 88.7385 49.585 88.3475 50.284C87.9545 50.984 87.4125 51.532 86.7185 51.93C86.0245 52.327 85.2255 52.525 84.3185 52.525ZM84.3185 51.014C84.9005 51.014 85.4155 50.88 85.8625 50.612C86.3105 50.343 86.6595 49.974 86.9115 49.504C87.1635 49.034 87.2895 48.491 87.2895 47.875C87.2895 47.261 87.1635 46.715 86.9115 46.239C86.6595 45.763 86.3105 45.392 85.8625 45.123C85.4155 44.854 84.9005 44.72 84.3185 44.72C83.7365 44.72 83.2216 44.854 82.7745 45.123C82.3265 45.392 81.9745 45.763 81.7165 46.239C81.4595 46.715 81.3305 47.261 81.3305 47.875C81.3305 48.491 81.4595 49.034 81.7165 49.504C81.9745 49.974 82.3265 50.343 82.7745 50.612C83.2215 50.88 83.7365 51.014 84.3185 51.014Z" fill="#E18800"/>
<path fill-rule="evenodd" clip-rule="evenodd" d="M59.0391 16.1883C58.4271 16.1883 57.8871 16.0543 57.4191 15.7863C56.9511 15.5183 56.5821 15.1483 56.3141 14.6763C56.0461 14.2043 55.9121 13.6623 55.9121 13.0503C55.9121 12.4313 56.0461 11.8863 56.3141 11.4143C56.5822 10.9423 56.9511 10.5723 57.4191 10.3043C57.8871 10.0363 58.4271 9.90234 59.0391 9.90234C59.6431 9.90234 60.1782 10.0363 60.6472 10.3043C61.1151 10.5723 61.4832 10.9423 61.7512 11.4143C62.0192 11.8863 62.1531 12.4313 62.1531 13.0503C62.1531 13.6623 62.0211 14.2043 61.7571 14.6763C61.4921 15.1483 61.1262 15.5183 60.6581 15.7863C60.1901 16.0543 59.6501 16.1883 59.0391 16.1883H59.0391ZM59.0391 15.1683C59.4312 15.1683 59.7791 15.0783 60.0811 14.8973C60.3821 14.7153 60.6182 14.4663 60.7881 14.1493C60.9581 13.8323 61.0431 13.4663 61.0431 13.0503C61.0431 12.6353 60.9581 12.2673 60.7881 11.9463C60.6182 11.6253 60.3821 11.3743 60.0811 11.1933C59.7791 11.0123 59.4312 10.9213 59.0391 10.9213C58.6461 10.9213 58.2982 11.0123 57.9962 11.1933C57.6942 11.3743 57.4572 11.6253 57.2831 11.9463C57.1091 12.2673 57.0222 12.6353 57.0222 13.0503C57.0222 13.4663 57.1091 13.8323 57.2831 14.1493C57.4572 14.4663 57.6942 14.7153 57.9962 14.8973C58.2982 15.0783 58.6461 15.1683 59.0391 15.1683Z" fill="#E18800"/>
<path fill-rule="evenodd" clip-rule="evenodd" d="M92.6912 39.9358C90.9652 39.9358 89.4102 39.5328 88.0283 38.7248C86.6453 37.9168 85.5502 36.8158 84.7422 35.4218C83.9343 34.0288 83.5312 32.4568 83.5312 30.7088C83.5312 28.9618 83.9013 27.3968 84.6432 26.0138C85.3842 24.6308 86.3962 23.5368 87.6802 22.7278C88.9633 21.9198 90.4122 21.5168 92.0272 21.5168C93.3322 21.5168 94.5382 21.7888 95.6442 22.3298C96.7512 22.8718 97.6802 23.6078 98.4332 24.5368V15.5768C98.4332 15.0678 98.5933 14.6588 98.9142 14.3478C99.2343 14.0388 99.6382 13.8828 100.125 13.8828C100.634 13.8828 101.043 14.0388 101.352 14.3478C101.662 14.6588 101.817 15.0678 101.817 15.5768V30.7088C101.817 32.4568 101.414 34.0288 100.606 35.4218C99.7982 36.8158 98.7092 37.9168 97.3372 38.7248C95.9652 39.5328 94.4172 39.9358 92.6912 39.9358V39.9358ZM92.6912 36.9488C93.8192 36.9488 94.8262 36.6778 95.7112 36.1358C96.5963 35.5938 97.2932 34.8468 97.8022 33.8958C98.3102 32.9448 98.5652 31.8818 98.5652 30.7088C98.5652 29.5148 98.3102 28.4528 97.8022 27.5238C97.2932 26.5938 96.5963 25.8588 95.7112 25.3168C94.8262 24.7748 93.8192 24.5028 92.6912 24.5028C91.5842 24.5028 90.5842 24.7748 89.6873 25.3168C88.7913 25.8588 88.0833 26.5938 87.5632 27.5238C87.0432 28.4528 86.7833 29.5148 86.7833 30.7088C86.7833 31.8818 87.0432 32.9448 87.5632 33.8958C88.0833 34.8468 88.7913 35.5938 89.6873 36.1358C90.5842 36.6778 91.5842 36.9488 92.6912 36.9488Z" fill="#25262A"/>
<path d="M112.319 39.9346C110.483 39.9346 108.851 39.5416 107.425 38.7566C105.998 37.9716 104.88 36.8866 104.072 35.5036C103.265 34.1206 102.861 32.5336 102.861 30.7416C102.861 28.9276 103.243 27.3286 104.006 25.9466C104.769 24.5636 105.826 23.4796 107.176 22.6936C108.525 21.9086 110.074 21.5156 111.822 21.5156C113.548 21.5156 115.029 21.8976 116.269 22.6606C117.508 23.4236 118.454 24.4746 119.106 25.8136C119.759 27.1526 120.086 28.6956 120.086 30.4436C120.086 30.8636 119.941 31.2116 119.654 31.4886C119.366 31.7656 119.001 31.9036 118.559 31.9036H105.184V29.2476H118.46L117.099 30.1776C117.076 29.0716 116.855 28.0806 116.434 27.2066C116.015 26.3326 115.417 25.6416 114.643 25.1326C113.868 24.6236 112.928 24.3696 111.822 24.3696C110.56 24.3696 109.482 24.6466 108.586 25.1996C107.69 25.7526 107.01 26.5096 106.545 27.4726C106.08 28.4346 105.849 29.5256 105.849 30.7416C105.849 31.9586 106.125 33.0426 106.678 33.9946C107.23 34.9456 107.994 35.6986 108.968 36.2506C109.941 36.8036 111.059 37.0796 112.319 37.0796C113.005 37.0796 113.708 36.9536 114.427 36.6986C115.145 36.4446 115.726 36.1516 116.17 35.8196C116.501 35.5766 116.86 35.4496 117.248 35.4376C117.635 35.4266 117.973 35.5426 118.261 35.7866C118.637 36.1186 118.835 36.4836 118.857 36.8806C118.88 37.2796 118.703 37.6226 118.327 37.9106C117.574 38.5076 116.64 38.9946 115.522 39.3706C114.405 39.7466 113.337 39.9346 112.319 39.9346V39.9346Z" fill="#25262A"/>
<path d="M128.003 39.9346C126.454 39.9346 125.021 39.6976 123.705 39.2206C122.389 38.7456 121.366 38.1426 120.636 37.4126C120.304 37.0586 120.165 36.6546 120.221 36.2016C120.275 35.7476 120.491 35.3766 120.868 35.0886C121.31 34.7356 121.747 34.5856 122.179 34.6406C122.61 34.6966 122.98 34.8896 123.291 35.2216C123.667 35.6426 124.269 36.0356 125.1 36.4006C125.929 36.7646 126.852 36.9476 127.87 36.9476C129.153 36.9476 130.133 36.7376 130.808 36.3176C131.482 35.8976 131.831 35.3546 131.853 34.6906C131.875 34.0276 131.559 33.4526 130.907 32.9646C130.254 32.4786 129.065 32.0796 127.34 31.7706C125.104 31.3286 123.484 30.6636 122.477 29.7796C121.471 28.8946 120.968 27.8106 120.968 26.5266C120.968 25.3986 121.3 24.4636 121.963 23.7226C122.627 22.9816 123.478 22.4276 124.518 22.0636C125.558 21.6986 126.642 21.5156 127.77 21.5156C129.231 21.5156 130.525 21.7476 131.654 22.2116C132.782 22.6766 133.679 23.3196 134.342 24.1376C134.651 24.4916 134.795 24.8626 134.773 25.2486C134.751 25.6366 134.563 25.9626 134.209 26.2286C133.855 26.4716 133.434 26.5486 132.948 26.4596C132.461 26.3716 132.052 26.1726 131.721 25.8636C131.167 25.3316 130.569 24.9666 129.928 24.7676C129.286 24.5686 128.545 24.4686 127.705 24.4686C126.73 24.4686 125.907 24.6346 125.232 24.9666C124.557 25.2986 124.22 25.7866 124.22 26.4266C124.22 26.8256 124.324 27.1856 124.535 27.5056C124.745 27.8276 125.16 28.1146 125.779 28.3686C126.398 28.6226 127.307 28.8716 128.501 29.1156C130.16 29.4476 131.472 29.8686 132.433 30.3766C133.396 30.8856 134.088 31.4776 134.508 32.1526C134.928 32.8276 135.139 33.6076 135.139 34.4926C135.139 35.5096 134.867 36.4276 134.325 37.2456C133.783 38.0656 132.986 38.7176 131.935 39.2036C130.885 39.6916 129.574 39.9346 128.003 39.9346V39.9346Z" fill="#25262A"/>
<rect x="46.3926" y="31.0156" width="0.733666" height="2.58228" fill="#1D1D1B"/>
</g>
</svg>
