<svg width="188" height="68" viewBox="0 0 188 68" fill="none" xmlns="http://www.w3.org/2000/svg">
<g opacity="0.7">
<g clip-path="url(#clip0_3835_55565)">
<path d="M41.1422 15.2184C40.1483 15.7517 39.1544 15.9456 38.0878 15.9456C34.8395 15.9456 32.585 13.6912 32.585 10.5156C32.585 7.29151 34.8395 5.08556 38.1363 5.08556C39.8574 5.08556 41.2876 5.69159 42.5239 7.00061L45.045 4.67346C43.3966 2.7584 40.924 1.74027 37.9423 1.74027C32.5365 1.74027 28.6095 5.40069 28.6095 10.5156C28.6095 15.6305 32.5365 19.2909 37.8696 19.2909C40.2937 19.2909 42.8633 18.5394 44.7299 17.1334V10.2489H41.1422V15.2184ZM61.5892 19L57.7834 13.5457C59.9893 12.6003 61.2741 10.7338 61.2741 8.18843C61.2741 4.38256 58.4379 2.03117 53.9048 2.03117H46.5597V19H50.4868V14.273H53.9048H54.0987L57.3713 19H61.5892ZM57.2985 8.18843C57.2985 10.0308 56.0865 11.1459 53.6866 11.1459H50.4868V5.231H53.6866C56.0865 5.231 57.2985 6.32186 57.2985 8.18843ZM75.2455 19H79.3665L71.7791 2.03117H67.9005L60.3372 19H64.3612L65.8642 15.3638H73.7426L75.2455 19ZM67.1247 12.3822L69.8155 5.88552L72.5063 12.3822H67.1247ZM86.6541 2.03117H79.309V19H83.236V14.3215H86.6541C91.1872 14.3215 94.0234 11.9701 94.0234 8.18843C94.0234 4.38256 91.1872 2.03117 86.6541 2.03117ZM86.4359 11.1216H83.236V5.231H86.4359C88.8358 5.231 90.0478 6.32186 90.0478 8.18843C90.0478 10.0308 88.8358 11.1216 86.4359 11.1216ZM106.645 2.03117V8.72173H98.936V2.03117H95.0089V19H98.936V12.0428H106.645V19H110.572V2.03117H106.645ZM112.768 19H116.696V2.03117H112.768V19ZM122.419 19H126.347V5.231H131.777V2.03117H116.989V5.231H122.419V19ZM135.974 15.8486V11.9216H143.853V8.86718H135.974V5.18252H144.895V2.03117H132.071V19H145.21V15.8486H135.974Z" fill="#25262A"/>
<path d="M59.7878 39H63.9088L56.3213 22.0312H52.4427L44.8795 39H48.9035L50.4065 35.3638H58.2849L59.7878 39ZM51.667 32.3822L54.3578 25.8855L57.0486 32.3822H51.667ZM75.5355 22.0312V32.3337L67.0996 22.0312H63.8512V39H67.7298V28.6975L76.19 39H79.4141V22.0312H75.5355ZM89.8285 39.2909C95.1616 39.2909 99.1129 35.582 99.1129 30.5156C99.1129 25.4492 95.1616 21.7403 89.8285 21.7403C84.4712 21.7403 80.5441 25.4734 80.5441 30.5156C80.5441 35.5578 84.4712 39.2909 89.8285 39.2909ZM89.8285 35.9456C86.7984 35.9456 84.5197 33.7397 84.5197 30.5156C84.5197 27.2915 86.7984 25.0856 89.8285 25.0856C92.8587 25.0856 95.1373 27.2915 95.1373 30.5156C95.1373 33.7397 92.8587 35.9456 89.8285 35.9456ZM100.246 39H107.955C113.506 39 117.312 35.6547 117.312 30.5156C117.312 25.3765 113.506 22.0312 107.955 22.0312H100.246V39ZM104.173 35.7759V25.2552H107.761C111.13 25.2552 113.336 27.2673 113.336 30.5156C113.336 33.7639 111.13 35.7759 107.761 35.7759H104.173ZM122.358 35.8486V31.9216H130.237V28.8672H122.358V25.1825H131.279V22.0312H118.455V39H131.594V35.8486H122.358ZM138.476 39.2909C143.324 39.2909 145.676 36.8668 145.676 34.0306C145.676 27.8006 135.81 29.958 135.81 26.8309C135.81 25.7643 136.707 24.8916 139.034 24.8916C140.537 24.8916 142.161 25.328 143.737 26.2249L144.949 23.2432C143.373 22.2493 141.191 21.7403 139.058 21.7403C134.234 21.7403 131.907 24.1401 131.907 27.0249C131.907 33.3276 141.773 31.1459 141.773 34.3215C141.773 35.3638 140.828 36.1395 138.5 36.1395C136.464 36.1395 134.331 35.4123 132.901 34.3699L131.568 37.3274C133.07 38.4909 135.785 39.2909 138.476 39.2909Z" fill="#25262A"/>
<rect x="0.808594" y="24" width="39.0134" height="10.8387" fill="#FDBD00"/>
<rect x="148.795" y="24.2793" width="39.0134" height="10.8387" fill="#FD8B00"/>
<rect x="14.4102" y="11.5156" width="11.8093" height="35.8067" fill="#FDBD00"/>
</g>
</g>
<defs>
<clipPath id="clip0_3835_55565">
<rect width="187" height="67.4024" fill="white" transform="translate(0.808594)"/>
</clipPath>
</defs>
</svg>
