<svg width="187" height="42" viewBox="0 0 187 42" fill="none" xmlns="http://www.w3.org/2000/svg">
<g opacity="0.7">
<path d="M61.7724 36.372C60.7636 37.28 59.3008 37.7339 57.838 37.7339C54.862 37.7339 53.2479 36.0189 53.2479 32.8916V17.0533H61.3184V14.0268H53.2479V8.22616H49.6666V14.0268H44.9252V17.0533H49.6666V33.0934C49.6666 37.9861 52.4409 40.8108 57.4345 40.8108C59.5026 40.8108 61.6211 40.2055 63.0334 38.9445L61.7724 36.372ZM79.7923 13.8251C75.3031 13.8251 71.8227 15.5905 69.8555 18.6674V3.13165H66.2742V40.5586H69.8555V26.637C69.8555 20.5841 73.4368 17.0533 79.1366 17.0533C84.1806 17.0533 87.1062 19.9284 87.1062 25.5273V40.5586H90.6875V25.1742C90.6875 17.5577 86.2487 13.8251 79.7923 13.8251ZM98.9475 8.22616C100.461 8.22616 101.57 7.06602 101.57 5.60325C101.57 4.24135 100.41 3.13165 98.9475 3.13165C97.4847 3.13165 96.3246 4.29179 96.3246 5.65369C96.3246 7.06602 97.4847 8.22616 98.9475 8.22616ZM97.1317 40.5586H100.713V14.0268H97.1317V40.5586ZM127.727 14.0268V27.9484C127.727 34.0013 124.246 37.5826 118.698 37.5826C113.654 37.5826 110.728 34.7075 110.728 29.0581V14.0268H107.147V29.4112C107.147 37.0278 111.586 40.8108 118.345 40.8108C122.582 40.8108 126.012 38.9445 127.878 35.7163V40.5586H131.308V14.0268H127.727ZM171.149 13.8251C166.357 13.8251 162.574 15.994 160.657 19.424C159.043 15.6914 155.613 13.8251 151.224 13.8251C146.786 13.8251 143.356 15.6914 141.489 18.8691V14.0268H138.059V40.5586H141.641V26.637C141.641 20.5841 145.121 17.0533 150.518 17.0533C155.361 17.0533 158.185 19.9284 158.185 25.5273V40.5586H161.767V26.637C161.767 20.5841 165.197 17.0533 170.644 17.0533C175.436 17.0533 178.261 19.9284 178.261 25.5273V40.5586H181.842V25.1742C181.842 17.5577 177.605 13.8251 171.149 13.8251Z" fill="#25262A"/>
<path fill-rule="evenodd" clip-rule="evenodd" d="M34.9611 12.5593C38.1531 12.5593 40.7407 9.97167 40.7407 6.77965C40.7407 3.58764 38.1531 1 34.9611 1C31.7691 1 29.1814 3.58764 29.1814 6.77965C29.1814 9.97167 31.7691 12.5593 34.9611 12.5593ZM11.3171 5.20338H0.808594V24.924L11.1558 41.983H26.0289V31.4745H11.3171V5.20338ZM40.7407 14.661H30.2323V41.983H40.7407V14.661Z" fill="#FDBD00"/>
</g>
</svg>
