<svg viewBox="0 0 40 40" fill="none" xmlns="http://www.w3.org/2000/svg">
  <path
    d="M31.3158 3.48993V0.805369C31.3158 0.360738 30.9622 0 30.5263 0C30.0905 0 29.7368 0.360738 29.7368 0.805369V3.48993H10.2632V0.805369C10.2632 0.360738 9.90954 0 9.47368 0C9.03783 0 8.68421 0.360738 8.68421 0.805369V3.48993H0V40H40V3.48993H31.3158ZM28.1068 5.85342L28.1063 5.85447C28.5706 5.38029 29.1394 5.07376 29.7369 4.92937V6.63134C29.5522 6.72048 29.3769 6.83652 29.2227 6.9933L29.2217 6.99435C28.8607 7.36208 28.6842 7.83676 28.6832 8.32106C28.6842 8.80433 28.8621 9.28164 29.2227 9.65095C29.5849 10.0197 30.0511 10.2003 30.5253 10.2013C30.999 10.2003 31.4659 10.0194 31.8284 9.65148C32.1889 9.28148 32.3664 8.80468 32.3674 8.3216C32.3664 7.83833 32.1896 7.36258 31.8289 6.99327C31.6753 6.83702 31.5 6.72167 31.3158 6.63201V4.93004C31.9132 5.07441 32.4815 5.38042 32.9453 5.85461C33.6116 6.53429 33.9474 7.43215 33.9464 8.32177C33.9474 9.21242 33.61 10.1092 32.9463 10.7889L32.9453 10.79C32.279 11.4702 31.3989 11.8133 30.5253 11.8123C29.6527 11.8133 28.7721 11.4697 28.1058 10.79C27.4395 10.1103 27.1032 9.21243 27.1042 8.32125C27.1032 7.43145 27.4395 6.53257 28.1068 5.85342ZM7.05421 5.85447C7.51851 5.38029 8.0868 5.07322 8.68421 4.92883V6.63134C8.50004 6.721 8.32425 6.83705 8.17057 6.99383C7.80958 7.36208 7.63259 7.83732 7.63158 8.32161C7.63261 8.80488 7.80942 9.28166 8.1711 9.65096C8.53328 10.0192 8.99947 10.2003 9.4732 10.2008C9.94693 10.2003 10.4138 10.0189 10.7763 9.65043V9.65095C11.1373 9.28147 11.3148 8.8054 11.3158 8.32214C11.3148 7.83887 11.1375 7.36209 10.7763 6.99225C10.6221 6.83547 10.4474 6.71995 10.2632 6.63099V4.92884C10.8601 5.07373 11.4284 5.37976 11.8927 5.85394C12.5589 6.53416 12.8958 7.43148 12.8948 8.32267C12.8958 9.21282 12.5585 10.1106 11.8927 10.7903C11.2269 11.47 10.3463 11.8131 9.4732 11.8126C8.60061 11.8131 7.72053 11.4695 7.05474 10.7903C6.38741 10.1106 6.05162 9.21278 6.05263 8.32213C6.0516 7.43148 6.38792 6.53313 7.05421 5.85447ZM36.3156 36.2415H3.68404V13.1542H36.3156V36.2415Z"
    fill="currentColor" />
  <path
    d="M15.029 31.9487L19.9978 29.0693L24.9667 31.9487L23.8178 26.2387L28.0372 22.3074L22.3578 21.6573L19.9978 16.3477L17.6377 21.6573L11.957 22.3074L16.1775 26.2387L15.029 31.9487Z"
    fill="currentColor" />
</svg>