<svg viewBox="0 0 1004 254" fill="none" xmlns="http://www.w3.org/2000/svg">
  <defs>
    <clipPath id="shape">
      <rect x="0" y="0" width="210" height="254" />
    </clipPath>
    <clipPath id="benchmark">
      <rect x="65px" y="0" width="1004" height="254" />
    </clipPath>
    <clipPath id="week">
      <rect x="135" y="0" width="565" height="100%" />
    </clipPath>
    <clipPath id="year">
      <rect x="135" y="0" width="870" height="100%" />
    </clipPath>
  </defs>
  <g style="clip-path: url(#benchmark)" id="benchmark-week-logo-benchmark">
    <path d="M128.799 78.68C133.999 80.3267 138.073 83.1 141.019 87C143.966 90.8133 145.439 95.5367 145.439 101.17C145.439 109.143 142.319 115.297 136.079 119.63C129.926 123.877 120.913 126 109.039 126H61.9795V35H106.439C117.533 35 126.026 37.1233 131.919 41.37C137.899 45.6167 140.889 51.38 140.889 58.66C140.889 63.08 139.806 67.0233 137.639 70.49C135.559 73.9567 132.613 76.6867 128.799 78.68ZM82.9095 50.86V72.31H103.839C109.039 72.31 112.983 71.4 115.669 69.58C118.356 67.76 119.699 65.0733 119.699 61.52C119.699 57.9667 118.356 55.3233 115.669 53.59C112.983 51.77 109.039 50.86 103.839 50.86H82.9095ZM107.479 110.14C113.026 110.14 117.186 109.23 119.959 107.41C122.819 105.59 124.249 102.773 124.249 98.96C124.249 91.42 118.659 87.65 107.479 87.65H82.9095V110.14H107.479ZM217.934 110.27V126H157.744V51.25H216.504V66.98H178.024V80.63H212.084V95.58H178.024V110.27H217.934ZM301.54 51.25V126H284.64L250.19 84.79V126H230.04V51.25H246.94L281.39 92.59V51.25H301.54ZM354.983 127.43C347.097 127.43 339.99 125.783 333.663 122.49C327.337 119.11 322.353 114.473 318.713 108.58C315.073 102.687 313.253 96.0567 313.253 88.69C313.253 81.3233 315.073 74.6933 318.713 68.8C322.353 62.82 327.337 58.1833 333.663 54.89C339.99 51.51 347.097 49.82 354.983 49.82C362.177 49.82 368.373 50.9033 373.573 53.07C378.86 55.2367 383.41 58.7033 387.223 63.47L373.963 75.56C369.023 69.58 362.957 66.59 355.763 66.59C349.437 66.59 344.193 68.6267 340.033 72.7C335.96 76.7733 333.923 82.1033 333.923 88.69C333.923 93.0233 334.833 96.88 336.653 100.26C338.56 103.553 341.16 106.11 344.453 107.93C347.833 109.75 351.603 110.66 355.763 110.66C362.957 110.66 369.023 107.67 373.963 101.69L387.223 113.78C383.497 118.46 378.947 121.927 373.573 124.18C368.287 126.347 362.09 127.43 354.983 127.43ZM397.23 51.25H417.77V79.85H448.19V51.25H468.73V126H448.19V96.36H417.77V126H397.23V51.25ZM554.283 126L554.153 85.18L534.133 118.07H524.903L505.013 86.48V126H485.903V51.25H503.063L529.843 94.67L555.973 51.25H573.263L573.523 126H554.283ZM640.493 111.18H605.523L599.283 126H579.393L612.933 51.25H633.213L666.883 126H646.603L640.493 111.18ZM634.253 96.36L623.073 69.32L611.763 96.36H634.253ZM706.048 105.98H693.438V126H672.898V51.25H706.958C717.272 51.25 725.462 53.72 731.528 58.66C737.595 63.5133 740.628 70.23 740.628 78.81C740.628 84.27 739.285 89.0367 736.598 93.11C733.998 97.0967 730.272 100.217 725.418 102.47L742.058 126H719.958L706.048 105.98ZM719.958 78.81C719.958 75.0833 718.745 72.2233 716.318 70.23C713.892 68.2367 710.295 67.24 705.528 67.24H693.438V90.38H705.528C710.295 90.38 713.892 89.3833 716.318 87.39C718.745 85.3967 719.958 82.5367 719.958 78.81ZM782.43 98.44L773.98 107.15V126H753.7V51.25H773.98V83.1L804.4 51.25H827.02L795.95 84.53L828.71 126H804.79L782.43 98.44Z" fill="white"/>
  </g>
  <g style="clip-path: url(#week)" id="benchmark-week-logo-week">
    <path d="M277.749 130L241.109 242H213.269L188.629 166.16L163.189 242H135.509L98.7095 130H125.589L150.869 208.72L177.269 130H201.269L226.869 209.36L252.949 130H277.749ZM364.383 222.64V242H290.303V150H362.623V169.36H315.263V186.16H357.183V204.56H315.263V222.64H364.383ZM456.083 222.64V242H382.003V150H454.323V169.36H406.963V186.16H448.883V204.56H406.963V222.64H456.083ZM509.063 208.08L498.663 218.8V242H473.703V150H498.663V189.2L536.103 150H563.943L525.703 190.96L566.023 242H536.583L509.063 208.08Z" fill="white"/>
  </g>
  <g style="clip-path: url(#year)" id="benchmark-week-logo-2023">
    <path d="M699.109 220.88V242H614.469V225.2L657.669 184.4C662.256 180.027 665.349 176.293 666.949 173.2C668.549 170 669.349 166.853 669.349 163.76C669.349 159.28 667.803 155.867 664.709 153.52C661.723 151.067 657.296 149.84 651.429 149.84C646.523 149.84 642.096 150.8 638.149 152.72C634.203 154.533 630.896 157.307 628.229 161.04L609.349 148.88C613.723 142.373 619.749 137.307 627.429 133.68C635.109 129.947 643.909 128.08 653.829 128.08C662.149 128.08 669.403 129.467 675.589 132.24C681.883 134.907 686.736 138.747 690.149 143.76C693.669 148.667 695.429 154.48 695.429 161.2C695.429 167.28 694.149 172.987 691.589 178.32C689.029 183.653 684.069 189.733 676.709 196.56L650.949 220.88H699.109ZM758.292 243.92C749.012 243.92 740.745 241.627 733.492 237.04C726.239 232.453 720.532 225.84 716.372 217.2C712.319 208.453 710.292 198.053 710.292 186C710.292 173.947 712.319 163.6 716.372 154.96C720.532 146.213 726.239 139.547 733.492 134.96C740.745 130.373 749.012 128.08 758.292 128.08C767.572 128.08 775.839 130.373 783.092 134.96C790.345 139.547 795.999 146.213 800.052 154.96C804.212 163.6 806.292 173.947 806.292 186C806.292 198.053 804.212 208.453 800.052 217.2C795.999 225.84 790.345 232.453 783.092 237.04C775.839 241.627 767.572 243.92 758.292 243.92ZM758.292 222C765.119 222 770.452 219.067 774.292 213.2C778.239 207.333 780.212 198.267 780.212 186C780.212 173.733 778.239 164.667 774.292 158.8C770.452 152.933 765.119 150 758.292 150C751.572 150 746.239 152.933 742.292 158.8C738.452 164.667 736.532 173.733 736.532 186C736.532 198.267 738.452 207.333 742.292 213.2C746.239 219.067 751.572 222 758.292 222ZM902.428 220.88V242H817.788V225.2L860.988 184.4C865.575 180.027 868.668 176.293 870.268 173.2C871.868 170 872.668 166.853 872.668 163.76C872.668 159.28 871.122 155.867 868.028 153.52C865.042 151.067 860.615 149.84 854.748 149.84C849.842 149.84 845.415 150.8 841.468 152.72C837.522 154.533 834.215 157.307 831.548 161.04L812.668 148.88C817.042 142.373 823.068 137.307 830.748 133.68C838.428 129.947 847.228 128.08 857.148 128.08C865.468 128.08 872.722 129.467 878.908 132.24C885.202 134.907 890.055 138.747 893.468 143.76C896.988 148.667 898.748 154.48 898.748 161.2C898.748 167.28 897.468 172.987 894.908 178.32C892.348 183.653 887.388 189.733 880.028 196.56L854.268 220.88H902.428ZM966.243 175.6C976.057 177.2 983.577 180.88 988.803 186.64C994.03 192.293 996.643 199.333 996.643 207.76C996.643 214.267 994.937 220.293 991.523 225.84C988.11 231.28 982.883 235.653 975.843 238.96C968.91 242.267 960.377 243.92 950.243 243.92C942.35 243.92 934.563 242.907 926.883 240.88C919.31 238.747 912.857 235.76 907.523 231.92L917.603 212.08C921.87 215.28 926.777 217.787 932.323 219.6C937.977 221.307 943.737 222.16 949.603 222.16C956.11 222.16 961.23 220.933 964.963 218.48C968.697 215.92 970.563 212.347 970.563 207.76C970.563 198.587 963.577 194 949.603 194H937.763V176.88L960.803 150.8H913.123V130H991.523V146.8L966.243 175.6Z" fill="white"/>
  </g>
  <g style="clip-path: url(#shape);" id="benchmark-week-logo-shape">
    <path d="M0 26.5H60L210.187 254H141.687L0 26.5Z" fill="#FDBD00"/>
  </g>
</svg>
