<svg viewBox="0 0 44 34" fill="none" xmlns="http://www.w3.org/2000/svg">
  <path fill-rule="evenodd" clip-rule="evenodd" d="M21.9991 0.046875C25.4941 0.046875 28.3291 2.87696 28.3291 6.37687C28.3291 9.87183 25.4942 12.7069 21.9991 12.7069C18.5042 12.7069 15.6691 9.87192 15.6691 6.37687C15.6691 2.87687 18.5041 0.046875 21.9991 0.046875ZM35.6591 1.76692C38.8041 1.76692 41.3491 4.31183 41.3491 7.45692C41.3491 10.5969 38.8042 13.1419 35.6591 13.1419C32.5192 13.1419 29.9741 10.597 29.9741 7.45692C29.9741 4.31192 32.5191 1.76692 35.6591 1.76692ZM8.33914 1.76692C5.19414 1.76692 2.64914 4.31183 2.64914 7.45692C2.64914 10.5969 5.19406 13.1419 8.33914 13.1419C11.4791 13.1419 14.0241 10.597 14.0241 7.45692C14.0241 4.31192 11.4792 1.76692 8.33914 1.76692ZM8.33914 14.4319C4.4591 14.4319 1.69414 17.6219 1.28914 21.4769L0.389057 29.9919C0.259011 31.2168 1.39897 32.2369 2.63402 32.2369H11.574C11.524 31.9319 11.514 31.6169 11.549 31.2969L12.549 21.8219C12.714 20.257 13.1889 18.757 13.924 17.4469C12.6689 15.632 10.714 14.432 8.33895 14.432L8.33914 14.4319ZM35.6591 14.4319C39.5392 14.4319 42.3041 17.6219 42.7091 21.4769L43.6092 29.9919C43.7393 31.2168 42.5993 32.2369 41.3643 32.2369H32.4243C32.4742 31.9319 32.4843 31.6169 32.4493 31.2969L31.4493 21.8219C31.2843 20.257 30.8094 18.757 30.0743 17.4469C31.3294 15.632 33.2843 14.432 35.6593 14.432L35.6591 14.4319ZM21.9991 14.137C26.3141 14.137 29.3941 17.692 29.8441 21.987L30.8441 31.457C30.9892 32.827 29.7191 33.957 28.3441 33.957H15.6541C14.2791 33.957 13.0091 32.827 13.1541 31.457L14.1541 21.987C14.6042 17.692 17.6841 14.137 21.9991 14.137Z" fill="currentColor"/>
</svg>
