<svg width="32" height="32" viewBox="0 0 32 32" fill="none" xmlns="http://www.w3.org/2000/svg">
<path d="M26.6667 2H5.33333C3.496 2 2 3.496 2 5.33333V26.6667C2 28.504 3.496 30 5.33333 30H26.6667C28.504 30 30 28.504 30 26.6667V5.33333C30 3.496 28.504 2 26.6667 2ZM3.33333 5.33333C3.33333 4.23067 4.23067 3.33333 5.33333 3.33333H8.66667V8.66667H3.33333V5.33333ZM3.33333 10H8.66667V15.3333H3.33333V10ZM22 28.6667H16.6667V23.3333H22V28.6667ZM28.6667 26.6667C28.6667 27.7693 27.7693 28.6667 26.6667 28.6667H23.3333V23.3333H28.6667V26.6667ZM28.6667 15.3333H25.3333C24.9653 15.3333 24.6667 15.632 24.6667 16C24.6667 16.368 24.9653 16.6667 25.3333 16.6667H28.6667V22H23.3333V18.6667C23.3333 18.2987 23.0347 18 22.6667 18C22.2987 18 22 18.2987 22 18.6667V22H16.6667V16.6667H20C20.368 16.6667 20.6667 16.368 20.6667 16C20.6667 15.632 20.368 15.3333 20 15.3333H16.6667V13.3333C16.6667 12.9653 16.368 12.6667 16 12.6667C15.632 12.6667 15.3333 12.9653 15.3333 13.3333V22H12C11.632 22 11.3333 22.2987 11.3333 22.6667C11.3333 23.0347 11.632 23.3333 12 23.3333H15.3333V28.6667H10V25.3333C10 24.9653 9.70133 24.6667 9.33333 24.6667C8.96533 24.6667 8.66667 24.9653 8.66667 25.3333V28.6667H5.33333C4.23067 28.6667 3.33333 27.7693 3.33333 26.6667V23.3333H6.66667C7.03467 23.3333 7.33333 23.0347 7.33333 22.6667C7.33333 22.2987 7.03467 22 6.66667 22H3.33333V16.6667H8.66667V20C8.66667 20.368 8.96533 20.6667 9.33333 20.6667C9.70133 20.6667 10 20.368 10 20V16.6667H10.6667C11.0347 16.6667 11.3333 16.368 11.3333 16C11.3333 15.632 11.0347 15.3333 10.6667 15.3333H10V10H13.3333C13.7013 10 14 9.70133 14 9.33333C14 8.96533 13.7013 8.66667 13.3333 8.66667H10V3.33333H15.3333V6.66667C15.3333 7.03467 15.632 7.33333 16 7.33333C16.368 7.33333 16.6667 7.03467 16.6667 6.66667V3.33333H22V8.66667H18.6667C18.2987 8.66667 18 8.96533 18 9.33333C18 9.70133 18.2987 10 18.6667 10H22V13.3333C22 13.7013 22.2987 14 22.6667 14C23.0347 14 23.3333 13.7013 23.3333 13.3333V10H28.6667V15.3333ZM28.6667 8.66667H23.3333V3.33333H26.6667C27.7693 3.33333 28.6667 4.23067 28.6667 5.33333V8.66667ZM16.472 8.86C16.3173 8.70533 16.0973 8.636 15.88 8.676C15.664 8.716 15.4813 8.85867 15.392 9.05867L9.45333 22.256L4.9 26.16C4.62 26.4 4.588 26.8213 4.828 27.1C4.95867 27.2547 5.14533 27.3333 5.33333 27.3333C5.48667 27.3333 5.64133 27.28 5.76533 27.172L10.432 23.172C10.5067 23.1093 10.5667 23.0293 10.6067 22.94L16.2107 10.488L22.1947 16.472C22.4547 16.732 22.8773 16.732 23.1373 16.472L27.1373 12.472C27.3973 12.212 27.3973 11.7893 27.1373 11.5293C26.8773 11.2693 26.4547 11.2693 26.1947 11.5293L22.6667 15.0573L16.472 8.86Z" fill="black"/>
</svg>
