<svg width="48" height="44" viewBox="0 0 48 44" fill="none" xmlns="http://www.w3.org/2000/svg">
<path d="M25.1328 12H17.1328C16.5808 12 16.1328 12.448 16.1328 13V43C16.1328 43.552 16.5808 44 17.1328 44H25.1328C25.6868 44 26.1328 43.552 26.1328 43V13C26.1328 12.448 25.6848 12 25.1328 12ZM24.1328 42H18.1328V14H24.1328V42ZM47.8448 26.628L46.5648 16.38C46.2528 13.882 44.1188 12 41.6028 12H36.6648C34.1488 12 32.0148 13.882 31.7008 16.38L30.4208 26.628C30.3148 27.482 30.5788 28.34 31.1488 28.986C31.6748 29.582 32.4128 29.942 33.2008 29.994L34.1348 43.072C34.1728 43.594 34.6088 44 35.1328 44H43.1328C43.6588 44 44.0928 43.594 44.1308 43.072L45.0648 29.994C45.8528 29.942 46.5908 29.582 47.1168 28.986C47.6868 28.34 47.9508 27.482 47.8448 26.628ZM45.6168 27.662C45.4248 27.88 45.1588 28 44.8668 28H44.1328C43.6088 28 43.1748 28.406 43.1368 28.928L42.2028 42H36.0648L35.1308 28.928C35.0928 28.406 34.6568 28 34.1328 28H33.3988C33.1088 28 32.8408 27.88 32.6488 27.662C32.4568 27.444 32.3708 27.166 32.4068 26.876L33.6868 16.628C33.8748 15.13 35.1548 14 36.6648 14H38.1328V15C38.1328 15.552 38.5808 16 39.1328 16C39.6868 16 40.1328 15.552 40.1328 15V14H41.6028C43.1128 14 44.3928 15.13 44.5788 16.628L45.8588 26.876C45.8948 27.164 45.8088 27.444 45.6168 27.662ZM39.1328 10C41.8908 10 44.1328 7.756 44.1328 5C44.1328 2.244 41.8888 0 39.1328 0C36.3768 0 34.1328 2.244 34.1328 5C34.1328 7.756 36.3768 10 39.1328 10ZM39.1328 2C40.7888 2 42.1328 3.346 42.1328 5C42.1328 6.654 40.7868 8 39.1328 8C37.4788 8 36.1328 6.654 36.1328 5C36.1328 3.346 37.4788 2 39.1328 2ZM39.1328 18C38.5808 18 38.1328 18.448 38.1328 19V23C38.1328 23.552 38.5808 24 39.1328 24C39.6868 24 40.1328 23.552 40.1328 23V19C40.1328 18.448 39.6848 18 39.1328 18ZM9.13281 24H1.13281C0.580813 24 0.132812 24.448 0.132812 25V43C0.132812 43.552 0.580813 44 1.13281 44H9.13281C9.68681 44 10.1328 43.552 10.1328 43V25C10.1328 24.448 9.68481 24 9.13281 24ZM8.13281 42H2.13281V26H8.13281V42Z" fill="black"/>
</svg>
