<svg width="32" height="32" viewBox="0 0 32 32" fill="none" xmlns="http://www.w3.org/2000/svg">
<g clip-path="url(#clip0_7041_146000)">
<path d="M23.4553 16.0214C21.8207 16.0214 20.2833 15.3841 19.1273 14.2281C17.9713 13.0721 17.334 11.5347 17.334 9.90007C17.334 8.26407 17.9713 6.72807 19.1273 5.57207C21.7673 2.93207 26.3313 1.35474 31.334 1.35474C31.6033 1.35474 31.8473 1.5174 31.95 1.76674C32.054 2.01607 31.9967 2.30274 31.806 2.4934C30.4433 3.85607 30.034 6.34407 29.6393 8.7494C29.2727 10.9801 28.926 13.0881 27.7846 14.2294C26.6273 15.3841 25.09 16.0214 23.4553 16.0214ZM29.9673 2.7294C25.862 2.98007 22.23 4.35474 20.07 6.51474C19.1647 7.41874 18.6673 8.62007 18.6673 9.90007C18.6673 11.1787 19.166 12.3814 20.07 13.2854C21.878 15.0934 25.0326 15.0934 26.8406 13.2854C27.678 12.4481 27.9913 10.5454 28.322 8.53207C28.6473 6.55874 29.0047 4.37874 29.9673 2.7294Z" fill="black"/>
<path d="M11.2733 8.01857C10.4039 8.01857 9.53461 7.68791 8.87328 7.02657C8.22661 6.37991 8.04528 5.27591 7.85194 4.10524C7.66261 2.95457 7.46794 1.76391 6.86128 1.15857C6.67061 0.967907 6.61328 0.68124 6.71728 0.431907C6.81994 0.182574 7.06394 0.0212402 7.33328 0.0212402C9.95994 0.0212402 12.2706 0.82524 13.6719 2.22791C14.9959 3.55057 14.9959 5.70391 13.6719 7.02791C13.0106 7.68791 12.1413 8.01857 11.2733 8.01857ZM8.57461 1.42524C8.88928 2.19324 9.03461 3.07591 9.16794 3.88924C9.31728 4.79991 9.47194 5.74124 9.81594 6.08391C10.6199 6.88791 11.9266 6.88791 12.7306 6.08391C13.5346 5.27991 13.5346 3.97324 12.7306 3.16924C11.8066 2.24791 10.3053 1.62657 8.57461 1.42524Z" fill="black"/>
<path d="M17.9995 20.0212C17.6955 20.0212 17.4288 19.8159 17.3542 19.5199C16.6022 16.5786 14.3035 8.60125 12.7302 7.02658C12.4702 6.76658 12.4702 6.34392 12.7302 6.08392C12.9902 5.82392 13.4128 5.82392 13.6728 6.08392C15.2435 7.65458 17.0622 13.4892 18.0142 16.8559C18.8635 14.3919 20.6622 10.4159 24.1955 6.88392C24.4555 6.62392 24.8782 6.62392 25.1382 6.88392C25.3982 7.14392 25.3982 7.56658 25.1382 7.82658C19.9275 13.0372 18.6675 19.4159 18.6555 19.4799C18.5982 19.7866 18.3342 20.0119 18.0208 20.0212C18.0128 20.0212 18.0062 20.0212 17.9995 20.0212Z" fill="black"/>
<path d="M4.66667 29.3546H0.666667C0.298667 29.3546 0 29.0559 0 28.6879V16.6879C0 16.5039 0.076 16.3279 0.209333 16.2026C0.342667 16.0772 0.514667 16.0199 0.706667 16.0225C2.08 16.1039 6.64933 16.4545 7.792 17.5372C7.94 17.6759 8.01467 17.8759 7.99733 18.0785C7.69467 21.5452 5.39733 28.5959 5.3 28.8945C5.21067 29.1679 4.95467 29.3546 4.66667 29.3546ZM1.33333 28.0212H4.18C4.676 26.4559 6.27467 21.2679 6.628 18.3479C5.78933 17.9399 3.476 17.5719 1.33333 17.4025V28.0212Z" fill="black"/>
<path d="M17.8622 31.9783C16.9929 31.9783 16.2196 31.733 15.0982 31.3103L5.12356 27.9863C4.77423 27.8703 4.58623 27.493 4.70223 27.1437C4.81823 26.7943 5.19423 26.6063 5.5449 26.7223L15.5449 30.0557C17.9489 30.9623 18.1422 31.0357 23.7476 28.7383L30.3569 25.733C29.6222 24.8423 28.4356 24.4343 27.2702 24.725L22.1622 25.9997C21.8049 26.0903 21.4436 25.8717 21.3542 25.5143C21.2649 25.157 21.4822 24.7957 21.8396 24.7063L26.9476 23.429C28.9556 22.9263 31.0049 23.869 31.9316 25.721C32.0129 25.8837 32.0236 26.0703 31.9636 26.2423C31.9036 26.413 31.7756 26.5517 31.6116 26.6263L24.2782 29.9597C20.7982 31.3877 19.2142 31.9783 17.8622 31.9783Z" fill="black"/>
<path d="M19.2363 26.5879C18.9297 26.5879 18.6217 26.5586 18.3217 26.4986L12.5363 25.3413C12.175 25.2693 11.9417 24.9186 12.0137 24.5573C12.0857 24.1959 12.431 23.9586 12.7977 24.0346L18.5817 25.1919C19.0643 25.2893 19.5683 25.2759 20.043 25.1573L21.323 24.8373C21.2417 23.6199 20.6483 23.0386 19.171 22.6693L7.18834 20.0066C6.82834 19.9266 6.603 19.5706 6.68167 19.2106C6.76167 18.8519 7.12167 18.6306 7.47767 18.7039L19.4777 21.3706C21.6897 21.9226 22.667 23.0853 22.667 25.1439V25.3546C22.667 25.6599 22.459 25.9266 22.1617 26.0013L20.367 26.4493C19.999 26.5413 19.6177 26.5879 19.2363 26.5879Z" fill="black"/>
</g>
<defs>
<clipPath id="clip0_7041_146000">
<rect width="32" height="32" fill="white"/>
</clipPath>
</defs>
</svg>
