<svg viewBox="0 0 48 48" fill="none" xmlns="http://www.w3.org/2000/svg">
  <path d="M15 34C17.76 34 20 31.76 20 29C20 27.98 19.7 27.04 19.16 26.24L24.24 21.16C25.04 21.68 25.98 22 27 22C29.76 22 32 19.76 32 17C32 16.54 31.92 16.1 31.8 15.66L37.12 12.1C38.04 13.24 39.42 13.98 41 13.98C43.76 13.98 46 11.74 46 8.98C46 6.22 43.76 3.98 41 3.98C38.24 3.98 36 6.22 36 8.98C36 9.44 36.08 9.88 36.2 10.3L30.88 13.86C29.96 12.72 28.58 11.98 27 11.98C24.24 11.98 22 14.22 22 16.98C22 18 22.3 18.94 22.84 19.74L17.76 24.82C16.96 24.3 16.02 23.98 15 23.98C12.24 23.98 10 26.22 10 28.98C10 31.74 12.24 33.98 15 33.98V34ZM41 6C42.66 6 44 7.34 44 9C44 10.66 42.66 12 41 12C39.34 12 38 10.66 38 9C38 7.34 39.34 6 41 6ZM27 14C28.66 14 30 15.34 30 17C30 18.66 28.66 20 27 20C25.34 20 24 18.66 24 17C24 15.34 25.34 14 27 14ZM15 26C16.66 26 18 27.34 18 29C18 30.66 16.66 32 15 32C13.34 32 12 30.66 12 29C12 27.34 13.34 26 15 26ZM47 42H6V1C6 0.44 5.56 0 5 0C4.44 0 4 0.44 4 1V42H1C0.44 42 0 42.44 0 43C0 43.56 0.44 44 1 44H4V47C4 47.56 4.44 48 5 48C5.56 48 6 47.56 6 47V44H47C47.56 44 48 43.56 48 43C48 42.44 47.56 42 47 42ZM40 17V39C40 39.56 40.44 40 41 40C41.56 40 42 39.56 42 39V17C42 16.44 41.56 16 41 16C40.44 16 40 16.44 40 17ZM14 37V39C14 39.56 14.44 40 15 40C15.56 40 16 39.56 16 39V37C16 36.44 15.56 36 15 36C14.44 36 14 36.44 14 37ZM26 25V39C26 39.56 26.44 40 27 40C27.56 40 28 39.56 28 39V25C28 24.44 27.56 24 27 24C26.44 24 26 24.44 26 25Z" fill="currentColor"/>
</svg>
