<svg viewBox="0 0 53 48" fill="none" xmlns="http://www.w3.org/2000/svg">
  <path d="M49.1423 32H3.42801C2.78801 32 2.28516 31.4971 2.28516 30.8571V1.14286C2.28516 0.502857 2.78801 0 3.42801 0H49.1423C49.7823 0 50.2852 0.502857 50.2852 1.14286V30.8571C50.2852 31.4971 49.7823 32 49.1423 32ZM4.57087 29.7143H47.9994V2.28571H4.57087V29.7143Z" fill="currentColor"/>
  <path d="M3.42857 2.28571H1.14286C0.502857 2.28571 0 1.78286 0 1.14286C0 0.502857 0.502857 0 1.14286 0H3.42857C4.06857 0 4.57143 0.502857 4.57143 1.14286C4.57143 1.78286 4.06857 2.28571 3.42857 2.28571Z" fill="currentColor"/>
  <path d="M51.4286 2.28571H49.1429C48.5029 2.28571 48 1.78286 48 1.14286C48 0.502857 48.5029 0 49.1429 0H51.4286C52.0686 0 52.5714 0.502857 52.5714 1.14286C52.5714 1.78286 52.0686 2.28571 51.4286 2.28571Z" fill="currentColor"/>
  <path d="M26.2854 43.4286C25.6454 43.4286 25.1426 42.9258 25.1426 42.2858V30.8572C25.1426 30.2172 25.6454 29.7144 26.2854 29.7144C26.9254 29.7144 27.4283 30.2172 27.4283 30.8572V42.2858C27.4283 42.9258 26.9254 43.4286 26.2854 43.4286Z" fill="currentColor"/>
  <path d="M26.286 48.0002C24.3889 48.0002 22.8574 46.4688 22.8574 44.5716C22.8574 42.6745 24.3889 41.1431 26.286 41.1431C28.1831 41.1431 29.7146 42.6745 29.7146 44.5716C29.7146 46.4688 28.1831 48.0002 26.286 48.0002ZM26.286 43.4288C25.646 43.4288 25.1431 43.9316 25.1431 44.5716C25.1431 45.2116 25.646 45.7145 26.286 45.7145C26.926 45.7145 27.4289 45.2116 27.4289 44.5716C27.4289 43.9316 26.926 43.4288 26.286 43.4288Z" fill="currentColor"/>
  <path d="M44.5709 15.9999H35.428C34.788 15.9999 34.2852 15.497 34.2852 14.857V5.71415C34.2852 5.07415 34.788 4.57129 35.428 4.57129C41.0966 4.57129 45.7137 9.18843 45.7137 14.857C45.7137 15.497 45.2109 15.9999 44.5709 15.9999ZM36.5709 13.7141H43.3366C42.8337 10.217 40.068 7.45129 36.5709 6.94843V13.7141Z" fill="currentColor"/>
  <path d="M33.1431 27.4284C27.4746 27.4284 22.8574 22.8112 22.8574 17.1426C22.8574 11.4741 27.4746 6.85693 33.1431 6.85693C33.7831 6.85693 34.286 7.35979 34.286 7.99979C34.286 8.63979 33.7831 9.14265 33.1431 9.14265C28.7317 9.14265 25.1431 12.7312 25.1431 17.1426C25.1431 21.5541 28.7317 25.1426 33.1431 25.1426C37.5546 25.1426 41.1431 21.5541 41.1431 17.1426C41.1431 16.5026 41.646 15.9998 42.286 15.9998C42.926 15.9998 43.4288 16.5026 43.4288 17.1426C43.4288 22.8112 38.8117 27.4284 33.1431 27.4284Z" fill="currentColor"/>
  <path d="M17.1429 27.4284C16.5029 27.4284 16 26.9255 16 26.2855V7.99979C16 7.35979 16.5029 6.85693 17.1429 6.85693C17.7829 6.85693 18.2857 7.35979 18.2857 7.99979V26.2855C18.2857 26.9255 17.7829 27.4284 17.1429 27.4284Z" fill="currentColor"/>
  <path d="M12.5706 27.4286C11.9306 27.4286 11.4277 26.9258 11.4277 26.2858V14.8572C11.4277 14.2172 11.9306 13.7144 12.5706 13.7144C13.2106 13.7144 13.7134 14.2172 13.7134 14.8572V26.2858C13.7134 26.9258 13.2106 27.4286 12.5706 27.4286Z" fill="currentColor"/>
  <path d="M8.00028 27.4285C7.36028 27.4285 6.85742 26.9256 6.85742 26.2856V19.4285C6.85742 18.7885 7.36028 18.2856 8.00028 18.2856C8.64028 18.2856 9.14314 18.7885 9.14314 19.4285V26.2856C9.14314 26.9256 8.64028 27.4285 8.00028 27.4285Z" fill="currentColor"/>
</svg>
