<svg viewBox="0 0 48 48" fill="none" xmlns="http://www.w3.org/2000/svg">
  <path
    d="M40.6957 0H7.30435C3.27652 0 0 3.27652 0 7.30435V28.1739C0 32.2017 3.27652 35.4783 7.30435 35.4783H11.8748L6.36522 46.4974C6.15652 46.9357 6.26087 47.4574 6.63652 47.7704C6.82435 47.9374 7.07478 48.0209 7.30435 48.0209C7.53391 48.0209 7.74261 47.9583 7.93043 47.8122L24.3548 35.4991H40.6957C44.7235 35.4991 48 32.2226 48 28.1948V7.30435C48 3.27652 44.7235 0 40.6957 0ZM45.913 28.1739C45.913 31.0539 43.5757 33.3913 40.6957 33.3913H24C23.7704 33.3913 23.5617 33.4539 23.3739 33.6L10.2052 43.4713L14.4835 34.9148C14.6504 34.6017 14.6296 34.2052 14.4417 33.8922C14.2539 33.5791 13.92 33.3913 13.5443 33.3913H7.30435C4.42435 33.3913 2.08696 31.0539 2.08696 28.1739V7.30435C2.08696 4.42435 4.42435 2.08696 7.30435 2.08696H40.6957C43.5757 2.08696 45.913 4.42435 45.913 7.30435V28.1739Z"
    fill="currentColor"/>
  <path
    d="M32.3483 8.34766C31.764 8.34766 31.3049 8.80679 31.3049 9.39113V10.4346C26.6927 10.4346 22.957 14.1703 22.957 18.7824C22.957 23.3946 26.6927 27.1303 31.3049 27.1303C35.917 27.1303 39.6527 23.3946 39.6527 18.7824H40.6962C41.2805 18.7824 41.7396 18.3233 41.7396 17.739C41.7396 12.5633 37.524 8.34766 32.3483 8.34766ZM31.3049 25.0433C27.8614 25.0433 25.044 22.2259 25.044 18.7824C25.044 15.339 27.8614 12.5216 31.3049 12.5216V17.739C31.3049 18.3233 31.764 18.7824 32.3483 18.7824H37.5657C37.5657 22.2259 34.7483 25.0433 31.3049 25.0433ZM33.3918 16.6955V10.5181C36.5849 10.9772 39.1101 13.5024 39.5901 16.6955H33.3918Z"
    fill="currentColor"/>
  <path
    d="M7.3052 20.8696C6.72085 20.8696 6.26172 21.3288 6.26172 21.9131V26.087C6.26172 26.6714 6.72085 27.1305 7.3052 27.1305C7.88954 27.1305 8.34868 26.6714 8.34868 26.087V21.9131C8.34868 21.3288 7.88954 20.8696 7.3052 20.8696Z"
    fill="currentColor"/>
  <path
    d="M11.479 16.6958C10.8947 16.6958 10.4355 17.1549 10.4355 17.7393V26.0871C10.4355 26.6715 10.8947 27.1306 11.479 27.1306C12.0634 27.1306 12.5225 26.6715 12.5225 26.0871V17.7393C12.5225 17.1549 12.0634 16.6958 11.479 16.6958Z"
    fill="currentColor"/>
  <path
    d="M15.6529 12.522C15.0685 12.522 14.6094 12.9811 14.6094 13.5655V26.0872C14.6094 26.6715 15.0685 27.1307 15.6529 27.1307C16.2372 27.1307 16.6963 26.6715 16.6963 26.0872V13.5655C16.6963 12.9811 16.2372 12.522 15.6529 12.522Z"
    fill="currentColor"/>
  <path
    d="M19.8267 8.34766C19.2423 8.34766 18.7832 8.80679 18.7832 9.39113V26.0868C18.7832 26.6711 19.2423 27.1303 19.8267 27.1303C20.411 27.1303 20.8702 26.6711 20.8702 26.0868V9.39113C20.8702 8.80679 20.411 8.34766 19.8267 8.34766Z"
    fill="currentColor"/>
</svg>
