<svg viewBox="0 0 43 45" fill="none" xmlns="http://www.w3.org/2000/svg">
  <path
    d="M32.6098 35.3832H37.8224C38.302 35.3832 38.6912 34.971 38.6912 34.4631V28.9423C38.6912 28.4344 38.302 28.0221 37.8224 28.0221H32.6098C32.1302 28.0221 31.741 28.4344 31.741 28.9423V34.4631C31.741 34.971 32.1302 35.3832 32.6098 35.3832ZM33.4785 29.8624H36.9536V33.543H33.4785V29.8624ZM41.6659 13.3901C41.3653 13.2392 41.0021 13.2889 40.7415 13.5152L31.741 21.4597V14.2219C31.741 13.8649 31.5464 13.5391 31.2406 13.3882C30.9382 13.2373 30.5768 13.287 30.3162 13.5134L21.3157 21.4579V14.2201C21.3157 13.8538 21.1124 13.5244 20.7961 13.3772C20.4834 13.2281 20.1133 13.2944 19.8596 13.541L12.4837 20.7033L10.8869 1.25898C10.8487 0.782344 10.4716 0.417969 10.0216 0.417969H4.80894C4.35892 0.417969 3.98187 0.784184 3.94364 1.25898L0.468541 43.5854C0.445953 43.8412 0.527618 44.097 0.692685 44.2865C0.857753 44.4761 1.09058 44.5846 1.33384 44.5846H41.2975C41.7771 44.5846 42.1663 44.1724 42.1663 43.6682V14.2237C42.1663 13.8667 41.9717 13.541 41.6659 13.3901ZM2.28081 42.7444L5.60474 2.25825H9.22406L12.548 42.7444H2.28081ZM13.2361 29.8624H16.103V33.543H13.5384L13.2361 29.8624ZM40.4287 42.7444H14.2925L13.6878 35.3832H16.9718C17.4514 35.3832 17.8406 34.971 17.8406 34.4631V28.9423C17.8406 28.4344 17.4514 28.0221 16.9718 28.0221H13.0849L12.6731 23.0166L19.5781 16.3124V23.4214C19.5781 23.7785 19.7727 24.1023 20.0785 24.2532C20.3843 24.4041 20.7423 24.3581 21.0029 24.1281L30.0034 16.1836V23.4214C30.0034 23.7785 30.198 24.1042 30.5038 24.2532C30.8079 24.4041 31.1693 24.3581 31.4282 24.1281L40.4287 16.1836V42.7444ZM27.3971 28.0221H22.1845C21.7049 28.0221 21.3157 28.4344 21.3157 28.9423V34.4631C21.3157 34.971 21.7049 35.3832 22.1845 35.3832H27.3971C27.8767 35.3832 28.2659 34.971 28.2659 34.4631V28.9423C28.2659 28.4344 27.8767 28.0221 27.3971 28.0221ZM26.5283 33.543H23.0532V29.8624H26.5283V33.543Z" fill="currentColor"/>
</svg>
