<svg width="32" height="32" viewBox="0 0 32 32" fill="none" xmlns="http://www.w3.org/2000/svg">
<g clip-path="url(#clip0_7041_146022)">
<path d="M16.2192 19.9892C15.9712 19.9892 15.7352 19.8505 15.6205 19.6145C15.2072 18.7679 13.9325 18.6412 13.3672 19.3985C13.1458 19.6945 12.7285 19.7532 12.4338 19.5319C12.1392 19.3105 12.0792 18.8932 12.2992 18.5985C13.3005 17.2625 15.4605 17.2532 16.4792 18.4972C17.2392 18.2025 18.0005 17.9652 18.7525 17.7879C18.7405 17.6105 18.7325 17.4319 18.7245 17.2532C17.9792 17.0772 17.3658 16.6092 17.0085 15.9572C14.6458 16.1425 12.2285 15.7332 9.99649 14.8199C8.99516 15.9665 6.99516 15.9612 5.99782 14.8132C4.31649 15.4945 2.54849 15.8812 0.73249 15.9652L0.70449 15.3492H0.699156L0.0351562 15.2972C0.0604896 14.9625 0.335156 14.6479 0.67249 14.6319C2.50582 14.5479 4.28582 14.1265 5.96449 13.3772C6.28449 13.2345 6.66182 13.3652 6.82582 13.6759C7.29116 14.5612 8.70316 14.5639 9.17115 13.6799C9.33516 13.3679 9.71782 13.2412 10.0338 13.3825C12.3498 14.4239 14.9032 14.8212 17.3658 14.5839C17.6792 14.5559 17.9738 14.7505 18.0672 15.0532C18.2418 15.6305 18.7765 15.9985 19.3672 15.9972C19.5338 15.9972 19.6965 16.0585 19.8205 16.1719C19.9525 16.2932 20.0312 16.4599 20.0378 16.6385C20.0578 17.2399 20.0725 17.7452 20.1258 18.2412C20.1632 18.5852 19.9312 18.9012 19.5912 18.9665C18.5698 19.1652 17.5232 19.4892 16.4778 19.9305C16.3938 19.9719 16.3058 19.9892 16.2192 19.9892Z" fill="black"/>
<path d="M30.7608 20.7718C30.6488 20.7718 30.5368 20.7438 30.4368 20.6878C27.1808 18.8745 23.3835 18.2305 19.5902 18.9718C19.4062 19.0092 19.2182 18.9652 19.0662 18.8545C18.9168 18.7438 18.8182 18.5758 18.7995 18.3892C18.7422 17.8598 18.7235 17.3212 18.7075 16.7812C18.7008 16.6025 18.7662 16.3825 18.8888 16.2532C19.0115 16.1238 19.1795 16.0012 19.3582 15.9985C20.0795 15.9852 20.6662 15.3878 20.6662 14.6692C20.6662 14.5998 20.6528 14.5332 20.6422 14.4665C20.5942 14.1532 20.7728 13.8492 21.0688 13.7385C24.1475 12.5998 26.7835 10.4385 28.4928 7.65318C28.7355 7.25851 29.3862 7.25851 29.6288 7.65318C31.1808 10.1785 31.9995 13.0665 31.9995 16.0025C31.9995 17.4145 31.7995 18.8545 31.4035 20.2825C31.3502 20.4798 31.2088 20.6412 31.0195 20.7198C30.9355 20.7545 30.8488 20.7718 30.7608 20.7718ZM22.6662 17.3358C25.3155 17.3358 27.9435 17.9505 30.3182 19.1212C30.5502 18.0745 30.6662 17.0292 30.6662 16.0025C30.6662 13.6638 30.0982 11.3598 29.0168 9.27584C27.2595 11.7345 24.8102 13.6678 21.9955 14.8092C21.9342 15.9572 21.1315 16.9238 20.0568 17.2305C20.0622 17.3345 20.0662 17.4358 20.0715 17.5358C20.9408 17.4025 21.8102 17.3358 22.6662 17.3358Z" fill="black"/>
<path d="M15.9991 16.0026C13.7444 16.0026 11.5524 15.5319 9.48572 14.6026C9.31772 14.5266 9.18705 14.3852 9.12839 14.2106C9.06839 14.0359 9.08305 13.8452 9.16972 13.6826C9.27772 13.4799 9.33239 13.2719 9.33239 13.0652C9.33239 12.7892 9.24572 12.5239 9.08172 12.2946C8.87639 12.0079 8.92972 11.6106 9.20439 11.3879C12.4631 8.74922 14.4417 4.84522 14.6311 0.674555C14.6471 0.329222 14.9231 0.0545554 15.2671 0.0385554L15.5097 0.0238887C17.6177 -0.116111 19.7884 0.315889 21.8177 1.11589C21.9951 1.18522 22.1324 1.32789 22.1977 1.50522C22.2644 1.68256 22.2511 1.88122 22.1617 2.04922C22.0537 2.25322 21.9991 2.46122 21.9991 2.66922C21.9991 3.23722 22.3644 3.74122 22.9097 3.92522C23.1044 3.99056 23.2577 4.14122 23.3271 4.33456C23.3951 4.52789 23.3697 4.74256 23.2604 4.91456C21.7284 7.31989 20.7284 9.97322 20.2884 12.8012C20.2324 13.1652 19.8977 13.4132 19.5284 13.3572C18.7751 13.2439 18.0004 13.8652 18.0004 14.6679C18.0004 14.7839 18.0217 14.9066 18.0671 15.0546C18.1271 15.2466 18.0951 15.4532 17.9844 15.6212C17.8737 15.7879 17.6924 15.8959 17.4937 15.9146C17.0004 15.9626 16.5057 16.0026 15.9991 16.0026ZM10.6031 13.6292C12.5351 14.4039 14.6191 14.7786 16.6657 14.6466C16.6777 13.2759 17.7297 12.1479 19.0684 12.0159C19.5351 9.45855 20.4364 7.04122 21.7577 4.81322C21.0831 4.31989 20.6657 3.53056 20.6657 2.66922C20.6657 2.48789 20.6857 2.30922 20.7231 2.13322C19.1684 1.59589 17.5457 1.26256 15.9244 1.33722C15.5777 5.47722 13.6191 9.33322 10.4697 12.0679C10.5991 12.3812 10.6657 12.7199 10.6657 13.0652C10.6657 13.2546 10.6444 13.4439 10.6031 13.6292Z" fill="black"/>
<path d="M21.3031 15.0307C21.1858 15.0307 21.0685 15.0001 20.9645 14.9387C20.7925 14.8374 20.6738 14.6627 20.6445 14.4654C20.5565 13.8894 20.1098 13.4441 19.5325 13.3587C19.3565 13.3321 19.1991 13.2374 19.0951 13.0947C18.9898 12.9521 18.9458 12.7721 18.9725 12.5974C19.4405 9.58539 20.5045 6.76006 22.1365 4.19872C22.3018 3.93872 22.6245 3.82806 22.9125 3.92539C23.6365 4.16939 24.1685 3.86806 24.4805 3.33606C24.5751 3.17206 24.7351 3.05872 24.9218 3.02006C25.1071 2.98139 25.3005 3.02406 25.4498 3.13606C27.1538 4.38939 28.5618 5.91072 29.6311 7.65472C29.7631 7.86806 29.7631 8.13739 29.6311 8.35206C27.7671 11.3907 24.8911 13.7481 21.5351 14.9894C21.4591 15.0174 21.3805 15.0307 21.3031 15.0307ZM20.3871 12.2254C20.9685 12.4734 21.4378 12.9201 21.7151 13.4814C24.3898 12.3454 26.6885 10.4254 28.2738 8.00139C27.4365 6.72139 26.3938 5.58006 25.1645 4.59606C24.5978 5.13472 23.8125 5.41739 23.0125 5.31339C21.7205 7.44672 20.8391 9.76672 20.3871 12.2254Z" fill="black"/>
<path d="M5.52533 27.8279C5.35733 27.8279 5.19467 27.7652 5.06933 27.6479C1.8 24.5825 0 20.4465 0 16.0025C0 15.8505 0.00933333 15.7025 0.02 15.5532L0.0333333 15.3225C0.0493333 14.9545 0.345333 14.6545 0.728 14.6839C1.096 14.6999 1.38133 15.0105 1.36667 15.3785L1.35067 15.6425C1.34267 15.7625 1.33333 15.8812 1.33333 16.0025C1.33333 19.8199 2.784 23.3905 5.43467 26.1385C6.088 25.4705 7.10933 25.1732 8.02533 25.4319C9.06933 23.7785 10.376 22.3252 11.92 21.1039C11.8147 20.8145 11.76 20.5065 11.76 20.1945C11.76 19.6185 11.9467 19.0665 12.2987 18.5985C12.52 18.3025 12.94 18.2465 13.232 18.4665C13.5267 18.6879 13.5853 19.1052 13.364 19.3999C13.1867 19.6359 13.0933 19.9105 13.0933 20.1945C13.0933 20.4559 13.1707 20.7119 13.316 20.9319C13.5107 21.2279 13.4427 21.6239 13.1573 21.8345C11.4067 23.1332 9.96667 24.7359 8.876 26.5999C8.692 26.9145 8.292 27.0199 7.97467 26.8452C7.28133 26.4559 6.44133 26.7732 6.128 27.4439C6.03867 27.6385 5.86 27.7772 5.65067 27.8172C5.60933 27.8239 5.56667 27.8279 5.52533 27.8279Z" fill="black"/>
<path d="M21.1426 31.1C20.8693 31.1 20.6133 30.9307 20.5146 30.6573C20.3906 30.3107 20.5706 29.9293 20.9186 29.8053C21.064 29.752 21.2093 29.6947 21.3506 29.636C21.34 29.5347 21.3333 29.4347 21.3333 29.336C21.3333 28.6867 21.572 28.0667 21.9906 27.5867C20.3826 25.0053 19.3213 22.104 18.8933 19.1267C18.2826 19.2773 17.6653 19.472 17.0466 19.708C17.0773 19.8693 17.0933 20.0307 17.0933 20.1947C17.0933 20.864 16.84 21.5067 16.3773 22.004C16.128 22.2773 15.704 22.2893 15.436 22.04C15.1666 21.7893 15.1493 21.368 15.4013 21.0973C15.6333 20.8467 15.7613 20.5267 15.7613 20.1947C15.7613 20.0013 15.7146 19.8067 15.6213 19.6147C15.54 19.4493 15.532 19.26 15.596 19.088C15.66 18.916 15.7906 18.7787 15.96 18.708C17.0893 18.2307 18.2253 17.8787 19.336 17.6627C19.5226 17.628 19.708 17.6707 19.86 17.78C20.0093 17.8907 20.108 18.0587 20.1266 18.2453C20.48 21.504 21.5853 24.56 23.412 27.332C23.6106 27.6333 23.5346 28.0387 23.2373 28.2453C22.88 28.496 22.6666 28.904 22.6666 29.336C22.6666 29.484 22.6946 29.6347 22.7533 29.7947C22.876 30.1253 22.72 30.4933 22.396 30.6347C22.0066 30.8067 21.692 30.944 21.3666 31.06C21.2933 31.0867 21.2173 31.1 21.1426 31.1Z" fill="black"/>
<path d="M25.4861 28.6745C25.3021 28.6745 25.1208 28.5985 24.9888 28.4518C24.5435 27.9518 23.7795 27.8651 23.2381 28.2451C23.0928 28.3491 22.9075 28.3891 22.7315 28.3545C22.5541 28.3211 22.3981 28.2171 22.2995 28.0665C20.3808 25.1571 19.1701 21.8118 18.8008 18.3891C18.7635 18.0451 18.9955 17.7291 19.3355 17.6638C23.4301 16.8625 27.5555 17.5585 31.0861 19.5238C31.3555 19.6731 31.4875 19.9878 31.4035 20.2851C30.4968 23.5505 28.5941 26.4025 25.8995 28.5331C25.7781 28.6278 25.6328 28.6745 25.4861 28.6745ZM24.0008 26.6691C24.5368 26.6691 25.0581 26.8358 25.4981 27.1371C27.6075 25.3425 29.1408 23.0438 29.9688 20.4371C26.9941 18.9078 23.6075 18.3291 20.2048 18.8651C20.5968 21.6985 21.5661 24.3718 23.0915 26.8305C23.3808 26.7238 23.6875 26.6691 24.0008 26.6691Z" fill="black"/>
<path d="M16.0007 32.0028C13.3554 32.0028 10.7167 31.3268 8.37403 30.0481C8.18469 29.9454 8.05936 29.7588 8.03136 29.5468C8.00336 29.3334 8.08202 29.1214 8.23802 28.9761C8.51536 28.7161 8.66736 28.3721 8.66736 28.0028C8.66736 27.5254 8.40336 27.0828 7.97669 26.8454C7.82069 26.7588 7.70469 26.6121 7.65802 26.4388C7.61136 26.2654 7.63536 26.0801 7.72603 25.9268C8.91003 23.9068 10.47 22.1708 12.3647 20.7641C12.5114 20.6548 12.6967 20.6108 12.8767 20.6428C13.0567 20.6748 13.2154 20.7788 13.3167 20.9294C13.774 21.6134 14.83 21.7108 15.402 21.0961C15.654 20.8268 16.0754 20.8134 16.3447 21.0628C16.614 21.3134 16.6287 21.7361 16.378 22.0054C15.4127 23.0428 13.7034 23.1014 12.678 22.2054C11.2994 23.3094 10.1274 24.6148 9.18602 26.0948C9.69802 26.5894 10.0007 27.2761 10.0007 28.0028C10.0007 28.4388 9.89669 28.8561 9.69936 29.2294C13.174 30.9054 17.1767 31.1388 20.9194 29.8054C21.266 29.6801 21.646 29.8628 21.7714 30.2094C21.8954 30.5561 21.714 30.9374 21.3674 31.0614C19.6167 31.6854 17.81 32.0028 16.0007 32.0028Z" fill="black"/>
<path d="M0.700492 15.9664C0.524492 15.9664 0.353826 15.897 0.228492 15.7717C0.095159 15.6397 0.0258257 15.457 0.0338257 15.2704C0.155159 12.5757 0.961826 9.94236 2.36716 7.65303C2.48849 7.45569 2.70316 7.33569 2.93516 7.33569C3.16716 7.33569 3.38183 7.45569 3.50316 7.65436C4.36849 9.06369 5.47649 10.3197 6.79516 11.3864C7.06983 11.609 7.12316 12.005 6.91916 12.2917C6.75249 12.5224 6.66583 12.7904 6.66583 13.065C6.66583 13.2717 6.71916 13.4784 6.82449 13.6784C6.90982 13.8424 6.92449 14.033 6.86449 14.2064C6.80316 14.381 6.67383 14.5224 6.50583 14.597C4.67383 15.4144 2.73116 15.8744 0.729826 15.9664C0.721826 15.9664 0.711159 15.9664 0.700492 15.9664ZM2.98183 9.27703C2.13249 10.9237 1.60049 12.729 1.41916 14.581C2.78449 14.449 4.11516 14.1264 5.39249 13.6197C5.35383 13.437 5.33249 13.2517 5.33249 13.065C5.33249 12.7197 5.40049 12.3824 5.52849 12.065C4.56449 11.2304 3.71116 10.2957 2.98183 9.27703Z" fill="black"/>
<path d="M9.62515 12.5732C9.59582 12.5732 9.56515 12.5719 9.53582 12.5679C9.35448 12.5425 9.19048 12.4439 9.08382 12.2945C8.57182 11.5812 7.43315 11.5785 6.91848 12.2945C6.81182 12.4439 6.64782 12.5425 6.46515 12.5665C6.28915 12.5892 6.10115 12.5399 5.95715 12.4239C4.52115 11.2612 3.31448 9.89188 2.37048 8.35188C2.23848 8.13855 2.23848 7.86922 2.37048 7.65455C5.14915 3.12655 9.97048 0.279883 15.2692 0.0398826C15.4572 0.0305493 15.6385 0.101216 15.7705 0.234549C15.9038 0.366549 15.9732 0.549216 15.9652 0.735883C15.7572 5.28522 13.5998 9.54655 10.0438 12.4239C9.92382 12.5199 9.77715 12.5732 9.62515 12.5732ZM7.99982 10.3985C8.61315 10.3985 9.20248 10.6132 9.67315 10.9932C12.4652 8.53455 14.2198 5.10788 14.5785 1.42388C10.1558 1.85188 6.16648 4.26522 3.72648 8.00255C4.44648 9.10522 5.31848 10.1079 6.32782 10.9932C6.79848 10.6132 7.38782 10.3985 7.99982 10.3985Z" fill="black"/>
<path d="M19.3327 17.336C18.158 17.336 17.1367 16.5774 16.7913 15.4467C16.7073 15.1734 16.666 14.9187 16.666 14.6694C16.666 13.1987 17.862 12.0027 19.3327 12.0027C19.4687 12.0027 19.5993 12.02 19.7313 12.04C20.8847 12.212 21.782 13.1054 21.9607 14.2627C21.982 14.396 21.9993 14.5294 21.9993 14.6694C21.9993 16.1107 20.826 17.3054 19.3833 17.332L19.3327 17.336ZM19.3327 13.336C18.5967 13.336 17.9993 13.9347 17.9993 14.6694C17.9993 14.7854 18.0207 14.908 18.066 15.056C18.2393 15.6227 18.7487 16.0027 19.3327 16.0027V16.004C20.1153 15.948 20.666 15.3667 20.666 14.6694C20.666 14.6 20.6527 14.5334 20.642 14.4667C20.554 13.8894 20.1073 13.444 19.53 13.3587C19.4647 13.348 19.4007 13.336 19.3327 13.336Z" fill="black"/>
<path d="M23.3327 5.33602C23.0553 5.33602 22.778 5.28802 22.4834 5.18802C21.3967 4.82269 20.666 3.80935 20.666 2.66935C20.666 2.24135 20.7727 1.82269 20.9847 1.42402C21.4513 0.548019 22.35 0.00268555 23.3327 0.00268555C24.8033 0.00268555 25.9993 1.19869 25.9993 2.66935C25.9993 3.13602 25.8754 3.58535 25.6314 4.00669C25.15 4.82669 24.27 5.33602 23.3327 5.33602ZM23.3327 1.33602C22.8447 1.33602 22.3967 1.60935 22.162 2.05069C22.054 2.25335 21.9993 2.46135 21.9993 2.66935C21.9993 3.23735 22.3647 3.74135 22.91 3.92535C23.6393 4.16935 24.1673 3.86802 24.4793 3.33602C24.6033 3.12269 24.6673 2.89735 24.6673 2.66935C24.666 1.93469 24.0687 1.33602 23.3327 1.33602Z" fill="black"/>
<path d="M24.0007 32.0027C22.894 32.0027 21.8913 31.3014 21.5047 30.2561C21.3913 29.9494 21.334 29.6401 21.334 29.3361C21.334 28.4681 21.7593 27.6521 22.474 27.1534C23.5393 26.4041 25.1033 26.5801 25.9833 27.5641C26.4233 28.0561 26.6673 28.6854 26.6673 29.3361C26.6673 30.8067 25.4713 32.0027 24.0007 32.0027ZM24.0007 28.0027C23.7287 28.0027 23.466 28.0867 23.2393 28.2454C22.8807 28.4961 22.6673 28.9041 22.6673 29.3361C22.6673 29.4841 22.6953 29.6347 22.754 29.7947C22.95 30.3254 23.4407 30.6694 24.0007 30.6694C24.7367 30.6694 25.334 30.0707 25.334 29.3361C25.334 28.9241 25.146 28.6294 24.9887 28.4534C24.73 28.1614 24.378 28.0027 24.0007 28.0027Z" fill="black"/>
<path d="M8.00065 15.732C7.01265 15.732 6.10998 15.1827 5.64598 14.2987C5.43932 13.9053 5.33398 13.4907 5.33398 13.0653C5.33398 12.5107 5.50732 11.976 5.83398 11.5173C6.33798 10.816 7.14598 10.3987 8.00065 10.3987C8.85532 10.3987 9.66598 10.8173 10.1673 11.5187C10.494 11.9747 10.6673 12.5093 10.6673 13.0653C10.6673 13.4947 10.5607 13.912 10.35 14.308C9.88598 15.1853 8.98598 15.732 8.00065 15.732ZM8.00065 11.732C7.56998 11.732 7.17532 11.936 6.91798 12.2933C6.75398 12.5227 6.66732 12.7907 6.66732 13.0653C6.66732 13.272 6.72065 13.4787 6.82598 13.6787C7.29132 14.5653 8.70332 14.5667 9.17132 13.684C9.27932 13.48 9.33398 13.272 9.33398 13.0653C9.33398 12.7893 9.24732 12.524 9.08332 12.2947C8.82732 11.936 8.43265 11.732 8.00065 11.732Z" fill="black"/>
<path d="M14.4264 22.8599C13.5331 22.8599 12.7024 22.4146 12.2051 21.6679C11.9144 21.2266 11.7598 20.7173 11.7598 20.1933C11.7598 19.6173 11.9464 19.0653 12.2984 18.5973C12.8078 17.9173 13.5838 17.5266 14.4264 17.5266C15.4504 17.5266 16.3664 18.1026 16.8171 19.0293C17.0011 19.4039 17.0931 19.7959 17.0931 20.1933C17.0931 20.8626 16.8398 21.5053 16.3771 22.0026C15.8624 22.5559 15.1704 22.8599 14.4264 22.8599ZM14.4264 18.8599C14.0091 18.8599 13.6211 19.0559 13.3651 19.3973C13.1864 19.6346 13.0931 19.9093 13.0931 20.1933C13.0931 20.4546 13.1704 20.7106 13.3158 20.9306C13.7704 21.6106 14.8278 21.7106 15.3998 21.0959C15.6318 20.8466 15.7598 20.5266 15.7598 20.1946C15.7598 20.0013 15.7131 19.8066 15.6198 19.6146C15.3931 19.1493 14.9358 18.8599 14.4264 18.8599Z" fill="black"/>
<path d="M7.33268 30.6694C5.86202 30.6694 4.66602 29.4734 4.66602 28.0028C4.66602 27.6188 4.75135 27.2414 4.91935 26.8801C5.54602 25.5321 7.27935 24.9268 8.62468 25.6801C9.47135 26.1521 9.99802 27.0414 9.99802 28.0028C9.99802 28.7468 9.69402 29.4374 9.14468 29.9494C8.64868 30.4134 8.00468 30.6694 7.33268 30.6694ZM7.33268 26.6694C6.81935 26.6694 6.34735 26.9734 6.12868 27.4441C6.04202 27.6268 5.99935 27.8148 5.99935 28.0028C5.99935 28.7374 6.59668 29.3361 7.33268 29.3361C7.66602 29.3361 7.98735 29.2081 8.23802 28.9748C8.51402 28.7161 8.66602 28.3721 8.66602 28.0028C8.66602 27.5254 8.40202 27.0814 7.97535 26.8454C7.76735 26.7281 7.55135 26.6694 7.33268 26.6694Z" fill="black"/>
</g>
<defs>
<clipPath id="clip0_7041_146022">
<rect width="32" height="32" fill="white"/>
</clipPath>
</defs>
</svg>
