<svg width="48" height="48" viewBox="0 0 48 48" fill="none" xmlns="http://www.w3.org/2000/svg">
<g clip-path="url(#clip0_6849_141905)">
<path d="M25 46C24.448 46 24 45.552 24 45V1C24 0.448 24.448 0 25 0C25.552 0 26 0.448 26 1V45C26 45.552 25.552 46 25 46Z" fill="black"/>
<path d="M47 24H3C2.448 24 2 23.552 2 23C2 22.448 2.448 22 3 22H47C47.552 22 48 22.448 48 23C48 23.552 47.552 24 47 24Z" fill="black"/>
<path d="M43 12H7C6.448 12 6 11.552 6 11C6 10.448 6.448 10 7 10H43C43.552 10 44 10.448 44 11C44 11.552 43.552 12 43 12Z" fill="black"/>
<path d="M43 36H25C24.448 36 24 35.552 24 35C24 34.448 24.448 34 25 34H43C43.552 34 44 34.448 44 35C44 35.552 43.552 36 43 36Z" fill="black"/>
<path d="M25 46C24.454 46 23.918 45.96 23.382 45.922C22.832 45.88 22.366 45.398 22.408 44.848C22.448 44.298 22.85 43.868 23.428 43.92L23.53 43.928C24.016 43.962 24.504 44 25 44C36.58 44 46 34.58 46 23C46 11.42 36.58 2 25 2C13.42 2 4 11.42 4 23C4 23.552 3.552 24 3 24C2.448 24 2 23.552 2 23C2 10.318 12.318 0 25 0C37.682 0 48 10.318 48 23C48 35.682 37.682 46 25 46Z" fill="black"/>
<path d="M12.818 48C10.364 48 8.06 47.044 6.326 45.31C2.366 41.35 0 34.504 0 27C0 26.596 0.244 26.23 0.618 26.076C0.99 25.922 1.422 26.006 1.708 26.292C3.75 28.336 7.484 28.95 11.09 29.542C14.438 30.092 17.598 30.612 19.31 32.324C21.044 34.06 22 36.366 22 38.818C22 41.27 21.044 43.576 19.31 45.31C17.576 47.044 15.272 48 12.818 48ZM2.062 29.05C2.438 35.208 4.502 40.656 7.74 43.896C10.454 46.608 15.182 46.608 17.896 43.896C19.254 42.54 20 40.736 20 38.818C20 36.9 19.254 35.096 17.896 33.74C16.638 32.484 13.786 32.014 10.766 31.518C7.806 31.03 4.538 30.494 2.062 29.05Z" fill="black"/>
<path d="M25 46C24.444 46 23.87 45.924 23.196 45.762C22.658 45.632 22.328 45.092 22.458 44.556C22.588 44.02 23.11 43.688 23.666 43.816C24.18 43.942 24.606 44 25 44C30.962 44 36 34.382 36 23C36 11.618 30.962 2 25 2C19.038 2 14 11.618 14 23C14 24.202 14.062 25.432 14.192 26.762C14.244 27.312 13.842 27.8 13.292 27.852C12.754 27.9 12.254 27.506 12.2 26.952C12.064 25.56 12 24.266 12 23C12 10.102 17.71 0 25 0C32.29 0 38 10.102 38 23C38 35.898 32.29 46 25 46Z" fill="black"/>
<path d="M19.0017 45C18.9557 45 18.9077 44.998 18.8617 44.99C16.0137 44.592 9.5877 38.882 8.3277 37.74C7.9197 37.368 7.8877 36.738 8.2597 36.328C8.6337 35.916 9.2657 35.89 9.6717 36.258C12.4097 38.74 17.4037 42.766 19.1377 43.008C19.6837 43.084 20.0657 43.59 19.9897 44.136C19.9197 44.638 19.4917 45 19.0017 45Z" fill="black"/>
</g>
<defs>
<clipPath id="clip0_6849_141905">
<rect width="48" height="48" fill="white"/>
</clipPath>
</defs>
</svg>
