<svg viewBox="0 0 46 48" fill="none" xmlns="http://www.w3.org/2000/svg">
  <g clip-path="url(#clip0_1668_221729)">
    <path d="M22.7306 48C10.2379 48 0.0703125 37.2313 0.0703125 24C0.0703125 10.7687 10.2379 0 22.7306 0C35.2233 0 45.3909 10.7687 45.3909 24C45.3909 37.2313 35.2233 48 22.7306 48ZM22.7306 2.08696C11.3216 2.08696 2.04077 11.9165 2.04077 24C2.04077 36.0835 11.3216 45.913 22.7306 45.913C34.1396 45.913 43.4204 36.0835 43.4204 24C43.4204 11.9165 34.1396 2.08696 22.7306 2.08696Z" fill="currentColor"/>
    <path
      d="M22.7313 8.34783C22.1796 8.34783 21.7461 7.8887 21.7461 7.30435V1.04348C21.7461 0.45913 22.1796 0 22.7313 0C23.2831 0 23.7166 0.45913 23.7166 1.04348V7.30435C23.7166 7.8887 23.2831 8.34783 22.7313 8.34783Z" fill="currentColor"/>
    <path d="M22.7313 48.0002C22.1796 48.0002 21.7461 47.541 21.7461 46.9567V40.6958C21.7461 40.1115 22.1796 39.6523 22.7313 39.6523C23.2831 39.6523 23.7166 40.1115 23.7166 40.6958V46.9567C23.7166 47.541 23.2831 48.0002 22.7313 48.0002Z" fill="currentColor"/>
    <path d="M12.8783 25.044H1.05554C0.503814 25.044 0.0703125 24.5849 0.0703125 24.0005C0.0703125 23.4162 0.503814 22.957 1.05554 22.957H12.8783C13.43 22.957 13.8635 23.4162 13.8635 24.0005C13.8635 24.5849 13.43 25.044 12.8783 25.044Z" fill="currentColor"/>
    <path d="M44.4056 25.044H32.5829C32.0312 25.044 31.5977 24.5849 31.5977 24.0005C31.5977 23.4162 32.0312 22.957 32.5829 22.957H44.4056C44.9574 22.957 45.3909 23.4162 45.3909 24.0005C45.3909 24.5849 44.9574 25.044 44.4056 25.044Z" fill="currentColor"/>
    <path d="M22.7306 35.476C18.9276 35.476 15.834 32.6587 15.834 29.2152C15.834 28.6308 16.2675 28.1717 16.8192 28.1717C17.3709 28.1717 17.8044 28.6308 17.8044 29.2152C17.8044 31.5108 20.0114 33.3891 22.7306 33.3891C25.4498 33.3891 27.6567 31.5108 27.6567 29.2152C27.6567 26.9195 25.4498 25.0413 22.7306 25.0413C18.9276 25.0413 15.834 22.2239 15.834 18.7804C15.834 15.3369 18.9276 12.5195 22.7306 12.5195C26.5336 12.5195 29.6272 15.3369 29.6272 18.7804C29.6272 19.3647 29.1937 19.8239 28.642 19.8239C28.0902 19.8239 27.6567 19.3647 27.6567 18.7804C27.6567 16.4847 25.4498 14.6065 22.7306 14.6065C20.0114 14.6065 17.8044 16.4847 17.8044 18.7804C17.8044 21.0761 20.0114 22.9543 22.7306 22.9543C26.5336 22.9543 29.6272 25.7717 29.6272 29.2152C29.6272 32.6587 26.5336 35.476 22.7306 35.476Z" fill="currentColor"/>
    <path d="M22.7313 37.564C22.1796 37.564 21.7461 37.1049 21.7461 36.5205V11.4771C21.7461 10.8927 22.1796 10.4336 22.7313 10.4336C23.2831 10.4336 23.7166 10.8927 23.7166 11.4771V36.5205C23.7166 37.1049 23.2831 37.564 22.7313 37.564Z" fill="currentColor"/>
  </g>
  <defs>
    <clipPath id="clip0_1668_221729">
      <rect width="45.3206" height="48" fill="white" transform="translate(0.0703125)"/>
    </clipPath>
  </defs>
</svg>
