<svg width="32" height="32" viewBox="0 0 32 32" fill="none" xmlns="http://www.w3.org/2000/svg">
<path d="M22.0014 2.66667C21.9094 2.66667 21.8148 2.64667 21.7254 2.60667C19.8694 1.76133 17.7201 1.33333 15.3348 1.33333C12.9334 1.33333 10.7841 1.76133 8.94677 2.60533C8.61211 2.75867 8.21611 2.61333 8.06277 2.27867C7.90944 1.944 8.05611 1.548 8.38944 1.39467C10.4028 0.469333 12.7388 0 15.3348 0C17.9121 0 20.2481 0.469333 22.2774 1.39333C22.6121 1.54533 22.7601 1.94133 22.6081 2.276C22.4974 2.52267 22.2548 2.66667 22.0014 2.66667Z" fill="black"/>
<path d="M6.00162 7.99984C5.83362 7.99984 5.66428 7.93584 5.53362 7.8065C5.27228 7.54917 5.26962 7.1265 5.52828 6.86384C8.24028 4.1185 11.6309 2.6665 15.3323 2.6665C19.0483 2.6665 22.4416 4.1185 25.1443 6.86517C25.4029 7.1265 25.3989 7.5505 25.1363 7.80784C24.8736 8.06517 24.451 8.06117 24.1936 7.79984C21.747 5.31317 18.6816 3.99984 15.3323 3.99984C11.9949 3.99984 8.93362 5.3145 6.47628 7.8025C6.34562 7.93317 6.17362 7.99984 6.00162 7.99984Z" fill="black"/>
<path d="M26.0002 17.3335C25.6322 17.3335 25.3335 17.0348 25.3335 16.6668C25.3335 11.1522 20.8482 6.66683 15.3335 6.66683C14.4935 6.66683 13.6589 6.77083 12.8562 6.97483C12.4962 7.06683 12.1349 6.85216 12.0442 6.4935C11.9535 6.1375 12.1682 5.77483 12.5255 5.68416C13.4375 5.45083 14.3815 5.3335 15.3335 5.3335C21.5829 5.3335 26.6669 10.4175 26.6669 16.6668C26.6669 17.0348 26.3682 17.3335 26.0002 17.3335Z" fill="black"/>
<path d="M4.66873 17.3333C4.66606 17.3333 4.66206 17.3333 4.65806 17.3333C4.29006 17.3267 3.9954 17.0253 4.00206 16.656C4.05006 13.6173 5.2194 10.7893 7.2954 8.69068C7.99806 7.97868 8.78873 7.36401 9.64206 6.86401C9.95806 6.67868 10.3674 6.78401 10.5541 7.10268C10.7394 7.42001 10.6327 7.82935 10.3154 8.01601C9.5634 8.45601 8.86606 8.99868 8.2434 9.62935C6.41006 11.4813 5.37806 13.9853 5.3354 16.6773C5.33006 17.0413 5.03273 17.3333 4.66873 17.3333Z" fill="black"/>
<path d="M5.62776 23.3333C5.51709 23.3333 5.40509 23.3053 5.30109 23.248C4.97976 23.068 4.86642 22.6613 5.04642 22.34L5.42109 21.6733C6.22376 20.02 6.67176 18.3 6.66776 16.8667C6.66776 14.4373 7.56376 12.2133 9.19176 10.5667C10.8264 8.912 13.0078 8 15.3331 8C17.8358 8 20.2171 9.084 21.8664 10.976C22.1078 11.2547 22.0798 11.6747 21.8024 11.9173C21.5251 12.1573 21.1051 12.1307 20.8611 11.8533C19.4651 10.2507 17.4491 9.33333 15.3331 9.33333C13.3678 9.33333 11.5238 10.104 10.1398 11.504C8.76109 12.8987 8.00109 14.7907 8.00109 16.8307C8.00642 18.5187 7.52242 20.396 6.60242 22.292L6.20909 22.9933C6.08642 23.2107 5.86109 23.3333 5.62776 23.3333Z" fill="black"/>
<path d="M24.5993 25.2132C24.314 25.2132 24.0487 25.0279 23.9607 24.7412L23.198 22.2293C22.734 20.1213 22.6953 18.1972 22.6727 17.0466L22.6647 16.6839C22.6647 15.8306 22.5247 15.0092 22.2473 14.2266C22.1247 13.8786 22.306 13.4986 22.6527 13.3746C23.0007 13.2532 23.382 13.4346 23.5033 13.7813C23.8313 14.7066 23.998 15.6786 23.998 16.6666L24.006 17.0212C24.0287 18.1212 24.0647 19.9639 24.4873 21.8919L25.238 24.3532C25.3447 24.7066 25.146 25.0786 24.794 25.1852C24.7287 25.2039 24.6633 25.2132 24.5993 25.2132Z" fill="black"/>
<path d="M22.6548 28.2958C22.3708 28.2958 22.1068 28.1132 22.0174 27.8265L21.4014 25.8478C20.2921 22.3852 20.0454 18.6198 19.9974 16.6838C19.9974 14.0945 17.9041 11.9998 15.3308 11.9998C12.7588 11.9998 10.6668 14.1358 10.6668 16.7598C10.6708 17.8612 10.4534 21.7318 7.48676 26.0105C7.27609 26.3118 6.85876 26.3852 6.55876 26.1785C6.25609 25.9692 6.18009 25.5532 6.39076 25.2505C9.20543 21.1905 9.33476 17.4838 9.33343 16.7825C9.33343 13.3998 12.0241 10.6665 15.3321 10.6665C18.6401 10.6665 21.3321 13.3585 21.3321 16.6665C21.3694 18.1505 21.5748 22.0145 22.6734 25.4465L23.2921 27.4305C23.4014 27.7825 23.2054 28.1558 22.8534 28.2652C22.7868 28.2865 22.7214 28.2958 22.6548 28.2958Z" fill="black"/>
<path d="M12.6784 31.9999C12.5371 31.9999 12.3944 31.9546 12.2717 31.8612C11.9797 31.6359 11.9264 31.2186 12.1504 30.9266C17.3557 24.1639 17.3504 17.4279 17.3331 16.6812C17.3331 15.5626 16.4344 14.6652 15.3317 14.6652C14.2291 14.6652 13.3317 15.5626 13.3317 16.6652C13.3397 16.8799 13.5024 22.5826 8.97839 28.4706C8.75439 28.7626 8.33706 28.8172 8.04372 28.5932C7.75172 28.3692 7.69706 27.9506 7.92106 27.6586C12.1544 22.1479 12.0077 16.9106 11.9997 16.6892C11.9997 14.8266 13.4944 13.3306 15.3331 13.3306C17.1717 13.3306 18.6664 14.8252 18.6664 16.6639C18.6864 17.4399 18.7011 24.6012 13.2077 31.7372C13.0771 31.9106 12.8784 31.9999 12.6784 31.9999Z" fill="black"/>
<path d="M15.1145 19.9975C15.0799 19.9975 15.0439 19.9948 15.0079 19.9895C14.6452 19.9308 14.3972 19.5881 14.4559 19.2255C14.7039 17.6801 14.6665 16.7055 14.6665 16.6961C14.6505 16.3295 14.9359 16.0175 15.3039 16.0015C15.6825 16.0135 15.9825 16.2681 15.9985 16.6375C15.9999 16.6815 16.0452 17.7441 15.7732 19.4375C15.7199 19.7641 15.4372 19.9975 15.1145 19.9975Z" fill="black"/>
<path d="M10.2625 30.7373C10.1172 30.7373 9.96921 30.6893 9.84654 30.5919C9.55854 30.3613 9.51188 29.9426 9.74121 29.6546C11.6399 27.2799 13.0252 24.6466 13.8599 21.8306C13.9652 21.4773 14.3372 21.2799 14.6892 21.3799C15.0425 21.4839 15.2439 21.8546 15.1385 22.2079C14.2545 25.1906 12.7892 27.9759 10.7825 30.4879C10.6519 30.6506 10.4585 30.7373 10.2625 30.7373Z" fill="black"/>
<path d="M15.8326 31.9999C15.7099 31.9999 15.5859 31.9666 15.4753 31.8959C15.1646 31.6999 15.0726 31.2866 15.2699 30.9759C16.9726 28.2959 18.4579 24.8053 18.4726 24.7706C18.5819 24.5119 18.83 24.3333 19.1246 24.3653C19.406 24.3813 19.6459 24.5719 19.7259 24.8426C19.7273 24.8453 20.0259 25.8586 20.3459 26.8146L21.1486 29.3706C21.2593 29.7213 21.0633 30.0959 20.7126 30.2066C20.3593 30.3186 19.9859 30.1199 19.8766 29.7693L19.0779 27.2266C19.0419 27.1213 19.0073 27.0133 18.9713 26.9066C18.3606 28.2053 17.4259 30.0693 16.3939 31.6933C16.2686 31.8906 16.0526 31.9999 15.8326 31.9999Z" fill="black"/>
</svg>
