<svg width="426" height="193" viewBox="0 0 426 193" fill="none" xmlns="http://www.w3.org/2000/svg">
<rect x="31.0684" y="58.9775" width="27.182" height="89.3122" fill="#7D41BC"/>
<rect y="117.227" width="27.182" height="89.3122" transform="rotate(-90 0 117.227)" fill="#7D41BC"/>
<rect x="335.889" y="115.284" width="27.182" height="89.3122" transform="rotate(-90 335.889 115.284)" fill="#7D41BC"/>
<path d="M90.3428 65.2507C88.1138 66.4467 85.8849 66.8816 83.4929 66.8816C76.2081 66.8816 71.1523 61.8257 71.1523 54.7041C71.1523 47.4736 76.2081 42.5265 83.6016 42.5265C87.4615 42.5265 90.669 43.8856 93.4415 46.8213L99.0954 41.6023C95.3986 37.3076 89.8535 35.0243 83.1667 35.0243C71.0436 35.0243 62.2366 43.2333 62.2366 54.7041C62.2366 66.1749 71.0436 74.3838 83.0036 74.3838C88.44 74.3838 94.2026 72.6985 98.3886 69.5454V54.106H90.3428V65.2507ZM136.47 73.7314L127.935 61.4996C132.882 59.3794 135.763 55.1933 135.763 49.4851C135.763 40.95 129.402 35.6767 119.236 35.6767H102.764V73.7314H111.571V63.1305H119.236H119.671L127.01 73.7314H136.47ZM126.847 49.4851C126.847 53.6168 124.129 56.1175 118.747 56.1175H111.571V42.8527H118.747C124.129 42.8527 126.847 45.2991 126.847 49.4851ZM167.368 73.7314H176.609L159.594 35.6767H150.895L133.934 73.7314H142.958L146.329 65.5768H163.997L167.368 73.7314ZM149.156 58.8901L155.19 44.3205L161.224 58.8901H149.156ZM193.224 35.6767H176.752V73.7314H185.559V63.2392H193.224C203.391 63.2392 209.751 57.9659 209.751 49.4851C209.751 40.95 203.391 35.6767 193.224 35.6767ZM192.735 56.0632H185.559V42.8527H192.735C198.117 42.8527 200.835 45.2991 200.835 49.4851C200.835 53.6168 198.117 56.0632 192.735 56.0632ZM238.328 35.6767V50.6811H221.04V35.6767H212.233V73.7314H221.04V58.129H238.328V73.7314H247.135V35.6767H238.328ZM252.333 73.7314H261.14V35.6767H252.333V73.7314ZM274.248 73.7314H283.055V42.8527H295.233V35.6767H262.071V42.8527H274.248V73.7314ZM304.919 66.6641V57.8572H322.587V51.0073H304.919V42.744H324.925V35.6767H296.166V73.7314H325.631V66.6641H304.919ZM132.647 119.731H141.889L124.873 81.6767H116.175L99.213 119.731H108.237L111.608 111.577H129.276L132.647 119.731ZM114.435 104.89L120.469 90.3205L126.504 104.89H114.435ZM168.235 81.6767V104.781L149.316 81.6767H142.031V119.731H150.73V96.6268L169.703 119.731H176.933V81.6767H168.235ZM200.561 120.384C212.521 120.384 221.382 112.066 221.382 100.704C221.382 89.342 212.521 81.0243 200.561 81.0243C188.546 81.0243 179.739 89.3963 179.739 100.704C179.739 112.012 188.546 120.384 200.561 120.384ZM200.561 112.882C193.765 112.882 188.655 107.934 188.655 100.704C188.655 93.4736 193.765 88.5265 200.561 88.5265C207.356 88.5265 212.466 93.4736 212.466 100.704C212.466 107.934 207.356 112.882 200.561 112.882ZM224.195 119.731H241.483C253.932 119.731 262.468 112.229 262.468 100.704C262.468 89.1789 253.932 81.6767 241.483 81.6767H224.195V119.731ZM233.002 112.501V88.9071H241.048C248.605 88.9071 253.552 93.4193 253.552 100.704C253.552 107.989 248.605 112.501 241.048 112.501H233.002ZM274.056 112.664V103.857H291.725V97.0073H274.056V88.744H294.062V81.6767H265.304V119.731H294.769V112.664H274.056ZM310.475 120.384C321.348 120.384 326.621 114.947 326.621 108.587C326.621 94.6153 304.495 99.4537 304.495 92.4407C304.495 90.0487 306.506 88.0916 311.725 88.0916C315.096 88.0916 318.738 89.0702 322.272 91.0816L324.99 84.3949C321.456 82.1659 316.564 81.0243 311.78 81.0243C300.961 81.0243 295.742 86.4063 295.742 92.8756C295.742 107.01 317.868 102.118 317.868 109.239C317.868 111.577 315.748 113.316 310.529 113.316C305.963 113.316 301.179 111.686 297.971 109.348L294.981 115.98C298.352 118.59 304.44 120.384 310.475 120.384ZM244.283 156.749L255.374 145.845C259.754 141.558 260.732 138.762 260.732 135.64C260.732 130.189 256.539 126.833 249.922 126.833C244.936 126.833 240.882 128.511 238.366 131.493L240.742 133.544C242.886 131.074 245.821 129.909 249.642 129.909C254.628 129.909 257.284 132.239 257.284 136.013C257.284 138.25 256.585 140.44 252.904 144.075L239.344 157.355V159.731H262.224V156.749H244.283ZM275.991 160.011C283.54 160.011 289.038 153.814 289.038 143.422C289.038 133.031 283.54 126.833 275.991 126.833C268.442 126.833 262.99 133.031 262.99 143.422C262.99 153.814 268.442 160.011 275.991 160.011ZM275.991 156.936C270.306 156.936 266.392 152.136 266.392 143.422C266.392 134.708 270.306 129.909 275.991 129.909C281.676 129.909 285.59 134.708 285.59 143.422C285.59 152.136 281.676 156.936 275.991 156.936ZM294.824 156.749L305.914 145.845C310.294 141.558 311.273 138.762 311.273 135.64C311.273 130.189 307.079 126.833 300.462 126.833C295.476 126.833 291.422 128.511 288.906 131.493L291.282 133.544C293.426 131.074 296.361 129.909 300.183 129.909C305.168 129.909 307.825 132.239 307.825 136.013C307.825 138.25 307.126 140.44 303.444 144.075L289.884 157.355V159.731H312.764V156.749H294.824ZM311.709 127.113V130.095H319.397V159.731H322.753V127.113H311.709Z" fill="white"/>
</svg>
