<svg width="426" height="194" viewBox="0 0 426 194" fill="none" xmlns="http://www.w3.org/2000/svg">
<line x1="192.188" y1="49.5227" x2="214.832" y2="77.1986" stroke="#B7B5B4" stroke-width="2.51599"/>
<line x1="195.971" y1="36.5135" x2="251.323" y2="23.9336" stroke="#B7B5B4" stroke-width="2.51599"/>
<line x1="262.798" y1="33.2437" x2="242.67" y2="76.0155" stroke="#B7B5B4" stroke-width="2.51599"/>
<line x1="217.531" y1="118.747" x2="202.435" y2="153.97" stroke="#B7B5B4" stroke-width="2.51599"/>
<line x1="245.057" y1="120.013" x2="260.153" y2="140.141" stroke="#B7B5B4" stroke-width="2.51599"/>
<line x1="213.324" y1="169.949" x2="256.096" y2="149.821" stroke="#B7B5B4" stroke-width="2.51599"/>
<path d="M32.4111 126.186C27.312 126.186 22.7547 125.039 18.7392 122.744C14.7874 120.386 11.6642 117.231 9.36965 113.279C7.1388 109.264 6.02338 104.738 6.02338 99.7028C6.02338 94.54 7.1388 89.9508 9.36965 85.9353C11.6005 81.9198 14.6599 78.7966 18.548 76.5657C22.436 74.2712 26.8977 73.1239 31.9331 73.1239C39.4542 73.1239 45.7006 75.9921 50.6722 81.7286C51.5645 82.7484 51.8832 83.8001 51.6283 84.8836C51.3733 85.9672 50.6722 86.9232 49.5249 87.7518C48.6325 88.3892 47.6446 88.6123 46.5611 88.4211C45.4775 88.1661 44.4895 87.5925 43.5972 86.7002C40.474 83.3858 36.586 81.7286 31.9331 81.7286C27.0252 81.7286 23.0416 83.3858 19.9821 86.7002C16.9227 89.9508 15.3929 94.285 15.3929 99.7028C15.3929 103.145 16.0941 106.204 17.4963 108.881C18.9623 111.558 20.9701 113.693 23.5196 115.287C26.0691 116.817 29.033 117.581 32.4111 117.581C36.7453 117.581 40.2509 116.466 42.928 114.235C43.9478 113.407 44.9995 112.96 46.083 112.897C47.1666 112.769 48.1226 113.056 48.9512 113.757C50.0348 114.649 50.6403 115.669 50.7678 116.817C50.8953 117.9 50.5128 118.888 49.6205 119.78C45.0313 124.051 39.2949 126.186 32.4111 126.186ZM81.7051 126.186C77.0522 126.186 72.8773 125.039 69.1805 122.744C65.4837 120.386 62.5517 117.231 60.3846 113.279C58.2812 109.264 57.2295 104.738 57.2295 99.7028C57.2295 94.6675 58.3768 90.142 60.6714 86.1265C63.0297 82.111 66.1848 78.9559 70.1366 76.6614C74.1521 74.303 78.6457 73.1239 83.6173 73.1239C88.5889 73.1239 93.0505 74.303 97.0023 76.6614C100.954 78.9559 104.077 82.111 106.372 86.1265C108.73 90.142 109.909 94.6675 109.909 99.7028V121.023C109.909 122.426 109.431 123.605 108.475 124.561C107.583 125.453 106.436 125.899 105.033 125.899C103.631 125.899 102.452 125.453 101.496 124.561C100.604 123.605 100.157 122.426 100.157 121.023V117.486C97.9265 120.163 95.2177 122.298 92.0307 123.892C88.9075 125.421 85.4657 126.186 81.7051 126.186ZM83.6173 117.581C86.8679 117.581 89.768 116.817 92.3176 115.287C94.8671 113.693 96.8749 111.558 98.3408 108.881C99.8068 106.14 100.54 103.081 100.54 99.7028C100.54 96.2609 99.8068 93.2015 98.3408 90.5245C96.8749 87.7837 94.8671 85.6485 92.3176 84.1188C89.768 82.5253 86.8679 81.7286 83.6173 81.7286C80.4303 81.7286 77.5302 82.5253 74.9169 84.1188C72.3674 85.6485 70.3278 87.7837 68.7981 90.5245C67.3321 93.2015 66.5991 96.2609 66.5991 99.7028C66.5991 103.081 67.3321 106.14 68.7981 108.881C70.3278 111.558 72.3674 113.693 74.9169 115.287C77.5302 116.817 80.4303 117.581 83.6173 117.581ZM137.234 125.804C134.048 125.804 131.179 125.007 128.63 123.414C126.08 121.756 124.072 119.525 122.607 116.721C121.141 113.916 120.408 110.761 120.408 107.256V83.6407H116.01C114.671 83.6407 113.588 83.2583 112.759 82.4934C111.93 81.7286 111.516 80.7725 111.516 79.6252C111.516 78.3504 111.93 77.3306 112.759 76.5657C113.588 75.8009 114.671 75.4184 116.01 75.4184H120.408V61.6509C120.408 60.2487 120.854 59.1014 121.746 58.2091C122.638 57.3167 123.786 56.8706 125.188 56.8706C126.59 56.8706 127.737 57.3167 128.63 58.2091C129.522 59.1014 129.968 60.2487 129.968 61.6509V75.4184H138.095C139.433 75.4184 140.517 75.8009 141.346 76.5657C142.174 77.3306 142.589 78.3504 142.589 79.6252C142.589 80.7725 142.174 81.7286 141.346 82.4934C140.517 83.2583 139.433 83.6407 138.095 83.6407H129.968V107.256C129.968 109.805 130.669 111.941 132.072 113.662C133.474 115.382 135.195 116.243 137.234 116.243H140.485C141.632 116.243 142.589 116.689 143.353 117.581C144.182 118.474 144.596 119.621 144.596 121.023C144.596 122.426 144.055 123.573 142.971 124.465C141.951 125.358 140.613 125.804 138.955 125.804H137.234ZM155.244 125.899C153.842 125.899 152.662 125.453 151.706 124.561C150.814 123.605 150.368 122.426 150.368 121.023V78.3823C150.368 76.9163 150.814 75.7371 151.706 74.8448C152.662 73.9525 153.842 73.5063 155.244 73.5063C156.71 73.5063 157.889 73.9525 158.781 74.8448C159.674 75.7371 160.12 76.9163 160.12 78.3823V79.434C162.096 77.4581 164.486 75.8965 167.29 74.7492C170.095 73.6019 173.122 73.0283 176.373 73.0283C180.771 73.0283 184.691 73.9843 188.133 75.8965C191.639 77.7449 194.379 80.4857 196.355 84.1188C198.395 87.7518 199.415 92.2135 199.415 97.5038V121.023C199.415 122.426 198.937 123.605 197.98 124.561C197.088 125.453 195.941 125.899 194.539 125.899C193.136 125.899 191.957 125.453 191.001 124.561C190.109 123.605 189.663 122.426 189.663 121.023V97.5038C189.663 92.0861 188.197 88.1343 185.265 85.6485C182.396 83.0989 178.795 81.8242 174.461 81.8242C171.784 81.8242 169.362 82.3659 167.195 83.4495C165.028 84.533 163.307 85.999 162.032 87.8475C160.757 89.6321 160.12 91.7036 160.12 94.062V121.023C160.12 122.426 159.674 123.605 158.781 124.561C157.889 125.453 156.71 125.899 155.244 125.899ZM155.244 106.778C153.842 106.778 152.662 106.332 151.706 105.439C150.814 104.483 150.368 103.304 150.368 101.902V56.0101C150.368 54.5441 150.814 53.3649 151.706 52.4726C152.662 51.5803 153.842 51.1341 155.244 51.1341C156.71 51.1341 157.889 51.5803 158.781 52.4726C159.674 53.3649 160.12 54.5441 160.12 56.0101V101.902C160.12 103.304 159.674 104.483 158.781 105.439C157.889 106.332 156.71 106.778 155.244 106.778ZM291.43 126.186C286.458 126.186 281.964 125.039 277.949 122.744C273.997 120.386 270.842 117.199 268.484 113.183C266.189 109.168 265.042 104.643 265.042 99.6072C265.042 94.5719 266.094 90.0783 268.197 86.1265C270.364 82.111 273.296 78.9559 276.993 76.6614C280.69 74.303 284.865 73.1239 289.517 73.1239C293.278 73.1239 296.752 73.9206 299.939 75.5141C303.126 77.0438 305.803 79.1471 307.97 81.8242V56.0101C307.97 54.5441 308.416 53.3649 309.308 52.4726C310.264 51.5803 311.443 51.1341 312.846 51.1341C314.312 51.1341 315.491 51.5803 316.383 52.4726C317.276 53.3649 317.722 54.5441 317.722 56.0101V99.6072C317.722 104.643 316.543 109.168 314.184 113.183C311.89 117.199 308.766 120.386 304.815 122.744C300.863 125.039 296.401 126.186 291.43 126.186ZM291.43 117.581C294.68 117.581 297.58 116.817 300.13 115.287C302.679 113.693 304.687 111.526 306.153 108.786C307.619 106.045 308.352 102.985 308.352 99.6072C308.352 96.1653 307.619 93.1059 306.153 90.4289C304.687 87.7518 302.679 85.6485 300.13 84.1188C297.58 82.5253 294.68 81.7286 291.43 81.7286C288.243 81.7286 285.343 82.5253 282.729 84.1188C280.18 85.6485 278.14 87.7518 276.61 90.4289C275.144 93.1059 274.411 96.1653 274.411 99.6072C274.411 102.985 275.144 106.045 276.61 108.786C278.14 111.526 280.18 113.693 282.729 115.287C285.343 116.817 288.243 117.581 291.43 117.581ZM353.3 126.186C348.009 126.186 343.293 125.071 339.15 122.84C335.07 120.545 331.852 117.422 329.493 113.47C327.199 109.455 326.051 104.866 326.051 99.7028C326.051 94.4763 327.135 89.8871 329.302 85.9353C331.533 81.9198 334.592 78.7966 338.48 76.5657C342.369 74.2712 346.83 73.1239 351.866 73.1239C356.837 73.1239 361.108 74.2393 364.677 76.4701C368.246 78.6372 370.955 81.6648 372.804 85.5529C374.716 89.3772 375.672 93.807 375.672 98.8423C375.672 100.053 375.258 101.073 374.429 101.902C373.6 102.667 372.549 103.049 371.274 103.049H334.943C335.644 107.447 337.652 111.048 340.966 113.853C344.344 116.594 348.456 117.964 353.3 117.964C355.276 117.964 357.283 117.613 359.323 116.912C361.426 116.147 363.115 115.287 364.39 114.331C365.346 113.63 366.366 113.279 367.45 113.279C368.597 113.215 369.585 113.534 370.413 114.235C371.497 115.191 372.071 116.243 372.134 117.39C372.198 118.538 371.688 119.525 370.605 120.354C368.438 122.075 365.729 123.477 362.478 124.561C359.291 125.644 356.232 126.186 353.3 126.186ZM351.866 81.3461C347.149 81.3461 343.356 82.6528 340.488 85.266C337.62 87.8793 335.803 91.2575 335.039 95.4005H366.876C366.302 91.3212 364.741 87.9749 362.191 85.3617C359.642 82.6846 356.2 81.3461 351.866 81.3461ZM400.921 126.186C396.46 126.186 392.317 125.517 388.492 124.178C384.732 122.776 381.8 121.023 379.696 118.92C378.74 117.9 378.326 116.753 378.453 115.478C378.645 114.14 379.282 113.056 380.366 112.227C381.64 111.208 382.883 110.793 384.094 110.985C385.369 111.112 386.453 111.654 387.345 112.61C388.429 113.821 390.15 114.968 392.508 116.052C394.93 117.072 397.607 117.581 400.539 117.581C404.236 117.581 407.04 116.976 408.952 115.765C410.928 114.554 411.948 112.992 412.012 111.08C412.076 109.168 411.151 107.511 409.239 106.109C407.391 104.706 403.981 103.559 399.009 102.667C392.572 101.392 387.887 99.4797 384.955 96.9302C382.087 94.3806 380.652 91.2575 380.652 87.5606C380.652 84.31 381.609 81.6329 383.521 79.5296C385.433 77.3625 387.887 75.769 390.882 74.7492C393.878 73.6656 397.001 73.1239 400.252 73.1239C404.459 73.1239 408.187 73.7931 411.438 75.1316C414.689 76.4701 417.27 78.3185 419.182 80.6769C420.075 81.6967 420.489 82.7802 420.425 83.9275C420.362 85.0111 419.82 85.9353 418.8 86.7002C417.78 87.4013 416.569 87.6244 415.167 87.3694C413.765 87.1145 412.585 86.5408 411.629 85.6485C410.036 84.1187 408.315 83.0671 406.467 82.4934C404.618 81.9198 402.483 81.633 400.061 81.633C397.256 81.633 394.866 82.111 392.89 83.0671C390.978 84.0231 390.022 85.4254 390.022 87.2738C390.022 88.4211 390.309 89.4728 390.882 90.4289C391.52 91.3212 392.731 92.1498 394.516 92.9147C396.3 93.6158 398.914 94.3169 402.355 95.018C409.558 96.4203 414.529 98.428 417.27 101.041C420.075 103.591 421.477 106.746 421.477 110.506C421.477 113.438 420.68 116.084 419.087 118.442C417.557 120.8 415.262 122.681 412.203 124.083C409.207 125.485 405.447 126.186 400.921 126.186ZM315.649 178.939L330.02 164.809C335.696 159.254 336.964 155.631 336.964 151.585C336.964 144.52 331.529 140.173 322.955 140.173C316.494 140.173 311.24 142.347 307.98 146.211L311.059 148.868C313.837 145.668 317.641 144.158 322.593 144.158C329.054 144.158 332.496 147.177 332.496 152.068C332.496 154.967 331.59 157.805 326.82 162.515L309.248 179.724V182.804H338.896V178.939H315.649ZM357.039 183.166C366.821 183.166 373.946 175.135 373.946 161.669C373.946 148.204 366.821 140.173 357.039 140.173C347.257 140.173 340.192 148.204 340.192 161.669C340.192 175.135 347.257 183.166 357.039 183.166ZM357.039 179.181C349.672 179.181 344.6 172.961 344.6 161.669C344.6 150.378 349.672 144.158 357.039 144.158C364.406 144.158 369.478 150.378 369.478 161.669C369.478 172.961 364.406 179.181 357.039 179.181ZM381.745 178.939L396.117 164.809C401.793 159.254 403.061 155.631 403.061 151.585C403.061 144.52 397.626 140.173 389.052 140.173C382.591 140.173 377.337 142.347 374.076 146.211L377.156 148.868C379.934 145.668 383.738 144.158 388.689 144.158C395.15 144.158 398.592 147.177 398.592 152.068C398.592 154.967 397.687 157.805 392.916 162.515L375.345 179.724V182.804H404.993V178.939H381.745ZM403.928 140.535V144.4H413.891V182.804H418.239V140.535H403.928Z" fill="white"/>
<path d="M233.128 126.186C227.965 126.186 223.407 125.071 219.456 122.84C215.504 120.545 212.381 117.422 210.086 113.47C207.855 109.455 206.74 104.866 206.74 99.7028C206.74 94.4763 207.855 89.8871 210.086 85.9353C212.381 81.9198 215.504 78.7966 219.456 76.5657C223.407 74.2712 227.965 73.1239 233.128 73.1239C238.227 73.1239 242.752 74.2712 246.704 76.5657C250.656 78.7966 253.747 81.9198 255.978 85.9353C258.272 89.8871 259.42 94.4763 259.42 99.7028C259.42 104.866 258.304 109.455 256.073 113.47C253.843 117.422 250.751 120.545 246.799 122.84C242.848 125.071 238.29 126.186 233.128 126.186ZM233.128 117.581C236.442 117.581 239.374 116.817 241.923 115.287C244.473 113.757 246.449 111.654 247.851 108.977C249.317 106.3 250.05 103.208 250.05 99.7028C250.05 96.1972 249.317 93.1059 247.851 90.4289C246.449 87.6881 244.473 85.5529 241.923 84.0231C239.374 82.4934 236.442 81.7286 233.128 81.7286C229.813 81.7286 226.881 82.4934 224.332 84.0231C221.782 85.5529 219.774 87.6881 218.308 90.4289C216.842 93.1059 216.109 96.1972 216.109 99.7028C216.109 103.208 216.842 106.3 218.308 108.977C219.774 111.654 221.782 113.757 224.332 115.287C226.881 116.817 229.813 117.581 233.128 117.581Z" fill="#0FAAB4"/>
<circle cx="267.952" cy="18.8699" r="16.354" stroke="#0FAAB4" stroke-width="5.03198"/>
<circle cx="187.439" cy="41.5124" r="8.80597" stroke="#0FAAB4" stroke-width="5.03198"/>
<circle cx="266.694" cy="148.444" r="12.58" stroke="#0FAAB4" stroke-width="5.03198"/>
<circle cx="193.734" cy="171.088" r="20.1279" stroke="#0FAAB4" stroke-width="5.03198"/>
</svg>
