<svg width="368" height="164" viewBox="0 0 368 164" fill="none" xmlns="http://www.w3.org/2000/svg">
<path d="M45.1754 36.0675C48.9179 34.0335 51.0333 30.4536 51.0333 25.9788C51.0333 18.7378 44.9313 13.6934 32.5645 13.6934H8.64459V60.4756H33.8663C46.6398 60.4756 53.3928 55.6753 53.3928 47.6207C53.3928 41.8441 50.3011 37.9388 45.1754 36.0675ZM30.9373 22.7244C35.6562 22.7244 38.1784 24.433 38.1784 27.6874C38.1784 30.8604 35.6562 32.569 30.9373 32.569H21.3368V22.7244H30.9373ZM32.9713 51.4446H21.3368V41.1932H32.9713C37.8529 41.1932 40.4565 42.8204 40.4565 46.3189C40.4565 49.736 37.8529 51.4446 32.9713 51.4446ZM98.4829 60.4756H111.175L90.1028 13.6934H77.4106L56.4196 60.4756H68.8677L72.773 51.2005H94.6589L98.4829 60.4756ZM76.6783 41.9254L83.7567 25.0025L90.7536 41.9254H76.6783ZM123.877 60.4756H136.732V23.7007H151.458V13.6934H109.151V23.7007H123.877V60.4756ZM168.876 60.4756H181.731V23.7007H196.457V13.6934H154.15V23.7007H168.876V60.4756ZM216.986 50.631V41.4373H238.302V32.0808H216.986V23.538H241.069V13.6934H204.294V60.4756H241.964V50.631H216.986ZM282.003 60.4756H295.834L285.42 45.7494C291.441 42.9831 294.939 37.8574 294.939 30.9418C294.939 20.1209 286.722 13.6934 273.867 13.6934H252.551V60.4756H265.406V47.9461H273.298L282.003 60.4756ZM282.003 30.9418C282.003 35.498 278.993 38.1829 272.972 38.1829H265.406V23.7007H272.972C278.993 23.7007 282.003 26.3043 282.003 30.9418ZM16.7245 94.7502C23.1774 94.7502 26.7471 91.7297 26.7471 87.4278C26.7471 77.9544 10.7751 82.2563 10.7751 75.483C10.7751 73.0575 12.743 71.1354 17.3195 71.1354C19.745 71.1354 22.3536 71.6845 24.5504 73.2406L25.7403 70.5862C23.5893 69.0759 20.4315 68.2979 17.411 68.2979C11.0039 68.2979 7.52572 71.4099 7.52572 75.6203C7.52572 85.3226 23.452 80.8833 23.452 87.7023C23.452 90.0364 21.5756 91.9585 16.8161 91.9585C13.3379 91.9585 10.0428 90.6771 8.12067 88.938L6.74772 91.5009C8.80715 93.423 12.743 94.7502 16.7245 94.7502ZM45.8512 94.7502C52.6702 94.7502 56.7891 90.7686 56.7891 83.4919V68.6183H53.5855V83.4004C53.5855 89.0753 50.7938 91.9127 45.8512 91.9127C40.9085 91.9127 38.1626 89.0295 38.1626 83.4004V68.6183H34.8675V83.4919C34.8675 90.7686 38.9864 94.7502 45.8512 94.7502ZM74.8552 94.7502C81.3081 94.7502 84.8778 91.7297 84.8778 87.4278C84.8778 77.9544 68.9057 82.2563 68.9057 75.483C68.9057 73.0575 70.8736 71.1354 75.4501 71.1354C77.8757 71.1354 80.4843 71.6845 82.681 73.2406L83.8709 70.5862C81.72 69.0759 78.5622 68.2979 75.5417 68.2979C69.1346 68.2979 65.6564 71.4099 65.6564 75.6203C65.6564 85.3226 81.5827 80.8833 81.5827 87.7023C81.5827 90.0364 79.7063 91.9585 74.9467 91.9585C71.4686 91.9585 68.1735 90.6771 66.2514 88.938L64.8784 91.5009C66.9378 93.423 70.8736 94.7502 74.8552 94.7502ZM97.3109 94.4756H100.606V71.3642H109.713V68.6183H88.2036V71.3642H97.3109V94.4756ZM133.803 94.4756H137.098L125.154 68.6183H121.904L109.96 94.4756H113.255L116.275 87.7939H130.783L133.803 94.4756ZM117.465 85.1395L123.552 71.7303L129.593 85.1395H117.465ZM143.627 94.4756H146.922V68.6183H143.627V94.4756ZM177.137 68.6183V88.8007L160.891 68.6183H158.145V94.4756H161.44V74.2932L177.687 94.4756H180.433V68.6183H177.137ZM210.787 94.4756H214.082L202.137 68.6183H198.888L186.943 94.4756H190.238L193.259 87.7939H207.766L210.787 94.4756ZM194.449 85.1395L200.536 71.7303L206.577 85.1395H194.449ZM237.635 81.1122C240.015 80.1053 241.48 78.1374 241.48 75.2542C241.48 71.0896 238.093 68.6183 232.144 68.6183H220.611V94.4756H232.876C239.512 94.4756 242.898 91.9585 242.898 87.5193C242.898 84.0869 241.022 81.8902 237.635 81.1122ZM231.869 71.1811C235.896 71.1811 238.23 72.6914 238.23 75.6203C238.23 78.5493 235.896 80.1053 231.869 80.1053H223.906V71.1811H231.869ZM232.739 91.9127H223.906V82.6682H232.739C237.178 82.6682 239.558 84.0411 239.558 87.2905C239.558 90.4483 237.178 91.9127 232.739 91.9127ZM251.397 94.4756H254.692V68.6183H251.397V94.4756ZM265.915 94.4756H283.626V91.7297H269.21V68.6183H265.915V94.4756ZM290.399 94.4756H293.694V68.6183H290.399V94.4756ZM309.402 94.4756H312.697V71.3642H321.804V68.6183H300.295V71.3642H309.402V94.4756ZM348.378 68.6183H344.992L336.113 82.897L327.235 68.6183H323.711L334.42 85.9633V94.4756H337.669V86.0548L348.378 68.6183ZM19.6566 139.964C28.5045 139.964 33.7522 135.875 33.7522 129.59C33.7522 116.837 12.7613 122.268 12.7613 114.274C12.7613 111.528 15.08 109.332 20.6329 109.332C23.867 109.332 27.3451 110.003 30.3351 112.078L32.4708 107.318C29.4198 105.243 24.9653 104.328 20.8159 104.328C12.1511 104.328 6.84232 108.477 6.84232 114.64C6.84232 127.699 27.8333 122.085 27.8333 130.139C27.8333 132.763 25.6976 134.96 19.9006 134.96C15.3241 134.96 10.8697 133.374 8.18476 131.177L5.86599 135.814C8.73394 138.316 14.2868 139.964 19.6566 139.964ZM81.4853 139.964C91.0044 139.964 96.6793 134.35 96.6793 124.648V104.816H90.8824V124.526C90.8824 131.36 87.5263 134.838 81.5463 134.838C75.5053 134.838 72.2102 131.299 72.2102 124.526V104.816H66.2913V124.648C66.2913 134.35 71.9661 139.964 81.4853 139.964ZM170.922 139.476L170.861 104.816H165.735L151.945 128.126L137.91 104.816H132.845V139.476H138.52V115.983L150.48 135.326H153.226L165.186 115.434L165.247 139.476H170.922ZM245.571 139.476L245.51 104.816H240.385L226.594 128.126L212.56 104.816H207.495V139.476H213.17V115.983L225.13 135.326H227.876L239.836 115.434L239.897 139.476H245.571ZM282.145 139.476H288.063V104.816H282.145V139.476ZM330.719 139.476H336.638V109.698H348.476V104.816H318.881V109.698H330.719V139.476ZM285.08 158.448L289.992 153.811C292.982 151.034 293.562 149.143 293.562 147.068C293.562 143.193 290.389 140.752 285.629 140.752C281.785 140.752 278.795 142.308 277.148 144.719L280.748 147.037C281.785 145.603 283.341 144.902 285.172 144.902C287.429 144.902 288.589 145.878 288.589 147.556C288.589 148.593 288.253 149.692 286.362 151.492L278.124 159.272V162.476H294.264V158.448H285.08ZM306.464 162.842C311.743 162.842 315.617 158.845 315.617 151.797C315.617 144.749 311.743 140.752 306.464 140.752C301.217 140.752 297.311 144.749 297.311 151.797C297.311 158.845 301.217 162.842 306.464 162.842ZM306.464 158.662C304.024 158.662 302.315 156.648 302.315 151.797C302.315 146.946 304.024 144.932 306.464 144.932C308.936 144.932 310.644 146.946 310.644 151.797C310.644 156.648 308.936 158.662 306.464 158.662ZM325.681 158.448L330.593 153.811C333.583 151.034 334.163 149.143 334.163 147.068C334.163 143.193 330.99 140.752 326.23 140.752C322.386 140.752 319.396 142.308 317.749 144.719L321.349 147.037C322.386 145.603 323.942 144.902 325.773 144.902C328.03 144.902 329.19 145.878 329.19 147.556C329.19 148.593 328.854 149.692 326.963 151.492L318.725 159.272V162.476H334.865V158.448H325.681ZM336.996 141.119V145.085H341.267V162.476H346.21V141.119H336.996Z" fill="white"/>
<line x1="262.285" y1="151.755" x2="8.03429" y2="151.755" stroke="white" stroke-width="2.54251"/>
<path fill-rule="evenodd" clip-rule="evenodd" d="M344.142 9.93826L342.374 10.6451L339.124 11.9454C337.075 12.765 335.214 13.9922 333.653 15.5526C331.864 17.3414 330.517 19.522 329.717 21.9219L329.426 22.7929C328.74 24.8509 328.391 27.0061 328.391 29.1755V32.1106L329.96 28.9711C331.102 26.688 332.604 24.6038 334.409 22.7989C335.204 22.0042 336.054 21.267 336.953 20.5927L337.052 20.5184C339.541 18.6513 342.352 17.2558 345.344 16.4009L346.787 15.9887C348.771 15.4216 350.697 14.6658 352.538 13.7316L358.234 10.8414C358.547 10.6825 358.929 10.8075 359.088 11.1205C359.247 11.4336 359.122 11.8161 358.809 11.975L353.113 14.8653C351.2 15.8361 349.199 16.6216 347.136 17.211L345.693 17.6233C342.85 18.4355 340.18 19.7614 337.815 21.5354L337.716 21.6097C336.865 22.2479 336.06 22.9457 335.308 23.6978C333.6 25.4061 332.178 27.3787 331.097 29.5396L328.58 34.575L328.391 34.4805V34.7989L328.992 34.4984C331.94 33.024 335.192 32.2564 338.489 32.2564C340.225 32.2564 341.955 32.0435 343.639 31.6224L346.188 30.9852L349.831 29.5281C351.637 28.8056 353.382 27.9399 355.051 26.939L357.411 25.5226C358.4 24.929 359.313 24.2164 360.129 23.4006C361.825 21.705 363.06 19.6052 363.719 17.2994L367.8 3.01758C363.614 5.52897 358.924 7.08322 354.067 7.56892L353.649 7.61078C350.386 7.93704 347.186 8.72053 344.142 9.93826Z" fill="#26BD00"/>
<path d="M299.156 11.917H313.14L324.581 32.2571L330.938 36.0708V43.6983V58.9534H318.225V43.6983L299.156 11.917Z" fill="white"/>
</svg>
