<svg width="291" height="291" fill="none" xmlns="http://www.w3.org/2000/svg"><path clip-rule="evenodd" d="M4.996 42.666c0-5.522 4.477-10 10-10h77.526c5.523 0 10 4.478 10 10v77.435c0 5.523-4.477 10-10 10H14.996c-5.523 0-10-4.477-10-10V42.667Z" stroke="#000" stroke-opacity=".87" stroke-width="8.729"/><path d="M70.914 74.435H57.572V61.4h-9.891v13.035H34.416v9.355H47.68v13.034h9.891V83.79h13.342v-9.355Z" fill="#000" fill-opacity=".87"/><path clip-rule="evenodd" d="M4.996 169.486c0-5.523 4.477-10 10-10h77.526c5.523 0 10 4.477 10 10v77.436c0 5.522-4.477 10-10 10H14.996c-5.523 0-10-4.478-10-10v-77.436Z" stroke="#000" stroke-opacity=".87" stroke-width="8.729"/><path d="M42.282 209.797h21.7v-9.585h-21.7v9.585ZM150.838 89.915c4.26 0 7.786-1.537 10.091-4.365l-3.632-3.352c-1.641 1.92-3.701 2.898-6.145 2.898-4.574 0-7.821-3.212-7.821-7.82 0-4.61 3.247-7.822 7.821-7.822 2.444 0 4.504.978 6.145 2.863l3.632-3.352c-2.305-2.793-5.831-4.33-10.056-4.33-7.612 0-13.269 5.273-13.269 12.64 0 7.367 5.657 12.64 13.234 12.64Zm20.967-19.484c-3.003 0-6.041.804-8.101 2.27l1.956 3.806c1.361-1.083 3.421-1.746 5.412-1.746 2.933 0 4.329 1.362 4.329 3.701h-4.329c-5.727 0-8.066 2.305-8.066 5.622 0 3.247 2.619 5.691 7.018 5.691 2.758 0 4.714-.908 5.726-2.619v2.34h5.098v-10.72c0-5.69-3.317-8.344-9.043-8.344Zm-.419 15.678c-1.921 0-3.073-.908-3.073-2.27 0-1.257.803-2.2 3.352-2.2h3.736v1.921c-.628 1.711-2.2 2.549-4.015 2.549Zm25.041-1.362c-.593.454-1.396.698-2.199.698-1.467 0-2.34-.872-2.34-2.478V75.32h4.679v-4.19h-4.679v-4.574h-5.447v4.574h-2.898v4.19h2.898v7.716c0 4.47 2.584 6.74 7.019 6.74 1.675 0 3.317-.385 4.434-1.188l-1.467-3.84Zm15.942-14.316c-2.409 0-4.504.769-5.971 2.235v-9.078h-5.446v25.908h5.446v-9.288c0-3.457 1.886-5.063 4.505-5.063 2.409 0 3.806 1.397 3.806 4.435v9.916h5.447V78.742c0-5.727-3.352-8.31-7.787-8.31Zm21.867 19.344c5.971 0 10.3-4.015 10.3-9.672 0-5.656-4.329-9.671-10.3-9.671-5.971 0-10.335 4.015-10.335 9.671 0 5.657 4.364 9.672 10.335 9.672Zm0-4.47c-2.723 0-4.818-1.954-4.818-5.202 0-3.247 2.095-5.202 4.818-5.202 2.724 0 4.784 1.955 4.784 5.202 0 3.248-2.06 5.203-4.784 5.203Zm27.629-21.717V72.7c-1.362-1.536-3.318-2.27-5.622-2.27-5.307 0-9.393 3.772-9.393 9.672 0 5.901 4.086 9.672 9.393 9.672 2.514 0 4.504-.803 5.866-2.444v2.165h5.202V63.588h-5.446Zm-4.679 21.718c-2.724 0-4.819-1.955-4.819-5.203 0-3.247 2.095-5.202 4.819-5.202 2.688 0 4.783 1.955 4.783 5.202 0 3.248-2.095 5.203-4.783 5.203Zm33.568-5.133c0-6.04-4.26-9.742-9.777-9.742-5.726 0-10.021 4.05-10.021 9.672 0 5.587 4.225 9.672 10.719 9.672 3.387 0 6.006-1.047 7.752-3.038l-2.898-3.142c-1.292 1.222-2.724 1.816-4.714 1.816-2.863 0-4.853-1.432-5.377-3.771h14.211c.035-.454.105-1.048.105-1.467Zm-9.742-5.621c2.444 0 4.225 1.536 4.609 3.91h-9.253c.384-2.409 2.165-3.91 4.644-3.91ZM159.403 218.856h5.935l-10.928-24.441h-5.587l-10.894 24.441h5.796l2.165-5.237h11.348l2.165 5.237Zm-11.697-9.532 3.875-9.357 3.876 9.357h-7.751Zm31.202-9.532c-2.549 0-4.749.873-6.215 2.479v-2.2h-5.203v18.785h5.447v-9.287c0-3.457 1.886-5.063 4.504-5.063 2.41 0 3.806 1.396 3.806 4.434v9.916h5.447v-10.754c0-5.726-3.352-8.31-7.786-8.31Zm21.867 19.344c5.971 0 10.3-4.016 10.3-9.672 0-5.657-4.329-9.672-10.3-9.672-5.971 0-10.335 4.015-10.335 9.672 0 5.656 4.364 9.672 10.335 9.672Zm0-4.47c-2.724 0-4.819-1.955-4.819-5.202s2.095-5.203 4.819-5.203c2.723 0 4.783 1.956 4.783 5.203 0 3.247-2.06 5.202-4.783 5.202Zm27.628-21.718v9.114c-1.362-1.537-3.317-2.27-5.621-2.27-5.308 0-9.393 3.771-9.393 9.672 0 5.901 4.085 9.672 9.393 9.672 2.514 0 4.504-.803 5.866-2.444v2.164h5.202v-25.908h-5.447Zm-4.679 21.718c-2.723 0-4.818-1.955-4.818-5.202s2.095-5.203 4.818-5.203c2.689 0 4.784 1.956 4.784 5.203 0 3.247-2.095 5.202-4.784 5.202Zm33.568-5.132c0-6.041-4.259-9.742-9.776-9.742-5.726 0-10.021 4.05-10.021 9.672 0 5.587 4.225 9.672 10.719 9.672 3.387 0 6.006-1.048 7.752-3.038l-2.898-3.142c-1.292 1.222-2.724 1.815-4.714 1.815-2.863 0-4.854-1.431-5.377-3.771h14.211c.035-.454.104-1.047.104-1.466Zm-9.741-5.622c2.444 0 4.225 1.537 4.609 3.911h-9.253c.384-2.409 2.165-3.911 4.644-3.911Z" fill="#000" fill-opacity=".87"/></svg>