<svg width="1153" height="1105" viewBox="0 0 1153 1105" fill="none" xmlns="http://www.w3.org/2000/svg">
  <g opacity="0.2">
    <mask id="mask0_2_5814" style="mask-type:alpha" maskUnits="userSpaceOnUse" x="-14" y="35" width="1167" height="1016">
      <rect x="-14" y="35" width="1166.19" height="1016" fill="#D9D9D9"/>
    </mask>
    <g mask="url(#mask0_2_5814)">
      <path opacity="0.4" d="M761.972 384.661L645.396 384.661L587.107 485.619L645.395 586.577L761.972 586.577L820.26 485.619L761.972 384.661Z" fill="#FEDE80"/>
      <path opacity="0.6" d="M292.196 586.546L408.772 586.546L467.061 485.588L408.772 384.63L292.196 384.63L233.908 485.588L292.196 586.546Z" fill="#FEDE80"/>
      <path opacity="0.4" d="M822.153 280.884L938.729 280.884L997.018 179.926L938.729 78.9679L822.153 78.9679L763.865 179.926L822.153 280.884Z" fill="#FEDE80"/>
      <path opacity="0.4" d="M-118.992 281.908L-60.7041 382.866L55.8721 382.866L114.16 281.908L55.8721 180.95L-60.7041 180.95L-118.992 281.908Z" fill="#FEDE80"/>
      <path opacity="0.2" d="M57.4668 587.545L115.755 688.503L232.331 688.503L290.619 587.545L232.331 486.587L115.755 486.587L57.4668 587.545Z" fill="#FEDE80"/>
      <path opacity="0.4" d="M409.177 180.983L292.601 180.983L234.312 281.941L292.601 382.899L409.177 382.899L467.465 281.941L409.177 180.983Z" fill="#FEDE80"/>
      <path opacity="0.5" d="M761.577 -23.0752L645.001 -23.0752L586.713 77.8827L645.001 178.841L761.577 178.841L819.865 77.8827L761.577 -23.0752Z" fill="#FDD24C"/>
      <path opacity="0.5" d="M288.065 588.737L171.489 588.737L113.201 689.695L171.489 790.653L288.065 790.653L346.354 689.695L288.065 588.737Z" fill="#FDD24C"/>
      <path opacity="0.2" d="M116.255 484.968L232.831 484.968L291.119 384.01L232.831 283.052L116.255 283.052L57.9667 384.01L116.255 484.968Z" fill="#FDD24C"/>
      <path opacity="0.5" d="M292.714 790.605L409.29 790.604L467.578 689.647L409.29 588.689L292.714 588.689L234.426 689.647L292.714 790.605Z" fill="#FDD24C"/>
      <path opacity="0.2" d="M585.812 486.837L469.235 486.837L410.947 587.795L469.235 688.753L585.812 688.753L644.1 587.795L585.812 486.837Z" fill="#FDD24C"/>
      <path opacity="0.5" d="M585.784 79.3134L469.208 79.3134L410.92 180.271L469.208 281.229L585.784 281.229L644.072 180.271L585.784 79.3134Z" fill="#FDC723"/>
      <path opacity="0.9" d="M112.274 691.126L-4.30176 691.126L-62.5899 792.084L-4.30177 893.042L112.274 893.042L170.563 792.084L112.274 691.126Z" fill="#FDC723"/>
      <path opacity="0.5" d="M57.5742 179.799L115.862 280.757L232.439 280.757L290.727 179.799L232.439 78.8409L115.862 78.8409L57.5742 179.799Z" fill="#FDC723"/>
      <path opacity="0.5" d="M-119.646 485.92L-61.3584 586.878L55.2178 586.878L113.506 485.92L55.2178 384.962L-61.3584 384.962L-119.646 485.92Z" fill="#FDC723"/>
      <path opacity="0.2" d="M586.75 281.912L645.038 382.87L761.614 382.87L819.902 281.912L761.614 180.954L645.038 180.954L586.75 281.912Z" fill="#FDC723"/>
      <path opacity="0.5" d="M113.24 893.725L171.528 994.683L288.105 994.683L346.393 893.725L288.105 792.767L171.528 792.767L113.24 893.725Z" fill="#FDC723"/>
      <path opacity="0.9" d="M585.116 282.563L468.54 282.563L410.252 383.521L468.54 484.479L585.116 484.479L643.404 383.521L585.116 282.563Z" fill="#FDC723"/>
      <path opacity="0.4" d="M207.094 286.066L281.565 244.163L355.09 287.706L354.142 373.152L279.671 415.054L206.147 371.511L207.094 286.066Z" fill="#FEDE80"/>
      <path opacity="0.2" d="M587.566 185.117L544.023 258.642L458.578 257.694L416.676 183.223L460.219 109.699L545.664 110.646L587.566 185.117Z" fill="#FEDE80"/>
      <path opacity="0.4" d="M87.5527 80.6714L44.8274 154.674L-40.6233 154.674L-83.3486 80.6714L-40.6233 6.66892L44.8274 6.66892L87.5527 80.6714Z" fill="#FEDE80"/>
      <path opacity="0.4" d="M733.012 -96.2349L732.018 -10.8134L657.495 31.1179L583.966 -12.3723L584.961 -97.7938L659.484 -139.725L733.012 -96.2349Z" fill="#FEDE80"/>
      <path opacity="0.1" d="M730.014 162.472L729.068 247.867L654.64 289.744L581.16 246.227L582.106 160.832L656.534 118.955L730.014 162.472Z" fill="#FEDE80"/>
      <path opacity="0.4" d="M256.504 774.285L255.558 859.679L181.131 901.557L107.65 858.039L108.597 772.645L183.024 730.767L256.504 774.285Z" fill="#FEDE80"/>
      <path opacity="0.4" d="M359.256 29.1437L433.727 -12.7587L507.252 30.7843L506.305 116.23L431.833 158.132L358.309 114.589L359.256 29.1437Z" fill="#FEDE80"/>
      <path opacity="0.9" d="M27.7597 253.451L71.3028 179.927L156.748 180.874L198.651 255.345L155.108 328.87L69.6621 327.923L27.7597 253.451Z" fill="#FDD24C"/>
      <path opacity="0.5" d="M589.217 36.2111L545.674 109.735L460.228 108.788L418.326 34.3166L461.869 -39.2077L547.314 -38.2605L589.217 36.2111Z" fill="#FDD24C"/>
      <path opacity="0.5" d="M846.447 575.668L802.904 649.192L717.459 648.245L675.556 573.774L719.099 500.249L804.545 501.197L846.447 575.668Z" fill="#FDD24C"/>
      <path opacity="0.1" d="M716.07 261.664L672.527 335.188L587.082 334.241L545.179 259.77L588.723 186.245L674.168 187.193L716.07 261.664Z" fill="#FDD24C"/>
      <path opacity="0.5" d="M356.354 288.019L430.825 246.116L504.349 289.659L503.402 375.105L428.931 417.007L355.406 373.464L356.354 288.019Z" fill="#FDD24C"/>
      <path opacity="0.5" d="M527.582 784.533L571.125 711.009L656.57 711.956L698.473 786.428L654.93 859.952L569.484 859.005L527.582 784.533Z" fill="#FDD24C"/>
      <path opacity="0.5" d="M677.244 36.746L720.787 -36.7784L806.233 -35.8311L848.135 38.6404L804.592 112.165L719.146 111.217L677.244 36.746Z" fill="#FDD24C"/>
      <path opacity="0.9" d="M1026.58 352.356L1068.51 426.879L1024.93 500.454L939.429 499.506L897.498 424.984L941.071 351.408L1026.58 352.356Z" fill="#FDC723"/>
      <path opacity="0.3" d="M285.398 257.189L327.276 331.616L283.759 405.097L198.364 404.15L156.487 329.723L200.004 256.242L285.398 257.189Z" fill="#FDC723"/>
      <path opacity="0.8" d="M286.434 256.32L329.977 182.796L415.422 183.743L457.324 258.215L413.781 331.739L328.336 330.792L286.434 256.32Z" fill="#FDC723"/>
      <path opacity="0.9" d="M399.008 707.795L442.551 634.27L527.996 635.218L569.899 709.689L526.356 783.214L440.91 782.266L399.008 707.795Z" fill="#FDC723"/>
    </g>
  </g>
  <g opacity="0.82" clip-path="url(#clip0_2_5814)">
    <g style="mix-blend-mode:multiply">
      <path d="M154.646 1100.03C154.646 1100.39 154.356 1100.68 154.002 1100.68L2.15958 1100.68C1.80496 1100.68 1.51477 1100.39 1.51477 1100.03C1.51477 1099.68 1.80496 1099.39 2.15958 1099.39L154.002 1099.39C154.356 1099.39 154.646 1099.68 154.646 1100.03Z" fill="#FEEBB2"/>
    </g>
    <g style="mix-blend-mode:multiply">
      <path d="M154.646 1100.06C154.646 1100.42 154.356 1100.71 154.002 1100.71L2.15958 1100.71C1.80496 1100.71 1.51477 1100.42 1.51477 1100.06C1.51477 1099.71 1.80496 1099.42 2.15958 1099.42L154.002 1099.42C154.356 1099.42 154.646 1099.71 154.646 1100.06Z" fill="#FEEBB2"/>
    </g>
    <g style="mix-blend-mode:multiply">
      <path d="M230.568 968.515C230.568 968.515 230.568 968.74 230.472 968.837L154.55 1100.39C154.357 1100.71 153.97 1100.81 153.648 1100.65C153.325 1100.45 153.229 1100.06 153.422 1099.74L229.343 968.192C229.537 967.87 229.924 967.773 230.246 967.966C230.472 968.095 230.568 968.321 230.568 968.547L230.568 968.515Z" fill="#FEEBB2"/>
    </g>
    <g style="mix-blend-mode:multiply">
      <path d="M230.568 968.515C230.568 968.741 230.439 968.967 230.246 969.096C229.924 969.289 229.537 969.16 229.343 968.838L153.422 837.288C153.229 836.965 153.358 836.578 153.648 836.385C153.97 836.191 154.357 836.32 154.55 836.611L230.472 968.161C230.472 968.161 230.568 968.386 230.568 968.483L230.568 968.515Z" fill="#FEEBB2"/>
    </g>
    <g style="mix-blend-mode:multiply">
      <path d="M154.646 836.965C154.646 837.32 154.356 837.61 154.002 837.61L2.15958 837.61C1.80496 837.61 1.51477 837.32 1.51477 836.965C1.51477 836.611 1.80496 836.32 2.15958 836.32L154.002 836.32C154.356 836.32 154.646 836.611 154.646 836.965Z" fill="#FEEBB2"/>
    </g>
    <g style="mix-blend-mode:multiply">
      <path d="M154.646 836.999C154.646 837.353 154.356 837.644 154.002 837.644L2.15958 837.644C1.80496 837.644 1.51477 837.353 1.51477 836.999C1.51477 836.644 1.80496 836.354 2.15958 836.354L154.002 836.354C154.356 836.354 154.646 836.644 154.646 836.999Z" fill="#FEEBB2"/>
    </g>
    <g style="mix-blend-mode:multiply">
      <path d="M230.568 705.448C230.568 705.448 230.568 705.674 230.472 705.771L154.55 837.321C154.357 837.643 153.97 837.74 153.648 837.579C153.325 837.385 153.229 836.998 153.422 836.676L229.343 705.126C229.537 704.803 229.924 704.707 230.246 704.9C230.472 705.029 230.568 705.255 230.568 705.481L230.568 705.448Z" fill="#FEEBB2"/>
    </g>
    <g style="mix-blend-mode:multiply">
      <path d="M230.568 705.448C230.568 705.674 230.439 705.9 230.246 706.029C229.924 706.222 229.537 706.093 229.343 705.803L153.422 574.253C153.229 573.93 153.358 573.543 153.648 573.35C153.97 573.156 154.357 573.285 154.55 573.576L230.472 705.125C230.472 705.125 230.568 705.351 230.568 705.448Z" fill="#FEEBB2"/>
    </g>
    <g style="mix-blend-mode:multiply">
      <path d="M154.646 573.899C154.646 574.254 154.356 574.544 154.002 574.544L2.15958 574.544C1.80496 574.544 1.51477 574.254 1.51477 573.899C1.51477 573.544 1.80496 573.254 2.15958 573.254L154.002 573.254C154.356 573.254 154.646 573.544 154.646 573.899Z" fill="#FEEBB2"/>
    </g>
    <g style="mix-blend-mode:multiply">
      <path d="M154.646 573.93C154.646 574.285 154.356 574.575 154.002 574.575L2.15958 574.575C1.80496 574.575 1.51477 574.285 1.51477 573.93C1.51477 573.575 1.80496 573.285 2.15958 573.285L154.002 573.285C154.356 573.285 154.646 573.575 154.646 573.93Z" fill="#FEEBB2"/>
    </g>
    <g style="mix-blend-mode:multiply">
      <path d="M230.568 442.412C230.568 442.412 230.568 442.638 230.472 442.735L154.55 574.285C154.357 574.607 153.97 574.704 153.648 574.51C153.325 574.317 153.229 573.93 153.422 573.607L229.343 442.057C229.537 441.735 229.924 441.638 230.246 441.832C230.472 441.961 230.568 442.186 230.568 442.412Z" fill="#FEEBB2"/>
    </g>
    <g style="mix-blend-mode:multiply">
      <path d="M230.568 442.413C230.568 442.639 230.439 442.864 230.246 442.993C229.924 443.187 229.537 443.058 229.343 442.768L153.422 311.218C153.229 310.895 153.358 310.508 153.648 310.315C153.97 310.121 154.357 310.25 154.55 310.54L230.472 442.09C230.472 442.09 230.568 442.316 230.568 442.413Z" fill="#FEEBB2"/>
    </g>
    <g style="mix-blend-mode:multiply">
      <path d="M154.646 310.864C154.646 311.219 154.356 311.509 154.002 311.509L2.15958 311.509C1.80496 311.509 1.51477 311.219 1.51477 310.864C1.51477 310.509 1.80496 310.219 2.15958 310.219L154.002 310.219C154.356 310.219 154.646 310.509 154.646 310.864Z" fill="#FEEBB2"/>
    </g>
    <g style="mix-blend-mode:multiply">
      <path d="M230.568 968.516C230.568 968.516 230.568 968.741 230.472 968.838L154.55 1100.36C154.357 1100.68 153.97 1100.78 153.648 1100.58C153.325 1100.39 153.229 1100 153.422 1099.68L229.343 968.161C229.537 967.838 229.924 967.742 230.246 967.935C230.472 968.064 230.568 968.29 230.568 968.516Z" fill="#FEEBB2"/>
    </g>
    <g style="mix-blend-mode:multiply">
      <path d="M458.3 836.965C458.3 837.191 458.171 837.417 457.977 837.546C457.655 837.74 457.268 837.61 457.075 837.288L381.154 705.738C380.96 705.416 381.089 705.029 381.412 704.835C381.734 704.642 382.121 704.771 382.314 705.093L458.235 836.643C458.235 836.643 458.332 836.869 458.332 836.965L458.3 836.965Z" fill="#FEEBB2"/>
    </g>
    <g style="mix-blend-mode:multiply">
      <path d="M382.379 705.416C382.379 705.771 382.089 706.061 381.734 706.061L229.892 706.061C229.537 706.061 229.247 705.771 229.247 705.416C229.247 705.062 229.537 704.771 229.892 704.771L381.734 704.771C382.089 704.771 382.379 705.062 382.379 705.416Z" fill="#FEEBB2"/>
    </g>
    <g style="mix-blend-mode:multiply">
      <path d="M230.568 705.448C230.568 705.448 230.568 705.674 230.472 705.771L154.55 837.288C154.357 837.611 153.97 837.708 153.648 837.547C153.325 837.353 153.229 836.966 153.422 836.644L229.343 705.126C229.537 704.803 229.924 704.707 230.246 704.9C230.472 705.029 230.568 705.255 230.568 705.481L230.568 705.448Z" fill="#FEEBB2"/>
    </g>
    <g style="mix-blend-mode:multiply">
      <path d="M230.568 968.515C230.568 968.741 230.439 968.967 230.246 969.096C229.924 969.289 229.537 969.16 229.343 968.838L153.422 837.288C153.229 836.965 153.358 836.578 153.648 836.385C153.97 836.191 154.357 836.32 154.55 836.611L230.472 968.161C230.472 968.161 230.568 968.386 230.568 968.483L230.568 968.515Z" fill="#FEEBB2"/>
    </g>
    <g style="mix-blend-mode:multiply">
      <path d="M382.379 705.448C382.379 705.803 382.089 706.093 381.734 706.093L229.892 706.093C229.537 706.093 229.247 705.803 229.247 705.448C229.247 705.093 229.537 704.803 229.892 704.803L381.734 704.803C382.089 704.803 382.379 705.093 382.379 705.448Z" fill="#FEEBB2"/>
    </g>
    <g style="mix-blend-mode:multiply">
      <path d="M458.299 573.899C458.299 573.899 458.299 574.124 458.202 574.221L382.281 705.771C382.088 706.093 381.701 706.19 381.378 705.997C381.056 705.803 380.959 705.416 381.12 705.094L457.042 573.544C457.235 573.221 457.622 573.125 457.944 573.318C458.17 573.447 458.267 573.673 458.267 573.899L458.299 573.899Z" fill="#FEEBB2"/>
    </g>
    <g style="mix-blend-mode:multiply">
      <path d="M458.3 573.899C458.3 574.125 458.171 574.351 457.977 574.48C457.655 574.673 457.268 574.544 457.075 574.254L381.154 442.704C380.96 442.382 381.089 441.995 381.412 441.801C381.734 441.607 382.121 441.736 382.314 442.027L458.235 573.577C458.235 573.577 458.332 573.802 458.332 573.899L458.3 573.899Z" fill="#FEEBB2"/>
    </g>
    <g style="mix-blend-mode:multiply">
      <path d="M382.379 442.381C382.379 442.736 382.089 443.026 381.734 443.026L229.892 443.026C229.537 443.026 229.247 442.736 229.247 442.381C229.247 442.027 229.537 441.736 229.892 441.736L381.734 441.736C382.089 441.736 382.379 442.027 382.379 442.381Z" fill="#FEEBB2"/>
    </g>
    <g style="mix-blend-mode:multiply">
      <path d="M230.568 442.412C230.568 442.412 230.568 442.638 230.472 442.735L154.55 574.252C154.357 574.575 153.97 574.672 153.648 574.478C153.325 574.285 153.229 573.898 153.422 573.575L229.343 442.057C229.537 441.735 229.924 441.638 230.246 441.832C230.472 441.961 230.568 442.186 230.568 442.412Z" fill="#FEEBB2"/>
    </g>
    <g style="mix-blend-mode:multiply">
      <path d="M230.568 705.448C230.568 705.674 230.439 705.9 230.246 706.029C229.924 706.222 229.537 706.093 229.343 705.803L153.422 574.253C153.229 573.93 153.358 573.543 153.648 573.35C153.97 573.156 154.357 573.285 154.55 573.576L230.472 705.125C230.472 705.125 230.568 705.351 230.568 705.448Z" fill="#FEEBB2"/>
    </g>
    <g style="mix-blend-mode:multiply">
      <path d="M382.379 442.413C382.379 442.767 382.089 443.058 381.734 443.058L229.892 443.058C229.537 443.058 229.247 442.767 229.247 442.413C229.247 442.058 229.537 441.768 229.892 441.768L381.734 441.768C382.089 441.768 382.379 442.058 382.379 442.413Z" fill="#FEEBB2"/>
    </g>
    <g style="mix-blend-mode:multiply">
      <path d="M458.299 310.863C458.299 310.863 458.299 311.089 458.202 311.186L382.281 442.736C382.088 443.058 381.701 443.155 381.378 442.962C381.056 442.768 380.959 442.381 381.12 442.059L457.042 310.509C457.235 310.186 457.622 310.089 457.944 310.283C458.17 310.412 458.267 310.638 458.267 310.863L458.299 310.863Z" fill="#FEEBB2"/>
    </g>
    <g style="mix-blend-mode:multiply">
      <path d="M458.3 310.863C458.3 311.089 458.171 311.315 457.977 311.444C457.655 311.637 457.268 311.508 457.075 311.186L381.154 179.636C380.96 179.313 381.089 178.926 381.412 178.733C381.734 178.539 382.121 178.668 382.314 178.958L458.235 310.508C458.235 310.508 458.332 310.734 458.332 310.831L458.3 310.863Z" fill="#FEEBB2"/>
    </g>
    <g style="mix-blend-mode:multiply">
      <path d="M382.379 179.313C382.379 179.668 382.089 179.958 381.734 179.958L229.892 179.958C229.537 179.958 229.247 179.668 229.247 179.313C229.247 178.958 229.537 178.668 229.892 178.668L381.734 178.668C382.089 178.668 382.379 178.958 382.379 179.313Z" fill="#FEEBB2"/>
    </g>
    <g style="mix-blend-mode:multiply">
      <path d="M230.568 179.345C230.568 179.345 230.568 179.571 230.472 179.667L154.55 311.185C154.357 311.507 153.97 311.604 153.648 311.443C153.325 311.249 153.229 310.862 153.422 310.54L229.343 179.022C229.537 178.7 229.924 178.603 230.246 178.797C230.472 178.926 230.568 179.151 230.568 179.377L230.568 179.345Z" fill="#FEEBB2"/>
    </g>
    <g style="mix-blend-mode:multiply">
      <path d="M230.568 442.413C230.568 442.639 230.439 442.864 230.246 442.993C229.924 443.187 229.537 443.058 229.343 442.768L153.422 311.218C153.229 310.895 153.358 310.508 153.648 310.315C153.97 310.121 154.357 310.25 154.55 310.54L230.472 442.09C230.472 442.09 230.568 442.316 230.568 442.413Z" fill="#FEEBB2"/>
    </g>
    <g style="mix-blend-mode:multiply">
      <path d="M686.062 705.448C686.062 705.674 685.934 705.9 685.74 706.029C685.418 706.222 685.031 706.093 684.837 705.803L608.916 574.253C608.723 573.93 608.852 573.543 609.142 573.35C609.464 573.156 609.851 573.285 610.045 573.576L685.966 705.125C685.966 705.125 686.062 705.351 686.062 705.448Z" fill="#FEEBB2"/>
    </g>
    <g style="mix-blend-mode:multiply">
      <path d="M610.141 573.899C610.141 574.254 609.85 574.544 609.496 574.544L457.654 574.544C457.299 574.544 457.009 574.254 457.009 573.899C457.009 573.544 457.299 573.254 457.654 573.254L609.496 573.254C609.85 573.254 610.141 573.544 610.141 573.899Z" fill="#FEEBB2"/>
    </g>
    <g style="mix-blend-mode:multiply">
      <path d="M458.299 573.93C458.299 573.93 458.299 574.155 458.202 574.252L382.281 705.77C382.088 706.092 381.701 706.189 381.378 705.996C381.056 705.802 380.959 705.415 381.12 705.093L457.042 573.575C457.235 573.252 457.622 573.156 457.944 573.317C458.17 573.446 458.267 573.672 458.267 573.897L458.299 573.93Z" fill="#FEEBB2"/>
    </g>
    <g style="mix-blend-mode:multiply">
      <path d="M458.3 836.998C458.3 837.224 458.171 837.449 457.977 837.578C457.655 837.772 457.268 837.643 457.075 837.32L381.154 705.77C380.96 705.448 381.089 705.061 381.412 704.867C381.734 704.674 382.121 704.803 382.314 705.093L458.235 836.643C458.235 836.643 458.332 836.869 458.332 836.966L458.3 836.998Z" fill="#FEEBB2"/>
    </g>
    <g style="mix-blend-mode:multiply">
      <path d="M610.141 573.93C610.141 574.285 609.85 574.575 609.496 574.575L457.654 574.575C457.299 574.575 457.009 574.285 457.009 573.93C457.009 573.575 457.299 573.285 457.654 573.285L609.496 573.285C609.85 573.285 610.141 573.575 610.141 573.93Z" fill="#FEEBB2"/>
    </g>
    <g style="mix-blend-mode:multiply">
      <path d="M686.062 442.412C686.062 442.412 686.063 442.638 685.966 442.735L610.045 574.285C609.851 574.607 609.464 574.704 609.142 574.51C608.82 574.317 608.723 573.93 608.916 573.607L684.837 442.057C685.031 441.735 685.418 441.638 685.74 441.832C685.966 441.961 686.062 442.186 686.062 442.412Z" fill="#FEEBB2"/>
    </g>
    <g style="mix-blend-mode:multiply">
      <path d="M686.062 442.413C686.062 442.639 685.934 442.864 685.74 442.993C685.418 443.187 685.031 443.058 684.837 442.768L608.916 311.218C608.723 310.895 608.852 310.508 609.142 310.315C609.464 310.121 609.851 310.25 610.045 310.54L685.966 442.09C685.966 442.09 686.062 442.316 686.062 442.413Z" fill="#FEEBB2"/>
    </g>
    <g style="mix-blend-mode:multiply">
      <path d="M610.141 310.864C610.141 311.219 609.85 311.509 609.496 311.509L457.654 311.509C457.299 311.509 457.009 311.219 457.009 310.864C457.009 310.509 457.299 310.219 457.654 310.219L609.496 310.219C609.85 310.219 610.141 310.509 610.141 310.864Z" fill="#FEEBB2"/>
    </g>
    <g style="mix-blend-mode:multiply">
      <path d="M458.299 310.895C458.299 310.895 458.299 311.12 458.202 311.217L382.281 442.735C382.088 443.057 381.701 443.154 381.378 442.961C381.056 442.767 380.959 442.38 381.12 442.058L457.042 310.54C457.235 310.217 457.622 310.121 457.944 310.314C458.17 310.443 458.267 310.669 458.267 310.895L458.299 310.895Z" fill="#FEEBB2"/>
    </g>
    <g style="mix-blend-mode:multiply">
      <path d="M458.3 573.93C458.3 574.156 458.171 574.382 457.977 574.511C457.655 574.704 457.268 574.575 457.075 574.285L381.154 442.735C380.96 442.413 381.089 442.026 381.412 441.832C381.734 441.639 382.121 441.768 382.314 442.058L458.235 573.608C458.235 573.608 458.332 573.834 458.332 573.93L458.3 573.93Z" fill="#FEEBB2"/>
    </g>
    <g style="mix-blend-mode:multiply">
      <path d="M837.873 705.416C837.873 705.771 837.583 706.061 837.228 706.061L685.386 706.061C685.031 706.061 684.741 705.771 684.741 705.416C684.741 705.062 685.031 704.771 685.386 704.771L837.228 704.771C837.583 704.771 837.873 705.062 837.873 705.416Z" fill="#FEEBB2"/>
    </g>
    <g style="mix-blend-mode:multiply">
      <path d="M837.873 705.448C837.873 705.803 837.583 706.093 837.228 706.093L685.386 706.093C685.031 706.093 684.741 705.803 684.741 705.448C684.741 705.093 685.031 704.803 685.386 704.803L837.228 704.803C837.583 704.803 837.873 705.093 837.873 705.448Z" fill="#FEEBB2"/>
    </g>
    <g style="mix-blend-mode:multiply">
      <path d="M913.793 573.899C913.793 573.899 913.793 574.124 913.696 574.221L837.775 705.771C837.582 706.093 837.195 706.19 836.872 705.997C836.55 705.803 836.453 705.416 836.647 705.094L912.568 573.544C912.761 573.221 913.148 573.125 913.471 573.318C913.696 573.447 913.793 573.673 913.793 573.899Z" fill="#FEEBB2"/>
    </g>
    <g style="mix-blend-mode:multiply">
      <path d="M913.793 573.899C913.793 574.125 913.664 574.351 913.471 574.48C913.148 574.673 912.761 574.544 912.568 574.254L836.647 442.704C836.453 442.382 836.582 441.995 836.872 441.801C837.195 441.607 837.582 441.736 837.775 442.027L913.696 573.577C913.696 573.577 913.793 573.802 913.793 573.899Z" fill="#FEEBB2"/>
    </g>
    <g style="mix-blend-mode:multiply">
      <path d="M837.873 442.381C837.873 442.736 837.583 443.026 837.228 443.026L685.386 443.026C685.031 443.026 684.741 442.736 684.741 442.381C684.741 442.027 685.031 441.736 685.386 441.736L837.228 441.736C837.583 441.736 837.873 442.027 837.873 442.381Z" fill="#FEEBB2"/>
    </g>
    <g style="mix-blend-mode:multiply">
      <path d="M686.062 442.412C686.062 442.412 686.063 442.638 685.966 442.735L610.045 574.252C609.851 574.575 609.464 574.672 609.142 574.478C608.82 574.285 608.723 573.898 608.916 573.575L684.837 442.057C685.031 441.735 685.418 441.638 685.74 441.832C685.966 441.961 686.062 442.186 686.062 442.412Z" fill="#FEEBB2"/>
    </g>
    <g style="mix-blend-mode:multiply">
      <path d="M686.062 705.448C686.062 705.674 685.934 705.9 685.74 706.029C685.418 706.222 685.031 706.093 684.837 705.803L608.916 574.253C608.723 573.93 608.852 573.543 609.142 573.35C609.464 573.156 609.851 573.285 610.045 573.576L685.966 705.125C685.966 705.125 686.062 705.351 686.062 705.448Z" fill="#FEEBB2"/>
    </g>
    <g style="mix-blend-mode:multiply">
      <path d="M837.873 442.413C837.873 442.767 837.583 443.058 837.228 443.058L685.386 443.058C685.031 443.058 684.741 442.767 684.741 442.413C684.741 442.058 685.031 441.768 685.386 441.768L837.228 441.768C837.583 441.768 837.873 442.058 837.873 442.413Z" fill="#FEEBB2"/>
    </g>
    <g style="mix-blend-mode:multiply">
      <path d="M913.793 310.863C913.793 310.863 913.793 311.089 913.696 311.186L837.775 442.736C837.582 443.058 837.195 443.155 836.872 442.962C836.55 442.768 836.453 442.381 836.647 442.059L912.568 310.509C912.761 310.186 913.148 310.089 913.471 310.283C913.696 310.412 913.793 310.638 913.793 310.863Z" fill="#FEEBB2"/>
    </g>
    <g style="mix-blend-mode:multiply">
      <path d="M913.793 310.863C913.793 311.089 913.664 311.315 913.471 311.444C913.148 311.637 912.761 311.508 912.568 311.186L836.647 179.636C836.453 179.313 836.582 178.926 836.872 178.733C837.195 178.539 837.582 178.668 837.775 178.958L913.696 310.508C913.696 310.508 913.793 310.734 913.793 310.831L913.793 310.863Z" fill="#FEEBB2"/>
    </g>
    <g style="mix-blend-mode:multiply">
      <path d="M837.873 179.313C837.873 179.668 837.583 179.958 837.228 179.958L685.386 179.958C685.031 179.958 684.741 179.668 684.741 179.313C684.741 178.958 685.031 178.668 685.386 178.668L837.228 178.668C837.583 178.668 837.873 178.958 837.873 179.313Z" fill="#FEEBB2"/>
    </g>
    <g style="mix-blend-mode:multiply">
      <path d="M686.062 179.345C686.062 179.345 686.063 179.571 685.966 179.667L610.045 311.185C609.851 311.507 609.464 311.604 609.142 311.443C608.82 311.249 608.723 310.862 608.916 310.54L684.837 179.022C685.031 178.7 685.418 178.603 685.74 178.797C685.966 178.926 686.062 179.151 686.062 179.377L686.062 179.345Z" fill="#FEEBB2"/>
    </g>
    <g style="mix-blend-mode:multiply">
      <path d="M686.062 442.413C686.062 442.639 685.934 442.864 685.74 442.993C685.418 443.187 685.031 443.058 684.837 442.768L608.916 311.218C608.723 310.895 608.852 310.508 609.142 310.315C609.464 310.121 609.851 310.25 610.045 310.54L685.966 442.09C685.966 442.09 686.062 442.316 686.062 442.413Z" fill="#FEEBB2"/>
    </g>
    <g style="mix-blend-mode:multiply">
      <path d="M1050 573.254L913.149 573.254C912.794 573.254 912.504 573.544 912.504 573.931C912.504 574.318 912.794 574.576 913.149 574.576L1050 574.576L1050 573.254Z" fill="#FEEBB2"/>
    </g>
    <g style="mix-blend-mode:multiply">
      <path d="M913.793 573.93C913.793 573.93 913.793 574.155 913.696 574.252L837.775 705.77C837.582 706.092 837.195 706.189 836.872 705.996C836.55 705.802 836.453 705.415 836.647 705.093L912.568 573.575C912.761 573.252 913.148 573.156 913.471 573.317C913.696 573.446 913.793 573.672 913.793 573.897L913.793 573.93Z" fill="#FEEBB2"/>
    </g>
    <g style="mix-blend-mode:multiply">
      <path d="M1050 573.286L913.149 573.286C912.794 573.286 912.504 573.576 912.504 573.931C912.504 574.286 912.794 574.576 913.149 574.576L1050 574.576L1050 573.254L1050 573.286Z" fill="#FEEBB2"/>
    </g>
    <g style="mix-blend-mode:multiply">
      <path d="M1050 310.186L913.149 310.186C912.794 310.186 912.504 310.476 912.504 310.863C912.504 311.25 912.794 311.508 913.149 311.508L1050 311.508L1050 310.186Z" fill="#FEEBB2"/>
    </g>
    <g style="mix-blend-mode:multiply">
      <path d="M913.793 310.895C913.793 310.895 913.793 311.12 913.696 311.217L837.775 442.735C837.582 443.057 837.195 443.154 836.872 442.961C836.55 442.767 836.453 442.38 836.647 442.058L912.568 310.54C912.761 310.217 913.148 310.121 913.471 310.314C913.696 310.443 913.793 310.669 913.793 310.895Z" fill="#FEEBB2"/>
    </g>
    <g style="mix-blend-mode:multiply">
      <path d="M913.793 573.93C913.793 574.156 913.664 574.382 913.471 574.511C913.148 574.704 912.761 574.575 912.568 574.285L836.647 442.735C836.453 442.413 836.582 442.026 836.872 441.832C837.195 441.639 837.582 441.768 837.775 442.058L913.696 573.608C913.696 573.608 913.793 573.834 913.793 573.93Z" fill="#FEEBB2"/>
    </g>
    <g style="mix-blend-mode:multiply">
      <path d="M1050 13.7715L1050 11.127L989.876 115.361C989.682 115.683 989.811 116.07 990.101 116.264C990.424 116.457 990.811 116.328 991.004 116.038L1050 13.7715Z" fill="#FEEBB2"/>
    </g>
    <g style="mix-blend-mode:multiply">
      <path d="M776.394 -2.98041e-06L843.353 116.037C843.547 116.36 843.933 116.457 844.256 116.263C844.481 116.134 844.578 115.908 844.578 115.683C844.578 115.554 844.578 115.457 844.481 115.36L777.909 -2.91418e-06L776.394 -2.98041e-06Z" fill="#FEEBB2"/>
    </g>
    <g style="mix-blend-mode:multiply">
      <path d="M991.102 115.715C991.102 116.07 990.811 116.36 990.457 116.36L843.934 116.36C843.579 116.36 843.289 116.07 843.289 115.715C843.289 115.361 843.579 115.07 843.934 115.07L990.425 115.07C990.779 115.07 991.069 115.361 991.069 115.715L991.102 115.715Z" fill="#FEEBB2"/>
    </g>
    <g style="mix-blend-mode:multiply">
      <path d="M1050 13.8027L1050 11.1582L989.876 115.36C989.682 115.682 989.811 116.069 990.101 116.263C990.424 116.456 990.811 116.327 991.004 116.037L1050 13.8027Z" fill="#FEEBB2"/>
    </g>
    <g style="mix-blend-mode:multiply">
      <path d="M991.102 115.682C991.102 116.037 990.811 116.327 990.457 116.327L843.934 116.327C843.579 116.327 843.289 116.037 843.289 115.682C843.289 115.327 843.579 115.037 843.934 115.037L990.425 115.037C990.779 115.037 991.069 115.327 991.069 115.682L991.102 115.682Z" fill="#FEEBB2"/>
    </g>
    <g style="mix-blend-mode:multiply">
      <path d="M844.578 115.683C844.578 115.683 844.578 115.909 844.481 116.006L771.236 242.944C771.043 243.267 770.656 243.363 770.333 243.17C770.011 242.976 769.914 242.589 770.076 242.267L843.321 115.329C843.514 115.006 843.901 114.909 844.224 115.071C844.449 115.2 844.546 115.426 844.546 115.651L844.578 115.683Z" fill="#FEEBB2"/>
    </g>
    <g style="mix-blend-mode:multiply">
      <path d="M616.911 -6.62316e-08L550.339 115.36C550.145 115.683 550.274 116.07 550.596 116.263C550.919 116.457 551.306 116.328 551.499 116.037L618.426 0L616.911 -6.62316e-08Z" fill="#FEEBB2"/>
    </g>
    <g style="mix-blend-mode:multiply">
      <path d="M624.811 242.62C624.811 242.846 624.682 243.072 624.488 243.201C624.166 243.394 623.779 243.265 623.585 242.975L550.34 116.037C550.147 115.714 550.276 115.327 550.566 115.134C550.888 114.94 551.275 115.069 551.469 115.392L624.714 242.33C624.714 242.33 624.811 242.556 624.811 242.652L624.811 242.62Z" fill="#FEEBB2"/>
    </g>
    <g style="mix-blend-mode:multiply">
      <path d="M771.332 242.622C771.332 242.976 771.042 243.267 770.687 243.267L624.164 243.267C623.81 243.267 623.52 242.976 623.52 242.622C623.52 242.267 623.81 241.977 624.164 241.977L770.687 241.977C771.042 241.977 771.332 242.267 771.332 242.622Z" fill="#FEEBB2"/>
    </g>
    <g style="mix-blend-mode:multiply">
      <path d="M844.578 115.683C844.578 115.683 844.578 115.909 844.481 116.006L771.236 242.912C771.043 243.234 770.656 243.331 770.333 243.138C770.011 242.944 769.914 242.557 770.076 242.235L843.321 115.329C843.514 115.006 843.901 114.909 844.224 115.071C844.449 115.2 844.546 115.426 844.546 115.651L844.578 115.683Z" fill="#FEEBB2"/>
    </g>
    <g style="mix-blend-mode:multiply">
      <path d="M776.394 -2.98041e-06L843.353 116.005C843.547 116.328 843.933 116.424 844.256 116.231C844.481 116.102 844.578 115.876 844.578 115.65C844.578 115.554 844.578 115.425 844.481 115.328L777.909 -2.91418e-06L776.394 -2.98041e-06Z" fill="#FEEBB2"/>
    </g>
    <g style="mix-blend-mode:multiply">
      <path d="M771.332 242.588C771.332 242.943 771.042 243.233 770.687 243.233L624.164 243.233C623.81 243.233 623.52 242.943 623.52 242.588C623.52 242.234 623.81 241.943 624.164 241.943L770.687 241.943C771.042 241.943 771.332 242.234 771.332 242.588Z" fill="#FEEBB2"/>
    </g>
    <g style="mix-blend-mode:multiply">
      <path d="M336.857 -2.98041e-06L403.816 116.037C404.009 116.36 404.396 116.457 404.719 116.263C404.944 116.134 405.041 115.908 405.041 115.683C405.041 115.554 405.041 115.457 404.944 115.36L338.372 -2.91418e-06L336.857 -2.98041e-06Z" fill="#FEEBB2"/>
    </g>
    <g style="mix-blend-mode:multiply">
      <path d="M551.564 115.715C551.564 116.07 551.274 116.36 550.92 116.36L404.397 116.36C404.042 116.36 403.752 116.07 403.752 115.715C403.752 115.361 404.042 115.07 404.397 115.07L550.92 115.07C551.274 115.07 551.564 115.361 551.564 115.715Z" fill="#FEEBB2"/>
    </g>
    <g style="mix-blend-mode:multiply">
      <path d="M616.911 -6.62316e-08L550.339 115.36C550.145 115.683 550.274 116.07 550.596 116.263C550.919 116.457 551.306 116.328 551.499 116.037L618.426 0L616.911 -6.62316e-08Z" fill="#FEEBB2"/>
    </g>
    <g style="mix-blend-mode:multiply">
      <path d="M551.564 115.682C551.564 116.037 551.274 116.327 550.92 116.327L404.397 116.327C404.042 116.327 403.752 116.037 403.752 115.682C403.752 115.327 404.042 115.037 404.397 115.037L550.92 115.037C551.274 115.037 551.564 115.327 551.564 115.682Z" fill="#FEEBB2"/>
    </g>
    <g style="mix-blend-mode:multiply">
      <path d="M405.041 115.683C405.041 115.683 405.041 115.909 404.944 116.006L331.699 242.944C331.506 243.267 331.119 243.363 330.796 243.17C330.474 242.976 330.377 242.589 330.538 242.267L403.784 115.329C403.977 115.006 404.364 114.909 404.686 115.071C404.912 115.2 405.009 115.426 405.009 115.651L405.041 115.683Z" fill="#FEEBB2"/>
    </g>
    <g style="mix-blend-mode:multiply">
      <path d="M624.811 242.62C624.811 242.846 624.682 243.072 624.488 243.201C624.166 243.394 623.779 243.265 623.585 242.975L550.34 116.037C550.147 115.714 550.276 115.327 550.566 115.134C550.888 114.94 551.275 115.069 551.469 115.392L624.714 242.33C624.714 242.33 624.811 242.556 624.811 242.652L624.811 242.62Z" fill="#FEEBB2"/>
    </g>
    <g style="mix-blend-mode:multiply">
      <path d="M177.375 -6.62316e-08L110.803 115.36C110.61 115.683 110.739 116.07 111.029 116.263C111.351 116.457 111.738 116.328 111.932 116.037L178.891 0L177.375 -6.62316e-08Z" fill="#FEEBB2"/>
    </g>
    <g style="mix-blend-mode:multiply">
      <path d="M185.272 242.62C185.272 242.846 185.144 243.072 184.95 243.201C184.628 243.394 184.241 243.265 184.047 242.975L110.802 116.037C110.609 115.714 110.738 115.327 111.06 115.134C111.382 114.94 111.769 115.069 111.963 115.392L185.208 242.33C185.208 242.33 185.305 242.556 185.305 242.652L185.272 242.62Z" fill="#FEEBB2"/>
    </g>
    <g style="mix-blend-mode:multiply">
      <path d="M331.797 242.622C331.797 242.976 331.507 243.267 331.152 243.267L184.629 243.267C184.275 243.267 183.984 242.976 183.984 242.622C183.984 242.267 184.275 241.977 184.629 241.977L331.152 241.977C331.507 241.977 331.797 242.267 331.797 242.622Z" fill="#FEEBB2"/>
    </g>
    <g style="mix-blend-mode:multiply">
      <path d="M405.041 115.683C405.041 115.683 405.041 115.909 404.944 116.006L331.699 242.912C331.506 243.234 331.119 243.331 330.796 243.138C330.474 242.944 330.377 242.557 330.538 242.235L403.784 115.329C403.977 115.006 404.364 114.909 404.686 115.071C404.912 115.2 405.009 115.426 405.009 115.651L405.041 115.683Z" fill="#FEEBB2"/>
    </g>
    <g style="mix-blend-mode:multiply">
      <path d="M336.857 -2.98041e-06L403.816 116.005C404.009 116.328 404.396 116.424 404.719 116.231C404.944 116.102 405.041 115.876 405.041 115.65C405.041 115.554 405.041 115.425 404.944 115.328L338.405 -2.91277e-06L336.889 -2.979e-06L336.857 -2.98041e-06Z" fill="#FEEBB2"/>
    </g>
    <g style="mix-blend-mode:multiply">
      <path d="M331.797 242.588C331.797 242.943 331.507 243.233 331.152 243.233L184.629 243.233C184.275 243.233 183.984 242.943 183.984 242.588C183.984 242.234 184.275 241.943 184.629 241.943L331.152 241.943C331.507 241.943 331.797 242.234 331.797 242.588Z" fill="#FEEBB2"/>
    </g>
    <g style="mix-blend-mode:multiply">
      <path d="M185.273 242.588C185.273 242.588 185.273 242.814 185.177 242.91L111.931 369.849C111.738 370.171 111.351 370.268 111.029 370.074C110.706 369.881 110.61 369.494 110.771 369.171L184.016 242.233C184.21 241.911 184.596 241.814 184.919 242.007C185.145 242.136 185.241 242.362 185.241 242.588L185.273 242.588Z" fill="#FEEBB2"/>
    </g>
    <g style="mix-blend-mode:multiply">
      <path d="M-0.00060278 116.359L111.383 116.359C111.737 116.359 112.027 116.069 112.027 115.682C112.027 115.295 111.737 115.037 111.383 115.037L-0.000602722 115.037L-0.00060278 116.359Z" fill="#FEEBB2"/>
    </g>
    <g style="mix-blend-mode:multiply">
      <path d="M177.375 -6.62316e-08L110.803 115.36C110.61 115.683 110.739 116.07 111.029 116.263C111.351 116.457 111.738 116.328 111.932 116.037L178.891 0L177.375 -6.62316e-08Z" fill="#FEEBB2"/>
    </g>
    <g style="mix-blend-mode:multiply">
      <path d="M-0.000602779 116.327L111.383 116.327C111.737 116.327 112.027 116.037 112.027 115.682C112.027 115.327 111.737 115.037 111.383 115.037L-0.000602722 115.037L-0.00060278 116.359L-0.000602779 116.327Z" fill="#FEEBB2"/>
    </g>
    <g style="mix-blend-mode:multiply">
      <path d="M-0.000602781 370.204L111.383 370.204C111.737 370.204 112.027 369.914 112.027 369.527C112.027 369.14 111.737 368.85 111.383 368.85L-0.000602722 368.85L-0.00060278 370.172L-0.000602781 370.204Z" fill="#FEEBB2"/>
    </g>
    <g style="mix-blend-mode:multiply">
      <path d="M185.273 242.621C185.273 242.621 185.273 242.847 185.177 242.944L111.931 369.85C111.738 370.172 111.351 370.269 111.029 370.075C110.706 369.882 110.61 369.495 110.771 369.172L184.016 242.266C184.21 241.944 184.596 241.847 184.919 242.041C185.145 242.17 185.241 242.395 185.241 242.621L185.273 242.621Z" fill="#FEEBB2"/>
    </g>
    <g style="mix-blend-mode:multiply">
      <path d="M185.272 242.62C185.272 242.846 185.144 243.072 184.95 243.201C184.628 243.394 184.241 243.265 184.047 242.975L110.802 116.037C110.609 115.714 110.738 115.327 111.06 115.134C111.382 114.94 111.769 115.069 111.963 115.392L185.208 242.33C185.208 242.33 185.305 242.556 185.305 242.652L185.272 242.62Z" fill="#FEEBB2"/>
    </g>
    <g style="mix-blend-mode:multiply">
      <path d="M-0.000602779 370.171L111.383 370.171C111.737 370.171 112.027 369.881 112.027 369.526C112.027 369.171 111.737 368.881 111.383 368.881L-0.000602722 368.881L-0.00060278 370.203L-0.000602779 370.171Z" fill="#FEEBB2"/>
    </g>
    <g style="mix-blend-mode:multiply">
      <path d="M1006.74 -6.62314e-08L992.939 23.9299C992.745 24.2524 992.874 24.6394 993.164 24.8329C993.487 25.0264 993.874 24.8974 994.067 24.6072L1008.25 0L1006.74 -6.62314e-08Z" fill="#FEEBB2"/>
    </g>
    <g style="mix-blend-mode:multiply">
      <path d="M1039.17 102.234C1039.17 102.46 1039.04 102.686 1038.85 102.815C1038.52 103.008 1038.14 102.879 1037.94 102.589L992.906 24.6072C992.713 24.2847 992.842 23.8977 993.164 23.7042C993.486 23.5107 993.873 23.6397 994.067 23.9622L1039.07 101.912C1039.07 101.912 1039.17 102.137 1039.17 102.234Z" fill="#FEEBB2"/>
    </g>
    <g style="mix-blend-mode:multiply">
      <path d="M1039.17 102.233C1039.17 102.233 1039.17 102.459 1039.07 102.556L994.067 180.538C993.873 180.86 993.486 180.957 993.164 180.763C992.842 180.57 992.745 180.183 992.906 179.86L1037.91 101.911C1038.1 101.588 1038.49 101.492 1038.81 101.653C1039.04 101.782 1039.14 102.008 1039.14 102.233L1039.17 102.233Z" fill="#FEEBB2"/>
    </g>
    <g style="mix-blend-mode:multiply">
      <path d="M888.712 -6.74996e-07L902.929 24.6072C903.123 24.9297 903.51 25.0264 903.832 24.8652C904.058 24.7362 904.154 24.5104 904.154 24.2847C904.154 24.1879 904.154 24.0589 904.058 23.9621L890.227 -6.08765e-07L888.712 -6.74996e-07Z" fill="#FEEBB2"/>
    </g>
    <g style="mix-blend-mode:multiply">
      <path d="M994.164 24.2837C994.164 24.6384 993.874 24.9287 993.519 24.9287L903.51 24.9287C903.155 24.9287 902.865 24.6384 902.865 24.2837C902.865 23.9289 903.155 23.6387 903.51 23.6387L993.487 23.6387C993.842 23.6387 994.132 23.9289 994.132 24.2837L994.164 24.2837Z" fill="#FEEBB2"/>
    </g>
    <g style="mix-blend-mode:multiply">
      <path d="M1006.74 -6.62314e-08L992.907 23.9299C992.713 24.2524 992.842 24.6394 993.132 24.8329C993.455 25.0264 993.841 24.8974 994.035 24.6072L1008.25 0L1006.74 -6.62314e-08Z" fill="#FEEBB2"/>
    </g>
    <g style="mix-blend-mode:multiply">
      <path d="M994.164 24.2524C994.164 24.6072 993.874 24.8974 993.519 24.8974L903.51 24.8974C903.155 24.8974 902.865 24.6072 902.865 24.2524C902.865 23.8977 903.155 23.6074 903.51 23.6074L993.487 23.6074C993.842 23.6074 994.132 23.8977 994.132 24.2524L994.164 24.2524Z" fill="#FEEBB2"/>
    </g>
    <g style="mix-blend-mode:multiply">
      <path d="M904.154 24.2528C904.154 24.2528 904.154 24.4786 904.058 24.5753L859.053 102.557C858.86 102.88 858.473 102.976 858.15 102.783C857.828 102.589 857.731 102.202 857.925 101.88L902.897 23.9303C903.09 23.6078 903.477 23.5111 903.8 23.6723C904.025 23.8013 904.122 24.0271 904.122 24.2528L904.154 24.2528Z" fill="#FEEBB2"/>
    </g>
    <g style="mix-blend-mode:multiply">
      <path d="M904.154 180.217C904.154 180.443 904.025 180.668 903.832 180.797C903.51 180.991 903.123 180.862 902.929 180.539L857.925 102.558C857.731 102.235 857.86 101.848 858.15 101.655C858.473 101.461 858.86 101.59 859.053 101.88L904.058 179.862C904.058 179.862 904.154 180.088 904.154 180.185L904.154 180.217Z" fill="#FEEBB2"/>
    </g>
    <g style="mix-blend-mode:multiply">
      <path d="M994.164 180.215C994.164 180.57 993.874 180.86 993.519 180.86L903.51 180.86C903.155 180.86 902.865 180.57 902.865 180.215C902.865 179.861 903.155 179.57 903.51 179.57L993.487 179.57C993.842 179.57 994.132 179.861 994.132 180.215L994.164 180.215Z" fill="#FEEBB2"/>
    </g>
    <g style="mix-blend-mode:multiply">
      <path d="M1039.17 102.233C1039.17 102.233 1039.17 102.459 1039.07 102.556L994.067 180.506C993.873 180.828 993.486 180.925 993.164 180.731C992.842 180.538 992.745 180.151 992.906 179.828L1037.91 101.911C1038.1 101.588 1038.49 101.492 1038.81 101.685C1039.04 101.814 1039.14 102.04 1039.14 102.266L1039.17 102.233Z" fill="#FEEBB2"/>
    </g>
    <g style="mix-blend-mode:multiply">
      <path d="M1039.17 102.234C1039.17 102.46 1039.04 102.686 1038.85 102.815C1038.52 103.008 1038.14 102.879 1037.94 102.589L992.906 24.6072C992.713 24.2847 992.842 23.8977 993.164 23.7042C993.486 23.5107 993.873 23.6397 994.067 23.9622L1039.07 101.912C1039.07 101.912 1039.17 102.137 1039.17 102.234Z" fill="#FEEBB2"/>
    </g>
    <g style="mix-blend-mode:multiply">
      <path d="M994.164 180.215C994.164 180.57 993.874 180.86 993.519 180.86L903.51 180.86C903.155 180.86 902.865 180.57 902.865 180.215C902.865 179.861 903.155 179.57 903.51 179.57L993.487 179.57C993.842 179.57 994.132 179.861 994.132 180.215L994.164 180.215Z" fill="#FEEBB2"/>
    </g>
    <g style="mix-blend-mode:multiply">
      <path d="M904.154 180.217C904.154 180.217 904.154 180.443 904.058 180.539L859.053 258.521C858.86 258.844 858.473 258.94 858.15 258.747C857.828 258.553 857.731 258.166 857.925 257.844L902.929 179.862C903.123 179.54 903.51 179.443 903.832 179.636C904.058 179.765 904.154 179.991 904.154 180.217Z" fill="#FEEBB2"/>
    </g>
    <g style="mix-blend-mode:multiply">
      <path d="M859.15 102.235C859.15 102.59 858.86 102.88 858.506 102.88L768.496 102.88C768.142 102.88 767.852 102.59 767.852 102.235C767.852 101.88 768.142 101.59 768.496 101.59L858.506 101.59C858.86 101.59 859.15 101.88 859.15 102.235Z" fill="#FEEBB2"/>
    </g>
    <g style="mix-blend-mode:multiply">
      <path d="M904.154 24.2528C904.154 24.2528 904.154 24.4786 904.058 24.5753L859.053 102.525C858.86 102.847 858.473 102.944 858.15 102.783C857.828 102.589 857.731 102.202 857.925 101.88L902.897 23.9303C903.09 23.6078 903.477 23.5111 903.8 23.6723C904.025 23.8013 904.122 24.0271 904.122 24.2528L904.154 24.2528Z" fill="#FEEBB2"/>
    </g>
    <g style="mix-blend-mode:multiply">
      <path d="M888.711 -6.73587e-07L902.896 24.6072C903.089 24.9297 903.476 25.0264 903.799 24.8329C904.024 24.7039 904.121 24.4782 904.121 24.2524C904.121 24.1556 904.121 24.0266 904.024 23.9299L890.226 -6.07356e-07L888.711 -6.73587e-07Z" fill="#FEEBB2"/>
    </g>
    <g style="mix-blend-mode:multiply">
      <path d="M859.15 102.235C859.15 102.59 858.86 102.88 858.506 102.88L768.496 102.88C768.142 102.88 767.852 102.59 767.852 102.235C767.852 101.88 768.142 101.59 768.496 101.59L858.506 101.59C858.86 101.59 859.15 101.88 859.15 102.235Z" fill="#FEEBB2"/>
    </g>
    <g style="mix-blend-mode:multiply">
      <path d="M769.141 102.234C769.141 102.234 769.141 102.46 769.044 102.557L724.039 180.539C723.846 180.861 723.459 180.958 723.137 180.764C722.814 180.571 722.718 180.184 722.911 179.861L767.916 101.88C768.109 101.557 768.496 101.46 768.818 101.622C769.044 101.751 769.141 101.976 769.141 102.202L769.141 102.234Z" fill="#FEEBB2"/>
    </g>
    <g style="mix-blend-mode:multiply">
      <path d="M769.141 258.198C769.141 258.424 769.012 258.65 768.818 258.779C768.496 258.972 768.109 258.843 767.916 258.553L722.911 180.571C722.718 180.249 722.847 179.862 723.137 179.668C723.459 179.475 723.846 179.604 724.039 179.894L769.044 257.876C769.044 257.876 769.141 258.101 769.141 258.198Z" fill="#FEEBB2"/>
    </g>
    <g style="mix-blend-mode:multiply">
      <path d="M859.15 258.198C859.15 258.552 858.86 258.843 858.506 258.843L768.496 258.843C768.142 258.843 767.852 258.552 767.852 258.198C767.852 257.843 768.142 257.553 768.496 257.553L858.506 257.553C858.86 257.553 859.15 257.843 859.15 258.198Z" fill="#FEEBB2"/>
    </g>
    <g style="mix-blend-mode:multiply">
      <path d="M904.154 180.217C904.154 180.217 904.154 180.443 904.058 180.539L859.053 258.489C858.86 258.811 858.473 258.908 858.15 258.715C857.828 258.521 857.731 258.134 857.925 257.812L902.929 179.862C903.123 179.54 903.51 179.443 903.832 179.636C904.058 179.765 904.154 179.991 904.154 180.217Z" fill="#FEEBB2"/>
    </g>
    <g style="mix-blend-mode:multiply">
      <path d="M904.154 180.217C904.154 180.442 904.025 180.668 903.832 180.797C903.51 180.991 903.123 180.862 902.929 180.571L857.925 102.59C857.731 102.267 857.86 101.88 858.15 101.687C858.473 101.493 858.86 101.622 859.053 101.945L904.058 179.926C904.058 179.926 904.154 180.152 904.154 180.249L904.154 180.217Z" fill="#FEEBB2"/>
    </g>
    <g style="mix-blend-mode:multiply">
      <path d="M859.15 258.165C859.15 258.519 858.86 258.81 858.506 258.81L768.496 258.81C768.142 258.81 767.852 258.519 767.852 258.165C767.852 257.81 768.142 257.52 768.496 257.52L858.506 257.52C858.86 257.52 859.15 257.81 859.15 258.165Z" fill="#FEEBB2"/>
    </g>
    <g style="mix-blend-mode:multiply">
      <path d="M769.141 258.166C769.141 258.166 769.141 258.392 769.044 258.488L724.039 336.47C723.846 336.793 723.459 336.889 723.137 336.696C722.814 336.502 722.718 336.115 722.911 335.793L767.916 257.811C768.109 257.489 768.496 257.392 768.818 257.553C769.044 257.682 769.141 257.908 769.141 258.134L769.141 258.166Z" fill="#FEEBB2"/>
    </g>
    <g style="mix-blend-mode:multiply">
      <path d="M634.127 24.2519C634.127 24.2519 634.127 24.4776 634.03 24.5744L589.026 102.556C588.832 102.879 588.445 102.975 588.123 102.782C587.801 102.588 587.704 102.201 587.897 101.879L632.902 23.8971C633.095 23.5746 633.482 23.4778 633.805 23.6391C634.03 23.7681 634.127 23.9939 634.127 24.2196L634.127 24.2519Z" fill="#FEEBB2"/>
    </g>
    <g style="mix-blend-mode:multiply">
      <path d="M634.127 180.217C634.127 180.443 633.998 180.668 633.805 180.797C633.482 180.991 633.095 180.862 632.902 180.539L587.897 102.558C587.704 102.235 587.833 101.848 588.123 101.655C588.445 101.461 588.832 101.59 589.026 101.88L634.03 179.862C634.03 179.862 634.127 180.088 634.127 180.185L634.127 180.217Z" fill="#FEEBB2"/>
    </g>
    <g style="mix-blend-mode:multiply">
      <path d="M724.135 180.215C724.135 180.57 723.845 180.86 723.49 180.86L633.481 180.86C633.126 180.86 632.836 180.57 632.836 180.215C632.836 179.861 633.126 179.57 633.481 179.57L723.49 179.57C723.845 179.57 724.135 179.861 724.135 180.215Z" fill="#FEEBB2"/>
    </g>
    <g style="mix-blend-mode:multiply">
      <path d="M769.141 102.234C769.141 102.234 769.141 102.46 769.044 102.557L724.039 180.507C723.846 180.829 723.459 180.926 723.137 180.732C722.814 180.539 722.718 180.152 722.911 179.829L767.916 101.88C768.109 101.557 768.496 101.46 768.818 101.654C769.044 101.783 769.141 102.009 769.141 102.234Z" fill="#FEEBB2"/>
    </g>
    <g style="mix-blend-mode:multiply">
      <path d="M724.135 180.215C724.135 180.57 723.845 180.86 723.49 180.86L633.481 180.86C633.126 180.86 632.836 180.57 632.836 180.215C632.836 179.861 633.126 179.57 633.481 179.57L723.49 179.57C723.845 179.57 724.135 179.861 724.135 180.215Z" fill="#FEEBB2"/>
    </g>
    <g style="mix-blend-mode:multiply">
      <path d="M634.127 180.217C634.127 180.217 634.127 180.443 634.03 180.539L589.026 258.521C588.832 258.844 588.445 258.94 588.123 258.747C587.801 258.553 587.704 258.166 587.897 257.844L632.902 179.862C633.095 179.54 633.482 179.443 633.805 179.636C634.03 179.765 634.127 179.991 634.127 180.217Z" fill="#FEEBB2"/>
    </g>
    <g style="mix-blend-mode:multiply">
      <path d="M634.127 336.18C634.127 336.405 633.998 336.631 633.805 336.76C633.482 336.954 633.095 336.825 632.902 336.502L587.897 258.52C587.704 258.198 587.833 257.811 588.123 257.617C588.445 257.424 588.832 257.553 589.026 257.843L634.03 335.825C634.03 335.825 634.127 336.051 634.127 336.147L634.127 336.18Z" fill="#FEEBB2"/>
    </g>
    <g style="mix-blend-mode:multiply">
      <path d="M724.135 336.18C724.135 336.535 723.845 336.825 723.49 336.825L633.481 336.825C633.126 336.825 632.836 336.535 632.836 336.18C632.836 335.825 633.126 335.535 633.481 335.535L723.49 335.535C723.845 335.535 724.135 335.825 724.135 336.18Z" fill="#FEEBB2"/>
    </g>
    <g style="mix-blend-mode:multiply">
      <path d="M769.141 258.197C769.141 258.197 769.141 258.423 769.044 258.52L724.039 336.469C723.846 336.792 723.459 336.889 723.137 336.695C722.814 336.502 722.718 336.115 722.911 335.792L767.916 257.843C768.109 257.52 768.496 257.423 768.818 257.617C769.044 257.746 769.141 257.972 769.141 258.197Z" fill="#FEEBB2"/>
    </g>
    <g style="mix-blend-mode:multiply">
      <path d="M769.141 258.198C769.141 258.424 769.012 258.65 768.818 258.779C768.496 258.972 768.109 258.843 767.916 258.553L722.911 180.571C722.718 180.249 722.847 179.862 723.137 179.668C723.459 179.475 723.846 179.604 724.039 179.894L769.044 257.876C769.044 257.876 769.141 258.101 769.141 258.198Z" fill="#FEEBB2"/>
    </g>
    <g style="mix-blend-mode:multiply">
      <path d="M724.135 336.147C724.135 336.502 723.845 336.792 723.49 336.792L633.481 336.792C633.126 336.792 632.836 336.502 632.836 336.147C632.836 335.792 633.126 335.502 633.481 335.502L723.49 335.502C723.845 335.502 724.135 335.792 724.135 336.147Z" fill="#FEEBB2"/>
    </g>
    <g style="mix-blend-mode:multiply">
      <path d="M499.113 102.234C499.113 102.46 498.984 102.686 498.791 102.815C498.469 103.008 498.082 102.879 497.888 102.589L452.884 24.6072C452.69 24.2847 452.819 23.8977 453.109 23.7042C453.432 23.5107 453.819 23.6397 454.012 23.9622L499.017 101.944C499.017 101.944 499.113 102.17 499.113 102.266L499.113 102.234Z" fill="#FEEBB2"/>
    </g>
    <g style="mix-blend-mode:multiply">
      <path d="M589.121 102.235C589.121 102.59 588.831 102.88 588.476 102.88L498.467 102.88C498.113 102.88 497.822 102.59 497.822 102.235C497.822 101.88 498.113 101.59 498.467 101.59L588.476 101.59C588.831 101.59 589.121 101.88 589.121 102.235Z" fill="#FEEBB2"/>
    </g>
    <g style="mix-blend-mode:multiply">
      <path d="M634.127 24.2528C634.127 24.2528 634.127 24.4786 634.03 24.5753L589.026 102.525C588.832 102.847 588.445 102.944 588.123 102.783C587.801 102.589 587.704 102.202 587.897 101.88L632.902 23.9303C633.095 23.6078 633.482 23.5111 633.805 23.6723C634.03 23.8013 634.127 24.0271 634.127 24.2528Z" fill="#FEEBB2"/>
    </g>
    <g style="mix-blend-mode:multiply">
      <path d="M589.121 102.235C589.121 102.59 588.831 102.88 588.476 102.88L498.467 102.88C498.113 102.88 497.822 102.59 497.822 102.235C497.822 101.88 498.113 101.59 498.467 101.59L588.476 101.59C588.831 101.59 589.121 101.88 589.121 102.235Z" fill="#FEEBB2"/>
    </g>
    <g style="mix-blend-mode:multiply">
      <path d="M499.113 102.234C499.113 102.234 499.113 102.46 499.017 102.557L454.012 180.539C453.819 180.861 453.432 180.958 453.109 180.764C452.787 180.571 452.69 180.184 452.884 179.861L497.888 101.88C498.082 101.557 498.469 101.46 498.791 101.622C499.017 101.751 499.113 101.976 499.113 102.202L499.113 102.234Z" fill="#FEEBB2"/>
    </g>
    <g style="mix-blend-mode:multiply">
      <path d="M499.113 258.198C499.113 258.424 498.984 258.65 498.791 258.779C498.469 258.972 498.082 258.843 497.888 258.553L452.884 180.571C452.69 180.249 452.819 179.862 453.109 179.668C453.432 179.475 453.819 179.604 454.012 179.894L499.017 257.876C499.017 257.876 499.113 258.101 499.113 258.198Z" fill="#FEEBB2"/>
    </g>
    <g style="mix-blend-mode:multiply">
      <path d="M589.121 258.198C589.121 258.552 588.831 258.843 588.476 258.843L498.467 258.843C498.113 258.843 497.822 258.552 497.822 258.198C497.822 257.843 498.113 257.553 498.467 257.553L588.476 257.553C588.831 257.553 589.121 257.843 589.121 258.198Z" fill="#FEEBB2"/>
    </g>
    <g style="mix-blend-mode:multiply">
      <path d="M634.127 180.217C634.127 180.217 634.127 180.443 634.03 180.539L589.026 258.489C588.832 258.811 588.445 258.908 588.123 258.715C587.801 258.521 587.704 258.134 587.897 257.812L632.902 179.862C633.095 179.54 633.482 179.443 633.805 179.636C634.03 179.765 634.127 179.991 634.127 180.217Z" fill="#FEEBB2"/>
    </g>
    <g style="mix-blend-mode:multiply">
      <path d="M634.127 180.217C634.127 180.442 633.998 180.668 633.805 180.797C633.482 180.991 633.095 180.862 632.902 180.571L587.897 102.59C587.704 102.267 587.833 101.88 588.123 101.687C588.445 101.493 588.832 101.622 589.026 101.945L634.03 179.926C634.03 179.926 634.127 180.152 634.127 180.249L634.127 180.217Z" fill="#FEEBB2"/>
    </g>
    <g style="mix-blend-mode:multiply">
      <path d="M589.121 258.165C589.121 258.519 588.831 258.81 588.476 258.81L498.467 258.81C498.113 258.81 497.822 258.519 497.822 258.165C497.822 257.81 498.113 257.52 498.467 257.52L588.476 257.52C588.831 257.52 589.121 257.81 589.121 258.165Z" fill="#FEEBB2"/>
    </g>
    <g style="mix-blend-mode:multiply">
      <path d="M499.113 258.166C499.113 258.166 499.113 258.392 499.017 258.488L454.012 336.47C453.819 336.793 453.432 336.889 453.109 336.696C452.787 336.502 452.69 336.115 452.884 335.793L497.888 257.811C498.082 257.489 498.469 257.392 498.791 257.553C499.017 257.682 499.113 257.908 499.113 258.134L499.113 258.166Z" fill="#FEEBB2"/>
    </g>
    <g style="mix-blend-mode:multiply">
      <path d="M634.127 336.146C634.127 336.372 633.998 336.598 633.805 336.727C633.482 336.92 633.095 336.791 632.902 336.501L587.897 258.519C587.704 258.197 587.833 257.81 588.123 257.616C588.445 257.423 588.832 257.552 589.026 257.874L634.03 335.856C634.03 335.856 634.127 336.082 634.127 336.179L634.127 336.146Z" fill="#FEEBB2"/>
    </g>
    <g style="mix-blend-mode:multiply">
      <path d="M348.657 -6.74998e-07L362.875 24.6072C363.068 24.9297 363.455 25.0264 363.777 24.8652C364.003 24.7362 364.1 24.5104 364.1 24.2847C364.1 24.1879 364.1 24.0589 364.003 23.9621L350.173 -6.08766e-07L348.657 -6.74998e-07V-6.74998e-07Z" fill="#FEEBB2"/>
    </g>
    <g style="mix-blend-mode:multiply">
      <path d="M454.107 24.2837C454.107 24.6384 453.817 24.9287 453.463 24.9287L363.453 24.9287C363.099 24.9287 362.809 24.6384 362.809 24.2837C362.809 23.9289 363.099 23.6387 363.453 23.6387L453.463 23.6387C453.817 23.6387 454.107 23.9289 454.107 24.2837Z" fill="#FEEBB2"/>
    </g>
    <g style="mix-blend-mode:multiply">
      <path d="M454.107 24.2524C454.107 24.6072 453.817 24.8974 453.463 24.8974L363.453 24.8974C363.099 24.8974 362.809 24.6072 362.809 24.2524C362.809 23.8977 363.099 23.6074 363.453 23.6074L453.463 23.6074C453.817 23.6074 454.107 23.8977 454.107 24.2524Z" fill="#FEEBB2"/>
    </g>
    <g style="mix-blend-mode:multiply">
      <path d="M364.1 24.2519C364.1 24.2519 364.1 24.4776 364.003 24.5744L318.998 102.556C318.805 102.879 318.418 102.975 318.096 102.782C317.773 102.588 317.676 102.201 317.87 101.879L362.875 23.8971C363.068 23.5746 363.455 23.4778 363.777 23.6391C364.003 23.7681 364.1 23.9939 364.1 24.2196L364.1 24.2519Z" fill="#FEEBB2"/>
    </g>
    <g style="mix-blend-mode:multiply">
      <path d="M364.1 180.217C364.1 180.443 363.971 180.668 363.777 180.797C363.455 180.991 363.068 180.862 362.875 180.539L317.87 102.558C317.676 102.235 317.805 101.848 318.096 101.655C318.418 101.461 318.805 101.59 318.998 101.88L364.003 179.862C364.003 179.862 364.1 180.088 364.1 180.185L364.1 180.217Z" fill="#FEEBB2"/>
    </g>
    <g style="mix-blend-mode:multiply">
      <path d="M454.107 180.215C454.107 180.57 453.817 180.86 453.463 180.86L363.453 180.86C363.099 180.86 362.809 180.57 362.809 180.215C362.809 179.861 363.099 179.57 363.453 179.57L453.463 179.57C453.817 179.57 454.107 179.861 454.107 180.215Z" fill="#FEEBB2"/>
    </g>
    <g style="mix-blend-mode:multiply">
      <path d="M499.113 102.234C499.113 102.234 499.113 102.46 499.017 102.557L454.012 180.507C453.819 180.829 453.432 180.926 453.109 180.732C452.787 180.539 452.69 180.152 452.884 179.829L497.888 101.88C498.082 101.557 498.469 101.46 498.791 101.654C499.017 101.783 499.113 102.009 499.113 102.234Z" fill="#FEEBB2"/>
    </g>
    <g style="mix-blend-mode:multiply">
      <path d="M499.113 102.234C499.113 102.46 498.984 102.686 498.791 102.815C498.469 103.008 498.082 102.879 497.888 102.589L452.884 24.6072C452.69 24.2847 452.819 23.8977 453.109 23.7042C453.432 23.5107 453.819 23.6397 454.012 23.9622L499.017 101.944C499.017 101.944 499.113 102.17 499.113 102.266L499.113 102.234Z" fill="#FEEBB2"/>
    </g>
    <g style="mix-blend-mode:multiply">
      <path d="M454.107 180.215C454.107 180.57 453.817 180.86 453.463 180.86L363.453 180.86C363.099 180.86 362.809 180.57 362.809 180.215C362.809 179.861 363.099 179.57 363.453 179.57L453.463 179.57C453.817 179.57 454.107 179.861 454.107 180.215Z" fill="#FEEBB2"/>
    </g>
    <g style="mix-blend-mode:multiply">
      <path d="M364.1 180.217C364.1 180.217 364.1 180.443 364.003 180.539L318.998 258.521C318.805 258.844 318.418 258.94 318.096 258.747C317.773 258.553 317.676 258.166 317.87 257.844L362.875 179.862C363.068 179.54 363.455 179.443 363.777 179.636C364.003 179.765 364.1 179.991 364.1 180.217Z" fill="#FEEBB2"/>
    </g>
    <g style="mix-blend-mode:multiply">
      <path d="M364.1 336.18C364.1 336.405 363.971 336.631 363.777 336.76C363.455 336.954 363.068 336.825 362.875 336.502L317.87 258.52C317.676 258.198 317.805 257.811 318.096 257.617C318.418 257.424 318.805 257.553 318.998 257.843L364.003 335.825C364.003 335.825 364.1 336.051 364.1 336.147L364.1 336.18Z" fill="#FEEBB2"/>
    </g>
    <g style="mix-blend-mode:multiply">
      <path d="M454.107 336.18C454.107 336.535 453.817 336.825 453.463 336.825L363.453 336.825C363.099 336.825 362.809 336.535 362.809 336.18C362.809 335.825 363.099 335.535 363.453 335.535L453.463 335.535C453.817 335.535 454.107 335.825 454.107 336.18Z" fill="#FEEBB2"/>
    </g>
    <g style="mix-blend-mode:multiply">
      <path d="M499.113 258.197C499.113 258.197 499.113 258.423 499.017 258.52L454.012 336.469C453.819 336.792 453.432 336.889 453.109 336.695C452.787 336.502 452.69 336.115 452.884 335.792L497.888 257.843C498.082 257.52 498.469 257.423 498.791 257.617C499.017 257.746 499.113 257.972 499.113 258.197Z" fill="#FEEBB2"/>
    </g>
    <g style="mix-blend-mode:multiply">
      <path d="M499.113 258.198C499.113 258.424 498.984 258.65 498.791 258.779C498.469 258.972 498.082 258.843 497.888 258.553L452.884 180.571C452.69 180.249 452.819 179.862 453.109 179.668C453.432 179.475 453.819 179.604 454.012 179.894L499.017 257.876C499.017 257.876 499.113 258.101 499.113 258.198Z" fill="#FEEBB2"/>
    </g>
    <g style="mix-blend-mode:multiply">
      <path d="M454.107 336.147C454.107 336.502 453.817 336.792 453.463 336.792L363.453 336.792C363.099 336.792 362.809 336.502 362.809 336.147C362.809 335.792 363.099 335.502 363.453 335.502L453.463 335.502C453.817 335.502 454.107 335.792 454.107 336.147Z" fill="#FEEBB2"/>
    </g>
    <g style="mix-blend-mode:multiply">
      <path d="M364.1 336.148C364.1 336.148 364.1 336.373 364.003 336.47L318.998 414.452C318.805 414.774 318.418 414.871 318.096 414.71C317.773 414.516 317.676 414.129 317.87 413.807L362.875 335.825C363.068 335.503 363.455 335.406 363.777 335.599C364.003 335.728 364.1 335.954 364.1 336.18L364.1 336.148Z" fill="#FEEBB2"/>
    </g>
    <g style="mix-blend-mode:multiply">
      <path d="M364.1 24.2528C364.1 24.2528 364.1 24.4786 364.003 24.5753L318.998 102.525C318.805 102.847 318.418 102.944 318.096 102.783C317.773 102.589 317.676 102.202 317.87 101.88L362.875 23.9303C363.068 23.6078 363.455 23.5111 363.777 23.6723C364.003 23.8013 364.1 24.0271 364.1 24.2528Z" fill="#FEEBB2"/>
    </g>
    <g style="mix-blend-mode:multiply">
      <path d="M348.657 -6.73587e-07L362.841 24.6072C363.035 24.9297 363.422 25.0264 363.744 24.8329C363.97 24.7039 364.066 24.4782 364.066 24.2524C364.066 24.1556 364.066 24.0266 363.97 23.9299L350.172 -6.07356e-07L348.657 -6.73587e-07V-6.73587e-07Z" fill="#FEEBB2"/>
    </g>
    <g style="mix-blend-mode:multiply">
      <path d="M229.086 258.198C229.086 258.424 228.957 258.65 228.764 258.779C228.441 258.972 228.054 258.843 227.861 258.553L182.856 180.571C182.663 180.249 182.792 179.862 183.082 179.668C183.404 179.475 183.791 179.604 183.985 179.894L228.989 257.876C228.989 257.876 229.086 258.101 229.086 258.198Z" fill="#FEEBB2"/>
    </g>
    <g style="mix-blend-mode:multiply">
      <path d="M319.094 258.198C319.094 258.552 318.804 258.843 318.449 258.843L228.44 258.843C228.085 258.843 227.795 258.552 227.795 258.198C227.795 257.843 228.085 257.553 228.44 257.553L318.449 257.553C318.804 257.553 319.094 257.843 319.094 258.198Z" fill="#FEEBB2"/>
    </g>
    <g style="mix-blend-mode:multiply">
      <path d="M364.1 180.217C364.1 180.217 364.1 180.443 364.003 180.539L318.998 258.489C318.805 258.811 318.418 258.908 318.096 258.715C317.773 258.521 317.676 258.134 317.87 257.812L362.875 179.862C363.068 179.54 363.455 179.443 363.777 179.636C364.003 179.765 364.1 179.991 364.1 180.217Z" fill="#FEEBB2"/>
    </g>
    <g style="mix-blend-mode:multiply">
      <path d="M364.1 180.217C364.1 180.442 363.971 180.668 363.777 180.797C363.455 180.991 363.068 180.862 362.875 180.571L317.87 102.59C317.676 102.267 317.805 101.88 318.096 101.687C318.418 101.493 318.805 101.622 318.998 101.945L364.003 179.926C364.003 179.926 364.1 180.152 364.1 180.249L364.1 180.217Z" fill="#FEEBB2"/>
    </g>
    <g style="mix-blend-mode:multiply">
      <path d="M319.094 258.165C319.094 258.519 318.804 258.81 318.449 258.81L228.44 258.81C228.085 258.81 227.795 258.519 227.795 258.165C227.795 257.81 228.085 257.52 228.44 257.52L318.449 257.52C318.804 257.52 319.094 257.81 319.094 258.165Z" fill="#FEEBB2"/>
    </g>
    <g style="mix-blend-mode:multiply">
      <path d="M229.086 258.166C229.086 258.166 229.086 258.392 228.989 258.488L183.985 336.47C183.791 336.793 183.404 336.889 183.082 336.696C182.76 336.502 182.663 336.115 182.856 335.793L227.861 257.811C228.054 257.489 228.441 257.392 228.764 257.553C228.989 257.682 229.086 257.908 229.086 258.134L229.086 258.166Z" fill="#FEEBB2"/>
    </g>
    <g style="mix-blend-mode:multiply">
      <path d="M229.086 414.129C229.086 414.355 228.957 414.58 228.764 414.709C228.441 414.903 228.054 414.774 227.861 414.451L182.856 336.47C182.663 336.147 182.792 335.76 183.082 335.567C183.404 335.373 183.791 335.502 183.985 335.792L228.989 413.774C228.989 413.774 229.086 414 229.086 414.097L229.086 414.129Z" fill="#FEEBB2"/>
    </g>
    <g style="mix-blend-mode:multiply">
      <path d="M319.094 414.129C319.094 414.484 318.804 414.774 318.449 414.774L228.44 414.774C228.085 414.774 227.795 414.484 227.795 414.129C227.795 413.775 228.085 413.484 228.44 413.484L318.449 413.484C318.804 413.484 319.094 413.775 319.094 414.129Z" fill="#FEEBB2"/>
    </g>
    <g style="mix-blend-mode:multiply">
      <path d="M364.1 336.147C364.1 336.147 364.1 336.372 364.003 336.469L318.998 414.419C318.805 414.741 318.418 414.838 318.096 414.644C317.773 414.451 317.676 414.064 317.87 413.741L362.875 335.792C363.068 335.469 363.455 335.373 363.777 335.566C364.003 335.695 364.1 335.921 364.1 336.147Z" fill="#FEEBB2"/>
    </g>
    <g style="mix-blend-mode:multiply">
      <path d="M364.1 336.146C364.1 336.372 363.971 336.598 363.777 336.727C363.455 336.92 363.068 336.791 362.875 336.501L317.87 258.519C317.676 258.197 317.805 257.81 318.096 257.616C318.418 257.423 318.805 257.552 318.998 257.874L364.003 335.856C364.003 335.856 364.1 336.082 364.1 336.179L364.1 336.146Z" fill="#FEEBB2"/>
    </g>
    <g style="mix-blend-mode:multiply">
      <path d="M319.094 414.096C319.094 414.451 318.804 414.741 318.449 414.741L228.44 414.741C228.085 414.741 227.795 414.451 227.795 414.096C227.795 413.741 228.085 413.451 228.44 413.451L318.449 413.451C318.804 413.451 319.094 413.741 319.094 414.096Z" fill="#FEEBB2"/>
    </g>
    <g style="mix-blend-mode:multiply">
      <path d="M229.086 414.097C229.086 414.097 229.086 414.323 228.989 414.419L183.985 492.401C183.791 492.724 183.404 492.82 183.082 492.659C182.76 492.466 182.663 492.079 182.856 491.756L227.861 413.774C228.054 413.452 228.441 413.355 228.764 413.548C228.989 413.677 229.086 413.903 229.086 414.129L229.086 414.097Z" fill="#FEEBB2"/>
    </g>
    <g style="mix-blend-mode:multiply">
      <path d="M229.086 570.06C229.086 570.285 228.957 570.511 228.764 570.64C228.441 570.834 228.054 570.705 227.861 570.414L182.856 492.433C182.663 492.11 182.792 491.723 183.082 491.53C183.404 491.336 183.791 491.465 183.985 491.755L228.989 569.737C228.989 569.737 229.086 569.963 229.086 570.06Z" fill="#FEEBB2"/>
    </g>
    <g style="mix-blend-mode:multiply">
      <path d="M319.094 570.061C319.094 570.416 318.804 570.706 318.449 570.706L228.44 570.706C228.085 570.706 227.795 570.416 227.795 570.061C227.795 569.706 228.085 569.416 228.44 569.416L318.449 569.416C318.804 569.416 319.094 569.706 319.094 570.061Z" fill="#FEEBB2"/>
    </g>
    <g style="mix-blend-mode:multiply">
      <path d="M319.094 570.061C319.094 570.416 318.804 570.706 318.449 570.706L228.44 570.706C228.085 570.706 227.795 570.416 227.795 570.061C227.795 569.706 228.085 569.416 228.44 569.416L318.449 569.416C318.804 569.416 319.094 569.706 319.094 570.061Z" fill="#FEEBB2"/>
    </g>
    <g style="mix-blend-mode:multiply">
      <path d="M229.086 570.061C229.086 570.061 229.086 570.286 228.989 570.383L183.985 648.365C183.791 648.687 183.404 648.784 183.082 648.591C182.76 648.397 182.663 648.01 182.856 647.688L227.861 569.706C228.054 569.383 228.441 569.287 228.764 569.48C228.989 569.609 229.086 569.835 229.086 570.061Z" fill="#FEEBB2"/>
    </g>
    <g style="mix-blend-mode:multiply">
      <path d="M184.08 336.18C184.08 336.535 183.79 336.825 183.435 336.825L93.4261 336.825C93.0715 336.825 92.7813 336.535 92.7813 336.18C92.7813 335.825 93.0715 335.535 93.4261 335.535L183.435 335.535C183.79 335.535 184.08 335.825 184.08 336.18Z" fill="#FEEBB2"/>
    </g>
    <g style="mix-blend-mode:multiply">
      <path d="M229.086 258.197C229.086 258.197 229.086 258.423 228.989 258.52L183.985 336.469C183.791 336.792 183.404 336.889 183.082 336.695C182.76 336.502 182.663 336.115 182.856 335.792L227.861 257.843C228.054 257.52 228.441 257.423 228.764 257.617C228.989 257.746 229.086 257.972 229.086 258.197Z" fill="#FEEBB2"/>
    </g>
    <g style="mix-blend-mode:multiply">
      <path d="M229.086 258.198C229.086 258.424 228.957 258.65 228.764 258.779C228.441 258.972 228.054 258.843 227.861 258.553L182.856 180.571C182.663 180.249 182.792 179.862 183.082 179.668C183.404 179.475 183.791 179.604 183.985 179.894L228.989 257.876C228.989 257.876 229.086 258.101 229.086 258.198Z" fill="#FEEBB2"/>
    </g>
    <g style="mix-blend-mode:multiply">
      <path d="M184.08 336.147C184.08 336.502 183.79 336.792 183.435 336.792L93.4261 336.792C93.0715 336.792 92.7813 336.502 92.7813 336.147C92.7813 335.792 93.0715 335.502 93.4261 335.502L183.435 335.502C183.79 335.502 184.08 335.792 184.08 336.147Z" fill="#FEEBB2"/>
    </g>
    <g style="mix-blend-mode:multiply">
      <path d="M94.0703 336.148C94.0703 336.148 94.0703 336.373 93.9736 336.47L48.9689 414.452C48.7755 414.774 48.3886 414.871 48.0663 414.71C47.7439 414.516 47.6472 414.129 47.8407 413.807L92.8452 335.825C93.0387 335.503 93.4255 335.406 93.7479 335.599C93.9736 335.728 94.0703 335.954 94.0703 336.18L94.0703 336.148Z" fill="#FEEBB2"/>
    </g>
    <g style="mix-blend-mode:multiply">
      <path d="M94.0703 492.11C94.0703 492.336 93.9413 492.562 93.7479 492.691C93.4255 492.884 93.0387 492.755 92.8452 492.465L47.8407 414.483C47.6472 414.161 47.7761 413.774 48.0663 413.58C48.3886 413.387 48.7755 413.516 48.9689 413.806L93.9736 491.788C93.9736 491.788 94.0703 492.014 94.0703 492.11Z" fill="#FEEBB2"/>
    </g>
    <g style="mix-blend-mode:multiply">
      <path d="M184.08 492.11C184.08 492.465 183.79 492.755 183.435 492.755L93.4261 492.755C93.0715 492.755 92.7813 492.465 92.7813 492.11C92.7813 491.755 93.0715 491.465 93.4261 491.465L183.435 491.465C183.79 491.465 184.08 491.755 184.08 492.11Z" fill="#FEEBB2"/>
    </g>
    <g style="mix-blend-mode:multiply">
      <path d="M229.086 414.13C229.086 414.13 229.086 414.356 228.989 414.452L183.985 492.402C183.791 492.724 183.404 492.821 183.082 492.66C182.76 492.466 182.663 492.079 182.856 491.757L227.861 413.807C228.054 413.485 228.441 413.388 228.764 413.582C228.989 413.711 229.086 413.936 229.086 414.162L229.086 414.13Z" fill="#FEEBB2"/>
    </g>
    <g style="mix-blend-mode:multiply">
      <path d="M229.086 414.129C229.086 414.355 228.957 414.58 228.764 414.709C228.441 414.903 228.054 414.774 227.861 414.451L182.856 336.47C182.663 336.147 182.792 335.76 183.082 335.567C183.404 335.373 183.791 335.502 183.985 335.792L228.989 413.774C228.989 413.774 229.086 414 229.086 414.097L229.086 414.129Z" fill="#FEEBB2"/>
    </g>
    <g style="mix-blend-mode:multiply">
      <path d="M184.08 492.079C184.08 492.433 183.79 492.724 183.435 492.724L93.4261 492.724C93.0715 492.724 92.7813 492.433 92.7813 492.079C92.7813 491.724 93.0715 491.434 93.4261 491.434L183.435 491.434C183.79 491.434 184.08 491.724 184.08 492.079Z" fill="#FEEBB2"/>
    </g>
    <g style="mix-blend-mode:multiply">
      <path d="M94.0703 492.078C94.0703 492.078 94.0703 492.304 93.9736 492.401L48.9689 570.383C48.7755 570.705 48.3886 570.802 48.0663 570.608C47.7439 570.415 47.6472 570.028 47.8407 569.705L92.8452 491.723C93.0387 491.401 93.4255 491.304 93.7479 491.498C93.9736 491.627 94.0703 491.852 94.0703 492.078Z" fill="#FEEBB2"/>
    </g>
    <g style="mix-blend-mode:multiply">
      <path d="M94.0703 648.043C94.0703 648.269 93.9413 648.494 93.7479 648.623C93.4255 648.817 93.0387 648.688 92.8452 648.398L47.8407 570.416C47.6472 570.093 47.7761 569.706 48.0663 569.513C48.3886 569.319 48.7755 569.448 48.9689 569.771L93.9736 647.753C93.9736 647.753 94.0703 647.978 94.0703 648.075L94.0703 648.043Z" fill="#FEEBB2"/>
    </g>
    <g style="mix-blend-mode:multiply">
      <path d="M184.08 648.041C184.08 648.396 183.79 648.686 183.435 648.686L93.4261 648.686C93.0715 648.686 92.7813 648.396 92.7813 648.041C92.7813 647.687 93.0715 647.396 93.4261 647.396L183.435 647.396C183.79 647.396 184.08 647.687 184.08 648.041Z" fill="#FEEBB2"/>
    </g>
    <g style="mix-blend-mode:multiply">
      <path d="M229.086 570.06C229.086 570.06 229.086 570.286 228.989 570.383L183.985 648.332C183.791 648.655 183.404 648.752 183.082 648.558C182.76 648.365 182.663 647.978 182.856 647.655L227.861 569.706C228.054 569.383 228.441 569.286 228.764 569.448C228.989 569.577 229.086 569.802 229.086 570.028L229.086 570.06Z" fill="#FEEBB2"/>
    </g>
    <g style="mix-blend-mode:multiply">
      <path d="M229.086 570.06C229.086 570.285 228.957 570.511 228.764 570.64C228.441 570.834 228.054 570.705 227.861 570.414L182.856 492.433C182.663 492.11 182.792 491.723 183.082 491.53C183.404 491.336 183.791 491.465 183.985 491.755L228.989 569.737C228.989 569.737 229.086 569.963 229.086 570.06Z" fill="#FEEBB2"/>
    </g>
    <g style="mix-blend-mode:multiply">
      <path d="M184.08 648.041C184.08 648.396 183.79 648.686 183.435 648.686L93.4261 648.686C93.0715 648.686 92.7813 648.396 92.7813 648.041C92.7813 647.687 93.0715 647.396 93.4261 647.396L183.435 647.396C183.79 647.396 184.08 647.687 184.08 648.041Z" fill="#FEEBB2"/>
    </g>
    <g style="mix-blend-mode:multiply">
      <path d="M94.0703 648.043C94.0703 648.043 94.0703 648.269 93.9736 648.365L48.9689 726.347C48.7755 726.67 48.3886 726.766 48.0663 726.573C47.7439 726.379 47.6472 725.992 47.8407 725.67L92.8452 647.688C93.0387 647.366 93.4255 647.269 93.7479 647.43C93.9736 647.559 94.0703 647.785 94.0703 648.011L94.0703 648.043Z" fill="#FEEBB2"/>
    </g>
    <g style="mix-blend-mode:multiply">
      <path d="M94.0703 804.005C94.0703 804.231 93.9413 804.456 93.7479 804.585C93.4255 804.779 93.0387 804.65 92.8452 804.36L47.8407 726.378C47.6472 726.055 47.7761 725.668 48.0663 725.475C48.3886 725.281 48.7755 725.41 48.9689 725.701L93.9736 803.682C93.9736 803.682 94.0703 803.908 94.0703 804.005Z" fill="#FEEBB2"/>
    </g>
    <g style="mix-blend-mode:multiply">
      <path d="M-0.000221309 414.774L48.4217 414.774C48.7763 414.774 49.0664 414.484 49.0664 414.129C49.0664 413.775 48.7763 413.484 48.4217 413.484L-0.000221252 413.484L-0.00022131 414.807L-0.000221309 414.774Z" fill="#FEEBB2"/>
    </g>
    <g style="mix-blend-mode:multiply">
      <path d="M94.0723 336.147C94.0723 336.147 94.0723 336.372 93.9756 336.469L48.9709 414.419C48.7774 414.741 48.3906 414.838 48.0682 414.644C47.7458 414.451 47.6492 414.064 47.8426 413.741L92.8472 335.792C93.0406 335.469 93.4275 335.373 93.7499 335.566C93.9755 335.695 94.0723 335.921 94.0723 336.147Z" fill="#FEEBB2"/>
    </g>
    <g style="mix-blend-mode:multiply">
      <path d="M-0.000221309 414.774L48.4217 414.774C48.7763 414.774 49.0664 414.484 49.0664 414.129C49.0664 413.775 48.7763 413.484 48.4217 413.484L-0.000221252 413.484L-0.00022131 414.807L-0.000221309 414.774Z" fill="#FEEBB2"/>
    </g>
    <g style="mix-blend-mode:multiply">
      <path d="M-0.00022131 570.738L48.4217 570.738C48.7763 570.738 49.0664 570.448 49.0664 570.061C49.0664 569.674 48.7763 569.416 48.4217 569.416L-0.000221252 569.416L-0.00022131 570.738Z" fill="#FEEBB2"/>
    </g>
    <g style="mix-blend-mode:multiply">
      <path d="M94.0723 492.078C94.0723 492.078 94.0723 492.304 93.9756 492.401L48.9709 570.35C48.7774 570.673 48.3906 570.77 48.0682 570.576C47.7458 570.383 47.6492 569.996 47.8426 569.673L92.8472 491.723C93.0406 491.401 93.4275 491.304 93.7499 491.498C93.9755 491.627 94.0723 491.852 94.0723 492.078Z" fill="#FEEBB2"/>
    </g>
    <g style="mix-blend-mode:multiply">
      <path d="M94.0723 492.078C94.0723 492.304 93.9433 492.53 93.7499 492.659C93.4275 492.852 93.0406 492.723 92.8472 492.401L47.8426 414.419C47.6492 414.096 47.7781 413.709 48.0682 413.516C48.3906 413.322 48.7775 413.451 48.9709 413.742L93.9756 491.723C93.9756 491.723 94.0723 491.949 94.0723 492.046L94.0723 492.078Z" fill="#FEEBB2"/>
    </g>
    <g style="mix-blend-mode:multiply">
      <path d="M-0.000221309 570.706L48.4217 570.706C48.7763 570.706 49.0664 570.416 49.0664 570.061C49.0664 569.706 48.7763 569.416 48.4217 569.416L-0.000221252 569.416L-0.00022131 570.738L-0.000221309 570.706Z" fill="#FEEBB2"/>
    </g>
    <g style="mix-blend-mode:multiply">
      <path d="M-0.00022131 726.668L48.4217 726.668C48.7763 726.668 49.0664 726.378 49.0664 725.991C49.0664 725.604 48.7763 725.346 48.4217 725.346L-0.000221252 725.346L-0.00022131 726.668Z" fill="#FEEBB2"/>
    </g>
    <g style="mix-blend-mode:multiply">
      <path d="M94.0703 648.043C94.0703 648.043 94.0703 648.269 93.9736 648.365L48.9689 726.315C48.7755 726.637 48.3886 726.734 48.0663 726.541C47.7439 726.347 47.6472 725.96 47.8407 725.638L92.8452 647.688C93.0387 647.366 93.4255 647.269 93.7479 647.43C93.9736 647.559 94.0703 647.785 94.0703 648.011L94.0703 648.043Z" fill="#FEEBB2"/>
    </g>
    <g style="mix-blend-mode:multiply">
      <path d="M94.0703 648.042C94.0703 648.268 93.9413 648.493 93.7479 648.622C93.4255 648.816 93.0387 648.687 92.8452 648.397L47.8407 570.415C47.6472 570.092 47.7761 569.705 48.0663 569.512C48.3886 569.318 48.7755 569.447 48.9689 569.738L93.9736 647.719C93.9736 647.719 94.0703 647.945 94.0703 648.042Z" fill="#FEEBB2"/>
    </g>
    <g style="mix-blend-mode:multiply">
      <path d="M-0.000221309 726.669L48.4217 726.669C48.7763 726.669 49.0664 726.379 49.0664 726.024C49.0664 725.669 48.7763 725.379 48.4217 725.379L-0.000221252 725.379L-0.00022131 726.701L-0.000221309 726.669Z" fill="#FEEBB2"/>
    </g>
    <g style="mix-blend-mode:multiply">
      <path d="M94.0723 803.972C94.0723 804.198 93.9433 804.424 93.7499 804.553C93.4275 804.747 93.0406 804.618 92.8472 804.327L47.8426 726.345C47.6492 726.023 47.7781 725.636 48.0682 725.442C48.3906 725.249 48.7775 725.378 48.9709 725.7L93.9756 803.682C93.9756 803.682 94.0723 803.908 94.0723 804.005L94.0723 803.972Z" fill="#FEEBB2"/>
    </g>
  </g>
  <defs>
    <clipPath id="clip0_2_5814">
      <rect width="1105" height="1050" fill="white" transform="translate(1050) rotate(90)"/>
    </clipPath>
  </defs>
</svg>
