<svg width="291" height="291" fill="none" xmlns="http://www.w3.org/2000/svg"><path d="M98.7 37.242h17.55v-8.62c0-4.742 2.633-8.622 5.85-8.622h46.8c3.217 0 5.85 3.88 5.85 8.621v8.621h17.55c3.101.012 6.072 1.832 8.265 5.063 2.192 3.23 3.427 10.073 3.435 14.642v179.811c0 9.479-5.262 17.242-11.7 17.242H98.7c-6.432 0-11.7-7.763-11.7-17.242V56.948c0-9.488 5.268-19.706 11.7-19.706Zm-2.925 187.532c0 2.332 1.343 4.594 2.925 4.594h93.6c1.588 0 2.925-2.262 2.925-4.594V71.11c0-2.34-1.337-4.31-2.925-4.31H98.7c-1.582 0-2.925 1.97-2.925 4.31v153.664Z" fill="#000" fill-opacity=".87"/><path d="M110.798 192.421h69.429c3.182 0 5.785 2.771 5.785 6.158v12.316c0 3.387-2.603 6.158-5.785 6.158h-69.429c-3.182 0-5.786-2.771-5.786-6.158v-12.316c0-3.387 2.604-6.158 5.786-6.158ZM110.798 155.474h69.429c3.182 0 5.785 2.771 5.785 6.158v12.315c0 3.387-2.603 6.158-5.785 6.158h-69.429c-3.182 0-5.786-2.771-5.786-6.158v-12.315c0-3.387 2.604-6.158 5.786-6.158ZM110.798 118.526h69.429c3.182 0 5.785 2.771 5.785 6.158V137c0 3.387-2.603 6.158-5.785 6.158h-69.429c-3.182 0-5.786-2.771-5.786-6.158v-12.316c0-3.387 2.604-6.158 5.786-6.158ZM110.798 81.579h69.429c3.182 0 5.785 2.77 5.785 6.158v12.315c0 3.387-2.603 6.158-5.785 6.158h-69.429c-3.182 0-5.786-2.771-5.786-6.158V87.737c0-3.387 2.604-6.158 5.786-6.158Z" fill="#000" fill-opacity=".87"/></svg>