<svg width="40" height="96" viewBox="0 0 40 96" fill="none" xmlns="http://www.w3.org/2000/svg">
  <mask id="mask0_21_3679" style="mask-type:alpha" maskUnits="userSpaceOnUse" x="0" y="0" width="40" height="96">
    <path d="M0 0H40V96H0V0Z" fill="#FDBD00"/>
  </mask>
  <g mask="url(#mask0_21_3679)">
    <ellipse cx="39.6479" cy="47.1349" rx="1.2377" ry="1.28255" fill="#7D5E00"/>
    <path d="M43.3598 47.1337C43.3598 49.2587 41.6974 50.9814 39.6467 50.9814C37.596 50.9814 35.9336 49.2587 35.9336 47.1337C35.9336 45.0087 37.596 43.2861 39.6467 43.2861C41.6974 43.2861 43.3598 45.0087 43.3598 47.1337ZM36.8834 47.1337C36.8834 48.7151 38.1206 49.9972 39.6467 49.9972C41.1728 49.9972 42.41 48.7151 42.41 47.1337C42.41 45.5523 41.1728 44.2703 39.6467 44.2703C38.1206 44.2703 36.8834 45.5523 36.8834 47.1337Z" fill="#7D5E00"/>
    <path d="M45.8361 47.1346C45.8361 50.6763 43.0654 53.5474 39.6476 53.5474C36.2298 53.5474 33.4591 50.6763 33.4591 47.1346C33.4591 43.593 36.2298 40.7219 39.6476 40.7219C43.0654 40.7219 45.8361 43.593 45.8361 47.1346ZM34.4958 47.1346C34.4958 50.083 36.8023 52.4731 39.6476 52.4731C42.4929 52.4731 44.7994 50.083 44.7994 47.1346C44.7994 44.1863 42.4929 41.7962 39.6476 41.7962C36.8023 41.7962 34.4958 44.1863 34.4958 47.1346Z" fill="#7D5E00"/>
    <path d="M48.3122 47.1354C48.3122 52.0937 44.4333 56.1132 39.6483 56.1132C34.8634 56.1132 30.9844 52.0937 30.9844 47.1354C30.9844 42.177 34.8634 38.1575 39.6483 38.1575C44.4333 38.1575 48.3122 42.177 48.3122 47.1354ZM31.8935 47.1354C31.8935 51.5734 35.3655 55.1711 39.6483 55.1711C43.9312 55.1711 47.4031 51.5734 47.4031 47.1354C47.4031 42.6973 43.9312 39.0996 39.6483 39.0996C35.3655 39.0996 31.8935 42.6973 31.8935 47.1354Z" fill="#7D5E00"/>
    <path d="M50.7865 47.1342C50.7865 53.5092 45.7992 58.6771 39.6472 58.6771C33.4951 58.6771 28.5078 53.5092 28.5078 47.1342C28.5078 40.7592 33.4951 35.5912 39.6472 35.5912C45.7992 35.5912 50.7865 40.7592 50.7865 47.1342ZM29.353 47.1342C29.353 53.0255 33.9619 57.8013 39.6472 57.8013C45.3324 57.8013 49.9413 53.0255 49.9413 47.1342C49.9413 41.2429 45.3324 36.4671 39.6472 36.4671C33.9619 36.4671 29.353 41.2429 29.353 47.1342Z" fill="#7D5E00"/>
    <path d="M53.2627 47.135C53.2627 54.9267 47.1672 61.243 39.648 61.243C32.1287 61.243 26.0332 54.9267 26.0332 47.135C26.0332 39.3433 32.1287 33.027 39.648 33.027C47.1672 33.027 53.2627 39.3433 53.2627 47.135ZM26.9044 47.135C26.9044 54.4281 32.6099 60.3403 39.648 60.3403C46.6861 60.3403 52.3916 54.4281 52.3916 47.135C52.3916 39.8419 46.6861 33.9297 39.648 33.9297C32.6099 33.9297 26.9044 39.8419 26.9044 47.135Z" fill="#7D5E00"/>
    <path d="M55.737 47.1338C55.737 56.3421 48.5332 63.807 39.6468 63.807C30.7605 63.807 23.5566 56.3421 23.5566 47.1338C23.5566 37.9255 30.7605 30.4607 39.6468 30.4607C48.5332 30.4607 55.737 37.9255 55.737 47.1338ZM24.2626 47.1338C24.2626 55.9381 31.1504 63.0754 39.6468 63.0754C48.1432 63.0754 55.031 55.9381 55.031 47.1338C55.031 38.3295 48.1432 31.1923 39.6468 31.1923C31.1504 31.1923 24.2626 38.3295 24.2626 47.1338Z" fill="#7D5E00"/>
    <path d="M58.2132 47.1346C58.2132 57.7596 49.9011 66.3729 39.6476 66.3729C29.3941 66.3729 21.082 57.7596 21.082 47.1346C21.082 36.5096 29.3941 27.8964 39.6476 27.8964C49.9011 27.8964 58.2132 36.5096 58.2132 47.1346ZM21.8966 47.1346C21.8966 57.2934 29.844 65.5287 39.6476 65.5287C49.4512 65.5287 57.3986 57.2934 57.3986 47.1346C57.3986 36.9758 49.4512 28.7405 39.6476 28.7405C29.844 28.7405 21.8966 36.9758 21.8966 47.1346Z" fill="#7D5E00"/>
    <ellipse cx="22.3199" cy="95.8703" rx="1.2377" ry="1.28255" fill="#7D5E00"/>
    <path d="M26.0338 95.8692C26.0338 97.9942 24.3714 99.7168 22.3207 99.7168C20.27 99.7168 18.6076 97.9942 18.6076 95.8692C18.6076 93.7442 20.27 92.0215 22.3207 92.0215C24.3714 92.0215 26.0338 93.7442 26.0338 95.8692ZM19.5574 95.8692C19.5574 97.4506 20.7946 98.7326 22.3207 98.7326C23.8469 98.7326 25.084 97.4506 25.084 95.8692C25.084 94.2877 23.8469 93.0057 22.3207 93.0057C20.7946 93.0057 19.5574 94.2877 19.5574 95.8692Z" fill="#7D5E00"/>
    <path d="M28.5081 95.87C28.5081 99.4117 25.7374 102.283 22.3196 102.283C18.9017 102.283 16.1311 99.4117 16.1311 95.87C16.1311 92.3283 18.9017 89.4572 22.3196 89.4572C25.7374 89.4572 28.5081 92.3283 28.5081 95.87ZM17.1678 95.87C17.1678 98.8184 19.4743 101.208 22.3196 101.208C25.1648 101.208 27.4714 98.8184 27.4714 95.87C27.4714 92.9216 25.1648 90.5315 22.3196 90.5315C19.4743 90.5315 17.1678 92.9216 17.1678 95.87Z" fill="#7D5E00"/>
    <path d="M30.9843 95.8708C30.9843 100.829 27.1053 104.849 22.3204 104.849C17.5354 104.849 13.6564 100.829 13.6564 95.8708C13.6564 90.9125 17.5354 86.893 22.3204 86.893C27.1053 86.893 30.9843 90.9125 30.9843 95.8708ZM14.5656 95.8708C14.5656 100.309 18.0375 103.907 22.3204 103.907C26.6032 103.907 30.0752 100.309 30.0752 95.8708C30.0752 91.4328 26.6032 87.8351 22.3204 87.8351C18.0375 87.8351 14.5656 91.4328 14.5656 95.8708Z" fill="#7D5E00"/>
    <path d="M33.4586 95.8696C33.4586 102.245 28.4713 107.413 22.3192 107.413C16.1671 107.413 11.1799 102.245 11.1799 95.8696C11.1799 89.4946 16.1671 84.3267 22.3192 84.3267C28.4713 84.3267 33.4586 89.4946 33.4586 95.8696ZM12.0251 95.8696C12.0251 101.761 16.6339 106.537 22.3192 106.537C28.0045 106.537 32.6134 101.761 32.6134 95.8696C32.6134 89.9783 28.0045 85.2025 22.3192 85.2025C16.6339 85.2025 12.0251 89.9783 12.0251 95.8696Z" fill="#7D5E00"/>
    <path d="M35.9348 95.8704C35.9348 103.662 29.8392 109.978 22.32 109.978C14.8008 109.978 8.70527 103.662 8.70527 95.8704C8.70527 88.0788 14.8008 81.7624 22.32 81.7624C29.8392 81.7624 35.9348 88.0788 35.9348 95.8704ZM9.57643 95.8704C9.57643 103.164 15.2819 109.076 22.32 109.076C29.3581 109.076 35.0636 103.164 35.0636 95.8704C35.0636 88.5773 29.3581 82.6651 22.32 82.6651C15.2819 82.6651 9.57643 88.5773 9.57643 95.8704Z" fill="#7D5E00"/>
    <path d="M38.411 95.8693C38.411 105.078 31.2072 112.542 22.3208 112.542C13.4345 112.542 6.23066 105.078 6.23066 95.8693C6.23066 86.6609 13.4345 79.1961 22.3208 79.1961C31.2072 79.1961 38.411 86.6609 38.411 95.8693ZM6.93666 95.8693C6.93666 104.674 13.8244 111.811 22.3208 111.811C30.8173 111.811 37.705 104.674 37.705 95.8693C37.705 87.065 30.8173 79.9277 22.3208 79.9277C13.8244 79.9277 6.93666 87.065 6.93666 95.8693Z" fill="#7D5E00"/>
    <path d="M40.8852 95.8701C40.8852 106.495 32.5732 115.108 22.3197 115.108C12.0662 115.108 3.7541 106.495 3.7541 95.8701C3.7541 85.2451 12.0662 76.6318 22.3197 76.6318C32.5732 76.6318 40.8852 85.2451 40.8852 95.8701ZM4.56872 95.8701C4.56872 106.029 12.5161 114.264 22.3197 114.264C32.1233 114.264 40.0706 106.029 40.0706 95.8701C40.0706 85.7113 32.1233 77.476 22.3197 77.476C12.5161 77.476 4.56872 85.7113 4.56872 95.8701Z" fill="#7D5E00"/>
    <path d="M1.27779 47.1337C1.27779 49.2587 -0.384626 50.9814 -2.43532 50.9814C-4.48602 50.9814 -6.14844 49.2587 -6.14844 47.1337C-6.14844 45.0087 -4.48602 43.2861 -2.43532 43.2861C-0.384626 43.2861 1.27779 45.0087 1.27779 47.1337ZM-5.19863 47.1337C-5.19863 48.7151 -3.96146 49.9972 -2.43532 49.9972C-0.909188 49.9972 0.327989 48.7151 0.327989 47.1337C0.327989 45.5523 -0.909188 44.2703 -2.43532 44.2703C-3.96146 44.2703 -5.19863 45.5523 -5.19863 47.1337Z" fill="#7D5E00"/>
    <path d="M3.7541 47.1346C3.7541 50.6763 0.983401 53.5474 -2.43443 53.5474C-5.85225 53.5474 -8.62295 50.6763 -8.62295 47.1346C-8.62295 43.593 -5.85225 40.7219 -2.43443 40.7219C0.983401 40.7219 3.7541 43.593 3.7541 47.1346ZM-7.58625 47.1346C-7.58625 50.083 -5.2797 52.4731 -2.43443 52.4731C0.410845 52.4731 2.71739 50.083 2.71739 47.1346C2.71739 44.1863 0.410845 41.7962 -2.43443 41.7962C-5.2797 41.7962 -7.58625 44.1863 -7.58625 47.1346Z" fill="#7D5E00"/>
    <path d="M6.23021 47.1354C6.23021 52.0937 2.35124 56.1132 -2.43372 56.1132C-7.21868 56.1132 -11.0977 52.0937 -11.0977 47.1354C-11.0977 42.177 -7.21868 38.1575 -2.43372 38.1575C2.35124 38.1575 6.23021 42.177 6.23021 47.1354ZM-10.1885 47.1354C-10.1885 51.5734 -6.71657 55.1711 -2.43372 55.1711C1.84913 55.1711 5.32107 51.5734 5.32107 47.1354C5.32107 42.6973 1.84913 39.0996 -2.43372 39.0996C-6.71657 39.0996 -10.1885 42.6973 -10.1885 47.1354Z" fill="#7D5E00"/>
    <path d="M8.70447 47.1342C8.70447 53.5092 3.71722 58.6771 -2.43487 58.6771C-8.58696 58.6771 -13.5742 53.5092 -13.5742 47.1342C-13.5742 40.7592 -8.58696 35.5912 -2.43487 35.5912C3.71722 35.5912 8.70447 40.7592 8.70447 47.1342ZM-12.729 47.1342C-12.729 53.0255 -8.12017 57.8013 -2.43487 57.8013C3.25042 57.8013 7.85925 53.0255 7.85925 47.1342C7.85925 41.2429 3.25042 36.4671 -2.43487 36.4671C-8.12017 36.4671 -12.729 41.2429 -12.729 47.1342Z" fill="#7D5E00"/>
    <path d="M11.1807 47.135C11.1807 54.9267 5.08515 61.243 -2.43407 61.243C-9.9533 61.243 -16.0488 54.9267 -16.0488 47.135C-16.0488 39.3433 -9.9533 33.027 -2.43407 33.027C5.08515 33.027 11.1807 39.3433 11.1807 47.135ZM-15.1777 47.135C-15.1777 54.4281 -9.47217 60.3403 -2.43407 60.3403C4.60402 60.3403 10.3095 54.4281 10.3095 47.135C10.3095 39.8419 4.60402 33.9297 -2.43407 33.9297C-9.47217 33.9297 -15.1777 39.8419 -15.1777 47.135Z" fill="#7D5E00"/>
    <path d="M13.6549 47.1338C13.6549 56.3421 6.45113 63.807 -2.43523 63.807C-11.3216 63.807 -18.5254 56.3421 -18.5254 47.1338C-18.5254 37.9255 -11.3216 30.4607 -2.43523 30.4607C6.45113 30.4607 13.6549 37.9255 13.6549 47.1338ZM-17.8194 47.1338C-17.8194 55.9381 -10.9317 63.0754 -2.43523 63.0754C6.06121 63.0754 12.9489 55.9381 12.9489 47.1338C12.9489 38.3295 6.06121 31.1923 -2.43523 31.1923C-10.9317 31.1923 -17.8194 38.3295 -17.8194 47.1338Z" fill="#7D5E00"/>
    <path d="M16.1311 47.1346C16.1311 57.7596 7.81906 66.3729 -2.43443 66.3729C-12.6879 66.3729 -21 57.7596 -21 47.1346C-21 36.5096 -12.6879 27.8964 -2.43443 27.8964C7.81906 27.8964 16.1311 36.5096 16.1311 47.1346ZM-20.1854 47.1346C-20.1854 57.2934 -12.238 65.5287 -2.43443 65.5287C7.36916 65.5287 15.3165 57.2934 15.3165 47.1346C15.3165 36.9758 7.36916 28.7405 -2.43443 28.7405C-12.238 28.7405 -20.1854 36.9758 -20.1854 47.1346Z" fill="#7D5E00"/>
    <path d="M26.0337 -1.60561C26.0337 0.519383 24.3712 2.24203 22.3205 2.24203C20.2698 2.24203 18.6074 0.519383 18.6074 -1.60561C18.6074 -3.73061 20.2698 -5.45326 22.3205 -5.45326C24.3712 -5.45326 26.0337 -3.73061 26.0337 -1.60561ZM19.5572 -1.60561C19.5572 -0.0241846 20.7944 1.25782 22.3205 1.25782C23.8467 1.25782 25.0838 -0.0241846 25.0838 -1.60561C25.0838 -3.18704 23.8467 -4.46905 22.3205 -4.46905C20.7944 -4.46905 19.5572 -3.18704 19.5572 -1.60561Z" fill="#7D5E00"/>
    <path d="M28.5079 -1.60479C28.5079 1.93688 25.7372 4.80796 22.3194 4.80796C18.9016 4.80796 16.1309 1.93688 16.1309 -1.60479C16.1309 -5.14645 18.9016 -8.01753 22.3194 -8.01753C25.7372 -8.01753 28.5079 -5.14645 28.5079 -1.60479ZM17.1676 -1.60479C17.1676 1.34358 19.4741 3.73369 22.3194 3.73369C25.1647 3.73369 27.4712 1.34358 27.4712 -1.60479C27.4712 -4.55315 25.1647 -6.94327 22.3194 -6.94327C19.4741 -6.94327 17.1676 -4.55315 17.1676 -1.60479Z" fill="#7D5E00"/>
    <path d="M30.9841 -1.60396C30.9841 3.35437 27.1051 7.37389 22.3202 7.37389C17.5352 7.37389 13.6562 3.35437 13.6562 -1.60396C13.6562 -6.56228 17.5352 -10.5818 22.3202 -10.5818C27.1051 -10.5818 30.9841 -6.56228 30.9841 -1.60396ZM14.5654 -1.60396C14.5654 2.83407 18.0373 6.4318 22.3202 6.4318C26.603 6.4318 30.075 2.83407 30.075 -1.60396C30.075 -6.04199 26.603 -9.63972 22.3202 -9.63972C18.0373 -9.63972 14.5654 -6.04199 14.5654 -1.60396Z" fill="#7D5E00"/>
    <path d="M33.4584 -1.60514C33.4584 4.76985 28.4711 9.9378 22.319 9.9378C16.1669 9.9378 11.1797 4.76985 11.1797 -1.60514C11.1797 -7.98013 16.1669 -13.1481 22.319 -13.1481C28.4711 -13.1481 33.4584 -7.98013 33.4584 -1.60514ZM12.0249 -1.60514C12.0249 4.28614 16.6337 9.06196 22.319 9.06196C28.0043 9.06196 32.6132 4.28614 32.6132 -1.60514C32.6132 -7.49642 28.0043 -12.2722 22.319 -12.2722C16.6337 -12.2722 12.0249 -7.49642 12.0249 -1.60514Z" fill="#7D5E00"/>
    <path d="M35.9346 -1.60431C35.9346 6.18734 29.8391 12.5037 22.3198 12.5037C14.8006 12.5037 8.70508 6.18734 8.70508 -1.60431C8.70508 -9.39597 14.8006 -15.7124 22.3198 -15.7124C29.8391 -15.7124 35.9346 -9.39597 35.9346 -1.60431ZM9.57623 -1.60431C9.57623 5.68878 15.2817 11.601 22.3198 11.601C29.3579 11.601 35.0634 5.68878 35.0634 -1.60431C35.0634 -8.89741 29.3579 -14.8096 22.3198 -14.8096C15.2817 -14.8096 9.57623 -8.89741 9.57623 -1.60431Z" fill="#7D5E00"/>
    <path d="M38.4108 -1.60551C38.4108 7.60281 31.207 15.0676 22.3206 15.0676C13.4343 15.0676 6.23047 7.60281 6.23047 -1.60551C6.23047 -10.8138 13.4343 -18.2787 22.3206 -18.2787C31.207 -18.2787 38.4108 -10.8138 38.4108 -1.60551ZM6.93647 -1.60551C6.93647 7.19877 13.8242 14.336 22.3206 14.336C30.8171 14.336 37.7048 7.19877 37.7048 -1.60551C37.7048 -10.4098 30.8171 -17.5471 22.3206 -17.5471C13.8242 -17.5471 6.93647 -10.4098 6.93647 -1.60551Z" fill="#7D5E00"/>
    <path d="M40.8851 -1.60468C40.8851 9.0203 32.573 17.6336 22.3195 17.6336C12.066 17.6336 3.75391 9.0203 3.75391 -1.60468C3.75391 -12.2297 12.066 -20.8429 22.3195 -20.8429C32.573 -20.8429 40.8851 -12.2297 40.8851 -1.60468ZM4.56852 -1.60468C4.56852 8.5541 12.5159 16.7894 22.3195 16.7894C32.1231 16.7894 40.0704 8.5541 40.0704 -1.60468C40.0704 -11.7635 32.1231 -19.9988 22.3195 -19.9988C12.5159 -19.9988 4.56852 -11.7635 4.56852 -1.60468Z" fill="#7D5E00"/>
  </g>
</svg>
