<svg width="815" height="496" viewBox="0 0 815 496" fill="none" xmlns="http://www.w3.org/2000/svg"><path d="M107.13 169.78H.63V496h106.5V169.77Z" fill="#F0F1F7"/><path d="M190.97 169.78H106.8V496h84.17V169.77Z" fill="#FAFAFA"/><path d="M96.7 221.99H6.34v25.42h90.34V222Z" fill="#E0E0E0"/><path d="M13.92 225.18H8.87v19.47h5.05v-19.47Z" fill="#F0F1F7"/><path d="M19.88 229.27a1.62 1.62 0 1 1-3.23.03 1.62 1.62 0 0 1 3.23-.03ZM18.28 237.75a1.6 1.6 0 1 0 0-3.2 1.6 1.6 0 0 0 0 3.2Z" fill="#FAFAFA"/><path d="M31.28 227.67h-4.97v14.94h4.97v-14.94ZM38.46 227.67h-4.97v14.94h4.97v-14.94ZM45.65 227.67h-4.97v14.94h4.97v-14.94ZM52.83 227.67h-4.97v14.94h4.97v-14.94ZM60 227.67h-4.97v14.94H60v-14.94ZM67.18 227.67h-4.97v14.94h4.97v-14.94ZM74.36 227.67H69.4v14.94h4.97v-14.94ZM81.55 227.67h-4.97v14.94h4.97v-14.94ZM88.73 227.67h-4.97v14.94h4.97v-14.94ZM95.9 227.67h-4.96v14.94h4.97v-14.94Z" fill="#F0F1F7"/><path d="M96.7 262.72H6.34v25.43h90.34v-25.43Z" fill="#E0E0E0"/><path d="M13.92 265.92H8.87v19.47h5.05v-19.47Z" fill="#F0F1F7"/><path d="M19.88 270.06a1.62 1.62 0 1 1-3.23.02 1.62 1.62 0 0 1 3.23-.02ZM19.88 276.9a1.62 1.62 0 1 1-3.23 0 1.62 1.62 0 0 1 3.23 0Z" fill="#FAFAFA"/><path d="M31.28 268.4h-4.97v14.95h4.97V268.4ZM38.46 268.4h-4.97v14.95h4.97V268.4ZM45.65 268.4h-4.97v14.95h4.97V268.4ZM52.83 268.4h-4.97v14.95h4.97V268.4ZM60 268.4h-4.97v14.95H60V268.4ZM67.18 268.4h-4.97v14.95h4.97V268.4ZM74.36 268.4H69.4v14.95h4.97V268.4ZM81.55 268.4h-4.97v14.95h4.97V268.4ZM88.73 268.4h-4.97v14.95h4.97V268.4ZM95.9 268.4h-4.96v14.95h4.97V268.4Z" fill="#F0F1F7"/><path d="M96.7 303.46H6.34v25.43h90.34v-25.43Z" fill="#E0E0E0"/><path d="M13.92 306.66H8.87v19.47h5.05v-19.47Z" fill="#F0F1F7"/><path d="M19.88 310.75a1.62 1.62 0 1 1-3.23.02 1.62 1.62 0 0 1 3.23-.02ZM18.28 319.23a1.6 1.6 0 1 0 0-3.21 1.6 1.6 0 0 0 0 3.2Z" fill="#FAFAFA"/><path d="M31.28 309.14h-4.97v14.95h4.97v-14.95ZM38.46 309.14h-4.97v14.95h4.97v-14.95ZM45.65 309.14h-4.97v14.95h4.97v-14.95ZM52.83 309.14h-4.97v14.95h4.97v-14.95ZM60 309.14h-4.97v14.95H60v-14.95ZM67.18 309.14h-4.97v14.95h4.97v-14.95ZM74.36 309.14H69.4v14.95h4.97v-14.95ZM81.55 309.14h-4.97v14.95h4.97v-14.95ZM88.73 309.14h-4.97v14.95h4.97v-14.95ZM95.9 309.14h-4.96v14.95h4.97v-14.95Z" fill="#F0F1F7"/><path d="M96.7 344.2H6.34v25.43h90.34V344.2Z" fill="#E0E0E0"/><path d="M13.92 347.4H8.87v19.46h5.05V347.4Z" fill="#F0F1F7"/><path d="M19.88 351.48a1.62 1.62 0 1 1-3.23.03 1.62 1.62 0 0 1 3.23-.03ZM18.28 359.96a1.6 1.6 0 1 0 0-3.2 1.6 1.6 0 0 0 0 3.2Z" fill="#FAFAFA"/><path d="M31.28 349.88h-4.97v14.94h4.97v-14.94ZM38.46 349.88h-4.97v14.94h4.97v-14.94ZM45.65 349.88h-4.97v14.94h4.97v-14.94ZM52.83 349.88h-4.97v14.94h4.97v-14.94ZM60 349.88h-4.97v14.94H60v-14.94ZM67.18 349.88h-4.97v14.94h4.97v-14.94ZM74.36 349.88H69.4v14.94h4.97v-14.94ZM81.55 349.88h-4.97v14.94h4.97v-14.94ZM88.73 349.88h-4.97v14.94h4.97v-14.94ZM95.9 349.88h-4.96v14.94h4.97v-14.94Z" fill="#F0F1F7"/><path d="M96.7 384.92H6.34v25.43h90.34v-25.43Z" fill="#E0E0E0"/><path d="M13.92 388.13H8.87v19.47h5.05v-19.47Z" fill="#F0F1F7"/><path d="M19.88 392.22a1.61 1.61 0 1 1-3.23.02 1.61 1.61 0 0 1 3.23-.02ZM18.28 400.7a1.6 1.6 0 1 0 0-3.2 1.6 1.6 0 0 0 0 3.2Z" fill="#FAFAFA"/><path d="M31.28 390.62h-4.97v14.94h4.97v-14.94ZM38.46 390.62h-4.97v14.94h4.97v-14.94ZM45.65 390.62h-4.97v14.94h4.97v-14.94ZM52.83 390.62h-4.97v14.94h4.97v-14.94ZM60 390.62h-4.97v14.94H60v-14.94ZM67.18 390.62h-4.97v14.94h4.97v-14.94ZM74.36 390.62H69.4v14.94h4.97v-14.94ZM81.55 390.62h-4.97v14.94h4.97v-14.94ZM88.73 390.62h-4.97v14.94h4.97v-14.94ZM95.9 390.62h-4.96v14.94h4.97v-14.94Z" fill="#F0F1F7"/><path d="M96.7 425.66H6.34v25.43h90.34v-25.43Z" fill="#E0E0E0"/><path d="M13.92 428.86H8.87v19.46h5.05v-19.46Z" fill="#F0F1F7"/><path d="M19.88 432.9a1.62 1.62 0 1 1-3.23.03 1.62 1.62 0 0 1 3.23-.02ZM18.28 441.44a1.6 1.6 0 1 0 0-3.21 1.6 1.6 0 0 0 0 3.2Z" fill="#FAFAFA"/><path d="M31.28 431.35h-4.97v14.95h4.97v-14.95ZM38.46 431.35h-4.97v14.95h4.97v-14.95ZM45.65 431.35h-4.97v14.95h4.97v-14.95ZM52.83 431.35h-4.97v14.95h4.97v-14.95ZM60 431.35h-4.97v14.95H60v-14.95ZM67.18 431.35h-4.97v14.95h4.97v-14.95ZM74.36 431.35H69.4v14.95h4.97v-14.95ZM81.55 431.35h-4.97v14.95h4.97v-14.95ZM88.73 431.35h-4.97v14.95h4.97v-14.95ZM95.9 431.35h-4.96v14.95h4.97v-14.95Z" fill="#F0F1F7"/><path d="M96.7 466.4H6.34v25.43h90.34V466.4Z" fill="#E0E0E0"/><path d="M13.92 469.6H8.87v19.46h5.05V469.6Z" fill="#F0F1F7"/><path d="M19.88 473.7a1.62 1.62 0 1 1-3.23.02 1.62 1.62 0 0 1 3.23-.03ZM19.88 480.57a1.62 1.62 0 1 1-3.23.03 1.62 1.62 0 0 1 3.23-.03Z" fill="#FAFAFA"/><path d="M31.28 472.09h-4.97v14.95h4.97v-14.95ZM38.46 472.09h-4.97v14.95h4.97v-14.95ZM45.65 472.09h-4.97v14.95h4.97v-14.95ZM52.83 472.09h-4.97v14.95h4.97v-14.95ZM60 472.09h-4.97v14.95H60v-14.95ZM67.18 472.09h-4.97v14.95h4.97v-14.95ZM74.36 472.09H69.4v14.95h4.97v-14.95ZM81.55 472.09h-4.97v14.95h4.97v-14.95ZM88.73 472.09h-4.97v14.95h4.97v-14.95ZM95.9 472.09h-4.96v14.95h4.97v-14.95Z" fill="#F0F1F7"/><path d="M62.21 221.99c-.06-.26-.1-.52-.1-.79 0-.52-.07-1.28-.1-2.25-.01-.98 0-2.19-.11-3.62a22.56 22.56 0 0 0-.63-4.64 16.23 16.23 0 0 0-2.41-5.07 11.1 11.1 0 0 0-4.94-3.97c-2.24-.8-4.59-1.26-6.97-1.38l-7.78-.67a440.09 440.09 0 0 0-27.34-1.66c-3.5-.07-6.34-.06-8.3 0h-2.3c-.26.03-.52.03-.78 0 .25-.05.52-.09.78-.1l2.3-.16c1.95-.09 4.82-.18 8.3-.16 7.03 0 16.72.54 27.39 1.46l7.8.69c2.47.13 4.9.64 7.23 1.5 2.09.88 3.88 2.34 5.15 4.22a16.7 16.7 0 0 1 2.41 5.27c.36 1.55.54 3.14.55 4.74V221.29c-.03.23-.08.47-.15.7Z" fill="#E0E0E0"/><path d="M34.8 221.99c-.04-.25-.06-.5-.06-.75v-2.13c0-.91 0-2.05-.1-3.34a10.27 10.27 0 0 0-1.12-4.18 8.1 8.1 0 0 0-4.06-3.13 11.21 11.21 0 0 0-5.94-.59c-1.07.18-2.1.53-3.06 1.04-1 .5-1.84 1.28-2.41 2.24a3.19 3.19 0 0 0 0 3.15 4.25 4.25 0 0 0 2.69 2.03 3.37 3.37 0 0 0 3.12-.92 4.53 4.53 0 0 0 .48-6.03 6.8 6.8 0 0 0-2.4-2.1 8.97 8.97 0 0 0-2.99-.76 75.56 75.56 0 0 0-8.33-.8c-3.29-.14-5.96-.1-7.8-.1H.73c-.25.04-.5.04-.74 0 .24-.05.49-.08.74-.08l2.12-.1c1.84-.09 4.51-.2 7.83-.13 1.65 0 3.46.14 5.4.33.97.1 1.97.23 3 .36l1.56.26c.56.1 1.1.29 1.6.55a7.23 7.23 0 0 1 2.61 2.28 5.13 5.13 0 0 1-.53 6.89 4.09 4.09 0 0 1-3.73 1.07 4.9 4.9 0 0 1-3.1-2.34 3.86 3.86 0 0 1 0-3.77 6.48 6.48 0 0 1 2.63-2.5c1.03-.53 2.13-.9 3.26-1.09 2.1-.34 4.26-.1 6.24.7a8.34 8.34 0 0 1 4.27 3.4 10.21 10.21 0 0 1 1.07 4.38c.08 1.32 0 2.42 0 3.38 0 .97-.07 1.56-.1 2.13 0 .21-.02.43-.07.65ZM69.58 221.99a4.64 4.64 0 0 1-.19-.85 59.6 59.6 0 0 0-.48-2.41 47.64 47.64 0 0 0-2.66-8.6 25.04 25.04 0 0 0-7.85-10.54 14.84 14.84 0 0 0-7.24-2.73 74 74 0 0 0-8.44-.46c-11.68-.22-22.26-.18-29.92-.48-3.82-.13-6.92-.33-9.06-.47l-2.41-.22a4.34 4.34 0 0 1-.86-.12c.29-.03.57-.03.86 0l2.41.08c2.15.09 5.24.2 9.06.28 7.65.18 18.23.06 29.92.3 2.85-.02 5.7.14 8.54.46 2.7.28 5.28 1.28 7.47 2.88a22.92 22.92 0 0 1 4.97 5.28 29.72 29.72 0 0 1 2.94 5.57 43.06 43.06 0 0 1 2.86 11.15c.06.28.09.58.08.88ZM95.45 173.83H7.59v12.75h87.86v-12.75Z" fill="#E0E0E0"/><path d="M74.75 180.21H26.9v6.38h47.84v-6.38ZM261.56 90.7h-132.1v404.64h132.1V90.7Z" fill="#F0F1F7"/><path d="M365.56 90.7h-104.4v404.64h104.4V90.7Z" fill="#FAFAFA"/><path d="M248.6 155.46H136.56V187H248.6v-31.54Z" fill="#E0E0E0"/><path d="M145.96 159.43h-6.27v24.13h6.27v-24.13Z" fill="#F0F1F7"/><path d="M153.34 164.5a2 2 0 1 1-4 .03 2 2 0 0 1 4-.03ZM151.35 175.02a1.99 1.99 0 1 0 0-3.98 1.99 1.99 0 0 0 0 3.98Z" fill="#FAFAFA"/><path d="M167.48 162.5h-6.16v18.54h6.16V162.5ZM176.4 162.5h-6.17v18.54h6.17V162.5ZM185.3 162.5h-6.17v18.54h6.17V162.5ZM194.2 162.5h-6.16v18.54h6.16V162.5ZM203.1 162.5h-6.16v18.54h6.16V162.5ZM212.02 162.5h-6.17v18.54h6.17V162.5ZM220.92 162.5h-6.16v18.54h6.16V162.5ZM229.83 162.5h-6.17v18.54h6.17V162.5ZM238.74 162.5h-6.16v18.54h6.16V162.5ZM247.64 162.5h-6.16v18.54h6.16V162.5Z" fill="#F0F1F7"/><path d="M248.6 205.99H136.56v31.54H248.6V206Z" fill="#E0E0E0"/><path d="M145.96 209.95h-6.27v24.14h6.27v-24.14Z" fill="#F0F1F7"/><path d="M153.34 215.04a2 2 0 1 1-4 0 2 2 0 0 1 4 0ZM153.34 223.57a2 2 0 0 1-3.42 1.43 2 2 0 0 1 2.84-2.84 2 2 0 0 1 .58 1.4Z" fill="#FAFAFA"/><path d="M167.48 213.03h-6.16v18.55h6.16v-18.55ZM176.4 213.03h-6.17v18.55h6.17v-18.55ZM185.3 213.03h-6.17v18.55h6.17v-18.55ZM194.2 213.03h-6.16v18.55h6.16v-18.55ZM203.1 213.03h-6.16v18.55h6.16v-18.55ZM212.02 213.03h-6.17v18.55h6.17v-18.55ZM220.92 213.03h-6.16v18.55h6.16v-18.55ZM229.83 213.03h-6.17v18.55h6.17v-18.55ZM238.74 213.03h-6.16v18.55h6.16v-18.55ZM247.64 213.03h-6.16v18.55h6.16v-18.55Z" fill="#F0F1F7"/><path d="M248.6 256.51H136.56v31.55H248.6V256.5Z" fill="#E0E0E0"/><path d="M145.96 260.48h-6.27v24.14h6.27v-24.14Z" fill="#F0F1F7"/><path d="M153.34 265.56a2 2 0 1 1-4 .02 2 2 0 0 1 4-.02ZM151.35 276.08a2 2 0 1 0 0-3.98 2 2 0 0 0 0 3.98Z" fill="#FAFAFA"/><path d="M167.48 263.57h-6.16v18.54h6.16v-18.54ZM176.4 263.57h-6.17v18.54h6.17v-18.54ZM185.3 263.57h-6.17v18.54h6.17v-18.54ZM194.2 263.57h-6.16v18.54h6.16v-18.54ZM203.1 263.57h-6.16v18.54h6.16v-18.54ZM212.02 263.57h-6.17v18.54h6.17v-18.54ZM220.92 263.57h-6.16v18.54h6.16v-18.54ZM229.83 263.57h-6.17v18.54h6.17v-18.54ZM238.74 263.57h-6.16v18.54h6.16v-18.54ZM247.64 263.57h-6.16v18.54h6.16v-18.54Z" fill="#F0F1F7"/><path d="M248.6 307.04H136.56v31.55H248.6v-31.55Z" fill="#E0E0E0"/><path d="M145.96 311.01h-6.27v24.14h6.27v-24.14Z" fill="#F0F1F7"/><path d="M153.34 316.09a2 2 0 1 1-4 .02 2 2 0 0 1 4-.02ZM153.34 324.62a2 2 0 1 1-4 .02 2 2 0 0 1 4-.02Z" fill="#FAFAFA"/><path d="M167.48 314.09h-6.16v18.54h6.16v-18.54ZM176.4 314.09h-6.17v18.54h6.17v-18.54ZM185.3 314.09h-6.17v18.54h6.17v-18.54ZM194.2 314.09h-6.16v18.54h6.16v-18.54ZM203.1 314.09h-6.16v18.54h6.16v-18.54ZM212.02 314.09h-6.17v18.54h6.17v-18.54ZM220.92 314.09h-6.16v18.54h6.16v-18.54ZM229.83 314.09h-6.17v18.54h6.17v-18.54ZM238.74 314.09h-6.16v18.54h6.16v-18.54ZM247.64 314.09h-6.16v18.54h6.16v-18.54Z" fill="#F0F1F7"/><path d="M248.6 357.57H136.56v31.55H248.6v-31.55Z" fill="#E0E0E0"/><path d="M145.96 361.53h-6.27v24.14h6.27v-24.14Z" fill="#F0F1F7"/><path d="M153.34 366.62a2 2 0 1 1-4 0 2 2 0 0 1 4 0ZM151.35 377.14a1.99 1.99 0 1 0 0-3.98 1.99 1.99 0 0 0 0 3.98Z" fill="#FAFAFA"/><path d="M167.48 364.62h-6.16v18.54h6.16v-18.54ZM176.4 364.62h-6.17v18.54h6.17v-18.54ZM185.3 364.62h-6.17v18.54h6.17v-18.54ZM194.2 364.62h-6.16v18.54h6.16v-18.54ZM203.1 364.62h-6.16v18.54h6.16v-18.54ZM212.02 364.62h-6.17v18.54h6.17v-18.54ZM220.92 364.62h-6.16v18.54h6.16v-18.54ZM229.83 364.62h-6.17v18.54h6.17v-18.54ZM238.74 364.62h-6.16v18.54h6.16v-18.54ZM247.64 364.62h-6.16v18.54h6.16v-18.54Z" fill="#F0F1F7"/><path d="M248.6 408.1H136.56v31.54H248.6V408.1Z" fill="#E0E0E0"/><path d="M145.96 412.06h-6.27v24.14h6.27v-24.14Z" fill="#F0F1F7"/><path d="M153.34 417.14a2 2 0 1 1-4 .03 2 2 0 0 1 4-.03ZM153.34 425.67a2 2 0 1 1-4 .03 2 2 0 0 1 4-.03Z" fill="#FAFAFA"/><path d="M167.48 415.15h-6.16v18.54h6.16v-18.54ZM176.4 415.15h-6.17v18.54h6.17v-18.54ZM185.3 415.15h-6.17v18.54h6.17v-18.54ZM194.2 415.15h-6.16v18.54h6.16v-18.54ZM203.1 415.15h-6.16v18.54h6.16v-18.54ZM212.02 415.15h-6.17v18.54h6.17v-18.54ZM220.92 415.15h-6.16v18.54h6.16v-18.54ZM229.83 415.15h-6.17v18.54h6.17v-18.54ZM238.74 415.15h-6.16v18.54h6.16v-18.54ZM247.64 415.15h-6.16v18.54h6.16v-18.54Z" fill="#F0F1F7"/><path d="M248.6 458.63H136.56v31.54H248.6v-31.54Z" fill="#E0E0E0"/><path d="M145.96 462.6h-6.27v24.14h6.27V462.6Z" fill="#F0F1F7"/><path d="M153.34 467.68a2 2 0 1 1-4 .02 2 2 0 0 1 4-.02ZM151.35 478.2a1.99 1.99 0 1 0 0-3.99 1.99 1.99 0 0 0 0 3.98Z" fill="#FAFAFA"/><path d="M167.48 465.67h-6.16v18.54h6.16v-18.54ZM176.4 465.67h-6.17v18.54h6.17v-18.54ZM185.3 465.67h-6.17v18.54h6.17v-18.54ZM194.2 465.67h-6.16v18.54h6.16v-18.54ZM203.1 465.67h-6.16v18.54h6.16v-18.54ZM212.02 465.67h-6.17v18.54h6.17v-18.54ZM220.92 465.67h-6.16v18.54h6.16v-18.54ZM229.83 465.67h-6.17v18.54h6.17v-18.54ZM238.74 465.67h-6.16v18.54h6.16v-18.54ZM247.64 465.67h-6.16v18.54h6.16v-18.54Z" fill="#F0F1F7"/><path d="M205.84 155.46a4.3 4.3 0 0 1-.12-.97c0-.65-.08-1.59-.12-2.8-.03-1.23 0-2.71-.14-4.44a27.46 27.46 0 0 0-.78-5.74 20.36 20.36 0 0 0-2.99-6.3 13.9 13.9 0 0 0-6.13-4.92 29.63 29.63 0 0 0-8.68-1.76l-9.65-.83a503.1 503.1 0 0 0-33.92-2.06c-4.35-.1-7.86-.07-10.3-.06h-2.8c-.32.03-.65.03-.97 0 .31-.08.64-.12.96-.12l2.8-.17c2.41-.11 5.96-.22 10.32-.2 8.7 0 20.73.67 33.97 1.81l9.65.86c3.05.16 6.05.8 8.9 1.87 2.6 1.09 4.82 2.9 6.4 5.22a20.63 20.63 0 0 1 2.99 6.53c.44 1.93.66 3.9.67 5.89v7.24c.02.31 0 .63-.06.95Z" fill="#E0E0E0"/><path d="M171.86 155.46c-.07-.3-.1-.61-.09-.92v-2.64c0-1.14 0-2.53-.13-4.15-.09-1.8-.56-3.57-1.38-5.18a9.9 9.9 0 0 0-5.08-3.88 13.88 13.88 0 0 0-7.36-.74c-1.33.22-2.62.66-3.8 1.3a7.23 7.23 0 0 0-2.95 2.77 3.95 3.95 0 0 0 0 3.92 5.24 5.24 0 0 0 3.33 2.5 4.2 4.2 0 0 0 3.89-1.13 5.75 5.75 0 0 0 1.75-3.71 5.6 5.6 0 0 0-1.2-3.8 8.36 8.36 0 0 0-2.97-2.6c-1.16-.53-2.4-.85-3.67-.96a100.37 100.37 0 0 0-10.34-1c-4.08-.16-7.4-.1-9.65-.1h-2.63c-.31.03-.62.03-.93 0 .3-.09.6-.13.91-.12l2.65-.14c2.28-.09 5.6-.24 9.65-.15 2.05 0 4.3.17 6.7.41 1.21.12 2.42.28 3.72.46.64.1 1.28.18 1.94.3.7.14 1.37.37 2 .7a9.03 9.03 0 0 1 3.23 2.81 6.42 6.42 0 0 1 1.32 4.31 6.5 6.5 0 0 1-1.99 4.24 5.02 5.02 0 0 1-4.62 1.33 6.05 6.05 0 0 1-3.86-2.9 4.83 4.83 0 0 1 0-4.68 8.03 8.03 0 0 1 3.27-3.1 13.41 13.41 0 0 1 4.04-1.34c2.61-.42 5.28-.13 7.73.85a10.5 10.5 0 0 1 5.31 4.22c.84 1.7 1.3 3.56 1.33 5.45.09 1.62 0 3.04 0 4.18 0 1.15-.08 1.94-.1 2.63.01.29 0 .57-.02.86ZM215 155.46a4.5 4.5 0 0 1-.24-1.04c-.12-.69-.32-1.7-.6-3a58.38 58.38 0 0 0-3.31-10.67 31.27 31.27 0 0 0-9.75-13.04 18.4 18.4 0 0 0-8.92-3.39 94.87 94.87 0 0 0-10.5-.56c-14.48-.27-27.6-.22-37.1-.6-4.75-.16-8.59-.4-11.24-.59l-3.05-.26c-.36-.02-.7-.07-1.05-.15.35-.04.7-.04 1.06 0l3.06.11c2.65.1 6.5.23 11.23.33 9.49.23 22.6.08 37.1.36 3.54 0 7.09.19 10.6.59a19 19 0 0 1 9.26 3.62 28.26 28.26 0 0 1 6.17 6.52 38.16 38.16 0 0 1 3.62 6.92 54.18 54.18 0 0 1 3.54 13.88c.07.32.1.64.12.97ZM247.06 95.73H138.1v15.82h108.97V95.73Z" fill="#E0E0E0"/><path d="M221.4 103.64h-59.34v7.9h59.33v-7.9Z" fill="#F0F1F7"/><path d="m476.67 72.9 72.06-11.02A72.87 72.87 0 1 1 484.68.45l-8 72.45Z" fill="#FEEBB2"/><path d="m500.05.68-8.74 55.86 54.83-10.3s-8.06-31.3-46.09-45.56Z" fill="#FDBD00"/><path d="M22.09 56.91a39.26 39.26 0 1 1 39.9 38.82 39.42 39.42 0 0 1-39.9-38.82Zm58.05-.94a18.78 18.78 0 1 0-18.48 19.17 18.84 18.84 0 0 0 18.48-19.17Z" fill="#F0F1F7"/><path d="M22.09 56.91a39.42 39.42 0 0 1 38.6-40.08l.33 20.59a18.87 18.87 0 0 0 .6 37.72l.34 20.6A39.41 39.41 0 0 1 22.09 56.9Z" fill="#FEDE80"/><path d="M57.2 13.67a44.86 44.86 0 0 1 45.94 44.7l-23.97.38c-.19-12.16-9.45-19.82-21.57-19.63l-.4-25.45ZM661.51 433.57a39.27 39.27 0 1 1 39.9 38.81 39.43 39.43 0 0 1-39.9-38.8Zm58.04-.94a18.77 18.77 0 1 0-18.47 19.17 18.83 18.83 0 0 0 18.47-19.17Z" fill="#FDBD00"/><path d="M661.51 433.57a39.42 39.42 0 0 1 38.6-40.08l.33 20.59a18.87 18.87 0 0 0 .6 37.72l.33 20.58a39.39 39.39 0 0 1-39.86-38.8Z" fill="#E0E0E0"/><path d="M696.63 390.33a44.87 44.87 0 0 1 45.94 44.7l-23.97.38c-.2-12.17-9.46-19.84-21.57-19.64l-.4-25.44Z" fill="#FEEBB2"/><path d="M791.46 45.7H628.05v186.48h163.41V45.7Z" fill="#fff"/><path d="M791.45 232.2v-13.56c0-8.8 0-21.71-.07-38.04 0-32.7-.07-79.3-.13-134.9l.26.27H628.12l.3-.3v186.48l-.25-.25 118.53.13 33.13.06h11.74-11.64l-33.08.06-118.68.14h-.25V45.24H791.9v.44c0 55.67-.11 102.32-.13 135.11 0 16.33 0 29.2-.08 37.99v12.58c0 .59-.24.83-.24.83Z" fill="#263238"/><path d="M777.4 140.98c0 .12-1.8-.9-5.24-1.99a33.78 33.78 0 0 0-15.08-1.12c-3.46.53-6.82 1.6-9.94 3.2a47.02 47.02 0 0 0-9.77 7.02c-3.2 2.83-6.38 6.03-10.05 9a34.72 34.72 0 0 1-12.84 6.96c-2.44.63-4.98.78-7.49.44a24.47 24.47 0 0 1-6.95-2.13c-4-2.1-7.88-4.4-11.63-6.93a36.04 36.04 0 0 0-10.92-4.9 32.3 32.3 0 0 0-10.42-.79c-5.08.44-10 2.04-14.36 4.67-3.08 1.88-4.54 3.3-4.61 3.2-.07-.09.32-.38 1.04-1.02 1.03-.94 2.15-1.8 3.34-2.54a32.72 32.72 0 0 1 25.22-4.42c4 1 7.8 2.67 11.26 4.92 3.72 2.48 7.58 4.76 11.55 6.8a19.73 19.73 0 0 0 13.7 1.61 33.76 33.76 0 0 0 12.42-6.72c3.62-2.9 6.8-6.03 10.06-8.92a47.18 47.18 0 0 1 10.04-7.09 33.55 33.55 0 0 1 10.24-3.14c5.16-.72 10.4-.2 15.32 1.5 1.33.44 2.62 1 3.87 1.64.44.21.86.46 1.25.75ZM686.93 165.97h-13.9v37.57h13.9v-37.57ZM745.88 165.97h-13.9v37.57h13.9v-37.57Z" fill="#FDBD00"/><path d="M765.53 143.9h-13.9v59.64h13.9V143.9ZM668.94 191.7h-13.9v12.65h13.9V191.7ZM706.57 182.94h-13.9v20.6h13.9v-20.6ZM726.22 178.2h-13.9v25.34h13.9v-25.33Z" fill="#FDBD00"/><path d="M687.53 207.97c0 .31-3.35.55-7.5.55s-7.5-.24-7.5-.55c0-.31 3.35-.56 7.5-.56s7.5.26 7.5.56ZM670.19 207.97c0 .31-3.36.55-7.5.55-4.16 0-7.51-.24-7.51-.55 0-.31 3.35-.56 7.5-.56s7.5.26 7.5.56ZM768.25 207.97c0 .31-3.8.55-8.44.55-4.65 0-8.45-.24-8.45-.55 0-.31 3.8-.56 8.45-.56 4.66 0 8.44.26 8.44.56ZM747.61 207.97c0 .31-3.79.55-8.44.55-4.66 0-8.45-.24-8.45-.55 0-.31 3.8-.56 8.45-.56 4.64 0 8.44.26 8.44.56ZM726.22 207.97c0 .31-3.36.57-7.51.57s-7.5-.26-7.5-.57c0-.31 3.36-.56 7.5-.56 4.14 0 7.51.26 7.51.56ZM705.92 207.97c0 .31-3.37.57-7.52.57-4.15 0-7.5-.26-7.5-.57 0-.31 3.37-.56 7.5-.56 4.14 0 7.52.26 7.52.56Z" fill="#263238"/><path d="M768.25 72.88H654.72v47.15h113.53V72.88Z" fill="#E0E0E0"/><path d="M678.3 87.8a5.3 5.3 0 1 1-10.59 0 5.3 5.3 0 0 1 10.6 0ZM720.48 84.13H683.6v2.05h36.88v-2.05Z" fill="#263238"/><path d="M755.34 88.79H683.6v2.05h71.74v-2.05Z" fill="#fff"/><path d="M678.3 104.06a5.3 5.3 0 1 1-10.59 0 5.3 5.3 0 0 1 10.6 0ZM702.43 100.4H683.6v2.05h18.83v-2.05Z" fill="#FDBD00"/><path d="M755.34 105.06H683.6v2.05h71.74v-2.05ZM716.56 279.5l-1.17 137.32 98.07.84 1.18-137.32-98.08-.84Z" fill="#fff"/><path d="M715.41 416.84v-9.98c0-6.53.1-16.08.17-28.15l.71-99.2v-.27h.28l98.07.8h.32v.32c-.47 51.42-.89 98.92-1.2 137.32v.26h-.26l-71.46-.71-19.72-.23-5.16-.07h-1.75 7.01l19.78.1 71.3.49-.26.25 1.12-137.33.31.32-98.06-.87.29-.28-1 99-.32 28.22c0 3.27-.07 5.78-.1 7.49v1.94c0 .46-.07.58-.07.58Z" fill="#263238"/><path d="M729.1 312.98c0-.31 16.26-.44 36.28-.27 20.03.17 36.27.57 36.27.88 0 .32-16.24.44-36.28.27-20.04-.17-36.26-.57-36.26-.88ZM729.03 322.68c0-.33 16.24-.44 36.27-.27 20.02.17 36.26.57 36.26.88 0 .31-16.24.44-36.27.27-20.04-.17-36.27-.57-36.26-.88ZM728.95 332.36c0-.31 16.24-.42 36.26-.25 20.03.17 36.28.57 36.27.88-.02.31-16.24.44-36.28.27-20.04-.17-36.26-.57-36.25-.9ZM728.87 342.06c0-.31 16.23-.43 36.26-.25 20.02.18 36.27.57 36.26.88-.01.31-16.24.43-36.27.26-20.04-.16-36.27-.51-36.25-.89ZM728.78 351.76c0-.31 16.24-.43 36.26-.25 20.03.18 36.28.56 36.27.88-.01.31-16.24.43-36.27.25-20.02-.18-36.26-.55-36.26-.88Z" fill="#263238"/><path d="M754.75 363.02h-11.67v36.45h11.67v-36.45ZM772.19 371.34H760.5v28.13h11.68v-28.13ZM788.32 382.76h-11.68v16.71h11.68v-16.7Z" fill="#455A64"/><path d="M629.27 256.05h6.39l17.48-.1 57.69-.1 51.56.08h.3v.24l-.13 17.58c0 2.05-.06 3.62-.08 4.82v1.63V278.58c0-1.15 0-2.77-.08-4.83 0-4.22-.08-10.23-.13-17.58l.3.24-51.56.08-57.69-.1-17.66-.22-4.76-.06h-1.21l-.42-.06ZM627.75 77.05c-.25.03-.51.03-.76 0h-2.19l-8.1.08-27.28.11.3-.31a1445.56 1445.56 0 0 1 .06 37.96c0 4.04-.08 7.32-.17 9.58 0 1.13-.08 2-.13 2.6-.02.3-.06.6-.12.9V114.9c0-8.08-.14-19.3-.24-31.6v-6.68h.31l27.3.1 8.07.34H627c.25-.02.5-.02.76 0Z" fill="#263238"/><path d="M630.84 77.05a3.1 3.1 0 1 1-6.2.03 3.1 3.1 0 0 1 6.2-.03ZM765.56 280.12a3.1 3.1 0 1 1-6.2.02 3.1 3.1 0 0 1 6.2-.02Z" fill="#263238"/><path d="M623.84 125.17H204.99a13.08 13.08 0 0 0-13.08 13.07v295.88a13.09 13.09 0 0 0 13.08 13.07H365.7s10.22 31.62-21.48 48H494.5s-35.79-12.29-26.53-48h155.86a13.07 13.07 0 0 0 13.03-13.07V138.24a13.08 13.08 0 0 0-13.03-13.07Z" fill="#455A64"/><path d="M419.97 416.02c5.71 8.15-3.22 17.06-11.36 11.37-.27-.2-.5-.43-.7-.7-5.68-8.15 3.22-17.05 11.36-11.37.28.2.52.43.7.7Z" fill="#263238"/><path d="M210.76 130.58h407.25a11.7 11.7 0 0 1 11.7 11.7v250.77H199.05V142.28a11.7 11.7 0 0 1 11.71-11.7Z" fill="#fff"/><path d="M210.11 130.58h410.53a9.07 9.07 0 0 1 9.07 9.07v12.74H199.05v-10.77a11.04 11.04 0 0 1 11.06-11.04Z" fill="#EBEBEB"/><path d="M215.84 141.95a3.02 3.02 0 1 1-6.05 0 3.02 3.02 0 0 1 6.05 0ZM224.82 141.95a3.03 3.03 0 1 1-6.06 0 3.03 3.03 0 0 1 6.06 0ZM233.4 141.95a3.03 3.03 0 1 1-6.07 0 3.03 3.03 0 0 1 6.07 0Z" fill="#E0E0E0"/><path d="M548.95 447.23c0 .14-59.61.25-133.14.25-73.53 0-133.13-.1-133.13-.25 0-.16 59.6-.25 133.13-.25 73.54 0 133.14.12 133.14.25Z" fill="#263238"/><path d="m337.8 301.07-120.07.34.23 82.45 99.56-.29 13.5-.03 7.03-.03-.24-82.44Z" fill="#F0F1F7"/><path d="M226.96 375c-.15 0-.3-13.97-.36-31.22-.04-17.25 0-31.25.17-31.25s.3 13.98.35 31.25c.05 17.26-.02 31.23-.16 31.23Z" fill="#263238"/><path d="M331.15 366.12c0 .14-23.42.33-52.31.4-28.9.08-52.3 0-52.3-.1 0-.11 23.4-.33 52.3-.41 28.9-.09 52.3-.04 52.3.1ZM331.12 356.91c0 .15-23.42.34-52.3.42-28.88.09-52.31 0-52.31-.12s23.41-.32 52.3-.4c28.9-.1 52.31 0 52.31.1ZM331.1 347.8c0 .14-23.43.32-52.3.4-28.89.09-52.32 0-52.33-.1-.01-.11 23.42-.34 52.32-.43 28.9-.08 52.31-.02 52.31.12ZM331.06 338.63c0 .14-23.41.32-52.3.4-28.87.1-52.31 0-52.31-.1 0-.11 23.41-.34 52.3-.43 28.9-.08 52.31-.02 52.31.13ZM331.04 329.46c0 .14-23.42.32-52.3.4-28.9.1-52.32 0-52.32-.1 0-.11 23.42-.33 52.31-.41 28.9-.09 52.31-.04 52.31.1ZM331.02 320.29c0 .14-23.42.32-52.31.4-28.9.1-52.31 0-52.31-.1s23.41-.32 52.3-.41c28.9-.08 52.32-.04 52.32.1ZM331 311.07c0 .15-23.44.34-52.32.43-28.88.08-52.3 0-52.3-.13 0-.12 23.41-.32 52.3-.4 28.9-.09 52.31 0 52.31.1Z" fill="#EBEBEB"/><path d="m241.06 360.73-7.5.02.04 14.28 7.5-.02-.04-14.28ZM295.55 360.56l-7.5.02.04 14.29 7.5-.02-.04-14.29ZM255.8 350.13l-7.5.02.08 24.79 7.5-.02-.07-24.8ZM283.21 343.65l-7.5.02.09 31.23 7.5-.02-.09-31.23ZM269.65 324.65l-7.5.03.15 50.22 7.5-.03-.15-50.22ZM308.92 334.88h-7.5v40.94h7.5v-40.94Z" fill="#FDBD00"/><path d="M319.1 374.75c0 .15-20.6.33-45.98.4-25.38.07-45.99 0-45.99-.13s20.59-.31 46-.39c25.4-.07 45.97-.02 45.97.12Z" fill="#263238"/><path d="M216.63 171.94V293h261.93V171.94H216.63Z" fill="#F0F1F7"/><path d="M235.05 255.58v3.83h-.4v-3.48h-.9v-.35h1.3ZM235.97 257.49c0-1.2.63-1.94 1.52-1.94.88 0 1.53.72 1.53 1.94s-.64 1.94-1.53 1.94c-.9 0-1.52-.72-1.52-1.94Zm2.65 0c0-1.03-.46-1.58-1.13-1.58-.68 0-1.13.55-1.13 1.58 0 1.02.46 1.58 1.13 1.58.66 0 1.13-.56 1.13-1.58ZM236.6 235.28v.35h-2.66v-.28l1.6-1.55c.43-.43.51-.7.51-.95 0-.44-.31-.72-.9-.72a1.3 1.3 0 0 0-1.04.44l-.28-.25a1.7 1.7 0 0 1 1.35-.55c.77 0 1.27.4 1.27 1.04a1.56 1.56 0 0 1-.63 1.2l-1.3 1.28 2.08-.01ZM237.08 233.72c0-1.2.64-1.95 1.52-1.95s1.53.73 1.53 1.95-.64 1.95-1.53 1.95c-.9 0-1.52-.74-1.52-1.95Zm2.65 0c0-1.02-.46-1.59-1.13-1.59-.68 0-1.13.57-1.13 1.6 0 1.02.46 1.57 1.13 1.57.66 0 1.13-.56 1.13-1.58ZM236.52 210.76c0 .64-.47 1.13-1.39 1.13-.5.02-1-.16-1.37-.5l.2-.3c.32.3.75.46 1.2.44.63 0 .97-.3.97-.77 0-.49-.3-.75-1.02-.75h-.28v-.27l1.06-1.32h-1.95v-.35h2.41v.27l-1.08 1.35c.84.05 1.25.46 1.25 1.07ZM237.08 209.95c0-1.2.64-1.94 1.52-1.94s1.53.72 1.53 1.94-.64 1.94-1.53 1.94c-.9 0-1.52-.72-1.52-1.94Zm2.65 0c0-1.03-.46-1.58-1.13-1.58-.68 0-1.13.55-1.13 1.58 0 1.02.46 1.58 1.13 1.58.66 0 1.13-.58 1.13-1.58ZM251.93 270.06c0-1.2.63-1.96 1.52-1.96.88 0 1.53.74 1.53 1.96s-.64 1.94-1.53 1.94c-.9 0-1.52-.74-1.52-1.94Zm2.65 0c0-1.03-.46-1.6-1.13-1.6-.68 0-1.13.57-1.13 1.6 0 1.02.46 1.58 1.13 1.58.66 0 1.13-.6 1.13-1.58ZM280.23 268.12v3.82h-.45v-3.48h-.9v-.34h1.35ZM310.05 271.59v.35h-2.68v-.28l1.58-1.55c.44-.43.52-.7.52-.94 0-.45-.31-.73-.9-.73a1.33 1.33 0 0 0-1.04.44l-.28-.25a1.74 1.74 0 0 1 1.35-.55c.78 0 1.27.4 1.27 1.04a1.56 1.56 0 0 1-.63 1.2l-1.29 1.28 2.1-.01ZM338.24 270.84c0 .64-.47 1.14-1.38 1.14-.51.01-1-.16-1.38-.5l.2-.31a1.63 1.63 0 0 0 1.2.44c.64 0 .98-.3.98-.77 0-.47-.32-.76-1.03-.76h-.35v-.29l1.06-1.33h-1.9v-.34h2.4v.27l-1.08 1.37c.87.04 1.28.47 1.28 1.08ZM367.23 270.94h-.76v1h-.4v-1h-2.14v-.3l2.02-2.52h.44l-1.96 2.47h1.65v-.9h.4v.9h.75v.35ZM394.86 270.82c0 .65-.46 1.2-1.39 1.2-.5.02-1-.16-1.38-.49l.2-.31a1.65 1.65 0 0 0 1.2.44c.64 0 1-.31 1-.78 0-.47-.3-.8-1.29-.8h-.82l.2-1.92h2.1v.35h-1.75l-.14 1.21h.5c1.1-.04 1.57.42 1.57 1.1ZM423.41 270.8a1.19 1.19 0 0 1-.39.88 1.19 1.19 0 0 1-.91.32c-1.03 0-1.57-.71-1.57-1.92 0-1.2.71-1.98 1.75-1.98.32-.01.63.06.9.22l-.15.31c-.23-.13-.49-.19-.75-.18-.82 0-1.35.53-1.35 1.57v.31a1.22 1.22 0 0 1 1.2-.66 1.2 1.2 0 0 1 1.27 1.12Zm-.38 0c0-.5-.38-.83-.97-.83a.9.9 0 0 0-.99.83c0 .43.35.83 1.01.83a.85.85 0 0 0 .95-.82v-.02ZM451.5 268.12v.27l-1.62 3.55h-.42l1.58-3.48h-1.97v.72h-.4v-1.06h2.84ZM451.71 257.67c0 .2-44.25.37-98.82.37-54.58 0-98.83-.17-98.83-.37 0-.2 44.24-.38 98.83-.38 54.59 0 98.82.17 98.82.38ZM451.71 233.78c0 .2-44.25.37-98.82.37-54.58 0-98.83-.16-98.83-.37 0-.2 44.24-.37 98.83-.37 54.59 0 98.82.17 98.82.37ZM451.71 209.89c0 .2-44.25.37-98.82.37-54.58 0-98.83-.17-98.83-.37 0-.2 44.24-.38 98.83-.38 54.59 0 98.82.23 98.82.38Z" fill="#263238"/><path d="M254.06 257.32a1.28 1.28 0 1 1-1.27-1.27 1.22 1.22 0 0 1 .92.35 1.22 1.22 0 0 1 .35.92ZM282.47 257.32a1.26 1.26 0 0 1-1.51 1.24 1.27 1.27 0 0 1-.92-1.73 1.27 1.27 0 0 1 1.16-.78 1.23 1.23 0 0 1 .92.35 1.22 1.22 0 0 1 .35.92ZM310.9 257.32a1.27 1.27 0 0 1-2.17.9 1.27 1.27 0 0 1 .9-2.17 1.23 1.23 0 0 1 .91.35 1.22 1.22 0 0 1 .35.92ZM339.31 257.32a1.28 1.28 0 1 1-1.26-1.27 1.22 1.22 0 0 1 .91.35 1.2 1.2 0 0 1 .36.92ZM367.73 257.32a1.21 1.21 0 0 1-2.08.77 1.2 1.2 0 1 1 2.08-.77ZM424.55 257.32a1.28 1.28 0 0 1-2.18.92 1.27 1.27 0 0 1 .19-1.97 1.28 1.28 0 0 1 1.99 1.05ZM396.15 257.32a1.27 1.27 0 0 1-2.19.87 1.27 1.27 0 0 1 .98-2.14 1.21 1.21 0 0 1 1.2 1.27ZM452.98 257.32a1.27 1.27 0 0 1-2.16.9 1.27 1.27 0 0 1 .9-2.17 1.23 1.23 0 0 1 .9.35 1.22 1.22 0 0 1 .36.92Z" fill="#FDBD00"/><path d="M267 257.67a.83.83 0 0 1-.99.82.84.84 0 0 1-.6-1.14.84.84 0 0 1 .76-.51.83.83 0 0 1 .84.83ZM295.54 257.67a.84.84 0 0 1-.52.77.83.83 0 1 1 .52-.77ZM324.06 257.67a.83.83 0 1 1-1.67-.1.83.83 0 0 1 1.67.1ZM352.59 257.67a.83.83 0 0 1-1 .82.84.84 0 0 1-.6-1.14.84.84 0 0 1 .76-.51.83.83 0 0 1 .84.83ZM381.12 257.67a.84.84 0 0 1-.52.77.83.83 0 1 1 .52-.77ZM409.63 257.67a.84.84 0 0 1-1.04.75.84.84 0 0 1-.61-.7.82.82 0 0 1 .41-.82.84.84 0 0 1 1.04.17c.14.17.22.38.2.6ZM438.15 257.67a.84.84 0 0 1-.51.77.83.83 0 1 1 .51-.77Z" fill="#E0E0E0"/><path d="M284.32 247.14a3.11 3.11 0 1 1-6.23 0 3.11 3.11 0 0 1 6.23 0ZM309.12 232.48a3.12 3.12 0 1 1-6.25.02 3.12 3.12 0 0 1 6.25-.02ZM339.88 233.78a3.11 3.11 0 1 1-6.22 0 3.11 3.11 0 0 1 6.22 0ZM369.93 207.19a3.11 3.11 0 1 1-6.23 0 3.11 3.11 0 0 1 6.23 0ZM398 224.1a3.11 3.11 0 1 1-6.22 0 3.11 3.11 0 0 1 6.23 0ZM426.4 228.6a3.11 3.11 0 1 1-6.22 0 3.11 3.11 0 0 1 6.22 0Z" fill="#FDBD00"/><path d="M452.98 247.14h-.72a15.5 15.5 0 0 1-2.13-.3 16.02 16.02 0 0 1-7.4-3.5 15.26 15.26 0 0 1-3.61-4.73 34.86 34.86 0 0 0-3.8-5.89 12.6 12.6 0 0 0-6.43-4.47 8.21 8.21 0 0 0-4.25.14 11.61 11.61 0 0 0-3.94 2.23c-2.41 2.03-4.2 4.9-6.55 7.52a13.1 13.1 0 0 1-4.27 3.32 8.65 8.65 0 0 1-5.61.45A7.03 7.03 0 0 1 400 238a27.83 27.83 0 0 1-1.85-5.67c-.38-1.97-.95-3.9-1.69-5.76a4.5 4.5 0 0 0-1.82-2.17 5.87 5.87 0 0 0-2.87-.57c-2.1.23-4.2.6-6.25 1.11-1.08.22-2.19.35-3.3.37a6.8 6.8 0 0 1-6-2.88c-.65-.94-1.2-1.95-1.63-3.02-.9-2.1-1.5-4.3-2.32-6.43a16.4 16.4 0 0 0-1.5-3.01 5.47 5.47 0 0 0-2.42-2.05c-.26-.07-.52-.17-.78-.23l-.82-.09a3 3 0 0 0-1.52.32 6.23 6.23 0 0 0-2.27 2.41 28.5 28.5 0 0 0-2.64 6.54c-.68 2.3-1.2 4.63-1.8 7-.9 3.92-1.72 7.82-2.72 11.65a58.85 58.85 0 0 1-1.75 5.65 14.48 14.48 0 0 1-2.96 5.12 4.02 4.02 0 0 1-2.8 1.2 5.61 5.61 0 0 1-2.88-.86 13.66 13.66 0 0 1-4.03-4.08 49.21 49.21 0 0 1-4.83-9.9c-1.36-3.28-2.9-6.53-5.44-8.76a10.2 10.2 0 0 0-9.14-2.22c-1.54.4-3 1.05-4.35 1.9-1.33.82-2.6 1.74-3.8 2.76a50.88 50.88 0 0 0-6.33 6.37 68.55 68.55 0 0 1-9.38 7.79c-3 2.12-6.24 3.87-9.66 5.21a21.04 21.04 0 0 1-9.4 1.57 33.39 33.39 0 0 1-7.85-1.9 74.92 74.92 0 0 1-12.72-6.11c-.57-.35-.84-.54-.84-.54l.88.47 2.59 1.37c3.29 1.74 6.7 3.24 10.2 4.5 2.5.91 5.11 1.52 7.76 1.8 3.15.18 6.3-.37 9.22-1.6a45.46 45.46 0 0 0 9.47-5.2c3.31-2.31 6.41-4.91 9.26-7.77a50.65 50.65 0 0 1 6.4-6.5 31.3 31.3 0 0 1 3.76-2.77c1.4-.9 2.92-1.57 4.52-2a10.85 10.85 0 0 1 9.75 2.35c2.69 2.35 4.26 5.7 5.65 9a49.23 49.23 0 0 0 4.82 9.76 12.92 12.92 0 0 0 3.81 3.86c.76.48 1.62.74 2.51.77a3.39 3.39 0 0 0 2.3-1.03 14.33 14.33 0 0 0 2.77-4.83 57.37 57.37 0 0 0 1.71-5.57c1-3.8 1.81-7.71 2.73-11.64.55-2.42 1.12-4.73 1.8-7.05.63-2.34 1.55-4.6 2.72-6.7.61-1.1 1.5-2.02 2.59-2.65.57-.3 1.22-.44 1.88-.4l.93.1c.3.07.6.18.89.27a6.26 6.26 0 0 1 2.8 2.32c.65 1 1.18 2.06 1.59 3.16.83 2.18 1.42 4.37 2.3 6.41.88 2.04 1.97 4.07 3.92 4.9 1.96.83 4.15.59 6.22.23 2.09-.5 4.21-.88 6.36-1.1a6.4 6.4 0 0 1 3.22.65 5.12 5.12 0 0 1 2.1 2.49c.76 1.9 1.33 3.87 1.72 5.88.38 1.91.98 3.77 1.77 5.55a6.4 6.4 0 0 0 3.88 3.62 8 8 0 0 0 5.2-.41 12.47 12.47 0 0 0 4.05-3.22c2.31-2.55 4.12-5.44 6.63-7.53a11.91 11.91 0 0 1 4.14-2.3 8.52 8.52 0 0 1 4.5-.14c2.66.81 4.98 2.45 6.64 4.67a34.5 34.5 0 0 1 3.8 6.03 15.01 15.01 0 0 0 3.5 4.67 16.2 16.2 0 0 0 7.25 3.62 15.69 15.69 0 0 0 2.83.39Z" fill="#FDBD00"/><path d="M284.6 193.52c0 .2-11.02.37-24.63.37-13.6 0-24.64-.17-24.64-.37 0-.2 11.03-.38 24.64-.38 13.61 0 24.64.17 24.64.38Z" fill="#263238"/><path d="M489.01 172.7v118.4h125.97V172.7H489.01Z" fill="#F0F1F7"/><path d="M551.43 186.13a38.87 38.87 0 1 0 0 77.74 38.87 38.87 0 0 0 0-77.74Zm.6 62.17a23.88 23.88 0 1 1 22.06-14.74 23.91 23.91 0 0 1-22.07 14.78v-.04Z" fill="#FEDE80"/><path d="M552.03 186.15v14.39a23.87 23.87 0 0 1 22.76 31.1l14.09 3.83a38.87 38.87 0 0 0-36.83-49.32h-.01Z" fill="#FDBD00"/><path d="M528.14 224.41a23.85 23.85 0 0 1 14.16-21.8l-6.03-13.42A38.86 38.86 0 0 0 512.6 225v1.63h15.68c-.1-.72-.15-1.47-.15-2.22Z" fill="#FEEBB2"/><path d="M552.02 248.34c-1.7 0-3.39-.18-5.05-.54-.6 3.46-1.74 10.17-2.63 15.45a38.87 38.87 0 0 0 44.5-27.73l-14.1-3.82a23.88 23.88 0 0 1-22.72 16.64Z" fill="#FDBD00"/><path opacity=".3" d="M552.02 248.34c-1.7 0-3.39-.18-5.05-.54-.6 3.46-1.74 10.17-2.63 15.45a38.87 38.87 0 0 0 44.5-27.73l-14.1-3.82a23.88 23.88 0 0 1-22.72 16.64Z" fill="#000"/><path d="M546.86 226.34h-1.44v1.86h-1.99v-1.86h-4.76v-1.37l4.16-5.6h2.15l-3.86 5.3h2.41v-1.66h1.93v1.66h1.43l-.03 1.67ZM547.46 223.78c0-2.9 1.62-4.57 3.8-4.57 2.16 0 3.78 1.67 3.78 4.57 0 2.91-1.6 4.58-3.79 4.58-2.18 0-3.79-1.66-3.79-4.58Zm5.52 0c0-2-.7-2.83-1.73-2.83-1.02 0-1.71.83-1.71 2.84 0 2 .7 2.84 1.68 2.84.97 0 1.76-.84 1.76-2.84ZM555.88 221.7a2.2 2.2 0 1 1 4.37.44 2.2 2.2 0 0 1-4.37-.43Zm3.12 0c0-.94-.37-1.4-.92-1.4-.56 0-.93.47-.93 1.4 0 .95.39 1.4.93 1.4s.92-.45.92-1.4Zm4.34-2.33h1.5l-6.04 8.83h-1.5l6.04-8.83Zm-1.45 6.5a2.2 2.2 0 0 1 3.84-1.28 2.2 2.2 0 0 1-2.55 3.5 2.21 2.21 0 0 1-1.29-2.22Zm3.1 0c0-.94-.36-1.4-.91-1.4-.56 0-.93.45-.93 1.4s.38 1.4.93 1.4c.54 0 .91-.47.91-1.4ZM583.6 273.68c0 .2-14.4.36-32.17.36-17.77 0-32.16-.16-32.16-.36 0-.2 14.4-.38 32.16-.38 17.76 0 32.16.17 32.16.38ZM569.31 279.58c0 .2-7.99.37-17.84.37-9.86 0-17.84-.17-17.84-.37 0-.2 7.98-.37 17.84-.37 9.85 0 17.84.17 17.84.37Z" fill="#263238"/><path d="M600.43 298.97H347.6v83.07h252.84v-83.07Z" fill="#FAFAFA"/><path d="M579.1 318.63c0 .14-42.97.26-95.96.26-53 0-95.97-.12-95.97-.26 0-.15 42.96-.27 95.97-.27 53 0 95.97.12 95.97.26ZM579.1 328.46c0 .14-42.97.26-95.96.26-53 0-95.97-.12-95.97-.26 0-.15 42.96-.27 95.97-.27 53 0 95.97.11 95.97.27ZM579.1 338.29c0 .14-42.97.26-95.96.26-53 0-95.97-.12-95.97-.26 0-.15 42.96-.28 95.97-.28 53 0 95.97.12 95.97.28ZM579.1 348.1c0 .16-42.97.27-95.96.27-53 0-96-.1-96-.26s42.97-.27 95.98-.27c53 0 95.99.12 95.99.27ZM579.1 357.94c0 .14-42.97.26-95.96.26-53 0-96-.08-96-.26s42.97-.27 95.98-.27c53 0 95.99.12 95.99.27Z" fill="#EBEBEB"/><path d="M562.4 346.5s-.13.15-.42.43c-.49.38-1.03.69-1.62.89a8.57 8.57 0 0 1-7-1.12 11.52 11.52 0 0 1-3.3-3.62c-.92-1.49-1.64-3.21-2.51-5a15.58 15.58 0 0 0-3.75-5.23 8.43 8.43 0 0 0-3.27-1.73 9.65 9.65 0 0 0-4-.19 16.18 16.18 0 0 0-7.67 3.51c-2.3 1.8-4.3 4-6.75 6.03a16.47 16.47 0 0 1-9.28 3.95 9.4 9.4 0 0 1-5.3-1.21c-1.5-.94-2.77-2.2-3.7-3.7-1.9-2.85-2.87-6.18-5.36-8.78a8.87 8.87 0 0 0-4.64-2.8 7.24 7.24 0 0 0-5.46 1.14 10.86 10.86 0 0 0-3.62 4.15 23.46 23.46 0 0 0-1.7 5.18 28.93 28.93 0 0 1-1.67 5.37 11.26 11.26 0 0 1-3.83 4.6 15.33 15.33 0 0 1-5.85 2.54 15.45 15.45 0 0 1-12.16-2.34c-1.69-1.09-3.2-2.3-4.82-3.38a14.97 14.97 0 0 0-5.2-2.41 8.58 8.58 0 0 0-5.54.62c-1.6.8-3.02 1.95-4.14 3.35a31.3 31.3 0 0 0-2.8 4.25 32.02 32.02 0 0 1-2.77 4.21 12.43 12.43 0 0 1-3.98 3.28 9.12 9.12 0 0 1-5.2 1.05c-1.7-.2-3.3-.97-4.51-2.18a10.6 10.6 0 0 1-2.5-3.75c-.49-1.3-.87-2.65-1.13-4.02-.56-2.63-1.1-5.2-2.67-7.24a9.38 9.38 0 0 0-6.16-3.98 7.79 7.79 0 0 0-3.63.39c-1.03.37-2 .92-2.84 1.63-3.25 2.69-4.83 5.93-7.24 7.81a10.38 10.38 0 0 1-6.44 2.81c-.64 0-1.28-.1-1.88-.28l-.6-.23c.78.26 1.6.4 2.42.4 2.36-.2 4.58-1.2 6.28-2.84 2.34-1.87 3.84-5.12 7.13-7.89.88-.73 1.88-1.31 2.96-1.71a8.21 8.21 0 0 1 3.74-.42 9.81 9.81 0 0 1 6.49 4.1 12.05 12.05 0 0 1 1.78 3.5c.4 1.27.72 2.57.98 3.88.27 1.35.64 2.67 1.13 3.96.55 1.36 1.37 2.6 2.42 3.62a7.3 7.3 0 0 0 4.2 2.02 8.56 8.56 0 0 0 4.83-1.01 11.84 11.84 0 0 0 3.8-3.15 31.59 31.59 0 0 0 2.72-4.16 31.74 31.74 0 0 1 2.84-4.32 12.86 12.86 0 0 1 4.34-3.5 9.2 9.2 0 0 1 5.97-.69c1.95.5 3.79 1.36 5.41 2.55 1.63 1.1 3.15 2.3 4.83 3.36a14.9 14.9 0 0 0 5.48 2.34c2.04.4 4.14.38 6.17-.07 2.02-.4 3.93-1.22 5.61-2.41.8-.57 1.53-1.24 2.16-2a11.5 11.5 0 0 0 1.47-2.4c.73-1.7 1.29-3.48 1.67-5.29.37-1.82.95-3.58 1.74-5.27a11.5 11.5 0 0 1 3.77-4.34 7.95 7.95 0 0 1 5.96-1.2 9.43 9.43 0 0 1 4.97 2.97c2.57 2.73 3.54 6.03 5.4 8.86.89 1.43 2.08 2.64 3.5 3.54 1.5.88 3.23 1.3 4.97 1.2 3.31-.3 6.44-1.62 8.96-3.8 2.4-1.94 4.45-4.15 6.78-5.96 2.27-1.89 5-3.13 7.9-3.62 1.41-.21 2.85-.14 4.22.22 1.25.35 2.41.97 3.4 1.82a15.8 15.8 0 0 1 3.8 5.35c.72 1.71 1.53 3.38 2.41 5.01a11.2 11.2 0 0 0 3.19 3.56 8.44 8.44 0 0 0 6.82 1.2 5.25 5.25 0 0 0 2.29-1.42Z" fill="#455A64"/><path d="M574.53 344.2h-.66a6.45 6.45 0 0 1-.82-.1c-.36-.08-.71-.2-1.06-.32-2.17-1-4.1-2.42-5.72-4.18a60.85 60.85 0 0 1-1.64-1.73c-.55-.68-1.14-1.3-1.77-1.9a10.08 10.08 0 0 0-9.1-1.86c-1.13.4-2.17 1-3.06 1.8a62.33 62.33 0 0 0-5.06 5.67 14.45 14.45 0 0 1-3.24 2.73 10.95 10.95 0 0 1-4.42 1.43c-3.33.2-6.65-.34-9.75-1.58-3.18-1.14-6.22-2.72-9.65-3.74a20.18 20.18 0 0 0-5.33-.93c-1.84-.04-3.68.3-5.38 1.02-3.43 1.42-6.1 4.03-9.34 6.14-1.66 1.12-3.48 1.99-5.4 2.57-2.01.6-4.1.9-6.2.93-4.28.07-8.51-.95-12.3-2.96a28.13 28.13 0 0 1-9.32-8.05c-2.5-3.24-3.87-6.93-5.68-10.3a20.38 20.38 0 0 0-3.3-4.68 14.25 14.25 0 0 0-4.82-3.26 9.9 9.9 0 0 0-5.87-.54c-1.83.46-3.5 1.42-4.82 2.78a13.9 13.9 0 0 0-2.92 4.39 32.35 32.35 0 0 0-1.5 4.82c-.4 1.63-.77 3.26-1.27 4.83-.5 1.58-1.21 3.1-2.1 4.5a21.6 21.6 0 0 1-7.04 6.89 22.54 22.54 0 0 1-9.19 3.23c-3.08.34-6.2.02-9.14-.92-5.56-1.74-9.5-5.48-10.96-9.31-.76-1.92-1.14-3.75-1.69-5.4a11.75 11.75 0 0 0-2.18-4.22 8.27 8.27 0 0 0-6.34-2.8c-.86.04-1.69.3-2.42.75.7-.53 1.54-.83 2.42-.86a8.37 8.37 0 0 1 6.53 2.8 11.87 11.87 0 0 1 2.28 4.26c.57 1.66.97 3.5 1.74 5.36 1.46 3.75 5.32 7.4 10.77 9.07 2.87.9 5.9 1.2 8.88.86 3.18-.4 6.23-1.48 8.95-3.17a21.26 21.26 0 0 0 6.87-6.77 27.95 27.95 0 0 0 3.28-9.2c.37-1.67.88-3.32 1.52-4.92a14.49 14.49 0 0 1 3.01-4.53 10.24 10.24 0 0 1 11.43-2.41c1.9.76 3.64 1.92 5.08 3.39a21.18 21.18 0 0 1 3.4 4.82c1.83 3.43 3.19 7.06 5.63 10.24a27.75 27.75 0 0 0 9.14 7.9 24.88 24.88 0 0 0 11.96 2.88 19.98 19.98 0 0 0 11.28-3.38c3.18-2.08 5.88-4.7 9.45-6.18 1.78-.75 3.7-1.1 5.63-1.06 1.87.07 3.71.4 5.5.96 3.48 1.04 6.54 2.65 9.64 3.78a22.07 22.07 0 0 0 9.5 1.58c1.49-.14 2.92-.6 4.22-1.35a13.5 13.5 0 0 0 3.15-2.64c1.6-2 3.3-3.88 5.13-5.67a9.26 9.26 0 0 1 3.22-1.86 10.35 10.35 0 0 1 9.43 1.98c.64.6 1.23 1.25 1.79 1.93.54.63 1.08 1.2 1.6 1.74a17.83 17.83 0 0 0 5.59 4.2c.76.37 1.6.56 2.44.55Z" fill="#FDBD00"/><path d="M374 319.1c-.82.28-1.69.38-2.55.28-.85.1-1.72 0-2.53-.27a6.32 6.32 0 0 1 2.53-.27 6.4 6.4 0 0 1 2.55.27ZM374 328.45a6.4 6.4 0 0 1-2.55.27 6.3 6.3 0 0 1-2.53-.27 6.03 6.03 0 0 1 2.53-.26c.86-.1 1.73 0 2.55.26ZM374 337.8a6.4 6.4 0 0 1-2.55.26c-.85.08-1.71 0-2.53-.27a6.32 6.32 0 0 1 2.53-.26 6.4 6.4 0 0 1 2.55.26ZM374 347.13c-.82.27-1.69.37-2.55.28-.85.09-1.72 0-2.53-.28a6.3 6.3 0 0 1 2.53-.26 6.4 6.4 0 0 1 2.55.26ZM374 356.48a6.4 6.4 0 0 1-2.55.26 6.3 6.3 0 0 1-2.53-.26 5.95 5.95 0 0 1 2.53-.28c.86-.09 1.73 0 2.55.28ZM397.32 368.48c-3.38.36-6.78.36-10.15 0 3.37-.35 6.77-.35 10.15 0ZM442.07 368.48c-3.37.36-6.77.36-10.14 0 3.37-.35 6.77-.35 10.14 0ZM486.83 368.48c-3.38.36-6.78.36-10.16 0 3.38-.35 6.78-.35 10.16 0ZM531.59 368.48a48.7 48.7 0 0 1-10.16 0 48.7 48.7 0 0 1 10.16 0ZM576.33 368.48c-3.37.36-6.77.36-10.14 0 3.37-.35 6.77-.35 10.14 0Z" fill="#E0E0E0"/><path d="M157.19 392.82H25.26v91.84H157.2v-91.84Z" fill="#263238"/><path d="M142.85 420.06H7.13v33.67h135.72v-33.67Z" fill="#455A64"/><path d="M39.88 427H13.16v4.11h26.72V427ZM39.88 434.08H13.16v4.11h26.72v-4.11ZM39.88 441.4H13.16v4.1h26.72v-4.1ZM50.44 429.48a1.53 1.53 0 1 1-3.07 0 1.53 1.53 0 0 1 3.07 0ZM57.2 429.48a1.53 1.53 0 1 1-3.06 0 1.53 1.53 0 0 1 3.07 0ZM63.97 429.48a1.53 1.53 0 1 1-3.06 0 1.53 1.53 0 0 1 3.06 0ZM70.74 429.48a1.55 1.55 0 1 1-3.09.03 1.55 1.55 0 0 1 3.1-.03ZM123.16 429.48a1.53 1.53 0 1 1-3.07 0 1.53 1.53 0 0 1 3.07 0ZM130.06 429.48a1.55 1.55 0 1 1-3.1.03 1.55 1.55 0 0 1 3.1-.03ZM77.5 429.48a1.53 1.53 0 1 1-3.07 0 1.53 1.53 0 0 1 3.07 0ZM110.72 429.48a1.53 1.53 0 0 1-1.83 1.5 1.53 1.53 0 0 1-1.12-2.08 1.54 1.54 0 0 1 2.95.58Z" fill="#263238"/><path d="M84.27 429.48a1.53 1.53 0 1 1-3.07 0 1.53 1.53 0 0 1 3.07 0ZM91.03 429.48a1.53 1.53 0 1 1-3.06 0 1.53 1.53 0 0 1 3.06 0ZM104.75 429.48a1.53 1.53 0 1 1-3.07 0 1.53 1.53 0 0 1 3.07 0ZM135.67 429.48a1.53 1.53 0 0 1-1.83 1.5 1.53 1.53 0 1 1 1.83-1.5Z" fill="#F0F1F7"/><path d="M97.8 429.48a1.54 1.54 0 1 1-3.08.03 1.54 1.54 0 0 1 3.08-.03ZM117.16 429.48a1.53 1.53 0 1 1-3.07 0 1.53 1.53 0 0 1 3.07 0Z" fill="#FDBD00"/><path d="M132.6 436.88a1.52 1.52 0 0 1 .95-1.42 1.53 1.53 0 1 1-.95 1.42ZM125.84 436.88a1.53 1.53 0 1 1 3.06 0 1.53 1.53 0 0 1-3.06 0ZM119.07 436.88a1.52 1.52 0 0 1 .95-1.42 1.53 1.53 0 1 1-.95 1.42ZM112.3 436.88a1.54 1.54 0 1 1 3.09-.03 1.54 1.54 0 0 1-3.09.03ZM59.88 436.88a1.53 1.53 0 1 1 3.06 0 1.53 1.53 0 0 1-3.06 0ZM52.98 436.88a1.53 1.53 0 1 1 3.06 0 1.53 1.53 0 0 1-3.06 0ZM105.55 436.88a1.53 1.53 0 1 1 3.06 0 1.53 1.53 0 0 1-3.06 0ZM72.29 436.88a1.53 1.53 0 1 1 3.06 0 1.53 1.53 0 0 1-3.06 0Z" fill="#263238"/><path d="M98.83 436.88a1.53 1.53 0 1 1 3.05 0 1.53 1.53 0 0 1-3.05 0ZM92.01 436.88a1.53 1.53 0 1 1 3.06 0 1.53 1.53 0 0 1-3.06 0ZM78.32 436.88a1.53 1.53 0 1 1 3.06 0 1.53 1.53 0 0 1-3.06 0ZM47.37 436.88a1.53 1.53 0 1 1 3.06 0 1.53 1.53 0 0 1-3.06 0Z" fill="#F0F1F7"/><path d="M85.25 436.88a1.53 1.53 0 1 1 3.06 0 1.53 1.53 0 0 1-3.06 0ZM65.88 436.88a1.53 1.53 0 1 1 3.06 0 1.53 1.53 0 0 1-3.06 0Z" fill="#FDBD00"/><path d="M50.44 443.45a1.53 1.53 0 1 1-3.06 0 1.53 1.53 0 0 1 3.06 0ZM55.69 444.97a1.53 1.53 0 1 0 0-3.06 1.53 1.53 0 0 0 0 3.06ZM62.44 444.97a1.53 1.53 0 1 0 0-3.06 1.53 1.53 0 0 0 0 3.06ZM69.21 444.97a1.53 1.53 0 1 0 0-3.06 1.53 1.53 0 0 0 0 3.06ZM121.63 444.97a1.53 1.53 0 1 0 0-3.06 1.53 1.53 0 0 0 0 3.06ZM128.53 444.97a1.53 1.53 0 1 0 0-3.06 1.53 1.53 0 0 0 0 3.06ZM77.5 443.45a1.53 1.53 0 1 1-3.07 0 1.53 1.53 0 0 1 3.07 0ZM110.72 443.45a1.53 1.53 0 0 1-1.83 1.5 1.53 1.53 0 1 1 1.83-1.5Z" fill="#263238"/><path d="M82.73 444.97a1.53 1.53 0 1 0 0-3.06 1.53 1.53 0 0 0 0 3.06ZM91.03 443.45a1.53 1.53 0 1 1-3.06 0 1.53 1.53 0 0 1 3.06 0ZM104.75 443.45a1.53 1.53 0 1 1-3.07 0 1.53 1.53 0 0 1 3.07 0ZM135.67 443.45a1.53 1.53 0 0 1-1.83 1.5 1.53 1.53 0 1 1 1.83-1.5Z" fill="#F0F1F7"/><path d="M97.8 443.45a1.54 1.54 0 1 1-3.08.03 1.54 1.54 0 0 1 3.08-.03ZM115.63 444.97a1.53 1.53 0 1 0 0-3.06 1.53 1.53 0 0 0 0 3.06Z" fill="#FDBD00"/><path d="M142.85 461.62H7.13v33.67h135.72v-33.67Z" fill="#455A64"/><path d="M50.11 470.7a1.54 1.54 0 1 1-3.08.03 1.54 1.54 0 0 1 3.08-.03ZM56.87 470.7a1.53 1.53 0 1 1-3.06 0 1.53 1.53 0 0 1 3.06 0ZM63.64 470.7a1.53 1.53 0 1 1-3.07 0 1.53 1.53 0 0 1 3.07 0ZM70.4 470.7a1.53 1.53 0 1 1-3.06 0 1.53 1.53 0 0 1 3.06 0ZM122.82 470.7a1.53 1.53 0 1 1-3.07 0 1.53 1.53 0 0 1 3.07 0ZM129.72 470.7a1.53 1.53 0 0 1-1.83 1.5 1.53 1.53 0 1 1 1.83-1.5ZM77.11 470.7a1.53 1.53 0 1 1-3.06 0 1.53 1.53 0 0 1 3.06 0ZM110.38 470.7a1.53 1.53 0 0 1-1.83 1.5 1.53 1.53 0 1 1 1.83-1.5Z" fill="#263238"/><path d="M83.93 470.7a1.53 1.53 0 1 1-3.07 0 1.53 1.53 0 0 1 3.07 0ZM90.7 470.7a1.53 1.53 0 1 1-3.07 0 1.53 1.53 0 0 1 3.06 0ZM104.42 470.7a1.54 1.54 0 0 1-.94 1.44 1.54 1.54 0 1 1-.59-2.97 1.53 1.53 0 0 1 1.53 1.53ZM135.33 470.7a1.53 1.53 0 1 1-3.07 0 1.53 1.53 0 0 1 3.07 0Z" fill="#F0F1F7"/><path d="M97.46 470.7a1.53 1.53 0 1 1-3.06 0 1.53 1.53 0 0 1 3.06 0ZM116.83 470.7a1.53 1.53 0 1 1-3.07 0 1.53 1.53 0 0 1 3.06 0Z" fill="#FDBD00"/><path d="M132.27 478.09a1.52 1.52 0 0 1 1.83-1.5 1.53 1.53 0 1 1-1.83 1.5ZM127.04 479.62a1.53 1.53 0 1 0 0-3.07 1.53 1.53 0 0 0 0 3.07ZM118.73 478.08a1.55 1.55 0 1 1 3.1-.01 1.55 1.55 0 0 1-3.1.01ZM111.98 478.09a1.52 1.52 0 0 1 1.83-1.5 1.53 1.53 0 1 1-1.83 1.5ZM59.55 478.08a1.55 1.55 0 1 1 3.1-.02 1.55 1.55 0 0 1-3.1.02ZM52.66 478.09a1.53 1.53 0 1 1 3.06 0 1.53 1.53 0 0 1-3.06 0ZM106.74 479.62a1.53 1.53 0 1 0 0-3.07 1.53 1.53 0 0 0 0 3.07ZM73.53 479.62a1.53 1.53 0 1 0 0-3.07 1.53 1.53 0 0 0 0 3.07Z" fill="#263238"/><path d="M98.44 478.09a1.53 1.53 0 1 1 3.06 0 1.53 1.53 0 0 1-3.06 0ZM91.67 478.08a1.55 1.55 0 1 1 3.1-.02 1.55 1.55 0 0 1-3.1.02ZM79.49 479.62a1.53 1.53 0 1 0 0-3.07 1.53 1.53 0 0 0 0 3.07ZM47.04 478.08a1.54 1.54 0 1 1 3.08-.02 1.54 1.54 0 0 1-3.08.02Z" fill="#F0F1F7"/><path d="M84.92 478.09a1.53 1.53 0 1 1 3.05 0 1.53 1.53 0 0 1-3.05 0ZM65.54 478.09a1.53 1.53 0 1 1 3.06 0 1.53 1.53 0 0 1-3.06 0Z" fill="#FDBD00"/><path d="M50.11 484.66a1.54 1.54 0 1 1-3.08.03 1.54 1.54 0 0 1 3.08-.03ZM56.87 484.66a1.53 1.53 0 1 1-3.06 0 1.53 1.53 0 0 1 3.06 0ZM63.64 484.66a1.53 1.53 0 1 1-3.07 0 1.53 1.53 0 0 1 3.07 0ZM70.4 484.66a1.53 1.53 0 1 1-3.06 0 1.53 1.53 0 0 1 3.06 0ZM122.82 484.66a1.53 1.53 0 1 1-3.07 0 1.53 1.53 0 0 1 3.07 0ZM129.72 484.66a1.53 1.53 0 0 1-1.83 1.5 1.53 1.53 0 1 1 1.83-1.5ZM77.11 484.66a1.53 1.53 0 1 1-3.06 0 1.53 1.53 0 0 1 3.06 0ZM110.38 484.66a1.53 1.53 0 0 1-1.83 1.5 1.53 1.53 0 1 1 1.83-1.5Z" fill="#263238"/><path d="M83.93 484.66a1.53 1.53 0 1 1-3.07 0 1.53 1.53 0 0 1 3.07 0ZM90.7 484.66a1.53 1.53 0 1 1-3.07 0 1.53 1.53 0 0 1 3.06 0ZM104.42 484.66a1.54 1.54 0 0 1-.94 1.44 1.54 1.54 0 1 1-.59-2.97 1.53 1.53 0 0 1 1.53 1.53ZM135.33 484.66a1.53 1.53 0 1 1-3.07 0 1.53 1.53 0 0 1 3.07 0Z" fill="#F0F1F7"/><path d="M97.46 484.66a1.53 1.53 0 1 1-3.06 0 1.53 1.53 0 0 1 3.06 0ZM116.83 484.66a1.53 1.53 0 1 1-3.07 0 1.53 1.53 0 0 1 3.06 0Z" fill="#FDBD00"/><path d="M39.88 468.56H13.16v4.11h26.72v-4.11ZM39.88 475.63H13.16v4.1h26.72v-4.1ZM39.88 482.94H13.16v4.1h26.72v-4.1ZM171.53 453.68l-28.68.05v-33.67l28.68-.05v33.67ZM171.53 494.96l-28.68.06v-33.66l28.68-.06v33.66ZM40.86 400.13H14.14v4.12h26.72v-4.12ZM171.53 412.74l-28.68.06v-33.93l28.68-.05v33.92Z" fill="#263238"/><path d="M143.84 378.82H8.12v33.67h135.72v-33.67Z" fill="#455A64"/><path d="M40.86 385.76H14.14v4.1h26.72v-4.1ZM40.86 392.82H14.14v4.12h26.72v-4.12ZM51.43 388.28a1.53 1.53 0 1 1-3.07 0 1.53 1.53 0 0 1 3.07 0ZM58.2 388.28a1.55 1.55 0 1 1-3.1.02 1.55 1.55 0 0 1 3.1-.02ZM64.95 388.28a1.53 1.53 0 1 1-3.06 0 1.53 1.53 0 0 1 3.06 0ZM71.72 388.28a1.53 1.53 0 1 1-3.06 0 1.53 1.53 0 0 1 3.06 0ZM124.16 388.28a1.53 1.53 0 1 1-3.07 0 1.53 1.53 0 0 1 3.07 0ZM131.04 388.28a1.53 1.53 0 1 1-3.07 0 1.53 1.53 0 0 1 3.07 0ZM78.49 388.28a1.53 1.53 0 1 1-3.07 0 1.53 1.53 0 0 1 3.07 0ZM111.71 388.28a1.54 1.54 0 0 1-2.63 1.1 1.53 1.53 0 0 1-.34-1.68 1.55 1.55 0 0 1 2.97.58Z" fill="#263238"/><path d="M85.25 388.28a1.54 1.54 0 1 1-3.08.02 1.54 1.54 0 0 1 3.08-.02ZM92.01 388.28a1.53 1.53 0 1 1-3.06 0 1.53 1.53 0 0 1 3.06 0ZM105.74 388.28a1.53 1.53 0 1 1-3.07 0 1.53 1.53 0 0 1 3.07 0ZM136.65 388.28a1.53 1.53 0 1 1-3.07 0 1.53 1.53 0 0 1 3.07 0Z" fill="#F0F1F7"/><path d="M98.83 388.28a1.53 1.53 0 1 1-3.07 0 1.53 1.53 0 0 1 3.07 0ZM118.13 388.28a1.53 1.53 0 0 1-1.83 1.5 1.52 1.52 0 0 1-1.12-2.09 1.54 1.54 0 0 1 2.95.59Z" fill="#FDBD00"/><path d="M133.58 395.62a1.53 1.53 0 1 1 3.07 0 1.53 1.53 0 0 1-3.07 0ZM128.36 397.15a1.53 1.53 0 1 0 0-3.06 1.53 1.53 0 0 0 0 3.06ZM120.06 395.62a1.53 1.53 0 0 1 1.83-1.5 1.53 1.53 0 0 1 1.12 2.09 1.54 1.54 0 0 1-2.95-.59ZM113.3 395.62a1.53 1.53 0 1 1 3.07 0 1.53 1.53 0 0 1-3.07 0ZM60.87 395.62a1.53 1.53 0 1 1 3.07 0 1.53 1.53 0 0 1-3.07 0ZM53.97 395.62a1.53 1.53 0 1 1 3.07 0 1.53 1.53 0 0 1-3.07 0ZM106.52 395.62a1.53 1.53 0 0 1 1.83-1.5 1.52 1.52 0 0 1 1.12 2.09 1.54 1.54 0 0 1-2.95-.59ZM74.84 397.15a1.53 1.53 0 1 0 0-3.06 1.53 1.53 0 0 0 0 3.06Z" fill="#263238"/><path d="M99.77 395.62a1.53 1.53 0 1 1 3.06 0 1.53 1.53 0 0 1-3.06 0ZM94.53 397.15a1.53 1.53 0 1 0 0-3.06 1.53 1.53 0 0 0 0 3.06ZM79.27 395.62a1.53 1.53 0 1 1 3.06 0 1.53 1.53 0 0 1-3.06 0ZM49.9 397.15a1.53 1.53 0 1 0 0-3.06 1.53 1.53 0 0 0 0 3.06Z" fill="#F0F1F7"/><path d="M86.23 395.62a1.53 1.53 0 1 1 3.06 0 1.53 1.53 0 0 1-3.06 0ZM66.87 395.62a1.53 1.53 0 1 1 3.06 0 1.53 1.53 0 0 1-3.06 0Z" fill="#FDBD00"/><path d="M51.43 402.2a1.53 1.53 0 1 1-3.07 0 1.53 1.53 0 0 1 3.07 0ZM58.2 402.2a1.54 1.54 0 0 1-2.64 1.1 1.55 1.55 0 1 1 2.64-1.1ZM64.95 402.2a1.53 1.53 0 1 1-3.06 0 1.53 1.53 0 0 1 3.06 0ZM71.72 402.2a1.53 1.53 0 1 1-3.06 0 1.53 1.53 0 0 1 3.06 0ZM124.16 402.2a1.53 1.53 0 1 1-3.07 0 1.53 1.53 0 0 1 3.07 0ZM131.04 402.2a1.53 1.53 0 1 1-3.07 0 1.53 1.53 0 0 1 3.07 0ZM78.49 402.2a1.53 1.53 0 1 1-3.07 0 1.53 1.53 0 0 1 3.07 0ZM111.71 402.2a1.54 1.54 0 0 1-2.63 1.1 1.53 1.53 0 0 1-.34-1.68 1.55 1.55 0 0 1 2.97.58Z" fill="#263238"/><path d="M85.25 402.2a1.54 1.54 0 1 1-3.08.02 1.54 1.54 0 0 1 3.08-.02ZM92.01 402.2a1.53 1.53 0 1 1-3.06 0 1.53 1.53 0 0 1 3.06 0ZM105.74 402.2a1.53 1.53 0 1 1-3.07 0 1.53 1.53 0 0 1 3.07 0ZM136.65 402.2a1.53 1.53 0 1 1-3.07 0 1.53 1.53 0 0 1 3.07 0Z" fill="#F0F1F7"/><path d="M98.83 402.2a1.53 1.53 0 1 1-3.07 0 1.53 1.53 0 0 1 3.07 0ZM118.13 402.2a1.53 1.53 0 0 1-1.83 1.5 1.52 1.52 0 0 1-1.12-2.09 1.54 1.54 0 0 1 2.95.59Z" fill="#FDBD00"/><path d="M192.57 235.48h-2.26l-6.47.08-23.88.13-79.1.18.27-.31v3.62c0 38.27 0 72.93-.07 98.05 0 12.53-.08 22.67-.09 29.7v10.91-10.9c0-7.04 0-17.18-.08-29.71 0-25.12 0-59.78-.07-98.05v-3.9h79.35l23.88.07h8.17l.35.13Z" fill="#263238"/><path d="M196.31 236.72a4.47 4.47 0 1 1-8.93.01 4.47 4.47 0 0 1 8.93-.01Z" fill="#263238"/><path d="m119.25 275.03 23.14-55.82c1.06-2.54-.27-4.6-2.96-4.6h-4.65a3.01 3.01 0 0 1-2.98-1.56c-.2-.36-.3-.74-.34-1.14l-.16-2.05a3 3 0 0 0-3.32-2.68h-22.1c-1.94.1-3.77.9-5.14 2.27l-1.8 1.74a7.69 7.69 0 0 1-5.1 2.27H65.65a7.86 7.86 0 0 0-6.72 4.6l-22.92 56.97h83.23Z" fill="#FDBD00"/><path opacity=".3" d="m119.25 275.03 23.14-55.82c1.06-2.54-.27-4.6-2.96-4.6h-4.65a3.01 3.01 0 0 1-2.98-1.56c-.2-.36-.3-.74-.34-1.14l-.16-2.05a3 3 0 0 0-3.32-2.68h-22.1c-1.94.1-3.77.9-5.14 2.27l-1.8 1.74a7.69 7.69 0 0 1-5.1 2.27H65.65a7.86 7.86 0 0 0-6.72 4.6l-22.92 56.97h83.23Z" fill="#000"/><path d="m123.07 256.06 8.74-33.77c.56-2.22-.88-4.45-2.9-4.45H60.5a3.12 3.12 0 0 0-2.92 2.5l-12.7 50.83c-.56 2.23.34 3.62 2.41 3.54h68.77a3.12 3.12 0 0 0 2.87-2.5l4.13-16.15Z" fill="#E0E0E0"/><path d="m118.36 273.5 3.71-53.08a3.28 3.28 0 0 0-1.96-3.21 3.26 3.26 0 0 0-1.3-.27H47.95v56.6l70.4-.05Z" fill="#EBEBEB"/><path d="m119.14 274.71-8.44-54.76a3.91 3.91 0 0 0-3.85-3.05H35.18a3.87 3.87 0 0 0-3.62 5.39l15.48 50.18 72.1 2.24Z" fill="#FAFAFA"/><path d="m119.25 275-17.38-51.29a5.16 5.16 0 0 0-4.83-3.62h-73.9a3.63 3.63 0 0 0-3.3 4.83L36 275.02l83.25-.02Z" fill="#FDBD00"/><path d="M805.76 495.02c0 .18-179.34.32-400.52.32-221.17 0-400.51-.14-400.51-.32s179.3-.31 400.51-.31c221.22 0 400.52.14 400.52.31Z" fill="#263238"/></svg>