<svg width="262" height="659" viewBox="0 0 262 659" fill="none" xmlns="http://www.w3.org/2000/svg">
  <path d="M256.055 -3.54711e-07C259.338 -1.5881e-07 262 2.66188 262 5.94549L262 124.28C262 127.563 259.338 130.225 256.055 130.225L144.758 130.225C142.912 130.225 141.171 131.083 140.046 132.546L132.102 142.873C129.722 145.967 125.057 145.967 122.677 142.873L114.734 132.546C113.608 131.083 111.867 130.225 110.021 130.225L5.94549 130.225C2.66189 130.225 -3.93424e-06 127.563 -3.83296e-06 124.28L-1.83368e-07 5.94548C-8.20966e-08 2.66188 2.6619 -1.54722e-05 5.9455 -1.52763e-05L256.055 -3.54711e-07Z" fill="#FDBD00"/>
  <path d="M202.678 60.8892C203.001 61.2612 203.564 61.3011 203.936 60.9783C204.308 60.6555 204.348 60.0922 204.025 59.7202L202.678 60.8892ZM193.197 72.2202C192.874 71.8482 192.311 71.8083 191.939 72.1311C191.567 72.4539 191.527 73.0172 191.85 73.3892L193.197 72.2202ZM198.829 56.138C198.829 55.6455 198.43 55.2462 197.938 55.2462C197.445 55.2462 197.046 55.6455 197.046 56.138L198.829 56.138ZM197.046 76.9713C197.046 77.4639 197.445 77.8632 197.937 77.8632C198.43 77.8632 198.829 77.4639 198.829 76.9714L197.046 76.9713ZM215.796 66.5547C215.796 76.4175 207.8 84.4129 197.938 84.4129L197.938 86.1965C208.785 86.1965 217.579 77.4026 217.579 66.5547L215.796 66.5547ZM197.938 84.4129C188.075 84.4129 180.079 76.4175 180.079 66.5547L178.296 66.5547C178.296 77.4026 187.09 86.1965 197.938 86.1965L197.938 84.4129ZM180.079 66.5547C180.079 56.6919 188.075 48.6965 197.938 48.6965L197.938 46.9129C187.09 46.9129 178.296 55.7068 178.296 66.5547L180.079 66.5547ZM197.938 48.6965C207.8 48.6965 215.796 56.6919 215.796 66.5547L217.579 66.5547C217.579 55.7068 208.785 46.9129 197.938 46.9129L197.938 48.6965ZM197.938 65.6629C196.363 65.6629 194.978 65.2358 194.013 64.5923C193.041 63.9445 192.579 63.1477 192.579 62.388L190.796 62.388C190.796 63.9296 191.733 65.216 193.023 66.0763C194.32 66.9408 196.06 67.4465 197.938 67.4465L197.938 65.6629ZM192.579 62.388C192.579 61.6284 193.041 60.8315 194.013 60.1838C194.978 59.5402 196.363 59.1132 197.938 59.1132L197.938 57.3295C196.06 57.3295 194.32 57.8352 193.023 58.6997C191.733 59.56 190.796 60.8465 190.796 62.388L192.579 62.388ZM197.938 59.1132C200.067 59.1132 201.81 59.8888 202.678 60.8892L204.025 59.7202C202.732 58.2298 200.435 57.3295 197.938 57.3295L197.938 59.1132ZM197.938 67.4465C199.512 67.4465 200.897 67.8736 201.862 68.5171C202.834 69.1648 203.296 69.9617 203.296 70.7214L205.079 70.7214C205.079 69.1798 204.142 67.8933 202.852 67.033C201.555 66.1686 199.815 65.6629 197.938 65.6629L197.938 67.4465ZM197.046 56.138L197.046 58.2214L198.829 58.2214L198.829 56.138L197.046 56.138ZM197.046 74.888L197.046 76.9713L198.829 76.9714L198.829 74.888L197.046 74.888ZM197.938 73.9962C195.808 73.9962 194.065 73.2206 193.197 72.2202L191.85 73.3892C193.143 74.8796 195.44 75.7798 197.938 75.7798L197.938 73.9962ZM203.296 70.7214C203.296 71.481 202.834 72.2779 201.862 72.9256C200.897 73.5692 199.512 73.9962 197.938 73.9962L197.938 75.7798C199.815 75.7798 201.555 75.2741 202.852 74.4097C204.142 73.5494 205.079 72.2629 205.079 70.7214L203.296 70.7214ZM197.046 58.2214L197.046 74.888L198.829 74.888L198.829 58.2214L197.046 58.2214Z" fill="#111827"/>
  <path d="M39.512 37.6L36.368 37.6L36.368 46L37.256 46L37.256 43.348L39.512 43.348C41.648 43.348 42.944 42.268 42.944 40.48C42.944 38.68 41.648 37.6 39.512 37.6ZM39.488 42.568L37.256 42.568L37.256 38.368L39.488 38.368C41.168 38.368 42.056 39.136 42.056 40.48C42.056 41.8 41.168 42.568 39.488 42.568ZM50.4533 46L48.7973 43.696C49.7693 43.36 50.3453 42.616 50.3453 41.56C50.3453 40.072 49.2533 39.22 47.5133 39.22L44.8733 39.22L44.8733 46L45.7373 46L45.7373 43.888L47.5133 43.888C47.6693 43.888 47.8253 43.876 47.9813 43.864L49.5173 46L50.4533 46ZM47.4653 43.18L45.7373 43.18L45.7373 39.94L47.4653 39.94C48.7733 39.94 49.4813 40.516 49.4813 41.56C49.4813 42.592 48.7733 43.18 47.4653 43.18ZM53.2256 45.28L53.2256 42.916L56.7296 42.916L56.7296 42.208L53.2256 42.208L53.2256 39.94L57.1496 39.94L57.1496 39.22L52.3616 39.22L52.3616 46L57.2936 46L57.2936 45.28L53.2256 45.28ZM61.0304 46.072C62.7224 46.072 63.6584 45.28 63.6584 44.152C63.6584 41.668 59.4704 42.796 59.4704 41.02C59.4704 40.384 59.9864 39.88 61.1864 39.88C61.8224 39.88 62.5064 40.024 63.0824 40.432L63.3944 39.736C62.8304 39.34 62.0024 39.136 61.2104 39.136C59.5304 39.136 58.6184 39.952 58.6184 41.056C58.6184 43.6 62.7944 42.436 62.7944 44.224C62.7944 44.836 62.3024 45.34 61.0544 45.34C60.1424 45.34 59.2784 45.004 58.7744 44.548L58.4144 45.22C58.9544 45.724 59.9864 46.072 61.0304 46.072ZM66.3037 45.28L66.3037 42.916L69.8077 42.916L69.8077 42.208L66.3037 42.208L66.3037 39.94L70.2277 39.94L70.2277 39.22L65.4397 39.22L65.4397 46L70.3717 46L70.3717 45.28L66.3037 45.28ZM77.2166 39.22L77.2166 44.512L72.9566 39.22L72.2366 39.22L72.2366 46L73.1006 46L73.1006 40.708L77.3606 46L78.0806 46L78.0806 39.22L77.2166 39.22ZM81.7798 46L82.6438 46L82.6438 39.94L85.0318 39.94L85.0318 39.22L79.3918 39.22L79.3918 39.94L81.7798 39.94L81.7798 46ZM94.4908 46L95.3548 46L92.2228 39.22L91.3708 39.22L88.2388 46L89.1028 46L89.8948 44.248L93.6988 44.248L94.4908 46ZM90.2068 43.552L91.8028 40.036L93.3868 43.552L90.2068 43.552ZM101.627 39.22L101.627 44.512L97.3667 39.22L96.6467 39.22L96.6467 46L97.5107 46L97.5107 40.708L101.771 46L102.491 46L102.491 39.22L101.627 39.22ZM105.014 46L107.858 46C110.138 46 111.566 44.632 111.566 42.604C111.566 40.588 110.138 39.22 107.858 39.22L105.014 39.22L105.014 46ZM105.878 45.28L105.878 39.94L107.822 39.94C109.646 39.94 110.702 41.008 110.702 42.604C110.702 44.212 109.646 45.28 107.822 45.28L105.878 45.28ZM36.26 58L37.124 58L37.124 54.928L41.24 54.928L41.24 58L42.104 58L42.104 51.22L41.24 51.22L41.24 54.196L37.124 54.196L37.124 51.22L36.26 51.22L36.26 58ZM44.6272 58L45.4912 58L45.4912 51.22L44.6272 51.22L44.6272 58ZM49.8859 58.072C51.5779 58.072 52.5139 57.28 52.5139 56.152C52.5139 53.668 48.3259 54.796 48.3259 53.02C48.3259 52.384 48.8419 51.88 50.0419 51.88C50.6779 51.88 51.3619 52.024 51.9379 52.432L52.2499 51.736C51.6859 51.34 50.8579 51.136 50.0659 51.136C48.3859 51.136 47.4739 51.952 47.4739 53.056C47.4739 55.6 51.6499 54.436 51.6499 56.224C51.6499 56.836 51.1579 57.34 49.9099 57.34C48.9979 57.34 48.1339 57.004 47.6299 56.548L47.2699 57.22C47.8099 57.724 48.8419 58.072 49.8859 58.072ZM55.354 58L56.218 58L56.218 51.94L58.606 51.94L58.606 51.22L52.966 51.22L52.966 51.94L55.354 51.94L55.354 58ZM62.7433 58.072C64.8313 58.072 66.3793 56.596 66.3793 54.604C66.3793 52.624 64.8313 51.136 62.7433 51.136C60.6673 51.136 59.1073 52.624 59.1073 54.604C59.1073 56.596 60.6673 58.072 62.7433 58.072ZM62.7433 57.328C61.1593 57.328 59.9713 56.176 59.9713 54.616C59.9713 53.044 61.1593 51.892 62.7433 51.892C64.3273 51.892 65.5153 53.044 65.5153 54.616C65.5153 56.176 64.3273 57.328 62.7433 57.328ZM73.797 58L72.141 55.696C73.113 55.36 73.689 54.616 73.689 53.56C73.689 52.072 72.597 51.22 70.857 51.22L68.217 51.22L68.217 58L69.081 58L69.081 55.888L70.857 55.888C71.013 55.888 71.169 55.876 71.325 55.864L72.861 58L73.797 58ZM70.809 55.18L69.081 55.18L69.081 51.94L70.809 51.94C72.117 51.94 72.825 52.516 72.825 53.56C72.825 54.592 72.117 55.18 70.809 55.18ZM75.7053 58L76.5693 58L76.5693 51.22L75.7053 51.22L75.7053 58ZM82.032 58.072C83.112 58.072 83.988 57.748 84.612 57.064L84.06 56.5C83.508 57.076 82.836 57.316 82.056 57.316C80.46 57.316 79.272 56.164 79.272 54.604C79.272 53.044 80.46 51.892 82.056 51.892C82.836 51.892 83.508 52.144 84.06 52.708L84.612 52.144C84 51.472 83.112 51.136 82.032 51.136C79.968 51.136 78.408 52.624 78.408 54.604C78.408 56.596 79.968 58.072 82.032 58.072ZM91.1158 58L91.9798 58L88.8478 51.22L87.9958 51.22L84.8638 58L85.7278 58L86.5198 56.248L90.3238 56.248L91.1158 58ZM86.8318 55.552L88.4278 52.036L90.0118 55.552L86.8318 55.552ZM93.2717 58L97.9157 58L97.9157 57.28L94.1357 57.28L94.1357 51.22L93.2717 51.22L93.2717 58ZM109.66 58L109.648 51.22L108.904 51.22L106.036 56.08L103.156 51.22L102.412 51.22L102.412 58L103.24 58L103.24 52.852L105.832 57.148L106.228 57.148L108.82 52.78L108.82 58L109.66 58ZM117.202 58L118.066 58L114.934 51.22L114.082 51.22L110.95 58L111.814 58L112.606 56.248L116.41 56.248L117.202 58ZM112.918 55.552L114.514 52.036L116.098 55.552L112.918 55.552ZM124.938 58L123.282 55.696C124.254 55.36 124.83 54.616 124.83 53.56C124.83 52.072 123.738 51.22 121.998 51.22L119.358 51.22L119.358 58L120.222 58L120.222 55.888L121.998 55.888C122.154 55.888 122.31 55.876 122.466 55.864L124.002 58L124.938 58ZM121.95 55.18L120.222 55.18L120.222 51.94L121.95 51.94C123.258 51.94 123.966 52.516 123.966 53.56C123.966 54.592 123.258 55.18 121.95 55.18ZM131.742 58L132.774 58L129.618 54.292L132.57 51.22L131.598 51.22L127.71 55.156L127.71 51.22L126.846 51.22L126.846 58L127.71 58L127.71 56.224L129.03 54.904L131.742 58ZM135.022 57.28L135.022 54.916L138.526 54.916L138.526 54.208L135.022 54.208L135.022 51.94L138.946 51.94L138.946 51.22L134.158 51.22L134.158 58L139.09 58L139.09 57.28L135.022 57.28ZM142.131 58L142.995 58L142.995 51.94L145.383 51.94L145.383 51.22L139.743 51.22L139.743 51.94L142.131 51.94L142.131 58ZM38.9 63.22L36.26 63.22L36.26 70L37.124 70L37.124 67.9L38.9 67.9C40.64 67.9 41.732 67.036 41.732 65.56C41.732 64.072 40.64 63.22 38.9 63.22ZM38.852 67.18L37.124 67.18L37.124 63.94L38.852 63.94C40.16 63.94 40.868 64.516 40.868 65.56C40.868 66.592 40.16 67.18 38.852 67.18ZM49.2463 70L47.5903 67.696C48.5623 67.36 49.1383 66.616 49.1383 65.56C49.1383 64.072 48.0463 63.22 46.3063 63.22L43.6663 63.22L43.6663 70L44.5303 70L44.5303 67.888L46.3063 67.888C46.4623 67.888 46.6183 67.876 46.7743 67.864L48.3103 70L49.2463 70ZM46.2583 67.18L44.5303 67.18L44.5303 63.94L46.2583 63.94C47.5663 63.94 48.2743 64.516 48.2743 65.56C48.2743 66.592 47.5663 67.18 46.2583 67.18ZM51.1545 70L52.0185 70L52.0185 63.22L51.1545 63.22L51.1545 70ZM57.4813 70.072C58.5613 70.072 59.4373 69.748 60.0613 69.064L59.5093 68.5C58.9573 69.076 58.2853 69.316 57.5053 69.316C55.9093 69.316 54.7213 68.164 54.7213 66.604C54.7213 65.044 55.9093 63.892 57.5053 63.892C58.2853 63.892 58.9573 64.144 59.5093 64.708L60.0613 64.144C59.4493 63.472 58.5613 63.136 57.4813 63.136C55.4173 63.136 53.8573 64.624 53.8573 66.604C53.8573 68.596 55.4173 70.072 57.4813 70.072ZM62.624 69.28L62.624 66.916L66.128 66.916L66.128 66.208L62.624 66.208L62.624 63.94L66.548 63.94L66.548 63.22L61.76 63.22L61.76 70L66.692 70L66.692 69.28L62.624 69.28ZM70.4289 70.072C72.1209 70.072 73.0569 69.28 73.0569 68.152C73.0569 65.668 68.8689 66.796 68.8689 65.02C68.8689 64.384 69.3849 63.88 70.5849 63.88C71.2209 63.88 71.9049 64.024 72.4809 64.432L72.7929 63.736C72.2289 63.34 71.4009 63.136 70.6089 63.136C68.9289 63.136 68.0169 63.952 68.0169 65.056C68.0169 67.6 72.1929 66.436 72.1929 68.224C72.1929 68.836 71.7009 69.34 70.4529 69.34C69.5409 69.34 68.6769 69.004 68.1729 68.548L67.8129 69.22C68.3529 69.724 69.3849 70.072 70.4289 70.072ZM82.7668 63.94L82.7668 63.22L77.9788 63.22L77.9788 70L78.8428 70L78.8428 67.192L82.3468 67.192L82.3468 66.46L78.8428 66.46L78.8428 63.94L82.7668 63.94ZM87.3058 70.072C89.3938 70.072 90.9418 68.596 90.9418 66.604C90.9418 64.624 89.3938 63.136 87.3058 63.136C85.2298 63.136 83.6698 64.624 83.6698 66.604C83.6698 68.596 85.2298 70.072 87.3058 70.072ZM87.3058 69.328C85.7218 69.328 84.5338 68.176 84.5338 66.616C84.5338 65.044 85.7218 63.892 87.3058 63.892C88.8898 63.892 90.0778 65.044 90.0778 66.616C90.0778 68.176 88.8898 69.328 87.3058 69.328ZM98.3595 70L96.7035 67.696C97.6755 67.36 98.2515 66.616 98.2515 65.56C98.2515 64.072 97.1595 63.22 95.4195 63.22L92.7795 63.22L92.7795 70L93.6435 70L93.6435 67.888L95.4195 67.888C95.5755 67.888 95.7315 67.876 95.8875 67.864L97.4235 70L98.3595 70ZM95.3715 67.18L93.6435 67.18L93.6435 63.94L95.3715 63.94C96.6795 63.94 97.3875 64.516 97.3875 65.56C97.3875 66.592 96.6795 67.18 95.3715 67.18ZM103.408 70L108.052 70L108.052 69.28L104.272 69.28L104.272 63.22L103.408 63.22L103.408 70ZM109.408 70L110.272 70L110.272 63.22L109.408 63.22L109.408 70ZM113.971 70L114.835 70L114.835 63.94L117.223 63.94L117.223 63.22L111.583 63.22L111.583 63.94L113.971 63.94L113.971 70ZM118.526 70L119.39 70L119.39 66.928L123.506 66.928L123.506 70L124.37 70L124.37 63.22L123.506 63.22L123.506 66.196L119.39 66.196L119.39 63.22L118.526 63.22L118.526 70ZM126.893 70L127.757 70L127.757 63.22L126.893 63.22L126.893 70ZM133.088 70.072C134.876 70.072 135.956 69.028 135.956 67.12L135.956 63.22L135.116 63.22L135.116 67.096C135.116 68.584 134.384 69.328 133.088 69.328C131.792 69.328 131.072 68.572 131.072 67.096L131.072 63.22L130.208 63.22L130.208 67.12C130.208 69.028 131.288 70.072 133.088 70.072ZM145.649 70L145.637 63.22L144.893 63.22L142.025 68.08L139.145 63.22L138.401 63.22L138.401 70L139.229 70L139.229 64.852L141.821 69.148L142.217 69.148L144.809 64.78L144.809 70L145.649 70ZM148.198 68.752C147.838 68.752 147.562 69.028 147.562 69.4C147.562 69.712 147.742 69.94 147.994 70.012L147.586 71.752L148.162 71.752L148.666 70.096C148.786 69.76 148.834 69.604 148.834 69.4C148.834 69.04 148.57 68.752 148.198 68.752ZM40.964 80.836C40.472 81.172 39.908 81.316 39.272 81.316C37.628 81.316 36.44 80.164 36.44 78.604C36.44 77.044 37.628 75.892 39.236 75.892C40.04 75.892 40.724 76.144 41.288 76.708L41.84 76.144C41.228 75.472 40.328 75.136 39.224 75.136C37.136 75.136 35.576 76.624 35.576 78.604C35.576 80.596 37.136 82.072 39.26 82.072C40.22 82.072 41.156 81.772 41.792 81.208L41.792 78.604L40.964 78.604L40.964 80.836ZM49.6681 82L48.0121 79.696C48.9841 79.36 49.5601 78.616 49.5601 77.56C49.5601 76.072 48.4681 75.22 46.7281 75.22L44.0881 75.22L44.0881 82L44.9521 82L44.9521 79.888L46.7281 79.888C46.8841 79.888 47.0401 79.876 47.1961 79.864L48.7321 82L49.6681 82ZM46.6801 79.18L44.9521 79.18L44.9521 75.94L46.6801 75.94C47.9881 75.94 48.6961 76.516 48.6961 77.56C48.6961 78.592 47.9881 79.18 46.6801 79.18ZM56.5924 82L57.4564 82L54.3244 75.22L53.4724 75.22L50.3404 82L51.2044 82L51.9964 80.248L55.8004 80.248L56.5924 82ZM52.3084 79.552L53.9044 76.036L55.4884 79.552L52.3084 79.552ZM61.3883 75.22L58.7483 75.22L58.7483 82L59.6123 82L59.6123 79.9L61.3883 79.9C63.1283 79.9 64.2203 79.036 64.2203 77.56C64.2203 76.072 63.1283 75.22 61.3883 75.22ZM61.3403 79.18L59.6123 79.18L59.6123 75.94L61.3403 75.94C62.6483 75.94 63.3563 76.516 63.3563 77.56C63.3563 78.592 62.6483 79.18 61.3403 79.18ZM66.1545 82L67.0185 82L67.0185 78.928L71.1345 78.928L71.1345 82L71.9985 82L71.9985 75.22L71.1345 75.22L71.1345 78.196L67.0185 78.196L67.0185 75.22L66.1545 75.22L66.1545 82ZM74.5217 82L75.3857 82L75.3857 75.22L74.5217 75.22L74.5217 82ZM79.0844 82L79.9484 82L79.9484 75.94L82.3364 75.94L82.3364 75.22L76.6964 75.22L76.6964 75.94L79.0844 75.94L79.0844 82ZM84.5029 81.28L84.5029 78.916L88.0069 78.916L88.0069 78.208L84.5029 78.208L84.5029 75.94L88.4269 75.94L88.4269 75.22L83.6389 75.22L83.6389 82L88.5709 82L88.5709 81.28L84.5029 81.28ZM90.5184 80.752C90.1584 80.752 89.8824 81.028 89.8824 81.4C89.8824 81.712 90.0624 81.94 90.3144 82.012L89.9064 83.752L90.4824 83.752L90.9864 82.096C91.1064 81.76 91.1544 81.604 91.1544 81.4C91.1544 81.04 90.8904 80.752 90.5184 80.752ZM99.118 82.072C100.198 82.072 101.074 81.748 101.698 81.064L101.146 80.5C100.594 81.076 99.922 81.316 99.142 81.316C97.546 81.316 96.358 80.164 96.358 78.604C96.358 77.044 97.546 75.892 99.142 75.892C99.922 75.892 100.594 76.144 101.146 76.708L101.698 76.144C101.086 75.472 100.198 75.136 99.118 75.136C97.054 75.136 95.494 76.624 95.494 78.604C95.494 80.596 97.054 82.072 99.118 82.072ZM106.173 82.072C108.261 82.072 109.809 80.596 109.809 78.604C109.809 76.624 108.261 75.136 106.173 75.136C104.097 75.136 102.537 76.624 102.537 78.604C102.537 80.596 104.097 82.072 106.173 82.072ZM106.173 81.328C104.589 81.328 103.401 80.176 103.401 78.616C103.401 77.044 104.589 75.892 106.173 75.892C107.757 75.892 108.945 77.044 108.945 78.616C108.945 80.176 107.757 81.328 106.173 81.328ZM116.111 78.496C116.735 78.232 117.119 77.716 117.119 76.96C117.119 75.868 116.231 75.22 114.671 75.22L111.647 75.22L111.647 82L114.863 82C116.603 82 117.491 81.34 117.491 80.176C117.491 79.276 116.999 78.7 116.111 78.496ZM114.599 75.892C115.655 75.892 116.267 76.288 116.267 77.056C116.267 77.824 115.655 78.232 114.599 78.232L112.511 78.232L112.511 75.892L114.599 75.892ZM114.827 81.328L112.511 81.328L112.511 78.904L114.827 78.904C115.991 78.904 116.615 79.264 116.615 80.116C116.615 80.944 115.991 81.328 114.827 81.328ZM124.315 82L125.179 82L122.047 75.22L121.195 75.22L118.063 82L118.927 82L119.719 80.248L123.523 80.248L124.315 82ZM120.031 79.552L121.627 76.036L123.211 79.552L120.031 79.552ZM126.471 82L131.115 82L131.115 81.28L127.335 81.28L127.335 75.22L126.471 75.22L126.471 82ZM132.862 82L133.726 82L133.726 75.94L136.114 75.94L136.114 75.22L130.474 75.22L130.474 75.94L132.862 75.94L132.862 82ZM41.276 94L42.14 94L39.008 87.22L38.156 87.22L35.024 94L35.888 94L36.68 92.248L40.484 92.248L41.276 94ZM36.992 91.552L38.588 88.036L40.172 91.552L36.992 91.552ZM48.4119 87.22L48.4119 92.512L44.1519 87.22L43.4319 87.22L43.4319 94L44.2959 94L44.2959 88.708L48.5559 94L49.2759 94L49.2759 87.22L48.4119 87.22ZM51.7991 94L54.6431 94C56.9231 94 58.3511 92.632 58.3511 90.604C58.3511 88.588 56.9231 87.22 54.6431 87.22L51.7991 87.22L51.7991 94ZM52.6631 93.28L52.6631 87.94L54.6071 87.94C56.4311 87.94 57.4871 89.008 57.4871 90.604C57.4871 92.212 56.4311 93.28 54.6071 93.28L52.6631 93.28ZM68.3103 87.22L68.3103 92.512L64.0503 87.22L63.3303 87.22L63.3303 94L64.1943 94L64.1943 88.708L68.4543 94L69.1743 94L69.1743 87.22L68.3103 87.22ZM71.6975 94L72.5615 94L72.5615 87.22L71.6975 87.22L71.6975 94ZM78.0242 94.072C79.1042 94.072 79.9802 93.748 80.6042 93.064L80.0522 92.5C79.5002 93.076 78.8282 93.316 78.0482 93.316C76.4522 93.316 75.2642 92.164 75.2642 90.604C75.2642 89.044 76.4522 87.892 78.0482 87.892C78.8282 87.892 79.5002 88.144 80.0522 88.708L80.6042 88.144C79.9922 87.472 79.1042 87.136 78.0242 87.136C75.9602 87.136 74.4002 88.624 74.4002 90.604C74.4002 92.596 75.9602 94.072 78.0242 94.072ZM87.199 94L88.231 94L85.075 90.292L88.027 87.22L87.055 87.22L83.167 91.156L83.167 87.22L82.303 87.22L82.303 94L83.167 94L83.167 92.224L84.487 90.904L87.199 94ZM90.4795 93.28L90.4795 90.916L93.9835 90.916L93.9835 90.208L90.4795 90.208L90.4795 87.94L94.4035 87.94L94.4035 87.22L89.6155 87.22L89.6155 94L94.5475 94L94.5475 93.28L90.4795 93.28ZM96.4123 94L101.056 94L101.056 93.28L97.2763 93.28L97.2763 87.22L96.4123 87.22L96.4123 94ZM102.671 94.06C103.031 94.06 103.307 93.772 103.307 93.436C103.307 93.088 103.031 92.824 102.671 92.824C102.323 92.824 102.047 93.088 102.047 93.436C102.047 93.772 102.323 94.06 102.671 94.06Z" fill="black"/>
  <path d="M256.055 132C259.338 132 262 134.662 262 137.945L262 256.28C262 259.563 259.338 262.225 256.055 262.225L144.758 262.225C142.912 262.225 141.171 263.083 140.046 264.546L132.102 274.873C129.722 277.967 125.057 277.967 122.677 274.873L114.734 264.546C113.608 263.083 111.867 262.225 110.021 262.225L5.94549 262.225C2.66189 262.225 -3.91617e-06 259.563 -3.81536e-06 256.28L-1.82525e-07 137.945C-8.17196e-08 134.662 2.6619 132 5.9455 132L109.568 132C111.378 132 113.09 132.825 114.218 134.241L122.74 144.937C125.12 147.925 129.66 147.925 132.04 144.937L140.561 134.241C141.689 132.825 143.401 132 145.212 132L256.055 132Z" fill="#FFCC34"/>
  <path d="M187.521 186.201L190.646 186.201L197.937 179.951L204.187 186.201L208.354 186.201L210.437 196.618L215.646 196.618L219.812 215.368L220.854 215.368L220.854 216.41L175.021 216.41L175.021 215.368L176.062 215.368L180.229 196.618L185.437 196.618L187.521 186.201Z" stroke="black" stroke-width="1.78365"/>
  <path d="M193.771 214.326L193.771 209.959C193.771 208.566 194.467 207.265 195.626 206.492V206.492C197.026 205.559 198.849 205.559 200.248 206.492V206.492C201.408 207.265 202.104 208.566 202.104 209.959L202.104 214.326" stroke="black" stroke-width="1.78365"/>
  <path d="M44.36 162.6L40.748 168.828L37.1 162.6L36.368 162.6L36.368 171L37.22 171L37.22 164.316L40.52 169.932L40.94 169.932L44.24 164.28L44.24 171L45.092 171L45.092 162.6L44.36 162.6ZM47.7209 171L48.5849 171L48.5849 164.22L47.7209 164.22L47.7209 171ZM56.0877 164.22L56.0877 169.512L51.8277 164.22L51.1077 164.22L51.1077 171L51.9717 171L51.9717 165.708L56.2317 171L56.9517 171L56.9517 164.22L56.0877 164.22ZM60.3388 170.28L60.3388 167.916L63.8428 167.916L63.8428 167.208L60.3388 167.208L60.3388 164.94L64.2628 164.94L64.2628 164.22L59.4748 164.22L59.4748 171L64.4068 171L64.4068 170.28L60.3388 170.28ZM73.8763 167.496C74.5003 167.232 74.8843 166.716 74.8843 165.96C74.8843 164.868 73.9963 164.22 72.4363 164.22L69.4123 164.22L69.4123 171L72.6283 171C74.3683 171 75.2563 170.34 75.2563 169.176C75.2563 168.276 74.7643 167.7 73.8763 167.496ZM72.3643 164.892C73.4203 164.892 74.0323 165.288 74.0323 166.056C74.0323 166.824 73.4203 167.232 72.3643 167.232L70.2763 167.232L70.2763 164.892L72.3643 164.892ZM72.5923 170.328L70.2763 170.328L70.2763 167.904L72.5923 167.904C73.7563 167.904 74.3803 168.264 74.3803 169.116C74.3803 169.944 73.7563 170.328 72.5923 170.328ZM82.1929 164.22L81.3049 164.22L78.9769 167.964L76.6489 164.22L75.7249 164.22L78.5329 168.768L78.5329 171L79.3849 171L79.3849 168.792L82.1929 164.22ZM93.9338 171L93.9218 164.22L93.1778 164.22L90.3098 169.08L87.4298 164.22L86.6858 164.22L86.6858 171L87.5138 171L87.5138 165.852L90.1058 170.148L90.5018 170.148L93.0938 165.78L93.0938 171L93.9338 171ZM96.4592 171L97.3232 171L97.3232 164.22L96.4592 164.22L96.4592 171ZM104.826 164.22L104.826 169.512L100.566 164.22L99.8459 164.22L99.8459 171L100.71 171L100.71 165.708L104.97 171L105.69 171L105.69 164.22L104.826 164.22ZM109.077 170.28L109.077 167.916L112.581 167.916L112.581 167.208L109.077 167.208L109.077 164.94L113.001 164.94L113.001 164.22L108.213 164.22L108.213 171L113.145 171L113.145 170.28L109.077 170.28ZM115.093 169.752C114.733 169.752 114.457 170.028 114.457 170.4C114.457 170.712 114.637 170.94 114.889 171.012L114.481 172.752L115.057 172.752L115.561 171.096C115.681 170.76 115.729 170.604 115.729 170.4C115.729 170.04 115.465 169.752 115.093 169.752ZM38.9 176.22L36.26 176.22L36.26 183L37.124 183L37.124 180.9L38.9 180.9C40.64 180.9 41.732 180.036 41.732 178.56C41.732 177.072 40.64 176.22 38.9 176.22ZM38.852 180.18L37.124 180.18L37.124 176.94L38.852 176.94C40.16 176.94 40.868 177.516 40.868 178.56C40.868 179.592 40.16 180.18 38.852 180.18ZM49.2463 183L47.5903 180.696C48.5623 180.36 49.1383 179.616 49.1383 178.56C49.1383 177.072 48.0463 176.22 46.3063 176.22L43.6663 176.22L43.6663 183L44.5303 183L44.5303 180.888L46.3063 180.888C46.4623 180.888 46.6183 180.876 46.7743 180.864L48.3103 183L49.2463 183ZM46.2583 180.18L44.5303 180.18L44.5303 176.94L46.2583 176.94C47.5663 176.94 48.2743 177.516 48.2743 178.56C48.2743 179.592 47.5663 180.18 46.2583 180.18ZM54.1065 183.072C56.1945 183.072 57.7425 181.596 57.7425 179.604C57.7425 177.624 56.1945 176.136 54.1065 176.136C52.0305 176.136 50.4705 177.624 50.4705 179.604C50.4705 181.596 52.0305 183.072 54.1065 183.072ZM54.1065 182.328C52.5225 182.328 51.3345 181.176 51.3345 179.616C51.3345 178.044 52.5225 176.892 54.1065 176.892C55.6905 176.892 56.8785 178.044 56.8785 179.616C56.8785 181.176 55.6905 182.328 54.1065 182.328ZM60.1245 183.072C61.4805 183.072 62.1885 182.328 62.1885 180.828L62.1885 176.22L58.8405 176.22L58.8405 176.94L61.3365 176.94L61.3365 180.888C61.3365 181.86 60.9405 182.328 60.1125 182.328C59.5245 182.328 59.0445 182.04 58.6965 181.548L58.1565 182.088C58.5645 182.712 59.2965 183.072 60.1245 183.072ZM65.4951 182.28L65.4951 179.916L68.9991 179.916L68.9991 179.208L65.4951 179.208L65.4951 176.94L69.4191 176.94L69.4191 176.22L64.6311 176.22L64.6311 183L69.5631 183L69.5631 182.28L65.4951 182.28ZM74.3211 183.072C75.4011 183.072 76.2771 182.748 76.9011 182.064L76.3491 181.5C75.7971 182.076 75.1251 182.316 74.3451 182.316C72.7491 182.316 71.5611 181.164 71.5611 179.604C71.5611 178.044 72.7491 176.892 74.3451 176.892C75.1251 176.892 75.7971 177.144 76.3491 177.708L76.9011 177.144C76.2891 176.472 75.4011 176.136 74.3211 176.136C72.2571 176.136 70.6971 177.624 70.6971 179.604C70.6971 181.596 72.2571 183.072 74.3211 183.072ZM79.7758 183L80.6398 183L80.6398 176.94L83.0278 176.94L83.0278 176.22L77.3878 176.22L77.3878 176.94L79.7758 176.94L79.7758 183ZM91.9349 179.496C92.5589 179.232 92.9429 178.716 92.9429 177.96C92.9429 176.868 92.0549 176.22 90.4949 176.22L87.4709 176.22L87.4709 183L90.6869 183C92.4269 183 93.3149 182.34 93.3149 181.176C93.3149 180.276 92.8229 179.7 91.9349 179.496ZM90.4229 176.892C91.4789 176.892 92.0909 177.288 92.0909 178.056C92.0909 178.824 91.4789 179.232 90.4229 179.232L88.3349 179.232L88.3349 176.892L90.4229 176.892ZM90.6509 182.328L88.3349 182.328L88.3349 179.904L90.6509 179.904C91.8149 179.904 92.4389 180.264 92.4389 181.116C92.4389 181.944 91.8149 182.328 90.6509 182.328ZM100.252 176.22L99.3635 176.22L97.0355 179.964L94.7075 176.22L93.7835 176.22L96.5915 180.768L96.5915 183L97.4435 183L97.4435 180.792L100.252 176.22ZM107.384 176.22L104.744 176.22L104.744 183L105.608 183L105.608 180.9L107.384 180.9C109.124 180.9 110.216 180.036 110.216 178.56C110.216 177.072 109.124 176.22 107.384 176.22ZM107.336 180.18L105.608 180.18L105.608 176.94L107.336 176.94C108.644 176.94 109.352 177.516 109.352 178.56C109.352 179.592 108.644 180.18 107.336 180.18ZM117.731 183L116.075 180.696C117.047 180.36 117.623 179.616 117.623 178.56C117.623 177.072 116.531 176.22 114.791 176.22L112.151 176.22L112.151 183L113.015 183L113.015 180.888L114.791 180.888C114.947 180.888 115.103 180.876 115.259 180.864L116.795 183L117.731 183ZM114.743 180.18L113.015 180.18L113.015 176.94L114.743 176.94C116.051 176.94 116.759 177.516 116.759 178.56C116.759 179.592 116.051 180.18 114.743 180.18ZM122.591 183.072C124.679 183.072 126.227 181.596 126.227 179.604C126.227 177.624 124.679 176.136 122.591 176.136C120.515 176.136 118.955 177.624 118.955 179.604C118.955 181.596 120.515 183.072 122.591 183.072ZM122.591 182.328C121.007 182.328 119.819 181.176 119.819 179.616C119.819 178.044 121.007 176.892 122.591 176.892C124.175 176.892 125.363 178.044 125.363 179.616C125.363 181.176 124.175 182.328 122.591 182.328ZM128.609 183.072C129.965 183.072 130.673 182.328 130.673 180.828L130.673 176.22L127.325 176.22L127.325 176.94L129.821 176.94L129.821 180.888C129.821 181.86 129.425 182.328 128.597 182.328C128.009 182.328 127.529 182.04 127.181 181.548L126.641 182.088C127.049 182.712 127.781 183.072 128.609 183.072ZM133.979 182.28L133.979 179.916L137.483 179.916L137.483 179.208L133.979 179.208L133.979 176.94L137.903 176.94L137.903 176.22L133.115 176.22L133.115 183L138.047 183L138.047 182.28L133.979 182.28ZM142.805 183.072C143.885 183.072 144.761 182.748 145.385 182.064L144.833 181.5C144.281 182.076 143.609 182.316 142.829 182.316C141.233 182.316 140.045 181.164 140.045 179.604C140.045 178.044 141.233 176.892 142.829 176.892C143.609 176.892 144.281 177.144 144.833 177.708L145.385 177.144C144.773 176.472 143.885 176.136 142.805 176.136C140.741 176.136 139.181 177.624 139.181 179.604C139.181 181.596 140.741 183.072 142.805 183.072ZM148.26 183L149.124 183L149.124 176.94L151.512 176.94L151.512 176.22L145.872 176.22L145.872 176.94L148.26 176.94L148.26 183ZM36.26 195L39.104 195C41.384 195 42.812 193.632 42.812 191.604C42.812 189.588 41.384 188.22 39.104 188.22L36.26 188.22L36.26 195ZM37.124 194.28L37.124 188.94L39.068 188.94C40.892 188.94 41.948 190.008 41.948 191.604C41.948 193.212 40.892 194.28 39.068 194.28L37.124 194.28ZM49.5494 195L50.4134 195L47.2814 188.22L46.4294 188.22L43.2974 195L44.1614 195L44.9534 193.248L48.7574 193.248L49.5494 195ZM45.2654 192.552L46.8614 189.036L48.4454 192.552L45.2654 192.552ZM52.4594 195L53.3234 195L53.3234 188.94L55.7114 188.94L55.7114 188.22L50.0714 188.22L50.0714 188.94L52.4594 188.94L52.4594 195ZM61.608 195L62.472 195L59.34 188.22L58.488 188.22L55.356 195L56.22 195L57.012 193.248L60.816 193.248L61.608 195ZM57.324 192.552L58.92 189.036L60.504 192.552L57.324 192.552ZM68.2279 191.496C68.8519 191.232 69.2359 190.716 69.2359 189.96C69.2359 188.868 68.3479 188.22 66.7879 188.22L63.7639 188.22L63.7639 195L66.9799 195C68.7199 195 69.6079 194.34 69.6079 193.176C69.6079 192.276 69.1159 191.7 68.2279 191.496ZM66.7159 188.892C67.7719 188.892 68.3839 189.288 68.3839 190.056C68.3839 190.824 67.7719 191.232 66.7159 191.232L64.6279 191.232L64.6279 188.892L66.7159 188.892ZM66.9439 194.328L64.6279 194.328L64.6279 191.904L66.9439 191.904C68.1079 191.904 68.7319 192.264 68.7319 193.116C68.7319 193.944 68.1079 194.328 66.9439 194.328ZM76.4323 195L77.2963 195L74.1643 188.22L73.3123 188.22L70.1803 195L71.0443 195L71.8363 193.248L75.6403 193.248L76.4323 195ZM72.1483 192.552L73.7443 189.036L75.3283 192.552L72.1483 192.552ZM80.4601 195.072C82.1521 195.072 83.0881 194.28 83.0881 193.152C83.0881 190.668 78.9001 191.796 78.9001 190.02C78.9001 189.384 79.4161 188.88 80.6161 188.88C81.2521 188.88 81.9361 189.024 82.5121 189.432L82.8241 188.736C82.2601 188.34 81.4321 188.136 80.6401 188.136C78.9601 188.136 78.0481 188.952 78.0481 190.056C78.0481 192.6 82.2241 191.436 82.2241 193.224C82.2241 193.836 81.7321 194.34 80.4841 194.34C79.5721 194.34 78.7081 194.004 78.2041 193.548L77.8441 194.22C78.3841 194.724 79.4161 195.072 80.4601 195.072ZM85.7334 194.28L85.7334 191.916L89.2374 191.916L89.2374 191.208L85.7334 191.208L85.7334 188.94L89.6574 188.94L89.6574 188.22L84.8694 188.22L84.8694 195L89.8014 195L89.8014 194.28L85.7334 194.28ZM93.5383 195.072C95.2303 195.072 96.1663 194.28 96.1663 193.152C96.1663 190.668 91.9783 191.796 91.9783 190.02C91.9783 189.384 92.4943 188.88 93.6943 188.88C94.3303 188.88 95.0143 189.024 95.5903 189.432L95.9023 188.736C95.3383 188.34 94.5103 188.136 93.7183 188.136C92.0383 188.136 91.1263 188.952 91.1263 190.056C91.1263 192.6 95.3023 191.436 95.3023 193.224C95.3023 193.836 94.8103 194.34 93.5623 194.34C92.6503 194.34 91.7863 194.004 91.2823 193.548L90.9223 194.22C91.4623 194.724 92.4943 195.072 93.5383 195.072ZM105.876 188.94L105.876 188.22L101.088 188.22L101.088 195L101.952 195L101.952 192.192L105.456 192.192L105.456 191.46L101.952 191.46L101.952 188.94L105.876 188.94ZM110.415 195.072C112.503 195.072 114.051 193.596 114.051 191.604C114.051 189.624 112.503 188.136 110.415 188.136C108.339 188.136 106.779 189.624 106.779 191.604C106.779 193.596 108.339 195.072 110.415 195.072ZM110.415 194.328C108.831 194.328 107.643 193.176 107.643 191.616C107.643 190.044 108.831 188.892 110.415 188.892C111.999 188.892 113.187 190.044 113.187 191.616C113.187 193.176 111.999 194.328 110.415 194.328ZM121.469 195L119.813 192.696C120.785 192.36 121.361 191.616 121.361 190.56C121.361 189.072 120.269 188.22 118.529 188.22L115.889 188.22L115.889 195L116.753 195L116.753 192.888L118.529 192.888C118.685 192.888 118.841 192.876 118.997 192.864L120.533 195L121.469 195ZM118.481 192.18L116.753 192.18L116.753 188.94L118.481 188.94C119.789 188.94 120.497 189.516 120.497 190.56C120.497 191.592 119.789 192.18 118.481 192.18ZM37.124 206.28L37.124 203.916L40.628 203.916L40.628 203.208L37.124 203.208L37.124 200.94L41.048 200.94L41.048 200.22L36.26 200.22L36.26 207L41.192 207L41.192 206.28L37.124 206.28ZM48.0729 207L48.9369 207L45.8049 200.22L44.9529 200.22L41.8209 207L42.6849 207L43.4769 205.248L47.2809 205.248L48.0729 207ZM43.7889 204.552L45.3849 201.036L46.9689 204.552L43.7889 204.552ZM53.0516 207.072C54.1316 207.072 55.0076 206.748 55.6316 206.064L55.0796 205.5C54.5276 206.076 53.8556 206.316 53.0756 206.316C51.4796 206.316 50.2916 205.164 50.2916 203.604C50.2916 202.044 51.4796 200.892 53.0756 200.892C53.8556 200.892 54.5276 201.144 55.0796 201.708L55.6316 201.144C55.0196 200.472 54.1316 200.136 53.0516 200.136C50.9876 200.136 49.4276 201.624 49.4276 203.604C49.4276 205.596 50.9876 207.072 53.0516 207.072ZM57.3303 207L58.1943 207L58.1943 203.928L62.3103 203.928L62.3103 207L63.1743 207L63.1743 200.22L62.3103 200.22L62.3103 203.196L58.1943 203.196L58.1943 200.22L57.3303 200.22L57.3303 207ZM71.7901 207.072C73.8781 207.072 75.4261 205.596 75.4261 203.604C75.4261 201.624 73.8781 200.136 71.7901 200.136C69.7141 200.136 68.1541 201.624 68.1541 203.604C68.1541 205.596 69.7141 207.072 71.7901 207.072ZM71.7901 206.328C70.2061 206.328 69.0181 205.176 69.0181 203.616C69.0181 202.044 70.2061 200.892 71.7901 200.892C73.3741 200.892 74.5621 202.044 74.5621 203.616C74.5621 205.176 73.3741 206.328 71.7901 206.328ZM82.0519 200.94L82.0519 200.22L77.2639 200.22L77.2639 207L78.1279 207L78.1279 204.192L81.6319 204.192L81.6319 203.46L78.1279 203.46L78.1279 200.94L82.0519 200.94ZM88.061 207L88.925 207L88.925 200.94L91.313 200.94L91.313 200.22L85.673 200.22L85.673 200.94L88.061 200.94L88.061 207ZM92.6155 207L93.4795 207L93.4795 203.928L97.5955 203.928L97.5955 207L98.4595 207L98.4595 200.22L97.5955 200.22L97.5955 203.196L93.4795 203.196L93.4795 200.22L92.6155 200.22L92.6155 207ZM101.847 206.28L101.847 203.916L105.351 203.916L105.351 203.208L101.847 203.208L101.847 200.94L105.771 200.94L105.771 200.22L100.983 200.22L100.983 207L105.915 207L105.915 206.28L101.847 206.28ZM115.816 207L116.848 207L113.692 203.292L116.644 200.22L115.672 200.22L111.784 204.156L111.784 200.22L110.92 200.22L110.92 207L111.784 207L111.784 205.224L113.104 203.904L115.816 207ZM119.097 206.28L119.097 203.916L122.601 203.916L122.601 203.208L119.097 203.208L119.097 200.94L123.021 200.94L123.021 200.22L118.233 200.22L118.233 207L123.165 207L123.165 206.28L119.097 206.28ZM130.24 200.22L129.352 200.22L127.024 203.964L124.696 200.22L123.772 200.22L126.58 204.768L126.58 207L127.432 207L127.432 204.792L130.24 200.22ZM40.724 215.496C41.348 215.232 41.732 214.716 41.732 213.96C41.732 212.868 40.844 212.22 39.284 212.22L36.26 212.22L36.26 219L39.476 219C41.216 219 42.104 218.34 42.104 217.176C42.104 216.276 41.612 215.7 40.724 215.496ZM39.212 212.892C40.268 212.892 40.88 213.288 40.88 214.056C40.88 214.824 40.268 215.232 39.212 215.232L37.124 215.232L37.124 212.892L39.212 212.892ZM39.44 218.328L37.124 218.328L37.124 215.904L39.44 215.904C40.604 215.904 41.228 216.264 41.228 217.116C41.228 217.944 40.604 218.328 39.44 218.328ZM48.9283 219L49.7923 219L46.6603 212.22L45.8083 212.22L42.6763 219L43.5403 219L44.3323 217.248L48.1363 217.248L48.9283 219ZM44.6443 216.552L46.2403 213.036L47.8243 216.552L44.6443 216.552ZM51.8383 219L52.7023 219L52.7023 212.94L55.0903 212.94L55.0903 212.22L49.4503 212.22L49.4503 212.94L51.8383 212.94L51.8383 219ZM57.686 219L58.55 219L58.55 212.94L60.938 212.94L60.938 212.22L55.298 212.22L55.298 212.94L57.686 212.94L57.686 219ZM63.1045 218.28L63.1045 215.916L66.6085 215.916L66.6085 215.208L63.1045 215.208L63.1045 212.94L67.0285 212.94L67.0285 212.22L62.2405 212.22L62.2405 219L67.1725 219L67.1725 218.28L63.1045 218.28ZM74.6173 219L72.9613 216.696C73.9333 216.36 74.5093 215.616 74.5093 214.56C74.5093 213.072 73.4173 212.22 71.6773 212.22L69.0373 212.22L69.0373 219L69.9013 219L69.9013 216.888L71.6773 216.888C71.8333 216.888 71.9893 216.876 72.1453 216.864L73.6813 219L74.6173 219ZM71.6293 216.18L69.9013 216.18L69.9013 212.94L71.6293 212.94C72.9373 212.94 73.6453 213.516 73.6453 214.56C73.6453 215.592 72.9373 216.18 71.6293 216.18ZM81.7124 212.22L80.8244 212.22L78.4964 215.964L76.1684 212.22L75.2444 212.22L78.0524 216.768L78.0524 219L78.9044 219L78.9044 216.792L81.7124 212.22ZM91.7853 219L90.1293 216.696C91.1013 216.36 91.6773 215.616 91.6773 214.56C91.6773 213.072 90.5853 212.22 88.8453 212.22L86.2053 212.22L86.2053 219L87.0693 219L87.0693 216.888L88.8453 216.888C89.0013 216.888 89.1573 216.876 89.3133 216.864L90.8493 219L91.7853 219ZM88.7973 216.18L87.0693 216.18L87.0693 212.94L88.7973 212.94C90.1053 212.94 90.8133 213.516 90.8133 214.56C90.8133 215.592 90.1053 216.18 88.7973 216.18ZM98.7096 219L99.5736 219L96.4416 212.22L95.5896 212.22L92.4576 219L93.3216 219L94.1136 217.248L97.9176 217.248L98.7096 219ZM94.4256 216.552L96.0216 213.036L97.6056 216.552L94.4256 216.552ZM109.144 212.22L107.2 217.908L105.244 212.22L104.428 212.22L102.448 217.884L100.54 212.22L99.6399 212.22L101.956 219L102.88 219L104.824 213.408L106.768 219L107.668 219L109.984 212.22L109.144 212.22ZM43.508 231L43.496 224.22L42.752 224.22L39.884 229.08L37.004 224.22L36.26 224.22L36.26 231L37.088 231L37.088 225.852L39.68 230.148L40.076 230.148L42.668 225.78L42.668 231L43.508 231ZM51.0494 231L51.9134 231L48.7814 224.22L47.9294 224.22L44.7974 231L45.6614 231L46.4534 229.248L50.2574 229.248L51.0494 231ZM46.7654 228.552L48.3614 225.036L49.9454 228.552L46.7654 228.552ZM53.9594 231L54.8234 231L54.8234 224.94L57.2114 224.94L57.2114 224.22L51.5714 224.22L51.5714 224.94L53.9594 224.94L53.9594 231ZM59.3779 230.28L59.3779 227.916L62.8819 227.916L62.8819 227.208L59.3779 227.208L59.3779 224.94L63.3019 224.94L63.3019 224.22L58.5139 224.22L58.5139 231L63.4459 231L63.4459 230.28L59.3779 230.28ZM70.8908 231L69.2348 228.696C70.2068 228.36 70.7828 227.616 70.7828 226.56C70.7828 225.072 69.6908 224.22 67.9508 224.22L65.3108 224.22L65.3108 231L66.1748 231L66.1748 228.888L67.9508 228.888C68.1068 228.888 68.2628 228.876 68.4188 228.864L69.9548 231L70.8908 231ZM67.9028 228.18L66.1748 228.18L66.1748 224.94L67.9028 224.94C69.2108 224.94 69.9188 225.516 69.9188 226.56C69.9188 227.592 69.2108 228.18 67.9028 228.18ZM72.7991 231L73.6631 231L73.6631 224.22L72.7991 224.22L72.7991 231ZM81.2018 231L82.0658 231L78.9338 224.22L78.0818 224.22L74.9498 231L75.8138 231L76.6058 229.248L80.4098 229.248L81.2018 231ZM76.9178 228.552L78.5138 225.036L80.0978 228.552L76.9178 228.552ZM83.3577 231L88.0017 231L88.0017 230.28L84.2217 230.28L84.2217 224.22L83.3577 224.22L83.3577 231ZM91.1359 231.072C92.8279 231.072 93.7639 230.28 93.7639 229.152C93.7639 226.668 89.5759 227.796 89.5759 226.02C89.5759 225.384 90.0919 224.88 91.2919 224.88C91.9279 224.88 92.6119 225.024 93.1879 225.432L93.4999 224.736C92.9359 224.34 92.1079 224.136 91.3159 224.136C89.6359 224.136 88.7239 224.952 88.7239 226.056C88.7239 228.6 92.8999 227.436 92.8999 229.224C92.8999 229.836 92.4079 230.34 91.1599 230.34C90.2479 230.34 89.3839 230.004 88.8799 229.548L88.5199 230.22C89.0599 230.724 90.0919 231.072 91.1359 231.072ZM95.6863 231.06C96.0463 231.06 96.3223 230.772 96.3223 230.436C96.3223 230.088 96.0463 229.824 95.6863 229.824C95.3383 229.824 95.0623 230.088 95.0623 230.436C95.0623 230.772 95.3383 231.06 95.6863 231.06Z" fill="black"/>
  <path d="M256.055 397C259.338 397 262 399.662 262 402.945L262 521.28C262 524.563 259.338 527.225 256.055 527.225L144.758 527.225C142.912 527.225 141.171 528.083 140.046 529.546L132.102 539.873C129.722 542.967 125.057 542.967 122.677 539.873L114.734 529.546C113.608 528.083 111.867 527.225 110.021 527.225L5.94549 527.225C2.66189 527.225 -3.91616e-06 524.563 -3.81536e-06 521.28L-1.82525e-07 402.945C-8.17195e-08 399.662 2.6619 397 5.9455 397L109.568 397C111.378 397 113.09 397.825 114.218 399.241L122.74 409.937C125.12 412.925 129.66 412.925 132.04 409.937L140.561 399.241C141.689 397.825 143.401 397 145.212 397L256.055 397Z" fill="#FDD24C"/>
  <path d="M186.296 461.473L186.296 463.339L187.748 462.167L196.139 455.392C196.769 455.015 197.136 455.01 197.334 455.072C197.438 455.105 197.463 455.14 197.475 455.16C197.498 455.195 197.546 455.3 197.546 455.54L197.546 461.473L197.546 463.339L198.998 462.167L207.389 455.392C208.019 455.015 208.386 455.01 208.584 455.072C208.688 455.105 208.713 455.14 208.725 455.16C208.748 455.195 208.796 455.3 208.796 455.54L208.796 461.473L208.796 463.339L210.248 462.167L218.633 455.397C219.302 455.012 219.671 455.012 219.849 455.07C219.941 455.1 219.962 455.131 219.975 455.151C219.998 455.188 220.046 455.296 220.046 455.54L220.046 482.303C220.046 482.858 219.861 483.293 219.48 483.663C219.087 484.047 218.649 484.223 218.125 484.223L178.75 484.223C178.195 484.223 177.76 484.039 177.389 483.658C177.006 483.264 176.829 482.827 176.829 482.303L176.829 442.928C176.829 442.372 177.014 441.938 177.395 441.567C177.788 441.184 178.226 441.007 178.75 441.007L184.375 441.007C184.899 441.007 185.337 441.184 185.73 441.567C186.111 441.938 186.296 442.372 186.296 442.928L186.296 461.473Z" stroke="black" stroke-width="1.78365"/>
  <path d="M40.016 452.072C41.252 452.072 42.356 451.652 43.1 450.836L42.536 450.272C41.852 450.98 41.012 451.28 40.052 451.28C38.024 451.28 36.5 449.792 36.5 447.8C36.5 445.808 38.024 444.32 40.052 444.32C41.012 444.32 41.852 444.62 42.536 445.316L43.1 444.752C42.356 443.936 41.252 443.528 40.028 443.528C37.496 443.528 35.624 445.34 35.624 447.8C35.624 450.26 37.496 452.072 40.016 452.072ZM49.7838 452L50.6478 452L47.5158 445.22L46.6638 445.22L43.5318 452L44.3958 452L45.1878 450.248L48.9918 450.248L49.7838 452ZM45.4998 449.552L47.0958 446.036L48.6798 449.552L45.4998 449.552ZM52.6938 452L53.5578 452L53.5578 445.94L55.9458 445.94L55.9458 445.22L50.3058 445.22L50.3058 445.94L52.6938 445.94L52.6938 452ZM57.2483 452L58.1123 452L58.1123 448.928L62.2283 448.928L62.2283 452L63.0923 452L63.0923 445.22L62.2283 445.22L62.2283 448.196L58.1123 448.196L58.1123 445.22L57.2483 445.22L57.2483 452ZM68.5675 452.072C70.6555 452.072 72.2035 450.596 72.2035 448.604C72.2035 446.624 70.6555 445.136 68.5675 445.136C66.4915 445.136 64.9315 446.624 64.9315 448.604C64.9315 450.596 66.4915 452.072 68.5675 452.072ZM68.5675 451.328C66.9835 451.328 65.7955 450.176 65.7955 448.616C65.7955 447.044 66.9835 445.892 68.5675 445.892C70.1515 445.892 71.3395 447.044 71.3395 448.616C71.3395 450.176 70.1515 451.328 68.5675 451.328ZM74.0413 452L76.8853 452C79.1653 452 80.5933 450.632 80.5933 448.604C80.5933 446.588 79.1653 445.22 76.8853 445.22L74.0413 445.22L74.0413 452ZM74.9053 451.28L74.9053 445.94L76.8493 445.94C78.6733 445.94 79.7293 447.008 79.7293 448.604C79.7293 450.212 78.6733 451.28 76.8493 451.28L74.9053 451.28ZM83.2959 451.28L83.2959 448.916L86.7999 448.916L86.7999 448.208L83.2959 448.208L83.2959 445.94L87.2199 445.94L87.2199 445.22L82.4319 445.22L82.4319 452L87.3639 452L87.3639 451.28L83.2959 451.28ZM91.1008 452.072C92.7928 452.072 93.7288 451.28 93.7288 450.152C93.7288 447.668 89.5408 448.796 89.5408 447.02C89.5408 446.384 90.0568 445.88 91.2568 445.88C91.8928 445.88 92.5768 446.024 93.1528 446.432L93.4648 445.736C92.9008 445.34 92.0728 445.136 91.2808 445.136C89.6008 445.136 88.6888 445.952 88.6888 447.056C88.6888 449.6 92.8648 448.436 92.8648 450.224C92.8648 450.836 92.3728 451.34 91.1248 451.34C90.2128 451.34 89.3488 451.004 88.8448 450.548L88.4848 451.22C89.0248 451.724 90.0568 452.072 91.1008 452.072ZM103.667 452L104.531 452L101.399 445.22L100.547 445.22L97.4146 452L98.2786 452L99.0706 450.248L102.875 450.248L103.667 452ZM99.3826 449.552L100.979 446.036L102.563 449.552L99.3826 449.552ZM110.803 445.22L110.803 450.512L106.543 445.22L105.823 445.22L105.823 452L106.687 452L106.687 446.708L110.947 452L111.667 452L111.667 445.22L110.803 445.22ZM114.19 452L117.034 452C119.314 452 120.742 450.632 120.742 448.604C120.742 446.588 119.314 445.22 117.034 445.22L114.19 445.22L114.19 452ZM115.054 451.28L115.054 445.94L116.998 445.94C118.822 445.94 119.878 447.008 119.878 448.604C119.878 450.212 118.822 451.28 116.998 451.28L115.054 451.28ZM41.276 464L42.14 464L39.008 457.22L38.156 457.22L35.024 464L35.888 464L36.68 462.248L40.484 462.248L41.276 464ZM36.992 461.552L38.588 458.036L40.172 461.552L36.992 461.552ZM48.4119 457.22L48.4119 462.512L44.1519 457.22L43.4319 457.22L43.4319 464L44.2959 464L44.2959 458.708L48.5559 464L49.2759 464L49.2759 457.22L48.4119 457.22ZM54.7511 464.072C56.8391 464.072 58.3871 462.596 58.3871 460.604C58.3871 458.624 56.8391 457.136 54.7511 457.136C52.6751 457.136 51.1151 458.624 51.1151 460.604C51.1151 462.596 52.6751 464.072 54.7511 464.072ZM54.7511 463.328C53.1671 463.328 51.9791 462.176 51.9791 460.616C51.9791 459.044 53.1671 457.892 54.7511 457.892C56.3351 457.892 57.5231 459.044 57.5231 460.616C57.5231 462.176 56.3351 463.328 54.7511 463.328ZM60.2248 464L63.0688 464C65.3488 464 66.7768 462.632 66.7768 460.604C66.7768 458.588 65.3488 457.22 63.0688 457.22L60.2248 457.22L60.2248 464ZM61.0888 463.28L61.0888 457.94L63.0328 457.94C64.8568 457.94 65.9128 459.008 65.9128 460.604C65.9128 462.212 64.8568 463.28 63.0328 463.28L61.0888 463.28ZM69.4795 463.28L69.4795 460.916L72.9835 460.916L72.9835 460.208L69.4795 460.208L69.4795 457.94L73.4035 457.94L73.4035 457.22L68.6155 457.22L68.6155 464L73.5475 464L73.5475 463.28L69.4795 463.28ZM81.193 457.22L78.553 457.22L78.553 464L79.417 464L79.417 461.9L81.193 461.9C82.933 461.9 84.025 461.036 84.025 459.56C84.025 458.072 82.933 457.22 81.193 457.22ZM81.145 461.18L79.417 461.18L79.417 457.94L81.145 457.94C82.453 457.94 83.161 458.516 83.161 459.56C83.161 460.592 82.453 461.18 81.145 461.18ZM85.9592 464L90.6032 464L90.6032 463.28L86.8232 463.28L86.8232 457.22L85.9592 457.22L85.9592 464ZM96.9987 464L97.8627 464L94.7307 457.22L93.8787 457.22L90.7467 464L91.6107 464L92.4027 462.248L96.2067 462.248L96.9987 464ZM92.7147 461.552L94.3107 458.036L95.8947 461.552L92.7147 461.552ZM104.135 457.22L104.135 462.512L99.8745 457.22L99.1545 457.22L99.1545 464L100.019 464L100.019 458.708L104.279 464L104.999 464L104.999 457.22L104.135 457.22ZM108.698 464L109.562 464L109.562 457.94L111.95 457.94L111.95 457.22L106.31 457.22L106.31 457.94L108.698 457.94L108.698 464ZM36.26 476L39.104 476C41.384 476 42.812 474.632 42.812 472.604C42.812 470.588 41.384 469.22 39.104 469.22L36.26 469.22L36.26 476ZM37.124 475.28L37.124 469.94L39.068 469.94C40.892 469.94 41.948 471.008 41.948 472.604C41.948 474.212 40.892 475.28 39.068 475.28L37.124 475.28ZM49.5494 476L50.4134 476L47.2814 469.22L46.4294 469.22L43.2974 476L44.1614 476L44.9534 474.248L48.7574 474.248L49.5494 476ZM45.2654 473.552L46.8614 470.036L48.4454 473.552L45.2654 473.552ZM52.4594 476L53.3234 476L53.3234 469.94L55.7114 469.94L55.7114 469.22L50.0714 469.22L50.0714 469.94L52.4594 469.94L52.4594 476ZM61.608 476L62.472 476L59.34 469.22L58.488 469.22L55.356 476L56.22 476L57.012 474.248L60.816 474.248L61.608 476ZM57.324 473.552L58.92 470.036L60.504 473.552L57.324 473.552ZM68.2279 472.496C68.8519 472.232 69.2359 471.716 69.2359 470.96C69.2359 469.868 68.3479 469.22 66.7879 469.22L63.7639 469.22L63.7639 476L66.9799 476C68.7199 476 69.6079 475.34 69.6079 474.176C69.6079 473.276 69.1159 472.7 68.2279 472.496ZM66.7159 469.892C67.7719 469.892 68.3839 470.288 68.3839 471.056C68.3839 471.824 67.7719 472.232 66.7159 472.232L64.6279 472.232L64.6279 469.892L66.7159 469.892ZM66.9439 475.328L64.6279 475.328L64.6279 472.904L66.9439 472.904C68.1079 472.904 68.7319 473.264 68.7319 474.116C68.7319 474.944 68.1079 475.328 66.9439 475.328ZM76.4323 476L77.2963 476L74.1643 469.22L73.3123 469.22L70.1803 476L71.0443 476L71.8363 474.248L75.6403 474.248L76.4323 476ZM72.1483 473.552L73.7443 470.036L75.3283 473.552L72.1483 473.552ZM80.4601 476.072C82.1521 476.072 83.0881 475.28 83.0881 474.152C83.0881 471.668 78.9001 472.796 78.9001 471.02C78.9001 470.384 79.4161 469.88 80.6161 469.88C81.2521 469.88 81.9361 470.024 82.5121 470.432L82.8241 469.736C82.2601 469.34 81.4321 469.136 80.6401 469.136C78.9601 469.136 78.0481 469.952 78.0481 471.056C78.0481 473.6 82.2241 472.436 82.2241 474.224C82.2241 474.836 81.7321 475.34 80.4841 475.34C79.5721 475.34 78.7081 475.004 78.2041 474.548L77.8441 475.22C78.3841 475.724 79.4161 476.072 80.4601 476.072ZM85.7334 475.28L85.7334 472.916L89.2374 472.916L89.2374 472.208L85.7334 472.208L85.7334 469.94L89.6574 469.94L89.6574 469.22L84.8694 469.22L84.8694 476L89.8014 476L89.8014 475.28L85.7334 475.28ZM91.7488 476.06C92.1088 476.06 92.3848 475.772 92.3848 475.436C92.3848 475.088 92.1088 474.824 91.7488 474.824C91.4008 474.824 91.1248 475.088 91.1248 475.436C91.1248 475.772 91.4008 476.06 91.7488 476.06Z" fill="black"/>
  <path d="M256.055 264C259.338 264 262 266.662 262 269.945L262 389.154C262 392.437 259.338 395.099 256.055 395.099L144.77 395.099C142.918 395.099 141.171 395.963 140.046 397.435L132.114 407.817C129.735 410.931 125.045 410.931 122.665 407.817L114.734 397.435C113.609 395.963 111.862 395.099 110.009 395.099L5.94549 395.099C2.66189 395.099 -3.94297e-06 392.437 -3.84217e-06 389.154L-1.82524e-07 269.945C-8.17189e-08 266.662 2.6619 264 5.9455 264L109.556 264C111.373 264 113.091 264.831 114.218 266.256L122.727 277.009C125.108 280.017 129.672 280.017 132.052 277.009L140.561 266.256C141.689 264.831 143.406 264 145.223 264L256.055 264Z" fill="#FEEBB2"/>
  <path d="M191.688 345.492L191.688 332.992C191.688 330.69 189.822 328.825 187.521 328.825L183.354 328.825C181.053 328.825 179.188 330.69 179.188 332.992L179.188 345.492C179.188 347.793 181.053 349.658 183.354 349.658L187.521 349.658C189.822 349.658 191.688 347.793 191.688 345.492ZM191.688 345.492L191.688 324.658C191.688 322.357 193.553 320.492 195.854 320.492L200.021 320.492C202.322 320.492 204.188 322.357 204.188 324.658L204.188 345.492M191.688 345.492C191.688 347.793 193.553 349.658 195.854 349.658L200.021 349.658C202.322 349.658 204.188 347.793 204.188 345.492M204.188 345.492L204.188 316.325C204.188 314.024 206.053 312.158 208.354 312.158L212.521 312.158C214.822 312.158 216.688 314.024 216.688 316.325L216.688 345.492C216.688 347.793 214.822 349.658 212.521 349.658L208.354 349.658C206.053 349.658 204.188 347.793 204.188 345.492Z" stroke="#111827" stroke-width="1.78365" stroke-linecap="round" stroke-linejoin="round"/>
  <path d="M40.016 304.072C41.252 304.072 42.356 303.652 43.1 302.836L42.536 302.272C41.852 302.98 41.012 303.28 40.052 303.28C38.024 303.28 36.5 301.792 36.5 299.8C36.5 297.808 38.024 296.32 40.052 296.32C41.012 296.32 41.852 296.62 42.536 297.316L43.1 296.752C42.356 295.936 41.252 295.528 40.028 295.528C37.496 295.528 35.624 297.34 35.624 299.8C35.624 302.26 37.496 304.072 40.016 304.072ZM47.6261 304.072C49.7141 304.072 51.2621 302.596 51.2621 300.604C51.2621 298.624 49.7141 297.136 47.6261 297.136C45.5501 297.136 43.9901 298.624 43.9901 300.604C43.9901 302.596 45.5501 304.072 47.6261 304.072ZM47.6261 303.328C46.0421 303.328 44.8541 302.176 44.8541 300.616C44.8541 299.044 46.0421 297.892 47.6261 297.892C49.2101 297.892 50.3981 299.044 50.3981 300.616C50.3981 302.176 49.2101 303.328 47.6261 303.328ZM54.9718 304.072C56.6638 304.072 57.5998 303.28 57.5998 302.152C57.5998 299.668 53.4118 300.796 53.4118 299.02C53.4118 298.384 53.9278 297.88 55.1278 297.88C55.7638 297.88 56.4478 298.024 57.0238 298.432L57.3358 297.736C56.7718 297.34 55.9438 297.136 55.1518 297.136C53.4718 297.136 52.5598 297.952 52.5598 299.056C52.5598 301.6 56.7358 300.436 56.7358 302.224C56.7358 302.836 56.2438 303.34 54.9958 303.34C54.0838 303.34 53.2198 303.004 52.7158 302.548L52.3558 303.22C52.8958 303.724 53.9278 304.072 54.9718 304.072ZM60.4399 304L61.3039 304L61.3039 297.94L63.6919 297.94L63.6919 297.22L58.0519 297.22L58.0519 297.94L60.4399 297.94L60.4399 304ZM71.891 304.072C73.127 304.072 74.231 303.652 74.975 302.836L74.411 302.272C73.727 302.98 72.887 303.28 71.927 303.28C69.899 303.28 68.375 301.792 68.375 299.8C68.375 297.808 69.899 296.32 71.927 296.32C72.887 296.32 73.727 296.62 74.411 297.316L74.975 296.752C74.231 295.936 73.127 295.528 71.903 295.528C69.371 295.528 67.499 297.34 67.499 299.8C67.499 302.26 69.371 304.072 71.891 304.072ZM79.3571 304.072C81.1451 304.072 82.2251 303.028 82.2251 301.12L82.2251 297.22L81.3851 297.22L81.3851 301.096C81.3851 302.584 80.6531 303.328 79.3571 303.328C78.0611 303.328 77.3411 302.572 77.3411 301.096L77.3411 297.22L76.4771 297.22L76.4771 301.12C76.4771 303.028 77.5571 304.072 79.3571 304.072ZM90.2502 304L88.5942 301.696C89.5662 301.36 90.1422 300.616 90.1422 299.56C90.1422 298.072 89.0502 297.22 87.3102 297.22L84.6702 297.22L84.6702 304L85.5342 304L85.5342 301.888L87.3102 301.888C87.4662 301.888 87.6222 301.876 87.7782 301.864L89.3142 304L90.2502 304ZM87.2622 301.18L85.5342 301.18L85.5342 297.94L87.2622 297.94C88.5702 297.94 89.2782 298.516 89.2782 299.56C89.2782 300.592 88.5702 301.18 87.2622 301.18ZM97.1024 297.22L94.5344 302.98L91.9784 297.22L91.0544 297.22L94.0904 304L94.9424 304L97.9784 297.22L97.1024 297.22ZM100.253 303.28L100.253 300.916L103.757 300.916L103.757 300.208L100.253 300.208L100.253 297.94L104.177 297.94L104.177 297.22L99.3889 297.22L99.3889 304L104.321 304L104.321 303.28L100.253 303.28ZM108.058 304.072C109.75 304.072 110.686 303.28 110.686 302.152C110.686 299.668 106.498 300.796 106.498 299.02C106.498 298.384 107.014 297.88 108.214 297.88C108.85 297.88 109.534 298.024 110.11 298.432L110.422 297.736C109.858 297.34 109.03 297.136 108.238 297.136C106.558 297.136 105.646 297.952 105.646 299.056C105.646 301.6 109.822 300.436 109.822 302.224C109.822 302.836 109.33 303.34 108.082 303.34C107.17 303.34 106.306 303.004 105.802 302.548L105.442 303.22C105.982 303.724 107.014 304.072 108.058 304.072ZM120.396 297.94L120.396 297.22L115.608 297.22L115.608 304L116.472 304L116.472 301.192L119.976 301.192L119.976 300.46L116.472 300.46L116.472 297.94L120.396 297.94ZM124.935 304.072C127.023 304.072 128.571 302.596 128.571 300.604C128.571 298.624 127.023 297.136 124.935 297.136C122.859 297.136 121.299 298.624 121.299 300.604C121.299 302.596 122.859 304.072 124.935 304.072ZM124.935 303.328C123.351 303.328 122.163 302.176 122.163 300.616C122.163 299.044 123.351 297.892 124.935 297.892C126.519 297.892 127.707 299.044 127.707 300.616C127.707 302.176 126.519 303.328 124.935 303.328ZM135.988 304L134.332 301.696C135.304 301.36 135.88 300.616 135.88 299.56C135.88 298.072 134.788 297.22 133.048 297.22L130.408 297.22L130.408 304L131.272 304L131.272 301.888L133.048 301.888C133.204 301.888 133.36 301.876 133.516 301.864L135.052 304L135.988 304ZM133 301.18L131.272 301.18L131.272 297.94L133 297.94C134.308 297.94 135.016 298.516 135.016 299.56C135.016 300.592 134.308 301.18 133 301.18ZM37.124 315.28L37.124 312.916L40.628 312.916L40.628 312.208L37.124 312.208L37.124 309.94L41.048 309.94L41.048 309.22L36.26 309.22L36.26 316L41.192 316L41.192 315.28L37.124 315.28ZM48.0729 316L48.9369 316L45.8049 309.22L44.9529 309.22L41.8209 316L42.6849 316L43.4769 314.248L47.2809 314.248L48.0729 316ZM43.7889 313.552L45.3849 310.036L46.9689 313.552L43.7889 313.552ZM53.0516 316.072C54.1316 316.072 55.0076 315.748 55.6316 315.064L55.0796 314.5C54.5276 315.076 53.8556 315.316 53.0756 315.316C51.4796 315.316 50.2916 314.164 50.2916 312.604C50.2916 311.044 51.4796 309.892 53.0756 309.892C53.8556 309.892 54.5276 310.144 55.0796 310.708L55.6316 310.144C55.0196 309.472 54.1316 309.136 53.0516 309.136C50.9876 309.136 49.4276 310.624 49.4276 312.604C49.4276 314.596 50.9876 316.072 53.0516 316.072ZM57.3303 316L58.1943 316L58.1943 312.928L62.3103 312.928L62.3103 316L63.1743 316L63.1743 309.22L62.3103 309.22L62.3103 312.196L58.1943 312.196L58.1943 309.22L57.3303 309.22L57.3303 316ZM71.7901 316.072C73.8781 316.072 75.4261 314.596 75.4261 312.604C75.4261 310.624 73.8781 309.136 71.7901 309.136C69.7141 309.136 68.1541 310.624 68.1541 312.604C68.1541 314.596 69.7141 316.072 71.7901 316.072ZM71.7901 315.328C70.2061 315.328 69.0181 314.176 69.0181 312.616C69.0181 311.044 70.2061 309.892 71.7901 309.892C73.3741 309.892 74.5621 311.044 74.5621 312.616C74.5621 314.176 73.3741 315.328 71.7901 315.328ZM82.0519 309.94L82.0519 309.22L77.2639 309.22L77.2639 316L78.1279 316L78.1279 313.192L81.6319 313.192L81.6319 312.46L78.1279 312.46L78.1279 309.94L82.0519 309.94ZM88.061 316L88.925 316L88.925 309.94L91.313 309.94L91.313 309.22L85.673 309.22L85.673 309.94L88.061 309.94L88.061 316ZM92.6155 316L93.4795 316L93.4795 312.928L97.5955 312.928L97.5955 316L98.4595 316L98.4595 309.22L97.5955 309.22L97.5955 312.196L93.4795 312.196L93.4795 309.22L92.6155 309.22L92.6155 316ZM101.847 315.28L101.847 312.916L105.351 312.916L105.351 312.208L101.847 312.208L101.847 309.94L105.771 309.94L105.771 309.22L100.983 309.22L100.983 316L105.915 316L105.915 315.28L101.847 315.28ZM115.816 316L116.848 316L113.692 312.292L116.644 309.22L115.672 309.22L111.784 313.156L111.784 309.22L110.92 309.22L110.92 316L111.784 316L111.784 314.224L113.104 312.904L115.816 316ZM119.097 315.28L119.097 312.916L122.601 312.916L122.601 312.208L119.097 312.208L119.097 309.94L123.021 309.94L123.021 309.22L118.233 309.22L118.233 316L123.165 316L123.165 315.28L119.097 315.28ZM130.24 309.22L129.352 309.22L127.024 312.964L124.696 309.22L123.772 309.22L126.58 313.768L126.58 316L127.432 316L127.432 313.792L130.24 309.22ZM41.84 328L40.184 325.696C41.156 325.36 41.732 324.616 41.732 323.56C41.732 322.072 40.64 321.22 38.9 321.22L36.26 321.22L36.26 328L37.124 328L37.124 325.888L38.9 325.888C39.056 325.888 39.212 325.876 39.368 325.864L40.904 328L41.84 328ZM38.852 325.18L37.124 325.18L37.124 321.94L38.852 321.94C40.16 321.94 40.868 322.516 40.868 323.56C40.868 324.592 40.16 325.18 38.852 325.18ZM48.7643 328L49.6283 328L46.4963 321.22L45.6443 321.22L42.5123 328L43.3763 328L44.1683 326.248L47.9723 326.248L48.7643 328ZM44.4803 325.552L46.0763 322.036L47.6603 325.552L44.4803 325.552ZM59.1986 321.22L57.2546 326.908L55.2986 321.22L54.4826 321.22L52.5026 326.884L50.5946 321.22L49.6946 321.22L52.0106 328L52.9346 328L54.8786 322.408L56.8226 328L57.7226 328L60.0386 321.22L59.1986 321.22ZM72.1603 328L72.1483 321.22L71.4043 321.22L68.5363 326.08L65.6563 321.22L64.9123 321.22L64.9123 328L65.7403 328L65.7403 322.852L68.3323 327.148L68.7283 327.148L71.3203 322.78L71.3203 328L72.1603 328ZM79.7018 328L80.5658 328L77.4338 321.22L76.5818 321.22L73.4498 328L74.3138 328L75.1058 326.248L78.9098 326.248L79.7018 328ZM75.4178 325.552L77.0138 322.036L78.5978 325.552L75.4178 325.552ZM82.6118 328L83.4758 328L83.4758 321.94L85.8638 321.94L85.8638 321.22L80.2238 321.22L80.2238 321.94L82.6118 321.94L82.6118 328ZM88.0303 327.28L88.0303 324.916L91.5343 324.916L91.5343 324.208L88.0303 324.208L88.0303 321.94L91.9543 321.94L91.9543 321.22L87.1663 321.22L87.1663 328L92.0983 328L92.0983 327.28L88.0303 327.28ZM99.5431 328L97.8871 325.696C98.8591 325.36 99.4351 324.616 99.4351 323.56C99.4351 322.072 98.3431 321.22 96.6031 321.22L93.9631 321.22L93.9631 328L94.8271 328L94.8271 325.888L96.6031 325.888C96.7591 325.888 96.9151 325.876 97.0711 325.864L98.6071 328L99.5431 328ZM96.5551 325.18L94.8271 325.18L94.8271 321.94L96.5551 321.94C97.8631 321.94 98.5711 322.516 98.5711 323.56C98.5711 324.592 97.8631 325.18 96.5551 325.18ZM101.451 328L102.315 328L102.315 321.22L101.451 321.22L101.451 328ZM109.854 328L110.718 328L107.586 321.22L106.734 321.22L103.602 328L104.466 328L105.258 326.248L109.062 326.248L109.854 328ZM105.57 325.552L107.166 322.036L108.75 325.552L105.57 325.552ZM112.01 328L116.654 328L116.654 327.28L112.874 327.28L112.874 321.22L112.01 321.22L112.01 328ZM119.788 328.072C121.48 328.072 122.416 327.28 122.416 326.152C122.416 323.668 118.228 324.796 118.228 323.02C118.228 322.384 118.744 321.88 119.944 321.88C120.58 321.88 121.264 322.024 121.84 322.432L122.152 321.736C121.588 321.34 120.76 321.136 119.968 321.136C118.288 321.136 117.376 321.952 117.376 323.056C117.376 325.6 121.552 324.436 121.552 326.224C121.552 326.836 121.06 327.34 119.812 327.34C118.9 327.34 118.036 327.004 117.532 326.548L117.172 327.22C117.712 327.724 118.744 328.072 119.788 328.072ZM132.354 328L133.218 328L130.086 321.22L129.234 321.22L126.102 328L126.966 328L127.758 326.248L131.562 326.248L132.354 328ZM128.07 325.552L129.666 322.036L131.25 325.552L128.07 325.552ZM139.49 321.22L139.49 326.512L135.23 321.22L134.51 321.22L134.51 328L135.374 328L135.374 322.708L139.634 328L140.354 328L140.354 321.22L139.49 321.22ZM142.877 328L145.721 328C148.001 328 149.429 326.632 149.429 324.604C149.429 322.588 148.001 321.22 145.721 321.22L142.877 321.22L142.877 328ZM143.741 327.28L143.741 321.94L145.685 321.94C147.509 321.94 148.565 323.008 148.565 324.604C148.565 326.212 147.509 327.28 145.685 327.28L143.741 327.28ZM40.724 336.496C41.348 336.232 41.732 335.716 41.732 334.96C41.732 333.868 40.844 333.22 39.284 333.22L36.26 333.22L36.26 340L39.476 340C41.216 340 42.104 339.34 42.104 338.176C42.104 337.276 41.612 336.7 40.724 336.496ZM39.212 333.892C40.268 333.892 40.88 334.288 40.88 335.056C40.88 335.824 40.268 336.232 39.212 336.232L37.124 336.232L37.124 333.892L39.212 333.892ZM39.44 339.328L37.124 339.328L37.124 336.904L39.44 336.904C40.604 336.904 41.228 337.264 41.228 338.116C41.228 338.944 40.604 339.328 39.44 339.328ZM48.9283 340L49.7923 340L46.6603 333.22L45.8083 333.22L42.6763 340L43.5403 340L44.3323 338.248L48.1363 338.248L48.9283 340ZM44.6443 337.552L46.2403 334.036L47.8243 337.552L44.6443 337.552ZM51.8383 340L52.7023 340L52.7023 333.94L55.0903 333.94L55.0903 333.22L49.4503 333.22L49.4503 333.94L51.8383 333.94L51.8383 340ZM57.686 340L58.55 340L58.55 333.94L60.938 333.94L60.938 333.22L55.298 333.22L55.298 333.94L57.686 333.94L57.686 340ZM63.1045 339.28L63.1045 336.916L66.6085 336.916L66.6085 336.208L63.1045 336.208L63.1045 333.94L67.0285 333.94L67.0285 333.22L62.2405 333.22L62.2405 340L67.1725 340L67.1725 339.28L63.1045 339.28ZM74.6173 340L72.9613 337.696C73.9333 337.36 74.5093 336.616 74.5093 335.56C74.5093 334.072 73.4173 333.22 71.6773 333.22L69.0373 333.22L69.0373 340L69.9013 340L69.9013 337.888L71.6773 337.888C71.8333 337.888 71.9893 337.876 72.1453 337.864L73.6813 340L74.6173 340ZM71.6293 337.18L69.9013 337.18L69.9013 333.94L71.6293 333.94C72.9373 333.94 73.6453 334.516 73.6453 335.56C73.6453 336.592 72.9373 337.18 71.6293 337.18ZM81.7124 333.22L80.8244 333.22L78.4964 336.964L76.1684 333.22L75.2444 333.22L78.0524 337.768L78.0524 340L78.9044 340L78.9044 337.792L81.7124 333.22ZM89.1453 340.072C90.2253 340.072 91.1013 339.748 91.7253 339.064L91.1733 338.5C90.6213 339.076 89.9493 339.316 89.1693 339.316C87.5733 339.316 86.3853 338.164 86.3853 336.604C86.3853 335.044 87.5733 333.892 89.1693 333.892C89.9493 333.892 90.6213 334.144 91.1733 334.708L91.7253 334.144C91.1133 333.472 90.2253 333.136 89.1453 333.136C87.0813 333.136 85.5213 334.624 85.5213 336.604C85.5213 338.596 87.0813 340.072 89.1453 340.072ZM94.2881 339.28L94.2881 336.916L97.7921 336.916L97.7921 336.208L94.2881 336.208L94.2881 333.94L98.2121 333.94L98.2121 333.22L93.4241 333.22L93.4241 340L98.3561 340L98.3561 339.28L94.2881 339.28ZM100.221 340L104.865 340L104.865 339.28L101.085 339.28L101.085 333.22L100.221 333.22L100.221 340ZM106.221 340L110.865 340L110.865 339.28L107.085 339.28L107.085 333.22L106.221 333.22L106.221 340ZM113.999 340.072C115.691 340.072 116.627 339.28 116.627 338.152C116.627 335.668 112.439 336.796 112.439 335.02C112.439 334.384 112.955 333.88 114.155 333.88C114.791 333.88 115.475 334.024 116.051 334.432L116.363 333.736C115.799 333.34 114.971 333.136 114.179 333.136C112.499 333.136 111.587 333.952 111.587 335.056C111.587 337.6 115.763 336.436 115.763 338.224C115.763 338.836 115.271 339.34 114.023 339.34C113.111 339.34 112.247 339.004 111.743 338.548L111.383 339.22C111.923 339.724 112.955 340.072 113.999 340.072ZM118.55 338.752C118.19 338.752 117.914 339.028 117.914 339.4C117.914 339.712 118.094 339.94 118.346 340.012L117.938 341.752L118.514 341.752L119.018 340.096C119.138 339.76 119.186 339.604 119.186 339.4C119.186 339.04 118.922 338.752 118.55 338.752ZM39.068 352.072C40.856 352.072 41.936 351.028 41.936 349.12L41.936 345.22L41.096 345.22L41.096 349.096C41.096 350.584 40.364 351.328 39.068 351.328C37.772 351.328 37.052 350.572 37.052 349.096L37.052 345.22L36.188 345.22L36.188 349.12C36.188 351.028 37.268 352.072 39.068 352.072ZM47.0211 345.22L44.3811 345.22L44.3811 352L45.2451 352L45.2451 349.9L47.0211 349.9C48.7611 349.9 49.8531 349.036 49.8531 347.56C49.8531 346.072 48.7611 345.22 47.0211 345.22ZM46.9731 349.18L45.2451 349.18L45.2451 345.94L46.9731 345.94C48.2811 345.94 48.9891 346.516 48.9891 347.56C48.9891 348.592 48.2811 349.18 46.9731 349.18ZM51.7873 352L54.6313 352C56.9113 352 58.3393 350.632 58.3393 348.604C58.3393 346.588 56.9113 345.22 54.6313 345.22L51.7873 345.22L51.7873 352ZM52.6513 351.28L52.6513 345.94L54.5953 345.94C56.4193 345.94 57.4753 347.008 57.4753 348.604C57.4753 350.212 56.4193 351.28 54.5953 351.28L52.6513 351.28ZM65.0768 352L65.9408 352L62.8088 345.22L61.9568 345.22L58.8248 352L59.6888 352L60.4808 350.248L64.2848 350.248L65.0768 352ZM60.7928 349.552L62.3888 346.036L63.9728 349.552L60.7928 349.552ZM67.9868 352L68.8508 352L68.8508 345.94L71.2388 345.94L71.2388 345.22L65.5988 345.22L65.5988 345.94L67.9868 345.94L67.9868 352ZM73.4053 351.28L73.4053 348.916L76.9093 348.916L76.9093 348.208L73.4053 348.208L73.4053 345.94L77.3293 345.94L77.3293 345.22L72.5413 345.22L72.5413 352L77.4733 352L77.4733 351.28L73.4053 351.28ZM79.3381 352L82.1821 352C84.4621 352 85.8901 350.632 85.8901 348.604C85.8901 346.588 84.4621 345.22 82.1821 345.22L79.3381 345.22L79.3381 352ZM80.2021 351.28L80.2021 345.94L82.1461 345.94C83.9701 345.94 85.0261 347.008 85.0261 348.604C85.0261 350.212 83.9701 351.28 82.1461 351.28L80.2021 351.28ZM91.7334 351.28L91.7334 348.916L95.2374 348.916L95.2374 348.208L91.7334 348.208L91.7334 345.94L95.6574 345.94L95.6574 345.22L90.8694 345.22L90.8694 352L95.8014 352L95.8014 351.28L91.7334 351.28ZM102.682 352L103.546 352L100.414 345.22L99.5623 345.22L96.4303 352L97.2943 352L98.0863 350.248L101.89 350.248L102.682 352ZM98.3983 349.552L99.9943 346.036L101.578 349.552L98.3983 349.552ZM107.661 352.072C108.741 352.072 109.617 351.748 110.241 351.064L109.689 350.5C109.137 351.076 108.465 351.316 107.685 351.316C106.089 351.316 104.901 350.164 104.901 348.604C104.901 347.044 106.089 345.892 107.685 345.892C108.465 345.892 109.137 346.144 109.689 346.708L110.241 346.144C109.629 345.472 108.741 345.136 107.661 345.136C105.597 345.136 104.037 346.624 104.037 348.604C104.037 350.596 105.597 352.072 107.661 352.072ZM111.94 352L112.804 352L112.804 348.928L116.92 348.928L116.92 352L117.784 352L117.784 345.22L116.92 345.22L116.92 348.196L112.804 348.196L112.804 345.22L111.94 345.22L111.94 352ZM42.764 364.12C42.416 364.504 41.984 364.696 41.504 364.696C41.012 364.696 40.58 364.492 40.1 363.976C41.72 363.628 42.848 362.296 42.848 360.604C42.848 358.624 41.3 357.136 39.212 357.136C37.136 357.136 35.576 358.624 35.576 360.604C35.576 362.536 37.052 363.988 39.032 364.072C39.956 365.02 40.652 365.38 41.492 365.38C42.176 365.38 42.752 365.128 43.184 364.624L42.764 364.12ZM36.44 360.616C36.44 359.044 37.628 357.892 39.212 357.892C40.796 357.892 41.984 359.044 41.984 360.616C41.984 362.176 40.796 363.328 39.212 363.328C37.628 363.328 36.44 362.176 36.44 360.616ZM47.4938 364.072C49.2818 364.072 50.3618 363.028 50.3618 361.12L50.3618 357.22L49.5218 357.22L49.5218 361.096C49.5218 362.584 48.7898 363.328 47.4938 363.328C46.1978 363.328 45.4778 362.572 45.4778 361.096L45.4778 357.22L44.6138 357.22L44.6138 361.12C44.6138 363.028 45.6938 364.072 47.4938 364.072ZM57.6471 364L58.5111 364L55.3791 357.22L54.5271 357.22L51.3951 364L52.2591 364L53.0511 362.248L56.8551 362.248L57.6471 364ZM53.3631 361.552L54.9591 358.036L56.5431 361.552L53.3631 361.552ZM65.383 364L63.727 361.696C64.699 361.36 65.275 360.616 65.275 359.56C65.275 358.072 64.183 357.22 62.443 357.22L59.803 357.22L59.803 364L60.667 364L60.667 361.888L62.443 361.888C62.599 361.888 62.755 361.876 62.911 361.864L64.447 364L65.383 364ZM62.395 361.18L60.667 361.18L60.667 357.94L62.395 357.94C63.703 357.94 64.411 358.516 64.411 359.56C64.411 360.592 63.703 361.18 62.395 361.18ZM68.3501 364L69.2141 364L69.2141 357.94L71.6021 357.94L71.6021 357.22L65.9621 357.22L65.9621 357.94L68.3501 357.94L68.3501 364ZM73.7685 363.28L73.7685 360.916L77.2725 360.916L77.2725 360.208L73.7685 360.208L73.7685 357.94L77.6925 357.94L77.6925 357.22L72.9045 357.22L72.9045 364L77.8365 364L77.8365 363.28L73.7685 363.28ZM85.2814 364L83.6254 361.696C84.5974 361.36 85.1734 360.616 85.1734 359.56C85.1734 358.072 84.0814 357.22 82.3414 357.22L79.7014 357.22L79.7014 364L80.5654 364L80.5654 361.888L82.3414 361.888C82.4974 361.888 82.6534 361.876 82.8094 361.864L84.3454 364L85.2814 364ZM82.2934 361.18L80.5654 361.18L80.5654 357.94L82.2934 357.94C83.6014 357.94 84.3094 358.516 84.3094 359.56C84.3094 360.592 83.6014 361.18 82.2934 361.18ZM87.2137 364.06C87.5737 364.06 87.8497 363.772 87.8497 363.436C87.8497 363.088 87.5737 362.824 87.2137 362.824C86.8657 362.824 86.5897 363.088 86.5897 363.436C86.5897 363.772 86.8657 364.06 87.2137 364.06Z" fill="black"/>
  <path d="M256.055 529C259.338 529 262 531.662 262 534.945L262 653.055C262 656.338 259.338 659 256.055 659L141.831 659L127.39 659L112.949 659L5.94549 659C2.66189 659 -3.90926e-06 656.338 -3.80845e-06 653.055L-1.82525e-07 534.945C-8.17193e-08 531.662 2.6619 529 5.9455 529L109.571 529C111.38 529 113.09 529.823 114.218 531.237L122.743 541.919C125.123 544.902 129.657 544.902 132.037 541.919L140.561 531.237C141.689 529.823 143.4 529 145.208 529L256.055 529Z" fill="#FFF7E0"/>
  <path d="M191.75 572.125L204.25 572.125" stroke="#071830" stroke-width="1.78365" stroke-linecap="round" stroke-linejoin="round"/>
  <path d="M208.938 578.375L187.063 578.375C185.337 578.375 183.938 579.774 183.938 581.5L183.938 611.188C183.938 612.913 185.337 614.313 187.063 614.313L208.938 614.313C210.663 614.313 212.063 612.913 212.063 611.188L212.063 581.5C212.063 579.774 210.663 578.375 208.938 578.375Z" stroke="#071830" stroke-width="1.78365" stroke-linecap="round" stroke-linejoin="round"/>
  <path d="M198 604.156L201.125 596.344L194.875 596.344L198 588.531" stroke="#071830" stroke-width="1.78365" stroke-linecap="round" stroke-linejoin="round"/>
  <path d="M42.284 568.632C41.636 569.1 40.892 569.28 40.088 569.28C38.024 569.28 36.5 567.792 36.5 565.8C36.5 563.796 38.024 562.32 40.1 562.32C41.084 562.32 41.924 562.608 42.632 563.304L43.184 562.74C42.44 561.936 41.336 561.528 40.064 561.528C37.496 561.528 35.624 563.34 35.624 565.8C35.624 568.26 37.496 570.072 40.052 570.072C41.216 570.072 42.344 569.712 43.136 569.004L43.136 565.8L42.284 565.8L42.284 568.632ZM45.5413 570L50.1853 570L50.1853 569.28L46.4053 569.28L46.4053 563.22L45.5413 563.22L45.5413 570ZM54.3292 570.072C56.4172 570.072 57.9652 568.596 57.9652 566.604C57.9652 564.624 56.4172 563.136 54.3292 563.136C52.2532 563.136 50.6932 564.624 50.6932 566.604C50.6932 568.596 52.2532 570.072 54.3292 570.072ZM54.3292 569.328C52.7452 569.328 51.5572 568.176 51.5572 566.616C51.5572 565.044 52.7452 563.892 54.3292 563.892C55.9132 563.892 57.1012 565.044 57.1012 566.616C57.1012 568.176 55.9132 569.328 54.3292 569.328ZM64.267 566.496C64.891 566.232 65.275 565.716 65.275 564.96C65.275 563.868 64.387 563.22 62.827 563.22L59.803 563.22L59.803 570L63.019 570C64.759 570 65.647 569.34 65.647 568.176C65.647 567.276 65.155 566.7 64.267 566.496ZM62.755 563.892C63.811 563.892 64.423 564.288 64.423 565.056C64.423 565.824 63.811 566.232 62.755 566.232L60.667 566.232L60.667 563.892L62.755 563.892ZM62.983 569.328L60.667 569.328L60.667 566.904L62.983 566.904C64.147 566.904 64.771 567.264 64.771 568.116C64.771 568.944 64.147 569.328 62.983 569.328ZM72.4713 570L73.3353 570L70.2033 563.22L69.3513 563.22L66.2193 570L67.0833 570L67.8753 568.248L71.6793 568.248L72.4713 570ZM68.1873 567.552L69.7833 564.036L71.3673 567.552L68.1873 567.552ZM74.6272 570L79.2712 570L79.2712 569.28L75.4912 569.28L75.4912 563.22L74.6272 563.22L74.6272 570ZM83.7678 570L88.4118 570L88.4118 569.28L84.6318 569.28L84.6318 563.22L83.7678 563.22L83.7678 570ZM89.7678 570L90.6318 570L90.6318 563.22L89.7678 563.22L89.7678 570ZM94.3305 570L95.1945 570L95.1945 563.94L97.5825 563.94L97.5825 563.22L91.9425 563.22L91.9425 563.94L94.3305 563.94L94.3305 570ZM98.885 570L99.749 570L99.749 566.928L103.865 566.928L103.865 570L104.729 570L104.729 563.22L103.865 563.22L103.865 566.196L99.749 566.196L99.749 563.22L98.885 563.22L98.885 570ZM107.252 570L108.116 570L108.116 563.22L107.252 563.22L107.252 570ZM113.447 570.072C115.235 570.072 116.315 569.028 116.315 567.12L116.315 563.22L115.475 563.22L115.475 567.096C115.475 568.584 114.743 569.328 113.447 569.328C112.151 569.328 111.431 568.572 111.431 567.096L111.431 563.22L110.567 563.22L110.567 567.12C110.567 569.028 111.647 570.072 113.447 570.072ZM126.008 570L125.996 563.22L125.252 563.22L122.384 568.08L119.504 563.22L118.76 563.22L118.76 570L119.588 570L119.588 564.852L122.18 569.148L122.576 569.148L125.168 564.78L125.168 570L126.008 570ZM36.26 582L37.124 582L37.124 575.22L36.26 575.22L36.26 582ZM42.5987 582.072C44.6867 582.072 46.2347 580.596 46.2347 578.604C46.2347 576.624 44.6867 575.136 42.5987 575.136C40.5227 575.136 38.9627 576.624 38.9627 578.604C38.9627 580.596 40.5227 582.072 42.5987 582.072ZM42.5987 581.328C41.0147 581.328 39.8267 580.176 39.8267 578.616C39.8267 577.044 41.0147 575.892 42.5987 575.892C44.1827 575.892 45.3707 577.044 45.3707 578.616C45.3707 580.176 44.1827 581.328 42.5987 581.328ZM53.0525 575.22L53.0525 580.512L48.7925 575.22L48.0725 575.22L48.0725 582L48.9365 582L48.9365 576.708L53.1965 582L53.9165 582L53.9165 575.22L53.0525 575.22ZM64.0443 578.496C64.6683 578.232 65.0523 577.716 65.0523 576.96C65.0523 575.868 64.1643 575.22 62.6043 575.22L59.5803 575.22L59.5803 582L62.7963 582C64.5363 582 65.4243 581.34 65.4243 580.176C65.4243 579.276 64.9323 578.7 64.0443 578.496ZM62.5323 575.892C63.5883 575.892 64.2003 576.288 64.2003 577.056C64.2003 577.824 63.5883 578.232 62.5323 578.232L60.4443 578.232L60.4443 575.892L62.5323 575.892ZM62.7603 581.328L60.4443 581.328L60.4443 578.904L62.7603 578.904C63.9243 578.904 64.5483 579.264 64.5483 580.116C64.5483 580.944 63.9243 581.328 62.7603 581.328ZM72.2487 582L73.1127 582L69.9807 575.22L69.1287 575.22L65.9967 582L66.8607 582L67.6527 580.248L71.4567 580.248L72.2487 582ZM67.9647 579.552L69.5607 576.036L71.1447 579.552L67.9647 579.552ZM75.1587 582L76.0227 582L76.0227 575.94L78.4107 575.94L78.4107 575.22L72.7707 575.22L72.7707 575.94L75.1587 575.94L75.1587 582ZM81.0063 582L81.8703 582L81.8703 575.94L84.2583 575.94L84.2583 575.22L78.6183 575.22L78.6183 575.94L81.0063 575.94L81.0063 582ZM86.4248 581.28L86.4248 578.916L89.9288 578.916L89.9288 578.208L86.4248 578.208L86.4248 575.94L90.3488 575.94L90.3488 575.22L85.5608 575.22L85.5608 582L90.4928 582L90.4928 581.28L86.4248 581.28ZM97.9377 582L96.2817 579.696C97.2537 579.36 97.8297 578.616 97.8297 577.56C97.8297 576.072 96.7377 575.22 94.9977 575.22L92.3577 575.22L92.3577 582L93.2217 582L93.2217 579.888L94.9977 579.888C95.1537 579.888 95.3097 579.876 95.4657 579.864L97.0017 582L97.9377 582ZM94.9497 579.18L93.2217 579.18L93.2217 575.94L94.9497 575.94C96.2577 575.94 96.9657 576.516 96.9657 577.56C96.9657 578.592 96.2577 579.18 94.9497 579.18ZM105.033 575.22L104.145 575.22L101.817 578.964L99.4888 575.22L98.5648 575.22L101.373 579.768L101.373 582L102.225 582L102.225 579.792L105.033 575.22ZM39.2 594.072C40.28 594.072 41.156 593.748 41.78 593.064L41.228 592.5C40.676 593.076 40.004 593.316 39.224 593.316C37.628 593.316 36.44 592.164 36.44 590.604C36.44 589.044 37.628 587.892 39.224 587.892C40.004 587.892 40.676 588.144 41.228 588.708L41.78 588.144C41.168 587.472 40.28 587.136 39.2 587.136C37.136 587.136 35.576 588.624 35.576 590.604C35.576 592.596 37.136 594.072 39.2 594.072ZM48.2838 594L49.1478 594L46.0158 587.22L45.1638 587.22L42.0318 594L42.8958 594L43.6878 592.248L47.4918 592.248L48.2838 594ZM43.9998 591.552L45.5958 588.036L47.1798 591.552L43.9998 591.552ZM53.0797 587.22L50.4397 587.22L50.4397 594L51.3037 594L51.3037 591.9L53.0797 591.9C54.8197 591.9 55.9117 591.036 55.9117 589.56C55.9117 588.072 54.8197 587.22 53.0797 587.22ZM53.0317 591.18L51.3037 591.18L51.3037 587.94L53.0317 587.94C54.3397 587.94 55.0477 588.516 55.0477 589.56C55.0477 590.592 54.3397 591.18 53.0317 591.18ZM62.3229 594L63.1869 594L60.0549 587.22L59.2029 587.22L56.0709 594L56.9349 594L57.7269 592.248L61.5309 592.248L62.3229 594ZM58.0389 591.552L59.6349 588.036L61.2189 591.552L58.0389 591.552ZM67.3016 594.072C68.3816 594.072 69.2576 593.748 69.8816 593.064L69.3296 592.5C68.7776 593.076 68.1056 593.316 67.3256 593.316C65.7296 593.316 64.5416 592.164 64.5416 590.604C64.5416 589.044 65.7296 587.892 67.3256 587.892C68.1056 587.892 68.7776 588.144 69.3296 588.708L69.8816 588.144C69.2696 587.472 68.3816 587.136 67.3016 587.136C65.2376 587.136 63.6776 588.624 63.6776 590.604C63.6776 592.596 65.2376 594.072 67.3016 594.072ZM71.5803 594L72.4443 594L72.4443 587.22L71.5803 587.22L71.5803 594ZM76.143 594L77.007 594L77.007 587.94L79.395 587.94L79.395 587.22L73.755 587.22L73.755 587.94L76.143 587.94L76.143 594ZM85.9429 587.22L85.0549 587.22L82.7269 590.964L80.3989 587.22L79.4749 587.22L82.2829 591.768L82.2829 594L83.1349 594L83.1349 591.792L85.9429 587.22ZM94.8998 590.496C95.5238 590.232 95.9078 589.716 95.9078 588.96C95.9078 587.868 95.0198 587.22 93.4598 587.22L90.4358 587.22L90.4358 594L93.6518 594C95.3918 594 96.2798 593.34 96.2798 592.176C96.2798 591.276 95.7878 590.7 94.8998 590.496ZM93.3878 587.892C94.4438 587.892 95.0558 588.288 95.0558 589.056C95.0558 589.824 94.4438 590.232 93.3878 590.232L91.2998 590.232L91.2998 587.892L93.3878 587.892ZM93.6158 593.328L91.2998 593.328L91.2998 590.904L93.6158 590.904C94.7798 590.904 95.4038 591.264 95.4038 592.116C95.4038 592.944 94.7798 593.328 93.6158 593.328ZM103.216 587.22L102.328 587.22L100 590.964L97.6723 587.22L96.7483 587.22L99.5563 591.768L99.5563 594L100.408 594L100.408 591.792L103.216 587.22ZM38.9 599.22L36.26 599.22L36.26 606L37.124 606L37.124 603.9L38.9 603.9C40.64 603.9 41.732 603.036 41.732 601.56C41.732 600.072 40.64 599.22 38.9 599.22ZM38.852 603.18L37.124 603.18L37.124 599.94L38.852 599.94C40.16 599.94 40.868 600.516 40.868 601.56C40.868 602.592 40.16 603.18 38.852 603.18ZM43.6663 606L48.3103 606L48.3103 605.28L44.5303 605.28L44.5303 599.22L43.6663 599.22L43.6663 606ZM54.7057 606L55.5697 606L52.4377 599.22L51.5857 599.22L48.4537 606L49.3177 606L50.1097 604.248L53.9137 604.248L54.7057 606ZM50.4217 603.552L52.0177 600.036L53.6017 603.552L50.4217 603.552ZM61.8416 599.22L61.8416 604.512L57.5816 599.22L56.8616 599.22L56.8616 606L57.7256 606L57.7256 600.708L61.9856 606L62.7056 606L62.7056 599.22L61.8416 599.22ZM66.4048 606L67.2688 606L67.2688 599.94L69.6568 599.94L69.6568 599.22L64.0168 599.22L64.0168 599.94L66.4048 599.94L66.4048 606ZM70.8192 604.752C70.4592 604.752 70.1832 605.028 70.1832 605.4C70.1832 605.712 70.3632 605.94 70.6152 606.012L70.2072 607.752L70.7832 607.752L71.2872 606.096C71.4072 605.76 71.4552 605.604 71.4552 605.4C71.4552 605.04 71.1912 604.752 70.8192 604.752ZM39.2 618.072C40.28 618.072 41.156 617.748 41.78 617.064L41.228 616.5C40.676 617.076 40.004 617.316 39.224 617.316C37.628 617.316 36.44 616.164 36.44 614.604C36.44 613.044 37.628 611.892 39.224 611.892C40.004 611.892 40.676 612.144 41.228 612.708L41.78 612.144C41.168 611.472 40.28 611.136 39.2 611.136C37.136 611.136 35.576 612.624 35.576 614.604C35.576 616.596 37.136 618.072 39.2 618.072ZM43.4788 618L44.3428 618L44.3428 614.928L48.4588 614.928L48.4588 618L49.3228 618L49.3228 611.22L48.4588 611.22L48.4588 614.196L44.3428 614.196L44.3428 611.22L43.4788 611.22L43.4788 618ZM52.7099 617.28L52.7099 614.916L56.2139 614.916L56.2139 614.208L52.7099 614.208L52.7099 611.94L56.6339 611.94L56.6339 611.22L51.8459 611.22L51.8459 618L56.7779 618L56.7779 617.28L52.7099 617.28ZM65.8908 618L65.8788 611.22L65.1348 611.22L62.2668 616.08L59.3868 611.22L58.6428 611.22L58.6428 618L59.4708 618L59.4708 612.852L62.0628 617.148L62.4588 617.148L65.0508 612.78L65.0508 618L65.8908 618ZM68.4163 618L69.2803 618L69.2803 611.22L68.4163 611.22L68.4163 618ZM73.675 618.072C75.367 618.072 76.303 617.28 76.303 616.152C76.303 613.668 72.115 614.796 72.115 613.02C72.115 612.384 72.631 611.88 73.831 611.88C74.467 611.88 75.151 612.024 75.727 612.432L76.039 611.736C75.475 611.34 74.647 611.136 73.855 611.136C72.175 611.136 71.263 611.952 71.263 613.056C71.263 615.6 75.439 614.436 75.439 616.224C75.439 616.836 74.947 617.34 73.699 617.34C72.787 617.34 71.923 617.004 71.419 616.548L71.059 617.22C71.599 617.724 72.631 618.072 73.675 618.072ZM79.143 618L80.007 618L80.007 611.94L82.395 611.94L82.395 611.22L76.755 611.22L76.755 611.94L79.143 611.94L79.143 618ZM89.2775 618L87.6215 615.696C88.5935 615.36 89.1695 614.616 89.1695 613.56C89.1695 612.072 88.0775 611.22 86.3375 611.22L83.6975 611.22L83.6975 618L84.5615 618L84.5615 615.888L86.3375 615.888C86.4935 615.888 86.6495 615.876 86.8055 615.864L88.3415 618L89.2775 618ZM86.2895 615.18L84.5615 615.18L84.5615 611.94L86.2895 611.94C87.5975 611.94 88.3055 612.516 88.3055 613.56C88.3055 614.592 87.5975 615.18 86.2895 615.18ZM96.3726 611.22L95.4846 611.22L93.1566 614.964L90.8286 611.22L89.9046 611.22L92.7126 615.768L92.7126 618L93.5646 618L93.5646 615.792L96.3726 611.22ZM97.4324 616.752C97.0724 616.752 96.7964 617.028 96.7964 617.4C96.7964 617.712 96.9764 617.94 97.2284 618.012L96.8204 619.752L97.3964 619.752L97.9004 618.096C98.0204 617.76 98.0684 617.604 98.0684 617.4C98.0684 617.04 97.8044 616.752 97.4324 616.752ZM41.048 623.94L41.048 623.22L36.26 623.22L36.26 630L37.124 630L37.124 627.192L40.628 627.192L40.628 626.46L37.124 626.46L37.124 623.94L41.048 623.94ZM45.587 630.072C47.675 630.072 49.223 628.596 49.223 626.604C49.223 624.624 47.675 623.136 45.587 623.136C43.511 623.136 41.951 624.624 41.951 626.604C41.951 628.596 43.511 630.072 45.587 630.072ZM45.587 629.328C44.003 629.328 42.815 628.176 42.815 626.616C42.815 625.044 44.003 623.892 45.587 623.892C47.171 623.892 48.359 625.044 48.359 626.616C48.359 628.176 47.171 629.328 45.587 629.328ZM56.6408 630L54.9848 627.696C55.9568 627.36 56.5328 626.616 56.5328 625.56C56.5328 624.072 55.4408 623.22 53.7008 623.22L51.0608 623.22L51.0608 630L51.9248 630L51.9248 627.888L53.7008 627.888C53.8568 627.888 54.0128 627.876 54.1688 627.864L55.7048 630L56.6408 630ZM53.6528 627.18L51.9248 627.18L51.9248 623.94L53.6528 623.94C54.9608 623.94 55.6688 624.516 55.6688 625.56C55.6688 626.592 54.9608 627.18 53.6528 627.18ZM65.7971 630L65.7851 623.22L65.0411 623.22L62.1731 628.08L59.2931 623.22L58.5491 623.22L58.5491 630L59.3771 630L59.3771 624.852L61.9691 629.148L62.3651 629.148L64.9571 624.78L64.9571 630L65.7971 630ZM73.3385 630L74.2025 630L71.0705 623.22L70.2185 623.22L67.0865 630L67.9505 630L68.7425 628.248L72.5465 628.248L73.3385 630ZM69.0545 627.552L70.6505 624.036L72.2345 627.552L69.0545 627.552ZM76.2485 630L77.1125 630L77.1125 623.94L79.5005 623.94L79.5005 623.22L73.8605 623.22L73.8605 623.94L76.2485 623.94L76.2485 630ZM88.9596 630L89.8236 630L86.6916 623.22L85.8396 623.22L82.7076 630L83.5716 630L84.3636 628.248L88.1676 628.248L88.9596 630ZM84.6756 627.552L86.2716 624.036L87.8556 627.552L84.6756 627.552ZM96.0955 623.22L96.0955 628.512L91.8355 623.22L91.1155 623.22L91.1155 630L91.9795 630L91.9795 624.708L96.2395 630L96.9595 630L96.9595 623.22L96.0955 623.22ZM99.4827 630L102.327 630C104.607 630 106.035 628.632 106.035 626.604C106.035 624.588 104.607 623.22 102.327 623.22L99.4827 623.22L99.4827 630ZM100.347 629.28L100.347 623.94L102.291 623.94C104.115 623.94 105.171 625.008 105.171 626.604C105.171 628.212 104.115 629.28 102.291 629.28L100.347 629.28ZM112.886 630.072C114.578 630.072 115.514 629.28 115.514 628.152C115.514 625.668 111.326 626.796 111.326 625.02C111.326 624.384 111.842 623.88 113.042 623.88C113.678 623.88 114.362 624.024 114.938 624.432L115.25 623.736C114.686 623.34 113.858 623.136 113.066 623.136C111.386 623.136 110.474 623.952 110.474 625.056C110.474 627.6 114.65 626.436 114.65 628.224C114.65 628.836 114.158 629.34 112.91 629.34C111.998 629.34 111.134 629.004 110.63 628.548L110.27 629.22C110.81 629.724 111.842 630.072 112.886 630.072ZM117.295 630L118.159 630L118.159 623.22L117.295 623.22L117.295 630ZM121.066 629.28L125.518 623.796L125.518 623.22L120.01 623.22L120.01 623.94L124.39 623.94L119.938 629.424L119.938 630L125.638 630L125.638 629.28L121.066 629.28ZM128.097 629.28L128.097 626.916L131.601 626.916L131.601 626.208L128.097 626.208L128.097 623.94L132.021 623.94L132.021 623.22L127.233 623.22L127.233 630L132.165 630L132.165 629.28L128.097 629.28Z" fill="black"/>
</svg>
