<svg width="1174" height="327" viewBox="0 0 1174 327" fill="none" xmlns="http://www.w3.org/2000/svg">
  <path d="M0 9.99998C0 4.47714 4.47715 0 10 0H222.013C227.536 0 232.013 4.47715 232.013 10V143.78C232.013 147.46 234.035 150.843 237.275 152.587L249.095 158.945C256.111 162.72 256.111 172.783 249.095 176.558L237.275 182.917C234.035 184.661 232.013 188.043 232.013 191.723V316.505C232.013 322.028 227.536 326.505 222.013 326.505H10C4.47716 326.505 0 322.028 0 316.505V9.99998Z" fill="#FDBD00"/>
  <path d="M124.495 89.7066C125.038 90.3323 125.985 90.3994 126.611 89.8565C127.237 89.3135 127.304 88.3662 126.761 87.7405L124.495 89.7066ZM108.316 109.034C107.773 108.409 106.826 108.341 106.2 108.884C105.574 109.427 105.507 110.375 106.05 111L108.316 109.034ZM117.906 81.6256C117.906 80.7971 117.234 80.1256 116.406 80.1256C115.577 80.1256 114.906 80.7971 114.906 81.6256H117.906ZM114.906 117.115C114.906 117.944 115.577 118.615 116.406 118.615C117.234 118.615 117.906 117.944 117.906 117.115L114.906 117.115ZM146.846 99.3704C146.846 116.182 133.218 129.811 116.406 129.811V132.811C134.874 132.811 149.846 117.839 149.846 99.3704H146.846ZM116.406 129.811C99.5936 129.811 85.9648 116.182 85.9648 99.3704H82.9648C82.9648 117.839 97.9368 132.811 116.406 132.811V129.811ZM85.9648 99.3704C85.9648 82.5585 99.5936 68.9297 116.406 68.9297V65.9297C97.9368 65.9297 82.9648 80.9016 82.9648 99.3704H85.9648ZM116.406 68.9297C133.218 68.9297 146.846 82.5585 146.846 99.3704H149.846C149.846 80.9016 134.874 65.9297 116.406 65.9297V68.9297ZM116.406 97.8704C113.72 97.8704 111.357 97.1421 109.709 96.0434C108.051 94.9377 107.259 93.575 107.259 92.2725H104.259C104.259 94.8901 105.85 97.0763 108.045 98.5396C110.25 100.01 113.211 100.87 116.406 100.87V97.8704ZM107.259 92.2725C107.259 90.97 108.051 89.6073 109.709 88.5016C111.357 87.4029 113.72 86.6745 116.406 86.6745V83.6745C113.211 83.6745 110.25 84.5352 108.045 86.0054C105.85 87.4687 104.259 89.6549 104.259 92.2725H107.259ZM116.406 86.6745C120.036 86.6745 123.012 87.9971 124.495 89.7066L126.761 87.7405C124.563 85.2068 120.656 83.6745 116.406 83.6745V86.6745ZM116.406 100.87C119.091 100.87 121.454 101.599 123.102 102.697C124.761 103.803 125.553 105.166 125.553 106.468H128.553C128.553 103.851 126.961 101.665 124.766 100.201C122.561 98.7311 119.6 97.8704 116.406 97.8704V100.87ZM114.906 81.6256V85.1745H117.906V81.6256H114.906ZM114.906 113.566L114.906 117.115L117.906 117.115L117.906 113.566L114.906 113.566ZM116.406 112.066C112.775 112.066 109.799 110.744 108.316 109.034L106.05 111C108.249 113.534 112.155 115.066 116.406 115.066L116.406 112.066ZM125.553 106.468C125.553 107.771 124.761 109.134 123.102 110.239C121.454 111.338 119.091 112.066 116.406 112.066V115.066C119.601 115.066 122.561 114.206 124.766 112.735C126.961 111.272 128.553 109.086 128.553 106.468H125.553ZM114.906 85.1746L114.906 113.566L117.906 113.566L117.906 85.1745L114.906 85.1746Z" fill="#111827"/>
  <path d="M36.4945 181.229H32.8265V191.029H33.8625V187.935H36.4945C38.9865 187.935 40.4985 186.675 40.4985 184.589C40.4985 182.489 38.9865 181.229 36.4945 181.229ZM36.4665 187.025H33.8625V182.125H36.4665C38.4265 182.125 39.4625 183.021 39.4625 184.589C39.4625 186.129 38.4265 187.025 36.4665 187.025ZM49.2593 191.029L47.3273 188.341C48.4613 187.949 49.1333 187.081 49.1333 185.849C49.1333 184.113 47.8593 183.119 45.8293 183.119H42.7493V191.029H43.7573V188.565H45.8293C46.0113 188.565 46.1933 188.551 46.3753 188.537L48.1673 191.029H49.2593ZM45.7733 187.739H43.7573V183.959H45.7733C47.2993 183.959 48.1253 184.631 48.1253 185.849C48.1253 187.053 47.2993 187.739 45.7733 187.739ZM52.4936 190.189V187.431H56.5816V186.605H52.4936V183.959H57.0716V183.119H51.4856V191.029H57.2396V190.189H52.4936ZM61.5993 191.113C63.5733 191.113 64.6653 190.189 64.6653 188.873C64.6653 185.975 59.7793 187.291 59.7793 185.219C59.7793 184.477 60.3813 183.889 61.7813 183.889C62.5233 183.889 63.3213 184.057 63.9933 184.533L64.3573 183.721C63.6993 183.259 62.7333 183.021 61.8093 183.021C59.8493 183.021 58.7853 183.973 58.7853 185.261C58.7853 188.229 63.6573 186.871 63.6573 188.957C63.6573 189.671 63.0833 190.259 61.6273 190.259C60.5633 190.259 59.5553 189.867 58.9673 189.335L58.5473 190.119C59.1773 190.707 60.3813 191.113 61.5993 191.113ZM67.7514 190.189V187.431H71.8394V186.605H67.7514V183.959H72.3294V183.119H66.7434V191.029H72.4974V190.189H67.7514ZM80.4831 183.119V189.293L75.5131 183.119H74.6731V191.029H75.6811V184.855L80.6511 191.029H81.4911V183.119H80.4831ZM85.8068 191.029H86.8148V183.959H89.6008V183.119H83.0208V183.959H85.8068V191.029ZM100.636 191.029H101.644L97.9905 183.119H96.9965L93.3425 191.029H94.3505L95.2745 188.985H99.7125L100.636 191.029ZM95.6385 188.173L97.5005 184.071L99.3485 188.173H95.6385ZM108.962 183.119V189.293L103.992 183.119H103.152V191.029H104.16V184.855L109.13 191.029H109.97V183.119H108.962ZM112.913 191.029H116.231C118.891 191.029 120.557 189.433 120.557 187.067C120.557 184.715 118.891 183.119 116.231 183.119H112.913V191.029ZM113.921 190.189V183.959H116.189C118.317 183.959 119.549 185.205 119.549 187.067C119.549 188.943 118.317 190.189 116.189 190.189H113.921ZM126.366 191.029H127.374V187.445H132.176V191.029H133.184V183.119H132.176V186.591H127.374V183.119H126.366V191.029ZM136.128 191.029H137.136V183.119H136.128V191.029ZM142.263 191.113C144.237 191.113 145.329 190.189 145.329 188.873C145.329 185.975 140.443 187.291 140.443 185.219C140.443 184.477 141.045 183.889 142.445 183.889C143.187 183.889 143.985 184.057 144.657 184.533L145.021 183.721C144.363 183.259 143.397 183.021 142.473 183.021C140.513 183.021 139.449 183.973 139.449 185.261C139.449 188.229 144.321 186.871 144.321 188.957C144.321 189.671 143.747 190.259 142.291 190.259C141.227 190.259 140.219 189.867 139.631 189.335L139.211 190.119C139.841 190.707 141.045 191.113 142.263 191.113ZM148.643 191.029H149.651V183.959H152.437V183.119H145.857V183.959H148.643V191.029ZM157.264 191.113C159.7 191.113 161.506 189.391 161.506 187.067C161.506 184.757 159.7 183.021 157.264 183.021C154.842 183.021 153.022 184.757 153.022 187.067C153.022 189.391 154.842 191.113 157.264 191.113ZM157.264 190.245C155.416 190.245 154.03 188.901 154.03 187.081C154.03 185.247 155.416 183.903 157.264 183.903C159.112 183.903 160.498 185.247 160.498 187.081C160.498 188.901 159.112 190.245 157.264 190.245ZM170.16 191.029L168.228 188.341C169.362 187.949 170.034 187.081 170.034 185.849C170.034 184.113 168.76 183.119 166.73 183.119H163.65V191.029H164.658V188.565H166.73C166.912 188.565 167.094 188.551 167.276 188.537L169.068 191.029H170.16ZM166.674 187.739H164.658V183.959H166.674C168.2 183.959 169.026 184.631 169.026 185.849C169.026 187.053 168.2 187.739 166.674 187.739ZM172.386 191.029H173.394V183.119H172.386V191.029ZM179.767 191.113C181.027 191.113 182.049 190.735 182.777 189.937L182.133 189.279C181.489 189.951 180.705 190.231 179.795 190.231C177.933 190.231 176.547 188.887 176.547 187.067C176.547 185.247 177.933 183.903 179.795 183.903C180.705 183.903 181.489 184.197 182.133 184.855L182.777 184.197C182.063 183.413 181.027 183.021 179.767 183.021C177.359 183.021 175.539 184.757 175.539 187.067C175.539 189.391 177.359 191.113 179.767 191.113ZM190.365 191.029H191.373L187.719 183.119H186.725L183.071 191.029H184.079L185.003 188.985H189.441L190.365 191.029ZM185.367 188.173L187.229 184.071L189.077 188.173H185.367ZM192.88 191.029H198.298V190.189H193.888V183.119H192.88V191.029ZM41.1565 211.029L41.1425 203.119H40.2745L36.9285 208.789L33.5685 203.119H32.7005V211.029H33.6665V205.023L36.6905 210.035H37.1525L40.1765 204.939V211.029H41.1565ZM49.9548 211.029H50.9628L47.3088 203.119H46.3148L42.6608 211.029H43.6688L44.5928 208.985H49.0308L49.9548 211.029ZM44.9568 208.173L46.8188 204.071L48.6668 208.173H44.9568ZM58.98 211.029L57.048 208.341C58.182 207.949 58.854 207.081 58.854 205.849C58.854 204.113 57.58 203.119 55.55 203.119H52.47V211.029H53.478V208.565H55.55C55.732 208.565 55.914 208.551 56.096 208.537L57.888 211.029H58.98ZM55.494 207.739H53.478V203.959H55.494C57.02 203.959 57.846 204.631 57.846 205.849C57.846 207.053 57.02 207.739 55.494 207.739ZM66.9183 211.029H68.1223L64.4403 206.703L67.8843 203.119H66.7503L62.2143 207.711V203.119H61.2063V211.029H62.2143V208.957L63.7543 207.417L66.9183 211.029ZM70.7456 210.189V207.431H74.8336V206.605H70.7456V203.959H75.3236V203.119H69.7376V211.029H75.4916V210.189H70.7456ZM79.0393 211.029H80.0473V203.959H82.8333V203.119H76.2533V203.959H79.0393V211.029ZM91.0969 203.119H88.0169V211.029H89.0249V208.579H91.0969C93.1269 208.579 94.4009 207.571 94.4009 205.849C94.4009 204.113 93.1269 203.119 91.0969 203.119ZM91.0409 207.739H89.0249V203.959H91.0409C92.5669 203.959 93.3929 204.631 93.3929 205.849C93.3929 207.053 92.5669 207.739 91.0409 207.739ZM103.168 211.029L101.236 208.341C102.37 207.949 103.042 207.081 103.042 205.849C103.042 204.113 101.768 203.119 99.7375 203.119H96.6575V211.029H97.6655V208.565H99.7375C99.9195 208.565 100.102 208.551 100.284 208.537L102.076 211.029H103.168ZM99.6815 207.739H97.6655V203.959H99.6815C101.208 203.959 102.034 204.631 102.034 205.849C102.034 207.053 101.208 207.739 99.6815 207.739ZM105.394 211.029H106.402V203.119H105.394V211.029ZM112.775 211.113C114.035 211.113 115.057 210.735 115.785 209.937L115.141 209.279C114.497 209.951 113.713 210.231 112.803 210.231C110.941 210.231 109.555 208.887 109.555 207.067C109.555 205.247 110.941 203.903 112.803 203.903C113.713 203.903 114.497 204.197 115.141 204.855L115.785 204.197C115.071 203.413 114.035 203.021 112.775 203.021C110.367 203.021 108.547 204.757 108.547 207.067C108.547 209.391 110.367 211.113 112.775 211.113ZM118.775 210.189V207.431H122.863V206.605H118.775V203.959H123.353V203.119H117.767V211.029H123.521V210.189H118.775ZM127.881 211.113C129.855 211.113 130.947 210.189 130.947 208.873C130.947 205.975 126.061 207.291 126.061 205.219C126.061 204.477 126.663 203.889 128.063 203.889C128.805 203.889 129.603 204.057 130.275 204.533L130.639 203.721C129.981 203.259 129.015 203.021 128.091 203.021C126.131 203.021 125.067 203.973 125.067 205.261C125.067 208.229 129.939 206.871 129.939 208.957C129.939 209.671 129.365 210.259 127.909 210.259C126.845 210.259 125.837 209.867 125.249 209.335L124.829 210.119C125.459 210.707 126.663 211.113 127.881 211.113ZM142.275 203.959V203.119H136.689V211.029H137.697V207.753H141.785V206.899H137.697V203.959H142.275ZM147.57 211.113C150.006 211.113 151.812 209.391 151.812 207.067C151.812 204.757 150.006 203.021 147.57 203.021C145.148 203.021 143.328 204.757 143.328 207.067C143.328 209.391 145.148 211.113 147.57 211.113ZM147.57 210.245C145.722 210.245 144.336 208.901 144.336 207.081C144.336 205.247 145.722 203.903 147.57 203.903C149.418 203.903 150.804 205.247 150.804 207.081C150.804 208.901 149.418 210.245 147.57 210.245ZM160.466 211.029L158.534 208.341C159.668 207.949 160.34 207.081 160.34 205.849C160.34 204.113 159.066 203.119 157.036 203.119H153.956V211.029H154.964V208.565H157.036C157.218 208.565 157.4 208.551 157.582 208.537L159.374 211.029H160.466ZM156.98 207.739H154.964V203.959H156.98C158.506 203.959 159.332 204.631 159.332 205.849C159.332 207.053 158.506 207.739 156.98 207.739ZM32.7005 231.029H38.1185V230.189H33.7085V223.119H32.7005V231.029ZM39.7005 231.029H40.7085V223.119H39.7005V231.029ZM45.0236 231.029H46.0316V223.959H48.8176V223.119H42.2376V223.959H45.0236V231.029ZM50.3372 231.029H51.3452V227.445H56.1472V231.029H57.1552V223.119H56.1472V226.591H51.3452V223.119H50.3372V231.029ZM60.0989 231.029H61.1069V223.119H60.0989V231.029ZM67.3261 231.113C69.4121 231.113 70.6721 229.895 70.6721 227.669V223.119H69.6921V227.641C69.6921 229.377 68.8381 230.245 67.3261 230.245C65.8141 230.245 64.9741 229.363 64.9741 227.641V223.119H63.9661V227.669C63.9661 229.895 65.2261 231.113 67.3261 231.113ZM81.9807 231.029L81.9667 223.119H81.0987L77.7527 228.789L74.3927 223.119H73.5247V231.029H74.4907V225.023L77.5147 230.035H77.9767L81.0007 224.939V231.029H81.9807ZM84.955 229.573C84.535 229.573 84.213 229.895 84.213 230.329C84.213 230.693 84.423 230.959 84.717 231.043L84.241 233.073H84.913L85.501 231.141C85.641 230.749 85.697 230.567 85.697 230.329C85.697 229.909 85.389 229.573 84.955 229.573ZM97.0459 229.671C96.4719 230.063 95.8139 230.231 95.0719 230.231C93.1539 230.231 91.7679 228.887 91.7679 227.067C91.7679 225.247 93.1539 223.903 95.0299 223.903C95.9679 223.903 96.7659 224.197 97.4239 224.855L98.0679 224.197C97.3539 223.413 96.3039 223.021 95.0159 223.021C92.5799 223.021 90.7599 224.757 90.7599 227.067C90.7599 229.391 92.5799 231.113 95.0579 231.113C96.1779 231.113 97.2699 230.763 98.0119 230.105V227.067H97.0459V229.671ZM107.201 231.029L105.269 228.341C106.403 227.949 107.075 227.081 107.075 225.849C107.075 224.113 105.801 223.119 103.771 223.119H100.691V231.029H101.699V228.565H103.771C103.953 228.565 104.135 228.551 104.317 228.537L106.109 231.029H107.201ZM103.715 227.739H101.699V223.959H103.715C105.241 223.959 106.067 224.631 106.067 225.849C106.067 227.053 105.241 227.739 103.715 227.739ZM115.279 231.029H116.287L112.633 223.119H111.639L107.985 231.029H108.993L109.917 228.985H114.355L115.279 231.029ZM110.281 228.173L112.143 224.071L113.991 228.173H110.281ZM120.874 223.119H117.794V231.029H118.802V228.579H120.874C122.904 228.579 124.178 227.571 124.178 225.849C124.178 224.113 122.904 223.119 120.874 223.119ZM120.818 227.739H118.802V223.959H120.818C122.344 223.959 123.17 224.631 123.17 225.849C123.17 227.053 122.344 227.739 120.818 227.739ZM126.435 231.029H127.443V227.445H132.245V231.029H133.253V223.119H132.245V226.591H127.443V223.119H126.435V231.029ZM136.197 231.029H137.205V223.119H136.197V231.029ZM141.52 231.029H142.528V223.959H145.314V223.119H138.734V223.959H141.52V231.029ZM147.841 230.189V227.431H151.929V226.605H147.841V223.959H152.419V223.119H146.833V231.029H152.587V230.189H147.841ZM154.859 229.573C154.439 229.573 154.117 229.895 154.117 230.329C154.117 230.693 154.327 230.959 154.621 231.043L154.145 233.073H154.817L155.405 231.141C155.545 230.749 155.601 230.567 155.601 230.329C155.601 229.909 155.293 229.573 154.859 229.573ZM36.1305 251.113C37.3905 251.113 38.4125 250.735 39.1405 249.937L38.4965 249.279C37.8525 249.951 37.0685 250.231 36.1585 250.231C34.2965 250.231 32.9105 248.887 32.9105 247.067C32.9105 245.247 34.2965 243.903 36.1585 243.903C37.0685 243.903 37.8525 244.197 38.4965 244.855L39.1405 244.197C38.4265 243.413 37.3905 243.021 36.1305 243.021C33.7225 243.021 31.9025 244.757 31.9025 247.067C31.9025 249.391 33.7225 251.113 36.1305 251.113ZM44.3613 251.113C46.7973 251.113 48.6033 249.391 48.6033 247.067C48.6033 244.757 46.7973 243.021 44.3613 243.021C41.9393 243.021 40.1193 244.757 40.1193 247.067C40.1193 249.391 41.9393 251.113 44.3613 251.113ZM44.3613 250.245C42.5133 250.245 41.1273 248.901 41.1273 247.081C41.1273 245.247 42.5133 243.903 44.3613 243.903C46.2093 243.903 47.5953 245.247 47.5953 247.081C47.5953 248.901 46.2093 250.245 44.3613 250.245ZM55.9553 246.941C56.6833 246.633 57.1313 246.031 57.1313 245.149C57.1313 243.875 56.0953 243.119 54.2753 243.119H50.7473V251.029H54.4993C56.5293 251.029 57.5653 250.259 57.5653 248.901C57.5653 247.851 56.9913 247.179 55.9553 246.941ZM54.1913 243.903C55.4233 243.903 56.1373 244.365 56.1373 245.261C56.1373 246.157 55.4233 246.633 54.1913 246.633H51.7553V243.903H54.1913ZM54.4573 250.245H51.7553V247.417H54.4573C55.8153 247.417 56.5433 247.837 56.5433 248.831C56.5433 249.797 55.8153 250.245 54.4573 250.245ZM65.5271 251.029H66.5351L62.8811 243.119H61.8871L58.2331 251.029H59.2411L60.1651 248.985H64.6031L65.5271 251.029ZM60.5291 248.173L62.3911 244.071L64.2391 248.173H60.5291ZM68.0423 251.029H73.4603V250.189H69.0503V243.119H68.0423V251.029ZM75.4983 251.029H76.5063V243.959H79.2923V243.119H72.7123V243.959H75.4983V251.029ZM90.3279 251.029H91.3359L87.6819 243.119H86.6879L83.0339 251.029H84.0419L84.9659 248.985H89.4039L90.3279 251.029ZM85.3299 248.173L87.1919 244.071L89.0399 248.173H85.3299ZM98.653 243.119V249.293L93.683 243.119H92.843V251.029H93.851V244.855L98.821 251.029H99.661V243.119H98.653ZM102.605 251.029H105.923C108.583 251.029 110.249 249.433 110.249 247.067C110.249 244.715 108.583 243.119 105.923 243.119H102.605V251.029ZM103.613 250.189V243.959H105.881C108.009 243.959 109.241 245.205 109.241 247.067C109.241 248.943 108.009 250.189 105.881 250.189H103.613ZM121.868 243.119V249.293L116.898 243.119H116.058V251.029H117.066V244.855L122.036 251.029H122.876V243.119H121.868ZM125.82 251.029H126.828V243.119H125.82V251.029ZM133.201 251.113C134.461 251.113 135.483 250.735 136.211 249.937L135.567 249.279C134.923 249.951 134.139 250.231 133.229 250.231C131.367 250.231 129.981 248.887 129.981 247.067C129.981 245.247 131.367 243.903 133.229 243.903C134.139 243.903 134.923 244.197 135.567 244.855L136.211 244.197C135.497 243.413 134.461 243.021 133.201 243.021C130.793 243.021 128.973 244.757 128.973 247.067C128.973 249.391 130.793 251.113 133.201 251.113ZM143.905 251.029H145.109L141.427 246.703L144.871 243.119H143.737L139.201 247.711V243.119H138.193V251.029H139.201V248.957L140.741 247.417L143.905 251.029ZM147.732 250.189V247.431H151.82V246.605H147.732V243.959H152.31V243.119H146.724V251.029H152.478V250.189H147.732ZM154.654 251.029H160.072V250.189H155.662V243.119H154.654V251.029ZM161.955 251.099C162.375 251.099 162.697 250.763 162.697 250.371C162.697 249.965 162.375 249.657 161.955 249.657C161.549 249.657 161.227 249.965 161.227 250.371C161.227 250.763 161.549 251.099 161.955 251.099Z" fill="black"/>
  <path d="M235.651 10C235.651 4.47715 240.129 0 245.651 0H457.665C463.188 0 467.665 4.47715 467.665 10V143.78C467.665 147.46 469.686 150.843 472.927 152.587L484.746 158.945C491.762 162.72 491.762 172.783 484.746 176.558L472.927 182.917C469.686 184.661 467.665 188.043 467.665 191.723V316.505C467.665 322.028 463.188 326.505 457.665 326.505H245.651C240.129 326.505 235.651 322.028 235.651 316.505V192.266C235.651 188.639 237.615 185.297 240.784 183.531L253.425 176.487C260.268 172.674 260.268 162.83 253.425 159.016L240.784 151.973C237.615 150.207 235.651 146.864 235.651 143.237V10Z" fill="#FFCC34"/>
  <path d="M334.312 78.0766H339.636L352.057 67.4297L362.704 78.0766H369.802L373.351 95.8215H382.224L389.321 127.762H391.096V129.537H313.019V127.762H314.793L321.891 95.8215H330.763L334.312 78.0766Z" stroke="black" stroke-width="3"/>
  <path d="M344.959 125.988V118.548C344.959 116.175 346.145 113.959 348.12 112.642V112.642C350.504 111.053 353.61 111.053 355.994 112.642V112.642C357.969 113.959 359.155 116.175 359.155 118.548V125.988" stroke="black" stroke-width="3"/>
  <path d="M277.803 181.229L273.589 188.495L269.333 181.229H268.479V191.029H269.473V183.231L273.323 189.783H273.813L277.663 183.189V191.029H278.657V181.229H277.803ZM281.724 191.029H282.732V183.119H281.724V191.029ZM291.485 183.119V189.293L286.515 183.119H285.675V191.029H286.683V184.855L291.653 191.029H292.493V183.119H291.485ZM296.445 190.189V187.431H300.533V186.605H296.445V183.959H301.023V183.119H295.437V191.029H301.191V190.189H296.445ZM312.239 186.941C312.967 186.633 313.415 186.031 313.415 185.149C313.415 183.875 312.379 183.119 310.559 183.119H307.031V191.029H310.783C312.813 191.029 313.849 190.259 313.849 188.901C313.849 187.851 313.275 187.179 312.239 186.941ZM310.475 183.903C311.707 183.903 312.421 184.365 312.421 185.261C312.421 186.157 311.707 186.633 310.475 186.633H308.039V183.903H310.475ZM310.741 190.245H308.039V187.417H310.741C312.099 187.417 312.827 187.837 312.827 188.831C312.827 189.797 312.099 190.245 310.741 190.245ZM321.941 183.119H320.905L318.189 187.487L315.473 183.119H314.395L317.671 188.425V191.029H318.665V188.453L321.941 183.119ZM335.639 191.029L335.625 183.119H334.757L331.411 188.789L328.051 183.119H327.183V191.029H328.149V185.023L331.173 190.035H331.635L334.659 184.939V191.029H335.639ZM338.585 191.029H339.593V183.119H338.585V191.029ZM348.346 183.119V189.293L343.376 183.119H342.536V191.029H343.544V184.855L348.514 191.029H349.354V183.119H348.346ZM353.306 190.189V187.431H357.394V186.605H353.306V183.959H357.884V183.119H352.298V191.029H358.052V190.189H353.306ZM360.324 189.573C359.904 189.573 359.582 189.895 359.582 190.329C359.582 190.693 359.792 190.959 360.086 191.043L359.61 193.073H360.282L360.87 191.141C361.01 190.749 361.066 190.567 361.066 190.329C361.066 189.909 360.758 189.573 360.324 189.573ZM370.007 183.119H366.927V191.029H367.935V188.579H370.007C372.037 188.579 373.311 187.571 373.311 185.849C373.311 184.113 372.037 183.119 370.007 183.119ZM369.951 187.739H367.935V183.959H369.951C371.477 183.959 372.303 184.631 372.303 185.849C372.303 187.053 371.477 187.739 369.951 187.739ZM382.078 191.029L380.146 188.341C381.28 187.949 381.952 187.081 381.952 185.849C381.952 184.113 380.678 183.119 378.648 183.119H375.568V191.029H376.576V188.565H378.648C378.83 188.565 379.012 188.551 379.194 188.537L380.986 191.029H382.078ZM378.592 187.739H376.576V183.959H378.592C380.118 183.959 380.944 184.631 380.944 185.849C380.944 187.053 380.118 187.739 378.592 187.739ZM387.748 191.113C390.184 191.113 391.99 189.391 391.99 187.067C391.99 184.757 390.184 183.021 387.748 183.021C385.326 183.021 383.506 184.757 383.506 187.067C383.506 189.391 385.326 191.113 387.748 191.113ZM387.748 190.245C385.9 190.245 384.514 188.901 384.514 187.081C384.514 185.247 385.9 183.903 387.748 183.903C389.596 183.903 390.982 185.247 390.982 187.081C390.982 188.901 389.596 190.245 387.748 190.245ZM394.769 191.113C396.351 191.113 397.177 190.245 397.177 188.495V183.119H393.271V183.959H396.183V188.565C396.183 189.699 395.721 190.245 394.755 190.245C394.069 190.245 393.509 189.909 393.103 189.335L392.473 189.965C392.949 190.693 393.803 191.113 394.769 191.113ZM401.035 190.189V187.431H405.123V186.605H401.035V183.959H405.613V183.119H400.027V191.029H405.781V190.189H401.035ZM411.332 191.113C412.592 191.113 413.614 190.735 414.342 189.937L413.698 189.279C413.054 189.951 412.27 190.231 411.36 190.231C409.498 190.231 408.112 188.887 408.112 187.067C408.112 185.247 409.498 183.903 411.36 183.903C412.27 183.903 413.054 184.197 413.698 184.855L414.342 184.197C413.628 183.413 412.592 183.021 411.332 183.021C408.924 183.021 407.104 184.757 407.104 187.067C407.104 189.391 408.924 191.113 411.332 191.113ZM417.696 191.029H418.704V183.959H421.49V183.119H414.91V183.959H417.696V191.029ZM273.561 206.941C274.289 206.633 274.737 206.031 274.737 205.149C274.737 203.875 273.701 203.119 271.881 203.119H268.353V211.029H272.105C274.135 211.029 275.171 210.259 275.171 208.901C275.171 207.851 274.597 207.179 273.561 206.941ZM271.797 203.903C273.029 203.903 273.743 204.365 273.743 205.261C273.743 206.157 273.029 206.633 271.797 206.633H269.361V203.903H271.797ZM272.063 210.245H269.361V207.417H272.063C273.421 207.417 274.149 207.837 274.149 208.831C274.149 209.797 273.421 210.245 272.063 210.245ZM283.263 203.119H282.227L279.511 207.487L276.795 203.119H275.717L278.993 208.425V211.029H279.987V208.453L283.263 203.119ZM291.585 203.119H288.505V211.029H289.513V208.579H291.585C293.615 208.579 294.889 207.571 294.889 205.849C294.889 204.113 293.615 203.119 291.585 203.119ZM291.529 207.739H289.513V203.959H291.529C293.055 203.959 293.881 204.631 293.881 205.849C293.881 207.053 293.055 207.739 291.529 207.739ZM303.656 211.029L301.724 208.341C302.858 207.949 303.53 207.081 303.53 205.849C303.53 204.113 302.256 203.119 300.226 203.119H297.146V211.029H298.154V208.565H300.226C300.408 208.565 300.59 208.551 300.772 208.537L302.564 211.029H303.656ZM300.17 207.739H298.154V203.959H300.17C301.696 203.959 302.522 204.631 302.522 205.849C302.522 207.053 301.696 207.739 300.17 207.739ZM309.326 211.113C311.762 211.113 313.568 209.391 313.568 207.067C313.568 204.757 311.762 203.021 309.326 203.021C306.904 203.021 305.084 204.757 305.084 207.067C305.084 209.391 306.904 211.113 309.326 211.113ZM309.326 210.245C307.478 210.245 306.092 208.901 306.092 207.081C306.092 205.247 307.478 203.903 309.326 203.903C311.174 203.903 312.56 205.247 312.56 207.081C312.56 208.901 311.174 210.245 309.326 210.245ZM316.347 211.113C317.929 211.113 318.755 210.245 318.755 208.495V203.119H314.849V203.959H317.761V208.565C317.761 209.699 317.299 210.245 316.333 210.245C315.647 210.245 315.087 209.909 314.681 209.335L314.051 209.965C314.527 210.693 315.381 211.113 316.347 211.113ZM322.613 210.189V207.431H326.701V206.605H322.613V203.959H327.191V203.119H321.605V211.029H327.359V210.189H322.613ZM332.91 211.113C334.17 211.113 335.192 210.735 335.92 209.937L335.276 209.279C334.632 209.951 333.848 210.231 332.938 210.231C331.076 210.231 329.69 208.887 329.69 207.067C329.69 205.247 331.076 203.903 332.938 203.903C333.848 203.903 334.632 204.197 335.276 204.855L335.92 204.197C335.206 203.413 334.17 203.021 332.91 203.021C330.502 203.021 328.682 204.757 328.682 207.067C328.682 209.391 330.502 211.113 332.91 211.113ZM339.274 211.029H340.282V203.959H343.068V203.119H336.488V203.959H339.274V211.029ZM348.251 211.029H351.569C354.229 211.029 355.895 209.433 355.895 207.067C355.895 204.715 354.229 203.119 351.569 203.119H348.251V211.029ZM349.259 210.189V203.959H351.527C353.655 203.959 354.887 205.205 354.887 207.067C354.887 208.943 353.655 210.189 351.527 210.189H349.259ZM363.756 211.029H364.764L361.11 203.119H360.116L356.462 211.029H357.47L358.394 208.985H362.832L363.756 211.029ZM358.758 208.173L360.62 204.071L362.468 208.173H358.758ZM367.151 211.029H368.159V203.959H370.945V203.119H364.365V203.959H367.151V211.029ZM377.824 211.029H378.832L375.178 203.119H374.184L370.53 211.029H371.538L372.462 208.985H376.9L377.824 211.029ZM372.826 208.173L374.688 204.071L376.536 208.173H372.826ZM385.547 206.941C386.275 206.633 386.723 206.031 386.723 205.149C386.723 203.875 385.687 203.119 383.867 203.119H380.339V211.029H384.091C386.121 211.029 387.157 210.259 387.157 208.901C387.157 207.851 386.583 207.179 385.547 206.941ZM383.783 203.903C385.015 203.903 385.729 204.365 385.729 205.261C385.729 206.157 385.015 206.633 383.783 206.633H381.347V203.903H383.783ZM384.049 210.245H381.347V207.417H384.049C385.407 207.417 386.135 207.837 386.135 208.831C386.135 209.797 385.407 210.245 384.049 210.245ZM395.119 211.029H396.127L392.473 203.119H391.479L387.825 211.029H388.833L389.757 208.985H394.195L395.119 211.029ZM390.121 208.173L391.983 204.071L393.831 208.173H390.121ZM399.818 211.113C401.792 211.113 402.884 210.189 402.884 208.873C402.884 205.975 397.998 207.291 397.998 205.219C397.998 204.477 398.6 203.889 400 203.889C400.742 203.889 401.54 204.057 402.212 204.533L402.576 203.721C401.918 203.259 400.952 203.021 400.028 203.021C398.068 203.021 397.004 203.973 397.004 205.261C397.004 208.229 401.876 206.871 401.876 208.957C401.876 209.671 401.302 210.259 399.846 210.259C398.782 210.259 397.774 209.867 397.186 209.335L396.766 210.119C397.396 210.707 398.6 211.113 399.818 211.113ZM405.97 210.189V207.431H410.058V206.605H405.97V203.959H410.548V203.119H404.962V211.029H410.716V210.189H405.97ZM415.076 211.113C417.05 211.113 418.142 210.189 418.142 208.873C418.142 205.975 413.256 207.291 413.256 205.219C413.256 204.477 413.858 203.889 415.258 203.889C416 203.889 416.798 204.057 417.47 204.533L417.834 203.721C417.176 203.259 416.21 203.021 415.286 203.021C413.326 203.021 412.262 203.973 412.262 205.261C412.262 208.229 417.134 206.871 417.134 208.957C417.134 209.671 416.56 210.259 415.104 210.259C414.04 210.259 413.032 209.867 412.444 209.335L412.024 210.119C412.654 210.707 413.858 211.113 415.076 211.113ZM273.939 223.959V223.119H268.353V231.029H269.361V227.753H273.449V226.899H269.361V223.959H273.939ZM279.234 231.113C281.67 231.113 283.476 229.391 283.476 227.067C283.476 224.757 281.67 223.021 279.234 223.021C276.812 223.021 274.992 224.757 274.992 227.067C274.992 229.391 276.812 231.113 279.234 231.113ZM279.234 230.245C277.386 230.245 276 228.901 276 227.081C276 225.247 277.386 223.903 279.234 223.903C281.082 223.903 282.468 225.247 282.468 227.081C282.468 228.901 281.082 230.245 279.234 230.245ZM292.13 231.029L290.198 228.341C291.332 227.949 292.004 227.081 292.004 225.849C292.004 224.113 290.73 223.119 288.7 223.119H285.62V231.029H286.628V228.565H288.7C288.882 228.565 289.064 228.551 289.246 228.537L291.038 231.029H292.13ZM288.644 227.739H286.628V223.959H288.644C290.17 223.959 290.996 224.631 290.996 225.849C290.996 227.053 290.17 227.739 288.644 227.739ZM299.029 230.189V227.431H303.117V226.605H299.029V223.959H303.607V223.119H298.021V231.029H303.775V230.189H299.029ZM311.802 231.029H312.81L309.156 223.119H308.162L304.508 231.029H305.516L306.44 228.985H310.878L311.802 231.029ZM306.804 228.173L308.666 224.071L310.514 228.173H306.804ZM317.611 231.113C318.871 231.113 319.893 230.735 320.621 229.937L319.977 229.279C319.333 229.951 318.549 230.231 317.639 230.231C315.777 230.231 314.391 228.887 314.391 227.067C314.391 225.247 315.777 223.903 317.639 223.903C318.549 223.903 319.333 224.197 319.977 224.855L320.621 224.197C319.907 223.413 318.871 223.021 317.611 223.021C315.203 223.021 313.383 224.757 313.383 227.067C313.383 229.391 315.203 231.113 317.611 231.113ZM322.603 231.029H323.611V227.445H328.413V231.029H329.421V223.119H328.413V226.591H323.611V223.119H322.603V231.029ZM339.473 231.113C341.909 231.113 343.715 229.391 343.715 227.067C343.715 224.757 341.909 223.021 339.473 223.021C337.051 223.021 335.231 224.757 335.231 227.067C335.231 229.391 337.051 231.113 339.473 231.113ZM339.473 230.245C337.625 230.245 336.239 228.901 336.239 227.081C336.239 225.247 337.625 223.903 339.473 223.903C341.321 223.903 342.707 225.247 342.707 227.081C342.707 228.901 341.321 230.245 339.473 230.245ZM351.445 223.959V223.119H345.859V231.029H346.867V227.753H350.955V226.899H346.867V223.959H351.445ZM358.455 231.029H359.463V223.959H362.249V223.119H355.669V223.959H358.455V231.029ZM363.769 231.029H364.777V227.445H369.579V231.029H370.587V223.119H369.579V226.591H364.777V223.119H363.769V231.029ZM374.539 230.189V227.431H378.627V226.605H374.539V223.959H379.117V223.119H373.531V231.029H379.285V230.189H374.539ZM390.836 231.029H392.04L388.358 226.703L391.802 223.119H390.668L386.132 227.711V223.119H385.124V231.029H386.132V228.957L387.672 227.417L390.836 231.029ZM394.664 230.189V227.431H398.752V226.605H394.664V223.959H399.242V223.119H393.656V231.029H399.41V230.189H394.664ZM407.664 223.119H406.628L403.912 227.487L401.196 223.119H400.118L403.394 228.425V231.029H404.388V228.453L407.664 223.119ZM273.561 246.941C274.289 246.633 274.737 246.031 274.737 245.149C274.737 243.875 273.701 243.119 271.881 243.119H268.353V251.029H272.105C274.135 251.029 275.171 250.259 275.171 248.901C275.171 247.851 274.597 247.179 273.561 246.941ZM271.797 243.903C273.029 243.903 273.743 244.365 273.743 245.261C273.743 246.157 273.029 246.633 271.797 246.633H269.361V243.903H271.797ZM272.063 250.245H269.361V247.417H272.063C273.421 247.417 274.149 247.837 274.149 248.831C274.149 249.797 273.421 250.245 272.063 250.245ZM283.133 251.029H284.141L280.487 243.119H279.493L275.839 251.029H276.847L277.771 248.985H282.209L283.133 251.029ZM278.135 248.173L279.997 244.071L281.845 248.173H278.135ZM286.528 251.029H287.536V243.959H290.322V243.119H283.742V243.959H286.528V251.029ZM293.35 251.029H294.358V243.959H297.144V243.119H290.564V243.959H293.35V251.029ZM299.671 250.189V247.431H303.759V246.605H299.671V243.959H304.249V243.119H298.663V251.029H304.417V250.189H299.671ZM313.103 251.029L311.171 248.341C312.305 247.949 312.977 247.081 312.977 245.849C312.977 244.113 311.703 243.119 309.673 243.119H306.593V251.029H307.601V248.565H309.673C309.855 248.565 310.037 248.551 310.219 248.537L312.011 251.029H313.103ZM309.617 247.739H307.601V243.959H309.617C311.143 243.959 311.969 244.631 311.969 245.849C311.969 247.053 311.143 247.739 309.617 247.739ZM321.381 243.119H320.345L317.629 247.487L314.913 243.119H313.835L317.111 248.425V251.029H318.105V248.453L321.381 243.119ZM333.132 251.029L331.2 248.341C332.334 247.949 333.006 247.081 333.006 245.849C333.006 244.113 331.732 243.119 329.702 243.119H326.622V251.029H327.63V248.565H329.702C329.884 248.565 330.066 248.551 330.248 248.537L332.04 251.029H333.132ZM329.646 247.739H327.63V243.959H329.646C331.172 243.959 331.998 244.631 331.998 245.849C331.998 247.053 331.172 247.739 329.646 247.739ZM341.211 251.029H342.219L338.565 243.119H337.571L333.917 251.029H334.925L335.849 248.985H340.287L341.211 251.029ZM336.213 248.173L338.075 244.071L339.923 248.173H336.213ZM353.384 243.119L351.116 249.755L348.834 243.119H347.882L345.572 249.727L343.346 243.119H342.296L344.998 251.029H346.076L348.344 244.505L350.612 251.029H351.662L354.364 243.119H353.384ZM368.506 251.029L368.492 243.119H367.624L364.278 248.789L360.918 243.119H360.05V251.029H361.016V245.023L364.04 250.035H364.502L367.526 244.939V251.029H368.506ZM377.304 251.029H378.312L374.658 243.119H373.664L370.01 251.029H371.018L371.942 248.985H376.38L377.304 251.029ZM372.306 248.173L374.168 244.071L376.016 248.173H372.306ZM380.699 251.029H381.707V243.959H384.493V243.119H377.913V243.959H380.699V251.029ZM387.021 250.189V247.431H391.109V246.605H387.021V243.959H391.599V243.119H386.013V251.029H391.767V250.189H387.021ZM400.453 251.029L398.521 248.341C399.655 247.949 400.327 247.081 400.327 245.849C400.327 244.113 399.053 243.119 397.023 243.119H393.943V251.029H394.951V248.565H397.023C397.205 248.565 397.387 248.551 397.569 248.537L399.361 251.029H400.453ZM396.967 247.739H394.951V243.959H396.967C398.493 243.959 399.319 244.631 399.319 245.849C399.319 247.053 398.493 247.739 396.967 247.739ZM402.679 251.029H403.687V243.119H402.679V251.029ZM412.482 251.029H413.49L409.836 243.119H408.842L405.188 251.029H406.196L407.12 248.985H411.558L412.482 251.029ZM407.484 248.173L409.346 244.071L411.194 248.173H407.484ZM414.997 251.029H420.415V250.189H416.005V243.119H414.997V251.029ZM424.072 251.113C426.046 251.113 427.138 250.189 427.138 248.873C427.138 245.975 422.252 247.291 422.252 245.219C422.252 244.477 422.854 243.889 424.254 243.889C424.996 243.889 425.794 244.057 426.466 244.533L426.83 243.721C426.172 243.259 425.206 243.021 424.282 243.021C422.322 243.021 421.258 243.973 421.258 245.261C421.258 248.229 426.13 246.871 426.13 248.957C426.13 249.671 425.556 250.259 424.1 250.259C423.036 250.259 422.028 249.867 421.44 249.335L421.02 250.119C421.65 250.707 422.854 251.113 424.072 251.113ZM429.381 251.099C429.801 251.099 430.123 250.763 430.123 250.371C430.123 249.965 429.801 249.657 429.381 249.657C428.975 249.657 428.653 249.965 428.653 250.371C428.653 250.763 428.975 251.099 429.381 251.099Z" fill="black"/>
  <path d="M471.304 10C471.304 4.47715 475.781 0 481.304 0H693.317C698.84 0 703.317 4.47715 703.317 10V143.78C703.317 147.46 705.338 150.843 708.579 152.587L720.398 158.945C727.415 162.72 727.415 172.783 720.398 176.558L708.579 182.917C705.338 184.661 703.317 188.043 703.317 191.723V316.505C703.317 322.028 698.84 326.505 693.317 326.505H481.304C475.781 326.505 471.304 322.028 471.304 316.505V192.266C471.304 188.639 473.268 185.297 476.436 183.531L489.077 176.487C495.92 172.674 495.92 162.83 489.077 159.016L476.436 151.973C473.268 150.207 471.304 146.864 471.304 143.237V10Z" fill="#FDD24C"/>
  <path d="M567.897 96.572V99.7107L570.339 97.7391L584.635 86.1984C585.711 85.5533 586.342 85.5412 586.687 85.6502C586.868 85.7073 586.914 85.7698 586.939 85.8085C586.979 85.8722 587.061 86.054 587.061 86.4657V96.572V99.7107L589.504 97.7391L603.799 86.1984C604.876 85.5533 605.507 85.5412 605.852 85.6502C606.032 85.7073 606.078 85.7698 606.103 85.8085C606.143 85.8722 606.226 86.054 606.226 86.4657V96.572V99.7107L608.668 97.7391L622.954 86.2064C624.096 85.548 624.731 85.5458 625.043 85.6467C625.203 85.6988 625.243 85.754 625.267 85.7932C625.308 85.86 625.39 86.0477 625.39 86.4657V132.056C625.39 133.007 625.074 133.752 624.421 134.388C623.747 135.044 622.997 135.347 622.099 135.347H555.024C554.073 135.347 553.327 135.031 552.692 134.378C552.035 133.704 551.732 132.954 551.732 132.056V64.9806C551.732 64.0296 552.049 63.2843 552.701 62.6491C553.376 61.9924 554.125 61.6895 555.024 61.6895H564.606C565.504 61.6895 566.254 61.9924 566.928 62.6491C567.58 63.2843 567.897 64.0295 567.897 64.9806V96.572Z" stroke="black" stroke-width="3"/>
  <path d="M508.387 191.113C507.416 191.113 506.539 190.899 505.755 190.469C504.98 190.04 504.369 189.447 503.921 188.691C503.482 187.926 503.263 187.072 503.263 186.129C503.263 185.187 503.482 184.337 503.921 183.581C504.369 182.816 504.985 182.219 505.769 181.789C506.553 181.36 507.43 181.145 508.401 181.145C509.129 181.145 509.801 181.267 510.417 181.509C511.033 181.752 511.556 182.107 511.985 182.573L511.327 183.231C510.562 182.457 509.596 182.069 508.429 182.069C507.654 182.069 506.95 182.247 506.315 182.601C505.68 182.956 505.181 183.441 504.817 184.057C504.462 184.673 504.285 185.364 504.285 186.129C504.285 186.895 504.462 187.585 504.817 188.201C505.181 188.817 505.68 189.303 506.315 189.657C506.95 190.012 507.654 190.189 508.429 190.189C509.605 190.189 510.571 189.797 511.327 189.013L511.985 189.671C511.556 190.138 511.028 190.497 510.403 190.749C509.787 190.992 509.115 191.113 508.387 191.113ZM518.859 188.985H514.421L513.497 191.029H512.489L516.143 183.119H517.137L520.791 191.029H519.783L518.859 188.985ZM518.495 188.173L516.647 184.071L514.785 188.173H518.495ZM523.178 183.959H520.392V183.119H526.972V183.959H524.186V191.029H523.178V183.959ZM528.491 183.119H529.499V186.591H534.301V183.119H535.309V191.029H534.301V187.445H529.499V191.029H528.491V183.119ZM541.697 191.113C540.904 191.113 540.181 190.941 539.527 190.595C538.883 190.241 538.375 189.755 538.001 189.139C537.637 188.523 537.455 187.833 537.455 187.067C537.455 186.311 537.637 185.625 538.001 185.009C538.375 184.393 538.883 183.908 539.527 183.553C540.181 183.199 540.904 183.021 541.697 183.021C542.5 183.021 543.223 183.199 543.867 183.553C544.511 183.899 545.015 184.384 545.379 185.009C545.753 185.625 545.939 186.311 545.939 187.067C545.939 187.833 545.753 188.523 545.379 189.139C545.015 189.755 544.511 190.241 543.867 190.595C543.223 190.941 542.5 191.113 541.697 191.113ZM541.697 190.245C542.304 190.245 542.855 190.11 543.349 189.839C543.844 189.559 544.231 189.181 544.511 188.705C544.791 188.22 544.931 187.679 544.931 187.081C544.931 186.475 544.791 185.933 544.511 185.457C544.231 184.972 543.844 184.594 543.349 184.323C542.855 184.043 542.304 183.903 541.697 183.903C541.091 183.903 540.54 184.043 540.045 184.323C539.551 184.594 539.163 184.972 538.883 185.457C538.603 185.933 538.463 186.475 538.463 187.081C538.463 187.679 538.603 188.22 538.883 188.705C539.163 189.181 539.551 189.559 540.045 189.839C540.54 190.11 541.091 190.245 541.697 190.245ZM548.083 183.119H551.401C552.279 183.119 553.044 183.287 553.697 183.623C554.351 183.95 554.85 184.412 555.195 185.009C555.55 185.597 555.727 186.283 555.727 187.067C555.727 187.851 555.55 188.542 555.195 189.139C554.85 189.737 554.351 190.203 553.697 190.539C553.044 190.866 552.279 191.029 551.401 191.029H548.083V183.119ZM551.359 190.189C552.414 190.189 553.235 189.909 553.823 189.349C554.421 188.78 554.719 188.019 554.719 187.067C554.719 186.125 554.421 185.373 553.823 184.813C553.235 184.244 552.414 183.959 551.359 183.959H549.091V190.189H551.359ZM563.626 190.189V191.029H557.872V183.119H563.458V183.959H558.88V186.605H562.968V187.431H558.88V190.189H563.626ZM567.986 191.113C567.379 191.113 566.796 191.025 566.236 190.847C565.685 190.661 565.251 190.418 564.934 190.119L565.354 189.335C565.653 189.606 566.04 189.83 566.516 190.007C567.001 190.175 567.501 190.259 568.014 190.259C568.705 190.259 569.213 190.138 569.54 189.895C569.876 189.653 570.044 189.34 570.044 188.957C570.044 188.659 569.951 188.421 569.764 188.243C569.577 188.057 569.344 187.917 569.064 187.823C568.784 187.73 568.406 187.627 567.93 187.515C567.333 187.375 566.852 187.235 566.488 187.095C566.124 186.955 565.811 186.741 565.55 186.451C565.298 186.153 565.172 185.756 565.172 185.261C565.172 184.599 565.438 184.062 565.97 183.651C566.502 183.231 567.244 183.021 568.196 183.021C568.672 183.021 569.134 183.082 569.582 183.203C570.039 183.325 570.427 183.497 570.744 183.721L570.38 184.533C569.773 184.104 569.036 183.889 568.168 183.889C567.505 183.889 567.006 184.015 566.67 184.267C566.334 184.51 566.166 184.827 566.166 185.219C566.166 185.518 566.259 185.761 566.446 185.947C566.633 186.125 566.866 186.26 567.146 186.353C567.435 186.447 567.823 186.549 568.308 186.661C568.896 186.801 569.372 186.941 569.736 187.081C570.1 187.212 570.408 187.422 570.66 187.711C570.921 188.001 571.052 188.388 571.052 188.873C571.052 189.545 570.781 190.087 570.24 190.497C569.708 190.908 568.957 191.113 567.986 191.113ZM581.722 188.985H577.284L576.36 191.029H575.352L579.006 183.119H580L583.654 191.029H582.646L581.722 188.985ZM581.358 188.173L579.51 184.071L577.648 188.173H581.358ZM591.979 183.119V191.029H591.139L586.169 184.855V191.029H585.161V183.119H586.001L590.971 189.293V183.119H591.979ZM594.923 183.119H598.241C599.118 183.119 599.884 183.287 600.537 183.623C601.19 183.95 601.69 184.412 602.035 185.009C602.39 185.597 602.567 186.283 602.567 187.067C602.567 187.851 602.39 188.542 602.035 189.139C601.69 189.737 601.19 190.203 600.537 190.539C599.884 190.866 599.118 191.029 598.241 191.029H594.923V183.119ZM598.199 190.189C599.254 190.189 600.075 189.909 600.663 189.349C601.26 188.78 601.559 188.019 601.559 187.067C601.559 186.125 601.26 185.373 600.663 184.813C600.075 184.244 599.254 183.959 598.199 183.959H595.931V190.189H598.199ZM613.304 188.985H608.866L607.942 191.029H606.934L610.588 183.119H611.582L615.236 191.029H614.228L613.304 188.985ZM612.94 188.173L611.092 184.071L609.23 188.173H612.94ZM623.561 183.119V191.029H622.721L617.751 184.855V191.029H616.743V183.119H617.583L622.553 189.293V183.119H623.561ZM629.949 191.113C629.156 191.113 628.432 190.941 627.779 190.595C627.135 190.241 626.626 189.755 626.253 189.139C625.889 188.523 625.707 187.833 625.707 187.067C625.707 186.311 625.889 185.625 626.253 185.009C626.626 184.393 627.135 183.908 627.779 183.553C628.432 183.199 629.156 183.021 629.949 183.021C630.752 183.021 631.475 183.199 632.119 183.553C632.763 183.899 633.267 184.384 633.631 185.009C634.004 185.625 634.191 186.311 634.191 187.067C634.191 187.833 634.004 188.523 633.631 189.139C633.267 189.755 632.763 190.241 632.119 190.595C631.475 190.941 630.752 191.113 629.949 191.113ZM629.949 190.245C630.556 190.245 631.106 190.11 631.601 189.839C632.096 189.559 632.483 189.181 632.763 188.705C633.043 188.22 633.183 187.679 633.183 187.081C633.183 186.475 633.043 185.933 632.763 185.457C632.483 184.972 632.096 184.594 631.601 184.323C631.106 184.043 630.556 183.903 629.949 183.903C629.342 183.903 628.792 184.043 628.297 184.323C627.802 184.594 627.415 184.972 627.135 185.457C626.855 185.933 626.715 186.475 626.715 187.081C626.715 187.679 626.855 188.22 627.135 188.705C627.415 189.181 627.802 189.559 628.297 189.839C628.792 190.11 629.342 190.245 629.949 190.245ZM636.335 183.119H639.653C640.531 183.119 641.296 183.287 641.949 183.623C642.603 183.95 643.102 184.412 643.447 185.009C643.802 185.597 643.979 186.283 643.979 187.067C643.979 187.851 643.802 188.542 643.447 189.139C643.102 189.737 642.603 190.203 641.949 190.539C641.296 190.866 640.531 191.029 639.653 191.029H636.335V183.119ZM639.611 190.189C640.666 190.189 641.487 189.909 642.075 189.349C642.673 188.78 642.971 188.019 642.971 187.067C642.971 186.125 642.673 185.373 642.075 184.813C641.487 184.244 640.666 183.959 639.611 183.959H637.343V190.189H639.611ZM651.878 190.189V191.029H646.124V183.119H651.71V183.959H647.132V186.605H651.22V187.431H647.132V190.189H651.878ZM507.085 203.119C508.112 203.119 508.919 203.362 509.507 203.847C510.095 204.323 510.389 204.991 510.389 205.849C510.389 206.708 510.09 207.38 509.493 207.865C508.905 208.341 508.102 208.579 507.085 208.579H505.013V211.029H504.005V203.119H507.085ZM507.029 207.739C507.785 207.739 508.364 207.576 508.765 207.249C509.176 206.923 509.381 206.456 509.381 205.849C509.381 205.243 509.18 204.776 508.779 204.449C508.378 204.123 507.794 203.959 507.029 203.959H505.013V207.739H507.029ZM512.646 203.119H513.654V210.189H518.064V211.029H512.646V203.119ZM524.601 208.985H520.163L519.239 211.029H518.231L521.885 203.119H522.879L526.533 211.029H525.525L524.601 208.985ZM524.237 208.173L522.389 204.071L520.527 208.173H524.237ZM534.858 203.119V211.029H534.018L529.048 204.855V211.029H528.04V203.119H528.88L533.85 209.293V203.119H534.858ZM539.174 203.959H536.388V203.119H542.968V203.959H540.182V211.029H539.174V203.959ZM548.152 203.119H551.47C552.347 203.119 553.112 203.287 553.766 203.623C554.419 203.95 554.918 204.412 555.264 205.009C555.618 205.597 555.796 206.283 555.796 207.067C555.796 207.851 555.618 208.542 555.264 209.139C554.918 209.737 554.419 210.203 553.766 210.539C553.112 210.866 552.347 211.029 551.47 211.029H548.152V203.119ZM551.428 210.189C552.482 210.189 553.304 209.909 553.892 209.349C554.489 208.78 554.788 208.019 554.788 207.067C554.788 206.125 554.489 205.373 553.892 204.813C553.304 204.244 552.482 203.959 551.428 203.959H549.16V210.189H551.428ZM562.732 208.985H558.294L557.37 211.029H556.362L560.016 203.119H561.01L564.664 211.029H563.656L562.732 208.985ZM562.368 208.173L560.52 204.071L558.658 208.173H562.368ZM567.051 203.959H564.265V203.119H570.845V203.959H568.059V211.029H567.051V203.959ZM576.8 208.985H572.362L571.438 211.029H570.43L574.084 203.119H575.078L578.732 211.029H577.724L576.8 208.985ZM576.436 208.173L574.588 204.071L572.726 208.173H576.436ZM585.448 206.941C585.97 207.063 586.367 207.291 586.638 207.627C586.918 207.954 587.058 208.379 587.058 208.901C587.058 209.583 586.796 210.11 586.274 210.483C585.76 210.847 585 211.029 583.992 211.029H580.24V203.119H583.768C584.673 203.119 585.373 203.297 585.868 203.651C586.372 204.006 586.624 204.505 586.624 205.149C586.624 205.579 586.521 205.947 586.316 206.255C586.11 206.554 585.821 206.783 585.448 206.941ZM581.248 203.903V206.633H583.684C584.309 206.633 584.79 206.517 585.126 206.283C585.462 206.05 585.63 205.709 585.63 205.261C585.63 204.813 585.462 204.477 585.126 204.253C584.79 204.02 584.309 203.903 583.684 203.903H581.248ZM583.95 210.245C585.34 210.245 586.036 209.774 586.036 208.831C586.036 208.346 585.858 207.991 585.504 207.767C585.158 207.534 584.64 207.417 583.95 207.417H581.248V210.245H583.95ZM594.095 208.985H589.657L588.733 211.029H587.725L591.379 203.119H592.373L596.027 211.029H595.019L594.095 208.985ZM593.731 208.173L591.883 204.071L590.021 208.173H593.731ZM599.718 211.113C599.112 211.113 598.528 211.025 597.968 210.847C597.418 210.661 596.984 210.418 596.666 210.119L597.086 209.335C597.385 209.606 597.772 209.83 598.248 210.007C598.734 210.175 599.233 210.259 599.746 210.259C600.437 210.259 600.946 210.138 601.272 209.895C601.608 209.653 601.776 209.34 601.776 208.957C601.776 208.659 601.683 208.421 601.496 208.243C601.31 208.057 601.076 207.917 600.796 207.823C600.516 207.73 600.138 207.627 599.662 207.515C599.065 207.375 598.584 207.235 598.22 207.095C597.856 206.955 597.544 206.741 597.282 206.451C597.03 206.153 596.904 205.756 596.904 205.261C596.904 204.599 597.17 204.062 597.702 203.651C598.234 203.231 598.976 203.021 599.928 203.021C600.404 203.021 600.866 203.082 601.314 203.203C601.772 203.325 602.159 203.497 602.476 203.721L602.112 204.533C601.506 204.104 600.768 203.889 599.9 203.889C599.238 203.889 598.738 204.015 598.402 204.267C598.066 204.51 597.898 204.827 597.898 205.219C597.898 205.518 597.992 205.761 598.178 205.947C598.365 206.125 598.598 206.26 598.878 206.353C599.168 206.447 599.555 206.549 600.04 206.661C600.628 206.801 601.104 206.941 601.468 207.081C601.832 207.212 602.14 207.422 602.392 207.711C602.654 208.001 602.784 208.388 602.784 208.873C602.784 209.545 602.514 210.087 601.972 210.497C601.44 210.908 600.689 211.113 599.718 211.113ZM610.617 210.189V211.029H604.863V203.119H610.449V203.959H605.871V206.605H609.959V207.431H605.871V210.189H610.617ZM612.889 211.099C612.683 211.099 612.511 211.029 612.371 210.889C612.231 210.74 612.161 210.567 612.161 210.371C612.161 210.166 612.231 209.998 612.371 209.867C612.511 209.727 612.683 209.657 612.889 209.657C613.103 209.657 613.281 209.727 613.421 209.867C613.561 209.998 613.631 210.166 613.631 210.371C613.631 210.567 613.556 210.74 613.407 210.889C613.267 211.029 613.094 211.099 612.889 211.099Z" fill="black"/>
  <path d="M706.955 10C706.955 4.47715 711.432 0 716.955 0H928.968C934.491 0 938.968 4.47715 938.968 10V143.78C938.968 147.46 940.99 150.843 944.231 152.587L956.05 158.945C963.066 162.72 963.066 172.783 956.05 176.558L944.231 182.917C940.99 184.661 938.968 188.043 938.968 191.723V316.505C938.968 322.028 934.491 326.505 928.968 326.505H716.955C711.432 326.505 706.955 322.028 706.955 316.505V192.266C706.955 188.639 708.919 185.297 712.088 183.531L724.728 176.487C731.572 172.674 731.572 162.83 724.728 159.016L712.087 151.973C708.919 150.207 706.955 146.864 706.955 143.237V10Z" fill="#FEEBB2"/>
  <path d="M812.714 124.213V102.919C812.714 98.9993 809.536 95.8215 805.616 95.8215H798.518C794.598 95.8215 791.42 98.9993 791.42 102.919V124.213C791.42 128.133 794.598 131.311 798.518 131.311H805.616C809.536 131.311 812.714 128.133 812.714 124.213ZM812.714 124.213V88.7235C812.714 84.8034 815.892 81.6256 819.812 81.6256H826.91C830.83 81.6256 834.008 84.8034 834.008 88.7235V124.213M812.714 124.213C812.714 128.133 815.892 131.311 819.812 131.311H826.91C830.83 131.311 834.008 128.133 834.008 124.213M834.008 124.213V74.5276C834.008 70.6075 837.185 67.4297 841.106 67.4297H848.203C852.124 67.4297 855.301 70.6075 855.301 74.5276V124.213C855.301 128.133 852.124 131.311 848.203 131.311H841.106C837.185 131.311 834.008 128.133 834.008 124.213Z" stroke="#111827" stroke-width="3" stroke-linecap="round" stroke-linejoin="round"/>
  <path d="M744.038 191.113C745.48 191.113 746.768 190.623 747.636 189.671L746.978 189.013C746.18 189.839 745.2 190.189 744.08 190.189C741.714 190.189 739.936 188.453 739.936 186.129C739.936 183.805 741.714 182.069 744.08 182.069C745.2 182.069 746.18 182.419 746.978 183.231L747.636 182.573C746.768 181.621 745.48 181.145 744.052 181.145C741.098 181.145 738.914 183.259 738.914 186.129C738.914 188.999 741.098 191.113 744.038 191.113ZM752.916 191.113C755.352 191.113 757.158 189.391 757.158 187.067C757.158 184.757 755.352 183.021 752.916 183.021C750.494 183.021 748.674 184.757 748.674 187.067C748.674 189.391 750.494 191.113 752.916 191.113ZM752.916 190.245C751.068 190.245 749.682 188.901 749.682 187.081C749.682 185.247 751.068 183.903 752.916 183.903C754.764 183.903 756.15 185.247 756.15 187.081C756.15 188.901 754.764 190.245 752.916 190.245ZM761.486 191.113C763.46 191.113 764.552 190.189 764.552 188.873C764.552 185.975 759.666 187.291 759.666 185.219C759.666 184.477 760.268 183.889 761.668 183.889C762.41 183.889 763.208 184.057 763.88 184.533L764.244 183.721C763.586 183.259 762.62 183.021 761.696 183.021C759.736 183.021 758.672 183.973 758.672 185.261C758.672 188.229 763.544 186.871 763.544 188.957C763.544 189.671 762.97 190.259 761.514 190.259C760.45 190.259 759.442 189.867 758.854 189.335L758.434 190.119C759.064 190.707 760.268 191.113 761.486 191.113ZM767.865 191.029H768.873V183.959H771.659V183.119H765.079V183.959H767.865V191.029ZM781.225 191.113C782.667 191.113 783.955 190.623 784.823 189.671L784.165 189.013C783.367 189.839 782.387 190.189 781.267 190.189C778.901 190.189 777.123 188.453 777.123 186.129C777.123 183.805 778.901 182.069 781.267 182.069C782.387 182.069 783.367 182.419 784.165 183.231L784.823 182.573C783.955 181.621 782.667 181.145 781.239 181.145C778.285 181.145 776.101 183.259 776.101 186.129C776.101 188.999 778.285 191.113 781.225 191.113ZM789.935 191.113C792.021 191.113 793.281 189.895 793.281 187.669V183.119H792.301V187.641C792.301 189.377 791.447 190.245 789.935 190.245C788.423 190.245 787.583 189.363 787.583 187.641V183.119H786.575V187.669C786.575 189.895 787.835 191.113 789.935 191.113ZM802.644 191.029L800.712 188.341C801.846 187.949 802.518 187.081 802.518 185.849C802.518 184.113 801.244 183.119 799.214 183.119H796.134V191.029H797.142V188.565H799.214C799.396 188.565 799.578 188.551 799.76 188.537L801.552 191.029H802.644ZM799.158 187.739H797.142V183.959H799.158C800.684 183.959 801.51 184.631 801.51 185.849C801.51 187.053 800.684 187.739 799.158 187.739ZM810.638 183.119L807.642 189.839L804.66 183.119H803.582L807.124 191.029H808.118L811.66 183.119H810.638ZM814.314 190.189V187.431H818.402V186.605H814.314V183.959H818.892V183.119H813.306V191.029H819.06V190.189H814.314ZM823.42 191.113C825.394 191.113 826.486 190.189 826.486 188.873C826.486 185.975 821.6 187.291 821.6 185.219C821.6 184.477 822.202 183.889 823.602 183.889C824.344 183.889 825.142 184.057 825.814 184.533L826.178 183.721C825.52 183.259 824.554 183.021 823.63 183.021C821.67 183.021 820.606 183.973 820.606 185.261C820.606 188.229 825.478 186.871 825.478 188.957C825.478 189.671 824.904 190.259 823.448 190.259C822.384 190.259 821.376 189.867 820.788 189.335L820.368 190.119C820.998 190.707 822.202 191.113 823.42 191.113ZM837.814 183.959V183.119H832.228V191.029H833.236V187.753H837.324V186.899H833.236V183.959H837.814ZM843.109 191.113C845.545 191.113 847.351 189.391 847.351 187.067C847.351 184.757 845.545 183.021 843.109 183.021C840.687 183.021 838.867 184.757 838.867 187.067C838.867 189.391 840.687 191.113 843.109 191.113ZM843.109 190.245C841.261 190.245 839.875 188.901 839.875 187.081C839.875 185.247 841.261 183.903 843.109 183.903C844.957 183.903 846.343 185.247 846.343 187.081C846.343 188.901 844.957 190.245 843.109 190.245ZM856.005 191.029L854.073 188.341C855.207 187.949 855.879 187.081 855.879 185.849C855.879 184.113 854.605 183.119 852.575 183.119H849.495V191.029H850.503V188.565H852.575C852.757 188.565 852.939 188.551 853.121 188.537L854.913 191.029H856.005ZM852.519 187.739H850.503V183.959H852.519C854.045 183.959 854.871 184.631 854.871 185.849C854.871 187.053 854.045 187.739 852.519 187.739ZM862.904 190.189V187.431H866.992V186.605H862.904V183.959H867.482V183.119H861.896V191.029H867.65V190.189H862.904ZM875.677 191.029H876.685L873.031 183.119H872.037L868.383 191.029H869.391L870.315 188.985H874.753L875.677 191.029ZM870.679 188.173L872.541 184.071L874.389 188.173H870.679ZM881.486 191.113C882.746 191.113 883.768 190.735 884.496 189.937L883.852 189.279C883.208 189.951 882.424 190.231 881.514 190.231C879.652 190.231 878.266 188.887 878.266 187.067C878.266 185.247 879.652 183.903 881.514 183.903C882.424 183.903 883.208 184.197 883.852 184.855L884.496 184.197C883.782 183.413 882.746 183.021 881.486 183.021C879.078 183.021 877.258 184.757 877.258 187.067C877.258 189.391 879.078 191.113 881.486 191.113ZM886.478 191.029H887.486V187.445H892.288V191.029H893.296V183.119H892.288V186.591H887.486V183.119H886.478V191.029ZM743.1 211.113C745.536 211.113 747.342 209.391 747.342 207.067C747.342 204.757 745.536 203.021 743.1 203.021C740.678 203.021 738.858 204.757 738.858 207.067C738.858 209.391 740.678 211.113 743.1 211.113ZM743.1 210.245C741.252 210.245 739.866 208.901 739.866 207.081C739.866 205.247 741.252 203.903 743.1 203.903C744.948 203.903 746.334 205.247 746.334 207.081C746.334 208.901 744.948 210.245 743.1 210.245ZM755.072 203.959V203.119H749.486V211.029H750.494V207.753H754.582V206.899H750.494V203.959H755.072ZM762.082 211.029H763.09V203.959H765.876V203.119H759.296V203.959H762.082V211.029ZM767.396 211.029H768.404V207.445H773.206V211.029H774.214V203.119H773.206V206.591H768.404V203.119H767.396V211.029ZM778.166 210.189V207.431H782.254V206.605H778.166V203.959H782.744V203.119H777.158V211.029H782.912V210.189H778.166ZM794.463 211.029H795.667L791.985 206.703L795.429 203.119H794.295L789.759 207.711V203.119H788.751V211.029H789.759V208.957L791.299 207.417L794.463 211.029ZM798.291 210.189V207.431H802.379V206.605H798.291V203.959H802.869V203.119H797.283V211.029H803.037V210.189H798.291ZM811.291 203.119H810.255L807.539 207.487L804.823 203.119H803.745L807.021 208.425V211.029H808.015V208.453L811.291 203.119ZM823.043 211.029L821.111 208.341C822.245 207.949 822.917 207.081 822.917 205.849C822.917 204.113 821.643 203.119 819.613 203.119H816.533V211.029H817.541V208.565H819.613C819.795 208.565 819.977 208.551 820.159 208.537L821.951 211.029H823.043ZM819.557 207.739H817.541V203.959H819.557C821.083 203.959 821.909 204.631 821.909 205.849C821.909 207.053 821.083 207.739 819.557 207.739ZM831.121 211.029H832.129L828.475 203.119H827.481L823.827 211.029H824.835L825.759 208.985H830.197L831.121 211.029ZM826.123 208.173L827.985 204.071L829.833 208.173H826.123ZM843.294 203.119L841.026 209.755L838.744 203.119H837.792L835.482 209.727L833.256 203.119H832.206L834.908 211.029H835.986L838.254 204.505L840.522 211.029H841.572L844.274 203.119H843.294ZM748.112 231.029L748.098 223.119H747.23L743.884 228.789L740.524 223.119H739.656V231.029H740.622V225.023L743.646 230.035H744.108L747.132 224.939V231.029H748.112ZM756.91 231.029H757.918L754.264 223.119H753.27L749.616 231.029H750.624L751.548 228.985H755.986L756.91 231.029ZM751.912 228.173L753.774 224.071L755.622 228.173H751.912ZM760.305 231.029H761.313V223.959H764.099V223.119H757.519V223.959H760.305V231.029ZM766.626 230.189V227.431H770.714V226.605H766.626V223.959H771.204V223.119H765.618V231.029H771.372V230.189H766.626ZM780.058 231.029L778.126 228.341C779.26 227.949 779.932 227.081 779.932 225.849C779.932 224.113 778.658 223.119 776.628 223.119H773.548V231.029H774.556V228.565H776.628C776.81 228.565 776.992 228.551 777.174 228.537L778.966 231.029H780.058ZM776.572 227.739H774.556V223.959H776.572C778.098 223.959 778.924 224.631 778.924 225.849C778.924 227.053 778.098 227.739 776.572 227.739ZM782.284 231.029H783.292V223.119H782.284V231.029ZM792.088 231.029H793.096L789.442 223.119H788.448L784.794 231.029H785.802L786.726 228.985H791.164L792.088 231.029ZM787.09 228.173L788.952 224.071L790.8 228.173H787.09ZM794.603 231.029H800.021V230.189H795.611V223.119H794.603V231.029ZM803.677 231.113C805.651 231.113 806.743 230.189 806.743 228.873C806.743 225.975 801.857 227.291 801.857 225.219C801.857 224.477 802.459 223.889 803.859 223.889C804.601 223.889 805.399 224.057 806.071 224.533L806.435 223.721C805.777 223.259 804.811 223.021 803.887 223.021C801.927 223.021 800.863 223.973 800.863 225.261C800.863 228.229 805.735 226.871 805.735 228.957C805.735 229.671 805.161 230.259 803.705 230.259C802.641 230.259 801.633 229.867 801.045 229.335L800.625 230.119C801.255 230.707 802.459 231.113 803.677 231.113ZM818.338 231.029H819.346L815.692 223.119H814.698L811.044 231.029H812.052L812.976 228.985H817.414L818.338 231.029ZM813.34 228.173L815.202 224.071L817.05 228.173H813.34ZM826.663 223.119V229.293L821.693 223.119H820.853V231.029H821.861V224.855L826.831 231.029H827.671V223.119H826.663ZM830.615 231.029H833.933C836.593 231.029 838.259 229.433 838.259 227.067C838.259 224.715 836.593 223.119 833.933 223.119H830.615V231.029ZM831.623 230.189V223.959H833.891C836.019 223.959 837.251 225.205 837.251 227.067C837.251 228.943 836.019 230.189 833.891 230.189H831.623ZM849.276 226.941C850.004 226.633 850.452 226.031 850.452 225.149C850.452 223.875 849.416 223.119 847.596 223.119H844.068V231.029H847.82C849.85 231.029 850.886 230.259 850.886 228.901C850.886 227.851 850.312 227.179 849.276 226.941ZM847.512 223.903C848.744 223.903 849.458 224.365 849.458 225.261C849.458 226.157 848.744 226.633 847.512 226.633H845.076V223.903H847.512ZM847.778 230.245H845.076V227.417H847.778C849.136 227.417 849.864 227.837 849.864 228.831C849.864 229.797 849.136 230.245 847.778 230.245ZM858.847 231.029H859.855L856.201 223.119H855.207L851.553 231.029H852.561L853.485 228.985H857.923L858.847 231.029ZM853.849 228.173L855.711 224.071L857.559 228.173H853.849ZM862.242 231.029H863.25V223.959H866.036V223.119H859.456V223.959H862.242V231.029ZM869.065 231.029H870.073V223.959H872.859V223.119H866.279V223.959H869.065V231.029ZM875.386 230.189V227.431H879.474V226.605H875.386V223.959H879.964V223.119H874.378V231.029H880.132V230.189H875.386ZM888.818 231.029L886.886 228.341C888.02 227.949 888.692 227.081 888.692 225.849C888.692 224.113 887.418 223.119 885.388 223.119H882.308V231.029H883.316V228.565H885.388C885.57 228.565 885.752 228.551 885.934 228.537L887.726 231.029H888.818ZM885.332 227.739H883.316V223.959H885.332C886.858 223.959 887.684 224.631 887.684 225.849C887.684 227.053 886.858 227.739 885.332 227.739ZM897.096 223.119H896.06L893.344 227.487L890.628 223.119H889.55L892.826 228.425V231.029H893.82V228.453L897.096 223.119ZM743.086 251.113C744.346 251.113 745.368 250.735 746.096 249.937L745.452 249.279C744.808 249.951 744.024 250.231 743.114 250.231C741.252 250.231 739.866 248.887 739.866 247.067C739.866 245.247 741.252 243.903 743.114 243.903C744.024 243.903 744.808 244.197 745.452 244.855L746.096 244.197C745.382 243.413 744.346 243.021 743.086 243.021C740.678 243.021 738.858 244.757 738.858 247.067C738.858 249.391 740.678 251.113 743.086 251.113ZM749.085 250.189V247.431H753.173V246.605H749.085V243.959H753.663V243.119H748.077V251.029H753.831V250.189H749.085ZM756.007 251.029H761.425V250.189H757.015V243.119H756.007V251.029ZM763.007 251.029H768.425V250.189H764.015V243.119H763.007V251.029ZM772.082 251.113C774.056 251.113 775.148 250.189 775.148 248.873C775.148 245.975 770.262 247.291 770.262 245.219C770.262 244.477 770.864 243.889 772.264 243.889C773.006 243.889 773.804 244.057 774.476 244.533L774.84 243.721C774.182 243.259 773.216 243.021 772.292 243.021C770.332 243.021 769.268 243.973 769.268 245.261C769.268 248.229 774.14 246.871 774.14 248.957C774.14 249.671 773.566 250.259 772.11 250.259C771.046 250.259 770.038 249.867 769.45 249.335L769.03 250.119C769.66 250.707 770.864 251.113 772.082 251.113ZM777.391 249.573C776.971 249.573 776.649 249.895 776.649 250.329C776.649 250.693 776.859 250.959 777.153 251.043L776.677 253.073H777.349L777.937 251.141C778.077 250.749 778.133 250.567 778.133 250.329C778.133 249.909 777.825 249.573 777.391 249.573ZM787.269 251.113C789.355 251.113 790.615 249.895 790.615 247.669V243.119H789.635V247.641C789.635 249.377 788.781 250.245 787.269 250.245C785.757 250.245 784.917 249.363 784.917 247.641V243.119H783.909V247.669C783.909 249.895 785.169 251.113 787.269 251.113ZM796.548 243.119H793.468V251.029H794.476V248.579H796.548C798.578 248.579 799.852 247.571 799.852 245.849C799.852 244.113 798.578 243.119 796.548 243.119ZM796.492 247.739H794.476V243.959H796.492C798.018 243.959 798.844 244.631 798.844 245.849C798.844 247.053 798.018 247.739 796.492 247.739ZM802.109 251.029H805.427C808.087 251.029 809.753 249.433 809.753 247.067C809.753 244.715 808.087 243.119 805.427 243.119H802.109V251.029ZM803.117 250.189V243.959H805.385C807.513 243.959 808.745 245.205 808.745 247.067C808.745 248.943 807.513 250.189 805.385 250.189H803.117ZM817.613 251.029H818.621L814.967 243.119H813.973L810.319 251.029H811.327L812.251 248.985H816.689L817.613 251.029ZM812.615 248.173L814.477 244.071L816.325 248.173H812.615ZM821.008 251.029H822.016V243.959H824.802V243.119H818.222V243.959H821.008V251.029ZM827.33 250.189V247.431H831.418V246.605H827.33V243.959H831.908V243.119H826.322V251.029H832.076V250.189H827.33ZM834.251 251.029H837.569C840.229 251.029 841.895 249.433 841.895 247.067C841.895 244.715 840.229 243.119 837.569 243.119H834.251V251.029ZM835.259 250.189V243.959H837.527C839.655 243.959 840.887 245.205 840.887 247.067C840.887 248.943 839.655 250.189 837.527 250.189H835.259ZM848.712 250.189V247.431H852.8V246.605H848.712V243.959H853.29V243.119H847.704V251.029H853.458V250.189H848.712ZM861.486 251.029H862.494L858.84 243.119H857.846L854.192 251.029H855.2L856.124 248.985H860.562L861.486 251.029ZM856.488 248.173L858.35 244.071L860.198 248.173H856.488ZM867.295 251.113C868.555 251.113 869.577 250.735 870.305 249.937L869.661 249.279C869.017 249.951 868.233 250.231 867.323 250.231C865.461 250.231 864.075 248.887 864.075 247.067C864.075 245.247 865.461 243.903 867.323 243.903C868.233 243.903 869.017 244.197 869.661 244.855L870.305 244.197C869.591 243.413 868.555 243.021 867.295 243.021C864.887 243.021 863.067 244.757 863.067 247.067C863.067 249.391 864.887 251.113 867.295 251.113ZM872.286 251.029H873.294V247.445H878.096V251.029H879.104V243.119H878.096V246.591H873.294V243.119H872.286V251.029ZM747.244 271.169C746.838 271.617 746.334 271.841 745.774 271.841C745.2 271.841 744.696 271.603 744.136 271.001C746.026 270.595 747.342 269.041 747.342 267.067C747.342 264.757 745.536 263.021 743.1 263.021C740.678 263.021 738.858 264.757 738.858 267.067C738.858 269.321 740.58 271.015 742.89 271.113C743.968 272.219 744.78 272.639 745.76 272.639C746.558 272.639 747.23 272.345 747.734 271.757L747.244 271.169ZM739.866 267.081C739.866 265.247 741.252 263.903 743.1 263.903C744.948 263.903 746.334 265.247 746.334 267.081C746.334 268.901 744.948 270.245 743.1 270.245C741.252 270.245 739.866 268.901 739.866 267.081ZM752.762 271.113C754.848 271.113 756.108 269.895 756.108 267.669V263.119H755.128V267.641C755.128 269.377 754.274 270.245 752.762 270.245C751.25 270.245 750.41 269.363 750.41 267.641V263.119H749.402V267.669C749.402 269.895 750.662 271.113 752.762 271.113ZM764.607 271.029H765.615L761.961 263.119H760.967L757.313 271.029H758.321L759.245 268.985H763.683L764.607 271.029ZM759.609 268.173L761.471 264.071L763.319 268.173H759.609ZM773.632 271.029L771.7 268.341C772.834 267.949 773.506 267.081 773.506 265.849C773.506 264.113 772.232 263.119 770.202 263.119H767.122V271.029H768.13V268.565H770.202C770.384 268.565 770.566 268.551 770.748 268.537L772.54 271.029H773.632ZM770.146 267.739H768.13V263.959H770.146C771.672 263.959 772.498 264.631 772.498 265.849C772.498 267.053 771.672 267.739 770.146 267.739ZM777.094 271.029H778.102V263.959H780.888V263.119H774.308V263.959H777.094V271.029ZM783.416 270.189V267.431H787.504V266.605H783.416V263.959H787.994V263.119H782.408V271.029H788.162V270.189H783.416ZM796.847 271.029L794.915 268.341C796.049 267.949 796.721 267.081 796.721 265.849C796.721 264.113 795.447 263.119 793.417 263.119H790.337V271.029H791.345V268.565H793.417C793.599 268.565 793.781 268.551 793.963 268.537L795.755 271.029H796.847ZM793.361 267.739H791.345V263.959H793.361C794.887 263.959 795.713 264.631 795.713 265.849C795.713 267.053 794.887 267.739 793.361 267.739ZM799.102 271.099C799.522 271.099 799.844 270.763 799.844 270.371C799.844 269.965 799.522 269.657 799.102 269.657C798.696 269.657 798.374 269.965 798.374 270.371C798.374 270.763 798.696 271.099 799.102 271.099Z" fill="black"/>
  <path d="M942.607 10C942.607 4.47715 947.085 0 952.607 0H1164C1169.52 0 1174 4.47715 1174 10V149.755V167.752V185.748V316.505C1174 322.028 1169.52 326.505 1164 326.505H952.607C947.085 326.505 942.607 322.028 942.607 316.505V192.259C942.607 188.636 944.567 185.296 947.73 183.529L960.343 176.482C967.173 172.666 967.173 162.838 960.343 159.022L947.73 151.975C944.567 150.208 942.607 146.868 942.607 143.245V10Z" fill="#FFF7E0"/>
  <path d="M1048.37 62.1074H1069.66" stroke="#071830" stroke-width="3" stroke-linecap="round" stroke-linejoin="round"/>
  <path d="M1077.65 72.7539H1040.38C1037.44 72.7539 1035.06 75.1373 1035.06 78.0774V128.65C1035.06 131.59 1037.44 133.974 1040.38 133.974H1077.65C1080.59 133.974 1082.97 131.59 1082.97 128.65V78.0774C1082.97 75.1373 1080.59 72.7539 1077.65 72.7539Z" stroke="#071830" stroke-width="3" stroke-linecap="round" stroke-linejoin="round"/>
  <path d="M1059.01 116.672L1064.34 103.363H1053.69L1059.01 90.0547" stroke="#071830" stroke-width="3" stroke-linecap="round" stroke-linejoin="round"/>
  <path d="M982.337 186.129H983.331V189.867C982.874 190.269 982.332 190.577 981.707 190.791C981.082 191.006 980.424 191.113 979.733 191.113C978.753 191.113 977.871 190.899 977.087 190.469C976.303 190.04 975.687 189.447 975.239 188.691C974.791 187.926 974.567 187.072 974.567 186.129C974.567 185.187 974.791 184.337 975.239 183.581C975.687 182.816 976.303 182.219 977.087 181.789C977.871 181.36 978.758 181.145 979.747 181.145C980.494 181.145 981.18 181.267 981.805 181.509C982.43 181.743 982.958 182.093 983.387 182.559L982.743 183.217C981.968 182.452 980.984 182.069 979.789 182.069C978.996 182.069 978.277 182.247 977.633 182.601C976.998 182.947 976.499 183.432 976.135 184.057C975.771 184.673 975.589 185.364 975.589 186.129C975.589 186.895 975.771 187.585 976.135 188.201C976.499 188.817 976.998 189.303 977.633 189.657C978.268 190.012 978.982 190.189 979.775 190.189C980.783 190.189 981.637 189.937 982.337 189.433V186.129ZM986.137 183.119H987.145V190.189H991.555V191.029H986.137V183.119ZM996.39 191.113C995.596 191.113 994.873 190.941 994.22 190.595C993.576 190.241 993.067 189.755 992.694 189.139C992.33 188.523 992.148 187.833 992.148 187.067C992.148 186.311 992.33 185.625 992.694 185.009C993.067 184.393 993.576 183.908 994.22 183.553C994.873 183.199 995.596 183.021 996.39 183.021C997.192 183.021 997.916 183.199 998.56 183.553C999.204 183.899 999.708 184.384 1000.07 185.009C1000.44 185.625 1000.63 186.311 1000.63 187.067C1000.63 187.833 1000.44 188.523 1000.07 189.139C999.708 189.755 999.204 190.241 998.56 190.595C997.916 190.941 997.192 191.113 996.39 191.113ZM996.39 190.245C996.996 190.245 997.547 190.11 998.042 189.839C998.536 189.559 998.924 189.181 999.204 188.705C999.484 188.22 999.624 187.679 999.624 187.081C999.624 186.475 999.484 185.933 999.204 185.457C998.924 184.972 998.536 184.594 998.042 184.323C997.547 184.043 996.996 183.903 996.39 183.903C995.783 183.903 995.232 184.043 994.738 184.323C994.243 184.594 993.856 184.972 993.576 185.457C993.296 185.933 993.156 186.475 993.156 187.081C993.156 187.679 993.296 188.22 993.576 188.705C993.856 189.181 994.243 189.559 994.738 189.839C995.232 190.11 995.783 190.245 996.39 190.245ZM1007.98 186.941C1008.51 187.063 1008.9 187.291 1009.17 187.627C1009.45 187.954 1009.59 188.379 1009.59 188.901C1009.59 189.583 1009.33 190.11 1008.81 190.483C1008.3 190.847 1007.54 191.029 1006.53 191.029H1002.78V183.119H1006.3C1007.21 183.119 1007.91 183.297 1008.4 183.651C1008.91 184.006 1009.16 184.505 1009.16 185.149C1009.16 185.579 1009.06 185.947 1008.85 186.255C1008.65 186.554 1008.36 186.783 1007.98 186.941ZM1003.78 183.903V186.633H1006.22C1006.84 186.633 1007.33 186.517 1007.66 186.283C1008 186.05 1008.17 185.709 1008.17 185.261C1008.17 184.813 1008 184.477 1007.66 184.253C1007.33 184.02 1006.84 183.903 1006.22 183.903H1003.78ZM1006.49 190.245C1007.88 190.245 1008.57 189.774 1008.57 188.831C1008.57 188.346 1008.39 187.991 1008.04 187.767C1007.69 187.534 1007.18 187.417 1006.49 187.417H1003.78V190.245H1006.49ZM1016.63 188.985H1012.19L1011.27 191.029H1010.26L1013.92 183.119H1014.91L1018.56 191.029H1017.56L1016.63 188.985ZM1016.27 188.173L1014.42 184.071L1012.56 188.173H1016.27ZM1020.07 183.119H1021.08V190.189H1025.49V191.029H1020.07V183.119ZM1030.73 183.119H1031.74V190.189H1036.15V191.029H1030.73V183.119ZM1037.73 183.119H1038.74V191.029H1037.73V183.119ZM1043.06 183.959H1040.27V183.119H1046.85V183.959H1044.07V191.029H1043.06V183.959ZM1048.37 183.119H1049.38V186.591H1054.18V183.119H1055.19V191.029H1054.18V187.445H1049.38V191.029H1048.37V183.119ZM1058.13 183.119H1059.14V191.029H1058.13V183.119ZM1065.36 191.113C1064.31 191.113 1063.48 190.815 1062.88 190.217C1062.29 189.62 1062 188.771 1062 187.669V183.119H1063.01V187.641C1063.01 188.5 1063.21 189.149 1063.61 189.587C1064.01 190.026 1064.59 190.245 1065.36 190.245C1066.13 190.245 1066.71 190.026 1067.11 189.587C1067.52 189.149 1067.73 188.5 1067.73 187.641V183.119H1068.71V187.669C1068.71 188.771 1068.41 189.62 1067.82 190.217C1067.24 190.815 1066.41 191.113 1065.36 191.113ZM1079.03 191.029V184.939L1076.01 190.035H1075.55L1072.52 185.023V191.029H1071.56V183.119H1072.43L1075.79 188.789L1079.13 183.119H1080L1080.01 191.029H1079.03ZM1086.63 183.119H1087.63V191.029H1086.63V183.119ZM1094.02 191.113C1093.23 191.113 1092.5 190.941 1091.85 190.595C1091.21 190.241 1090.7 189.755 1090.32 189.139C1089.96 188.523 1089.78 187.833 1089.78 187.067C1089.78 186.311 1089.96 185.625 1090.32 185.009C1090.7 184.393 1091.21 183.908 1091.85 183.553C1092.5 183.199 1093.23 183.021 1094.02 183.021C1094.82 183.021 1095.55 183.199 1096.19 183.553C1096.83 183.899 1097.34 184.384 1097.7 185.009C1098.08 185.625 1098.26 186.311 1098.26 187.067C1098.26 187.833 1098.08 188.523 1097.7 189.139C1097.34 189.755 1096.83 190.241 1096.19 190.595C1095.55 190.941 1094.82 191.113 1094.02 191.113ZM1094.02 190.245C1094.63 190.245 1095.18 190.11 1095.67 189.839C1096.17 189.559 1096.55 189.181 1096.83 188.705C1097.11 188.22 1097.25 187.679 1097.25 187.081C1097.25 186.475 1097.11 185.933 1096.83 185.457C1096.55 184.972 1096.17 184.594 1095.67 184.323C1095.18 184.043 1094.63 183.903 1094.02 183.903C1093.41 183.903 1092.86 184.043 1092.37 184.323C1091.87 184.594 1091.49 184.972 1091.21 185.457C1090.93 185.933 1090.79 186.475 1090.79 187.081C1090.79 187.679 1090.93 188.22 1091.21 188.705C1091.49 189.181 1091.87 189.559 1092.37 189.839C1092.86 190.11 1093.41 190.245 1094.02 190.245ZM1107.22 183.119V191.029H1106.38L1101.41 184.855V191.029H1100.41V183.119H1101.25L1106.22 189.293V183.119H1107.22ZM980.517 206.941C981.04 207.063 981.436 207.291 981.707 207.627C981.987 207.954 982.127 208.379 982.127 208.901C982.127 209.583 981.866 210.11 981.343 210.483C980.83 210.847 980.069 211.029 979.061 211.029H975.309V203.119H978.837C979.742 203.119 980.442 203.297 980.937 203.651C981.441 204.006 981.693 204.505 981.693 205.149C981.693 205.579 981.59 205.947 981.385 206.255C981.18 206.554 980.89 206.783 980.517 206.941ZM976.317 203.903V206.633H978.753C979.378 206.633 979.859 206.517 980.195 206.283C980.531 206.05 980.699 205.709 980.699 205.261C980.699 204.813 980.531 204.477 980.195 204.253C979.859 204.02 979.378 203.903 978.753 203.903H976.317ZM979.019 210.245C980.41 210.245 981.105 209.774 981.105 208.831C981.105 208.346 980.928 207.991 980.573 207.767C980.228 207.534 979.71 207.417 979.019 207.417H976.317V210.245H979.019ZM989.165 208.985H984.727L983.803 211.029H982.795L986.449 203.119H987.443L991.097 211.029H990.089L989.165 208.985ZM988.801 208.173L986.953 204.071L985.091 208.173H988.801ZM993.484 203.959H990.698V203.119H997.278V203.959H994.492V211.029H993.484V203.959ZM1000.31 203.959H997.52V203.119H1004.1V203.959H1001.31V211.029H1000.31V203.959ZM1011.37 210.189V211.029H1005.62V203.119H1011.21V203.959H1006.63V206.605H1010.72V207.431H1006.63V210.189H1011.37ZM1018.97 211.029L1017.18 208.537C1016.93 208.556 1016.75 208.565 1016.63 208.565H1014.56V211.029H1013.55V203.119H1016.63C1017.66 203.119 1018.46 203.362 1019.05 203.847C1019.64 204.323 1019.93 204.991 1019.93 205.849C1019.93 206.456 1019.77 206.974 1019.46 207.403C1019.15 207.833 1018.71 208.145 1018.13 208.341L1020.06 211.029H1018.97ZM1016.57 207.739C1017.33 207.739 1017.91 207.576 1018.31 207.249C1018.72 206.923 1018.93 206.456 1018.93 205.849C1018.93 205.243 1018.72 204.776 1018.32 204.449C1017.92 204.123 1017.34 203.959 1016.57 203.959H1014.56V207.739H1016.57ZM1025.06 208.453V211.029H1024.07V208.425L1020.79 203.119H1021.87L1024.58 207.487L1027.3 203.119H1028.34L1025.06 208.453ZM1037.01 211.113C1036.22 211.113 1035.5 210.941 1034.85 210.595C1034.21 210.241 1033.7 209.755 1033.33 209.139C1032.96 208.523 1032.78 207.833 1032.78 207.067C1032.78 206.311 1032.96 205.625 1033.33 205.009C1033.7 204.393 1034.21 203.908 1034.85 203.553C1035.5 203.199 1036.22 203.021 1037.01 203.021C1038.31 203.021 1039.31 203.413 1040.02 204.197L1039.37 204.855C1038.75 204.221 1037.97 203.903 1037.04 203.903C1036.42 203.903 1035.87 204.043 1035.37 204.323C1034.88 204.594 1034.49 204.972 1034.21 205.457C1033.93 205.933 1033.79 206.47 1033.79 207.067C1033.79 207.665 1033.93 208.206 1034.21 208.691C1034.49 209.167 1034.88 209.545 1035.37 209.825C1035.87 210.096 1036.42 210.231 1037.04 210.231C1037.99 210.231 1038.77 209.914 1039.37 209.279L1040.02 209.937C1039.3 210.721 1038.3 211.113 1037.01 211.113ZM1046.68 208.985H1042.24L1041.32 211.029H1040.31L1043.97 203.119H1044.96L1048.61 211.029H1047.61L1046.68 208.985ZM1046.32 208.173L1044.47 204.071L1042.61 208.173H1046.32ZM1053.2 203.119C1054.23 203.119 1055.04 203.362 1055.62 203.847C1056.21 204.323 1056.51 204.991 1056.51 205.849C1056.51 206.708 1056.21 207.38 1055.61 207.865C1055.02 208.341 1054.22 208.579 1053.2 208.579H1051.13V211.029H1050.12V203.119H1053.2ZM1053.15 207.739C1053.9 207.739 1054.48 207.576 1054.88 207.249C1055.29 206.923 1055.5 206.456 1055.5 205.849C1055.5 205.243 1055.3 204.776 1054.9 204.449C1054.49 204.123 1053.91 203.959 1053.15 203.959H1051.13V207.739H1053.15ZM1063.06 208.985H1058.62L1057.7 211.029H1056.69L1060.35 203.119H1061.34L1064.99 211.029H1063.99L1063.06 208.985ZM1062.7 208.173L1060.85 204.071L1058.99 208.173H1062.7ZM1069.79 211.113C1069 211.113 1068.28 210.941 1067.64 210.595C1066.99 210.241 1066.48 209.755 1066.11 209.139C1065.75 208.523 1065.57 207.833 1065.57 207.067C1065.57 206.311 1065.75 205.625 1066.11 205.009C1066.48 204.393 1066.99 203.908 1067.64 203.553C1068.28 203.199 1069 203.021 1069.79 203.021C1071.09 203.021 1072.09 203.413 1072.8 204.197L1072.16 204.855C1071.53 204.221 1070.75 203.903 1069.82 203.903C1069.21 203.903 1068.65 204.043 1068.16 204.323C1067.66 204.594 1067.27 204.972 1066.99 205.457C1066.71 205.933 1066.57 206.47 1066.57 207.067C1066.57 207.665 1066.71 208.206 1066.99 208.691C1067.27 209.167 1067.66 209.545 1068.16 209.825C1068.65 210.096 1069.21 210.231 1069.82 210.231C1070.77 210.231 1071.55 209.914 1072.16 209.279L1072.8 209.937C1072.08 210.721 1071.08 211.113 1069.79 211.113ZM1074.79 203.119H1075.79V211.029H1074.79V203.119ZM1080.11 203.959H1077.32V203.119H1083.9V203.959H1081.12V211.029H1080.11V203.959ZM1088.27 208.453V211.029H1087.27V208.425L1084 203.119H1085.07L1087.79 207.487L1090.51 203.119H1091.54L1088.27 208.453ZM1101.99 206.941C1102.51 207.063 1102.91 207.291 1103.18 207.627C1103.46 207.954 1103.6 208.379 1103.6 208.901C1103.6 209.583 1103.34 210.11 1102.82 210.483C1102.3 210.847 1101.54 211.029 1100.54 211.029H1096.78V203.119H1100.31C1101.22 203.119 1101.92 203.297 1102.41 203.651C1102.92 204.006 1103.17 204.505 1103.17 205.149C1103.17 205.579 1103.06 205.947 1102.86 206.255C1102.65 206.554 1102.36 206.783 1101.99 206.941ZM1097.79 203.903V206.633H1100.23C1100.85 206.633 1101.33 206.517 1101.67 206.283C1102.01 206.05 1102.17 205.709 1102.17 205.261C1102.17 204.813 1102.01 204.477 1101.67 204.253C1101.33 204.02 1100.85 203.903 1100.23 203.903H1097.79ZM1100.49 210.245C1101.88 210.245 1102.58 209.774 1102.58 208.831C1102.58 208.346 1102.4 207.991 1102.05 207.767C1101.7 207.534 1101.18 207.417 1100.49 207.417H1097.79V210.245H1100.49ZM1108.42 208.453V211.029H1107.42V208.425L1104.15 203.119H1105.23L1107.94 207.487L1110.66 203.119H1111.69L1108.42 208.453ZM978.389 223.119C979.416 223.119 980.223 223.362 980.811 223.847C981.399 224.323 981.693 224.991 981.693 225.849C981.693 226.708 981.394 227.38 980.797 227.865C980.209 228.341 979.406 228.579 978.389 228.579H976.317V231.029H975.309V223.119H978.389ZM978.333 227.739C979.089 227.739 979.668 227.576 980.069 227.249C980.48 226.923 980.685 226.456 980.685 225.849C980.685 225.243 980.484 224.776 980.083 224.449C979.682 224.123 979.098 223.959 978.333 223.959H976.317V227.739H978.333ZM983.949 223.119H984.957V230.189H989.367V231.029H983.949V223.119ZM995.905 228.985H991.467L990.543 231.029H989.535L993.189 223.119H994.183L997.837 231.029H996.829L995.905 228.985ZM995.541 228.173L993.693 224.071L991.831 228.173H995.541ZM1006.16 223.119V231.029H1005.32L1000.35 224.855V231.029H999.344V223.119H1000.18L1005.15 229.293V223.119H1006.16ZM1010.48 223.959H1007.69V223.119H1014.27V223.959H1011.49V231.029H1010.48V223.959ZM1015.63 229.573C1015.84 229.573 1016.02 229.648 1016.16 229.797C1016.3 229.937 1016.37 230.115 1016.37 230.329C1016.37 230.441 1016.35 230.563 1016.31 230.693C1016.29 230.824 1016.24 230.973 1016.17 231.141L1015.59 233.073H1014.91L1015.39 231.043C1015.24 230.997 1015.12 230.913 1015.03 230.791C1014.93 230.661 1014.89 230.507 1014.89 230.329C1014.89 230.115 1014.96 229.937 1015.1 229.797C1015.24 229.648 1015.41 229.573 1015.63 229.573ZM1025.66 231.113C1024.87 231.113 1024.15 230.941 1023.5 230.595C1022.86 230.241 1022.35 229.755 1021.98 229.139C1021.61 228.523 1021.43 227.833 1021.43 227.067C1021.43 226.311 1021.61 225.625 1021.98 225.009C1022.35 224.393 1022.86 223.908 1023.5 223.553C1024.15 223.199 1024.87 223.021 1025.66 223.021C1026.96 223.021 1027.96 223.413 1028.67 224.197L1028.03 224.855C1027.4 224.221 1026.62 223.903 1025.69 223.903C1025.07 223.903 1024.52 224.043 1024.02 224.323C1023.53 224.594 1023.14 224.972 1022.86 225.457C1022.58 225.933 1022.44 226.47 1022.44 227.067C1022.44 227.665 1022.58 228.206 1022.86 228.691C1023.14 229.167 1023.53 229.545 1024.02 229.825C1024.52 230.096 1025.07 230.231 1025.69 230.231C1026.64 230.231 1027.42 229.914 1028.03 229.279L1028.67 229.937C1027.95 230.721 1026.95 231.113 1025.66 231.113ZM1030.65 223.119H1031.66V226.591H1036.46V223.119H1037.47V231.029H1036.46V227.445H1031.66V231.029H1030.65V223.119ZM1046.17 230.189V231.029H1040.41V223.119H1046V223.959H1041.42V226.605H1045.51V227.431H1041.42V230.189H1046.17ZM1055.82 231.029V224.939L1052.8 230.035H1052.33L1049.31 225.023V231.029H1048.34V223.119H1049.21L1052.57 228.789L1055.92 223.119H1056.79L1056.8 231.029H1055.82ZM1059.75 223.119H1060.75V231.029H1059.75V223.119ZM1065.88 231.113C1065.27 231.113 1064.69 231.025 1064.13 230.847C1063.58 230.661 1063.15 230.418 1062.83 230.119L1063.25 229.335C1063.55 229.606 1063.94 229.83 1064.41 230.007C1064.9 230.175 1065.4 230.259 1065.91 230.259C1066.6 230.259 1067.11 230.138 1067.44 229.895C1067.77 229.653 1067.94 229.34 1067.94 228.957C1067.94 228.659 1067.85 228.421 1067.66 228.243C1067.47 228.057 1067.24 227.917 1066.96 227.823C1066.68 227.73 1066.3 227.627 1065.83 227.515C1065.23 227.375 1064.75 227.235 1064.38 227.095C1064.02 226.955 1063.71 226.741 1063.45 226.451C1063.19 226.153 1063.07 225.756 1063.07 225.261C1063.07 224.599 1063.33 224.062 1063.87 223.651C1064.4 223.231 1065.14 223.021 1066.09 223.021C1066.57 223.021 1067.03 223.082 1067.48 223.203C1067.93 223.325 1068.32 223.497 1068.64 223.721L1068.28 224.533C1067.67 224.104 1066.93 223.889 1066.06 223.889C1065.4 223.889 1064.9 224.015 1064.57 224.267C1064.23 224.51 1064.06 224.827 1064.06 225.219C1064.06 225.518 1064.15 225.761 1064.34 225.947C1064.53 226.125 1064.76 226.26 1065.04 226.353C1065.33 226.447 1065.72 226.549 1066.2 226.661C1066.79 226.801 1067.27 226.941 1067.63 227.081C1068 227.212 1068.3 227.422 1068.56 227.711C1068.82 228.001 1068.95 228.388 1068.95 228.873C1068.95 229.545 1068.68 230.087 1068.14 230.497C1067.6 230.908 1066.85 231.113 1065.88 231.113ZM1072.26 223.959H1069.47V223.119H1076.05V223.959H1073.27V231.029H1072.26V223.959ZM1082.99 231.029L1081.2 228.537C1080.96 228.556 1080.78 228.565 1080.65 228.565H1078.58V231.029H1077.57V223.119H1080.65C1081.68 223.119 1082.49 223.362 1083.08 223.847C1083.66 224.323 1083.96 224.991 1083.96 225.849C1083.96 226.456 1083.8 226.974 1083.48 227.403C1083.17 227.833 1082.73 228.145 1082.15 228.341L1084.08 231.029H1082.99ZM1080.6 227.739C1081.35 227.739 1081.93 227.576 1082.33 227.249C1082.75 226.923 1082.95 226.456 1082.95 225.849C1082.95 225.243 1082.75 224.776 1082.35 224.449C1081.95 224.123 1081.36 223.959 1080.6 223.959H1078.58V227.739H1080.6ZM1089.09 228.453V231.029H1088.09V228.425L1084.82 223.119H1085.89L1088.61 227.487L1091.33 223.119H1092.36L1089.09 228.453ZM1093.6 229.573C1093.81 229.573 1093.99 229.648 1094.13 229.797C1094.27 229.937 1094.34 230.115 1094.34 230.329C1094.34 230.441 1094.32 230.563 1094.28 230.693C1094.26 230.824 1094.21 230.973 1094.14 231.141L1093.56 233.073H1092.88L1093.36 231.043C1093.21 230.997 1093.09 230.913 1093 230.791C1092.9 230.661 1092.86 230.507 1092.86 230.329C1092.86 230.115 1092.93 229.937 1093.07 229.797C1093.21 229.648 1093.38 229.573 1093.6 229.573ZM976.317 243.959V246.899H980.405V247.753H976.317V251.029H975.309V243.119H980.895V243.959H976.317ZM986.19 251.113C985.397 251.113 984.674 250.941 984.02 250.595C983.376 250.241 982.868 249.755 982.494 249.139C982.13 248.523 981.948 247.833 981.948 247.067C981.948 246.311 982.13 245.625 982.494 245.009C982.868 244.393 983.376 243.908 984.02 243.553C984.674 243.199 985.397 243.021 986.19 243.021C986.993 243.021 987.716 243.199 988.36 243.553C989.004 243.899 989.508 244.384 989.872 245.009C990.246 245.625 990.432 246.311 990.432 247.067C990.432 247.833 990.246 248.523 989.872 249.139C989.508 249.755 989.004 250.241 988.36 250.595C987.716 250.941 986.993 251.113 986.19 251.113ZM986.19 250.245C986.797 250.245 987.348 250.11 987.842 249.839C988.337 249.559 988.724 249.181 989.004 248.705C989.284 248.22 989.424 247.679 989.424 247.081C989.424 246.475 989.284 245.933 989.004 245.457C988.724 244.972 988.337 244.594 987.842 244.323C987.348 244.043 986.797 243.903 986.19 243.903C985.584 243.903 985.033 244.043 984.538 244.323C984.044 244.594 983.656 244.972 983.376 245.457C983.096 245.933 982.956 246.475 982.956 247.081C982.956 247.679 983.096 248.22 983.376 248.705C983.656 249.181 984.044 249.559 984.538 249.839C985.033 250.11 985.584 250.245 986.19 250.245ZM997.994 251.029L996.202 248.537C995.96 248.556 995.778 248.565 995.656 248.565H993.584V251.029H992.576V243.119H995.656C996.683 243.119 997.49 243.362 998.078 243.847C998.666 244.323 998.96 244.991 998.96 245.849C998.96 246.456 998.802 246.974 998.484 247.403C998.176 247.833 997.733 248.145 997.154 248.341L999.086 251.029H997.994ZM995.6 247.739C996.356 247.739 996.935 247.576 997.336 247.249C997.747 246.923 997.952 246.456 997.952 245.849C997.952 245.243 997.752 244.776 997.35 244.449C996.949 244.123 996.366 243.959 995.6 243.959H993.584V247.739H995.6ZM1008.79 251.029V244.939L1005.76 250.035H1005.3L1002.28 245.023V251.029H1001.31V243.119H1002.18L1005.54 248.789L1008.89 243.119H1009.75L1009.77 251.029H1008.79ZM1017.64 248.985H1013.21L1012.28 251.029H1011.27L1014.93 243.119H1015.92L1019.58 251.029H1018.57L1017.64 248.985ZM1017.28 248.173L1015.43 244.071L1013.57 248.173H1017.28ZM1021.96 243.959H1019.18V243.119H1025.76V243.959H1022.97V251.029H1021.96V243.959ZM1035.87 248.985H1031.43L1030.51 251.029H1029.5L1033.15 243.119H1034.15L1037.8 251.029H1036.79L1035.87 248.985ZM1035.5 248.173L1033.66 244.071L1031.79 248.173H1035.5ZM1046.12 243.119V251.029H1045.28L1040.31 244.855V251.029H1039.31V243.119H1040.15L1045.12 249.293V243.119H1046.12ZM1049.07 243.119H1052.39C1053.26 243.119 1054.03 243.287 1054.68 243.623C1055.34 243.95 1055.84 244.412 1056.18 245.009C1056.54 245.597 1056.71 246.283 1056.71 247.067C1056.71 247.851 1056.54 248.542 1056.18 249.139C1055.84 249.737 1055.34 250.203 1054.68 250.539C1054.03 250.866 1053.26 251.029 1052.39 251.029H1049.07V243.119ZM1052.34 250.189C1053.4 250.189 1054.22 249.909 1054.81 249.349C1055.41 248.78 1055.7 248.019 1055.7 247.067C1055.7 246.125 1055.41 245.373 1054.81 244.813C1054.22 244.244 1053.4 243.959 1052.34 243.959H1050.08V250.189H1052.34ZM1064.71 251.113C1064.1 251.113 1063.52 251.025 1062.96 250.847C1062.41 250.661 1061.97 250.418 1061.65 250.119L1062.07 249.335C1062.37 249.606 1062.76 249.83 1063.24 250.007C1063.72 250.175 1064.22 250.259 1064.73 250.259C1065.42 250.259 1065.93 250.138 1066.26 249.895C1066.6 249.653 1066.76 249.34 1066.76 248.957C1066.76 248.659 1066.67 248.421 1066.48 248.243C1066.3 248.057 1066.06 247.917 1065.78 247.823C1065.5 247.73 1065.13 247.627 1064.65 247.515C1064.05 247.375 1063.57 247.235 1063.21 247.095C1062.84 246.955 1062.53 246.741 1062.27 246.451C1062.02 246.153 1061.89 245.756 1061.89 245.261C1061.89 244.599 1062.16 244.062 1062.69 243.651C1063.22 243.231 1063.96 243.021 1064.92 243.021C1065.39 243.021 1065.85 243.082 1066.3 243.203C1066.76 243.325 1067.15 243.497 1067.46 243.721L1067.1 244.533C1066.49 244.104 1065.76 243.889 1064.89 243.889C1064.23 243.889 1063.73 244.015 1063.39 244.267C1063.05 244.51 1062.89 244.827 1062.89 245.219C1062.89 245.518 1062.98 245.761 1063.17 245.947C1063.35 246.125 1063.59 246.26 1063.87 246.353C1064.16 246.447 1064.54 246.549 1065.03 246.661C1065.62 246.801 1066.09 246.941 1066.46 247.081C1066.82 247.212 1067.13 247.422 1067.38 247.711C1067.64 248.001 1067.77 248.388 1067.77 248.873C1067.77 249.545 1067.5 250.087 1066.96 250.497C1066.43 250.908 1065.68 251.113 1064.71 251.113ZM1069.85 243.119H1070.86V251.029H1069.85V243.119ZM1079.58 250.189V251.029H1072.93V250.357L1078.13 243.959H1073.02V243.119H1079.44V243.791L1074.25 250.189H1079.58ZM1087.2 250.189V251.029H1081.44V243.119H1087.03V243.959H1082.45V246.605H1086.54V247.431H1082.45V250.189H1087.2Z" fill="black"/>
</svg>
