<svg viewBox="0 0 232 153" fill="none" xmlns="http://www.w3.org/2000/svg">
  <path fill-rule="evenodd" clip-rule="evenodd" d="M42.9668 10.8316C42.9668 6.98852 46.0823 3.87305 49.9254 3.87305H103.873C107.716 3.87305 110.831 6.98852 110.831 10.8316V64.6947C110.831 68.5379 107.716 71.6533 103.873 71.6533H49.9254C46.0823 71.6533 42.9668 68.5379 42.9668 64.6947V10.8316Z" stroke="currentColor" stroke-width="6.07423"/>
  <path d="M62.5988 48.9272V23.4155H68.503V44.1165H81.2953V48.9272H62.5988ZM84.1933 48.9272V29.3196H89.8788V48.9272H84.1933ZM87.036 26.5862C85.9913 26.5862 85.1409 26.2825 84.4848 25.6751C83.8288 25.0677 83.5008 24.3145 83.5008 23.4155C83.5008 22.5165 83.8288 21.7633 84.4848 21.1559C85.1409 20.5484 85.9913 20.2447 87.036 20.2447C88.0808 20.2447 88.9312 20.5363 89.5872 21.1194C90.2432 21.6783 90.5712 22.4072 90.5712 23.3061C90.5712 24.2537 90.2432 25.0434 89.5872 25.6751C88.9555 26.2825 88.1051 26.5862 87.036 26.5862Z" fill="currentColor" />
  <path fill-rule="evenodd" clip-rule="evenodd" d="M121.27 10.8317C121.27 6.98852 124.385 3.87305 128.228 3.87305H182.176C186.019 3.87305 189.135 6.98852 189.135 10.8316V64.6957C189.135 68.5389 186.019 71.6543 182.176 71.6543H128.228C124.385 71.6543 121.27 68.5389 121.27 64.6957V10.8317Z" stroke="currentColor" stroke-width="6.07423"/>
  <path d="M156.931 50.12C154.963 50.12 153.129 49.8041 151.428 49.1724C149.751 48.5164 148.293 47.5931 147.054 46.4025C145.815 45.212 144.843 43.8149 144.139 42.2113C143.458 40.6077 143.118 38.8462 143.118 36.9267C143.118 35.0073 143.458 33.2458 144.139 31.6422C144.843 30.0386 145.815 28.6415 147.054 27.4509C148.318 26.2604 149.788 25.3493 151.464 24.7175C153.141 24.0615 154.975 23.7335 156.967 23.7335C159.178 23.7335 161.171 24.1223 162.945 24.8998C164.742 25.653 166.249 26.7706 167.464 28.2527L163.673 31.7515C162.799 30.7553 161.827 30.0143 160.758 29.5283C159.689 29.0181 158.522 28.763 157.259 28.763C156.068 28.763 154.975 28.9573 153.979 29.3461C152.983 29.7348 152.12 30.2937 151.391 31.0226C150.662 31.7515 150.091 32.614 149.678 33.6102C149.29 34.6064 149.095 35.7119 149.095 36.9267C149.095 38.1416 149.29 39.2471 149.678 40.2433C150.091 41.2394 150.662 42.102 151.391 42.8309C152.12 43.5598 152.983 44.1186 153.979 44.5074C154.975 44.8961 156.068 45.0905 157.259 45.0905C158.522 45.0905 159.689 44.8475 160.758 44.3616C161.827 43.8514 162.799 43.086 163.673 42.0655L167.464 45.5643C166.249 47.0464 164.742 48.1762 162.945 48.9537C161.171 49.7312 159.166 50.12 156.931 50.12Z" fill="currentColor" />
  <path fill-rule="evenodd" clip-rule="evenodd" d="M160.605 89.0504C160.605 85.2073 163.721 82.0918 167.564 82.0918H221.512C225.355 82.0918 228.471 85.2073 228.471 89.0504V142.913C228.471 146.757 225.355 149.872 221.512 149.872H167.564C163.721 149.872 160.605 146.757 160.605 142.913V89.0504Z" stroke="currentColor" stroke-width="6.07423"/>
  <path d="M176.464 129.168V103.657H181.347L196.399 122.025H194.03V103.657H199.862V129.168H195.014L179.926 110.8H182.295V129.168H176.464ZM205.497 129.168V109.561H211.182V129.168H205.497ZM208.339 106.827C207.295 106.827 206.444 106.524 205.788 105.916C205.132 105.309 204.804 104.556 204.804 103.657C204.804 102.758 205.132 102.005 205.788 101.397C206.444 100.79 207.295 100.486 208.339 100.486C209.384 100.486 210.235 100.778 210.891 101.361C211.547 101.919 211.875 102.648 211.875 103.547C211.875 104.495 211.547 105.285 210.891 105.916C210.259 106.524 209.408 106.827 208.339 106.827Z" fill="currentColor" />
  <path fill-rule="evenodd" clip-rule="evenodd" d="M4 89.0504C4 85.2073 7.11547 82.0918 10.9586 82.0918H64.9057C68.7489 82.0918 71.8643 85.2073 71.8643 89.0504V142.914C71.8643 146.758 68.7489 149.873 64.9057 149.873H10.9586C7.11548 149.873 4 146.758 4 142.914V89.0504Z" stroke="currentColor" stroke-width="6.07423"/>
  <path d="M27.9769 128.339C26.0089 128.339 24.1744 128.023 22.4737 127.391C20.7972 126.735 19.3394 125.812 18.1002 124.621C16.8611 123.431 15.8892 122.034 15.1846 120.43C14.5043 118.826 14.1641 117.065 14.1641 115.145C14.1641 113.226 14.5043 111.465 15.1846 109.861C15.8892 108.257 16.8611 106.86 18.1002 105.67C19.3637 104.479 20.8336 103.568 22.5101 102.936C24.1866 102.28 26.021 101.952 28.0134 101.952C30.2244 101.952 32.2167 102.341 33.9904 103.119C35.7884 103.872 37.2948 104.989 38.5096 106.471L34.7193 109.97C33.8446 108.974 32.8727 108.233 31.8037 107.747C30.7346 107.237 29.5684 106.982 28.3049 106.982C27.1144 106.982 26.021 107.176 25.0248 107.565C24.0287 107.954 23.1661 108.512 22.4372 109.241C21.7083 109.97 21.1373 110.833 20.7243 111.829C20.3355 112.825 20.1412 113.931 20.1412 115.145C20.1412 116.36 20.3355 117.466 20.7243 118.462C21.1373 119.458 21.7083 120.321 22.4372 121.05C23.1661 121.779 24.0287 122.337 25.0248 122.726C26.021 123.115 27.1144 123.309 28.3049 123.309C29.5684 123.309 30.7346 123.066 31.8037 122.58C32.8727 122.07 33.8446 121.305 34.7193 120.284L38.5096 123.783C37.2948 125.265 35.7884 126.395 33.9904 127.172C32.2167 127.95 30.2122 128.339 27.9769 128.339ZM50.7496 128.193C48.66 128.193 46.8013 127.756 45.1734 126.881C43.5698 126.006 42.2942 124.816 41.3467 123.309C40.4234 121.779 39.9617 120.041 39.9617 118.098C39.9617 116.13 40.4234 114.392 41.3467 112.886C42.2942 111.355 43.5698 110.165 45.1734 109.314C46.8013 108.44 48.66 108.002 50.7496 108.002C52.8148 108.002 54.6614 108.44 56.2893 109.314C57.9172 110.165 59.1928 111.343 60.116 112.849C61.0393 114.356 61.501 116.105 61.501 118.098C61.501 120.041 61.0393 121.779 60.116 123.309C59.1928 124.816 57.9172 126.006 56.2893 126.881C54.6614 127.756 52.8148 128.193 50.7496 128.193ZM50.7496 123.528C51.6972 123.528 52.5475 123.309 53.3008 122.872C54.054 122.435 54.6492 121.815 55.0866 121.013C55.5239 120.187 55.7426 119.215 55.7426 118.098C55.7426 116.956 55.5239 115.984 55.0866 115.182C54.6492 114.38 54.054 113.761 53.3008 113.323C52.5475 112.886 51.6972 112.667 50.7496 112.667C49.802 112.667 48.9516 112.886 48.1984 113.323C47.4452 113.761 46.8378 114.38 46.3761 115.182C45.9388 115.984 45.7201 116.956 45.7201 118.098C45.7201 119.215 45.9388 120.187 46.3761 121.013C46.8378 121.815 47.4452 122.435 48.1984 122.872C48.9516 123.309 49.802 123.528 50.7496 123.528Z" fill="currentColor" />
  <path fill-rule="evenodd" clip-rule="evenodd" d="M82.3027 89.0504C82.3027 85.2073 85.4182 82.0918 89.2613 82.0918H143.209C147.053 82.0918 150.168 85.2073 150.168 89.0504V142.914C150.168 146.758 147.053 149.873 143.209 149.873H89.2613C85.4182 149.873 82.3027 146.758 82.3027 142.914V89.0504Z" stroke="currentColor" stroke-width="6.07423"/>
  <path d="M88.7995 127.901V102.39H93.6832L104.544 120.394H101.956L112.635 102.39H117.482L117.555 127.901H112.015L111.979 110.881H112.999L104.471 125.204H101.81L93.1 110.881H94.3392V127.901H88.7995ZM135.124 108.002C136.679 108.002 138.064 108.318 139.279 108.95C140.518 109.557 141.49 110.505 142.195 111.793C142.899 113.056 143.252 114.684 143.252 116.676V127.901H137.566V117.551C137.566 115.972 137.214 114.805 136.509 114.052C135.829 113.299 134.857 112.922 133.594 112.922C132.695 112.922 131.881 113.117 131.152 113.505C130.447 113.87 129.888 114.441 129.475 115.218C129.087 115.996 128.892 116.992 128.892 118.207V127.901H123.207V108.294H128.637V113.724L127.617 112.084C128.321 110.772 129.33 109.764 130.642 109.059C131.954 108.354 133.448 108.002 135.124 108.002Z" fill="currentColor" />
</svg>
