<svg viewBox="0 0 73 152" fill="none" xmlns="http://www.w3.org/2000/svg">
  <path fill-rule="evenodd" clip-rule="evenodd" d="M3 10.1673C3 6.40846 6.04714 3.36133 9.80597 3.36133H62.5699C66.3287 3.36133 69.3758 6.40846 69.3758 10.1673V62.8691C69.3758 66.6279 66.3287 69.675 62.5699 69.675H9.80597C6.04714 69.675 3 66.6279 3 62.8691V10.1673Z" stroke="currentColor" stroke-width="5.941"/>
  <path d="M32.0526 47.6629V23.5531H38.7846V47.6629H32.0526ZM23.0245 38.7914V32.4247H47.8649V38.7914H23.0245Z" fill="currentColor" />
  <path fill-rule="evenodd" clip-rule="evenodd" d="M3 89.4149C3 85.656 6.04714 82.6089 9.80597 82.6089H62.5699C66.3287 82.6089 69.3758 85.656 69.3758 89.4149V142.118C69.3758 145.876 66.3287 148.924 62.5699 148.924H9.80597C6.04714 148.924 3 145.876 3 142.118V89.4149Z" stroke="currentColor" stroke-width="5.941"/>
  <path d="M28.3769 119.486V112.963H43.1455V119.486H28.3769Z" fill="currentColor" />
</svg>
