<svg width="711" height="790" viewBox="0 0 711 790" fill="none" xmlns="http://www.w3.org/2000/svg">
<g filter="url(#filter0_ddd_7091_131350)">
<line x1="467.508" y1="336.871" x2="576.002" y2="269.062" stroke="#163220" stroke-width="13.5618"/>
</g>
<g filter="url(#filter1_ddd_7091_131350)">
<line x1="466.121" y1="461.387" x2="574.615" y2="518.346" stroke="#163220" stroke-width="13.5618"/>
</g>
<g filter="url(#filter2_ddd_7091_131350)">
<line x1="355.828" y1="521.639" x2="355.828" y2="638.27" stroke="#163220" stroke-width="13.5618"/>
</g>
<g filter="url(#filter3_ddd_7091_131350)">
<line x1="136.912" y1="518.415" x2="239.982" y2="461.455" stroke="#163220" stroke-width="13.5618"/>
</g>
<g filter="url(#filter4_ddd_7091_131350)">
<line x1="127.448" y1="269.021" x2="238.655" y2="336.83" stroke="#163220" stroke-width="13.5618"/>
</g>
<g filter="url(#filter5_ddd_7091_131350)">
<line x1="355.828" y1="150.045" x2="355.828" y2="266.677" stroke="#163220" stroke-width="13.5618"/>
</g>
<g filter="url(#filter6_ddd_7091_131350)">
<path d="M565.918 200.024L635.217 160.531L701.536 200.024V276.776L635.217 312.543L565.918 276.776V200.024Z" fill="#FDD24C"/>
</g>
<g filter="url(#filter7_ddd_7091_131350)">
<path d="M565.918 512.212L635.217 472.719L701.536 512.212V588.963L635.217 624.73L565.918 588.963V512.212Z" fill="#E18800"/>
</g>
<g filter="url(#filter8_ddd_7091_131350)">
<path d="M286.586 666.482L355.885 626.988L422.204 666.482V743.233L355.885 779L286.586 743.233V666.482Z" fill="#7583FF"/>
</g>
<g filter="url(#filter9_ddd_7091_131350)">
<path d="M10 512.212L79.2995 472.719L145.618 512.212V588.963L79.2995 624.73L10 588.963V512.212Z" fill="#47484C"/>
</g>
<g filter="url(#filter10_ddd_7091_131350)">
<path d="M10 200.024L79.2995 160.531L145.618 200.024V276.776L79.2995 312.543L10 276.776V200.024Z" fill="#47484C"/>
</g>
<g filter="url(#filter11_ddd_7091_131350)">
<path d="M286.586 48.4932L355.885 9L422.204 48.4932V125.244L355.885 161.012L286.586 125.244V48.4932Z" fill="#FDD24C"/>
</g>
<path fill-rule="evenodd" clip-rule="evenodd" d="M327.668 53.8195C327.668 50.7446 330.161 48.252 333.236 48.252H376.348C379.423 48.252 381.915 50.7446 381.915 53.8195V96.9317C381.915 100.007 379.423 102.499 376.348 102.499H333.236C330.161 102.499 327.668 100.007 327.668 96.9317V53.8195Z" stroke="black" stroke-opacity="0.87" stroke-width="4.85998"/>
<path d="M342.309 86.2242H357.254V82.3751H347.028V65.8123H342.309V86.2242Z" fill="black" fill-opacity="0.87"/>
<path d="M361.842 68.3492C363.532 68.3492 364.668 67.2411 364.668 65.7248C364.668 64.3251 363.532 63.2754 361.842 63.2754C360.153 63.2754 359.017 64.3835 359.017 65.8123C359.017 67.2411 360.153 68.3492 361.842 68.3492ZM359.57 86.2242H364.115V70.5362H359.57V86.2242Z" fill="black" fill-opacity="0.87"/>
<path d="M301.125 116.41H302.855V121.362H305.934V122.709H301.125V116.41ZM306.869 116.41H308.6V122.709H306.869V116.41ZM311.454 117.758H309.471V116.41H315.167V117.758H313.185V122.709H311.454V117.758ZM316.058 116.41H317.789V118.82H320.352V116.41H322.083V122.709H320.352V120.211H317.789V122.709H316.058V116.41ZM323.771 116.41H325.502V122.709H323.771V116.41ZM330.086 122.829C329.152 122.829 328.421 122.578 327.896 122.074C327.37 121.57 327.107 120.876 327.107 119.992V116.41H328.838V119.938C328.838 120.427 328.943 120.796 329.155 121.044C329.374 121.292 329.692 121.416 330.108 121.416C330.517 121.416 330.828 121.292 331.039 121.044C331.251 120.796 331.357 120.427 331.357 119.938V116.41H333.066V119.992C333.066 120.876 332.803 121.57 332.277 122.074C331.751 122.578 331.021 122.829 330.086 122.829ZM340.444 122.709L340.433 119.269L338.746 122.041H337.968L336.292 119.379V122.709H334.682V116.41H336.128L338.384 120.069L340.586 116.41H342.043L342.065 122.709H340.444ZM349.901 122.829C349.236 122.829 348.638 122.691 348.105 122.413C347.571 122.128 347.152 121.738 346.845 121.241C346.538 120.745 346.385 120.186 346.385 119.565C346.385 118.944 346.538 118.386 346.845 117.889C347.152 117.385 347.571 116.995 348.105 116.717C348.638 116.432 349.236 116.29 349.901 116.29C350.507 116.29 351.029 116.381 351.467 116.564C351.913 116.746 352.296 117.038 352.618 117.44L351.5 118.459C351.084 117.955 350.573 117.703 349.967 117.703C349.434 117.703 348.992 117.875 348.641 118.218C348.298 118.561 348.126 119.01 348.126 119.565C348.126 119.93 348.203 120.255 348.356 120.54C348.517 120.818 348.736 121.033 349.014 121.186C349.299 121.34 349.616 121.416 349.967 121.416C350.573 121.416 351.084 121.164 351.5 120.661L352.618 121.679C352.304 122.074 351.92 122.366 351.467 122.556C351.022 122.738 350.5 122.829 349.901 122.829ZM357.758 121.46H354.812L354.286 122.709H352.61L355.436 116.41H357.145L359.982 122.709H358.273L357.758 121.46ZM357.233 120.211L356.291 117.933L355.338 120.211H357.233ZM363.523 121.022H362.461V122.709H360.73V116.41H363.6C364.469 116.41 365.159 116.619 365.67 117.035C366.181 117.444 366.437 118.01 366.437 118.733C366.437 119.193 366.324 119.594 366.097 119.938C365.878 120.274 365.564 120.536 365.155 120.726L366.557 122.709H364.695L363.523 121.022ZM364.695 118.733C364.695 118.419 364.593 118.178 364.389 118.01C364.184 117.842 363.881 117.758 363.479 117.758H362.461V119.708H363.479C363.881 119.708 364.184 119.624 364.389 119.456C364.593 119.288 364.695 119.047 364.695 118.733ZM372.698 119.423C373.048 119.554 373.318 119.751 373.508 120.014C373.706 120.277 373.804 120.599 373.804 120.978C373.804 121.526 373.578 121.953 373.125 122.26C372.679 122.559 372.03 122.709 371.175 122.709H367.779V116.41H371C371.81 116.41 372.428 116.56 372.851 116.86C373.275 117.159 373.486 117.561 373.486 118.064C373.486 118.364 373.417 118.63 373.278 118.864C373.147 119.098 372.953 119.284 372.698 119.423ZM369.488 117.626V118.952H370.781C371.095 118.952 371.336 118.897 371.504 118.787C371.672 118.671 371.756 118.506 371.756 118.295C371.756 118.075 371.672 117.911 371.504 117.802C371.343 117.685 371.102 117.626 370.781 117.626H369.488ZM371.055 121.493C371.726 121.493 372.062 121.263 372.062 120.803C372.062 120.343 371.726 120.113 371.055 120.113H369.488V121.493H371.055ZM378.067 122.829C377.396 122.829 376.789 122.691 376.249 122.413C375.716 122.128 375.296 121.738 374.989 121.241C374.683 120.745 374.529 120.186 374.529 119.565C374.529 118.944 374.683 118.386 374.989 117.889C375.296 117.385 375.716 116.995 376.249 116.717C376.789 116.432 377.396 116.29 378.067 116.29C378.739 116.29 379.342 116.432 379.875 116.717C380.415 116.995 380.839 117.385 381.145 117.889C381.452 118.386 381.606 118.944 381.606 119.565C381.606 120.186 381.452 120.745 381.145 121.241C380.839 121.738 380.415 122.128 379.875 122.413C379.342 122.691 378.739 122.829 378.067 122.829ZM378.067 121.416C378.403 121.416 378.706 121.336 378.977 121.175C379.254 121.015 379.47 120.796 379.623 120.518C379.776 120.233 379.853 119.916 379.853 119.565C379.853 119.207 379.776 118.89 379.623 118.612C379.47 118.327 379.254 118.105 378.977 117.944C378.706 117.783 378.403 117.703 378.067 117.703C377.731 117.703 377.425 117.783 377.147 117.944C376.877 118.105 376.662 118.327 376.501 118.612C376.348 118.89 376.271 119.207 376.271 119.565C376.271 119.916 376.348 120.233 376.501 120.518C376.662 120.796 376.877 121.015 377.147 121.175C377.425 121.336 377.731 121.416 378.067 121.416ZM388.855 116.41V122.709H387.431L384.528 119.237V122.709H382.83V116.41H384.254L387.157 119.894V116.41H388.855ZM394.75 121.46H391.803L391.277 122.709H389.601L392.427 116.41H394.136L396.973 122.709H395.264L394.75 121.46ZM394.224 120.211L393.282 117.933L392.329 120.211H394.224ZM398.519 117.758H396.536V116.41H402.232V117.758H400.25V122.709H398.519V117.758ZM408.195 121.384V122.709H403.123V116.41H408.074V117.736H404.832V118.886H407.702V120.146H404.832V121.384H408.195Z" fill="black"/>
<path fill-rule="evenodd" clip-rule="evenodd" d="M606.086 204.439C606.086 201.364 608.579 198.871 611.654 198.871H654.766C657.841 198.871 660.333 201.364 660.333 204.439V247.551C660.333 250.626 657.841 253.118 654.766 253.118H611.654C608.579 253.118 606.086 250.626 606.086 247.551V204.439Z" stroke="black" stroke-opacity="0.87" stroke-width="4.85998"/>
<path d="M620.727 236.843H635.672V232.994H625.446V216.431H620.727V236.843Z" fill="black" fill-opacity="0.87"/>
<path d="M640.26 218.968C641.95 218.968 643.086 217.86 643.086 216.344C643.086 214.944 641.95 213.895 640.26 213.895C638.571 213.895 637.435 215.003 637.435 216.431C637.435 217.86 638.571 218.968 640.26 218.968ZM637.988 236.843H642.533V221.155H637.988V236.843Z" fill="black" fill-opacity="0.87"/>
<path d="M581.367 267.58H583.098V272.532H586.176V273.879H581.367V267.58ZM587.111 267.58H588.842V273.879H587.111V267.58ZM591.696 268.928H589.713V267.58H595.409V268.928H593.427V273.879H591.696V268.928ZM596.3 267.58H598.031V269.99H600.594V267.58H602.325V273.879H600.594V271.381H598.031V273.879H596.3V267.58ZM604.013 267.58H605.744V273.879H604.013V267.58ZM610.329 273.999C609.394 273.999 608.663 273.747 608.138 273.244C607.612 272.74 607.349 272.046 607.349 271.162V267.58H609.08V271.108C609.08 271.597 609.186 271.966 609.397 272.214C609.616 272.462 609.934 272.586 610.35 272.586C610.759 272.586 611.07 272.462 611.282 272.214C611.493 271.966 611.599 271.597 611.599 271.108V267.58H613.308V271.162C613.308 272.046 613.045 272.74 612.519 273.244C611.994 273.747 611.263 273.999 610.329 273.999ZM620.686 273.879L620.675 270.439L618.988 273.211H618.21L616.534 270.549V273.879H614.924V267.58H616.37L618.627 271.239L620.828 267.58H622.285L622.307 273.879H620.686ZM627.087 267.58H628.818V269.99H631.381V267.58H633.112V273.879H631.381V271.381H628.818V273.879H627.087V267.58ZM638.108 271.787V273.879H636.377V271.787L633.836 267.58H635.665L637.297 270.264L638.918 267.58H640.66L638.108 271.787ZM641.379 267.58H644.347C645.063 267.58 645.691 267.708 646.231 267.964C646.772 268.219 647.188 268.584 647.48 269.059C647.779 269.534 647.929 270.092 647.929 270.735C647.929 271.37 647.779 271.925 647.48 272.4C647.188 272.875 646.772 273.24 646.231 273.496C645.691 273.751 645.063 273.879 644.347 273.879H641.379V267.58ZM644.292 272.521C644.877 272.521 645.337 272.367 645.673 272.061C646.008 271.747 646.176 271.305 646.176 270.735C646.176 270.165 646.008 269.724 645.673 269.41C645.337 269.096 644.877 268.939 644.292 268.939H643.109V272.521H644.292ZM651.949 272.192H650.886V273.879H649.155V267.58H652.025C652.894 267.58 653.585 267.788 654.096 268.205C654.607 268.614 654.863 269.18 654.863 269.903C654.863 270.363 654.749 270.764 654.523 271.108C654.304 271.443 653.99 271.706 653.581 271.896L654.983 273.879H653.121L651.949 272.192ZM653.121 269.903C653.121 269.589 653.019 269.348 652.814 269.18C652.61 269.012 652.307 268.928 651.905 268.928H650.886V270.878H651.905C652.307 270.878 652.61 270.794 652.814 270.626C653.019 270.458 653.121 270.217 653.121 269.903ZM659.283 273.999C658.611 273.999 658.005 273.861 657.465 273.583C656.932 273.298 656.512 272.908 656.205 272.411C655.898 271.914 655.745 271.356 655.745 270.735C655.745 270.114 655.898 269.556 656.205 269.059C656.512 268.555 656.932 268.165 657.465 267.887C658.005 267.602 658.611 267.46 659.283 267.46C659.955 267.46 660.557 267.602 661.09 267.887C661.631 268.165 662.054 268.555 662.361 269.059C662.668 269.556 662.821 270.114 662.821 270.735C662.821 271.356 662.668 271.914 662.361 272.411C662.054 272.908 661.631 273.298 661.09 273.583C660.557 273.861 659.955 273.999 659.283 273.999ZM659.283 272.586C659.619 272.586 659.922 272.506 660.192 272.345C660.47 272.185 660.685 271.966 660.839 271.688C660.992 271.403 661.069 271.086 661.069 270.735C661.069 270.377 660.992 270.06 660.839 269.782C660.685 269.497 660.47 269.275 660.192 269.114C659.922 268.953 659.619 268.873 659.283 268.873C658.947 268.873 658.64 268.953 658.363 269.114C658.093 269.275 657.877 269.497 657.717 269.782C657.563 270.06 657.487 270.377 657.487 270.735C657.487 271.086 657.563 271.403 657.717 271.688C657.877 271.966 658.093 272.185 658.363 272.345C658.64 272.506 658.947 272.586 659.283 272.586ZM667.668 273.879L666.298 271.907L664.929 273.879H662.946L665.323 270.691L663.056 267.58H665.006L666.32 269.443L667.635 267.58H669.53L667.262 270.637L669.65 273.879H667.668ZM670.529 267.58H672.259V273.879H670.529V267.58ZM673.93 267.58H676.899C677.615 267.58 678.243 267.708 678.783 267.964C679.323 268.219 679.74 268.584 680.032 269.059C680.331 269.534 680.481 270.092 680.481 270.735C680.481 271.37 680.331 271.925 680.032 272.4C679.74 272.875 679.323 273.24 678.783 273.496C678.243 273.751 677.615 273.879 676.899 273.879H673.93V267.58ZM676.844 272.521C677.428 272.521 677.888 272.367 678.224 272.061C678.56 271.747 678.728 271.305 678.728 270.735C678.728 270.165 678.56 269.724 678.224 269.41C677.888 269.096 677.428 268.939 676.844 268.939H675.661V272.521H676.844ZM686.779 272.553V273.879H681.707V267.58H686.658V268.906H683.416V270.056H686.286V271.316H683.416V272.553H686.779Z" fill="black"/>
<path fill-rule="evenodd" clip-rule="evenodd" d="M606.996 516.624C606.996 513.549 609.489 511.057 612.564 511.057H655.676C658.751 511.057 661.243 513.549 661.243 516.624V559.736C661.243 562.811 658.751 565.304 655.676 565.304H612.564C609.489 565.304 606.996 562.811 606.996 559.736V516.624Z" stroke="black" stroke-opacity="0.87" stroke-width="4.85998"/>
<path d="M633.096 528.617V541.01L622.958 528.617H619.055V549.029H623.716V536.636L633.883 549.029H637.758V528.617H633.096Z" fill="black" fill-opacity="0.87"/>
<path d="M644.534 531.154C646.224 531.154 647.36 530.046 647.36 528.53C647.36 527.13 646.224 526.08 644.534 526.08C642.845 526.08 641.708 527.188 641.708 528.617C641.708 530.046 642.845 531.154 644.534 531.154ZM642.262 549.029H646.806V533.341H642.262V549.029Z" fill="black" fill-opacity="0.87"/>
<path d="M593.942 578.287V585.955H592.485L588.662 581.3V585.955H586.909V578.287H588.377L592.189 582.943V578.287H593.942ZM595.69 579.657H597.421V585.955H595.69V579.657ZM602.148 586.076C601.483 586.076 600.885 585.937 600.352 585.659C599.818 585.375 599.399 584.984 599.092 584.487C598.785 583.991 598.632 583.432 598.632 582.811C598.632 582.191 598.785 581.632 599.092 581.135C599.399 580.631 599.818 580.241 600.352 579.963C600.885 579.678 601.483 579.536 602.148 579.536C602.754 579.536 603.276 579.627 603.714 579.81C604.16 579.992 604.543 580.285 604.865 580.686L603.747 581.705C603.331 581.201 602.82 580.949 602.214 580.949C601.681 580.949 601.239 581.121 600.888 581.464C600.545 581.807 600.373 582.256 600.373 582.811C600.373 583.176 600.45 583.501 600.603 583.786C600.764 584.064 600.983 584.279 601.261 584.432C601.546 584.586 601.863 584.663 602.214 584.663C602.82 584.663 603.331 584.411 603.747 583.907L604.865 584.925C604.551 585.32 604.167 585.612 603.714 585.802C603.269 585.984 602.747 586.076 602.148 586.076ZM608.37 583.633L607.658 584.367V585.955H605.949V579.657H607.658V582.34L610.221 579.657H612.127L609.509 582.461L612.269 585.955H610.254L608.37 583.633ZM618.113 584.63V585.955H613.041V579.657H617.992V580.982H614.75V582.132H617.62V583.392H614.75V584.63H618.113ZM619.374 579.657H621.105V584.608H624.183V585.955H619.374V579.657ZM630.806 586.087C630.2 586.087 629.612 586.006 629.042 585.846C628.48 585.678 628.027 585.462 627.684 585.199L628.286 583.863C628.615 584.104 629.006 584.297 629.458 584.443C629.911 584.589 630.364 584.663 630.817 584.663C631.32 584.663 631.693 584.589 631.934 584.443C632.175 584.29 632.295 584.089 632.295 583.841C632.295 583.658 632.222 583.509 632.076 583.392C631.938 583.268 631.755 583.169 631.529 583.096C631.31 583.023 631.01 582.943 630.63 582.855C630.046 582.716 629.568 582.578 629.195 582.439C628.823 582.3 628.502 582.077 628.231 581.771C627.969 581.464 627.837 581.055 627.837 580.544C627.837 580.098 627.958 579.697 628.199 579.339C628.44 578.974 628.801 578.685 629.283 578.473C629.772 578.262 630.367 578.156 631.069 578.156C631.558 578.156 632.036 578.214 632.504 578.331C632.971 578.448 633.38 578.616 633.73 578.835L633.183 580.182C632.474 579.781 631.766 579.58 631.058 579.58C630.561 579.58 630.192 579.66 629.951 579.821C629.718 579.981 629.601 580.193 629.601 580.456C629.601 580.719 629.736 580.916 630.006 581.048C630.283 581.172 630.703 581.296 631.266 581.42C631.85 581.559 632.328 581.698 632.701 581.836C633.073 581.975 633.391 582.194 633.654 582.494C633.924 582.793 634.059 583.198 634.059 583.71C634.059 584.148 633.935 584.549 633.687 584.914C633.446 585.272 633.08 585.557 632.591 585.769C632.102 585.981 631.507 586.087 630.806 586.087ZM638.12 586.076C637.185 586.076 636.455 585.824 635.929 585.32C635.403 584.816 635.14 584.122 635.14 583.238V579.657H636.871V583.184C636.871 583.673 636.977 584.042 637.188 584.29C637.408 584.538 637.725 584.663 638.141 584.663C638.55 584.663 638.861 584.538 639.073 584.29C639.284 584.042 639.39 583.673 639.39 583.184V579.657H641.099V583.238C641.099 584.122 640.836 584.816 640.31 585.32C639.785 585.824 639.054 586.076 638.12 586.076ZM642.715 579.657H644.446V584.608H647.524V585.955H642.715V579.657ZM651.33 579.657C652.199 579.657 652.889 579.865 653.4 580.281C653.911 580.69 654.167 581.256 654.167 581.979C654.167 582.694 653.911 583.26 653.4 583.677C652.889 584.086 652.199 584.29 651.33 584.29H650.19V585.955H648.46V579.657H651.33ZM651.209 582.954C651.611 582.954 651.914 582.87 652.118 582.702C652.323 582.534 652.425 582.293 652.425 581.979C652.425 581.665 652.323 581.424 652.118 581.256C651.914 581.088 651.611 581.004 651.209 581.004H650.19V582.954H651.209ZM655.434 579.657H657.165V582.066H659.728V579.657H661.459V585.955H659.728V583.458H657.165V585.955H655.434V579.657ZM667.353 584.706H664.407L663.881 585.955H662.205L665.031 579.657H666.74L669.577 585.955H667.868L667.353 584.706ZM666.828 583.458L665.886 581.179L664.933 583.458H666.828ZM671.123 581.004H669.14V579.657H674.836V581.004H672.854V585.955H671.123V581.004ZM680.799 584.63V585.955H675.727V579.657H680.678V580.982H677.436V582.132H680.306V583.392H677.436V584.63H680.799Z" fill="black"/>
<path fill-rule="evenodd" clip-rule="evenodd" d="M327.664 670.967C327.664 667.853 330.189 665.328 333.303 665.328H376.273C379.387 665.328 381.911 667.853 381.911 670.967V713.937C381.911 717.051 379.387 719.575 376.273 719.575H333.303C330.189 719.575 327.664 717.051 327.664 713.937V670.967Z" stroke="black" stroke-opacity="0.87" stroke-width="4.92202"/>
<path d="M348.092 703.17C351.646 703.17 354.589 701.887 356.511 699.525L353.482 696.726C352.112 698.33 350.394 699.146 348.354 699.146C344.538 699.146 341.829 696.463 341.829 692.614C341.829 688.765 344.538 686.083 348.354 686.083C350.394 686.083 352.112 686.899 353.482 688.474L356.511 685.674C354.589 683.342 351.646 682.059 348.121 682.059C341.77 682.059 337.051 686.462 337.051 692.614C337.051 698.767 341.77 703.17 348.092 703.17Z" fill="black" fill-opacity="0.87"/>
<path d="M366.295 703.053C371.277 703.053 374.889 699.7 374.889 694.976C374.889 690.252 371.277 686.899 366.295 686.899C361.314 686.899 357.672 690.252 357.672 694.976C357.672 699.7 361.314 703.053 366.295 703.053ZM366.295 699.321C364.023 699.321 362.275 697.688 362.275 694.976C362.275 692.264 364.023 690.631 366.295 690.631C368.568 690.631 370.287 692.264 370.287 694.976C370.287 697.688 368.568 699.321 366.295 699.321Z" fill="black" fill-opacity="0.87"/>
<path d="M309.423 740.397C308.641 740.397 307.933 740.229 307.297 739.893C306.669 739.55 306.173 739.079 305.808 738.48C305.45 737.874 305.271 737.191 305.271 736.432C305.271 735.672 305.45 734.993 305.808 734.394C306.173 733.788 306.669 733.317 307.297 732.981C307.933 732.638 308.645 732.466 309.433 732.466C310.098 732.466 310.697 732.583 311.23 732.817C311.77 733.051 312.223 733.387 312.588 733.825L311.449 734.876C310.931 734.277 310.288 733.978 309.521 733.978C309.046 733.978 308.623 734.084 308.25 734.296C307.878 734.5 307.586 734.789 307.374 735.161C307.17 735.533 307.067 735.957 307.067 736.432C307.067 736.906 307.17 737.33 307.374 737.702C307.586 738.075 307.878 738.367 308.25 738.579C308.623 738.783 309.046 738.885 309.521 738.885C310.288 738.885 310.931 738.582 311.449 737.976L312.588 739.028C312.223 739.473 311.77 739.813 311.23 740.047C310.69 740.28 310.087 740.397 309.423 740.397ZM316.649 740.386C315.977 740.386 315.371 740.247 314.831 739.97C314.298 739.685 313.878 739.294 313.571 738.798C313.264 738.301 313.111 737.743 313.111 737.122C313.111 736.501 313.264 735.942 313.571 735.446C313.878 734.942 314.298 734.551 314.831 734.274C315.371 733.989 315.977 733.847 316.649 733.847C317.321 733.847 317.923 733.989 318.457 734.274C318.997 734.551 319.421 734.942 319.727 735.446C320.034 735.942 320.187 736.501 320.187 737.122C320.187 737.743 320.034 738.301 319.727 738.798C319.421 739.294 318.997 739.685 318.457 739.97C317.923 740.247 317.321 740.386 316.649 740.386ZM316.649 738.973C316.985 738.973 317.288 738.893 317.558 738.732C317.836 738.571 318.051 738.352 318.205 738.075C318.358 737.79 318.435 737.472 318.435 737.122C318.435 736.764 318.358 736.446 318.205 736.169C318.051 735.884 317.836 735.661 317.558 735.501C317.288 735.34 316.985 735.26 316.649 735.26C316.313 735.26 316.007 735.34 315.729 735.501C315.459 735.661 315.243 735.884 315.083 736.169C314.929 736.446 314.853 736.764 314.853 737.122C314.853 737.472 314.929 737.79 315.083 738.075C315.243 738.352 315.459 738.571 315.729 738.732C316.007 738.893 316.313 738.973 316.649 738.973ZM326.331 736.979C326.681 737.111 326.951 737.308 327.141 737.571C327.338 737.834 327.437 738.155 327.437 738.535C327.437 739.083 327.211 739.51 326.758 739.817C326.312 740.116 325.662 740.266 324.808 740.266H321.412V733.967H324.633C325.443 733.967 326.06 734.117 326.484 734.416C326.907 734.716 327.119 735.117 327.119 735.621C327.119 735.921 327.05 736.187 326.911 736.421C326.78 736.654 326.586 736.841 326.331 736.979ZM323.121 735.183V736.508H324.414C324.728 736.508 324.969 736.454 325.137 736.344C325.305 736.227 325.388 736.063 325.388 735.851C325.388 735.632 325.305 735.468 325.137 735.358C324.976 735.241 324.735 735.183 324.414 735.183H323.121ZM324.687 739.05C325.359 739.05 325.695 738.82 325.695 738.36C325.695 737.9 325.359 737.67 324.687 737.67H323.121V739.05H324.687ZM332.828 739.017H329.882L329.356 740.266H327.68L330.506 733.967H332.215L335.052 740.266H333.343L332.828 739.017ZM332.303 737.768L331.361 735.49L330.408 737.768H332.303ZM335.8 733.967H337.531V738.918H340.609V740.266H335.8V733.967ZM342.011 735.314H340.028V733.967H345.724V735.314H343.741V740.266H342.011V735.314ZM352.302 740.397C351.696 740.397 351.108 740.317 350.539 740.156C349.976 739.988 349.524 739.773 349.18 739.51L349.783 738.173C350.112 738.414 350.502 738.608 350.955 738.754C351.408 738.9 351.86 738.973 352.313 738.973C352.817 738.973 353.19 738.9 353.431 738.754C353.672 738.601 353.792 738.4 353.792 738.152C353.792 737.969 353.719 737.819 353.573 737.702C353.434 737.578 353.252 737.48 353.025 737.407C352.806 737.334 352.507 737.253 352.127 737.166C351.543 737.027 351.065 736.888 350.692 736.749C350.32 736.611 349.998 736.388 349.728 736.081C349.465 735.774 349.334 735.366 349.334 734.854C349.334 734.409 349.454 734.007 349.695 733.649C349.936 733.284 350.298 732.996 350.78 732.784C351.269 732.572 351.864 732.466 352.565 732.466C353.054 732.466 353.533 732.525 354 732.642C354.468 732.758 354.876 732.926 355.227 733.146L354.679 734.493C353.971 734.091 353.263 733.89 352.554 733.89C352.058 733.89 351.689 733.971 351.448 734.131C351.214 734.292 351.097 734.504 351.097 734.767C351.097 735.03 351.232 735.227 351.503 735.358C351.78 735.482 352.2 735.607 352.762 735.731C353.347 735.869 353.825 736.008 354.197 736.147C354.57 736.286 354.887 736.505 355.15 736.804C355.421 737.104 355.556 737.509 355.556 738.02C355.556 738.458 355.431 738.86 355.183 739.225C354.942 739.583 354.577 739.868 354.088 740.079C353.599 740.291 353.003 740.397 352.302 740.397ZM359.616 740.386C358.682 740.386 357.951 740.134 357.425 739.63C356.9 739.126 356.637 738.433 356.637 737.549V733.967H358.367V737.494C358.367 737.984 358.473 738.352 358.685 738.601C358.904 738.849 359.222 738.973 359.638 738.973C360.047 738.973 360.357 738.849 360.569 738.601C360.781 738.352 360.887 737.984 360.887 737.494V733.967H362.596V737.549C362.596 738.433 362.333 739.126 361.807 739.63C361.281 740.134 360.551 740.386 359.616 740.386ZM364.212 733.967H365.943V738.918H369.021V740.266H364.212V733.967ZM372.826 733.967C373.695 733.967 374.385 734.175 374.897 734.591C375.408 735 375.663 735.566 375.663 736.289C375.663 737.005 375.408 737.571 374.897 737.987C374.385 738.396 373.695 738.601 372.826 738.601H371.687V740.266H369.956V733.967H372.826ZM372.706 737.264C373.107 737.264 373.411 737.18 373.615 737.012C373.82 736.844 373.922 736.603 373.922 736.289C373.922 735.975 373.82 735.734 373.615 735.566C373.411 735.398 373.107 735.314 372.706 735.314H371.687V737.264H372.706ZM376.931 733.967H378.662V736.377H381.225V733.967H382.956V740.266H381.225V737.768H378.662V740.266H376.931V733.967ZM388.85 739.017H385.903L385.378 740.266H383.702L386.528 733.967H388.237L391.074 740.266H389.365L388.85 739.017ZM388.324 737.768L387.382 735.49L386.429 737.768H388.324ZM392.62 735.314H390.637V733.967H396.333V735.314H394.35V740.266H392.62V735.314ZM402.295 738.94V740.266H397.224V733.967H402.175V735.293H398.933V736.443H401.803V737.702H398.933V738.94H402.295Z" fill="black"/>
<path fill-rule="evenodd" clip-rule="evenodd" d="M50.1719 514.802C50.1719 511.727 52.6645 509.234 55.7394 509.234H98.8517C101.927 509.234 104.419 511.727 104.419 514.802V557.914C104.419 560.989 101.927 563.482 98.8517 563.482H55.7394C52.6645 563.482 50.1719 560.989 50.1719 557.914V514.802Z" stroke="#FDBD00" stroke-width="4.85991"/>
<path d="M79.088 547.557C82.6421 547.557 85.5844 546.274 87.5072 543.912L84.4774 541.113C83.1082 542.716 81.3894 543.533 79.3502 543.533C75.5338 543.533 72.8245 540.85 72.8245 537.001C72.8245 533.152 75.5338 530.469 79.3502 530.469C81.3894 530.469 83.1082 531.286 84.4774 532.86L87.5072 530.061C85.5844 527.728 82.6421 526.445 79.1171 526.445C72.7663 526.445 68.0469 530.848 68.0469 537.001C68.0469 543.154 72.7663 547.557 79.088 547.557Z" fill="#FDBD00"/>
<path d="M35.5119 581.914V583.941H39.061V585.365H35.5119V588.158H33.7373V580.49H39.532V581.914H35.5119ZM40.6248 581.86H42.3555V586.811H45.4336V588.158H40.6248V581.86ZM50.6398 586.909H47.6931L47.1673 588.158H45.4914L48.3175 581.86H50.0263L52.8634 588.158H51.1546L50.6398 586.909ZM50.114 585.661L49.1719 583.382L48.2189 585.661H50.114ZM56.0321 585.836L55.3201 586.57V588.158H53.6113V581.86H55.3201V584.543L57.8834 581.86H59.7893L57.1713 584.664L59.9318 588.158H57.9162L56.0321 585.836ZM65.7753 586.833V588.158H60.7036V581.86H65.6548V583.185H62.4124V584.335H65.2824V585.595H62.4124V586.833H65.7753ZM75.3855 584.204H77.0067V587.315C76.5905 587.629 76.1085 587.87 75.5608 588.038C75.0131 588.206 74.4618 588.29 73.9067 588.29C73.1108 588.29 72.3951 588.122 71.7598 587.786C71.1244 587.443 70.6242 586.972 70.2591 586.373C69.9012 585.767 69.7223 585.084 69.7223 584.324C69.7223 583.565 69.9012 582.886 70.2591 582.287C70.6242 581.681 71.1281 581.21 71.7707 580.874C72.4134 580.531 73.1363 580.359 73.9396 580.359C74.6115 580.359 75.2212 580.472 75.7689 580.699C76.3166 580.925 76.7767 581.254 77.1491 581.684L76.0099 582.736C75.4622 582.159 74.8013 581.871 74.0272 581.871C73.538 581.871 73.1035 581.973 72.7237 582.177C72.344 582.382 72.0482 582.67 71.8364 583.043C71.6247 583.415 71.5188 583.842 71.5188 584.324C71.5188 584.799 71.6247 585.223 71.8364 585.595C72.0482 585.967 72.3403 586.26 72.7128 586.471C73.0925 586.676 73.5234 586.778 74.0053 586.778C74.5165 586.778 74.9766 586.668 75.3855 586.449V584.204ZM81.3827 586.471H80.3201V588.158H78.5894V581.86H81.4594C82.3284 581.86 83.0185 582.068 83.5297 582.484C84.0409 582.893 84.2964 583.459 84.2964 584.182C84.2964 584.642 84.1833 585.044 83.9569 585.387C83.7378 585.723 83.4238 585.986 83.0148 586.176L84.4169 588.158H82.5548L81.3827 586.471ZM82.5548 584.182C82.5548 583.868 82.4525 583.627 82.248 583.459C82.0436 583.291 81.7405 583.207 81.3389 583.207H80.3201V585.157H81.3389C81.7405 585.157 82.0436 585.073 82.248 584.905C82.4525 584.737 82.5548 584.496 82.5548 584.182ZM89.8452 586.909H86.8986L86.3728 588.158H84.6969L87.523 581.86H89.2318L92.0689 588.158H90.3601L89.8452 586.909ZM89.3195 585.661L88.3774 583.382L87.4244 585.661H89.3195ZM95.6867 581.86C96.5557 581.86 97.2458 582.068 97.757 582.484C98.2682 582.893 98.5238 583.459 98.5238 584.182C98.5238 584.898 98.2682 585.464 97.757 585.88C97.2458 586.289 96.5557 586.493 95.6867 586.493H94.5475V588.158H92.8168V581.86H95.6867ZM95.5662 585.157C95.9679 585.157 96.2709 585.073 96.4754 584.905C96.6799 584.737 96.7821 584.496 96.7821 584.182C96.7821 583.868 96.6799 583.627 96.4754 583.459C96.2709 583.291 95.9679 583.207 95.5662 583.207H94.5475V585.157H95.5662ZM99.7914 581.86H101.522V584.27H104.085V581.86H105.816V588.158H104.085V585.661H101.522V588.158H99.7914V581.86ZM107.504 581.86H109.235V588.158H107.504V581.86ZM112.089 583.207H110.106V581.86H115.802V583.207H113.82V588.158H112.089V583.207ZM121.765 586.833V588.158H116.693V581.86H121.644V583.185H118.402V584.335H121.272V585.595H118.402V586.833H121.765Z" fill="#FDBD00"/>
<path fill-rule="evenodd" clip-rule="evenodd" d="M50.1641 205.351C50.1641 202.276 52.6567 199.783 55.7315 199.783H98.8439C101.919 199.783 104.411 202.276 104.411 205.351V248.463C104.411 251.538 101.919 254.031 98.8439 254.031H55.7315C52.6567 254.031 50.1641 251.538 50.1641 248.463V205.351Z" stroke="#FDBD00" stroke-width="4.85991"/>
<path d="M79.0802 238.106C82.6343 238.106 85.5766 236.823 87.4993 234.461L84.4696 231.661C83.1004 233.265 81.3816 234.082 79.3423 234.082C75.526 234.082 72.8167 231.399 72.8167 227.55C72.8167 223.701 75.526 221.018 79.3423 221.018C81.3816 221.018 83.1004 221.835 84.4696 223.409L87.4993 220.61C85.5766 218.277 82.6343 216.994 79.1093 216.994C72.7585 216.994 68.0391 221.397 68.0391 227.55C68.0391 233.703 72.7585 238.106 79.0802 238.106Z" fill="#FDBD00"/>
<path d="M24.3817 274.922C23.7756 274.922 23.1877 274.842 22.6181 274.681C22.0558 274.514 21.6031 274.298 21.2598 274.035L21.8623 272.699C22.1909 272.94 22.5816 273.133 23.0344 273.279C23.4872 273.425 23.9399 273.498 24.3927 273.498C24.8966 273.498 25.269 273.425 25.51 273.279C25.751 273.126 25.8715 272.925 25.8715 272.677C25.8715 272.494 25.7984 272.345 25.6524 272.228C25.5136 272.104 25.3311 272.005 25.1047 271.932C24.8856 271.859 24.5862 271.779 24.2065 271.691C23.6223 271.552 23.1439 271.414 22.7715 271.275C22.3991 271.136 22.0777 270.913 21.8075 270.607C21.5446 270.3 21.4132 269.891 21.4132 269.38C21.4132 268.934 21.5337 268.533 21.7747 268.175C22.0157 267.81 22.3771 267.521 22.8591 267.309C23.3484 267.098 23.9436 266.992 24.6446 266.992C25.1339 266.992 25.6122 267.05 26.0796 267.167C26.547 267.284 26.9559 267.452 27.3064 267.671L26.7587 269.018C26.0504 268.617 25.342 268.416 24.6337 268.416C24.1371 268.416 23.7683 268.496 23.5273 268.657C23.2936 268.817 23.1768 269.029 23.1768 269.292C23.1768 269.555 23.3119 269.752 23.5821 269.884C23.8596 270.008 24.2795 270.132 24.8418 270.256C25.426 270.395 25.9043 270.534 26.2768 270.672C26.6492 270.811 26.9669 271.03 27.2298 271.33C27.5 271.629 27.6351 272.034 27.6351 272.545C27.6351 272.984 27.5109 273.385 27.2626 273.75C27.0216 274.108 26.6565 274.393 26.1672 274.605C25.678 274.817 25.0828 274.922 24.3817 274.922ZM31.8761 272.699V274.791H30.1453V272.699L27.604 268.492H29.4333L31.0655 271.176L32.6867 268.492H34.4283L31.8761 272.699ZM41.1715 268.492V274.791H39.7475L36.8446 271.319V274.791H35.1468V268.492H36.5708L39.4736 271.976V268.492H41.1715ZM44.0425 269.84H42.0599V268.492H47.7559V269.84H45.7733V274.791H44.0425V269.84ZM48.6467 268.492H50.3775V270.902H52.9407V268.492H54.6714V274.791H52.9407V272.294H50.3775V274.791H48.6467V268.492ZM61.4312 273.466V274.791H56.3595V268.492H61.3107V269.818H58.0683V270.968H60.9382V272.228H58.0683V273.466H61.4312ZM63.8753 269.84H61.8926V268.492H67.5887V269.84H65.606V274.791H63.8753V269.84ZM68.4795 268.492H70.2102V274.791H68.4795V268.492ZM74.9374 274.912C74.2728 274.912 73.674 274.773 73.1409 274.495C72.6078 274.21 72.1879 273.82 71.8812 273.323C71.5745 272.827 71.4211 272.268 71.4211 271.647C71.4211 271.026 71.5745 270.468 71.8812 269.971C72.1879 269.467 72.6078 269.077 73.1409 268.799C73.674 268.514 74.2728 268.372 74.9374 268.372C75.5435 268.372 76.0656 268.463 76.5038 268.646C76.9492 268.828 77.3326 269.12 77.654 269.522L76.5366 270.541C76.1204 270.037 75.6092 269.785 75.0031 269.785C74.47 269.785 74.0282 269.957 73.6776 270.3C73.3344 270.643 73.1628 271.092 73.1628 271.647C73.1628 272.012 73.2395 272.337 73.3928 272.622C73.5535 272.9 73.7726 273.115 74.0501 273.268C74.3349 273.422 74.6526 273.498 75.0031 273.498C75.6092 273.498 76.1204 273.247 76.5366 272.743L77.654 273.761C77.3399 274.156 76.9565 274.448 76.5038 274.638C76.0583 274.82 75.5362 274.912 74.9374 274.912ZM87.0873 270.837H88.7085V273.948C88.2923 274.262 87.8103 274.503 87.2626 274.671C86.7149 274.838 86.1635 274.922 85.6085 274.922C84.8125 274.922 84.0969 274.755 83.4615 274.419C82.8262 274.075 82.326 273.604 81.9608 273.006C81.603 272.399 81.4241 271.717 81.4241 270.957C81.4241 270.198 81.603 269.518 81.9608 268.92C82.326 268.314 82.8299 267.843 83.4725 267.507C84.1151 267.163 84.8381 266.992 85.6414 266.992C86.3132 266.992 86.923 267.105 87.4707 267.331C88.0184 267.558 88.4785 267.886 88.8509 268.317L87.7117 269.369C87.164 268.792 86.5031 268.503 85.729 268.503C85.2397 268.503 84.8052 268.606 84.4255 268.81C84.0458 269.015 83.75 269.303 83.5382 269.675C83.3264 270.048 83.2206 270.475 83.2206 270.957C83.2206 271.432 83.3264 271.855 83.5382 272.228C83.75 272.6 84.0421 272.892 84.4145 273.104C84.7943 273.309 85.2251 273.411 85.7071 273.411C86.2183 273.411 86.6784 273.301 87.0873 273.082V270.837ZM93.0845 273.104H92.0219V274.791H90.2912V268.492H93.1611C94.0302 268.492 94.7203 268.701 95.2314 269.117C95.7426 269.526 95.9982 270.092 95.9982 270.815C95.9982 271.275 95.885 271.676 95.6587 272.02C95.4396 272.356 95.1256 272.618 94.7166 272.808L96.1187 274.791H94.2565L93.0845 273.104ZM94.2565 270.815C94.2565 270.501 94.1543 270.26 93.9498 270.092C93.7454 269.924 93.4423 269.84 93.0406 269.84H92.0219V271.79H93.0406C93.4423 271.79 93.7454 271.706 93.9498 271.538C94.1543 271.37 94.2565 271.129 94.2565 270.815ZM101.547 273.542H98.6004L98.0746 274.791H96.3986L99.2248 268.492H100.934L103.771 274.791H102.062L101.547 273.542ZM101.021 272.294L100.079 270.015L99.1262 272.294H101.021ZM107.389 268.492C108.258 268.492 108.948 268.701 109.459 269.117C109.97 269.526 110.226 270.092 110.226 270.815C110.226 271.53 109.97 272.096 109.459 272.513C108.948 272.922 108.258 273.126 107.389 273.126H106.249V274.791H104.519V268.492H107.389ZM107.268 271.79C107.67 271.79 107.973 271.706 108.177 271.538C108.382 271.37 108.484 271.129 108.484 270.815C108.484 270.501 108.382 270.26 108.177 270.092C107.973 269.924 107.67 269.84 107.268 269.84H106.249V271.79H107.268ZM111.493 268.492H113.224V270.902H115.787V268.492H117.518V274.791H115.787V272.294H113.224V274.791H111.493V268.492ZM119.206 268.492H120.937V274.791H119.206V268.492ZM123.791 269.84H121.808V268.492H127.504V269.84H125.521V274.791H123.791V269.84ZM133.467 273.466V274.791H128.395V268.492H133.346V269.818H130.104V270.968H132.974V272.228H130.104V273.466H133.467Z" fill="#FDBD00"/>
<g filter="url(#filter12_ddd_7091_131350)">
<path d="M229.707 327.343L355.832 255.465L476.532 327.343V467.029L355.832 532.126L229.707 467.029V327.343Z" fill="#163220"/>
</g>
<path d="M341.254 327.498H370.412" stroke="#FDBD00" stroke-width="5.42473" stroke-linecap="round" stroke-linejoin="round"/>
<path d="M381.343 343.773H330.317C326.291 343.773 323.027 347.417 323.027 351.911V429.213C323.027 433.707 326.291 437.35 330.317 437.35H381.343C385.369 437.35 388.633 433.707 388.633 429.213V351.911C388.633 347.417 385.369 343.773 381.343 343.773Z" stroke="#FDBD00" stroke-width="5.42473" stroke-linecap="round" stroke-linejoin="round"/>
<path d="M355.832 410.904L363.122 390.561H348.543L355.832 370.219" stroke="#FDBD00" stroke-width="5.42473" stroke-linecap="round" stroke-linejoin="round"/>
<path d="M316.017 461.536H318.179V465.684C317.624 466.103 316.981 466.424 316.251 466.648C315.52 466.872 314.785 466.984 314.045 466.984C312.984 466.984 312.03 466.76 311.183 466.312C310.336 465.854 309.669 465.226 309.182 464.428C308.705 463.62 308.466 462.709 308.466 461.697C308.466 460.684 308.705 459.779 309.182 458.98C309.669 458.172 310.34 457.544 311.197 457.096C312.054 456.638 313.018 456.41 314.089 456.41C314.985 456.41 315.798 456.561 316.528 456.862C317.259 457.164 317.872 457.602 318.369 458.177L316.85 459.579C316.119 458.81 315.238 458.425 314.206 458.425C313.554 458.425 312.974 458.561 312.468 458.834C311.962 459.107 311.567 459.491 311.285 459.988C311.003 460.484 310.861 461.054 310.861 461.697C310.861 462.33 311.003 462.894 311.285 463.391C311.567 463.888 311.957 464.277 312.453 464.559C312.96 464.832 313.534 464.968 314.177 464.968C314.858 464.968 315.472 464.822 316.017 464.53V461.536ZM320.289 458.411H322.597V465.012H326.701V466.809H320.289V458.411ZM331.881 466.969C330.985 466.969 330.177 466.784 329.457 466.414C328.746 466.035 328.186 465.514 327.777 464.851C327.368 464.189 327.164 463.444 327.164 462.617C327.164 461.789 327.368 461.044 327.777 460.382C328.186 459.71 328.746 459.189 329.457 458.819C330.177 458.44 330.985 458.25 331.881 458.25C332.777 458.25 333.58 458.44 334.291 458.819C335.011 459.189 335.576 459.71 335.985 460.382C336.394 461.044 336.599 461.789 336.599 462.617C336.599 463.444 336.394 464.189 335.985 464.851C335.576 465.514 335.011 466.035 334.291 466.414C333.58 466.784 332.777 466.969 331.881 466.969ZM331.881 465.085C332.329 465.085 332.733 464.978 333.093 464.764C333.463 464.55 333.751 464.258 333.955 463.888C334.16 463.508 334.262 463.084 334.262 462.617C334.262 462.14 334.16 461.716 333.955 461.346C333.751 460.966 333.463 460.669 333.093 460.455C332.733 460.241 332.329 460.134 331.881 460.134C331.433 460.134 331.024 460.241 330.654 460.455C330.294 460.669 330.007 460.966 329.793 461.346C329.588 461.716 329.486 462.14 329.486 462.617C329.486 463.084 329.588 463.508 329.793 463.888C330.007 464.258 330.294 464.55 330.654 464.764C331.024 464.978 331.433 465.085 331.881 465.085ZM344.79 462.427C345.257 462.602 345.617 462.865 345.87 463.216C346.133 463.566 346.265 463.995 346.265 464.501C346.265 465.231 345.963 465.801 345.359 466.21C344.765 466.609 343.899 466.809 342.759 466.809H338.232V458.411H342.526C343.607 458.411 344.429 458.61 344.994 459.009C345.559 459.409 345.841 459.944 345.841 460.616C345.841 461.015 345.749 461.371 345.564 461.682C345.388 461.994 345.13 462.242 344.79 462.427ZM340.51 460.032V461.799H342.234C342.652 461.799 342.974 461.726 343.198 461.58C343.422 461.424 343.534 461.205 343.534 460.923C343.534 460.631 343.422 460.411 343.198 460.265C342.983 460.11 342.662 460.032 342.234 460.032H340.51ZM342.599 465.187C343.495 465.187 343.942 464.881 343.942 464.267C343.942 463.654 343.495 463.347 342.599 463.347H340.51V465.187H342.599ZM353.454 465.144H349.525L348.824 466.809H346.589L350.357 458.411H352.636L356.418 466.809H354.14L353.454 465.144ZM352.752 463.479L351.496 460.441L350.226 463.479H352.752ZM357.416 458.411H359.723V465.012H363.827V466.809H357.416V458.411ZM369.299 456.585H371.665V464.881H376.791V466.809H369.299V456.585ZM382.835 466.984C381.793 466.984 380.849 466.76 380.001 466.312C379.164 465.854 378.502 465.226 378.015 464.428C377.538 463.62 377.299 462.709 377.299 461.697C377.299 460.684 377.538 459.779 378.015 458.98C378.502 458.172 379.164 457.544 380.001 457.096C380.849 456.638 381.798 456.41 382.849 456.41C383.736 456.41 384.534 456.565 385.245 456.877C385.965 457.189 386.569 457.636 387.056 458.221L385.537 459.623C384.846 458.824 383.989 458.425 382.966 458.425C382.333 458.425 381.769 458.566 381.272 458.849C380.776 459.121 380.386 459.506 380.104 460.003C379.831 460.499 379.695 461.064 379.695 461.697C379.695 462.33 379.831 462.894 380.104 463.391C380.386 463.888 380.776 464.277 381.272 464.559C381.769 464.832 382.333 464.968 382.966 464.968C383.989 464.968 384.846 464.564 385.537 463.756L387.056 465.158C386.569 465.752 385.965 466.205 385.245 466.516C384.524 466.828 383.721 466.984 382.835 466.984ZM395.187 464.618H390.44L389.535 466.809H387.11L391.667 456.585H394.004L398.575 466.809H396.093L395.187 464.618ZM394.442 462.821L392.821 458.907L391.2 462.821H394.442ZM400.337 458.294C400.746 458.294 401.082 458.425 401.345 458.688C401.618 458.941 401.754 459.263 401.754 459.652C401.754 459.847 401.73 460.041 401.681 460.236C401.642 460.421 401.54 460.694 401.374 461.054L400.673 462.704H399.227L399.724 460.864C399.48 460.767 399.286 460.616 399.14 460.411C399.003 460.197 398.935 459.944 398.935 459.652C398.935 459.263 399.067 458.941 399.329 458.688C399.602 458.425 399.938 458.294 400.337 458.294ZM406.303 466.969C405.622 466.969 404.955 466.886 404.302 466.721C403.66 466.555 403.144 466.336 402.754 466.064L403.557 464.355C403.937 464.608 404.38 464.808 404.887 464.954C405.393 465.1 405.909 465.173 406.435 465.173C406.922 465.173 407.272 465.11 407.486 464.983C407.71 464.847 407.822 464.666 407.822 464.443C407.822 464.189 407.686 464.004 407.413 463.888C407.141 463.761 406.707 463.639 406.113 463.522C405.461 463.386 404.925 463.245 404.507 463.099C404.088 462.943 403.723 462.695 403.411 462.354C403.11 462.013 402.959 461.546 402.959 460.952C402.959 460.426 403.11 459.959 403.411 459.55C403.713 459.141 404.147 458.824 404.711 458.6C405.286 458.367 405.958 458.25 406.727 458.25C407.292 458.25 407.842 458.313 408.377 458.44C408.913 458.557 409.375 458.737 409.765 458.98L409.02 460.689C408.319 460.261 407.525 460.046 406.639 460.046C406.162 460.046 405.807 460.119 405.573 460.265C405.349 460.402 405.237 460.587 405.237 460.82C405.237 461.074 405.373 461.259 405.646 461.375C405.919 461.492 406.352 461.609 406.946 461.726C407.589 461.862 408.119 462.008 408.538 462.164C408.966 462.31 409.331 462.554 409.633 462.894C409.945 463.225 410.101 463.678 410.101 464.253C410.101 464.788 409.95 465.26 409.648 465.669C409.356 466.078 408.922 466.4 408.348 466.633C407.774 466.857 407.092 466.969 406.303 466.969Z" fill="#FDBD00"/>
<defs>
<filter id="filter0_ddd_7091_131350" x="461.176" y="261.485" width="121.161" height="84.7875" filterUnits="userSpaceOnUse" color-interpolation-filters="sRGB">
<feFlood flood-opacity="0" result="BackgroundImageFix"/>
<feColorMatrix in="SourceAlpha" type="matrix" values="0 0 0 0 0 0 0 0 0 0 0 0 0 0 0 0 0 0 127 0" result="hardAlpha"/>
<feOffset dy="0.912834"/>
<feGaussianBlur stdDeviation="1.36925"/>
<feColorMatrix type="matrix" values="0 0 0 0 0 0 0 0 0 0 0 0 0 0 0 0 0 0 0.2 0"/>
<feBlend mode="normal" in2="BackgroundImageFix" result="effect1_dropShadow_7091_131350"/>
<feColorMatrix in="SourceAlpha" type="matrix" values="0 0 0 0 0 0 0 0 0 0 0 0 0 0 0 0 0 0 127 0" result="hardAlpha"/>
<feOffset dy="1.82567"/>
<feGaussianBlur stdDeviation="0.456417"/>
<feColorMatrix type="matrix" values="0 0 0 0 0 0 0 0 0 0 0 0 0 0 0 0 0 0 0.12 0"/>
<feBlend mode="normal" in2="effect1_dropShadow_7091_131350" result="effect2_dropShadow_7091_131350"/>
<feColorMatrix in="SourceAlpha" type="matrix" values="0 0 0 0 0 0 0 0 0 0 0 0 0 0 0 0 0 0 127 0" result="hardAlpha"/>
<feOffset dy="0.912834"/>
<feGaussianBlur stdDeviation="0.456417"/>
<feColorMatrix type="matrix" values="0 0 0 0 0 0 0 0 0 0 0 0 0 0 0 0 0 0 0.14 0"/>
<feBlend mode="normal" in2="effect2_dropShadow_7091_131350" result="effect3_dropShadow_7091_131350"/>
<feBlend mode="normal" in="SourceGraphic" in2="effect3_dropShadow_7091_131350" result="shape"/>
</filter>
<filter id="filter1_ddd_7091_131350" x="460.23" y="453.557" width="120.274" height="74.4438" filterUnits="userSpaceOnUse" color-interpolation-filters="sRGB">
<feFlood flood-opacity="0" result="BackgroundImageFix"/>
<feColorMatrix in="SourceAlpha" type="matrix" values="0 0 0 0 0 0 0 0 0 0 0 0 0 0 0 0 0 0 127 0" result="hardAlpha"/>
<feOffset dy="0.912834"/>
<feGaussianBlur stdDeviation="1.36925"/>
<feColorMatrix type="matrix" values="0 0 0 0 0 0 0 0 0 0 0 0 0 0 0 0 0 0 0.2 0"/>
<feBlend mode="normal" in2="BackgroundImageFix" result="effect1_dropShadow_7091_131350"/>
<feColorMatrix in="SourceAlpha" type="matrix" values="0 0 0 0 0 0 0 0 0 0 0 0 0 0 0 0 0 0 127 0" result="hardAlpha"/>
<feOffset dy="1.82567"/>
<feGaussianBlur stdDeviation="0.456417"/>
<feColorMatrix type="matrix" values="0 0 0 0 0 0 0 0 0 0 0 0 0 0 0 0 0 0 0.12 0"/>
<feBlend mode="normal" in2="effect1_dropShadow_7091_131350" result="effect2_dropShadow_7091_131350"/>
<feColorMatrix in="SourceAlpha" type="matrix" values="0 0 0 0 0 0 0 0 0 0 0 0 0 0 0 0 0 0 127 0" result="hardAlpha"/>
<feOffset dy="0.912834"/>
<feGaussianBlur stdDeviation="0.456417"/>
<feColorMatrix type="matrix" values="0 0 0 0 0 0 0 0 0 0 0 0 0 0 0 0 0 0 0.14 0"/>
<feBlend mode="normal" in2="effect2_dropShadow_7091_131350" result="effect3_dropShadow_7091_131350"/>
<feBlend mode="normal" in="SourceGraphic" in2="effect3_dropShadow_7091_131350" result="shape"/>
</filter>
<filter id="filter2_ddd_7091_131350" x="346.308" y="519.813" width="19.0395" height="122.108" filterUnits="userSpaceOnUse" color-interpolation-filters="sRGB">
<feFlood flood-opacity="0" result="BackgroundImageFix"/>
<feColorMatrix in="SourceAlpha" type="matrix" values="0 0 0 0 0 0 0 0 0 0 0 0 0 0 0 0 0 0 127 0" result="hardAlpha"/>
<feOffset dy="0.912834"/>
<feGaussianBlur stdDeviation="1.36925"/>
<feColorMatrix type="matrix" values="0 0 0 0 0 0 0 0 0 0 0 0 0 0 0 0 0 0 0.2 0"/>
<feBlend mode="normal" in2="BackgroundImageFix" result="effect1_dropShadow_7091_131350"/>
<feColorMatrix in="SourceAlpha" type="matrix" values="0 0 0 0 0 0 0 0 0 0 0 0 0 0 0 0 0 0 127 0" result="hardAlpha"/>
<feOffset dy="1.82567"/>
<feGaussianBlur stdDeviation="0.456417"/>
<feColorMatrix type="matrix" values="0 0 0 0 0 0 0 0 0 0 0 0 0 0 0 0 0 0 0.12 0"/>
<feBlend mode="normal" in2="effect1_dropShadow_7091_131350" result="effect2_dropShadow_7091_131350"/>
<feColorMatrix in="SourceAlpha" type="matrix" values="0 0 0 0 0 0 0 0 0 0 0 0 0 0 0 0 0 0 127 0" result="hardAlpha"/>
<feOffset dy="0.912834"/>
<feGaussianBlur stdDeviation="0.456417"/>
<feColorMatrix type="matrix" values="0 0 0 0 0 0 0 0 0 0 0 0 0 0 0 0 0 0 0.14 0"/>
<feBlend mode="normal" in2="effect2_dropShadow_7091_131350" result="effect3_dropShadow_7091_131350"/>
<feBlend mode="normal" in="SourceGraphic" in2="effect3_dropShadow_7091_131350" result="shape"/>
</filter>
<filter id="filter3_ddd_7091_131350" x="130.894" y="453.694" width="115.106" height="74.3071" filterUnits="userSpaceOnUse" color-interpolation-filters="sRGB">
<feFlood flood-opacity="0" result="BackgroundImageFix"/>
<feColorMatrix in="SourceAlpha" type="matrix" values="0 0 0 0 0 0 0 0 0 0 0 0 0 0 0 0 0 0 127 0" result="hardAlpha"/>
<feOffset dy="0.912834"/>
<feGaussianBlur stdDeviation="1.36925"/>
<feColorMatrix type="matrix" values="0 0 0 0 0 0 0 0 0 0 0 0 0 0 0 0 0 0 0.2 0"/>
<feBlend mode="normal" in2="BackgroundImageFix" result="effect1_dropShadow_7091_131350"/>
<feColorMatrix in="SourceAlpha" type="matrix" values="0 0 0 0 0 0 0 0 0 0 0 0 0 0 0 0 0 0 127 0" result="hardAlpha"/>
<feOffset dy="1.82567"/>
<feGaussianBlur stdDeviation="0.456417"/>
<feColorMatrix type="matrix" values="0 0 0 0 0 0 0 0 0 0 0 0 0 0 0 0 0 0 0.12 0"/>
<feBlend mode="normal" in2="effect1_dropShadow_7091_131350" result="effect2_dropShadow_7091_131350"/>
<feColorMatrix in="SourceAlpha" type="matrix" values="0 0 0 0 0 0 0 0 0 0 0 0 0 0 0 0 0 0 127 0" result="hardAlpha"/>
<feOffset dy="0.912834"/>
<feGaussianBlur stdDeviation="0.456417"/>
<feColorMatrix type="matrix" values="0 0 0 0 0 0 0 0 0 0 0 0 0 0 0 0 0 0 0.14 0"/>
<feBlend mode="normal" in2="effect2_dropShadow_7091_131350" result="effect3_dropShadow_7091_131350"/>
<feBlend mode="normal" in="SourceGraphic" in2="effect3_dropShadow_7091_131350" result="shape"/>
</filter>
<filter id="filter4_ddd_7091_131350" x="121.179" y="261.407" width="123.743" height="84.8637" filterUnits="userSpaceOnUse" color-interpolation-filters="sRGB">
<feFlood flood-opacity="0" result="BackgroundImageFix"/>
<feColorMatrix in="SourceAlpha" type="matrix" values="0 0 0 0 0 0 0 0 0 0 0 0 0 0 0 0 0 0 127 0" result="hardAlpha"/>
<feOffset dy="0.912834"/>
<feGaussianBlur stdDeviation="1.36925"/>
<feColorMatrix type="matrix" values="0 0 0 0 0 0 0 0 0 0 0 0 0 0 0 0 0 0 0.2 0"/>
<feBlend mode="normal" in2="BackgroundImageFix" result="effect1_dropShadow_7091_131350"/>
<feColorMatrix in="SourceAlpha" type="matrix" values="0 0 0 0 0 0 0 0 0 0 0 0 0 0 0 0 0 0 127 0" result="hardAlpha"/>
<feOffset dy="1.82567"/>
<feGaussianBlur stdDeviation="0.456417"/>
<feColorMatrix type="matrix" values="0 0 0 0 0 0 0 0 0 0 0 0 0 0 0 0 0 0 0.12 0"/>
<feBlend mode="normal" in2="effect1_dropShadow_7091_131350" result="effect2_dropShadow_7091_131350"/>
<feColorMatrix in="SourceAlpha" type="matrix" values="0 0 0 0 0 0 0 0 0 0 0 0 0 0 0 0 0 0 127 0" result="hardAlpha"/>
<feOffset dy="0.912834"/>
<feGaussianBlur stdDeviation="0.456417"/>
<feColorMatrix type="matrix" values="0 0 0 0 0 0 0 0 0 0 0 0 0 0 0 0 0 0 0.14 0"/>
<feBlend mode="normal" in2="effect2_dropShadow_7091_131350" result="effect3_dropShadow_7091_131350"/>
<feBlend mode="normal" in="SourceGraphic" in2="effect3_dropShadow_7091_131350" result="shape"/>
</filter>
<filter id="filter5_ddd_7091_131350" x="346.308" y="148.219" width="19.0395" height="122.108" filterUnits="userSpaceOnUse" color-interpolation-filters="sRGB">
<feFlood flood-opacity="0" result="BackgroundImageFix"/>
<feColorMatrix in="SourceAlpha" type="matrix" values="0 0 0 0 0 0 0 0 0 0 0 0 0 0 0 0 0 0 127 0" result="hardAlpha"/>
<feOffset dy="0.912834"/>
<feGaussianBlur stdDeviation="1.36925"/>
<feColorMatrix type="matrix" values="0 0 0 0 0 0 0 0 0 0 0 0 0 0 0 0 0 0 0.2 0"/>
<feBlend mode="normal" in2="BackgroundImageFix" result="effect1_dropShadow_7091_131350"/>
<feColorMatrix in="SourceAlpha" type="matrix" values="0 0 0 0 0 0 0 0 0 0 0 0 0 0 0 0 0 0 127 0" result="hardAlpha"/>
<feOffset dy="1.82567"/>
<feGaussianBlur stdDeviation="0.456417"/>
<feColorMatrix type="matrix" values="0 0 0 0 0 0 0 0 0 0 0 0 0 0 0 0 0 0 0.12 0"/>
<feBlend mode="normal" in2="effect1_dropShadow_7091_131350" result="effect2_dropShadow_7091_131350"/>
<feColorMatrix in="SourceAlpha" type="matrix" values="0 0 0 0 0 0 0 0 0 0 0 0 0 0 0 0 0 0 127 0" result="hardAlpha"/>
<feOffset dy="0.912834"/>
<feGaussianBlur stdDeviation="0.456417"/>
<feColorMatrix type="matrix" values="0 0 0 0 0 0 0 0 0 0 0 0 0 0 0 0 0 0 0.14 0"/>
<feBlend mode="normal" in2="effect2_dropShadow_7091_131350" result="effect3_dropShadow_7091_131350"/>
<feBlend mode="normal" in="SourceGraphic" in2="effect3_dropShadow_7091_131350" result="shape"/>
</filter>
<filter id="filter6_ddd_7091_131350" x="556.79" y="152.316" width="153.874" height="170.268" filterUnits="userSpaceOnUse" color-interpolation-filters="sRGB">
<feFlood flood-opacity="0" result="BackgroundImageFix"/>
<feColorMatrix in="SourceAlpha" type="matrix" values="0 0 0 0 0 0 0 0 0 0 0 0 0 0 0 0 0 0 127 0" result="hardAlpha"/>
<feOffset dy="1.82567"/>
<feGaussianBlur stdDeviation="1.82567"/>
<feColorMatrix type="matrix" values="0 0 0 0 0 0 0 0 0 0 0 0 0 0 0 0 0 0 0.2 0"/>
<feBlend mode="normal" in2="BackgroundImageFix" result="effect1_dropShadow_7091_131350"/>
<feColorMatrix in="SourceAlpha" type="matrix" values="0 0 0 0 0 0 0 0 0 0 0 0 0 0 0 0 0 0 127 0" result="hardAlpha"/>
<feOffset dy="0.912834"/>
<feGaussianBlur stdDeviation="4.56417"/>
<feColorMatrix type="matrix" values="0 0 0 0 0 0 0 0 0 0 0 0 0 0 0 0 0 0 0.12 0"/>
<feBlend mode="normal" in2="effect1_dropShadow_7091_131350" result="effect2_dropShadow_7091_131350"/>
<feColorMatrix in="SourceAlpha" type="matrix" values="0 0 0 0 0 0 0 0 0 0 0 0 0 0 0 0 0 0 127 0" result="hardAlpha"/>
<feOffset dy="3.65133"/>
<feGaussianBlur stdDeviation="2.28208"/>
<feColorMatrix type="matrix" values="0 0 0 0 0 0 0 0 0 0 0 0 0 0 0 0 0 0 0.14 0"/>
<feBlend mode="normal" in2="effect2_dropShadow_7091_131350" result="effect3_dropShadow_7091_131350"/>
<feBlend mode="normal" in="SourceGraphic" in2="effect3_dropShadow_7091_131350" result="shape"/>
</filter>
<filter id="filter7_ddd_7091_131350" x="556.79" y="464.503" width="153.874" height="170.268" filterUnits="userSpaceOnUse" color-interpolation-filters="sRGB">
<feFlood flood-opacity="0" result="BackgroundImageFix"/>
<feColorMatrix in="SourceAlpha" type="matrix" values="0 0 0 0 0 0 0 0 0 0 0 0 0 0 0 0 0 0 127 0" result="hardAlpha"/>
<feOffset dy="1.82567"/>
<feGaussianBlur stdDeviation="1.82567"/>
<feColorMatrix type="matrix" values="0 0 0 0 0 0 0 0 0 0 0 0 0 0 0 0 0 0 0.2 0"/>
<feBlend mode="normal" in2="BackgroundImageFix" result="effect1_dropShadow_7091_131350"/>
<feColorMatrix in="SourceAlpha" type="matrix" values="0 0 0 0 0 0 0 0 0 0 0 0 0 0 0 0 0 0 127 0" result="hardAlpha"/>
<feOffset dy="0.912834"/>
<feGaussianBlur stdDeviation="4.56417"/>
<feColorMatrix type="matrix" values="0 0 0 0 0 0 0 0 0 0 0 0 0 0 0 0 0 0 0.12 0"/>
<feBlend mode="normal" in2="effect1_dropShadow_7091_131350" result="effect2_dropShadow_7091_131350"/>
<feColorMatrix in="SourceAlpha" type="matrix" values="0 0 0 0 0 0 0 0 0 0 0 0 0 0 0 0 0 0 127 0" result="hardAlpha"/>
<feOffset dy="3.65133"/>
<feGaussianBlur stdDeviation="2.28208"/>
<feColorMatrix type="matrix" values="0 0 0 0 0 0 0 0 0 0 0 0 0 0 0 0 0 0 0.14 0"/>
<feBlend mode="normal" in2="effect2_dropShadow_7091_131350" result="effect3_dropShadow_7091_131350"/>
<feBlend mode="normal" in="SourceGraphic" in2="effect3_dropShadow_7091_131350" result="shape"/>
</filter>
<filter id="filter8_ddd_7091_131350" x="277.458" y="618.773" width="153.874" height="170.268" filterUnits="userSpaceOnUse" color-interpolation-filters="sRGB">
<feFlood flood-opacity="0" result="BackgroundImageFix"/>
<feColorMatrix in="SourceAlpha" type="matrix" values="0 0 0 0 0 0 0 0 0 0 0 0 0 0 0 0 0 0 127 0" result="hardAlpha"/>
<feOffset dy="1.82567"/>
<feGaussianBlur stdDeviation="1.82567"/>
<feColorMatrix type="matrix" values="0 0 0 0 0 0 0 0 0 0 0 0 0 0 0 0 0 0 0.2 0"/>
<feBlend mode="normal" in2="BackgroundImageFix" result="effect1_dropShadow_7091_131350"/>
<feColorMatrix in="SourceAlpha" type="matrix" values="0 0 0 0 0 0 0 0 0 0 0 0 0 0 0 0 0 0 127 0" result="hardAlpha"/>
<feOffset dy="0.912834"/>
<feGaussianBlur stdDeviation="4.56417"/>
<feColorMatrix type="matrix" values="0 0 0 0 0 0 0 0 0 0 0 0 0 0 0 0 0 0 0.12 0"/>
<feBlend mode="normal" in2="effect1_dropShadow_7091_131350" result="effect2_dropShadow_7091_131350"/>
<feColorMatrix in="SourceAlpha" type="matrix" values="0 0 0 0 0 0 0 0 0 0 0 0 0 0 0 0 0 0 127 0" result="hardAlpha"/>
<feOffset dy="3.65133"/>
<feGaussianBlur stdDeviation="2.28208"/>
<feColorMatrix type="matrix" values="0 0 0 0 0 0 0 0 0 0 0 0 0 0 0 0 0 0 0.14 0"/>
<feBlend mode="normal" in2="effect2_dropShadow_7091_131350" result="effect3_dropShadow_7091_131350"/>
<feBlend mode="normal" in="SourceGraphic" in2="effect3_dropShadow_7091_131350" result="shape"/>
</filter>
<filter id="filter9_ddd_7091_131350" x="0.871665" y="464.503" width="153.874" height="170.268" filterUnits="userSpaceOnUse" color-interpolation-filters="sRGB">
<feFlood flood-opacity="0" result="BackgroundImageFix"/>
<feColorMatrix in="SourceAlpha" type="matrix" values="0 0 0 0 0 0 0 0 0 0 0 0 0 0 0 0 0 0 127 0" result="hardAlpha"/>
<feOffset dy="1.82567"/>
<feGaussianBlur stdDeviation="1.82567"/>
<feColorMatrix type="matrix" values="0 0 0 0 0 0 0 0 0 0 0 0 0 0 0 0 0 0 0.2 0"/>
<feBlend mode="normal" in2="BackgroundImageFix" result="effect1_dropShadow_7091_131350"/>
<feColorMatrix in="SourceAlpha" type="matrix" values="0 0 0 0 0 0 0 0 0 0 0 0 0 0 0 0 0 0 127 0" result="hardAlpha"/>
<feOffset dy="0.912834"/>
<feGaussianBlur stdDeviation="4.56417"/>
<feColorMatrix type="matrix" values="0 0 0 0 0 0 0 0 0 0 0 0 0 0 0 0 0 0 0.12 0"/>
<feBlend mode="normal" in2="effect1_dropShadow_7091_131350" result="effect2_dropShadow_7091_131350"/>
<feColorMatrix in="SourceAlpha" type="matrix" values="0 0 0 0 0 0 0 0 0 0 0 0 0 0 0 0 0 0 127 0" result="hardAlpha"/>
<feOffset dy="3.65133"/>
<feGaussianBlur stdDeviation="2.28208"/>
<feColorMatrix type="matrix" values="0 0 0 0 0 0 0 0 0 0 0 0 0 0 0 0 0 0 0.14 0"/>
<feBlend mode="normal" in2="effect2_dropShadow_7091_131350" result="effect3_dropShadow_7091_131350"/>
<feBlend mode="normal" in="SourceGraphic" in2="effect3_dropShadow_7091_131350" result="shape"/>
</filter>
<filter id="filter10_ddd_7091_131350" x="0.871665" y="152.316" width="153.874" height="170.268" filterUnits="userSpaceOnUse" color-interpolation-filters="sRGB">
<feFlood flood-opacity="0" result="BackgroundImageFix"/>
<feColorMatrix in="SourceAlpha" type="matrix" values="0 0 0 0 0 0 0 0 0 0 0 0 0 0 0 0 0 0 127 0" result="hardAlpha"/>
<feOffset dy="1.82567"/>
<feGaussianBlur stdDeviation="1.82567"/>
<feColorMatrix type="matrix" values="0 0 0 0 0 0 0 0 0 0 0 0 0 0 0 0 0 0 0.2 0"/>
<feBlend mode="normal" in2="BackgroundImageFix" result="effect1_dropShadow_7091_131350"/>
<feColorMatrix in="SourceAlpha" type="matrix" values="0 0 0 0 0 0 0 0 0 0 0 0 0 0 0 0 0 0 127 0" result="hardAlpha"/>
<feOffset dy="0.912834"/>
<feGaussianBlur stdDeviation="4.56417"/>
<feColorMatrix type="matrix" values="0 0 0 0 0 0 0 0 0 0 0 0 0 0 0 0 0 0 0.12 0"/>
<feBlend mode="normal" in2="effect1_dropShadow_7091_131350" result="effect2_dropShadow_7091_131350"/>
<feColorMatrix in="SourceAlpha" type="matrix" values="0 0 0 0 0 0 0 0 0 0 0 0 0 0 0 0 0 0 127 0" result="hardAlpha"/>
<feOffset dy="3.65133"/>
<feGaussianBlur stdDeviation="2.28208"/>
<feColorMatrix type="matrix" values="0 0 0 0 0 0 0 0 0 0 0 0 0 0 0 0 0 0 0.14 0"/>
<feBlend mode="normal" in2="effect2_dropShadow_7091_131350" result="effect3_dropShadow_7091_131350"/>
<feBlend mode="normal" in="SourceGraphic" in2="effect3_dropShadow_7091_131350" result="shape"/>
</filter>
<filter id="filter11_ddd_7091_131350" x="277.458" y="0.784499" width="153.874" height="170.268" filterUnits="userSpaceOnUse" color-interpolation-filters="sRGB">
<feFlood flood-opacity="0" result="BackgroundImageFix"/>
<feColorMatrix in="SourceAlpha" type="matrix" values="0 0 0 0 0 0 0 0 0 0 0 0 0 0 0 0 0 0 127 0" result="hardAlpha"/>
<feOffset dy="1.82567"/>
<feGaussianBlur stdDeviation="1.82567"/>
<feColorMatrix type="matrix" values="0 0 0 0 0 0 0 0 0 0 0 0 0 0 0 0 0 0 0.2 0"/>
<feBlend mode="normal" in2="BackgroundImageFix" result="effect1_dropShadow_7091_131350"/>
<feColorMatrix in="SourceAlpha" type="matrix" values="0 0 0 0 0 0 0 0 0 0 0 0 0 0 0 0 0 0 127 0" result="hardAlpha"/>
<feOffset dy="0.912834"/>
<feGaussianBlur stdDeviation="4.56417"/>
<feColorMatrix type="matrix" values="0 0 0 0 0 0 0 0 0 0 0 0 0 0 0 0 0 0 0.12 0"/>
<feBlend mode="normal" in2="effect1_dropShadow_7091_131350" result="effect2_dropShadow_7091_131350"/>
<feColorMatrix in="SourceAlpha" type="matrix" values="0 0 0 0 0 0 0 0 0 0 0 0 0 0 0 0 0 0 127 0" result="hardAlpha"/>
<feOffset dy="3.65133"/>
<feGaussianBlur stdDeviation="2.28208"/>
<feColorMatrix type="matrix" values="0 0 0 0 0 0 0 0 0 0 0 0 0 0 0 0 0 0 0.14 0"/>
<feBlend mode="normal" in2="effect2_dropShadow_7091_131350" result="effect3_dropShadow_7091_131350"/>
<feBlend mode="normal" in="SourceGraphic" in2="effect3_dropShadow_7091_131350" result="shape"/>
</filter>
<filter id="filter12_ddd_7091_131350" x="213.276" y="239.947" width="279.686" height="309.524" filterUnits="userSpaceOnUse" color-interpolation-filters="sRGB">
<feFlood flood-opacity="0" result="BackgroundImageFix"/>
<feColorMatrix in="SourceAlpha" type="matrix" values="0 0 0 0 0 0 0 0 0 0 0 0 0 0 0 0 0 0 127 0" result="hardAlpha"/>
<feOffset dy="2.7385"/>
<feGaussianBlur stdDeviation="2.28208"/>
<feColorMatrix type="matrix" values="0 0 0 0 0 0 0 0 0 0 0 0 0 0 0 0 0 0 0.2 0"/>
<feBlend mode="normal" in2="BackgroundImageFix" result="effect1_dropShadow_7091_131350"/>
<feColorMatrix in="SourceAlpha" type="matrix" values="0 0 0 0 0 0 0 0 0 0 0 0 0 0 0 0 0 0 127 0" result="hardAlpha"/>
<feOffset dy="0.912834"/>
<feGaussianBlur stdDeviation="8.2155"/>
<feColorMatrix type="matrix" values="0 0 0 0 0 0 0 0 0 0 0 0 0 0 0 0 0 0 0.12 0"/>
<feBlend mode="normal" in2="effect1_dropShadow_7091_131350" result="effect2_dropShadow_7091_131350"/>
<feColorMatrix in="SourceAlpha" type="matrix" values="0 0 0 0 0 0 0 0 0 0 0 0 0 0 0 0 0 0 127 0" result="hardAlpha"/>
<feOffset dy="5.477"/>
<feGaussianBlur stdDeviation="4.56417"/>
<feColorMatrix type="matrix" values="0 0 0 0 0 0 0 0 0 0 0 0 0 0 0 0 0 0 0.14 0"/>
<feBlend mode="normal" in2="effect2_dropShadow_7091_131350" result="effect3_dropShadow_7091_131350"/>
<feBlend mode="normal" in="SourceGraphic" in2="effect3_dropShadow_7091_131350" result="shape"/>
</filter>
</defs>
</svg>
