<svg width="2352" height="2349" fill="none" xmlns="http://www.w3.org/2000/svg"><path d="M987.914 1782.22a368.62 368.62 0 0 0 82.886-28.75 553.863 553.863 0 0 0 106.26 45.12c-47.01 22.38-131.64 15-189.146-16.37Z" stroke="#E9E9E9" stroke-width=".25" stroke-miterlimit="10"/><path d="M1014.67 1775.34c38.63 21.13 95.38 26.13 126.89 11.13M1042.42 1765.85c9.67 5.22 20.3 8.4 31.25 9.35 10.94.94 21.97-.37 32.38-3.85" stroke="#E9E9E9" stroke-width=".25" stroke-miterlimit="10"/><path d="M1052.05 1805.34c5.37-12.5 11.75-30.37 18.75-51.87M1119.93 1811.72a307.409 307.409 0 0 1-49.13-57.87" stroke="#E9E9E9" stroke-width=".25" stroke-miterlimit="10"/><path d="M1177.06 1799.22a553.9 553.9 0 0 1-106.26-45.13 568.878 568.878 0 0 0 87.51-52.24c57.25 30.75 65.75 74.37 18.75 97.37Z" stroke="#E9E9E9" stroke-width=".25" stroke-miterlimit="10"/><path d="M1141.56 1786.72c31.62-15 25.87-44.38-12.51-65.38M1106.05 1771.34c15.88-7.5 12.5-22.25-6.37-32.87" stroke="#E9E9E9" stroke-width=".25" stroke-miterlimit="10"/><path d="M1205.81 1770.47a779.628 779.628 0 0 1-135.01-17M1198.94 1735.46a726.91 726.91 0 0 1-128.14 18M1158.06 1701.22c-27.55 20-56.84 37.49-87.51 52.25-36-19.81-70.14-42.82-102.013-68.75 47.253-22.37 132.013-15 189.523 16.5Z" stroke="#E9E9E9" stroke-width=".25" stroke-miterlimit="10"/><path d="M1128.81 1721.09c-38.51-21.12-95.39-26.12-126.89-11.12M1099.68 1738.47a80.573 80.573 0 0 0-31.31-9.36c-10.97-.95-22.01.37-32.45 3.86" stroke="#E9E9E9" stroke-width=".25" stroke-miterlimit="10"/><path d="M1093.8 1677.97c-8.25 28.5-16 54-23 75" stroke="#E9E9E9" stroke-width=".25" stroke-miterlimit="10"/><path d="M1026.42 1672.1a559.698 559.698 0 0 0 44.88 81.37M968.788 1684.72a684.708 684.708 0 0 0 102.012 68.75 368.63 368.63 0 0 1-82.885 28.75c-57.506-31.5-66.132-75.12-19.127-97.5Z" stroke="#E9E9E9" stroke-width=".25" stroke-miterlimit="10"/><path d="M1001.42 1709.97c-31.505 15-25.879 44.37 12.5 65.37M1035.92 1732.96c-15.75 7.5-12.5 22.25 6.5 32.88" stroke="#E9E9E9" stroke-width=".25" stroke-miterlimit="10"/><path d="M940.033 1712.97a793.631 793.631 0 0 0 130.767 40.5" stroke="#E9E9E9" stroke-width=".25" stroke-miterlimit="10"/><path d="M946.91 1747.96a641.652 641.652 0 0 0 123.89 5.5" stroke="#E9E9E9" stroke-width=".25" stroke-miterlimit="10"/><path d="M987.915 1782.22c-57.506-31.5-66.132-75-19.127-97.49 47.002-22.5 131.762-15 189.272 16.49 57.5 31.5 66 75 19 97.37-47 22.38-131.64 15-189.145-16.37Z" stroke="#E9E9E9" stroke-width=".25" stroke-miterlimit="10"/><path d="M987.915 1782.22c-57.506-31.5-66.132-75-19.127-97.49 47.002-22.5 131.762-15 189.272 16.49 57.5 31.5 66 75 19 97.37-47 22.38-131.64 15-189.145-16.37Z" stroke="#E9E9E9" stroke-miterlimit="10"/><path d="M992.668 2182.57a642 642 0 0 1-144.016 50c100.011 54.62 247.028 67.5 328.658 28.63a994.757 994.757 0 0 1-184.642-78.63Z" stroke="#E9E9E9" stroke-width=".25" stroke-miterlimit="10"/><path d="M943.412 2203.95c33.629 18.37 83.008 22.62 110.508 9.5M895.281 2220.57c67.007 36.63 165.519 45.13 220.269 19.13" stroke="#E9E9E9" stroke-width=".25" stroke-miterlimit="10"/><path d="M992.666 2182.57c-12.502 37.5-23.128 67.5-32.629 90.25M992.668 2182.57a541.253 541.253 0 0 0 85.382 100" stroke="#E9E9E9" stroke-width=".25" stroke-miterlimit="10"/><path d="M992.668 2182.58a995.51 995.51 0 0 0 184.642 79.12c81.64-38.87 66.76-114.75-33.13-169.37a985.594 985.594 0 0 1-151.512 90.25Z" stroke="#E9E9E9" stroke-width=".25" stroke-miterlimit="10"/><path d="M1053.93 2213.45c27.37-12.5 22.37-38.5-11.13-56.88M1115.56 2239.7c54.63-26 44.75-76.87-22.13-113.37" stroke="#E9E9E9" stroke-width=".25" stroke-miterlimit="10"/><path d="M992.668 2182.57a1350.163 1350.163 0 0 0 234.522 29.13M992.668 2182.57a1281.133 1281.133 0 0 0 222.652-31.25" stroke="#E9E9E9" stroke-width=".25" stroke-miterlimit="10"/><path d="M992.669 2182.57a985.45 985.45 0 0 0 151.521-90.87c-100.02-54.62-247.031-67.37-328.665-28.5a1192.423 1192.423 0 0 0 177.144 119.37Z" stroke="#E9E9E9" stroke-width=".25" stroke-miterlimit="10"/><path d="M1042.8 2156.57c-33.63-18.37-83.012-22.62-110.515-9.5M1093.43 2126.32c-67.01-36.62-165.645-45.24-220.276-19.24" stroke="#E9E9E9" stroke-width=".25" stroke-miterlimit="10"/><path d="M992.668 2182.57c12.502-37.5 25.752-81.37 40.002-131.12M992.668 2182.57a996.917 996.917 0 0 1-77.883-141.37M992.667 2182.58a1193.967 1193.967 0 0 1-177.144-119.37c-81.633 38.87-66.882 114.62 33.129 169.24a642.322 642.322 0 0 0 144.015-49.87Z" stroke="#E9E9E9" stroke-width=".25" stroke-miterlimit="10"/><path d="M932.286 2147.08c-27.378 12.5-22.377 38.5 11.126 56.87M873.154 2107.08c-54.755 26.12-44.754 76.87 22.128 113.49" stroke="#E9E9E9" stroke-width=".25" stroke-miterlimit="10"/><path d="M992.667 2182.57a1355.84 1355.84 0 0 1-227.024-70.87M992.667 2182.57a1121.78 1121.78 0 0 1-215.147-9.62" stroke="#E9E9E9" stroke-width=".25" stroke-miterlimit="10"/><path d="M992.667 2182.57a642.49 642.49 0 0 1-144.015 50c-100.011-54.63-114.762-130.37-33.129-169.25 81.634-38.87 228.777-26.12 328.657 28.5 99.89 54.63 114.77 130.5 33.13 169.37-81.63 38.87-228.773 26-328.658-28.62a642.49 642.49 0 0 0 144.015-50Z" stroke="#E9E9E9" stroke-width=".25" stroke-miterlimit="10"/><path d="M992.667 2182.57a642.49 642.49 0 0 1-144.015 50c-100.011-54.63-114.762-130.37-33.129-169.25 81.634-38.87 228.777-26.12 328.657 28.5 99.89 54.63 114.77 130.5 33.13 169.37-81.63 38.87-228.773 26-328.658-28.62a642.49 642.49 0 0 0 144.015-50Z" stroke="#E9E9E9" stroke-miterlimit="10"/><path d="M1177.31 2261.69v-462.47c47.01-22.38 38.5-66-19-97.37l-14.13 389.85c99.89 54.62 114.76 130.5 33.13 169.99ZM1215.32 2151.32l-16.38-415.86" stroke="#E9E9E9" stroke-width=".25" stroke-miterlimit="10"/><path d="m1144.19 2091.7 13.87-390.48c-57.5-31.5-142.26-38.87-189.268-16.5L815.525 2063.2c81.634-39 228.775-26.5 328.665 28.5ZM1032.67 2051.45l61.13-373.48M914.785 2041.21l111.135-369.11" stroke="#E9E9E9" stroke-width=".25" stroke-miterlimit="10"/><path d="m815.523 2063.2 153.267-378.48c-47.005 22.38-38.379 66 19.127 97.5l-139.265 449.97c-100.011-54.37-114.762-130.11-33.129-168.99Z" stroke="#E9E9E9" stroke-width=".25" stroke-miterlimit="10"/><path d="M1229.94 2191.19c-1.75-33.12-31-69.5-85.76-99.99-100.01-54.63-247.022-67.37-328.655-28.5a92.589 92.589 0 0 0-47.88 43.62l173.643-396.98a53.753 53.753 0 0 1 27.503-25c47.009-22.37 131.759-15 189.269 16.5 31.5 17.25 48.26 38.13 49.26 57.25 7.66 144.49 15.21 288.86 22.62 433.1Z" stroke="#E9E9E9" stroke-width=".25" stroke-miterlimit="10"/><path d="M1229.94 2191.19c-1.75-33.12-31-69.5-85.76-99.99-100.01-54.63-247.022-67.37-328.655-28.5a92.589 92.589 0 0 0-47.88 43.62l173.643-396.98a53.753 53.753 0 0 1 27.503-25c47.009-22.37 131.759-15 189.269 16.5 31.5 17.25 48.26 38.13 49.26 57.25 7.66 144.49 15.21 288.86 22.62 433.1Z" stroke="#E9E9E9" stroke-miterlimit="10"/><path d="m848.65 2232.45 139.265-449.98c57.505 31.38 142.145 38.75 189.145 16.38v462.47c-81.38 38.62-228.524 25.38-328.41-28.87ZM960.035 2272.82l92.005-467.35M1077.93 2283.07l42-471.73" stroke="#E9E9E9" stroke-width=".25" stroke-miterlimit="10"/><path d="M1177.31 2261.7v-462.48c47-22.37 38.5-66-19-97.37l-14.13 389.86c99.89 54.62 114.76 130.49 33.13 169.99ZM1227.19 2212.08l-21.5-441.6" stroke="#E9E9E9" stroke-width=".25" stroke-miterlimit="10"/><path d="M1207.31 1758.48c7.59 144.24 15.13 288.48 22.63 432.72 1.38 27.25-15.75 52.25-52.63 69.87-81.63 38.88-228.774 26-328.66-28.62l139.265-449.97c57.505 31.37 142.145 38.74 189.145 16.37 21.25-10.25 31.13-24.62 30.25-40.37Z" stroke="#E9E9E9" stroke-width=".25" stroke-miterlimit="10"/><path d="M1207.31 1758.48c7.59 144.24 15.13 288.48 22.63 432.72 1.38 27.25-15.75 52.25-52.63 69.87-81.63 38.88-228.774 26-328.66-28.62l139.265-449.97c57.505 31.37 142.145 38.74 189.145 16.37 21.25-10.25 31.13-24.62 30.25-40.37Z" stroke="#E9E9E9" stroke-miterlimit="10"/><path d="m815.518 2063.2 153.266-378.48c-47.005 22.38-38.379 66 19.127 97.5l-139.265 449.97c-100.011-54.37-114.762-130.11-33.128-168.99ZM765.514 2112.2l174.518-399.23M777.391 2172.94l169.518-424.98" stroke="#E9E9E9" stroke-width=".25" stroke-miterlimit="10"/><path d="m767.64 2106.82 173.643-396.98c-9.876 22.5 6.376 50 46.63 72.37l-139.265 449.98c-69.757-37.87-98.135-86.37-81.008-125.37Z" stroke="#E9E9E9" stroke-width=".25" stroke-miterlimit="10"/><path d="m767.64 2106.82 173.643-396.98c-9.876 22.5 6.376 50 46.63 72.37l-139.265 449.98c-69.757-37.87-98.135-86.37-81.008-125.37Z" stroke="#E9E9E9" stroke-miterlimit="10"/><path d="M766.391 1661.73a234.601 234.601 0 0 0 37.504 63.87c201.775 110.37 498.805 136.12 663.565 57.74a367.778 367.778 0 0 0 81.39-53.62c-194.77 92.75-544.81 62.25-782.459-67.99Z" stroke="#E9E9E9" stroke-width=".25" stroke-miterlimit="10"/><path d="M777.016 1685.6c226.524 123.87 560.304 152.87 745.454 64.75" stroke="#E9E9E9" stroke-width=".25" stroke-miterlimit="10"/><path d="M788.895 1706.85c214.525 117.37 530.555 144.87 705.945 61.37" stroke="#E9E9E9" stroke-width=".25" stroke-miterlimit="10"/><path d="M1548.22 1729.97c-24.63 21.41-52 39.44-81.38 53.63 164.77-78.5 134.89-231.49-66.88-341.73 25-36.63 48.13-75 69.5-114.62 237.65 129.99 272.91 310.23 78.76 402.72Z" stroke="#E9E9E9" stroke-width=".25" stroke-miterlimit="10"/><path d="M1522.47 1750.35c185.15-88.12 151.52-259.99-75.01-383.98" stroke="#E9E9E9" stroke-width=".25" stroke-miterlimit="10"/><path d="M1495.34 1768.22c175.02-83.5 143.52-246.24-71.13-363.61" stroke="#E9E9E9" stroke-width=".25" stroke-miterlimit="10"/><path d="M1666.86 1613.35a596.704 596.704 0 0 1-99.26 71.25M1638.98 1468.86a833.925 833.925 0 0 1-95.01 93.12M1469.47 1327.24c-21.38 39.5-44.76 78-69.51 114.62-201.65-110.37-498.68-136.12-663.447-57.75a940.662 940.662 0 0 1-48.88-124.99c194.145-92.24 544.187-61.87 781.837 68.12Z" stroke="#E9E9E9" stroke-width=".25" stroke-miterlimit="10"/><path d="M1447.46 1366.37c-226.65-123.87-560.433-152.87-745.577-64.75" stroke="#E9E9E9" stroke-width=".25" stroke-miterlimit="10"/><path d="M1424.21 1404.62c-214.52-117.37-530.682-144.87-705.95-61.37" stroke="#E9E9E9" stroke-width=".25" stroke-miterlimit="10"/><path d="M1204.31 1231.38c-9.62 43.75-19.5 87.49-29.38 128.99M923.781 1207c2.751 44.75 7.251 89.37 12.502 132.74M687.633 1259.37a941.733 941.733 0 0 0 48.88 124.99c-164.768 78.5-134.889 231.49 66.757 341.73a234.601 234.601 0 0 1-37.504-63.87c-237.025-130.12-272.279-310.48-78.133-402.85Z" stroke="#E9E9E9" stroke-width=".25" stroke-miterlimit="10"/><path d="M701.384 1301.61c-185.145 87.5-151.516 259.99 75.008 383.98" stroke="#E9E9E9" stroke-width=".25" stroke-miterlimit="10"/><path d="M718.26 1343.24c-175.018 83.49-143.515 246.24 71.133 363.6" stroke="#E9E9E9" stroke-width=".25" stroke-miterlimit="10"/><path d="M568.869 1375.99a671.379 671.379 0 0 0 66.882 107.12M597.123 1520.35a433.742 433.742 0 0 0 62.507 85.37M803.27 1725.85a171.985 171.985 0 0 0 50.005 41c159.515 87.49 394.295 107.61 525.055 45.62a366.89 366.89 0 0 0 89.26-28.88c-165.52 78.13-462.55 53.13-664.32-57.74Z" stroke="#E9E9E9" stroke-width=".25" stroke-miterlimit="10"/><path d="M818.396 1741.85c188.394 102.99 465.804 127.12 619.694 53.87" stroke="#E9E9E9" stroke-width=".25" stroke-miterlimit="10"/><path d="M834.898 1755.47c174.272 95.37 431.042 117.62 573.432 50" stroke="#E9E9E9" stroke-width=".25" stroke-miterlimit="10"/><path d="M1466.84 1783.59c-28.4 13.4-58.39 23.1-89.26 28.87 130.26-62.5 106.64-183.11-52.88-270.23 26.25-31.5 51.38-65.13 75.01-100 201.77 109.87 231.9 262.86 67.13 341.36Z" stroke="#E9E9E9" stroke-width=".25" stroke-miterlimit="10"/><path d="M1438.09 1795.72c153.89-73.25 126.01-216.24-62.51-319.24" stroke="#E9E9E9" stroke-width=".25" stroke-miterlimit="10"/><path d="M1408.33 1805.35c142.39-67.75 116.52-199.99-57.75-295.36" stroke="#E9E9E9" stroke-width=".25" stroke-miterlimit="10"/><path d="M1567.6 1684.6a642.211 642.211 0 0 1-110.39 50M1543.6 1561.73a857.974 857.974 0 0 1-105.39 75M1399.96 1441.86c-23.88 35.24-49.01 68.87-75.01 99.99-159.39-87.49-394.293-107.62-525.057-45.62a935.347 935.347 0 0 1-63.506-112.5c165.017-77.99 461.923-52.24 663.573 58.13Z" stroke="#E9E9E9" stroke-width=".25" stroke-miterlimit="10"/><path d="M1375.7 1476.48c-188.39-102.99-465.795-127.11-619.686-53.87" stroke="#E9E9E9" stroke-width=".25" stroke-miterlimit="10"/><path d="M1350.58 1509.98c-174.27-95.25-430.924-117.49-573.314-50" stroke="#E9E9E9" stroke-width=".25" stroke-miterlimit="10"/><path d="M1174.93 1360.36c-9.37 40.5-18.87 79.87-28.12 117.5M936.908 1339.75c5.876 41.74 12.502 82.62 21.628 121.74M736.51 1384.12a936.136 936.136 0 0 0 63.507 112.49c-130.264 62.5-106.636 182.99 52.881 270.24a171.825 171.825 0 0 1-50.005-41c-201.522-110.25-231.15-263.24-66.383-341.73Z" stroke="#E9E9E9" stroke-width=".25" stroke-miterlimit="10"/><path d="M756.013 1422.62c-153.891 73.37-125.888 216.24 62.507 319.23" stroke="#E9E9E9" stroke-width=".25" stroke-miterlimit="10"/><path d="M777.267 1460.23c-142.39 67.75-116.637 199.99 57.632 295.24" stroke="#E9E9E9" stroke-width=".25" stroke-miterlimit="10"/><path d="M635.754 1483.11a704.342 704.342 0 0 0 84.634 91.74M659.756 1605.72a442.763 442.763 0 0 0 79.133 66.12" stroke="#E9E9E9" stroke-width=".25" stroke-miterlimit="10"/><path d="M1612.86 1689.35a683.794 683.794 0 0 1-162.52 101.74 671.053 671.053 0 0 1-182.77 52c38.06-4.55 75.2-14.87 110.14-30.63 130.26-62.49 106.63-183.11-52.88-270.23-159.52-87.12-394.296-107.62-525.06-45.62-130.764 61.99-106.636 182.99 52.881 270.23h-.75a705.238 705.238 0 0 1-76.758-49 690.977 690.977 0 0 1-73.008-62.49 679.976 679.976 0 0 1-115.887-152.24c-52.256-93-20.753-185.62 101.135-243.62 194.146-92.49 544.187-62.49 781.837 67.88 207.27 112.86 260.4 263.73 143.64 361.98Z" stroke="#E9E9E9" stroke-width=".25" stroke-miterlimit="10"/><path d="M1612.86 1689.35a683.794 683.794 0 0 1-162.52 101.74 671.053 671.053 0 0 1-182.77 52c38.06-4.55 75.2-14.87 110.14-30.63 130.26-62.49 106.63-183.11-52.88-270.23-159.52-87.12-394.296-107.62-525.06-45.62-130.764 61.99-106.636 182.99 52.881 270.23h-.75a705.238 705.238 0 0 1-76.758-49 690.977 690.977 0 0 1-73.008-62.49 679.976 679.976 0 0 1-115.887-152.24c-52.256-93-20.753-185.62 101.135-243.62 194.146-92.49 544.187-62.49 781.837 67.88 207.27 112.86 260.4 263.73 143.64 361.98Z" stroke="#E9E9E9" stroke-miterlimit="10"/><path d="M766.393 1661.71a234.506 234.506 0 0 0 37.504 63.88c201.773 110.37 498.803 136.11 663.573 57.74a368.3 368.3 0 0 0 81.38-53.62c-194.77 92.75-544.81 62.25-782.457-68Z" stroke="#E9E9E9" stroke-width=".25" stroke-miterlimit="10"/><path d="M777.02 1685.59c226.52 123.87 560.31 152.87 745.45 64.75" stroke="#E9E9E9" stroke-width=".25" stroke-miterlimit="10"/><path d="M788.895 1706.84c214.525 117.37 530.555 144.87 705.945 61.37" stroke="#E9E9E9" stroke-width=".25" stroke-miterlimit="10"/><path d="M1031.55 1757.96c-2 20.37-3.13 37.5-3.13 50M1312.08 1782.34a207.417 207.417 0 0 1-45.63 45.62M1548.22 1729.96a368.109 368.109 0 0 1-81.38 53.63c164.77-78.5 134.89-231.49-66.88-341.74 25-36.62 48.13-74.99 69.51-114.62 237.65 130 272.9 310.24 78.75 402.73Z" stroke="#E9E9E9" stroke-width=".25" stroke-miterlimit="10"/><path d="M1522.47 1750.34c185.15-88.13 151.52-259.99-75.01-383.98" stroke="#E9E9E9" stroke-width=".25" stroke-miterlimit="10"/><path d="M1495.35 1768.22c175.01-83.5 143.51-246.24-71.14-363.61M803.271 1725.84a171.969 171.969 0 0 0 50.006 40.99c159.513 87.5 394.293 107.62 525.053 45.63a367.182 367.182 0 0 0 89.26-28.88c-165.52 78.12-462.55 53.13-664.319-57.74Z" stroke="#E9E9E9" stroke-width=".25" stroke-miterlimit="10"/><path d="M818.396 1741.84c188.394 102.99 465.804 127.11 619.694 53.87" stroke="#E9E9E9" stroke-width=".25" stroke-miterlimit="10"/><path d="M834.9 1755.46c174.27 95.37 431.05 117.62 573.44 50" stroke="#E9E9E9" stroke-width=".25" stroke-miterlimit="10"/><path d="M1028.42 1807.34c-.6 8.03.2 16.11 2.38 23.87M1266.44 1827.95a115.474 115.474 0 0 1-47.38 19.63M1466.84 1783.59a367.158 367.158 0 0 1-89.26 28.87c130.27-62.5 106.64-183.11-52.88-270.23 26.25-31.5 51.38-65.13 75.01-100 201.77 109.87 231.9 262.86 67.13 341.36Z" stroke="#E9E9E9" stroke-width=".25" stroke-miterlimit="10"/><path d="M1438.09 1795.71c153.89-73.24 126.01-216.24-62.51-319.23" stroke="#E9E9E9" stroke-width=".25" stroke-miterlimit="10"/><path d="M1408.33 1805.34c142.39-67.75 116.52-199.99-57.75-295.36" stroke="#E9E9E9" stroke-width=".25" stroke-miterlimit="10"/><path d="M1466.84 1783.58a681.707 681.707 0 0 1-200.02 59.5 721.87 721.87 0 0 1-414.545-76.25h-.75a173.631 173.631 0 0 1-48.88-40.62 234.601 234.601 0 0 1-37.504-63.87c237.529 129.99 587.559 160.49 781.829 67.99a298.564 298.564 0 0 0 64.64-40.62 686.905 686.905 0 0 1-144.77 93.87Z" stroke="#E9E9E9" stroke-width=".25" stroke-miterlimit="10"/><path d="M1466.84 1783.58a681.707 681.707 0 0 1-200.02 59.5 721.87 721.87 0 0 1-414.545-76.25h-.75a173.631 173.631 0 0 1-48.88-40.62 234.601 234.601 0 0 1-37.504-63.87c237.529 129.99 587.559 160.49 781.829 67.99a298.564 298.564 0 0 0 64.64-40.62 686.905 686.905 0 0 1-144.77 93.87Z" stroke="#E9E9E9" stroke-miterlimit="10"/><path d="M687.633 1259.37a941.733 941.733 0 0 0 48.88 124.99c-164.768 78.5-134.889 231.49 66.757 341.73a234.601 234.601 0 0 1-37.504-63.87c-237.025-130.12-272.279-310.48-78.133-402.85Z" stroke="#E9E9E9" stroke-width=".25" stroke-miterlimit="10"/><path d="M701.384 1301.61c-185.145 87.5-151.516 259.99 75.008 383.98" stroke="#E9E9E9" stroke-width=".25" stroke-miterlimit="10"/><path d="M718.26 1343.24c-175.018 83.49-143.515 246.24 71.133 363.6" stroke="#E9E9E9" stroke-width=".25" stroke-miterlimit="10"/><path d="M597.123 1520.35a433.742 433.742 0 0 0 62.507 85.37" stroke="#E9E9E9" stroke-width=".25" stroke-miterlimit="10"/><path d="M736.51 1384.12a936.136 936.136 0 0 0 63.507 112.49c-130.264 62.5-106.636 182.99 52.881 270.24a171.825 171.825 0 0 1-50.005-41c-201.522-110.25-231.15-263.24-66.383-341.73Z" stroke="#E9E9E9" stroke-width=".25" stroke-miterlimit="10"/><path d="M756.013 1422.61c-153.891 73.37-125.888 216.23 62.507 319.23" stroke="#E9E9E9" stroke-width=".25" stroke-miterlimit="10"/><path d="M777.267 1460.23c-142.39 67.75-116.637 199.99 57.632 295.24" stroke="#E9E9E9" stroke-width=".25" stroke-miterlimit="10"/><path d="M659.756 1605.72a442.763 442.763 0 0 0 79.133 66.12" stroke="#E9E9E9" stroke-width=".25" stroke-miterlimit="10"/><path d="M586.496 1502.98c30.878 55.25 91.385 110.62 179.894 158.99a234.601 234.601 0 0 0 37.504 63.87 173.512 173.512 0 0 0 48.88 40.63 676.153 676.153 0 0 1-266.278-263.49Z" stroke="#E9E9E9" stroke-width=".25" stroke-miterlimit="10"/><path d="M586.496 1502.98c30.878 55.25 91.385 110.62 179.894 158.99a234.601 234.601 0 0 0 37.504 63.87 173.512 173.512 0 0 0 48.88 40.63 676.153 676.153 0 0 1-266.278-263.49Z" stroke="#E9E9E9" stroke-miterlimit="10"/><path d="m1377.58 1812.46 148.89 472.6c227.03-108.12 185.77-318.86-92.01-470.73l-110.26-272.11c160.02 87.12 183.65 208.12 53.38 270.24ZM1438.21 1637.23l194.52 342.73" stroke="#E9E9E9" stroke-width=".25" stroke-miterlimit="10"/><path d="m1324.7 1542.23 110.26 272.11c-277.65-151.87-686.819-187.49-913.843-79.37l278.905-238.37c130.388-61.99 365.288-41.62 524.678 45.63ZM1146.68 1477.86l-21.62 224.36M958.539 1461.48l-161.393 212.24" stroke="#E9E9E9" stroke-width=".25" stroke-miterlimit="10"/><path d="m800.021 1496.61-278.905 238.36c-226.899 108-185.644 318.73 92.01 470.6l239.776-438.72c-159.517-87.25-183.145-208.24-52.881-270.24Z" stroke="#E9E9E9" stroke-width=".25" stroke-miterlimit="10"/><path d="m1444.96 1647.97 200.02 350.73c-36.5-64.12-106.88-128.24-209.52-184.36-277.65-151.87-686.821-187.49-913.845-79.37a350.954 350.954 0 0 0-74.258 46.37l310.533-258.11a207.635 207.635 0 0 1 42.63-26.63c130.389-62.49 365.29-41.62 525.06 45.63 58 31.99 98.38 69.49 119.38 105.74Z" stroke="#E9E9E9" stroke-width=".25" stroke-miterlimit="10"/><path d="m1444.96 1647.97 200.02 350.73c-36.5-64.12-106.88-128.24-209.52-184.36-277.65-151.87-686.821-187.49-913.845-79.37a350.954 350.954 0 0 0-74.258 46.37l310.533-258.11a207.635 207.635 0 0 1 42.63-26.63c130.389-62.49 365.29-41.62 525.06 45.63 58 31.99 98.38 69.49 119.38 105.74Z" stroke="#E9E9E9" stroke-miterlimit="10"/><path d="m852.9 1766.84-239.775 438.72c277.779 151.87 687.575 187.49 913.845 79.5l-149.39-472.6c-130.39 61.75-365.16 41.62-524.68-45.62ZM1030.79 1831.21l-107.757 486.47M1219.06 1847.58l31.88 498.6" stroke="#E9E9E9" stroke-width=".25" stroke-miterlimit="10"/><path d="m1377.58 1812.46 148.89 472.6c227.02-108.12 185.77-318.86-92.01-470.72l-110.26-272.11c160.02 87.12 183.64 208.11 53.38 270.23ZM1457.09 1734.22l208.65 414.48" stroke="#E9E9E9" stroke-width=".25" stroke-miterlimit="10"/><path d="M1644.48 1999.2c62.51 109.25 25.63 218.24-117.51 286.36-226.9 108-636.066 72.38-913.845-79.49L852.9 1767.34c159.52 87.5 394.29 107.62 525.06 45.62 82.13-39.12 103.01-101.74 67.38-164.49l199.14 350.73Z" stroke="#E9E9E9" stroke-width=".25" stroke-miterlimit="10"/><path d="M1644.48 1999.2c62.51 109.25 25.63 218.24-117.51 286.36-226.9 108-636.066 72.38-913.845-79.49L852.9 1767.34c159.52 87.5 394.29 107.62 525.06 45.62 82.13-39.12 103.01-101.74 67.38-164.49l199.14 350.73Z" stroke="#E9E9E9" stroke-miterlimit="10"/><path d="m800.021 1496.61-278.905 238.36c-226.899 108-185.644 318.73 92.01 470.6l239.776-438.72c-159.517-87.25-183.145-208.24-52.881-270.24ZM720.387 1574.85l-338.035 296.36M739.39 1671.84l-324.035 368.23" stroke="#E9E9E9" stroke-width=".25" stroke-miterlimit="10"/><path d="M757.391 1523.23c-79.258 65.87-43.505 167.62 95.51 243.61l-239.775 438.73C371.1 2073.2 308.718 1896.09 446.858 1781.34l310.533-258.11Z" stroke="#E9E9E9" stroke-width=".25" stroke-miterlimit="10"/><path d="M757.391 1523.23c-79.258 65.87-43.505 167.62 95.51 243.61l-239.775 438.73C371.1 2073.2 308.718 1896.09 446.858 1781.34l310.533-258.11Z" stroke="#E9E9E9" stroke-miterlimit="10"/><path d="M613.124 2205.57a293.059 293.059 0 0 1-85.884-71.25c350.912 191.99 867.97 237.49 1154.75 99.99a622.056 622.056 0 0 1-155.02 50c-226.9 108.75-636.066 73.12-913.846-78.74Z" stroke="#E9E9E9" stroke-width=".25" stroke-miterlimit="10"/><path d="M581.998 2185.94c303.532 165.99 750.082 204.74 998.482 86.75" stroke="#E9E9E9" stroke-width=".25" stroke-miterlimit="10"/><path d="M553.369 2161.69c327.91 179.24 810.831 221.24 1078.861 93.74" stroke="#E9E9E9" stroke-width=".25" stroke-miterlimit="10"/><path d="M1526.47 2285.06a622.056 622.056 0 0 0 155.02-50c286.78-136.49 234.77-402.73-116.26-594.72a2146.403 2146.403 0 0 1-130.77 174.99c278.28 150.87 319.54 361.61 92.01 469.73Z" stroke="#E9E9E9" stroke-width=".25" stroke-miterlimit="10"/><path d="M1580.48 2272.69c247.9-118 202.89-348.23-100.01-514.23" stroke="#E9E9E9" stroke-width=".25" stroke-miterlimit="10"/><path d="M1632.23 2255.94c267.91-127.62 219.28-376.36-108.63-555.73" stroke="#E9E9E9" stroke-width=".25" stroke-miterlimit="10"/><path d="M1665.74 2149.19a1086.87 1086.87 0 0 0 191.52-86.24M1632.73 1979.83a1490.774 1490.774 0 0 0 182.9-130.62M1434.96 1814.34a2148.134 2148.134 0 0 0 130.77-174.99c-351.04-191.99-868.094-236.87-1154.875-100a1636.814 1636.814 0 0 0 110.262 195.37c227.024-107.87 636.193-72.25 913.843 79.62Z" stroke="#E9E9E9" stroke-width=".25" stroke-miterlimit="10"/><path d="M1479.97 1758.46c-303.54-165.99-750.082-204.86-998.484-86.74" stroke="#E9E9E9" stroke-width=".25" stroke-miterlimit="10"/><path d="M1523.6 1700.22c-327.91-179.37-810.964-221.36-1078.868-93.74" stroke="#E9E9E9" stroke-width=".25" stroke-miterlimit="10"/><path d="M1125.05 1702.21c16.13-65.24 32.63-133.62 49.01-203.99M797.27 1674.22c-15.002-68-27.503-138.87-37.504-211.49M521.116 1734.97a1636.807 1636.807 0 0 1-110.261-195.37c-286.781 136.49-234.525 402.86 116.387 594.72a293.059 293.059 0 0 0 85.884 71.25c-277.654-151.87-318.909-362.61-92.01-470.6Z" stroke="#E9E9E9" stroke-width=".25" stroke-miterlimit="10"/><path d="M481.486 1671.71c-247.901 117.99-202.896 348.23 100.011 514.22" stroke="#E9E9E9" stroke-width=".25" stroke-miterlimit="10"/><path d="M444.732 1606.47c-268.403 127.49-219.273 376.35 108.637 555.22" stroke="#E9E9E9" stroke-width=".25" stroke-miterlimit="10"/><path d="M382.476 1871.21a1215.794 1215.794 0 0 1-146.89-159.5M415.479 2040.07A763.807 763.807 0 0 1 277.34 1925.2M527.241 2134.31a399.867 399.867 0 0 1-64.382-110.11c413.544 224.98 1022.611 278.48 1360.521 117.61a623.328 623.328 0 0 1-141.39 92.87c-286.78 136.62-803.837 91.62-1154.749-100.37Z" stroke="#E9E9E9" stroke-width=".25" stroke-miterlimit="10"/><path d="M502.863 2101.57c373.54 204.24 923.597 251.99 1228.627 106.75" stroke="#E9E9E9" stroke-width=".25" stroke-miterlimit="10"/><path d="M481.361 2064.57c394.292 215.62 975.099 266.12 1297.389 112.5" stroke="#E9E9E9" stroke-width=".25" stroke-miterlimit="10"/><path d="M1681.99 2234.69a623.328 623.328 0 0 0 141.39-92.87c337.53-160.86 276.53-474.97-137.52-700.71-37.5 68.62-77.63 135.37-120.64 198.86 351.54 191.99 403.55 458.23 116.77 594.72Z" stroke="#E9E9E9" stroke-width=".25" stroke-miterlimit="10"/><path d="M1731.5 2208.32c305.15-145.24 250.02-428.6-123.64-632.84" stroke="#E9E9E9" stroke-width=".25" stroke-miterlimit="10"/><path d="M1778.75 2177.31c322.78-153.11 263.65-453.1-130.64-668.21" stroke="#E9E9E9" stroke-width=".25" stroke-miterlimit="10"/><path d="M1857.26 2062.44c61.7-35.06 119.57-76.5 172.64-123.62M1815.63 1849.21a1441.305 1441.305 0 0 0 165.14-161.62M1565.73 1639.97c43-63.5 83.38-130.24 120.63-198.87-413.54-226.11-1022.479-279.36-1360.014-118.24a1606.067 1606.067 0 0 0 84.884 216.74c286.405-136.49 803.46-91.62 1154.5 100.37Z" stroke="#E9E9E9" stroke-width=".25" stroke-miterlimit="10"/><path d="M1607.86 1575.47c-373.54-204.24-923.601-252.11-1228.758-106.87" stroke="#E9E9E9" stroke-width=".25" stroke-miterlimit="10"/><path d="M1648.11 1509.1c-394.29-215.74-975.103-266.24-1297.387-112.49" stroke="#E9E9E9" stroke-width=".25" stroke-miterlimit="10"/><path d="M1174.06 1498.23c17-72.87 34.13-148 50.88-224.12M759.764 1461.73c-10.376-74.99-18.127-152.49-22.877-230.48M410.854 1539.61a1606.148 1606.148 0 0 1-84.509-216.74C-11.19 1483.73 49.816 1797.84 463.86 2023.58a399.88 399.88 0 0 0 64.382 110.74c-351.912-191.86-404.168-458.22-117.388-594.71Z" stroke="#E9E9E9" stroke-width=".25" stroke-miterlimit="10"/><path d="M379.101 1468.6c-305.157 145.36-250.026 428.6 123.763 632.96" stroke="#E9E9E9" stroke-width=".25" stroke-miterlimit="10"/><path d="M351.349 1396.36c-322.785 152.87-264.278 452.85 130.013 668.21" stroke="#E9E9E9" stroke-width=".25" stroke-miterlimit="10"/><path d="M235.587 1711.72a1121.417 1121.417 0 0 1-116.138-186.12M277.34 1925.21a727.08 727.08 0 0 1-108.762-148.12" stroke="#E9E9E9" stroke-width=".25" stroke-miterlimit="10"/><path d="M1336.58 2338.31a652.514 652.514 0 0 0 189.89-53.25c227.03-108.12 185.77-318.86-92.01-470.72-277.78-151.87-686.82-187.49-913.844-79.38-227.024 108.12-185.645 318.74 92.01 470.6a1172.681 1172.681 0 0 1-262.528-195.36 1160.728 1160.728 0 0 1-112.512-128.24 1216.236 1216.236 0 0 1-88.635-135.87c-89.634-161.62-35.128-321.86 177.394-423.23C663.881 1162 1273.2 1214.99 1686.74 1441.11c358.79 196.23 452.42 458.35 250.03 629.46a1190.408 1190.408 0 0 1-282.66 177.12 1172.769 1172.769 0 0 1-317.53 90.62Z" stroke="#E9E9E9" stroke-width=".25" stroke-miterlimit="10"/><path d="M1336.58 2338.31a652.514 652.514 0 0 0 189.89-53.25c227.03-108.12 185.77-318.86-92.01-470.72-277.78-151.87-686.82-187.49-913.844-79.38-227.024 108.12-185.645 318.74 92.01 470.6a1172.681 1172.681 0 0 1-262.528-195.36 1160.728 1160.728 0 0 1-112.512-128.24 1216.236 1216.236 0 0 1-88.635-135.87c-89.634-161.62-35.128-321.86 177.394-423.23C663.881 1162 1273.2 1214.99 1686.74 1441.11c358.79 196.23 452.42 458.35 250.03 629.46a1190.408 1190.408 0 0 1-282.66 177.12 1172.769 1172.769 0 0 1-317.53 90.62Z" stroke="#E9E9E9" stroke-miterlimit="10"/><path d="M613.124 2205.57a293.059 293.059 0 0 1-85.884-71.25c350.912 191.99 867.97 237.49 1154.75 99.99a622.056 622.056 0 0 1-155.02 50c-226.9 108.75-636.066 73.12-913.846-78.74Z" stroke="#E9E9E9" stroke-width=".25" stroke-miterlimit="10"/><path d="M581.998 2185.94c303.532 165.99 750.082 204.74 998.482 86.75" stroke="#E9E9E9" stroke-width=".25" stroke-miterlimit="10"/><path d="M553.369 2161.7c327.91 179.24 810.831 221.24 1078.861 93.74" stroke="#E9E9E9" stroke-width=".25" stroke-miterlimit="10"/><path d="M923.157 2317.69a119.741 119.741 0 0 1-4.25-41.63M1251.44 2346.18a196.34 196.34 0 0 0 82.26-34.12M1526.47 2285.07a622.056 622.056 0 0 0 155.02-50c286.78-136.49 234.77-402.72-116.26-594.71a2148.134 2148.134 0 0 1-130.77 174.99c278.28 150.86 319.54 361.6 92.01 469.72Z" stroke="#E9E9E9" stroke-width=".25" stroke-miterlimit="10"/><path d="M1580.48 2272.69c247.9-118 202.89-348.23-100.01-514.23" stroke="#E9E9E9" stroke-width=".25" stroke-miterlimit="10"/><path d="M1632.23 2255.95c267.91-127.62 219.28-376.36-108.63-555.72" stroke="#E9E9E9" stroke-width=".25" stroke-miterlimit="10"/><path d="M527.241 2134.33a400.067 400.067 0 0 1-64.382-110.12c413.544 224.99 1022.611 278.48 1360.521 117.62a624 624 0 0 1-141.39 92.87c-286.78 136.61-803.837 91.62-1154.749-100.37Z" stroke="#E9E9E9" stroke-width=".25" stroke-miterlimit="10"/><path d="M502.863 2101.57c373.54 204.24 923.597 251.99 1228.627 106.75" stroke="#E9E9E9" stroke-width=".25" stroke-miterlimit="10"/><path d="M481.361 2064.57c394.292 215.62 975.099 266.12 1297.389 112.5" stroke="#E9E9E9" stroke-width=".25" stroke-miterlimit="10"/><path d="M918.908 2276.07c0-21.38 1.875-50 5.376-85.62M1333.2 2311.68a344.052 344.052 0 0 0 79.14-79.24M1681.99 2234.69a623.328 623.328 0 0 0 141.39-92.87c337.53-160.86 276.53-474.97-137.52-700.71-37.5 68.62-77.63 135.37-120.64 198.86 351.54 191.99 403.55 458.23 116.77 594.72Z" stroke="#E9E9E9" stroke-width=".25" stroke-miterlimit="10"/><path d="M1731.5 2208.32c305.15-145.24 250.02-428.6-123.64-632.84" stroke="#E9E9E9" stroke-width=".25" stroke-miterlimit="10"/><path d="M1778.75 2177.32c322.78-153.11 263.65-453.1-130.64-668.21" stroke="#E9E9E9" stroke-width=".25" stroke-miterlimit="10"/><path d="M1681.99 2234.7a1169.804 1169.804 0 0 1-169.02 65.24 1144.571 1144.571 0 0 1-176.39 38.38c-225.03 30.99-512.557-17.25-723.455-132.75a293.025 293.025 0 0 1-85.884-71.24 400.067 400.067 0 0 1-64.382-110.12c413.544 224.99 1022.611 278.48 1360.521 117.62a523.208 523.208 0 0 0 113.14-71.25 1183.458 1183.458 0 0 1-254.53 164.12Z" stroke="#E9E9E9" stroke-width=".25" stroke-miterlimit="10"/><path d="M1681.99 2234.7a1169.804 1169.804 0 0 1-169.02 65.24 1144.571 1144.571 0 0 1-176.39 38.38c-225.03 30.99-512.557-17.25-723.455-132.75a293.025 293.025 0 0 1-85.884-71.24 400.067 400.067 0 0 1-64.382-110.12c413.544 224.99 1022.611 278.48 1360.521 117.62a523.208 523.208 0 0 0 113.14-71.25 1183.458 1183.458 0 0 1-254.53 164.12Z" stroke="#E9E9E9" stroke-miterlimit="10"/><path d="M521.116 1734.97a1636.68 1636.68 0 0 1-110.261-195.36c-286.781 136.49-234.525 402.85 116.387 594.71a293.059 293.059 0 0 0 85.884 71.25c-277.654-151.87-318.909-362.61-92.01-470.6Z" stroke="#E9E9E9" stroke-width=".25" stroke-miterlimit="10"/><path d="M481.486 1671.73c-247.901 117.99-202.896 348.23 100.011 514.22" stroke="#E9E9E9" stroke-width=".25" stroke-miterlimit="10"/><path d="M444.732 1606.48c-268.403 127.49-219.273 376.36 108.637 555.22" stroke="#E9E9E9" stroke-width=".25" stroke-miterlimit="10"/><path d="M415.479 2040.08a763.807 763.807 0 0 1-138.139-114.87" stroke="#E9E9E9" stroke-width=".25" stroke-miterlimit="10"/><path d="M410.854 1539.61a1606.148 1606.148 0 0 1-84.509-216.74C-11.19 1483.73 49.816 1797.84 463.86 2023.58a399.88 399.88 0 0 0 64.382 110.74c-351.912-191.86-404.168-458.22-117.388-594.71Z" stroke="#E9E9E9" stroke-width=".25" stroke-miterlimit="10"/><path d="M379.101 1468.61c-305.157 145.37-250.026 428.61 123.763 632.97" stroke="#E9E9E9" stroke-width=".25" stroke-miterlimit="10"/><path d="M351.349 1396.36c-322.785 152.87-264.278 452.85 130.013 668.22" stroke="#E9E9E9" stroke-width=".25" stroke-miterlimit="10"/><path d="M277.34 1925.21a727.08 727.08 0 0 1-108.762-148.12" stroke="#E9E9E9" stroke-width=".25" stroke-miterlimit="10"/><path d="M613.125 2205.57a1176.053 1176.053 0 0 1-463.674-459.47c53.756 96.37 159.017 192.99 313.408 277.48a399.958 399.958 0 0 0 64.382 110.75 293.025 293.025 0 0 0 85.884 71.24Z" stroke="#E9E9E9" stroke-width=".25" stroke-miterlimit="10"/><path d="M613.125 2205.57a1176.053 1176.053 0 0 1-463.674-459.47c53.756 96.37 159.017 192.99 313.408 277.48a399.958 399.958 0 0 0 64.382 110.75 293.025 293.025 0 0 0 85.884 71.24Z" stroke="#E9E9E9" stroke-miterlimit="10"/><path d="m1686.36 1441.11-216.89-113.87c-237.53-129.99-587.565-160.36-781.836-67.87l-361.288 63.5C663.881 1161.75 1272.82 1215 1686.36 1441.11ZM1224.94 1274.25l-20.63-42.87M736.891 1231.75 923.785 1207" stroke="#E9E9E9" stroke-width=".25" stroke-miterlimit="10"/><path d="M1664.99 1429.61C1358.83 1269.12 952.411 1201 628.127 1241l233.15-29.25c186.643-23 419.923 16.25 595.933 108.49l207.78 109.37Z" stroke="#E9E9E9" stroke-width=".25" stroke-miterlimit="10"/><path d="M1664.99 1429.61C1358.83 1269.12 952.411 1201 628.127 1241l233.15-29.25c186.643-23 419.923 16.25 595.933 108.49l207.78 109.37Z" stroke="#E9E9E9" stroke-miterlimit="10"/><path d="m462.859 2024.2 303.532-362.49c237.529 130 587.559 160.5 781.829 68l275.03 411.85c-337.78 161.12-946.847 107.62-1360.391-117.36ZM924.285 2190.44l107.135-432.48M1412.34 2232.94l-100.39-450.6" stroke="#E9E9E9" stroke-width=".25" stroke-miterlimit="10"/><path d="m1823.38 2141.82-275.03-411.85c194.15-92.5 158.89-272.74-78.76-402.73l216.9 113.87c413.42 226.11 474.68 539.84 136.89 700.71ZM2029.9 1938.95l-363.04-325.61M1980.65 1687.59l-342.04-218.61" stroke="#E9E9E9" stroke-width=".25" stroke-miterlimit="10"/><path d="m1686.36 1441.11-216.89-113.87c-237.53-130-587.565-160.37-781.836-67.87l-361.288 63.49c337.535-161.11 946.474-107.87 1360.014 118.25Z" stroke="#E9E9E9" stroke-width=".25" stroke-miterlimit="10"/><path d="m1457.21 1320.74 207.78 108.87c7.25 3.75 14.37 7.63 21.37 11.5 413.55 226.11 475.05 539.85 137.52 700.71-337.54 160.87-947.477 107.37-1361.021-117.61l303.532-362.49c237.529 130 587.559 160.5 781.829 68 194.27-92.49 158.9-272.74-78.75-402.73-4-2-8.13-4.12-12.26-6.25Z" stroke="#E9E9E9" stroke-width=".25" stroke-miterlimit="10"/><path d="m1457.21 1320.74 207.78 108.87c7.25 3.75 14.37 7.63 21.37 11.5 413.55 226.11 475.05 539.85 137.52 700.71-337.54 160.87-947.477 107.37-1361.021-117.61l303.532-362.49c237.529 130 587.559 160.5 781.829 68 194.27-92.49 158.9-272.74-78.75-402.73-4-2-8.13-4.12-12.26-6.25Z" stroke="#E9E9E9" stroke-miterlimit="10"/><path d="m1686.36 1441.11-216.89-113.87c-237.53-130-587.565-160.37-781.836-67.87l-361.288 63.49c337.535-161.11 946.474-107.87 1360.014 118.25Z" stroke="#E9E9E9" stroke-width=".25" stroke-miterlimit="10"/><path d="m326.346 1322.86 361.664-63.49c-194.521 92.37-159.267 272.73 78.383 402.35L462.861 2024.2c-413.419-226.74-474.8-540.47-136.515-701.34ZM119.326 1525.73l449.548-149.74M168.455 1777.21l428.67-256.73" stroke="#E9E9E9" stroke-width=".25" stroke-miterlimit="10"/><path d="m628.127 1240.99 233.149-29.25a568.009 568.009 0 0 0-173.643 47.12c-194.146 92.87-158.892 273.24 78.758 402.85L462.859 2024.2c-413.419-226.12-475.05-539.85-137.514-700.72a991.074 991.074 0 0 1 302.782-82.49Z" stroke="#E9E9E9" stroke-width=".25" stroke-miterlimit="10"/><path d="m628.127 1240.99 233.149-29.25a568.009 568.009 0 0 0-173.643 47.12c-194.146 92.87-158.892 273.24 78.758 402.85L462.859 2024.2c-413.419-226.12-475.05-539.85-137.514-700.72a991.074 991.074 0 0 1 302.782-82.49Z" stroke="#E9E9E9" stroke-miterlimit="10"/><path d="M1692.61 1456.61a571.424 571.424 0 0 1-30.25 107.49c228.65-108.87 187.52-321.11-92.76-474.22 11.81-38.23 21.32-77.13 28.5-116.497 285.16 155.987 327.54 372.357 94.51 483.227Z" stroke="#E9E9E9" stroke-width=".25" stroke-miterlimit="10"/><path d="M1684.49 1494.49c232.52-110.75 190.27-326.61-94.26-482.23" stroke="#E9E9E9" stroke-width=".25" stroke-miterlimit="10"/><path d="M1674.36 1530.22c231.03-109.99 189.15-324.98-93.63-479.1" stroke="#E9E9E9" stroke-width=".25" stroke-miterlimit="10"/><path d="M1835 1316.74a509.47 509.47 0 0 1-32.88 109.99M1801.5 1143.37a612.54 612.54 0 0 1-32.25 113.24M1598.1 973.383a1004.522 1004.522 0 0 1-28.5 116.497c-279.78-153.12-691.947-188.743-920.471-80a687.987 687.987 0 0 1 10.751-117.992c233.025-110.995 653.07-74.496 938.22 81.495Z" stroke="#E9E9E9" stroke-width=".25" stroke-miterlimit="10"/><path d="M1590.23 1011.76c-284.53-155.622-703.701-192.12-936.226-81.376" stroke="#E9E9E9" stroke-width=".25" stroke-miterlimit="10"/><path d="M1580.73 1051.13c-282.78-154.619-699.329-190.867-930.353-80.873" stroke="#E9E9E9" stroke-width=".25" stroke-miterlimit="10"/><path d="M1279.95 858.266c-7.17 38.831-14.67 78.412-22.51 118.743M943.285 829.02c-7.001 38.872-12.501 78.745-16.127 119.243M659.881 891.883a688 688 0 0 0-10.751 117.997c-228.65 108.87-187.52 321.1 92.634 474.22 1.6-36.58 5.778-73 12.502-108.99-285.03-155.99-327.91-372.36-94.385-483.227Z" stroke="#E9E9E9" stroke-width=".25" stroke-miterlimit="10"/><path d="M654.004 930.883c-232.524 110.617-190.27 326.607 94.26 482.227" stroke="#E9E9E9" stroke-width=".25" stroke-miterlimit="10"/><path d="M650.379 970.258c-231.024 109.992-189.02 324.982 93.76 479.102" stroke="#E9E9E9" stroke-width=".25" stroke-miterlimit="10"/><path d="M517.49 1031.75a524.139 524.139 0 0 0-8.126 115.5" stroke="#E9E9E9" stroke-width=".25" stroke-miterlimit="10"/><path d="M1840.38 1295.37c-9 49.8-23.55 98.44-43.38 145 46.51-109-32.88-243.99-227.4-349.99-279.78-153.613-691.947-189.236-920.471-80.49-102.636 48.87-150.766 118.49-147.515 194.24a682.212 682.212 0 0 1 10.501-151.12c11.376-62.496 60.131-119.368 147.765-161.116 233.025-110.994 653.07-74.996 937.6 81.496 179.02 97.24 261.9 217.99 242.9 321.98Z" stroke="#E9E9E9" stroke-width=".25" stroke-miterlimit="10"/><path d="M1840.38 1295.37c-9 49.8-23.55 98.44-43.38 145 46.51-109-32.88-243.99-227.4-349.99-279.78-153.613-691.947-189.236-920.471-80.49-102.636 48.87-150.766 118.49-147.515 194.24a682.212 682.212 0 0 1 10.501-151.12c11.376-62.496 60.131-119.368 147.765-161.116 233.025-110.994 653.07-74.996 937.6 81.496 179.02 97.24 261.9 217.99 242.9 321.98Z" stroke="#E9E9E9" stroke-miterlimit="10"/><path d="M754.39 1375.11a779.064 779.064 0 0 0-12.501 109c279.781 152.99 691.951 188.74 920.601 79.99a572.176 572.176 0 0 0 30.25-107.49c-233.15 110.99-653.19 74.5-938.35-81.5Z" stroke="#E9E9E9" stroke-width=".25" stroke-miterlimit="10"/><path d="M748.264 1413.11c284.526 155.62 703.696 191.99 936.226 81.37" stroke="#E9E9E9" stroke-width=".25" stroke-miterlimit="10"/><path d="M744.139 1449.24c282.651 154.74 699.201 190.86 930.221 80.87" stroke="#E9E9E9" stroke-width=".25" stroke-miterlimit="10"/><path d="M1072.55 1490.23c-7 38.75-13.25 74.37-18.5 106.74M1409.21 1519.49c-6.45 35.83-14.8 71.3-25 106.24M1692.61 1456.61a571.522 571.522 0 0 1-30.25 107.5c228.65-108.87 187.52-321.11-92.76-474.23 11.81-38.23 21.33-77.13 28.5-116.493 285.16 155.993 327.54 372.353 94.51 483.223Z" stroke="#E9E9E9" stroke-width=".25" stroke-miterlimit="10"/><path d="M1684.49 1494.49c232.52-110.74 190.27-326.61-94.26-482.22" stroke="#E9E9E9" stroke-width=".25" stroke-miterlimit="10"/><path d="M1674.36 1530.23c231.03-110 189.15-324.98-93.63-479.1" stroke="#E9E9E9" stroke-width=".25" stroke-miterlimit="10"/><path d="M1835.01 1316.74a510.511 510.511 0 0 1-32.88 110" stroke="#E9E9E9" stroke-width=".25" stroke-miterlimit="10"/><path d="M1797 1440.36c-20.38 47.75-65.01 90.49-134.64 123.74-228.65 108.75-640.82 73-920.596-79.99 1.6-36.58 5.777-73 12.501-109 285.155 155.99 705.195 192.49 938.225 81.5 87.51-41.75 136.39-98.37 147.76-161.24a676.764 676.764 0 0 1-43.25 144.99Z" stroke="#E9E9E9" stroke-width=".25" stroke-miterlimit="10"/><path d="M1797 1440.36c-20.38 47.75-65.01 90.49-134.64 123.74-228.65 108.75-640.82 73-920.596-79.99 1.6-36.58 5.777-73 12.501-109 285.155 155.99 705.195 192.49 938.225 81.5 87.51-41.75 136.39-98.37 147.76-161.24a676.764 676.764 0 0 1-43.25 144.99Z" stroke="#E9E9E9" stroke-miterlimit="10"/><path d="M659.881 891.895a687.994 687.994 0 0 0-10.751 117.995c-228.65 108.87-187.52 321.11 92.634 474.22 1.6-36.58 5.778-73 12.502-108.99-285.03-155.99-327.91-372.36-94.385-483.225Z" stroke="#E9E9E9" stroke-width=".25" stroke-miterlimit="10"/><path d="M654.004 930.895c-232.524 110.615-190.27 326.605 94.26 482.225" stroke="#E9E9E9" stroke-width=".25" stroke-miterlimit="10"/><path d="M650.379 970.262c-231.024 109.998-189.02 324.978 93.76 479.098" stroke="#E9E9E9" stroke-width=".25" stroke-miterlimit="10"/><path d="M551.369 1205.12a529.16 529.16 0 0 0-8.751 112.5" stroke="#E9E9E9" stroke-width=".25" stroke-miterlimit="10"/><path d="M512.115 1053.01c-19.002 104.12 64.382 224.99 242.275 322.11a778.751 778.751 0 0 0-12.501 108.99c-154.266-84.37-236.15-187.49-240.15-279.99a682.689 682.689 0 0 1 10.376-151.11Z" stroke="#E9E9E9" stroke-width=".25" stroke-miterlimit="10"/><path d="M512.115 1053.01c-19.002 104.12 64.382 224.99 242.275 322.11a778.751 778.751 0 0 0-12.501 108.99c-154.266-84.37-236.15-187.49-240.15-279.99a682.689 682.689 0 0 1 10.376-151.11Z" stroke="#E9E9E9" stroke-miterlimit="10"/><path d="m741.765 1484.11-321.66 228.87c487.552 266.36 1204.375 328.73 1602.295 139.24l-360.04-288.11c-228.65 108.74-640.82 72.62-920.595-80ZM1053.92 1597.11l-90.383 312.48M1384.21 1625.73l154.14 333.86M1662.36 1564.11l360.04 288.11c398.04-189.49 325.78-558.97-161.27-824.95l-291.53 62.49c279.9 153.24 321.41 365.48 92.76 474.35ZM1802 1426.87l463.67 186.36M1768.75 1256.75l439.04 60.49" stroke="#E9E9E9" stroke-width=".25" stroke-miterlimit="10"/><path d="m1569.6 1089.88 291.53-62.5C1373.58 761.024 656.755 698.652 258.713 888.142l390.416 122.248c228.524-109.248 640.691-73.625 920.471 79.49ZM1257.44 977.016l60.13-146.618M927.158 948.393 742.764 780.402" stroke="#E9E9E9" stroke-width=".25" stroke-miterlimit="10"/><path d="M649.129 1009.88 258.713 887.637C-139.204 1077.13-66.321 1446.61 420.105 1712.59l321.659-228.86c-279.779-152.74-321.284-364.98-92.635-473.85ZM509.24 1147.25l-493.803-20.63M542.493 1317.38 73.318 1422.74" stroke="#E9E9E9" stroke-width=".25" stroke-miterlimit="10"/><path d="M741.765 1484.11c279.775 153 691.945 188.74 920.595 80 228.65-108.74 187.52-321.11-92.76-474.23-280.28-153.112-691.946-188.735-920.47-79.99-228.524 108.74-187.52 321.11 92.635 474.22l-321.659 228.87c-487.552-266.36-559.309-635.84-161.392-824.96C656.631 698.905 1374.08 760.527 1861.13 1026.89c487.06 266.36 559.31 635.84 161.27 824.95-398.04 189.12-1115.243 127.5-1602.294-138.86l321.659-228.87Z" stroke="#E9E9E9" stroke-width=".25" stroke-miterlimit="10"/><path d="M741.765 1484.11c279.775 153 691.945 188.74 920.595 80 228.65-108.74 187.52-321.11-92.76-474.23-280.28-153.112-691.946-188.735-920.47-79.99-228.524 108.74-187.52 321.11 92.635 474.22l-321.659 228.87c-487.552-266.36-559.309-635.84-161.392-824.96C656.631 698.905 1374.08 760.527 1861.13 1026.89c487.06 266.36 559.31 635.84 161.27 824.95-398.04 189.12-1115.243 127.5-1602.294-138.86l321.659-228.87Z" stroke="#E9E9E9" stroke-miterlimit="10"/><path d="M2022.4 1852.21a983.635 983.635 0 0 0 52.63-186.36c405.54-193.12 331.91-569.72-164.39-841.209a1804.37 1804.37 0 0 1-50.01 202.239c487.55 266.36 559.81 635.84 161.77 825.33Z" stroke="#E9E9E9" stroke-width=".25" stroke-miterlimit="10"/><path d="M2043.53 1793.22c402.16-191.49 329.16-564.84-163.15-834.079" stroke="#E9E9E9" stroke-width=".25" stroke-miterlimit="10"/><path d="M2061.03 1730.97c404.79-192.61 331.28-568.47-164.02-839.329" stroke="#E9E9E9" stroke-width=".25" stroke-miterlimit="10"/><path d="M2265.67 1613.23a886.302 886.302 0 0 0 57.26-190.99M2207.79 1317.11a1059.402 1059.402 0 0 0 56.26-196.61M1861.13 1026.89a1804.512 1804.512 0 0 0 50.01-202.241C1413.96 553.163 683.008 489.666 277.465 682.656a1183.812 1183.812 0 0 0-18.752 204.989C656.755 698.155 1374.08 760.527 1861.13 1026.89Z" stroke="#E9E9E9" stroke-width=".25" stroke-miterlimit="10"/><path d="M1880.38 959.14C1388.21 690.029 663.879 627.032 261.086 818.397" stroke="#E9E9E9" stroke-width=".25" stroke-miterlimit="10"/><path d="M1897.01 891.637C1401.46 620.777 672.006 557.405 267.338 750.02" stroke="#E9E9E9" stroke-width=".25" stroke-miterlimit="10"/><path d="M1317.7 830.274c13.75-70.246 26.88-139.242 39-205.989M742.764 780.395c6.5-70.996 15.876-140.367 28.003-206.989M258.71 887.645a1183.91 1183.91 0 0 1 18.752-204.989c-405.543 193.115-331.91 569.724 164.392 841.584a1370.131 1370.131 0 0 0-21.752 188.74c-487.051-266.36-559.309-635.84-161.392-825.335Z" stroke="#E9E9E9" stroke-width=".25" stroke-miterlimit="10"/><path d="M261.087 818.391c-402.168 191.489-329.16 564.969 162.517 834.079" stroke="#E9E9E9" stroke-width=".25" stroke-miterlimit="10"/><path d="M267.338 750.023c-404.792 192.74-331.285 568.467 164.018 839.327" stroke="#E9E9E9" stroke-width=".25" stroke-miterlimit="10"/><path d="M15.56 1126.63a902.45 902.45 0 0 1 14.002-199.993M2075.03 1665.84a1195.324 1195.324 0 0 0 18.75-204.74c397.92-189.49 325.66-558.966-161.39-824.952a1387.202 1387.202 0 0 1-21.76 188.115c496.31 271.857 569.94 648.467 164.4 841.577Z" stroke="#E9E9E9" stroke-width=".25" stroke-miterlimit="10"/><path d="M2085.15 1598.48c404.8-192.61 331.29-568.47-164.01-839.328" stroke="#E9E9E9" stroke-width=".25" stroke-miterlimit="10"/><path d="M2091.4 1530.24c402.17-191.49 329.16-564.973-162.51-834.084" stroke="#E9E9E9" stroke-width=".25" stroke-miterlimit="10"/><path d="M2322.93 1422.24a916.316 916.316 0 0 0 14.13-199.99M2264.05 1120.5a924.389 924.389 0 0 0 15.25-194.488M1910.64 824.269a1388.693 1388.693 0 0 0 21.75-188.99C1444.84 368.919 727.887 306.547 329.845 496.037a988.308 988.308 0 0 0-52.38 186.24C683.008 489.662 1413.96 553.159 1910.64 824.269Z" stroke="#E9E9E9" stroke-width=".25" stroke-miterlimit="10"/><path d="M1921.14 759.151C1425.71 488.165 696.133 424.294 291.465 617.534" stroke="#E9E9E9" stroke-width=".25" stroke-miterlimit="10"/><path d="M1928.39 696.155C1436.09 426.919 711.134 363.922 308.967 555.412" stroke="#E9E9E9" stroke-width=".25" stroke-miterlimit="10"/><path d="M1356.7 624.275c12.5-66.746 22.88-128.618 32.25-185.115M770.766 573.404a1768.483 1768.483 0 0 1 43.129-184.24M277.465 682.65a988.308 988.308 0 0 1 52.38-186.24C-68.072 685.9 4.811 1055.38 491.238 1321.37a1791.545 1791.545 0 0 0-49.381 202.86c-496.302-271.86-569.935-648.465-164.392-841.58Z" stroke="#E9E9E9" stroke-width=".25" stroke-miterlimit="10"/><path d="M291.465 617.535C-113.328 810.15-39.82 1186.01 455.483 1456.87" stroke="#E9E9E9" stroke-width=".25" stroke-miterlimit="10"/><path d="M308.968 555.402C-93.2 746.767-20.192 1120.25 471.485 1389.48" stroke="#E9E9E9" stroke-width=".25" stroke-miterlimit="10"/><path d="M29.563 926.263a896.607 896.607 0 0 1 57.005-190.865" stroke="#E9E9E9" stroke-width=".25" stroke-miterlimit="10"/><path d="M2256.67 1636.72c81.26-189.74-56.75-424.97-395.54-610.21C1373.58 760.145 656.754 697.773 258.712 887.263 80.192 972.259-3.816 1093.63 2.06 1225.62a1186.402 1186.402 0 0 1 93.385-513.848c35.503-83.245 112.511-157.741 234.399-215.488C727.886 306.919 1445.34 369.291 1932.39 635.652c268.65 146.992 411.04 324.982 418.04 487.478 3.73 87.89-2.35 175.93-18.12 262.48a1163.195 1163.195 0 0 1-75.64 251.11Z" stroke="#E9E9E9" stroke-width=".25" stroke-miterlimit="10"/><path d="M2256.67 1636.72c81.26-189.74-56.75-424.97-395.54-610.21C1373.58 760.145 656.754 697.773 258.712 887.263 80.192 972.259-3.816 1093.63 2.06 1225.62a1186.402 1186.402 0 0 1 93.385-513.848c35.503-83.245 112.511-157.741 234.399-215.488C727.886 306.919 1445.34 369.291 1932.39 635.652c268.65 146.992 411.04 324.982 418.04 487.478 3.73 87.89-2.35 175.93-18.12 262.48a1163.195 1163.195 0 0 1-75.64 251.11Z" stroke="#E9E9E9" stroke-miterlimit="10"/><path d="M420.105 1712.96a1370.465 1370.465 0 0 1 21.753-188.74c496.427 271.49 1227.632 334.98 1633.172 142-11.37 63.7-29 126.12-52.63 186.36-397.92 189.12-1115.243 126.74-1602.295-139.62Z" stroke="#E9E9E9" stroke-width=".25" stroke-miterlimit="10"/><path d="M424.107 1652.46C916.284 1921.7 1641.36 1984.7 2043.53 1793.21" stroke="#E9E9E9" stroke-width=".25" stroke-miterlimit="10"/><path d="M431.355 1589.34c495.303 270.99 1225.125 334.36 1629.675 141.62" stroke="#E9E9E9" stroke-width=".25" stroke-miterlimit="10"/><path d="M963.912 1909.58c9.376-56.62 20.127-118.62 32.254-185.37M1538.97 1959.46a1770.782 1770.782 0 0 0 43.38-184.37M2022.4 1852.21a983.635 983.635 0 0 0 52.63-186.36c405.54-193.12 331.91-569.72-164.39-841.209a1804.37 1804.37 0 0 1-50.01 202.239c487.55 266.36 559.81 635.84 161.77 825.33Z" stroke="#E9E9E9" stroke-width=".25" stroke-miterlimit="10"/><path d="M2043.53 1793.21c402.16-191.49 329.16-564.85-163.15-834.081" stroke="#E9E9E9" stroke-width=".25" stroke-miterlimit="10"/><path d="M2061.03 1730.97c404.79-192.61 331.28-568.47-164.02-839.329" stroke="#E9E9E9" stroke-width=".25" stroke-miterlimit="10"/><path d="M2265.68 1613.22a886.277 886.277 0 0 0 57.25-190.99M441.857 1524.22a1792.26 1792.26 0 0 1 49.381-201.99c487.551 266.37 1204.502 328.74 1602.542 139.25a1194.32 1194.32 0 0 1-18.75 204.74c-405.54 192.61-1136.12 129.11-1633.173-142Z" stroke="#E9E9E9" stroke-width=".25" stroke-miterlimit="10"/><path d="M455.484 1456.86c495.303 270.86 1225.126 334.35 1629.676 141.61" stroke="#E9E9E9" stroke-width=".25" stroke-miterlimit="10"/><path d="M471.984 1389.48c491.927 269.11 1217.006 332.1 1619.426 140.74" stroke="#E9E9E9" stroke-width=".25" stroke-miterlimit="10"/><path d="M995.791 1724.22c12.499-66.75 24.999-135.75 39.009-205.87M1581.73 1775.09c12.5-66.62 21.37-135.99 27.87-206.74M2075.03 1665.84a1194.32 1194.32 0 0 0 18.75-204.74c397.92-189.49 325.66-558.966-161.39-824.952a1388.78 1388.78 0 0 1-21.75 188.115c496.3 271.857 569.93 648.467 164.39 841.577Z" stroke="#E9E9E9" stroke-width=".25" stroke-miterlimit="10"/><path d="M2085.16 1598.47c404.79-192.61 331.28-568.47-164.02-839.329" stroke="#E9E9E9" stroke-width=".25" stroke-miterlimit="10"/><path d="M2091.41 1530.23c402.16-191.49 329.16-564.975-162.52-834.085" stroke="#E9E9E9" stroke-width=".25" stroke-miterlimit="10"/><path d="M2322.93 1422.23a916.316 916.316 0 0 0 14.13-199.99" stroke="#E9E9E9" stroke-width=".25" stroke-miterlimit="10"/><path d="M2332.31 1385.24a1168.524 1168.524 0 0 1-75.64 251.48c-35.5 83.12-112.51 157.49-234.27 215.12-397.92 189.86-1115.243 127.49-1602.295-138.87a1370.287 1370.287 0 0 1 21.753-188.74 1791.729 1791.729 0 0 1 49.38-201.99C978.79 1588.6 1695.74 1650.97 2093.78 1461.48c178.4-84.99 262.53-206.24 256.65-337.48a1185.19 1185.19 0 0 1-18.12 261.24Z" stroke="#E9E9E9" stroke-width=".25" stroke-miterlimit="10"/><path d="M2332.31 1385.24a1168.524 1168.524 0 0 1-75.64 251.48c-35.5 83.12-112.51 157.49-234.27 215.12-397.92 189.86-1115.243 127.49-1602.295-138.87a1370.287 1370.287 0 0 1 21.753-188.74 1791.729 1791.729 0 0 1 49.38-201.99C978.79 1588.6 1695.74 1650.97 2093.78 1461.48c178.4-84.99 262.53-206.24 256.65-337.48a1185.19 1185.19 0 0 1-18.12 261.24Z" stroke="#E9E9E9" stroke-miterlimit="10"/><path d="M258.712 887.645a1183.91 1183.91 0 0 1 18.752-204.989c-405.543 193.115-331.91 569.724 164.392 841.584a1370.131 1370.131 0 0 0-21.752 188.74c-487.051-266.36-559.309-635.84-161.392-825.335Z" stroke="#E9E9E9" stroke-width=".25" stroke-miterlimit="10"/><path d="M261.089 818.391c-402.168 191.489-329.16 564.969 162.517 834.079" stroke="#E9E9E9" stroke-width=".25" stroke-miterlimit="10"/><path d="M267.34 750.023c-404.793 192.74-331.285 568.467 164.018 839.327" stroke="#E9E9E9" stroke-width=".25" stroke-miterlimit="10"/><path d="M15.563 1126.63a902.445 902.445 0 0 1 14.001-199.993M73.442 1422.74A917.286 917.286 0 0 1 88.82 1228" stroke="#E9E9E9" stroke-width=".25" stroke-miterlimit="10"/><path d="M277.467 682.65a988.308 988.308 0 0 1 52.38-186.24C-68.07 685.9 4.813 1055.38 491.24 1321.37a1791.545 1791.545 0 0 0-49.381 202.86c-496.302-271.86-569.935-648.465-164.392-841.58Z" stroke="#E9E9E9" stroke-width=".25" stroke-miterlimit="10"/><path d="M291.467 617.535C-113.326 810.15-39.818 1186.01 455.485 1456.87" stroke="#E9E9E9" stroke-width=".25" stroke-miterlimit="10"/><path d="M308.97 555.402C-93.198 746.767-20.19 1120.25 471.487 1389.48" stroke="#E9E9E9" stroke-width=".25" stroke-miterlimit="10"/><path d="M29.564 926.263a896.601 896.601 0 0 1 57.007-190.865M88.82 1227.99a1073.854 1073.854 0 0 1 55.881-196.49" stroke="#E9E9E9" stroke-width=".25" stroke-miterlimit="10"/><path d="M2.06 1226a1187.288 1187.288 0 0 1 93.385-514.223c-80.883 189.74 57.257 424.973 395.792 609.973a1791.947 1791.947 0 0 0-49.38 202.48 1370.31 1370.31 0 0 0-21.752 188.74C151.326 1566.11 9.311 1388.12 2.061 1226Z" stroke="#E9E9E9" stroke-width=".25" stroke-miterlimit="10"/><path d="M2.06 1226a1187.288 1187.288 0 0 1 93.385-514.223c-80.883 189.74 57.257 424.973 395.792 609.973a1791.947 1791.947 0 0 0-49.38 202.48 1370.31 1370.31 0 0 0-21.752 188.74C151.326 1566.11 9.311 1388.12 2.061 1226Z" stroke="#E9E9E9" stroke-miterlimit="10"/><path d="m491.238 1321.86 291.531-63.25c279.901 153.12 691.951 188.87 920.601 80l390.41 122.49c-398.04 189.49-1115.49 127.12-1602.542-139.24ZM1034.67 1518.47l60.38-146.86M1609.61 1568.48l-184.4-168.12" stroke="#E9E9E9" stroke-width=".25" stroke-miterlimit="10"/><path d="m2093.78 1461.73-390.41-122.5c228.64-108.74 187.52-321.11-92.64-474.098l321.66-228.862c487.05 265.86 559.31 635.34 161.39 825.46ZM2336.93 1222.11l-493.8-20.75M2279.05 926.012l-469.17 105.248M1932.39 635.65l-321.66 228.863c-279.91-152.742-691.949-188.865-920.598-79.996L329.844 497.032C727.886 306.917 1445.34 369.289 1932.39 635.65ZM1388.83 439.16l-90.38 312.484M813.896 389.164l154.267 333.732" stroke="#E9E9E9" stroke-width=".25" stroke-miterlimit="10"/><path d="m329.845 496.41 360.288 287.485C461.484 892.764 502.613 1105 782.768 1257.99l-291.531 63.25C4.185 1055.38-68.073 685.9 329.845 496.41ZM86.568 735.52l463.799 186.365M144.451 1031.63 583.623 1092" stroke="#E9E9E9" stroke-width=".25" stroke-miterlimit="10"/><path d="m491.239 1321.86 291.531-63.25c279.9 153.12 691.95 188.87 920.6 80 228.65-108.87 187.52-321.11-92.64-474.102-280.15-152.991-691.946-188.865-920.595-79.995-228.649 108.869-187.52 321.107 92.635 474.097l-291.531 63.25C3.687 1055.37-68.071 685.893 329.847 496.903 727.764 307.913 1445.34 369.285 1932.39 635.646c487.05 266.36 559.31 635.964 161.39 824.954-397.91 188.99-1115.49 127.62-1602.541-138.74Z" stroke="#E9E9E9" stroke-width=".25" stroke-miterlimit="10"/><path d="m491.239 1321.86 291.531-63.25c279.9 153.12 691.95 188.87 920.6 80 228.65-108.87 187.52-321.11-92.64-474.102-280.15-152.991-691.946-188.865-920.595-79.995-228.649 108.869-187.52 321.107 92.635 474.097l-291.531 63.25C3.687 1055.37-68.071 685.893 329.847 496.903 727.764 307.913 1445.34 369.285 1932.39 635.646c487.05 266.36 559.31 635.964 161.39 824.954-397.91 188.99-1115.49 127.62-1602.541-138.74Z" stroke="#E9E9E9" stroke-miterlimit="10"/><path d="M1703.36 1338.63c-.18 39.56-3.77 79.04-10.75 117.99 233.03-110.87 190.65-327.23-94.51-483.223a794.75 794.75 0 0 0 12.5-108.87c279.91 152.993 321.41 365.353 92.76 474.103Z" stroke="#E9E9E9" stroke-width=".25" stroke-miterlimit="10"/><path d="M1701.49 1378.37c231.02-109.99 189.15-324.98-93.63-479.225" stroke="#E9E9E9" stroke-width=".25" stroke-miterlimit="10"/><path d="M1698.49 1417.62c232.52-110.62 190.27-326.6-94.26-482.222" stroke="#E9E9E9" stroke-width=".25" stroke-miterlimit="10"/><path d="M1809.88 1031.27c1.1 37.7-1.83 75.42-8.76 112.49M1610.73 864.525a796.318 796.318 0 0 1-12.5 108.869c-285.16-155.992-705.2-192.49-937.599-81.496a567.766 567.766 0 0 1 30.253-107.369c227.899-108.869 639.946-72.746 919.846 79.996Z" stroke="#E9E9E9" stroke-width=".25" stroke-miterlimit="10"/><path d="M1608.36 899.268c-282.78-154.616-699.203-190.864-930.227-80.87" stroke="#E9E9E9" stroke-width=".25" stroke-miterlimit="10"/><path d="M1604.23 935.392c-284.53-155.617-703.698-191.99-936.222-81.371" stroke="#E9E9E9" stroke-width=".25" stroke-miterlimit="10"/><path d="M1298.45 751.535c-5.25 32.498-11.5 67.997-18.5 106.744M968.163 722.91a1060.229 1060.229 0 0 0-25.003 106.119M690.134 784.527a567.778 567.778 0 0 0-30.254 107.37c-233.524 110.873-190.645 327.233 94.51 483.223 7.195-39.35 16.67-78.24 28.378-116.49-279.779-152.99-321.284-365.233-92.634-474.103Z" stroke="#E9E9E9" stroke-width=".25" stroke-miterlimit="10"/><path d="M678.134 818.277C447.11 928.272 488.989 1143.26 771.769 1297.5" stroke="#E9E9E9" stroke-width=".25" stroke-miterlimit="10"/><path d="M668.006 854.02c-232.524 110.744-190.27 326.61 94.26 482.22" stroke="#E9E9E9" stroke-width=".25" stroke-miterlimit="10"/><path d="M550.369 921.777a512.409 512.409 0 0 0-32.879 109.993" stroke="#E9E9E9" stroke-width=".25" stroke-miterlimit="10"/><path d="M1851.5 1144.51c2.12 50.52-1.4 101.12-10.5 150.86 19.01-103.99-64.38-224.99-242.27-321.981-285.16-155.991-705.201-192.489-937.601-81.495-87.509 41.748-136.39 98.37-147.766 161.116a669.393 669.393 0 0 1 43.38-144.742c20.377-47.748 65.007-90.62 134.639-123.743 228.649-108.87 640.688-72.997 920.598 79.995 153.02 84.746 234.77 186.74 239.52 279.99Z" stroke="#E9E9E9" stroke-width=".25" stroke-miterlimit="10"/><path d="M1851.5 1144.51c2.12 50.52-1.4 101.12-10.5 150.86 19.01-103.99-64.38-224.99-242.27-321.981-285.16-155.991-705.201-192.489-937.601-81.495-87.509 41.748-136.39 98.37-147.766 161.116a669.393 669.393 0 0 1 43.38-144.742c20.377-47.748 65.007-90.62 134.639-123.743 228.649-108.87 640.688-72.997 920.598 79.995 153.02 84.746 234.77 186.74 239.52 279.99Z" stroke="#E9E9E9" stroke-miterlimit="10"/><path d="M782.769 1258.62a1032.745 1032.745 0 0 0-28.378 116.49c285.159 156 705.199 192.49 938.219 81.5a686.638 686.638 0 0 0 10.76-117.99c-228.65 108.87-640.7 73.12-920.601-80Z" stroke="#E9E9E9" stroke-width=".25" stroke-miterlimit="10"/><path d="M771.766 1297.49c282.784 154.62 699.194 190.74 930.224 80.87" stroke="#E9E9E9" stroke-width=".25" stroke-miterlimit="10"/><path d="M762.266 1336.74c284.534 155.62 703.694 192.12 936.224 81.37" stroke="#E9E9E9" stroke-width=".25" stroke-miterlimit="10"/><path d="M1095.05 1371.62c-7.87 40.12-15.38 79.74-22.5 118.62M1425.34 1400.24c-3.75 40.67-9.13 80.41-16.13 119.25M1703.37 1338.62c-.18 39.56-3.78 79.04-10.75 117.99 233.02-110.87 190.64-327.23-94.51-483.225a797.89 797.89 0 0 0 12.5-108.869c279.9 152.994 321.41 365.354 92.76 474.104Z" stroke="#E9E9E9" stroke-width=".25" stroke-miterlimit="10"/><path d="M1701.49 1378.36c231.02-110 189.15-324.99-93.63-479.227" stroke="#E9E9E9" stroke-width=".25" stroke-miterlimit="10"/><path d="M1698.49 1417.61c232.52-110.62 190.27-326.61-94.26-482.223" stroke="#E9E9E9" stroke-width=".25" stroke-miterlimit="10"/><path d="M1843.13 1201.38c1.56 38.63-1.16 77.33-8.13 115.36" stroke="#E9E9E9" stroke-width=".25" stroke-miterlimit="10"/><path d="M1840.38 1295.37c-11.38 62.5-60.13 119.49-147.77 161.24-233.02 111-653.06 75-937.594-81.49a1032.172 1032.172 0 0 1 28.378-116.5c279.906 153.12 691.946 188.87 920.596 80 102.51-48.75 150.77-118.37 147.52-194.12a674.18 674.18 0 0 1-11.13 150.87Z" stroke="#E9E9E9" stroke-width=".25" stroke-miterlimit="10"/><path d="M1840.38 1295.37c-11.38 62.5-60.13 119.49-147.77 161.24-233.02 111-653.06 75-937.594-81.49a1032.172 1032.172 0 0 1 28.378-116.5c279.906 153.12 691.946 188.87 920.596 80 102.51-48.75 150.77-118.37 147.52-194.12a674.18 674.18 0 0 1-11.13 150.87Z" stroke="#E9E9E9" stroke-miterlimit="10"/><path d="M690.134 784.516a567.748 567.748 0 0 0-30.254 107.369c-233.524 110.865-190.645 327.235 94.51 483.225a1031.91 1031.91 0 0 1 28.378-116.49c-279.779-153-321.284-365.235-92.634-474.104Z" stroke="#E9E9E9" stroke-width=".25" stroke-miterlimit="10"/><path d="M678.134 818.266C447.11 928.26 488.989 1143.25 771.769 1297.49" stroke="#E9E9E9" stroke-width=".25" stroke-miterlimit="10"/><path d="M668.006 854.008c-232.524 110.744-190.27 326.612 94.26 482.222" stroke="#E9E9E9" stroke-width=".25" stroke-miterlimit="10"/><path d="M550.369 921.766a512.384 512.384 0 0 0-32.879 109.994M583.623 1091.87a615.802 615.802 0 0 0-32.254 113.24" stroke="#E9E9E9" stroke-width=".25" stroke-miterlimit="10"/><path d="M555.495 908.262c-46.505 108.998 32.753 243.988 227.274 349.978a1032.387 1032.387 0 0 0-28.378 116.5c-178.019-96.87-261.278-217.62-242.276-321.74a668.232 668.232 0 0 1 43.38-144.738Z" stroke="#E9E9E9" stroke-width=".25" stroke-miterlimit="10"/><path d="M555.495 908.262c-46.505 108.998 32.753 243.988 227.274 349.978a1032.387 1032.387 0 0 0-28.378 116.5c-178.019-96.87-261.278-217.62-242.276-321.74a668.232 668.232 0 0 1 43.38-144.738Z" stroke="#E9E9E9" stroke-miterlimit="10"/><path d="M1615.98 964.388a932.257 932.257 0 0 1 48.88 124.992c194.15-92.369 158.89-272.734-78.76-402.727a228.47 228.47 0 0 0-37.5-63.872c202.9 110.119 232.15 263.111 67.38 341.607Z" stroke="#E9E9E9" stroke-width=".25" stroke-miterlimit="10"/><path d="M1634.23 1005.26c175.02-83.372 143.52-246.239-71.01-363.608" stroke="#E9E9E9" stroke-width=".25" stroke-miterlimit="10"/><path d="M1650.61 1047.01c185.14-87.498 151.52-260.114-75.01-384.108" stroke="#E9E9E9" stroke-width=".25" stroke-miterlimit="10"/><path d="M1692.74 742.781a421.781 421.781 0 0 1 62.51 85.371M1549.1 622.658a228.465 228.465 0 0 1 37.5 63.871c-237.52-129.868-587.558-160.366-781.829-67.871a362.575 362.575 0 0 1 81.384-53.747c164.265-78.121 461.295-53.122 662.945 57.747Z" stroke="#E9E9E9" stroke-width=".25" stroke-miterlimit="10"/><path d="M1563.23 641.656c-214.65-117.368-530.81-144.867-706.08-61.371" stroke="#E9E9E9" stroke-width=".25" stroke-miterlimit="10"/><path d="M1575.48 662.902c-226.53-123.869-560.44-152.867-745.582-64.747" stroke="#E9E9E9" stroke-width=".25" stroke-miterlimit="10"/><path d="M1324.08 541.156c0 12.5-1.13 28.999-3.13 49.998M1086.05 520.539a202.718 202.718 0 0 0-45.63 45.748M885.654 564.91a362.568 362.568 0 0 0-81.383 53.747c-194.146 92.37-158.892 272.736 78.758 402.603a1388.608 1388.608 0 0 1 69.383-114.618C751.39 796.398 720.887 643.406 885.654 564.91Z" stroke="#E9E9E9" stroke-width=".25" stroke-miterlimit="10"/><path d="M857.152 580.289c-175.018 83.496-143.64 246.237 71.008 363.606" stroke="#E9E9E9" stroke-width=".25" stroke-miterlimit="10"/><path d="M829.898 598.16c-185.145 88.12-151.516 260.111 75.008 383.98" stroke="#E9E9E9" stroke-width=".25" stroke-miterlimit="10"/><path d="M1663.99 707.028a682.696 682.696 0 0 1 102.76 139.368c-30.76-55.497-91.39-111.119-180.4-159.866-237.52-129.869-587.559-160.367-781.829-67.872a294.879 294.879 0 0 0-65.632 41.248 679.463 679.463 0 0 1 146.765-94.995c164.766-78.121 461.796-53.122 663.446 57.747a469.302 469.302 0 0 1 114.89 84.37Z" stroke="#E9E9E9" stroke-width=".25" stroke-miterlimit="10"/><path d="M1663.99 707.028a682.696 682.696 0 0 1 102.76 139.368c-30.76-55.497-91.39-111.119-180.4-159.866-237.52-129.869-587.559-160.367-781.829-67.872a294.879 294.879 0 0 0-65.632 41.248 679.463 679.463 0 0 1 146.765-94.995c164.766-78.121 461.796-53.122 663.446 57.747a469.302 469.302 0 0 1 114.89 84.37Z" stroke="#E9E9E9" stroke-miterlimit="10"/><path d="M952.412 906.641c-25.003 36.748-48.005 74.996-69.383 114.619 237.521 129.99 587.561 160.49 781.831 68a931.535 931.535 0 0 0-48.88-124.997c-164.52 78.497-461.8 52.747-663.568-57.622Z" stroke="#E9E9E9" stroke-width=".25" stroke-miterlimit="10"/><path d="M928.16 943.895c214.65 117.495 530.81 144.865 706.07 61.375" stroke="#E9E9E9" stroke-width=".25" stroke-miterlimit="10"/><path d="M905.031 982.137c226.649 123.993 560.439 152.993 745.579 64.873" stroke="#E9E9E9" stroke-width=".25" stroke-miterlimit="10"/><path d="M1177.56 988.141c-9.88 42.119-19.75 85.369-29.38 129.119M1415.59 1008.76c5.87 43.5 10.37 87.49 13.12 132.87M1615.98 964.388a932.257 932.257 0 0 1 48.88 124.992c194.15-92.369 158.89-272.734-78.76-402.727a228.47 228.47 0 0 0-37.5-63.872c202.9 110.119 232.15 263.111 67.38 341.607Z" stroke="#E9E9E9" stroke-width=".25" stroke-miterlimit="10"/><path d="M1634.23 1005.26c175.02-83.372 143.52-246.239-71.01-363.608" stroke="#E9E9E9" stroke-width=".25" stroke-miterlimit="10"/><path d="M1650.61 1047.01c185.14-87.498 151.52-260.114-75.01-384.108" stroke="#E9E9E9" stroke-width=".25" stroke-miterlimit="10"/><path d="M1716.74 865.395a654.145 654.145 0 0 1 66.76 107.244M1692.74 742.77a421.775 421.775 0 0 1 62.51 85.37" stroke="#E9E9E9" stroke-width=".25" stroke-miterlimit="10"/><path d="M1766.5 846.399c51.5 92.87 19.87 184.991-101.64 242.861-194.14 92.5-544.18 62.5-781.831-68a1389.476 1389.476 0 0 1 69.383-114.614c201.768 110.364 498.798 136.114 663.568 57.747 125.01-59.872 137.52-162.492 47.76-257.362a678.12 678.12 0 0 1 102.76 139.368Z" stroke="#E9E9E9" stroke-width=".25" stroke-miterlimit="10"/><path d="M1766.5 846.399c51.5 92.87 19.87 184.991-101.64 242.861-194.14 92.5-544.18 62.5-781.831-68a1389.476 1389.476 0 0 1 69.383-114.614c201.768 110.364 498.798 136.114 663.568 57.747 125.01-59.872 137.52-162.492 47.76-257.362a678.12 678.12 0 0 1 102.76 139.368Z" stroke="#E9E9E9" stroke-miterlimit="10"/><path d="M1549.1 622.658a228.465 228.465 0 0 1 37.5 63.871c-237.52-129.868-587.558-160.366-781.829-67.871a362.575 362.575 0 0 1 81.384-53.747c164.265-78.121 461.295-53.122 662.945 57.747Z" stroke="#E9E9E9" stroke-width=".25" stroke-miterlimit="10"/><path d="M1563.23 641.656c-214.65-117.368-530.81-144.867-706.08-61.371" stroke="#E9E9E9" stroke-width=".25" stroke-miterlimit="10"/><path d="M1575.48 662.902c-226.53-123.869-560.44-152.867-745.582-64.747" stroke="#E9E9E9" stroke-width=".25" stroke-miterlimit="10"/><path d="M885.654 564.91a362.568 362.568 0 0 0-81.383 53.747c-194.146 92.37-158.892 272.736 78.758 402.603a1388.608 1388.608 0 0 1 69.383-114.618C751.39 796.398 720.887 643.406 885.654 564.91Z" stroke="#E9E9E9" stroke-width=".25" stroke-miterlimit="10"/><path d="M857.152 580.289c-175.018 83.496-143.64 246.237 71.008 363.606" stroke="#E9E9E9" stroke-width=".25" stroke-miterlimit="10"/><path d="M829.898 598.16c-185.145 88.12-151.516 260.111 75.008 383.98" stroke="#E9E9E9" stroke-width=".25" stroke-miterlimit="10"/><path d="M784.893 663.902a586.443 586.443 0 0 0-100.01 71.372M808.897 786.773a837.484 837.484 0 0 0-95.01 92.871" stroke="#E9E9E9" stroke-width=".25" stroke-miterlimit="10"/><path d="M885.653 564.91c-164.767 78.496-134.264 231.488 66.758 341.732-25.003 36.748-48.006 74.996-69.383 114.618-206.022-112.618-259.902-263.11-144.14-361.355 44.68-37.78 94-69.703 146.765-94.995Z" stroke="#E9E9E9" stroke-width=".25" stroke-miterlimit="10"/><path d="M885.653 564.91c-164.767 78.496-134.264 231.488 66.758 341.732-25.003 36.748-48.006 74.996-69.383 114.618-206.022-112.618-259.902-263.11-144.14-361.355 44.68-37.78 94-69.703 146.765-94.995Z" stroke="#E9E9E9" stroke-miterlimit="10"/><path d="M883.029 1021.26 666.131 907.52c413.419 226.11 1022.859 279.23 1360.389 118.24l-361.66 63.5c-194.14 92.49-544.18 62-781.831-68ZM1148.18 1117.26l-20.75-42.74M1428.59 1141.63l186.89-24.75" stroke="#E9E9E9" stroke-width=".25" stroke-miterlimit="10"/><path d="M895.28 1027.89 687.383 918.895C993.665 1079.51 1399.96 1147.63 1724.99 1107.63l-233.77 29.13c-186.65 22.5-420.05-16.63-595.94-108.87Z" stroke="#E9E9E9" stroke-width=".25" stroke-miterlimit="10"/><path d="M895.28 1027.89 687.383 918.895C993.665 1079.51 1399.96 1147.63 1724.99 1107.63l-233.77 29.13c-186.65 22.5-420.05-16.63-595.94-108.87Z" stroke="#E9E9E9" stroke-miterlimit="10"/><path d="M883.029 1021.26 666.131 907.52c413.419 226.11 1022.859 279.23 1360.389 118.24l-361.66 63.5c-194.14 92.49-544.18 62-781.831-68Z" stroke="#E9E9E9" stroke-width=".25" stroke-miterlimit="10"/><path d="M687.383 918.894c-7.126-3.75-14.251-7.5-21.252-11.374l216.898 113.74 12.501 6.63-208.147-108.996Z" stroke="#E9E9E9" stroke-width=".25" stroke-miterlimit="10"/><path d="M687.383 918.894c-7.126-3.75-14.251-7.5-21.252-11.374l216.898 113.74 12.501 6.63-208.147-108.996Z" stroke="#E9E9E9" stroke-miterlimit="10"/><path d="M883.029 1021.26 666.131 907.52c413.419 226.11 1022.859 279.23 1360.389 118.24l-361.66 63.5c-194.14 92.49-544.18 62-781.831-68Z" stroke="#E9E9E9" stroke-width=".25" stroke-miterlimit="10"/><path d="m1664.86 1089.25 361.67-63.49c337.53-160.871 276.53-474.979-137.52-700.717l-302.9 361.731c237.65 129.743 272.9 310.108 78.75 402.476ZM1783.5 972.758l449.55-149.867M1755.25 828.264l428.67-256.737" stroke="#E9E9E9" stroke-width=".25" stroke-miterlimit="10"/><path d="m1586.1 686.775 302.91-361.731C1476.47 99.306 866.903 45.934 529.117 206.8l275.029 411.853c194.271-92.495 544.304-61.997 781.954 68.122ZM1320.95 590.657l107.14-432.477M1040.42 566.277 940.035 115.801" stroke="#E9E9E9" stroke-width=".25" stroke-miterlimit="10"/><path d="M804.271 618.654 529.242 206.801C191.706 367.667 252.713 681.776 666.756 907.514l216.898 113.746c-238.275-129.87-273.529-310.236-79.383-402.606ZM685.509 735.272 322.596 409.789M713.761 879.77 371.725 661.156" stroke="#E9E9E9" stroke-width=".25" stroke-miterlimit="10"/><path d="M1491.22 1136.75a568.798 568.798 0 0 0 173.64-47c194.15-92.37 158.89-272.735-78.76-402.728-237.65-129.993-587.558-160.367-781.829-67.871-194.27 92.495-158.892 272.735 78.759 402.599L666.132 908.01C252.588 681.897 191.081 368.164 528.617 207.297 866.153 46.431 1476.47 99.303 1889.01 325.041c412.54 225.738 475.05 539.847 137.52 700.709a990.99 990.99 0 0 1-302.16 81.87l-233.15 29.13Z" stroke="#E9E9E9" stroke-width=".25" stroke-miterlimit="10"/><path d="M1491.22 1136.75a568.798 568.798 0 0 0 173.64-47c194.15-92.37 158.89-272.735-78.76-402.728-237.65-129.993-587.558-160.367-781.829-67.871-194.27 92.495-158.892 272.735 78.759 402.599L666.132 908.01C252.588 681.897 191.081 368.164 528.617 207.297 866.153 46.431 1476.47 99.303 1889.01 325.041c412.54 225.738 475.05 539.847 137.52 700.709a990.99 990.99 0 0 1-302.16 81.87l-233.15 29.13Z" stroke="#E9E9E9" stroke-miterlimit="10"/><path d="M2026.53 1025.76a1627.043 1627.043 0 0 0-85.01-216.866c286.78-136.493 234.77-402.853-116.27-594.843a397.602 397.602 0 0 1 63.76 110.994c414.04 226.113 475.05 539.846 137.52 700.715Z" stroke="#E9E9E9" stroke-width=".25" stroke-miterlimit="10"/><path d="M2001.52 952.258c322.41-152.992 263.9-452.976-130.39-668.215" stroke="#E9E9E9" stroke-width=".25" stroke-miterlimit="10"/><path d="M1973.39 879.884c305.16-145.242 250.03-428.602-123.76-632.841" stroke="#E9E9E9" stroke-width=".25" stroke-miterlimit="10"/><path d="M2183.92 571.398a730.49 730.49 0 0 0-108.77-148.117M1889.01 325.04a397.444 397.444 0 0 0-64.26-110.994C1473.84 22.181 956.784-22.817 670.003 114.051a618.531 618.531 0 0 0-140.89 92.745C866.899 45.929 1476.46 99.302 1889.01 325.04Z" stroke="#E9E9E9" stroke-width=".25" stroke-miterlimit="10"/><path d="M1871.13 284.035C1476.84 68.296 896.028 17.924 573.744 171.541" stroke="#E9E9E9" stroke-width=".25" stroke-miterlimit="10"/><path d="M1849.63 247.048C1476.47 42.809 926.407-5.063 620.875 140.179" stroke="#E9E9E9" stroke-width=".25" stroke-miterlimit="10"/><path d="M1428.09 158.175c3.62-35.623 5.37-64.247 5.5-85.745M940.033 115.672a350.044 350.044 0 0 1 79.257-78.871M529.115 206.796a618.551 618.551 0 0 1 141.39-92.995C383.725 250.294 435.73 516.53 786.767 708.519c-43.004 63.622-83.384 130.243-120.638 198.99-413.543-226.113-474.925-539.847-137.014-700.713Z" stroke="#E9E9E9" stroke-width=".25" stroke-miterlimit="10"/><path d="M573.746 171.301c-322.41 152.992-263.653 452.976 130.638 668.214" stroke="#E9E9E9" stroke-width=".25" stroke-miterlimit="10"/><path d="M620.874 140.176C315.841 285.543 370.847 568.903 744.637 773.142M1941.51 808.887a1589.363 1589.363 0 0 0-110.13-195.115c227.02-108.119 185.77-318.858-92.01-470.85a296.391 296.391 0 0 1 85.88 71.121c351.29 191.99 403.04 458.351 116.26 594.844Z" stroke="#E9E9E9" stroke-width=".25" stroke-miterlimit="10"/><path d="M1907.89 742.014c267.9-127.494 219.27-376.356-108.64-555.721" stroke="#E9E9E9" stroke-width=".25" stroke-miterlimit="10"/><path d="M1871.01 676.899c248.02-117.994 203.02-348.357-100.01-514.348" stroke="#E9E9E9" stroke-width=".25" stroke-miterlimit="10"/><path d="M2075.16 423.283a758.57 758.57 0 0 0-137.52-114.744M1825.25 214.045a296.318 296.318 0 0 0-86.26-71.121C1461.21-8.943 1051.42-44.566 825.02 63.553a615.638 615.638 0 0 0-154.891 49.997C957.284-22.817 1474.34 22.18 1825.25 214.045Z" stroke="#E9E9E9" stroke-width=".25" stroke-miterlimit="10"/><path d="M1799.25 186.795C1471.21 7.555 988.163-34.443 720.26 93.05" stroke="#E9E9E9" stroke-width=".25" stroke-miterlimit="10"/><path d="M1770.5 162.546C1466.96-3.444 1020.42-42.193 771.891 75.801" stroke="#E9E9E9" stroke-width=".25" stroke-miterlimit="10"/><path d="M1433.58 72.431c1.04-14.016-.4-28.105-4.25-41.622M1019.29 36.803a196.682 196.682 0 0 1 82.14-34.498M670.506 113.798a615.63 615.63 0 0 1 154.891-49.997c-227.024 107.744-185.77 318.608 92.01 470.475a2174.936 2174.936 0 0 0-130.639 174.241c-351.037-191.99-403.043-458.226-116.262-594.719Z" stroke="#E9E9E9" stroke-width=".25" stroke-miterlimit="10"/><path d="M720.259 92.547C452.23 220.165 501.361 468.902 828.895 648.267" stroke="#E9E9E9" stroke-width=".25" stroke-miterlimit="10"/><path d="M771.891 75.8C523.989 193.92 568.994 424.158 871.901 590.15" stroke="#E9E9E9" stroke-width=".25" stroke-miterlimit="10"/><path d="M2203.17 602.78c-53.63-96.37-159.02-193.24-313.66-277.736C1476.47 99.306 866.901 45.934 529.116 206.801a523.124 523.124 0 0 0-113.512 71.496A1181.33 1181.33 0 0 1 1015.67 10.186c225.02-30.998 512.55 17.25 723.57 132.743a1174.931 1174.931 0 0 1 375.04 323.608c32.7 43.338 62.4 88.858 88.89 136.243Z" stroke="#E9E9E9" stroke-width=".25" stroke-miterlimit="10"/><path d="M2203.17 602.78c-53.63-96.37-159.02-193.24-313.66-277.736C1476.47 99.306 866.901 45.934 529.116 206.801a523.124 523.124 0 0 0-113.512 71.496A1181.33 1181.33 0 0 1 1015.67 10.186c225.02-30.998 512.55 17.25 723.57 132.743a1174.931 1174.931 0 0 1 375.04 323.608c32.7 43.338 62.4 88.858 88.89 136.243Z" stroke="#E9E9E9" stroke-miterlimit="10"/><path d="M666.131 907.509c37.504-68.746 77.633-135.368 120.638-198.989 351.041 191.989 867.971 236.862 1154.751 99.994a1624.917 1624.917 0 0 1 85 217.236c-337.53 160.99-946.97 107.87-1360.389-118.241Z" stroke="#E9E9E9" stroke-width=".25" stroke-miterlimit="10"/><path d="M704.387 839.516C1098.68 1055.13 1679.49 1105.63 2001.77 952.01" stroke="#E9E9E9" stroke-width=".25" stroke-miterlimit="10"/><path d="M744.641 773.141C1118.18 977.38 1668.24 1025.13 1973.4 879.885" stroke="#E9E9E9" stroke-width=".25" stroke-miterlimit="10"/><path d="M1127.56 1074.25c16.75-76.121 33.88-151.242 50.88-224.113M1615.61 1116.87c-4.88-78.12-12.5-155.37-22.88-230.616M2026.53 1025.76a1627.043 1627.043 0 0 0-85.01-216.866c286.78-136.493 234.77-402.853-116.27-594.843a397.602 397.602 0 0 1 63.76 110.994c414.04 226.113 475.05 539.846 137.52 700.715Z" stroke="#E9E9E9" stroke-width=".25" stroke-miterlimit="10"/><path d="M2001.52 952.258c322.41-152.992 263.91-452.976-130.39-668.215" stroke="#E9E9E9" stroke-width=".25" stroke-miterlimit="10"/><path d="M1973.39 879.884c305.16-145.242 250.03-428.602-123.76-632.841" stroke="#E9E9E9" stroke-width=".25" stroke-miterlimit="10"/><path d="M2233.05 822.885a1122.136 1122.136 0 0 0-116.14-186.115M2183.92 571.398a730.49 730.49 0 0 0-108.77-148.117M1889.01 325.04a397.444 397.444 0 0 0-64.26-110.994C1473.84 22.181 956.787-22.817 670.007 114.051a618.531 618.531 0 0 0-140.89 92.745C866.903 45.929 1476.47 99.302 1889.01 325.04Z" stroke="#E9E9E9" stroke-width=".25" stroke-miterlimit="10"/><path d="M1871.14 284.035C1476.84 68.296 896.032 17.924 573.748 171.541" stroke="#E9E9E9" stroke-width=".25" stroke-miterlimit="10"/><path d="M1849.63 247.048C1476.47 42.809 926.409-5.063 620.877 140.179M786.771 708.514A2174.936 2174.936 0 0 1 917.41 534.273c277.78 151.992 686.95 187.491 913.97 79.496a1589.433 1589.433 0 0 1 110.14 195.115c-286.78 136.493-803.71 91.62-1154.749-100.37Z" stroke="#E9E9E9" stroke-width=".25" stroke-miterlimit="10"/><path d="M828.898 648.27c327.912 179.365 810.962 221.363 1078.992 93.745" stroke="#E9E9E9" stroke-width=".25" stroke-miterlimit="10"/><path d="M872.527 590.152c303.403 165.991 750.083 204.864 998.483 86.746" stroke="#E9E9E9" stroke-width=".25" stroke-miterlimit="10"/><path d="M1178.44 850.263c16.37-70.247 32.75-138.618 48.88-203.865M1592.73 886.754c-10-72.496-22.5-143.367-37.5-211.363M1941.52 808.887a1589.433 1589.433 0 0 0-110.14-195.115c227.03-108.119 185.77-318.858-92.01-470.85a296.432 296.432 0 0 1 85.89 71.121c351.28 191.99 403.04 458.351 116.26 594.844Z" stroke="#E9E9E9" stroke-width=".25" stroke-miterlimit="10"/><path d="M1907.89 742.014c267.9-127.494 219.27-376.356-108.64-555.721" stroke="#E9E9E9" stroke-width=".25" stroke-miterlimit="10"/><path d="M1871.01 676.899c248.03-117.994 203.02-348.357-100.01-514.348" stroke="#E9E9E9" stroke-width=".25" stroke-miterlimit="10"/><path d="M2116.91 636.777a1204.525 1204.525 0 0 0-146.77-159.242M2075.16 423.283a758.57 758.57 0 0 0-137.52-114.744M1825.25 214.045a296.408 296.408 0 0 0-86.25-71.121C1461.22-8.943 1051.42-44.566 825.024 63.553a615.638 615.638 0 0 0-154.891 49.997C957.288-22.817 1474.34 22.18 1825.25 214.045Z" stroke="#E9E9E9" stroke-width=".25" stroke-miterlimit="10"/><path d="M1799.25 186.795C1471.22 7.555 988.167-34.443 720.264 93.05" stroke="#E9E9E9" stroke-width=".25" stroke-miterlimit="10"/><path d="M1770.5 162.546C1466.97-3.444 1020.42-42.193 771.893 75.801" stroke="#E9E9E9" stroke-width=".25" stroke-miterlimit="10"/><path d="M2024.27 360.785a1172.606 1172.606 0 0 1 178.9 241.988c89.88 161.616 34.88 322.232-176.65 422.977-337.53 160.99-946.97 107.87-1360.389-118.244 37.504-68.746 77.633-135.367 120.638-198.989a2174.924 2174.924 0 0 1 130.638-174.241c277.783 151.992 686.953 187.49 913.973 79.496 227.02-107.994 185.77-318.858-92.39-470.85a1216.307 1216.307 0 0 1 148.77 96.37 1168.16 1168.16 0 0 1 136.51 121.493Z" stroke="#E9E9E9" stroke-width=".25" stroke-miterlimit="10"/><path d="M2024.27 360.785a1172.606 1172.606 0 0 1 178.9 241.988c89.88 161.616 34.88 322.232-176.65 422.977-337.53 160.99-946.97 107.87-1360.389-118.244 37.504-68.746 77.633-135.367 120.638-198.989a2174.924 2174.924 0 0 1 130.638-174.241c277.783 151.992 686.953 187.49 913.973 79.496 227.02-107.994 185.77-318.858-92.39-470.85a1216.307 1216.307 0 0 1 148.77 96.37 1168.16 1168.16 0 0 1 136.51 121.493Z" stroke="#E9E9E9" stroke-miterlimit="10"/><path d="M1889.01 325.04a397.444 397.444 0 0 0-64.26-110.994C1473.84 22.181 956.784-22.817 670.003 114.051a618.531 618.531 0 0 0-140.89 92.745C866.899 45.929 1476.46 99.302 1889.01 325.04Z" stroke="#E9E9E9" stroke-width=".25" stroke-miterlimit="10"/><path d="M1871.13 284.035C1476.84 68.296 896.028 17.924 573.744 171.541" stroke="#E9E9E9" stroke-width=".25" stroke-miterlimit="10"/><path d="M1849.63 247.048C1476.47 42.809 926.407-5.063 620.875 140.179" stroke="#E9E9E9" stroke-width=".25" stroke-miterlimit="10"/><path d="M529.115 206.796a618.551 618.551 0 0 1 141.39-92.995C383.725 250.294 435.73 516.53 786.767 708.519c-43.004 63.622-83.384 130.243-120.638 198.99-413.543-226.113-474.925-539.847-137.014-700.713Z" stroke="#E9E9E9" stroke-width=".25" stroke-miterlimit="10"/><path d="M573.746 171.301c-322.41 152.992-263.653 452.976 130.638 668.214" stroke="#E9E9E9" stroke-width=".25" stroke-miterlimit="10"/><path d="M620.874 140.176C315.841 285.543 370.847 568.903 744.637 773.142" stroke="#E9E9E9" stroke-width=".25" stroke-miterlimit="10"/><path d="M322.592 409.665A1018.213 1018.213 0 0 1 495.11 285.922M371.725 661.019a1441.492 1441.492 0 0 1 165.142-161.742M1825.25 214.045a296.318 296.318 0 0 0-86.26-71.121C1461.21-8.943 1051.42-44.566 825.02 63.553a615.638 615.638 0 0 0-154.891 49.997C957.284-22.817 1474.34 22.18 1825.25 214.045Z" stroke="#E9E9E9" stroke-width=".25" stroke-miterlimit="10"/><path d="M1799.25 186.795C1471.21 7.555 988.163-34.443 720.26 93.05" stroke="#E9E9E9" stroke-width=".25" stroke-miterlimit="10"/><path d="M1770.5 162.546C1466.96-3.444 1020.42-42.193 771.891 75.801" stroke="#E9E9E9" stroke-width=".25" stroke-miterlimit="10"/><path d="M670.506 113.798a615.63 615.63 0 0 1 154.891-49.997c-227.024 107.744-185.77 318.608 92.01 470.475a2174.936 2174.936 0 0 0-130.639 174.241c-351.037-191.99-403.043-458.226-116.262-594.719Z" stroke="#E9E9E9" stroke-width=".25" stroke-miterlimit="10"/><path d="M720.259 92.547C452.23 220.165 501.361 468.902 828.895 648.267" stroke="#E9E9E9" stroke-width=".25" stroke-miterlimit="10"/><path d="M771.891 75.8C523.989 193.92 568.994 424.158 871.901 590.15" stroke="#E9E9E9" stroke-width=".25" stroke-miterlimit="10"/><path d="M495.111 285.913a1104.606 1104.606 0 0 1 191.521-86.62M536.865 499.282a1465.73 1465.73 0 0 1 182.77-130.493" stroke="#E9E9E9" stroke-width=".25" stroke-miterlimit="10"/><path d="M415.601 278.29A1181.597 1181.597 0 0 1 1015.66 10.18a650.167 650.167 0 0 0-190.391 53.372C598.37 171.546 639.625 382.41 917.404 534.277a2174.936 2174.936 0 0 0-130.639 174.241c-43.004 63.621-83.383 130.243-120.637 198.989C307.465 711.767 213.83 449.281 415.601 278.29Z" stroke="#E9E9E9" stroke-width=".25" stroke-miterlimit="10"/><path d="M415.601 278.29A1181.597 1181.597 0 0 1 1015.66 10.18a650.167 650.167 0 0 0-190.391 53.372C598.37 171.546 639.625 382.41 917.404 534.277a2174.936 2174.936 0 0 0-130.639 174.241c-43.004 63.621-83.383 130.243-120.637 198.989C307.465 711.767 213.83 449.281 415.601 278.29Z" stroke="#E9E9E9" stroke-miterlimit="10"/><path d="m1831.38 613.772-279.03 237.487c130.39-62.496 106.64-182.99-52.76-270.235l239.4-438.102c278.16 151.992 319.41 362.731 92.39 470.85ZM1970.14 477.402l-338.16 296.235M1937.01 308.539l-323.9 368.231" stroke="#E9E9E9" stroke-width=".25" stroke-miterlimit="10"/><path d="m1738.99 142.924-239.77 438.727c-159.52-87.496-394.42-107.62-525.058-45.623L824.146 63.553C1052.3-44.567 1461.59-8.943 1738.99 142.924ZM1429.34 30.93l-107.77 486.474M1101.43 2.43l32 498.598" stroke="#E9E9E9" stroke-width=".25" stroke-miterlimit="10"/><path d="m825.398 63.559 150.016 472.475c-130.264 62.496-106.636 182.99 52.876 270.235L917.408 534.284c-277.78-151.867-319.034-362.731-92.01-470.725ZM686.51 199.914l208.772 414.478" stroke="#E9E9E9" stroke-width=".25" stroke-miterlimit="10"/><path d="m1905.51 567.401-310.53 257.862c79.38-65.872 43.63-167.616-95.39-243.612-159.51-87.496-394.41-107.62-525.052-45.623-82.134 39.123-103.011 101.745-67.382 164.491L707.135 350.538c-62.507-109.369-25.753-218.364 117.387-286.485 226.898-108.12 636.188-72.496 913.968 79.371 243.03 131.993 305.41 309.108 167.02 423.977Z" stroke="#E9E9E9" stroke-width=".25" stroke-miterlimit="10"/><path d="m1905.51 567.401-310.53 257.862c79.38-65.872 43.63-167.616-95.39-243.612-159.51-87.496-394.41-107.62-525.052-45.623-82.134 39.123-103.011 101.745-67.382 164.491L707.135 350.538c-62.507-109.369-25.753-218.364 117.387-286.485 226.898-108.12 636.188-72.496 913.968 79.371 243.03 131.993 305.41 309.108 167.02 423.977Z" stroke="#E9E9E9" stroke-miterlimit="10"/><path d="m917.408 534.273 110.382 271.986c159.4 87.495 394.3 107.619 525.06 45.623l279.03-237.488c-227.52 107.37-636.69 72.371-914.472-80.121ZM1227.32 646.523l-21.63 224.114M1555.23 674.895l-161.4 212.113" stroke="#E9E9E9" stroke-width=".25" stroke-miterlimit="10"/><path d="m1831.38 613.776-279.03 237.487c130.39-62.496 106.64-182.99-52.75-270.235L1739 142.926c278.15 151.992 319.4 362.731 92.38 470.85Z" stroke="#E9E9E9" stroke-width=".25" stroke-miterlimit="10"/><path d="M1594.98 825.258a200.797 200.797 0 0 1-42.63 26.624c-130.26 62.496-365.16 41.622-525.06-45.623L917.408 534.273c277.782 151.992 686.952 187.491 913.972 79.496a351.822 351.822 0 0 0 74.13-46.372l-310.53 257.861Z" stroke="#E9E9E9" stroke-width=".25" stroke-miterlimit="10"/><path d="M1594.98 825.258a200.797 200.797 0 0 1-42.63 26.624c-130.26 62.496-365.16 41.622-525.06-45.623L917.408 534.273c277.782 151.992 686.952 187.491 913.972 79.496a351.822 351.822 0 0 0 74.13-46.372l-310.53 257.861Z" stroke="#E9E9E9" stroke-miterlimit="10"/><path d="m825.398 63.559 150.016 472.475c-130.264 62.496-106.636 182.99 52.876 270.235L917.408 534.284c-277.78-151.867-319.034-362.731-92.01-470.725ZM719.512 368.793l194.645 342.482" stroke="#E9E9E9" stroke-width=".25" stroke-miterlimit="10"/><path d="M708.012 350.043c36.379 63.997 106.761 128.118 209.397 184.24L1027.8 806.269c-58.886-31.999-99.265-69.497-120.267-105.745L708.012 350.043Z" stroke="#E9E9E9" stroke-width=".25" stroke-miterlimit="10"/><path d="M708.012 350.043c36.379 63.997 106.761 128.118 209.397 184.24L1027.8 806.269c-58.886-31.999-99.265-69.497-120.267-105.745L708.012 350.043Z" stroke="#E9E9E9" stroke-miterlimit="10"/><path d="M1552.35 851.892a928.168 928.168 0 0 1 63.63 112.494c164.77-78.496 134.89-231.488-66.88-341.732a169.876 169.876 0 0 0-50-40.998c159.89 87.246 183.64 208.239 53.25 270.236Z" stroke="#E9E9E9" stroke-width=".25" stroke-miterlimit="10"/><path d="M1575.23 888.27c142.39-67.747 116.51-199.99-57.76-295.235" stroke="#E9E9E9" stroke-width=".25" stroke-miterlimit="10"/><path d="M1596.48 925.889c153.89-73.371 125.89-216.238-62.51-319.233" stroke="#E9E9E9" stroke-width=".25" stroke-miterlimit="10"/><path d="M1499.59 581.661a169.916 169.916 0 0 1 50.01 40.998c-202.15-110.869-499.18-135.868-663.946-57.747a363.864 363.864 0 0 1 89.26-28.874c130.266-61.746 365.166-41.622 524.676 45.623Z" stroke="#E9E9E9" stroke-width=".25" stroke-miterlimit="10"/><path d="M1517.47 593.038c-174.27-95.37-430.92-117.619-573.31-49.998" stroke="#E9E9E9" stroke-width=".25" stroke-miterlimit="10"/><path d="M1534.1 606.66c-188.4-102.995-465.8-127.119-620.192-53.873" stroke="#E9E9E9" stroke-width=".25" stroke-miterlimit="10"/><path d="M1321.7 517.293a73.366 73.366 0 0 1 2.38 23.874M1133.43 500.914a115.533 115.533 0 0 0-47.38 19.624M974.914 536.043a363.812 363.812 0 0 0-89.259 28.873c-164.768 78.496-134.264 231.488 66.757 341.732 24.002-35.248 49.128-68.871 75.008-99.994-159.142-87.621-182.77-208.489-52.506-270.611Z" stroke="#E9E9E9" stroke-width=".25" stroke-miterlimit="10"/><path d="M944.161 543.16c-142.765 67.872-116.513 199.99 57.259 295.36" stroke="#E9E9E9" stroke-width=".25" stroke-miterlimit="10"/><path d="M913.908 552.789c-153.391 73.246-125.013 216.239 62.506 319.233" stroke="#E9E9E9" stroke-width=".25" stroke-miterlimit="10"/><path d="M1499.59 581.659a684.026 684.026 0 0 1 162.52 124.244 469.125 469.125 0 0 0-113.51-83.246c-201.15-110.869-498.18-135.868-662.946-57.747a681.412 681.412 0 0 1 197.146-59.247 722.406 722.406 0 0 1 416.79 75.996Z" stroke="#E9E9E9" stroke-width=".25" stroke-miterlimit="10"/><path d="M1499.59 581.659a684.026 684.026 0 0 1 162.52 124.244 469.125 469.125 0 0 0-113.51-83.246c-201.15-110.869-498.18-135.868-662.946-57.747a681.412 681.412 0 0 1 197.146-59.247 722.406 722.406 0 0 1 416.79 75.996Z" stroke="#E9E9E9" stroke-miterlimit="10"/><path d="M1027.8 806.277c-26.26 31.499-51.385 65.122-75.013 99.995 201.773 110.368 498.803 136.118 663.573 57.747a930.86 930.86 0 0 0-63.63-112.494c-130.64 62.372-365.54 41.998-524.93-45.248Z" stroke="#E9E9E9" stroke-width=".25" stroke-miterlimit="10"/><path d="M1001.42 838.527c174.26 95.245 430.92 117.619 573.31 49.998" stroke="#E9E9E9" stroke-width=".25" stroke-miterlimit="10"/><path d="M976.414 872.023c188.766 102.995 466.176 127.244 620.066 53.873" stroke="#E9E9E9" stroke-width=".25" stroke-miterlimit="10"/><path d="M1205.69 870.645c-9.25 37.498-18.75 76.995-28.13 117.493M1393.96 886.77c8.5 39.247 15.75 79.995 21.62 121.74M1552.35 851.892a928.168 928.168 0 0 1 63.63 112.494c164.77-78.496 134.89-231.488-66.88-341.732a169.876 169.876 0 0 0-50-40.998c159.89 87.246 183.64 208.239 53.25 270.236Z" stroke="#E9E9E9" stroke-width=".25" stroke-miterlimit="10"/><path d="M1575.23 888.27c142.39-67.747 116.51-199.99-57.76-295.235" stroke="#E9E9E9" stroke-width=".25" stroke-miterlimit="10"/><path d="M1596.48 925.889c153.89-73.371 125.89-216.238-62.51-319.233" stroke="#E9E9E9" stroke-width=".25" stroke-miterlimit="10"/><path d="M1632.11 774.273a713.605 713.605 0 0 1 84.63 91.745M1613.11 676.66a453.253 453.253 0 0 1 79.63 66.122M1499.59 581.661a169.916 169.916 0 0 1 50.01 40.998c-202.15-110.869-499.18-135.868-663.946-57.747a363.864 363.864 0 0 1 89.26-28.874c130.266-61.746 365.166-41.622 524.676 45.623Z" stroke="#E9E9E9" stroke-width=".25" stroke-miterlimit="10"/><path d="M1517.47 593.038c-174.27-95.37-430.92-117.619-573.31-49.998" stroke="#E9E9E9" stroke-width=".25" stroke-miterlimit="10"/><path d="M1534.1 606.66c-188.4-102.995-465.8-127.119-620.192-53.873" stroke="#E9E9E9" stroke-width=".25" stroke-miterlimit="10"/><path d="M1662.61 705.904c91.51 94.745 79.39 198.489-46.63 258.486-164.52 78.37-461.8 52.62-663.568-57.747 24.003-35.248 49.128-68.871 75.008-99.995 159.39 87.496 394.29 107.619 525.06 45.623 130.76-61.997 106.63-182.99-52.76-270.236a682.144 682.144 0 0 1 162.89 123.869Z" stroke="#E9E9E9" stroke-width=".25" stroke-miterlimit="10"/><path d="M1662.61 705.904c91.51 94.745 79.39 198.489-46.63 258.486-164.52 78.37-461.8 52.62-663.568-57.747 24.003-35.248 49.128-68.871 75.008-99.995 159.39 87.496 394.29 107.619 525.06 45.623 130.76-61.997 106.63-182.99-52.76-270.236a682.144 682.144 0 0 1 162.89 123.869Z" stroke="#E9E9E9" stroke-miterlimit="10"/><path d="M1499.59 581.661a169.916 169.916 0 0 1 50.01 40.998c-202.15-110.869-499.18-135.868-663.946-57.747a363.864 363.864 0 0 1 89.26-28.874c130.266-61.746 365.166-41.622 524.676 45.623Z" stroke="#E9E9E9" stroke-width=".25" stroke-miterlimit="10"/><path d="M1517.47 593.038c-174.27-95.37-430.92-117.619-573.31-49.998" stroke="#E9E9E9" stroke-width=".25" stroke-miterlimit="10"/><path d="M1534.1 606.66c-188.4-102.995-465.8-127.119-620.192-53.873" stroke="#E9E9E9" stroke-width=".25" stroke-miterlimit="10"/><path d="M974.914 536.043a363.812 363.812 0 0 0-89.259 28.873c-164.768 78.496-134.264 231.488 66.757 341.732 24.002-35.248 49.128-68.871 75.008-99.994-159.142-87.621-182.77-208.489-52.506-270.611Z" stroke="#E9E9E9" stroke-width=".25" stroke-miterlimit="10"/><path d="M944.161 543.16c-142.765 67.872-116.513 199.99 57.259 295.36" stroke="#E9E9E9" stroke-width=".25" stroke-miterlimit="10"/><path d="M913.908 552.789c-153.391 73.246-125.013 216.239 62.506 319.233" stroke="#E9E9E9" stroke-width=".25" stroke-miterlimit="10"/><path d="M895.279 614.285a651.905 651.905 0 0 0-110.386 49.997M913.908 711.777a871.568 871.568 0 0 0-105.387 74.996" stroke="#E9E9E9" stroke-width=".25" stroke-miterlimit="10"/><path d="M1082.8 505.66a375.042 375.042 0 0 0-107.885 30.374c-130.264 62.496-106.636 182.99 52.885 270.235-26.26 31.499-51.385 65.122-75.012 99.995-201.397-109.869-231.9-262.861-67.133-341.357A680.76 680.76 0 0 1 1082.8 505.66Z" stroke="#E9E9E9" stroke-width=".25" stroke-miterlimit="10"/><path d="M1082.8 505.66a375.042 375.042 0 0 0-107.885 30.374c-130.264 62.496-106.636 182.99 52.885 270.235-26.26 31.499-51.385 65.122-75.012 99.995-201.397-109.869-231.9-262.861-67.133-341.357A680.76 680.76 0 0 1 1082.8 505.66Z" stroke="#E9E9E9" stroke-miterlimit="10"/><path d="M1281.69 595.035a554.176 554.176 0 0 0-87.5 52.372c57.5 31.374 142.26 38.748 189.27 16.375a685.618 685.618 0 0 0-101.77-68.747Z" stroke="#E9E9E9" stroke-width=".25" stroke-miterlimit="10"/><path d="M1252.82 610.035a80.517 80.517 0 0 0 63.76 5.5M1223.69 627.406c38.51 21.124 95.39 26.124 126.89 11.125" stroke="#E9E9E9" stroke-width=".25" stroke-miterlimit="10"/><path d="M1281.7 595.035c-7 21.499-14.88 46.873-23.13 74.996M1281.7 595.035a557.025 557.025 0 0 1 44.75 81.496" stroke="#E9E9E9" stroke-width=".25" stroke-miterlimit="10"/><path d="M1281.7 595.038a685.826 685.826 0 0 1 102.01 68.746c47.13-22.374 38.5-65.997-19.01-97.495a365.092 365.092 0 0 0-83 28.749Z" stroke="#E9E9E9" stroke-width=".25" stroke-miterlimit="10"/><path d="M1316.57 615.53c15.76-7.5 12.51-22.249-6.5-32.874M1350.58 638.536c31.63-15 25.88-44.373-12.5-65.497" stroke="#E9E9E9" stroke-width=".25" stroke-miterlimit="10"/><path d="M1281.7 595.035a781.237 781.237 0 0 1 130.76 40.498M1281.7 595.033a644.314 644.314 0 0 1 124.01 5.499M1281.69 595.032a365.335 365.335 0 0 1 83.01-28.748c-57.5-31.499-142.39-38.873-189.39-16.5a563.61 563.61 0 0 1 106.38 45.248Z" stroke="#E9E9E9" stroke-width=".25" stroke-miterlimit="10"/><path d="M1310.08 582.654a80.514 80.514 0 0 0-63.76-5.5M1337.83 573.035c-38.63-20.999-95.51-25.998-127.02-10.999" stroke="#E9E9E9" stroke-width=".25" stroke-miterlimit="10"/><path d="M1281.7 595.032c7-21.498 13.37-38.998 18.75-51.997M1281.7 595.032a307.526 307.526 0 0 0-49.13-58.247M1281.7 595.033a563.932 563.932 0 0 0-106.39-45.748c-47 22.374-38.5 66.122 19.13 97.62a553.925 553.925 0 0 1 87.26-51.872Z" stroke="#E9E9E9" stroke-width=".25" stroke-miterlimit="10"/><path d="M1246.32 577.164c-15.75 7.5-12.5 22.249 6.5 32.873M1210.81 561.785c-31.5 14.999-25.75 44.373 12.51 65.372" stroke="#E9E9E9" stroke-width=".25" stroke-miterlimit="10"/><path d="M1281.7 595.03a768.722 768.722 0 0 0-135.14-16.999M1281.7 595.035a730.093 730.093 0 0 0-128.27 17.999" stroke="#E9E9E9" stroke-width=".25" stroke-miterlimit="10"/><path d="M1281.7 595.031a553.747 553.747 0 0 0-87.51 52.373c-57.63-31.499-66.13-74.996-19.13-97.62 47.01-22.624 131.89-14.999 189.4 16.499 57.5 31.498 66.13 74.996 19 97.495-47.13 22.499-131.77 14.999-189.27-16.374a553.747 553.747 0 0 1 87.51-52.373Z" stroke="#E9E9E9" stroke-width=".25" stroke-miterlimit="10"/><path d="M1281.7 595.031a553.747 553.747 0 0 0-87.51 52.373c-57.63-31.499-66.13-74.996-19.13-97.62 47.01-22.624 131.89-14.999 189.4 16.499 57.5 31.498 66.13 74.996 19 97.495-47.13 22.499-131.77 14.999-189.27-16.374a553.747 553.747 0 0 1 87.51-52.373Z" stroke="#E9E9E9" stroke-miterlimit="10"/><path d="m1383.71 663.764 153.14-378.355c81.63-38.873 66.75-114.619-33.01-169.241L1364.7 566.144c57.51 31.624 66.14 75.246 19.01 97.62ZM1412.46 635.639l174.27-399.229M1405.58 600.649l169.27-424.977" stroke="#E9E9E9" stroke-width=".25" stroke-miterlimit="10"/><path d="m1364.7 566.273 139.14-449.976c-100.01-54.622-247.02-67.371-328.53-28.623v461.6c47-21.874 131.89-14.499 189.39 16.999ZM1300.45 543.022l91.88-467.1M1232.44 537.155l42.01-471.475" stroke="#E9E9E9" stroke-width=".25" stroke-miterlimit="10"/><path d="M1175.31 549.272V86.797c-81.63 38.873-66.88 114.619 33 169.241l-13.87 390.604c-57.64-30.748-66.14-74.496-19.13-97.37ZM1146.56 578.148l-21.26-441.476" stroke="#E9E9E9" stroke-width=".25" stroke-miterlimit="10"/><path d="M1411.34 638.648c9.87-22.499-6.51-49.997-46.63-72.371-57.51-31.498-142.39-38.873-189.4-16.499-21.25 10.124-31.13 24.999-30.25 40.248-7.5-143.826-14.96-288.027-22.38-432.602-1.38-27.249 15.75-52.248 52.63-69.872 81.51-38.748 228.65-25.998 328.54 28.624 69.63 37.498 97.88 86.495 80.88 124.993a303010.502 303010.502 0 0 1-173.39 397.479Z" stroke="#E9E9E9" stroke-width=".25" stroke-miterlimit="10"/><path d="M1411.34 638.648c9.87-22.499-6.51-49.997-46.63-72.371-57.51-31.498-142.39-38.873-189.4-16.499-21.25 10.124-31.13 24.999-30.25 40.248-7.5-143.826-14.96-288.027-22.38-432.602-1.38-27.249 15.75-52.248 52.63-69.872 81.51-38.748 228.65-25.998 328.54 28.624 69.63 37.498 97.88 86.495 80.88 124.993a303010.502 303010.502 0 0 1-173.39 397.479Z" stroke="#E9E9E9" stroke-miterlimit="10"/><path d="m1194.44 647.401 13.87-390.604c100.01 54.622 247.03 67.371 328.54 28.623l-153.14 378.355c-47.01 22.999-132.27 15-189.27-16.374ZM1258.57 670.656l61.13-373.48M1326.58 676.523l111.01-369.105" stroke="#E9E9E9" stroke-width=".25" stroke-miterlimit="10"/><path d="m1383.71 663.776 153.14-378.355c81.63-38.873 66.76-114.619-33.01-169.241l-139.13 449.976c57.5 31.623 66.13 75.246 19 97.62Z" stroke="#E9E9E9" stroke-width=".25" stroke-miterlimit="10"/><path d="M1584.73 241.672a975120.555 975120.555 0 0 1-173.39 396.979 53.51 53.51 0 0 1-27.63 24.998c-47.01 22.374-131.77 15-189.27-16.374l13.87-390.604c100.01 54.622 247.03 67.371 328.54 28.624a92.888 92.888 0 0 0 47.88-43.623Z" stroke="#E9E9E9" stroke-width=".25" stroke-miterlimit="10"/><path d="M1584.73 241.672a975120.555 975120.555 0 0 1-173.39 396.979 53.51 53.51 0 0 1-27.63 24.998c-47.01 22.374-131.77 15-189.27-16.374l13.87-390.604c100.01 54.622 247.03 67.371 328.54 28.624a92.888 92.888 0 0 0 47.88-43.623Z" stroke="#E9E9E9" stroke-miterlimit="10"/><path d="M1175.31 549.288V86.812c-81.63 38.873-66.88 114.619 33 169.242l-13.87 390.604c-57.64-30.749-66.14-74.496-19.13-97.37ZM1153.43 613.033l-16.25-415.728" stroke="#E9E9E9" stroke-width=".25" stroke-miterlimit="10"/><path d="M1145.06 590.04c-7.5-143.826-14.96-288.027-22.38-432.602 1.62 33.123 30.88 69.371 85.63 99.994l-13.87 390.605c-31.63-18-48.51-38.873-49.38-57.997Z" stroke="#E9E9E9" stroke-width=".25" stroke-miterlimit="10"/><path d="M1145.06 590.04c-7.5-143.826-14.96-288.027-22.38-432.602 1.62 33.123 30.88 69.371 85.63 99.994l-13.87 390.605c-31.63-18-48.51-38.873-49.38-57.997Z" stroke="#E9E9E9" stroke-miterlimit="10"/><path d="M1208.31 256.812a978.616 978.616 0 0 1 151.52-90.746 1182.938 1182.938 0 0 1 177.02 119.369c-81.51 38.873-228.65 26.374-328.54-28.623Z" stroke="#E9E9E9" stroke-width=".25" stroke-miterlimit="10"/><path d="M1259.07 222.312c67.01 36.624 165.52 45.123 220.27 19.124M1309.7 191.93c33.63 18.374 83.01 22.623 110.51 9.624" stroke="#E9E9E9" stroke-width=".25" stroke-miterlimit="10"/><path d="M1319.83 297.184c14.25-49.997 27.75-93.87 40-131.118M1437.59 307.434a972.407 972.407 0 0 0-77.76-141.368M1536.85 285.432a1182.932 1182.932 0 0 0-177.02-119.368 627.9 627.9 0 0 1 144.01-49.998c99.76 54.748 114.64 130.493 33.01 169.366Z" stroke="#E9E9E9" stroke-width=".25" stroke-miterlimit="10"/><path d="M1479.34 241.435c54.63-25.998 44.76-76.871-22.25-113.369M1420.21 201.563c27.38-13.124 22.38-38.498-11.13-56.872" stroke="#E9E9E9" stroke-width=".25" stroke-miterlimit="10"/><path d="M1586.73 236.805a1340.281 1340.281 0 0 0-226.9-70.371M1574.85 175.686a1109.952 1109.952 0 0 0-215.02-9.625" stroke="#E9E9E9" stroke-width=".25" stroke-miterlimit="10"/><path d="M1503.84 116.188a627.9 627.9 0 0 0-144.01 49.998 988.696 988.696 0 0 0-184.52-78.496c81.51-38.373 228.65-25.874 328.53 28.498Z" stroke="#E9E9E9" stroke-width=".25" stroke-miterlimit="10"/><path d="M1457.09 128.066c-66.88-36.623-165.39-45.247-220.15-19.249M1409.08 144.691c-33.63-18.374-83.01-22.624-110.51-9.624" stroke="#E9E9E9" stroke-width=".25" stroke-miterlimit="10"/><path d="M1392.33 75.813c-9.37 22.623-20.38 52.997-32.5 90.245M1274.44 65.57a533.178 533.178 0 0 1 85.39 99.995M1175.31 87.566a988.794 988.794 0 0 1 184.52 78.496 978.61 978.61 0 0 0-151.52 90.745c-99.88-54.622-114.63-130.368-33-169.24Z" stroke="#E9E9E9" stroke-width=".25" stroke-miterlimit="10"/><path d="M1236.94 108.816c-54.63 26.124-44.75 76.871 22.13 113.494M1298.57 135.062c-27.37 13.125-22.37 38.498 11.13 56.872" stroke="#E9E9E9" stroke-width=".25" stroke-miterlimit="10"/><path d="M1125.43 136.809a1327.226 1327.226 0 0 1 234.4 29.498" stroke="#E9E9E9" stroke-width=".25" stroke-miterlimit="10"/><path d="M1137.3 197.315a1266.624 1266.624 0 0 1 222.53-31.249" stroke="#E9E9E9" stroke-width=".25" stroke-miterlimit="10"/><path d="M1208.31 256.802c-100.01-54.622-114.63-130.368-33-169.241 81.63-38.873 228.65-25.749 328.53 28.623 99.89 54.372 114.64 130.368 33.01 169.241-81.64 38.873-228.65 26.374-328.54-28.623Z" stroke="#E9E9E9" stroke-width=".25" stroke-miterlimit="10"/><path d="M1208.31 256.802c-100.01-54.622-114.63-130.368-33-169.241 81.63-38.873 228.65-25.749 328.53 28.623 99.89 54.372 114.64 130.368 33.01 169.241-81.64 38.873-228.65 26.374-328.54-28.623Z" stroke="#E9E9E9" stroke-miterlimit="10"/></svg>