<svg width="216" height="216" viewBox="0 0 216 118" fill="none" xmlns="http://www.w3.org/2000/svg">
  <path fill-rule="evenodd" clip-rule="evenodd" d="M16.5553 105.8L16.5553 88.25L8.65264 88.25C4.30619 88.25 0.750004 85.6175 0.750004 82.4L0.750002 35.6C0.750001 32.3825 4.30619 29.75 8.65263 29.75L16.5553 29.75L16.5553 12.2C16.5657 9.09934 18.2342 6.12788 21.196 3.93538C24.1578 1.74288 30.4298 0.507721 34.6184 0.499999L199.445 0.499991C208.134 0.499991 215.25 5.76207 215.25 12.2L215.25 105.8C215.25 112.232 208.134 117.5 199.445 117.5L34.6184 117.5C25.9216 117.5 16.5553 112.232 16.5553 105.8ZM188.459 108.725C190.597 108.725 192.671 107.382 192.671 105.8L192.671 59L192.671 12.2C192.671 10.6117 190.597 9.27499 188.459 9.27499L47.6012 9.275C45.4556 9.275 43.6499 10.6117 43.6499 12.2L43.6499 105.8C43.6499 107.382 45.4557 108.725 47.6012 108.725L188.459 108.725ZM158.807 93.7028L158.807 24.2742C158.807 21.092 161.347 18.4885 164.451 18.4885L175.741 18.4885C178.845 18.4885 181.386 21.092 181.386 24.2742L181.386 93.7028C181.386 96.8849 178.845 99.4885 175.741 99.4885L164.451 99.4885C161.347 99.4885 158.807 96.8849 158.807 93.7028ZM124.929 24.2742L124.929 93.7028C124.929 96.8849 127.469 99.4885 130.574 99.4885L141.863 99.4885C144.968 99.4885 147.508 96.8849 147.508 93.7028L147.508 24.2742C147.508 21.092 144.968 18.4885 141.863 18.4885L130.574 18.4885C127.469 18.4885 124.929 21.092 124.929 24.2742ZM91.0708 93.7027L91.0708 24.2742C91.0708 21.092 93.6109 18.4885 96.7155 18.4885L108.005 18.4885C111.11 18.4885 113.65 21.092 113.65 24.2742L113.65 93.7027C113.65 96.8849 111.11 99.4885 108.005 99.4885L96.7155 99.4885C93.6109 99.4885 91.0708 96.8849 91.0708 93.7027ZM57.1934 24.2742L57.1934 93.7027C57.1934 96.8849 59.7335 99.4885 62.8381 99.4885L74.1276 99.4885C77.2322 99.4885 79.7723 96.8849 79.7723 93.7027L79.7723 24.2742C79.7723 21.092 77.2322 18.4885 74.1276 18.4885L62.8381 18.4885C59.7335 18.4885 57.1934 21.092 57.1934 24.2742Z" fill="black" fill-opacity="0.87"/>
</svg>
