<svg width="287" height="758" viewBox="0 0 287 758" fill="none" xmlns="http://www.w3.org/2000/svg">
<path d="M118.597 610.365L118.597 520.801L105.546 520.801C105.546 593.746 105.493 666.687 105.387 739.625L102.683 742.764C101.407 744.245 101.396 746.657 102.658 748.124L109.733 756.339C110.995 757.803 113.074 757.789 114.35 756.31L121.374 748.153C122.65 746.672 122.661 744.258 121.399 742.793L118.67 739.625L118.716 641.929C118.716 624.796 132.602 610.91 149.734 610.91C166.866 610.91 180.753 624.79 180.753 641.924C180.753 659.057 166.866 672.942 149.734 672.942C143.95 672.943 138.281 671.327 133.368 668.277C128.454 665.226 124.491 660.862 121.926 655.678L121.926 676.473C129.812 682.805 139.621 686.257 149.734 686.26C174.22 686.26 194.07 666.408 194.07 641.924C194.07 617.44 174.22 597.586 149.734 597.586C138.076 597.572 126.885 602.165 118.597 610.365Z" fill="#FEEBB2"/>
<path d="M118.597 480.025L118.597 390.461L105.546 390.461C105.546 463.406 105.493 536.347 105.387 609.285L102.683 612.424C101.407 613.906 101.396 616.317 102.658 617.784L109.733 625.999C110.995 627.463 113.074 627.45 114.35 625.97L121.374 617.813C122.65 616.332 122.661 613.918 121.399 612.453L118.67 609.285L118.716 511.59C118.716 494.456 132.602 480.57 149.734 480.57C166.866 480.57 180.753 494.451 180.753 511.584C180.753 528.717 166.866 542.602 149.734 542.602C143.95 542.603 138.281 540.987 133.368 537.937C128.454 534.886 124.491 530.522 121.926 525.338L121.926 546.133C129.812 552.465 139.621 555.917 149.734 555.92C174.22 555.92 194.07 536.068 194.07 511.584C194.07 487.1 174.22 467.246 149.734 467.246C138.076 467.233 126.885 471.825 118.597 480.025Z" fill="#FDD24C"/>
<path d="M194.07 381.575C194.07 357.091 174.22 337.242 149.734 337.242C138.076 337.227 126.884 341.821 118.597 350.021L118.597 260.457L105.546 260.457C105.546 333.401 105.493 406.342 105.387 479.281L102.683 482.42C101.407 483.903 101.396 486.314 102.658 487.78L109.733 495.995C110.995 497.461 113.074 497.447 114.35 495.964L121.374 487.81C122.65 486.328 122.661 483.916 121.399 482.45L118.67 479.271L118.716 381.575C118.716 364.444 132.602 350.557 149.734 350.557C166.866 350.557 180.753 364.444 180.753 381.575C180.753 398.705 166.866 412.594 149.734 412.594C143.95 412.595 138.281 410.979 133.368 407.929C128.454 404.878 124.491 400.514 121.926 395.33L121.926 416.125C129.812 422.456 139.621 425.908 149.734 425.911C174.22 425.911 194.07 406.061 194.07 381.575Z" fill="#FDBD00"/>
<path d="M194.07 251.907C194.07 227.423 174.22 207.571 149.734 207.571C138.076 207.556 126.884 212.149 118.597 220.349L118.597 130.785L105.546 130.785C105.546 203.731 105.493 276.673 105.387 349.61L102.683 352.747C101.407 354.228 101.396 356.641 102.658 358.106L109.733 366.313C110.995 367.779 113.074 367.765 114.35 366.284L121.374 358.128C122.65 356.648 122.661 354.234 121.399 352.769L118.67 349.601L118.716 251.904C118.716 234.772 132.602 220.885 149.734 220.885C166.866 220.885 180.753 234.775 180.753 251.907C180.753 269.039 166.866 282.925 149.734 282.925C143.95 282.927 138.281 281.312 133.367 278.261C128.453 275.21 124.49 270.846 121.926 265.661L121.926 286.457C129.812 292.789 139.621 296.24 149.734 296.243C174.22 296.243 194.07 276.392 194.07 251.907Z" fill="#FD9C00"/>
<path d="M118.597 90.4235L118.597 0.998044L105.546 0.998043C105.546 73.8923 105.493 146.784 105.387 219.672L102.683 222.811C101.407 224.293 101.396 226.705 102.658 228.171L109.733 236.385C110.995 237.851 113.074 237.837 114.35 236.356L121.374 228.2C122.65 226.718 122.661 224.306 121.399 222.84L118.67 219.672L118.716 121.976C118.716 104.844 132.602 90.9565 149.734 90.9565C166.866 90.9565 180.753 104.844 180.753 121.976C180.753 139.108 166.866 152.994 149.734 152.994C143.95 152.995 138.281 151.379 133.368 148.329C128.454 145.278 124.491 140.914 121.926 135.73L121.926 156.525C129.812 162.857 139.621 166.309 149.734 166.312C174.22 166.312 194.07 146.46 194.07 121.976C194.07 97.4917 174.22 77.6396 149.734 77.6396C138.075 77.6264 126.883 82.2214 118.597 90.4235Z" fill="#FD8B00"/>
<path fill-rule="evenodd" clip-rule="evenodd" d="M151.785 111.847L151.785 110.299C151.785 110.094 151.704 109.897 151.559 109.752C151.413 109.607 151.217 109.525 151.011 109.525C150.806 109.525 150.609 109.607 150.464 109.752C150.319 109.897 150.238 110.094 150.238 110.299L150.238 111.847C150.238 112.052 150.319 112.249 150.464 112.394C150.609 112.539 150.806 112.621 151.011 112.621C151.217 112.621 151.413 112.539 151.559 112.394C151.704 112.249 151.785 112.052 151.785 111.847Z" fill="#FD8B00"/>
<path fill-rule="evenodd" clip-rule="evenodd" d="M151.785 133.89L151.785 132.344C151.785 132.139 151.704 131.942 151.559 131.797C151.413 131.652 151.217 131.57 151.011 131.57C150.806 131.57 150.609 131.652 150.464 131.797C150.319 131.942 150.238 132.139 150.238 132.344L150.238 133.89C150.238 134.096 150.319 134.292 150.464 134.438C150.609 134.583 150.806 134.664 151.011 134.664C151.217 134.664 151.413 134.583 151.559 134.438C151.704 134.292 151.785 134.096 151.785 133.89Z" fill="#FD8B00"/>
<path d="M152.991 388.049H153.683H152.991ZM152.991 375.59H152.299V375.59L152.991 375.59ZM159.677 374.489L160.166 373.999V373.999L159.677 374.489ZM164.994 379.806L165.483 379.316V379.316L164.994 379.806ZM138.975 371.61H151.434V370.226H138.975V371.61ZM152.299 372.475V388.049H153.683V372.475H152.299ZM138.11 388.049V372.475H136.726V388.049H138.11ZM140.533 388.914H138.975V390.298H140.533V388.914ZM151.434 388.914H146.762V390.298H151.434V388.914ZM136.726 388.049C136.726 389.291 137.733 390.298 138.975 390.298V388.914C138.497 388.914 138.11 388.526 138.11 388.049H136.726ZM152.299 388.049C152.299 388.526 151.912 388.914 151.434 388.914V390.298C152.676 390.298 153.683 389.291 153.683 388.049H152.299ZM151.434 371.61C151.912 371.61 152.299 371.997 152.299 372.475H153.683C153.683 371.233 152.676 370.226 151.434 370.226V371.61ZM138.975 370.226C137.733 370.226 136.726 371.233 136.726 372.475H138.11C138.11 371.997 138.497 371.61 138.975 371.61V370.226ZM153.683 388.049L153.683 375.59L152.299 375.59L152.299 388.049H153.683ZM154.549 374.725H158.576V373.34H154.549V374.725ZM164.758 380.907V388.049H166.142V380.907H164.758ZM159.187 374.978L164.504 380.295L165.483 379.316L160.166 373.999L159.187 374.978ZM156.106 388.914H154.549V390.298H156.106V388.914ZM163.893 388.914H162.335V390.298H163.893V388.914ZM166.142 380.907C166.142 380.31 165.905 379.738 165.483 379.316L164.504 380.295C164.667 380.458 164.758 380.678 164.758 380.907H166.142ZM158.576 374.725C158.805 374.725 159.025 374.816 159.187 374.978L160.166 373.999C159.744 373.577 159.172 373.34 158.576 373.34V374.725ZM152.299 388.049C152.299 389.291 153.306 390.298 154.549 390.298V388.914C154.071 388.914 153.683 388.526 153.683 388.049H152.299ZM164.758 388.049C164.758 388.526 164.37 388.914 163.893 388.914V390.298C165.135 390.298 166.142 389.291 166.142 388.049H164.758ZM153.683 375.59C153.683 375.112 154.071 374.725 154.549 374.725V373.34C153.306 373.34 152.299 374.348 152.299 375.59H153.683ZM146.07 389.606C146.07 390.944 144.985 392.028 143.647 392.028V393.413C145.75 393.413 147.454 391.708 147.454 389.606H146.07ZM143.647 392.028C142.309 392.028 141.225 390.944 141.225 389.606H139.84C139.84 391.708 141.545 393.413 143.647 393.413V392.028ZM141.225 389.606C141.225 388.268 142.309 387.183 143.647 387.183V385.799C141.545 385.799 139.84 387.504 139.84 389.606H141.225ZM143.647 387.183C144.985 387.183 146.07 388.268 146.07 389.606H147.454C147.454 387.504 145.75 385.799 143.647 385.799V387.183ZM161.643 389.606C161.643 390.944 160.559 392.028 159.221 392.028V393.413C161.323 393.413 163.027 391.708 163.027 389.606H161.643ZM159.221 392.028C157.883 392.028 156.798 390.944 156.798 389.606H155.414C155.414 391.708 157.118 393.413 159.221 393.413V392.028ZM156.798 389.606C156.798 388.268 157.883 387.183 159.221 387.183V385.799C157.118 385.799 155.414 387.504 155.414 389.606H156.798ZM159.221 387.183C160.559 387.183 161.643 388.268 161.643 389.606H163.027C163.027 387.504 161.323 385.799 159.221 385.799V387.183Z" fill="#FDBD00"/>
<path d="M138.977 504.985V520.559C138.977 523.999 144.554 526.788 151.435 526.788C158.316 526.788 163.894 523.999 163.894 520.559V504.985M138.977 504.985C138.977 508.426 144.554 511.215 151.435 511.215C158.316 511.215 163.894 508.426 163.894 504.985M138.977 504.985C138.977 501.545 144.554 498.756 151.435 498.756C158.316 498.756 163.894 501.545 163.894 504.985M163.894 512.772C163.894 516.212 158.316 519.001 151.435 519.001C144.554 519.001 138.977 516.212 138.977 512.772" stroke="#FDD24C" stroke-width="1.3843"/>
<path d="M185.765 242.697L191.886 266.984C220.247 379.517 220.39 497.311 192.301 609.912L185.765 636.114" stroke="url(#paint0_linear_7091_131881)" stroke-width="11.4699"/>
<path d="M206.409 345.91C206.714 345.229 207.642 345.134 208.079 345.738L214.227 354.242C214.664 354.847 214.283 355.698 213.541 355.774L203.102 356.846C202.36 356.923 201.814 356.167 202.119 355.486L206.409 345.91Z" fill="#163220"/>
<path d="M209.947 496.819C210.378 496.21 211.306 496.296 211.618 496.973L216.009 506.504C216.321 507.182 215.783 507.943 215.04 507.875L204.59 506.912C203.848 506.843 203.458 505.996 203.888 505.387L209.947 496.819Z" fill="#163220"/>
<path d="M143.782 112.696H145.735L150.291 108.791L154.196 112.696H156.799L158.101 119.204H161.355L163.958 130.919H164.609V131.57H135.973V130.919H136.623L139.227 119.204H142.481L143.782 112.696Z" stroke="#FD8B00" stroke-width="2.60328"/>
<path d="M148.847 125.373L149.569 126.456L148.847 125.373ZM151.735 125.373L152.457 124.29L152.457 124.29L151.735 125.373ZM151.592 127.539V130.268H154.196V127.539H151.592ZM148.989 130.268V127.539H146.386V130.268H148.989ZM148.989 127.539C148.989 127.104 149.207 126.697 149.569 126.456L148.125 124.29C147.038 125.014 146.386 126.233 146.386 127.539H148.989ZM152.457 124.29C151.145 123.415 149.436 123.415 148.125 124.29L149.569 126.456C150.006 126.164 150.576 126.164 151.013 126.456L152.457 124.29ZM154.196 127.539C154.196 126.233 153.543 125.014 152.457 124.29L151.013 126.456C151.375 126.697 151.592 127.104 151.592 127.539H154.196Z" fill="#FD8B00"/>
<path d="M143.522 251.685V253.755L145.133 252.454L150.27 248.307C150.339 248.267 150.396 248.239 150.444 248.219V251.685V253.755L152.054 252.454L157.192 248.307C157.26 248.267 157.318 248.239 157.365 248.219V251.685V253.755L158.976 252.454L164.106 248.312C164.176 248.274 164.236 248.245 164.287 248.224V264.5C164.287 264.726 164.219 264.878 164.072 265.022C163.91 265.18 163.751 265.242 163.545 265.242H139.32C139.095 265.242 138.942 265.174 138.799 265.027C138.641 264.865 138.579 264.706 138.579 264.5V240.275C138.579 240.05 138.646 239.897 138.794 239.754C138.955 239.596 139.115 239.534 139.32 239.534H142.781C142.986 239.534 143.146 239.596 143.308 239.754C143.455 239.897 143.522 240.05 143.522 240.275V251.685ZM150.633 248.17C150.633 248.17 150.633 248.17 150.631 248.169L150.633 248.17ZM150.44 247.976C150.44 247.975 150.44 247.975 150.44 247.975L150.44 247.976ZM157.555 248.17C157.555 248.17 157.554 248.17 157.552 248.169L157.555 248.17ZM157.361 247.976C157.361 247.975 157.361 247.975 157.361 247.975L157.361 247.976ZM164.489 248.169C164.489 248.169 164.488 248.169 164.487 248.169L164.489 248.169ZM164.282 247.97C164.282 247.969 164.282 247.969 164.282 247.969L164.282 247.97Z" stroke="#FD9C00" stroke-width="1.97816"/>
<path d="M164.57 647.632L163.309 645.361L160.596 646.869L161.856 649.136C161.931 649.267 161.984 649.404 162.018 649.545C162.075 649.802 162.067 650.068 161.996 650.321C161.958 650.449 161.904 650.572 161.835 650.686C161.704 650.91 161.519 651.098 161.296 651.232C161.056 651.375 160.78 651.448 160.5 651.444H153.362V648.341L147.155 652.996L153.362 657.65V654.547H160.5C160.932 654.547 161.357 654.49 161.759 654.378C162.535 654.164 163.241 653.749 163.805 653.174C164.081 652.897 164.32 652.585 164.513 652.254C165.125 651.219 165.312 649.987 165.034 648.817C164.931 648.404 164.775 648.005 164.57 647.632ZM140.735 640.644L137.151 647.812C136.965 648.183 136.829 648.577 136.746 648.983C136.594 649.745 136.636 650.532 136.866 651.273C137.097 652.014 137.509 652.686 138.066 653.227C138.342 653.497 138.65 653.733 138.989 653.93C139.698 654.335 140.499 654.547 141.315 654.547H144.052V651.444H141.315C141.044 651.445 140.776 651.375 140.539 651.243C140.313 651.112 140.124 650.926 139.992 650.701C139.855 650.482 139.776 650.232 139.76 649.975C139.753 649.848 139.762 649.72 139.788 649.595C139.816 649.46 139.863 649.326 139.927 649.198L143.427 642.197L145.908 643.629L144.98 635.929L137.846 638.976L140.735 640.644ZM160.496 643.631L161.423 635.929L158.882 637.395L154.471 629.455C154.163 628.891 153.739 628.397 153.228 628.007C152.717 627.617 152.129 627.339 151.503 627.192C151.11 627.101 150.708 627.058 150.305 627.063C149.485 627.078 148.683 627.31 147.981 627.735C147.231 628.19 146.627 628.849 146.24 629.635L145.104 631.907L147.88 633.296L149.016 631.023C149.085 630.883 149.172 630.757 149.273 630.647C149.458 630.445 149.696 630.3 149.96 630.228C150.229 630.152 150.512 630.147 150.783 630.211C150.99 630.26 151.184 630.352 151.353 630.482C151.521 630.612 151.66 630.776 151.76 630.964L156.195 638.948L153.362 640.583L160.496 643.631Z" fill="#FEEBB2"/>
<path d="M231.304 440.068L229.372 437.308C230.512 436.864 231.16 435.928 231.16 434.656C231.16 432.796 229.792 431.668 227.584 431.668H224.128V440.068H225.688V437.62H227.584C227.692 437.62 227.8 437.62 227.908 437.608L229.624 440.068H231.304ZM229.588 434.656C229.588 435.712 228.88 436.336 227.512 436.336H225.688V432.988H227.512C228.88 432.988 229.588 433.6 229.588 434.656ZM234.333 438.856V437.176H237.609V436H234.333V434.428H238.017V433.204H232.821V440.068H238.149V438.856H234.333ZM242.881 440.188C244.105 440.188 245.041 439.816 245.713 439.024L244.729 438.076C244.237 438.64 243.637 438.904 242.929 438.904C241.597 438.904 240.637 437.968 240.637 436.636C240.637 435.316 241.597 434.38 242.929 434.38C243.637 434.38 244.237 434.644 244.729 435.196L245.713 434.26C245.053 433.456 244.117 433.096 242.881 433.096C240.721 433.096 239.113 434.596 239.113 436.636C239.113 438.688 240.721 440.188 242.881 440.188ZM252.978 433.204H251.442L249.462 436.432L247.482 433.204H245.874L248.658 437.788V440.068H250.182V437.812L252.978 433.204ZM256.814 440.188C258.038 440.188 258.974 439.816 259.646 439.024L258.662 438.076C258.17 438.64 257.57 438.904 256.862 438.904C255.53 438.904 254.57 437.968 254.57 436.636C254.57 435.316 255.53 434.38 256.862 434.38C257.57 434.38 258.17 434.644 258.662 435.196L259.646 434.26C258.986 433.456 258.05 433.096 256.814 433.096C254.654 433.096 253.046 434.596 253.046 436.636C253.046 438.688 254.654 440.188 256.814 440.188ZM261.017 440.068H266.057V438.844H262.529V433.204H261.017V440.068ZM267.192 440.068H268.704V433.204H267.192V440.068ZM275.614 433.204V437.536L272.05 433.204H270.79V440.068H272.302V435.748L275.866 440.068H277.114V433.204H275.614ZM283.776 438.616C283.392 438.808 282.972 438.904 282.504 438.904C281.124 438.904 280.164 437.956 280.164 436.636C280.164 435.316 281.124 434.38 282.456 434.38C283.2 434.38 283.824 434.632 284.328 435.196L285.312 434.248C284.664 433.468 283.704 433.096 282.432 433.096C280.248 433.096 278.64 434.596 278.64 436.636C278.64 438.676 280.236 440.188 282.468 440.188C283.464 440.188 284.496 439.864 285.204 439.312V436.576H283.776V438.616Z" fill="#F0F1F7"/>
<path d="M12.916 636.6L10.768 643.02L8.644 636.6H7.204L5.032 642.984L2.944 636.6H1.324L4.108 645H5.776L7.888 638.784L9.964 645H11.62L14.404 636.6H12.916ZM20.1992 645H21.6993L18.5913 638.136H17.0913L13.9712 645H15.4473L16.0953 643.512H19.5633L20.1992 645ZM16.5993 642.36L17.8353 639.504L19.0713 642.36H16.5993ZM24.8167 645.12C26.6647 645.12 27.7567 644.268 27.7567 642.972C27.7567 640.44 23.7007 641.412 23.7007 640.068C23.7007 639.612 24.0967 639.264 25.0567 639.264C25.6927 639.264 26.3767 639.396 26.9887 639.792L27.5047 638.616C26.8687 638.208 25.9567 638.028 25.1047 638.028C23.3167 638.028 22.1887 638.88 22.1887 640.152C22.1887 642.756 26.2567 641.736 26.2567 643.104C26.2567 643.524 25.8967 643.872 24.8887 643.872C24.0127 643.872 23.1367 643.596 22.5607 643.164L21.9967 644.34C22.6087 644.808 23.7367 645.12 24.8167 645.12ZM30.3157 645H31.8277V639.372H34.0837V638.136H28.0597V639.372H30.3157V645ZM36.6849 643.788V642.108H39.9609V640.932H36.6849V639.36H40.3689V638.136H35.1729V645H40.5009V643.788H36.6849ZM45.4639 645H49.1359C51.8599 645 53.7199 643.32 53.7199 640.8C53.7199 638.28 51.8599 636.6 49.1359 636.6H45.4639V645ZM47.0239 643.68V637.92H49.0639C50.9359 637.92 52.1479 639.06 52.1479 640.8C52.1479 642.54 50.9359 643.68 49.0639 643.68H47.0239ZM55.294 645H56.806V638.136H55.294V645ZM61.0277 645.12C62.8757 645.12 63.9677 644.268 63.9677 642.972C63.9677 640.44 59.9117 641.412 59.9117 640.068C59.9117 639.612 60.3077 639.264 61.2677 639.264C61.9037 639.264 62.5877 639.396 63.1997 639.792L63.7157 638.616C63.0797 638.208 62.1677 638.028 61.3157 638.028C59.5277 638.028 58.3997 638.88 58.3997 640.152C58.3997 642.756 62.4677 641.736 62.4677 643.104C62.4677 643.524 62.1077 643.872 61.0997 643.872C60.2237 643.872 59.3477 643.596 58.7717 643.164L58.2077 644.34C58.8197 644.808 59.9477 645.12 61.0277 645.12ZM68.3478 638.136H65.3838V645H66.8958V643.092H68.3478C70.1838 643.092 71.3478 642.168 71.3478 640.608C71.3478 639.048 70.1838 638.136 68.3478 638.136ZM68.2398 641.868H66.8958V639.36H68.2398C69.2838 639.36 69.8238 639.804 69.8238 640.608C69.8238 641.412 69.2838 641.868 68.2398 641.868ZM76.1467 645.12C78.3307 645.12 79.9387 643.608 79.9387 641.568C79.9387 639.528 78.3307 638.028 76.1467 638.028C73.9747 638.028 72.3667 639.528 72.3667 641.568C72.3667 643.608 73.9747 645.12 76.1467 645.12ZM76.1467 643.836C74.8507 643.836 73.8907 642.888 73.8907 641.568C73.8907 640.26 74.8507 639.312 76.1467 639.312C77.4547 639.312 78.4027 640.26 78.4027 641.568C78.4027 642.888 77.4547 643.836 76.1467 643.836ZM83.5863 645.12C85.4343 645.12 86.5263 644.268 86.5263 642.972C86.5263 640.44 82.4703 641.412 82.4703 640.068C82.4703 639.612 82.8663 639.264 83.8263 639.264C84.4623 639.264 85.1463 639.396 85.7583 639.792L86.2743 638.616C85.6383 638.208 84.7263 638.028 83.8743 638.028C82.0863 638.028 80.9583 638.88 80.9583 640.152C80.9583 642.756 85.0263 641.736 85.0263 643.104C85.0263 643.524 84.6663 643.872 83.6583 643.872C82.7823 643.872 81.9062 643.596 81.3303 643.164L80.7663 644.34C81.3783 644.808 82.5063 645.12 83.5863 645.12ZM93.0664 645H94.5664L91.4584 638.136H89.9584L86.8384 645H88.3144L88.9624 643.512H92.4304L93.0664 645ZM89.4664 642.36L90.7024 639.504L91.9384 642.36H89.4664ZM95.5479 645H100.588V643.776H97.0599V638.136H95.5479V645Z" fill="#F0F1F7"/>
<path d="M8.74 515.12C11.032 515.12 12.412 513.788 12.412 511.34V506.6H10.876V511.28C10.876 513.008 10.108 513.752 8.752 513.752C7.396 513.752 6.616 513.008 6.616 511.28V506.6H5.056V511.34C5.056 513.788 6.436 515.12 8.74 515.12ZM16.6488 515.12C18.4968 515.12 19.5888 514.268 19.5888 512.972C19.5888 510.44 15.5328 511.412 15.5328 510.068C15.5328 509.612 15.9288 509.264 16.8888 509.264C17.5248 509.264 18.2088 509.396 18.8208 509.792L19.3368 508.616C18.7008 508.208 17.7888 508.028 16.9368 508.028C15.1488 508.028 14.0208 508.88 14.0208 510.152C14.0208 512.756 18.0888 511.736 18.0888 513.104C18.0888 513.524 17.7288 513.872 16.7208 513.872C15.8448 513.872 14.9688 513.596 14.3928 513.164L13.8288 514.34C14.4408 514.808 15.5688 515.12 16.6488 515.12ZM26.1289 515H27.6289L24.5209 508.136H23.0209L19.9009 515H21.3769L22.0249 513.512H25.4929L26.1289 515ZM22.5289 512.36L23.7649 509.504L25.0009 512.36H22.5289ZM33.0652 513.548C32.6812 513.74 32.2612 513.836 31.7932 513.836C30.4132 513.836 29.4532 512.888 29.4532 511.568C29.4532 510.248 30.4132 509.312 31.7452 509.312C32.4892 509.312 33.1132 509.564 33.6172 510.128L34.6012 509.18C33.9532 508.4 32.9932 508.028 31.7212 508.028C29.5372 508.028 27.9292 509.528 27.9292 511.568C27.9292 513.608 29.5252 515.12 31.7572 515.12C32.7532 515.12 33.7852 514.796 34.4932 514.244V511.508H33.0652V513.548ZM37.8802 513.788V512.108H41.1562V510.932H37.8802V509.36H41.5642V508.136H36.3682V515H41.6962V513.788H37.8802ZM52.5033 514.196L51.6753 513.44C51.9753 512.984 52.2033 512.456 52.3473 511.856L51.1953 511.52C51.0993 511.94 50.9553 512.3 50.7873 512.624L49.4313 511.376C50.3793 510.86 50.7753 510.32 50.7753 509.612C50.7753 508.652 49.9953 508.052 48.8313 508.052C47.5593 508.052 46.7433 508.724 46.7433 509.732C46.7433 510.212 46.9353 510.656 47.4393 511.172C46.3713 511.76 45.9272 512.372 45.9272 513.164C45.9272 514.304 47.0793 515.12 48.5913 515.12C49.4553 515.12 50.2353 514.844 50.8593 514.34L51.7113 515.12L52.5033 514.196ZM48.8553 509.06C49.3473 509.06 49.5873 509.324 49.5873 509.66C49.5873 509.972 49.3353 510.248 48.6152 510.62C48.1473 510.176 48.0393 509.984 48.0393 509.708C48.0393 509.348 48.3273 509.06 48.8553 509.06ZM48.6753 514.004C47.8233 514.004 47.3193 513.584 47.3193 513.08C47.3193 512.636 47.5593 512.324 48.2553 511.94L50.0073 513.548C49.6233 513.848 49.1673 514.004 48.6753 514.004ZM64.2415 515L62.3095 512.24C63.4495 511.796 64.0975 510.86 64.0975 509.588C64.0975 507.728 62.7295 506.6 60.5215 506.6H57.0655V515H58.6255V512.552H60.5215C60.6295 512.552 60.7375 512.552 60.8455 512.54L62.5615 515H64.2415ZM62.5255 509.588C62.5255 510.644 61.8175 511.268 60.4495 511.268H58.6255V507.92H60.4495C61.8175 507.92 62.5255 508.532 62.5255 509.588ZM67.2708 513.788V512.108H70.5468V510.932H67.2708V509.36H70.9548V508.136H65.7588V515H71.0868V513.788H67.2708ZM73.9095 515H75.4215V509.372H77.6775V508.136H71.6535V509.372H73.9095V515ZM83.4688 515H84.9688L81.8608 508.136H80.3608L77.2408 515H78.7168L79.3648 513.512H82.8328L83.4688 515ZM79.8688 512.36L81.1048 509.504L82.3408 512.36H79.8688ZM85.9503 515H87.4623V508.136H85.9503V515ZM89.5479 515H94.5879V513.776H91.0599V508.136H89.5479V515Z" fill="#F0F1F7"/>
<path d="M2.832 385H4.392V377.92H7.176V376.6H0.048V377.92H2.832V385ZM14.3002 385L12.7282 382.78C13.6402 382.396 14.1682 381.64 14.1682 380.608C14.1682 379.048 13.0042 378.136 11.1682 378.136H8.20416V385H9.71616V383.056H11.1682H11.2882L12.6682 385H14.3002ZM12.6442 380.608C12.6442 381.412 12.1042 381.868 11.0602 381.868H9.71616V379.36H11.0602C12.1042 379.36 12.6442 379.804 12.6442 380.608ZM20.9688 385H22.4688L19.3608 378.136H17.8608L14.7408 385H16.2168L16.8648 383.512H20.3328L20.9688 385ZM17.3688 382.36L18.6048 379.504L19.8408 382.36H17.3688ZM28.2743 378.136V382.468L24.7103 378.136H23.4503V385H24.9623V380.68L28.5263 385H29.7743V378.136H28.2743ZM34.0003 385.12C35.8483 385.12 36.9403 384.268 36.9403 382.972C36.9403 380.44 32.8843 381.412 32.8843 380.068C32.8843 379.612 33.2803 379.264 34.2403 379.264C34.8763 379.264 35.5603 379.396 36.1723 379.792L36.6883 378.616C36.0523 378.208 35.1403 378.028 34.2883 378.028C32.5003 378.028 31.3723 378.88 31.3723 380.152C31.3723 382.756 35.4403 381.736 35.4403 383.104C35.4403 383.524 35.0803 383.872 34.0723 383.872C33.1963 383.872 32.3203 383.596 31.7443 383.164L31.1803 384.34C31.7923 384.808 32.9203 385.12 34.0003 385.12ZM41.3205 378.136H38.3565V385H39.8685V383.092H41.3205C43.1565 383.092 44.3205 382.168 44.3205 380.608C44.3205 379.048 43.1565 378.136 41.3205 378.136ZM41.2125 381.868H39.8685V379.36H41.2125C42.2565 379.36 42.7965 379.804 42.7965 380.608C42.7965 381.412 42.2565 381.868 41.2125 381.868ZM49.1194 385.12C51.3034 385.12 52.9114 383.608 52.9114 381.568C52.9114 379.528 51.3034 378.028 49.1194 378.028C46.9474 378.028 45.3394 379.528 45.3394 381.568C45.3394 383.608 46.9474 385.12 49.1194 385.12ZM49.1194 383.836C47.8234 383.836 46.8634 382.888 46.8634 381.568C46.8634 380.26 47.8234 379.312 49.1194 379.312C50.4274 379.312 51.3754 380.26 51.3754 381.568C51.3754 382.888 50.4274 383.836 49.1194 383.836ZM60.5189 385L58.9469 382.78C59.8589 382.396 60.3869 381.64 60.3869 380.608C60.3869 379.048 59.2229 378.136 57.3869 378.136H54.4229V385H55.9349V383.056H57.3869H57.5069L58.8869 385H60.5189ZM58.8629 380.608C58.8629 381.412 58.3229 381.868 57.2789 381.868H55.9349V379.36H57.2789C58.3229 379.36 58.8629 379.804 58.8629 380.608ZM63.2063 385H64.7183V379.372H66.9743V378.136H60.9503V379.372H63.2063V385ZM72.7657 385H74.2657L71.1577 378.136H69.6577L66.5377 385H68.0137L68.6617 383.512H72.1297L72.7657 385ZM69.1657 382.36L70.4017 379.504L71.6377 382.36H69.1657ZM76.0853 385H77.5973V379.372H79.8533V378.136H73.8293V379.372H76.0853V385ZM80.9424 385H82.4544V378.136H80.9424V385ZM87.7561 385.12C89.9401 385.12 91.5481 383.608 91.5481 381.568C91.5481 379.528 89.9401 378.028 87.7561 378.028C85.5841 378.028 83.9761 379.528 83.9761 381.568C83.9761 383.608 85.5841 385.12 87.7561 385.12ZM87.7561 383.836C86.4601 383.836 85.5001 382.888 85.5001 381.568C85.5001 380.26 86.4601 379.312 87.7561 379.312C89.0641 379.312 90.0121 380.26 90.0121 381.568C90.0121 382.888 89.0641 383.836 87.7561 383.836ZM97.8836 378.136V382.468L94.3196 378.136H93.0596V385H94.5716V380.68L98.1356 385H99.3836V378.136H97.8836Z" fill="#F0F1F7"/>
<path d="M17.688 123.692V121.376H21.744V120.092H17.688V117.908H22.26V116.6H16.128V125H22.428V123.692H17.688ZM30.0125 125L27.3725 121.484L29.8805 118.136H28.2005L26.5565 120.392L24.9125 118.136H23.2085L25.7045 121.508L23.0765 125H24.8045L26.5445 122.6L28.2605 125H30.0125ZM32.0345 125H33.5465V119.372H35.8025V118.136H29.7785V119.372H32.0345V125ZM42.9877 125L41.4157 122.78C42.3277 122.396 42.8557 121.64 42.8557 120.608C42.8557 119.048 41.6917 118.136 39.8557 118.136H36.8917V125H38.4037V123.056H39.8557H39.9757L41.3557 125H42.9877ZM41.3317 120.608C41.3317 121.412 40.7917 121.868 39.7477 121.868H38.4037V119.36H39.7477C40.7917 119.36 41.3317 119.804 41.3317 120.608ZM49.6563 125H51.1563L48.0483 118.136H46.5483L43.4283 125H44.9043L45.5523 123.512H49.0203L49.6563 125ZM46.0563 122.36L47.2923 119.504L48.5283 122.36H46.0563ZM55.2246 125.12C56.4486 125.12 57.3846 124.748 58.0566 123.956L57.0726 123.008C56.5806 123.572 55.9806 123.836 55.2726 123.836C53.9406 123.836 52.9806 122.9 52.9806 121.568C52.9806 120.248 53.9406 119.312 55.2726 119.312C55.9806 119.312 56.5806 119.576 57.0726 120.128L58.0566 119.192C57.3966 118.388 56.4606 118.028 55.2246 118.028C53.0646 118.028 51.4566 119.528 51.4566 121.568C51.4566 123.62 53.0646 125.12 55.2246 125.12ZM60.6868 125H62.1988V119.372H64.4548V118.136H58.4308V119.372H60.6868V125ZM65.544 125H67.056V118.136H65.544V125ZM72.3577 125.12C74.5417 125.12 76.1497 123.608 76.1497 121.568C76.1497 119.528 74.5417 118.028 72.3577 118.028C70.1857 118.028 68.5777 119.528 68.5777 121.568C68.5777 123.608 70.1857 125.12 72.3577 125.12ZM72.3577 123.836C71.0617 123.836 70.1017 122.888 70.1017 121.568C70.1017 120.26 71.0617 119.312 72.3577 119.312C73.6657 119.312 74.6137 120.26 74.6137 121.568C74.6137 122.888 73.6657 123.836 72.3577 123.836ZM82.4852 118.136V122.468L78.9212 118.136H77.6612V125H79.1732V120.68L82.7372 125H83.9852V118.136H82.4852Z" fill="#F0F1F7"/>
<path d="M11.32 255L11.308 246.6H10.024L6.748 252.168L3.412 246.6H2.128V255H3.616V249.504L6.376 254.04H7.072L9.832 249.432L9.844 255H11.32ZM18.6289 255H20.1289L17.0209 248.136H15.5209L12.4009 255H13.8769L14.5249 253.512H17.9929L18.6289 255ZM15.0289 252.36L16.2649 249.504L17.5009 252.36H15.0289ZM25.9344 248.136V252.468L22.3704 248.136H21.1104V255H22.6224V250.68L26.1864 255H27.4344V248.136H25.9344ZM32.5845 255.12C34.5525 255.12 35.6925 253.968 35.6925 252.06V248.136H34.2045V252.012C34.2045 253.212 33.6405 253.836 32.5965 253.836C31.5405 253.836 30.9645 253.2 30.9645 252.012V248.136H29.4525V252.06C29.4525 253.968 30.6165 255.12 32.5845 255.12ZM42.9119 249.36V248.136H37.7159V255H39.2279V252.468H42.5039V251.256H39.2279V249.36H42.9119ZM49.0625 255H50.5625L47.4545 248.136H45.9545L42.8345 255H44.3105L44.9585 253.512H48.4265L49.0625 255ZM45.4625 252.36L46.6985 249.504L47.9345 252.36H45.4625ZM54.6308 255.12C55.8548 255.12 56.7908 254.748 57.4628 253.956L56.4788 253.008C55.9868 253.572 55.3868 253.836 54.6788 253.836C53.3468 253.836 52.3868 252.9 52.3868 251.568C52.3868 250.248 53.3468 249.312 54.6788 249.312C55.3868 249.312 55.9868 249.576 56.4788 250.128L57.4628 249.192C56.8028 248.388 55.8668 248.028 54.6308 248.028C52.4708 248.028 50.8628 249.528 50.8628 251.568C50.8628 253.62 52.4708 255.12 54.6308 255.12ZM60.0931 255H61.6051V249.372H63.8611V248.136H57.8371V249.372H60.0931V255ZM68.0103 255.12C69.9783 255.12 71.1183 253.968 71.1183 252.06V248.136H69.6303V252.012C69.6303 253.212 69.0663 253.836 68.0223 253.836C66.9663 253.836 66.3903 253.2 66.3903 252.012V248.136H64.8783V252.06C64.8783 253.968 66.0423 255.12 68.0103 255.12ZM79.2377 255L77.6657 252.78C78.5777 252.396 79.1057 251.64 79.1057 250.608C79.1057 249.048 77.9417 248.136 76.1057 248.136H73.1417V255H74.6537V253.056H76.1057H76.2257L77.6057 255H79.2377ZM77.5817 250.608C77.5817 251.412 77.0417 251.868 75.9977 251.868H74.6537V249.36H75.9977C77.0417 249.36 77.5817 249.804 77.5817 250.608ZM80.7823 255H82.2943V248.136H80.7823V255ZM89.2039 248.136V252.468L85.6399 248.136H84.3799V255H85.8919V250.68L89.4559 255H90.7039V248.136H89.2039ZM97.366 253.548C96.982 253.74 96.562 253.836 96.094 253.836C94.714 253.836 93.754 252.888 93.754 251.568C93.754 250.248 94.714 249.312 96.046 249.312C96.79 249.312 97.414 249.564 97.918 250.128L98.902 249.18C98.254 248.4 97.294 248.028 96.022 248.028C93.838 248.028 92.23 249.528 92.23 251.568C92.23 253.608 93.826 255.12 96.058 255.12C97.054 255.12 98.086 254.796 98.794 254.244V251.508H97.366V253.548Z" fill="#F0F1F7"/>
<defs>
<linearGradient id="paint0_linear_7091_131881" x1="193.986" y1="282.842" x2="191.93" y2="602.461" gradientUnits="userSpaceOnUse">
<stop stop-color="#FD9C00"/>
<stop offset="1" stop-color="#FEEBB2"/>
</linearGradient>
</defs>
</svg>
