<svg width="1303" height="1304" viewBox="0 0 1303 1304" fill="none" xmlns="http://www.w3.org/2000/svg">
<g opacity="0.4">
<mask id="mask0_7264_143379" style="mask-type:alpha" maskUnits="userSpaceOnUse" x="0" y="0" width="1303" height="1304">
<g clip-path="url(#clip0_7264_143379)">
<path d="M1132.61 770.704C1126.66 770.721 1120.84 769.006 1115.85 765.77L978.123 676.449C970.94 756.007 934.967 830.207 876.956 885.124C818.946 940.041 742.887 971.897 663.055 974.714L559.119 1134.97C558.832 1135.41 558.68 1135.93 558.68 1136.46C558.68 1136.99 558.832 1137.51 559.119 1137.95L660.263 1303.28C828.005 1300.96 988.393 1234.05 1108.04 1116.45C1227.69 998.863 1297.37 839.658 1302.59 671.98L1148.48 766.422C1143.68 769.276 1138.19 770.757 1132.61 770.704Z" fill="#FDC723"/>
<path d="M926.264 665.602C921.698 733.168 892.408 796.685 843.984 844.027C795.561 891.368 731.398 919.216 663.746 922.254V949.251C738.57 946.202 809.605 915.512 863.109 863.117C916.613 810.722 948.784 740.345 953.4 665.602H926.264Z" fill="#FDC723"/>
<path d="M926.824 637.678H953.774C951.432 561.545 920.461 489.097 867.043 434.799C813.626 380.502 741.694 348.351 665.609 344.766V371.716C734.547 375.279 799.637 404.583 848.006 453.831C896.376 503.08 924.503 568.687 926.824 637.678Z" fill="#FEDE80"/>
<path d="M979.412 644.004L1131.06 742.355C1131.51 742.631 1132.02 742.777 1132.55 742.777C1133.07 742.777 1133.59 742.631 1134.04 742.355L1301.6 639.675L1303 641.863C1300.52 474.608 1233.81 314.712 1116.69 195.281C999.575 75.8496 841.014 6.02987 673.84 0.277344L766.047 150.387C769.019 155.318 770.554 160.981 770.48 166.738C770.406 172.495 768.726 178.116 765.628 182.969L676.912 320C758.732 326.357 835.194 363.162 891.199 423.149C947.204 483.135 978.68 561.941 979.412 644.004Z" fill="#FEDE80"/>
<path d="M637.681 371.716V344.766C561.179 348.278 488.856 380.671 435.299 435.412C381.743 490.152 350.938 563.166 349.098 639.726H376.048C377.861 570.305 405.819 504.128 454.329 454.435C502.839 404.743 568.324 375.199 637.681 371.716Z" fill="#FD8B00"/>
<path d="M644.239 319.071L742.217 168.03C742.492 167.573 742.638 167.05 742.638 166.517C742.638 165.984 742.492 165.461 742.217 165.004L640.888 0C473.209 2.69471 313.024 69.9308 193.655 187.721C74.287 305.512 4.92551 464.788 0 632.416L147.876 539.325C152.837 536.263 158.563 534.665 164.393 534.714C170.223 534.764 175.921 536.459 180.83 539.604L323.632 632.277C327.368 549.139 362.567 470.529 422.096 412.373C481.626 354.218 561.036 320.864 644.239 319.071Z" fill="#FD8B00"/>
<path d="M376.734 668.652H349.691C354.746 742.435 386.651 811.811 439.377 863.671C492.103 915.531 561.998 946.282 635.854 950.114V923.071C569.159 919.286 506.111 891.397 458.445 844.596C410.778 797.794 381.74 735.267 376.734 668.652Z" fill="#FDAF00"/>
<path d="M323.958 665.603L165.703 563.203C165.259 562.916 164.742 562.764 164.213 562.764C163.685 562.764 163.168 562.916 162.724 563.203L0 665.603C3.60051 831.753 70.5459 990.249 187.143 1108.67C303.739 1227.09 461.176 1296.49 627.25 1302.67L535.275 1152.56C532.246 1147.61 530.679 1141.9 530.753 1136.1C530.827 1130.29 532.54 1124.62 535.694 1119.75L630.042 974.248C550.147 969.016 474.924 934.746 418.545 877.896C362.166 821.045 328.524 745.539 323.958 665.603Z" fill="#FDAF00"/>
<path d="M795.795 683.741L782.518 661.463L753.973 676.254L767.233 698.487C768.017 699.78 768.572 701.12 768.931 702.504C769.531 705.019 769.453 707.633 768.703 710.113C768.306 711.369 767.735 712.571 767.004 713.689C765.626 715.888 763.678 717.73 761.338 719.046C758.805 720.447 755.905 721.169 752.96 721.13H677.824V690.696L612.503 736.348L677.824 782V751.565H752.96C757.5 751.565 761.974 751.002 766.204 749.907C774.374 747.806 781.805 743.732 787.744 738.098C790.651 735.374 793.165 732.315 795.19 729.074C801.635 718.925 803.602 706.841 800.677 695.367C799.598 691.311 797.957 687.403 795.795 683.741ZM544.928 615.202L507.205 685.507C505.251 689.146 503.818 693.009 502.943 696.996C501.347 704.463 501.783 712.183 504.21 719.453C506.637 726.722 510.979 733.31 516.84 738.615C519.746 741.263 522.98 743.576 526.556 745.509C534.012 749.478 542.449 751.565 551.035 751.565H579.842V721.13H551.035C548.176 721.138 545.364 720.456 542.87 719.152C540.489 717.876 538.503 716.046 537.106 713.841C535.672 711.693 534.836 709.245 534.672 706.72C534.594 705.47 534.692 704.217 534.966 702.991C535.26 701.667 535.75 700.359 536.42 699.096L573.261 630.435L599.373 644.48L589.608 568.957L514.521 598.844L544.928 615.202ZM752.911 644.496L762.677 568.957L735.928 583.337L689.5 505.47C686.26 499.931 681.802 495.092 676.42 491.266C671.037 487.441 664.849 484.715 658.26 483.268C654.128 482.375 649.895 481.951 645.653 482.004C637.019 482.155 628.58 484.428 621.191 488.594C613.303 493.055 606.946 499.522 602.868 507.235L590.914 529.513L620.129 543.133L632.083 520.839C632.818 519.47 633.732 518.237 634.794 517.157C636.74 515.177 639.248 513.753 642.028 513.048C644.851 512.305 647.83 512.248 650.683 512.881C652.863 513.357 654.908 514.262 656.683 515.535C658.457 516.808 659.919 518.419 660.971 520.261L707.643 598.57L677.824 614.609L752.911 644.496Z" fill="#FEEBB2"/>
</g>
</mask>
<g mask="url(#mask0_7264_143379)">
<rect y="1" width="1303" height="1303" fill="#138800"/>
</g>
</g>
<defs>
<clipPath id="clip0_7264_143379">
<rect width="1303" height="1303.05" fill="white"/>
</clipPath>
</defs>
</svg>
