<svg width="1838" height="685" viewBox="0 0 1838 685" fill="none" xmlns="http://www.w3.org/2000/svg">
<path d="M569 126L632.522 109.991C926.858 35.8117 1234.95 35.4387 1529.47 108.905L1598 126" stroke="url(#paint0_linear_6520_89158)" stroke-width="30"/>
<path d="M1480.49 285.364H1262.89V317.073C1440.11 317.073 1617.33 317.202 1794.54 317.459L1802.16 324.028C1805.76 327.129 1811.62 327.156 1815.19 324.088L1835.14 306.899C1838.7 303.835 1838.67 298.783 1835.07 295.683L1815.26 278.618C1811.66 275.517 1805.79 275.49 1802.23 278.557L1794.54 285.186L1557.18 285.075C1515.55 285.075 1481.82 251.338 1481.82 209.715C1481.82 168.092 1515.54 134.352 1557.17 134.352C1598.79 134.352 1632.53 168.092 1632.53 209.715C1632.53 223.767 1628.6 237.54 1621.19 249.478C1613.78 261.417 1603.18 271.045 1590.58 277.276H1641.1C1656.49 258.117 1664.88 234.285 1664.88 209.715C1664.88 150.227 1616.65 101.998 1557.17 101.998C1497.68 101.998 1449.45 150.227 1449.45 209.715C1449.41 238.039 1460.57 265.229 1480.49 285.364Z" fill="#FEEBB2"/>
<path d="M1163.82 285.364H946.223V317.073C1123.45 317.073 1300.66 317.202 1477.87 317.459L1485.49 324.028C1489.09 327.129 1494.95 327.156 1498.52 324.088L1518.47 306.899C1522.03 303.835 1522 298.783 1518.4 295.683L1498.59 278.618C1494.99 275.517 1489.12 275.49 1485.57 278.557L1477.87 285.186L1240.51 285.075C1198.88 285.075 1165.15 251.338 1165.15 209.715C1165.15 168.092 1198.87 134.352 1240.5 134.352C1282.12 134.352 1315.86 168.092 1315.86 209.715C1315.86 223.767 1311.93 237.54 1304.52 249.478C1297.11 261.417 1286.51 271.045 1273.91 277.276H1324.44C1339.82 258.117 1348.21 234.285 1348.21 209.715C1348.21 150.227 1299.98 101.998 1240.5 101.998C1181.01 101.998 1132.78 150.227 1132.78 209.715C1132.74 238.039 1143.9 265.229 1163.82 285.364Z" fill="#FDD24C"/>
<path d="M924.633 101.998C865.147 101.998 816.926 150.227 816.926 209.715C816.889 238.04 828.048 265.231 847.971 285.364H630.371V317.073C807.593 317.073 984.807 317.202 1162.02 317.459L1169.64 324.028C1173.25 327.129 1179.1 327.156 1182.67 324.088L1202.62 306.899C1206.18 303.835 1206.15 298.783 1202.55 295.683L1182.74 278.618C1179.14 275.517 1173.28 275.49 1169.71 278.557L1161.99 285.186L924.633 285.075C883.013 285.075 849.273 251.338 849.273 209.715C849.273 168.092 883.013 134.352 924.633 134.352C966.253 134.352 999.996 168.092 999.996 209.715C999.999 223.767 996.073 237.54 988.661 249.478C981.25 261.417 970.648 271.045 958.053 277.276H1008.58C1023.96 258.117 1032.34 234.285 1032.35 209.715C1032.35 150.227 984.125 101.998 924.633 101.998Z" fill="#FDBD00"/>
<path d="M609.596 101.998C550.111 101.998 501.879 150.227 501.879 209.715C501.844 238.04 513.002 265.23 532.925 285.364H315.324V317.073C492.55 317.073 669.766 317.202 846.972 317.459L854.593 324.028C858.192 327.129 864.054 327.156 867.612 324.088L887.553 306.899C891.114 303.835 891.081 298.783 887.482 295.683L867.666 278.618C864.071 275.517 858.205 275.49 854.647 278.557L846.948 285.186L609.589 285.075C567.966 285.075 534.226 251.338 534.226 209.715C534.226 168.092 567.973 134.352 609.596 134.352C651.219 134.352 684.956 168.092 684.956 209.715C684.961 223.768 681.036 237.541 673.624 249.48C666.213 261.419 655.609 271.047 643.013 277.276H693.539C708.92 258.117 717.307 234.285 717.313 209.715C717.313 150.227 669.085 101.998 609.596 101.998Z" fill="#FD9C00"/>
<path d="M217.264 285.364H0V317.073C177.1 317.073 354.194 317.202 531.281 317.459L538.906 324.028C542.508 327.129 548.366 327.156 551.928 324.088L571.885 306.899C575.447 303.835 575.413 298.783 571.815 295.683L551.999 278.618C548.4 275.517 542.538 275.49 538.976 278.557L531.281 285.186L293.922 285.075C252.299 285.075 218.559 251.338 218.559 209.715C218.559 168.092 252.299 134.352 293.922 134.352C335.545 134.352 369.282 168.092 369.282 209.715C369.285 223.767 365.359 237.54 357.947 249.478C350.536 261.417 339.934 271.045 327.339 277.276H377.861C393.244 258.117 401.632 234.285 401.639 209.715C401.639 150.227 353.407 101.998 293.922 101.998C234.437 101.998 186.205 150.227 186.205 209.715C186.173 238.042 197.337 265.233 217.264 285.364Z" fill="#FD8B00"/>
<path fill-rule="evenodd" clip-rule="evenodd" d="M269.312 204.738H265.552C265.053 204.738 264.575 204.936 264.223 205.289C263.87 205.642 263.672 206.12 263.672 206.618C263.672 207.117 263.87 207.595 264.223 207.948C264.575 208.3 265.053 208.498 265.552 208.498H269.312C269.811 208.498 270.289 208.3 270.641 207.948C270.994 207.595 271.192 207.117 271.192 206.618C271.192 206.12 270.994 205.642 270.641 205.289C270.289 204.936 269.811 204.738 269.312 204.738Z" fill="#FD8B00"/>
<path fill-rule="evenodd" clip-rule="evenodd" d="M322.867 204.738H319.111C318.612 204.738 318.134 204.936 317.781 205.289C317.429 205.642 317.23 206.12 317.23 206.618C317.23 207.117 317.429 207.595 317.781 207.948C318.134 208.3 318.612 208.498 319.111 208.498H322.867C323.366 208.498 323.844 208.3 324.197 207.948C324.549 207.595 324.747 207.117 324.747 206.618C324.747 206.12 324.549 205.642 324.197 205.289C323.844 204.936 323.366 204.738 322.867 204.738Z" fill="#FD8B00"/>
<path d="M357.028 307.355V309.994H344.315V293.044H356.689V295.683H347.463V300.09H355.648V302.681H347.463V307.355H357.028ZM368.798 309.994L365.335 305.151L361.824 309.994H358.337L363.64 302.948L358.603 296.143H362.042L365.359 300.696L368.677 296.143H372.067L367.006 302.899L372.333 309.994H368.798ZM376.413 298.637H371.861V296.143H384.017V298.637H379.465V309.994H376.413V298.637ZM395.223 309.994L392.438 306.071H392.196H389.266V309.994H386.215V296.143H392.196C394.069 296.143 395.546 296.587 396.627 297.475C397.709 298.347 398.25 299.565 398.25 301.131C398.25 302.165 398 303.061 397.499 303.819C396.999 304.562 396.28 305.127 395.344 305.514L398.516 309.994H395.223ZM395.175 301.131C395.175 300.308 394.9 299.687 394.351 299.267C393.819 298.831 393.027 298.613 391.978 298.613H389.266V303.674H391.978C393.027 303.674 393.819 303.456 394.351 303.02C394.9 302.584 395.175 301.955 395.175 301.131ZM410.69 306.991H403.692L402.384 309.994H399.405L405.701 296.143H408.728L415 309.994H411.973L410.69 306.991ZM409.697 304.667L407.203 298.904L404.709 304.667H409.697ZM423.21 310.236C421.773 310.236 420.473 309.93 419.311 309.316C418.165 308.687 417.261 307.831 416.599 306.749C415.937 305.652 415.606 304.425 415.606 303.069C415.606 301.713 415.937 300.494 416.599 299.412C417.261 298.33 418.165 297.483 419.311 296.87C420.473 296.24 421.773 295.925 423.21 295.925C425.728 295.925 427.633 296.708 428.924 298.274L426.939 300.163C425.954 299.065 424.743 298.516 423.306 298.516C422.418 298.516 421.619 298.71 420.909 299.097C420.215 299.485 419.666 300.026 419.262 300.72C418.875 301.414 418.681 302.197 418.681 303.069C418.681 303.956 418.875 304.748 419.262 305.442C419.666 306.136 420.215 306.677 420.909 307.064C421.619 307.452 422.418 307.645 423.306 307.645C424.759 307.645 425.97 307.088 426.939 305.974L428.924 307.887C427.601 309.453 425.696 310.236 423.21 310.236ZM434.232 298.637H429.68V296.143H441.836V298.637H437.283V309.994H434.232V298.637ZM444.033 296.143H447.085V309.994H444.033V296.143ZM457.783 310.236C456.346 310.236 455.047 309.93 453.884 309.316C452.722 308.687 451.81 307.831 451.148 306.749C450.486 305.652 450.155 304.425 450.155 303.069C450.155 301.713 450.486 300.494 451.148 299.412C451.81 298.314 452.722 297.459 453.884 296.845C455.047 296.232 456.346 295.925 457.783 295.925C459.236 295.925 460.543 296.232 461.706 296.845C462.868 297.459 463.78 298.314 464.442 299.412C465.104 300.494 465.435 301.713 465.435 303.069C465.435 304.425 465.104 305.652 464.442 306.749C463.78 307.831 462.868 308.687 461.706 309.316C460.543 309.93 459.236 310.236 457.783 310.236ZM457.783 307.645C458.655 307.645 459.438 307.452 460.132 307.064C460.826 306.661 461.367 306.112 461.754 305.417C462.142 304.723 462.335 303.94 462.335 303.069C462.335 302.197 462.142 301.414 461.754 300.72C461.367 300.026 460.826 299.485 460.132 299.097C459.438 298.71 458.655 298.516 457.783 298.516C456.927 298.516 456.152 298.718 455.458 299.122C454.764 299.509 454.215 300.05 453.812 300.744C453.424 301.422 453.23 302.197 453.23 303.069C453.23 303.94 453.424 304.723 453.812 305.417C454.215 306.112 454.764 306.661 455.458 307.064C456.152 307.452 456.927 307.645 457.783 307.645ZM481.247 296.143V309.994H478.728L471.536 301.277V309.994H468.485V296.143H471.028L478.22 304.885V296.143H481.247Z" fill="#163220"/>
<path d="M641.05 309.994L641.026 298.758L635.456 308.057H634.052L628.482 298.904V309.994H625.479V293.044H628.07L634.802 304.279L641.413 293.044H644.004L644.028 309.994H641.05ZM657.494 306.991H650.496L649.188 309.994H646.209L652.505 296.143H655.532L661.804 309.994H658.777L657.494 306.991ZM656.501 304.667L654.007 298.904L651.513 304.667H656.501ZM676.546 296.143V309.994H674.028L666.836 301.277V309.994H663.785V296.143H666.327L673.519 304.885V296.143H676.546ZM686.938 310.236C684.953 310.236 683.403 309.687 682.289 308.59C681.175 307.492 680.618 305.982 680.618 304.061V296.143H683.669V303.965C683.669 305.159 683.952 306.071 684.517 306.701C685.082 307.33 685.897 307.645 686.963 307.645C688.012 307.645 688.811 307.339 689.36 306.725C689.925 306.095 690.207 305.175 690.207 303.965V296.143H693.21V304.061C693.21 305.999 692.661 307.516 691.564 308.614C690.466 309.695 688.924 310.236 686.938 310.236ZM700.344 298.613V302.439H706.955V304.885H700.344V309.994H697.293V296.143H707.778V298.613H700.344ZM718.907 306.991H711.908L710.601 309.994H707.622L713.918 296.143H716.945L723.217 309.994H720.19L718.907 306.991ZM717.914 304.667L715.42 298.904L712.926 304.667H717.914ZM731.426 310.236C729.99 310.236 728.69 309.93 727.528 309.316C726.382 308.687 725.478 307.831 724.816 306.749C724.154 305.652 723.823 304.425 723.823 303.069C723.823 301.713 724.154 300.494 724.816 299.412C725.478 298.33 726.382 297.483 727.528 296.87C728.69 296.24 729.99 295.925 731.426 295.925C733.945 295.925 735.85 296.708 737.141 298.274L735.156 300.163C734.171 299.065 732.96 298.516 731.523 298.516C730.635 298.516 729.836 298.71 729.126 299.097C728.432 299.485 727.883 300.026 727.479 300.72C727.092 301.414 726.898 302.197 726.898 303.069C726.898 303.956 727.092 304.748 727.479 305.442C727.883 306.136 728.432 306.677 729.126 307.064C729.836 307.452 730.635 307.645 731.523 307.645C732.976 307.645 734.187 307.088 735.156 305.974L737.141 307.887C735.817 309.453 733.913 310.236 731.426 310.236ZM742.449 298.637H737.896V296.143H750.053V298.637H745.5V309.994H742.449V298.637ZM758.425 310.236C756.44 310.236 754.89 309.687 753.776 308.59C752.662 307.492 752.105 305.982 752.105 304.061V296.143H755.156V303.965C755.156 305.159 755.439 306.071 756.004 306.701C756.569 307.33 757.384 307.645 758.449 307.645C759.499 307.645 760.298 307.339 760.847 306.725C761.412 306.095 761.694 305.175 761.694 303.965V296.143H764.697V304.061C764.697 305.999 764.148 307.516 763.05 308.614C761.953 309.695 760.411 310.236 758.425 310.236ZM777.788 309.994L775.003 306.071H774.761H771.831V309.994H768.78V296.143H774.761C776.634 296.143 778.111 296.587 779.193 297.475C780.274 298.347 780.815 299.565 780.815 301.131C780.815 302.165 780.565 303.061 780.064 303.819C779.564 304.562 778.846 305.127 777.909 305.514L781.081 309.994H777.788ZM777.74 301.131C777.74 300.308 777.465 299.687 776.916 299.267C776.384 298.831 775.593 298.613 774.543 298.613H771.831V303.674H774.543C775.593 303.674 776.384 303.456 776.916 303.02C777.465 302.584 777.74 301.955 777.74 301.131ZM784.198 296.143H787.249V309.994H784.198V296.143ZM804.22 296.143V309.994H801.701L794.509 301.277V309.994H791.458V296.143H794.001L801.193 304.885V296.143H804.22ZM817.663 302.948H820.545V308.469C819.834 309.017 818.987 309.453 818.002 309.776C817.034 310.083 816.041 310.236 815.024 310.236C813.539 310.236 812.207 309.93 811.028 309.316C809.866 308.687 808.954 307.831 808.292 306.749C807.63 305.652 807.299 304.425 807.299 303.069C807.299 301.713 807.63 300.494 808.292 299.412C808.954 298.314 809.866 297.459 811.028 296.845C812.191 296.232 813.498 295.925 814.951 295.925C817.534 295.925 819.471 296.7 820.763 298.25L818.777 300.163C817.792 299.065 816.533 298.516 815 298.516C814.112 298.516 813.313 298.71 812.602 299.097C811.908 299.485 811.359 300.026 810.956 300.72C810.568 301.414 810.374 302.197 810.374 303.069C810.374 303.94 810.576 304.731 810.98 305.442C811.383 306.136 811.94 306.677 812.651 307.064C813.361 307.452 814.176 307.645 815.096 307.645C816.033 307.645 816.888 307.452 817.663 307.064V302.948Z" fill="#163220"/>
<path d="M951.789 295.705H946.171V293.042H960.555V295.705H954.937V309.992H951.789V295.705ZM971.638 309.992L968.853 306.069H968.611H965.681V309.992H962.63V296.141H968.611C970.483 296.141 971.961 296.585 973.042 297.473C974.124 298.345 974.665 299.564 974.665 301.129C974.665 302.163 974.414 303.059 973.914 303.817C973.413 304.56 972.695 305.125 971.759 305.512L974.931 309.992H971.638ZM971.589 301.129C971.589 300.306 971.315 299.685 970.766 299.265C970.233 298.829 969.442 298.611 968.393 298.611H965.681V303.672H968.393C969.442 303.672 970.233 303.454 970.766 303.018C971.315 302.582 971.589 301.953 971.589 301.129ZM987.104 306.99H980.106L978.799 309.992H975.82L982.116 296.141H985.143L991.415 309.992H988.388L987.104 306.99ZM986.112 304.665L983.617 298.902L981.123 304.665H986.112ZM1006.16 296.141V309.992H1003.64L996.446 301.275V309.992H993.395V296.141H995.938L1003.13 304.883V296.141H1006.16ZM1014.68 310.234C1013.6 310.234 1012.54 310.089 1011.49 309.798C1010.44 309.508 1009.61 309.129 1008.99 308.66L1010.13 306.287C1010.71 306.723 1011.42 307.07 1012.26 307.329C1013.1 307.587 1013.96 307.716 1014.83 307.716C1015.78 307.716 1016.48 307.579 1016.91 307.304C1017.36 307.014 1017.59 306.634 1017.59 306.166C1017.59 305.65 1017.33 305.27 1016.82 305.028C1016.32 304.786 1015.53 304.56 1014.47 304.35C1013.39 304.108 1012.51 303.866 1011.83 303.624C1011.17 303.381 1010.59 302.986 1010.11 302.437C1009.62 301.888 1009.38 301.146 1009.38 300.209C1009.38 299.354 1009.62 298.603 1010.08 297.957C1010.57 297.312 1011.25 296.811 1012.14 296.456C1013.03 296.101 1014.07 295.923 1015.27 295.923C1016.17 295.923 1017.05 296.028 1017.91 296.238C1018.76 296.432 1019.5 296.722 1020.11 297.11L1019.07 299.483C1017.97 298.772 1016.67 298.417 1015.17 298.417C1014.25 298.417 1013.56 298.571 1013.11 298.877C1012.66 299.168 1012.43 299.555 1012.43 300.04C1012.43 300.556 1012.68 300.936 1013.18 301.178C1013.7 301.404 1014.5 301.63 1015.58 301.856C1016.65 302.098 1017.51 302.34 1018.17 302.582C1018.83 302.808 1019.41 303.188 1019.89 303.72C1020.38 304.253 1020.62 304.98 1020.62 305.9C1020.62 307.224 1020.08 308.281 1019.02 309.072C1017.97 309.847 1016.52 310.234 1014.68 310.234ZM1029.46 296.141C1031.33 296.141 1032.81 296.585 1033.89 297.473C1034.97 298.345 1035.51 299.564 1035.51 301.129C1035.51 302.695 1034.96 303.922 1033.86 304.81C1032.78 305.698 1031.31 306.142 1029.46 306.142H1026.53V309.992H1023.48V296.141H1029.46ZM1029.24 303.672C1030.29 303.672 1031.08 303.454 1031.61 303.018C1032.16 302.582 1032.43 301.953 1032.43 301.129C1032.43 300.306 1032.16 299.685 1031.61 299.265C1031.08 298.829 1030.29 298.611 1029.24 298.611H1026.53V303.672H1029.24ZM1045.19 310.234C1043.76 310.234 1042.46 309.928 1041.3 309.314C1040.13 308.685 1039.22 307.829 1038.56 306.747C1037.9 305.65 1037.57 304.423 1037.57 303.067C1037.57 301.711 1037.9 300.492 1038.56 299.41C1039.22 298.312 1040.13 297.457 1041.3 296.843C1042.46 296.23 1043.76 295.923 1045.19 295.923C1046.65 295.923 1047.95 296.23 1049.12 296.843C1050.28 297.457 1051.19 298.312 1051.85 299.41C1052.51 300.492 1052.85 301.711 1052.85 303.067C1052.85 304.423 1052.51 305.65 1051.85 306.747C1051.19 307.829 1050.28 308.685 1049.12 309.314C1047.95 309.928 1046.65 310.234 1045.19 310.234ZM1045.19 307.643C1046.07 307.643 1046.85 307.45 1047.54 307.062C1048.24 306.659 1048.78 306.11 1049.17 305.416C1049.55 304.721 1049.75 303.938 1049.75 303.067C1049.75 302.195 1049.55 301.412 1049.17 300.718C1048.78 300.024 1048.24 299.483 1047.54 299.095C1046.85 298.708 1046.07 298.514 1045.19 298.514C1044.34 298.514 1043.56 298.716 1042.87 299.12C1042.17 299.507 1041.63 300.048 1041.22 300.742C1040.84 301.42 1040.64 302.195 1040.64 303.067C1040.64 303.938 1040.84 304.721 1041.22 305.416C1041.63 306.11 1042.17 306.659 1042.87 307.062C1043.56 307.45 1044.34 307.643 1045.19 307.643ZM1064.9 309.992L1062.12 306.069H1061.88H1058.95V309.992H1055.9V296.141H1061.88C1063.75 296.141 1065.23 296.585 1066.31 297.473C1067.39 298.345 1067.93 299.564 1067.93 301.129C1067.93 302.163 1067.68 303.059 1067.18 303.817C1066.68 304.56 1065.96 305.125 1065.03 305.512L1068.2 309.992H1064.9ZM1064.86 301.129C1064.86 300.306 1064.58 299.685 1064.03 299.265C1063.5 298.829 1062.71 298.611 1061.66 298.611H1058.95V303.672H1061.66C1062.71 303.672 1063.5 303.454 1064.03 303.018C1064.58 302.582 1064.86 301.953 1064.86 301.129ZM1073.62 298.635H1069.07V296.141H1081.22V298.635H1076.67V309.992H1073.62V298.635ZM1091.63 306.99H1084.63L1083.32 309.992H1080.34L1086.64 296.141H1089.67L1095.94 309.992H1092.91L1091.63 306.99ZM1090.63 304.665L1088.14 298.902L1085.65 304.665H1090.63ZM1099.61 298.635H1095.06V296.141H1107.21V298.635H1102.66V309.992H1099.61V298.635ZM1109.41 296.141H1112.46V309.992H1109.41V296.141ZM1123.16 310.234C1121.72 310.234 1120.42 309.928 1119.26 309.314C1118.1 308.685 1117.19 307.829 1116.53 306.747C1115.86 305.65 1115.53 304.423 1115.53 303.067C1115.53 301.711 1115.86 300.492 1116.53 299.41C1117.19 298.312 1118.1 297.457 1119.26 296.843C1120.42 296.23 1121.72 295.923 1123.16 295.923C1124.61 295.923 1125.92 296.23 1127.08 296.843C1128.25 297.457 1129.16 298.312 1129.82 299.41C1130.48 300.492 1130.81 301.711 1130.81 303.067C1130.81 304.423 1130.48 305.65 1129.82 306.747C1129.16 307.829 1128.25 308.685 1127.08 309.314C1125.92 309.928 1124.61 310.234 1123.16 310.234ZM1123.16 307.643C1124.03 307.643 1124.81 307.45 1125.51 307.062C1126.2 306.659 1126.74 306.11 1127.13 305.416C1127.52 304.721 1127.71 303.938 1127.71 303.067C1127.71 302.195 1127.52 301.412 1127.13 300.718C1126.74 300.024 1126.2 299.483 1125.51 299.095C1124.81 298.708 1124.03 298.514 1123.16 298.514C1122.3 298.514 1121.53 298.716 1120.84 299.12C1120.14 299.507 1119.59 300.048 1119.19 300.742C1118.8 301.42 1118.61 302.195 1118.61 303.067C1118.61 303.938 1118.8 304.721 1119.19 305.416C1119.59 306.11 1120.14 306.659 1120.84 307.062C1121.53 307.45 1122.3 307.643 1123.16 307.643ZM1146.62 296.141V309.992H1144.11L1136.91 301.275V309.992H1133.86V296.141H1136.4L1143.6 304.883V296.141H1146.62Z" fill="#163220"/>
<path d="M1288.93 310.236C1286.59 310.236 1284.77 309.582 1283.46 308.275C1282.15 306.951 1281.5 305.062 1281.5 302.609V293.044H1284.65V302.487C1284.65 305.813 1286.08 307.476 1288.96 307.476C1291.81 307.476 1293.24 305.813 1293.24 302.487V293.044H1296.34V302.609C1296.34 305.062 1295.69 306.951 1294.38 308.275C1293.09 309.582 1291.27 310.236 1288.93 310.236ZM1304.89 310.236C1303.81 310.236 1302.74 310.091 1301.7 309.8C1300.65 309.51 1299.81 309.13 1299.2 308.662L1300.34 306.289C1300.92 306.725 1301.63 307.072 1302.47 307.33C1303.31 307.589 1304.17 307.718 1305.04 307.718C1305.99 307.718 1306.68 307.581 1307.12 307.306C1307.57 307.016 1307.8 306.636 1307.8 306.168C1307.8 305.652 1307.54 305.272 1307.02 305.03C1306.52 304.788 1305.74 304.562 1304.67 304.352C1303.59 304.11 1302.71 303.868 1302.03 303.626C1301.37 303.383 1300.8 302.988 1300.31 302.439C1299.83 301.89 1299.59 301.148 1299.59 300.211C1299.59 299.356 1299.82 298.605 1300.29 297.959C1300.77 297.313 1301.46 296.813 1302.35 296.458C1303.24 296.103 1304.28 295.925 1305.47 295.925C1306.38 295.925 1307.26 296.03 1308.11 296.24C1308.97 296.434 1309.7 296.724 1310.32 297.112L1309.27 299.485C1308.18 298.774 1306.88 298.419 1305.38 298.419C1304.46 298.419 1303.77 298.573 1303.32 298.879C1302.87 299.17 1302.64 299.557 1302.64 300.042C1302.64 300.558 1302.89 300.938 1303.39 301.18C1303.91 301.406 1304.71 301.632 1305.79 301.858C1306.85 302.1 1307.72 302.342 1308.38 302.584C1309.04 302.81 1309.61 303.19 1310.1 303.722C1310.58 304.255 1310.82 304.982 1310.82 305.902C1310.82 307.226 1310.29 308.283 1309.23 309.074C1308.18 309.849 1306.73 310.236 1304.89 310.236ZM1322.74 306.991H1315.74L1314.43 309.994H1311.45L1317.75 296.143H1320.78L1327.05 309.994H1324.02L1322.74 306.991ZM1321.75 304.667L1319.25 298.904L1316.76 304.667H1321.75ZM1338.02 302.948H1340.9V308.469C1340.19 309.017 1339.34 309.453 1338.36 309.776C1337.39 310.083 1336.4 310.236 1335.38 310.236C1333.89 310.236 1332.56 309.93 1331.38 309.316C1330.22 308.687 1329.31 307.831 1328.65 306.749C1327.99 305.652 1327.65 304.425 1327.65 303.069C1327.65 301.713 1327.99 300.494 1328.65 299.412C1329.31 298.314 1330.22 297.459 1331.38 296.845C1332.55 296.232 1333.85 295.925 1335.31 295.925C1337.89 295.925 1339.83 296.7 1341.12 298.25L1339.13 300.163C1338.15 299.065 1336.89 298.516 1335.36 298.516C1334.47 298.516 1333.67 298.71 1332.96 299.097C1332.26 299.485 1331.71 300.026 1331.31 300.72C1330.92 301.414 1330.73 302.197 1330.73 303.069C1330.73 303.94 1330.93 304.731 1331.34 305.442C1331.74 306.136 1332.3 306.677 1333.01 307.064C1333.72 307.452 1334.53 307.645 1335.45 307.645C1336.39 307.645 1337.24 307.452 1338.02 307.064V302.948ZM1355.44 307.548V309.994H1344.68V296.143H1355.17V298.613H1347.74V301.785H1354.35V304.158H1347.74V307.548H1355.44ZM1375.65 310.236L1373.93 308.662C1372.63 309.712 1371.11 310.236 1369.35 310.236C1368.35 310.236 1367.44 310.067 1366.61 309.728C1365.79 309.389 1365.14 308.921 1364.68 308.323C1364.21 307.726 1363.97 307.048 1363.97 306.289C1363.97 305.482 1364.22 304.756 1364.7 304.11C1365.18 303.464 1365.96 302.851 1367.02 302.269C1366.52 301.753 1366.16 301.269 1365.93 300.817C1365.73 300.348 1365.62 299.864 1365.62 299.364C1365.62 298.347 1366 297.531 1366.76 296.918C1367.53 296.288 1368.56 295.974 1369.83 295.974C1371.01 295.974 1371.96 296.256 1372.67 296.821C1373.39 297.386 1373.76 298.153 1373.76 299.122C1373.76 299.848 1373.54 300.494 1373.1 301.059C1372.68 301.624 1372 302.165 1371.04 302.681L1373.78 305.2C1374.15 304.473 1374.43 303.73 1374.6 302.972L1376.93 303.65C1376.64 304.844 1376.19 305.91 1375.57 306.846L1377.24 308.372L1375.65 310.236ZM1369.88 298.008C1369.37 298.008 1368.96 298.137 1368.67 298.395C1368.38 298.637 1368.24 298.944 1368.24 299.315C1368.24 299.606 1368.31 299.88 1368.45 300.139C1368.61 300.381 1368.93 300.72 1369.4 301.156C1370.11 300.784 1370.61 300.453 1370.9 300.163C1371.21 299.856 1371.36 299.541 1371.36 299.218C1371.36 298.863 1371.23 298.573 1370.97 298.347C1370.73 298.121 1370.37 298.008 1369.88 298.008ZM1369.52 307.984C1370.52 307.984 1371.42 307.678 1372.21 307.064L1368.67 303.819C1367.98 304.207 1367.48 304.578 1367.19 304.933C1366.92 305.272 1366.78 305.668 1366.78 306.12C1366.78 306.652 1367.02 307.096 1367.51 307.452C1368.01 307.807 1368.68 307.984 1369.52 307.984ZM1397.54 309.994L1394.08 305.03C1393.93 305.046 1393.71 305.054 1393.42 305.054H1389.6V309.994H1386.45V293.044H1393.42C1394.89 293.044 1396.17 293.286 1397.25 293.77C1398.35 294.254 1399.19 294.948 1399.77 295.852C1400.35 296.757 1400.64 297.83 1400.64 299.073C1400.64 300.348 1400.33 301.446 1399.7 302.366C1399.08 303.287 1398.19 303.973 1397.03 304.425L1400.93 309.994H1397.54ZM1397.47 299.073C1397.47 297.991 1397.11 297.16 1396.4 296.579C1395.69 295.998 1394.65 295.707 1393.28 295.707H1389.6V302.463H1393.28C1394.65 302.463 1395.69 302.173 1396.4 301.591C1397.11 300.994 1397.47 300.155 1397.47 299.073ZM1414.74 307.548V309.994H1403.99V296.143H1414.48V298.613H1407.04V301.785H1413.65V304.158H1407.04V307.548H1414.74ZM1420.44 298.637H1415.89V296.143H1428.04V298.637H1423.49V309.994H1420.44V298.637ZM1438.45 306.991H1431.45L1430.14 309.994H1427.16L1433.46 296.143H1436.48L1442.76 309.994H1439.73L1438.45 306.991ZM1437.45 304.667L1434.96 298.904L1432.47 304.667H1437.45ZM1444.74 296.143H1447.79V309.994H1444.74V296.143ZM1452 296.143H1455.05V307.524H1462.17V309.994H1452V296.143Z" fill="#163220"/>
<path d="M1619.87 293.044L1614.25 309.994H1610.91L1606.72 297.451L1602.46 309.994H1599.09L1593.47 293.044H1596.74L1600.96 305.926L1605.34 293.044H1608.25L1612.53 305.999L1616.87 293.044H1619.87ZM1630.28 306.991H1623.28L1621.97 309.994H1619L1625.29 296.143H1628.32L1634.59 309.994H1631.56L1630.28 306.991ZM1629.29 304.667L1626.79 298.904L1624.3 304.667H1629.29ZM1640.88 310.236C1639.8 310.236 1638.73 310.091 1637.68 309.8C1636.64 309.51 1635.8 309.13 1635.19 308.662L1636.33 306.289C1636.91 306.725 1637.62 307.072 1638.46 307.33C1639.3 307.589 1640.15 307.718 1641.03 307.718C1641.98 307.718 1642.67 307.581 1643.11 307.306C1643.56 307.016 1643.79 306.636 1643.79 306.168C1643.79 305.652 1643.53 305.272 1643.01 305.03C1642.51 304.788 1641.73 304.562 1640.66 304.352C1639.58 304.11 1638.7 303.868 1638.02 303.626C1637.36 303.383 1636.79 302.988 1636.3 302.439C1635.82 301.89 1635.58 301.148 1635.58 300.211C1635.58 299.356 1635.81 298.605 1636.28 297.959C1636.76 297.313 1637.45 296.813 1638.34 296.458C1639.23 296.103 1640.27 295.925 1641.46 295.925C1642.37 295.925 1643.25 296.03 1644.1 296.24C1644.96 296.434 1645.69 296.724 1646.31 297.112L1645.26 299.485C1644.17 298.774 1642.87 298.419 1641.37 298.419C1640.44 298.419 1639.76 298.573 1639.31 298.879C1638.85 299.17 1638.63 299.557 1638.63 300.042C1638.63 300.558 1638.88 300.938 1639.38 301.18C1639.9 301.406 1640.7 301.632 1641.78 301.858C1642.84 302.1 1643.71 302.342 1644.37 302.584C1645.03 302.81 1645.6 303.19 1646.09 303.722C1646.57 304.255 1646.81 304.982 1646.81 305.902C1646.81 307.226 1646.28 308.283 1645.22 309.074C1644.17 309.849 1642.72 310.236 1640.88 310.236ZM1651.98 298.637H1647.42V296.143H1659.58V298.637H1655.03V309.994H1651.98V298.637ZM1672.53 307.548V309.994H1661.78V296.143H1672.26V298.613H1664.83V301.785H1671.44V304.158H1664.83V307.548H1672.53ZM1682.55 293.044H1689.96C1691.76 293.044 1693.37 293.399 1694.77 294.109C1696.18 294.803 1697.27 295.796 1698.04 297.087C1698.82 298.363 1699.21 299.84 1699.21 301.519C1699.21 303.198 1698.82 304.683 1698.04 305.974C1697.27 307.25 1696.18 308.243 1694.77 308.953C1693.37 309.647 1691.76 309.994 1689.96 309.994H1682.55V293.044ZM1689.81 307.33C1691.05 307.33 1692.14 307.096 1693.08 306.628C1694.03 306.144 1694.76 305.466 1695.26 304.594C1695.78 303.706 1696.03 302.681 1696.03 301.519C1696.03 300.356 1695.78 299.339 1695.26 298.468C1694.76 297.58 1694.03 296.902 1693.08 296.434C1692.14 295.949 1691.05 295.707 1689.81 295.707H1685.69V307.33H1689.81ZM1702.38 296.143H1705.43V309.994H1702.38V296.143ZM1713.95 310.236C1712.87 310.236 1711.8 310.091 1710.76 309.8C1709.71 309.51 1708.87 309.13 1708.26 308.662L1709.4 306.289C1709.98 306.725 1710.69 307.072 1711.53 307.33C1712.37 307.589 1713.23 307.718 1714.1 307.718C1715.05 307.718 1715.74 307.581 1716.18 307.306C1716.63 307.016 1716.86 306.636 1716.86 306.168C1716.86 305.652 1716.6 305.272 1716.08 305.03C1715.58 304.788 1714.8 304.562 1713.73 304.352C1712.65 304.11 1711.77 303.868 1711.09 303.626C1710.43 303.383 1709.86 302.988 1709.38 302.439C1708.89 301.89 1708.65 301.148 1708.65 300.211C1708.65 299.356 1708.88 298.605 1709.35 297.959C1709.84 297.313 1710.52 296.813 1711.41 296.458C1712.3 296.103 1713.34 295.925 1714.53 295.925C1715.44 295.925 1716.32 296.03 1717.17 296.24C1718.03 296.434 1718.76 296.724 1719.38 297.112L1718.34 299.485C1717.24 298.774 1715.94 298.419 1714.44 298.419C1713.52 298.419 1712.83 298.573 1712.38 298.879C1711.93 299.17 1711.7 299.557 1711.7 300.042C1711.7 300.558 1711.95 300.938 1712.45 301.18C1712.97 301.406 1713.77 301.632 1714.85 301.858C1715.91 302.1 1716.78 302.342 1717.44 302.584C1718.1 302.81 1718.67 303.19 1719.16 303.722C1719.64 304.255 1719.88 304.982 1719.88 305.902C1719.88 307.226 1719.35 308.283 1718.29 309.074C1717.24 309.849 1715.79 310.236 1713.95 310.236ZM1728.72 296.143C1730.6 296.143 1732.07 296.587 1733.16 297.475C1734.24 298.347 1734.78 299.565 1734.78 301.131C1734.78 302.697 1734.23 303.924 1733.13 304.812C1732.05 305.7 1730.58 306.144 1728.72 306.144H1725.79V309.994H1722.74V296.143H1728.72ZM1728.51 303.674C1729.56 303.674 1730.35 303.456 1730.88 303.02C1731.43 302.584 1731.7 301.955 1731.7 301.131C1731.7 300.308 1731.43 299.687 1730.88 299.267C1730.35 298.831 1729.56 298.613 1728.51 298.613H1725.79V303.674H1728.51ZM1744.46 310.236C1743.02 310.236 1741.73 309.93 1740.56 309.316C1739.4 308.687 1738.49 307.831 1737.83 306.749C1737.16 305.652 1736.83 304.425 1736.83 303.069C1736.83 301.713 1737.16 300.494 1737.83 299.412C1738.49 298.314 1739.4 297.459 1740.56 296.845C1741.73 296.232 1743.02 295.925 1744.46 295.925C1745.91 295.925 1747.22 296.232 1748.38 296.845C1749.55 297.459 1750.46 298.314 1751.12 299.412C1751.78 300.494 1752.11 301.713 1752.11 303.069C1752.11 304.425 1751.78 305.652 1751.12 306.749C1750.46 307.831 1749.55 308.687 1748.38 309.316C1747.22 309.93 1745.91 310.236 1744.46 310.236ZM1744.46 307.645C1745.33 307.645 1746.12 307.452 1746.81 307.064C1747.5 306.661 1748.05 306.112 1748.43 305.417C1748.82 304.723 1749.01 303.94 1749.01 303.069C1749.01 302.197 1748.82 301.414 1748.43 300.72C1748.05 300.026 1747.5 299.485 1746.81 299.097C1746.12 298.71 1745.33 298.516 1744.46 298.516C1743.61 298.516 1742.83 298.718 1742.14 299.122C1741.44 299.509 1740.89 300.05 1740.49 300.744C1740.1 301.422 1739.91 302.197 1739.91 303.069C1739.91 303.94 1740.1 304.723 1740.49 305.417C1740.89 306.112 1741.44 306.661 1742.14 307.064C1742.83 307.452 1743.61 307.645 1744.46 307.645ZM1759.47 310.236C1758.39 310.236 1757.33 310.091 1756.28 309.8C1755.23 309.51 1754.4 309.13 1753.78 308.662L1754.92 306.289C1755.5 306.725 1756.21 307.072 1757.05 307.33C1757.89 307.589 1758.75 307.718 1759.62 307.718C1760.57 307.718 1761.27 307.581 1761.7 307.306C1762.15 307.016 1762.38 306.636 1762.38 306.168C1762.38 305.652 1762.12 305.272 1761.6 305.03C1761.1 304.788 1760.32 304.562 1759.26 304.352C1758.17 304.11 1757.29 303.868 1756.62 303.626C1755.95 303.383 1755.38 302.988 1754.9 302.439C1754.41 301.89 1754.17 301.148 1754.17 300.211C1754.17 299.356 1754.4 298.605 1754.87 297.959C1755.36 297.313 1756.04 296.813 1756.93 296.458C1757.82 296.103 1758.86 295.925 1760.05 295.925C1760.96 295.925 1761.84 296.03 1762.69 296.24C1763.55 296.434 1764.28 296.724 1764.9 297.112L1763.86 299.485C1762.76 298.774 1761.46 298.419 1759.96 298.419C1759.04 298.419 1758.35 298.573 1757.9 298.879C1757.45 299.17 1757.22 299.557 1757.22 300.042C1757.22 300.558 1757.47 300.938 1757.97 301.18C1758.49 301.406 1759.29 301.632 1760.37 301.858C1761.44 302.1 1762.3 302.342 1762.96 302.584C1763.62 302.81 1764.2 303.19 1764.68 303.722C1765.16 304.255 1765.41 304.982 1765.41 305.902C1765.41 307.226 1764.87 308.283 1763.81 309.074C1762.76 309.849 1761.31 310.236 1759.47 310.236ZM1777.32 306.991H1770.32L1769.01 309.994H1766.04L1772.33 296.143H1775.36L1781.63 309.994H1778.6L1777.32 306.991ZM1776.33 304.667L1773.83 298.904L1771.34 304.667H1776.33ZM1783.61 296.143H1786.66V307.524H1793.78V309.994H1783.61V296.143Z" fill="#163220"/>
<path d="M929.004 220.721H930.686H929.004ZM929.004 190.452H927.323V190.452L929.004 190.452ZM945.247 187.777L946.436 186.588V186.588L945.247 187.777ZM958.165 200.695L959.354 199.506L958.165 200.695ZM894.952 180.783H925.221V177.42H894.952V180.783ZM927.323 182.885V220.721H930.686V182.885H927.323ZM892.85 220.721V182.885H889.486V220.721H892.85ZM898.735 222.823H894.952V226.187H898.735V222.823ZM925.221 222.823H913.87V226.187H925.221V222.823ZM889.486 220.721C889.486 223.74 891.933 226.187 894.952 226.187V222.823C893.791 222.823 892.85 221.882 892.85 220.721H889.486ZM927.323 220.721C927.323 221.882 926.382 222.823 925.221 222.823V226.187C928.239 226.187 930.686 223.74 930.686 220.721H927.323ZM925.221 180.783C926.381 180.783 927.323 181.724 927.323 182.885H930.686C930.686 179.867 928.239 177.42 925.221 177.42V180.783ZM894.952 177.42C891.933 177.42 889.486 179.867 889.486 182.885H892.85C892.85 181.724 893.791 180.783 894.952 180.783V177.42ZM930.686 220.721L930.686 190.452L927.323 190.452L927.323 220.721H930.686ZM932.788 188.35H942.571V184.987H932.788V188.35ZM957.592 203.371V220.721H960.955V203.371H957.592ZM944.058 188.966L956.976 201.884L959.354 199.506L946.436 186.588L944.058 188.966ZM936.571 222.823H932.788V226.187H936.571V222.823ZM955.49 222.823H951.706V226.187H955.49V222.823ZM960.955 203.371C960.955 201.921 960.379 200.531 959.354 199.506L956.976 201.884C957.37 202.278 957.592 202.813 957.592 203.371H960.955ZM942.571 188.35C943.129 188.35 943.664 188.572 944.058 188.966L946.436 186.588C945.411 185.563 944.021 184.987 942.571 184.987V188.35ZM927.323 220.721C927.323 223.74 929.769 226.187 932.788 226.187V222.823C931.627 222.823 930.686 221.882 930.686 220.721H927.323ZM957.592 220.721C957.592 221.882 956.65 222.823 955.49 222.823V226.187C958.508 226.187 960.955 223.74 960.955 220.721H957.592ZM930.686 190.452C930.686 189.292 931.627 188.35 932.788 188.35V184.987C929.769 184.987 927.323 187.434 927.323 190.452H930.686ZM912.188 224.505C912.188 227.756 909.553 230.391 906.302 230.391V233.754C911.41 233.754 915.551 229.613 915.551 224.505H912.188ZM906.302 230.391C903.052 230.391 900.417 227.756 900.417 224.505H897.054C897.054 229.613 901.194 233.754 906.302 233.754V230.391ZM900.417 224.505C900.417 221.254 903.052 218.619 906.302 218.619V215.256C901.194 215.256 897.054 219.397 897.054 224.505H900.417ZM906.302 218.619C909.553 218.619 912.188 221.254 912.188 224.505H915.551C915.551 219.397 911.41 215.256 906.302 215.256V218.619ZM950.024 224.505C950.024 227.756 947.389 230.391 944.139 230.391V233.754C949.247 233.754 953.388 229.613 953.388 224.505H950.024ZM944.139 230.391C940.888 230.391 938.253 227.756 938.253 224.505H934.89C934.89 229.613 939.031 233.754 944.139 233.754V230.391ZM938.253 224.505C938.253 221.254 940.888 218.619 944.139 218.619V215.256C939.031 215.256 934.89 219.397 934.89 224.505H938.253ZM944.139 218.619C947.389 218.619 950.024 221.254 950.024 224.505H953.388C953.388 219.397 949.247 215.256 944.139 215.256V218.619Z" fill="#FDBD00"/>
<path d="M1213.11 186.67V224.506C1213.11 232.864 1226.67 239.64 1243.38 239.64C1260.1 239.64 1273.65 232.864 1273.65 224.506V186.67M1213.11 186.67C1213.11 195.028 1226.67 201.804 1243.38 201.804C1260.1 201.804 1273.65 195.028 1273.65 186.67M1213.11 186.67C1213.11 178.311 1226.67 171.535 1243.38 171.535C1260.1 171.535 1273.65 178.311 1273.65 186.67M1273.65 205.588C1273.65 213.946 1260.1 220.722 1243.38 220.722C1226.67 220.722 1213.11 213.946 1213.11 205.588" stroke="#FDD24C" stroke-width="3.36322"/>
<path d="M224.86 472.877V475.5H213.923V461.374H224.598V463.998H217.172V467.065H223.73V469.608H217.172V472.877H224.86ZM238.438 463.897V475.5H235.815L230.468 469.103V475.5H227.34V463.897H229.963L235.311 470.314V463.897H238.438ZM250.891 473.058V475.5H241.548V463.897H250.669V466.339H244.696V468.457H249.983V470.778H244.696V473.058H250.891ZM258.36 472.392H256.403V475.5H253.214V463.897H258.501C260.102 463.897 261.373 464.28 262.315 465.047C263.257 465.8 263.728 466.843 263.728 468.175C263.728 469.022 263.519 469.762 263.102 470.395C262.699 471.013 262.12 471.498 261.367 471.848L263.95 475.5H260.519L258.36 472.392ZM260.519 468.175C260.519 467.596 260.331 467.152 259.954 466.843C259.578 466.534 259.019 466.379 258.279 466.379H256.403V469.971H258.279C259.019 469.971 259.578 469.816 259.954 469.507C260.331 469.197 260.519 468.753 260.519 468.175ZM273.829 469.547H276.734V474.249C276.102 474.72 275.355 475.083 274.495 475.339C273.634 475.594 272.786 475.722 271.952 475.722C270.674 475.722 269.53 475.466 268.521 474.955C267.526 474.43 266.746 473.711 266.181 472.796C265.629 471.881 265.353 470.852 265.353 469.709C265.353 468.565 265.636 467.536 266.201 466.621C266.766 465.693 267.546 464.973 268.542 464.462C269.551 463.937 270.681 463.675 271.932 463.675C274.165 463.675 275.853 464.368 276.997 465.753L274.898 467.63C274.131 466.729 273.156 466.278 271.972 466.278C270.977 466.278 270.156 466.594 269.51 467.226C268.878 467.859 268.562 468.686 268.562 469.709C268.562 470.717 268.878 471.538 269.51 472.17C270.156 472.803 270.99 473.119 272.012 473.119C272.658 473.119 273.264 472.998 273.829 472.756V469.547ZM285.597 471.646V475.5H282.408V471.646L277.727 463.897H281.097L284.104 468.841L287.09 463.897H290.299L285.597 471.646ZM292.16 471.747C292.725 471.747 293.19 471.928 293.553 472.291C293.916 472.641 294.098 473.105 294.098 473.684C294.098 473.953 294.064 474.222 293.997 474.491C293.929 474.76 293.781 475.164 293.553 475.702L292.403 478.608H290.405L291.293 475.399C290.956 475.265 290.687 475.049 290.486 474.753C290.297 474.444 290.203 474.087 290.203 473.684C290.203 473.105 290.385 472.641 290.748 472.291C291.125 471.928 291.595 471.747 292.16 471.747ZM323.518 461.374L318.896 475.5H315.385L312.278 465.935L309.069 475.5H305.578L300.937 461.374H304.327L307.515 471.303L310.845 461.374H313.872L317.1 471.383L320.39 461.374H323.518ZM332.024 473.2H326.596L325.628 475.5H322.54L327.746 463.897H330.894L336.121 475.5H332.973L332.024 473.2ZM331.056 470.899L329.32 466.702L327.565 470.899H331.056ZM338.968 466.379H335.316V463.897H345.809V466.379H342.157V475.5H338.968V466.379ZM356.793 473.058V475.5H347.45V463.897H356.571V466.339H350.598V468.457H355.885V470.778H350.598V473.058H356.793ZM364.262 472.392H362.305V475.5H359.116V463.897H364.403C366.004 463.897 367.276 464.28 368.217 465.047C369.159 465.8 369.63 466.843 369.63 468.175C369.63 469.022 369.421 469.762 369.004 470.395C368.601 471.013 368.022 471.498 367.269 471.848L369.852 475.5H366.421L364.262 472.392ZM366.421 468.175C366.421 467.596 366.233 467.152 365.856 466.843C365.48 466.534 364.921 466.379 364.181 466.379H362.305V469.971H364.181C364.921 469.971 365.48 469.816 365.856 469.507C366.233 469.197 366.421 468.753 366.421 468.175ZM373.213 471.747C373.778 471.747 374.242 471.928 374.605 472.291C374.968 472.641 375.15 473.105 375.15 473.684C375.15 473.953 375.116 474.222 375.049 474.491C374.982 474.76 374.834 475.164 374.605 475.702L373.455 478.608H371.457L372.345 475.399C372.009 475.265 371.74 475.049 371.538 474.753C371.349 474.444 371.255 474.087 371.255 473.684C371.255 473.105 371.437 472.641 371.8 472.291C372.177 471.928 372.648 471.747 373.213 471.747ZM200.271 482.374C201.523 482.374 202.606 482.583 203.52 483C204.449 483.417 205.162 484.009 205.659 484.776C206.157 485.543 206.406 486.451 206.406 487.5C206.406 488.536 206.157 489.444 205.659 490.224C205.162 490.991 204.449 491.583 203.52 492C202.606 492.404 201.523 492.605 200.271 492.605H197.426V496.5H194.157V482.374H200.271ZM200.09 489.942C201.072 489.942 201.819 489.733 202.33 489.316C202.841 488.886 203.097 488.28 203.097 487.5C203.097 486.706 202.841 486.101 202.33 485.684C201.819 485.253 201.072 485.038 200.09 485.038H197.426V489.942H200.09ZM213.962 493.392H212.004V496.5H208.816V484.897H214.103C215.704 484.897 216.975 485.28 217.917 486.047C218.858 486.8 219.329 487.843 219.329 489.175C219.329 490.022 219.121 490.762 218.704 491.395C218.3 492.013 217.722 492.498 216.968 492.848L219.551 496.5H216.121L213.962 493.392ZM216.121 489.175C216.121 488.596 215.932 488.152 215.556 487.843C215.179 487.534 214.621 487.379 213.881 487.379H212.004V490.971H213.881C214.621 490.971 215.179 490.816 215.556 490.507C215.932 490.197 216.121 489.753 216.121 489.175ZM227.473 496.722C226.235 496.722 225.118 496.466 224.123 495.955C223.141 495.43 222.367 494.711 221.802 493.796C221.237 492.881 220.955 491.852 220.955 490.709C220.955 489.565 221.237 488.536 221.802 487.621C222.367 486.693 223.141 485.973 224.123 485.462C225.118 484.937 226.235 484.675 227.473 484.675C228.71 484.675 229.82 484.937 230.802 485.462C231.798 485.973 232.578 486.693 233.143 487.621C233.708 488.536 233.991 489.565 233.991 490.709C233.991 491.852 233.708 492.881 233.143 493.796C232.578 494.711 231.798 495.43 230.802 495.955C229.82 496.466 228.71 496.722 227.473 496.722ZM227.473 494.119C228.092 494.119 228.65 493.971 229.148 493.675C229.659 493.379 230.056 492.975 230.338 492.464C230.621 491.939 230.762 491.354 230.762 490.709C230.762 490.049 230.621 489.464 230.338 488.953C230.056 488.428 229.659 488.018 229.148 487.722C228.65 487.426 228.092 487.278 227.473 487.278C226.854 487.278 226.289 487.426 225.778 487.722C225.28 488.018 224.883 488.428 224.587 488.953C224.305 489.464 224.163 490.049 224.163 490.709C224.163 491.354 224.305 491.939 224.587 492.464C224.883 492.975 225.28 493.379 225.778 493.675C226.289 493.971 226.854 494.119 227.473 494.119ZM241.877 496.722C240.653 496.722 239.55 496.466 238.568 495.955C237.586 495.43 236.812 494.711 236.247 493.796C235.682 492.881 235.4 491.852 235.4 490.709C235.4 489.565 235.682 488.536 236.247 487.621C236.812 486.693 237.586 485.973 238.568 485.462C239.55 484.937 240.653 484.675 241.877 484.675C242.994 484.675 243.956 484.843 244.763 485.179C245.583 485.516 246.29 486.054 246.882 486.794L244.823 488.67C244.057 487.742 243.115 487.278 241.998 487.278C241.016 487.278 240.202 487.594 239.557 488.226C238.924 488.859 238.608 489.686 238.608 490.709C238.608 491.381 238.749 491.98 239.032 492.504C239.328 493.016 239.731 493.413 240.243 493.695C240.767 493.978 241.353 494.119 241.998 494.119C243.115 494.119 244.057 493.655 244.823 492.726L246.882 494.603C246.303 495.33 245.597 495.868 244.763 496.217C243.942 496.554 242.98 496.722 241.877 496.722ZM258.222 494.058V496.5H248.879V484.897H258V487.339H252.027V489.457H257.314V491.778H252.027V494.058H258.222ZM264.399 496.722C263.458 496.722 262.536 496.608 261.635 496.379C260.747 496.15 260.034 495.848 259.496 495.471L260.606 493.11C261.13 493.46 261.742 493.735 262.442 493.937C263.141 494.139 263.854 494.24 264.581 494.24C265.254 494.24 265.738 494.152 266.034 493.978C266.343 493.789 266.498 493.54 266.498 493.231C266.498 492.881 266.31 492.626 265.933 492.464C265.556 492.289 264.958 492.121 264.137 491.96C263.236 491.771 262.496 491.576 261.917 491.374C261.339 491.159 260.834 490.816 260.404 490.345C259.987 489.874 259.778 489.229 259.778 488.408C259.778 487.682 259.987 487.036 260.404 486.471C260.821 485.906 261.42 485.469 262.2 485.159C262.994 484.836 263.922 484.675 264.985 484.675C265.765 484.675 266.525 484.762 267.265 484.937C268.005 485.099 268.644 485.348 269.182 485.684L268.153 488.045C267.184 487.453 266.088 487.157 264.863 487.157C264.204 487.157 263.713 487.258 263.39 487.46C263.081 487.648 262.926 487.904 262.926 488.226C262.926 488.576 263.115 488.832 263.491 488.993C263.868 489.155 264.467 489.316 265.287 489.478C266.175 489.666 266.908 489.868 267.487 490.083C268.079 490.285 268.583 490.621 269 491.092C269.431 491.549 269.646 492.175 269.646 492.969C269.646 493.709 269.437 494.361 269.02 494.926C268.617 495.491 268.018 495.935 267.224 496.258C266.431 496.567 265.489 496.722 264.399 496.722ZM275.514 496.722C274.572 496.722 273.651 496.608 272.749 496.379C271.861 496.15 271.148 495.848 270.61 495.471L271.72 493.11C272.245 493.46 272.857 493.735 273.556 493.937C274.256 494.139 274.969 494.24 275.695 494.24C276.368 494.24 276.852 494.152 277.148 493.978C277.458 493.789 277.612 493.54 277.612 493.231C277.612 492.881 277.424 492.626 277.047 492.464C276.671 492.289 276.072 492.121 275.251 491.96C274.35 491.771 273.61 491.576 273.032 491.374C272.453 491.159 271.949 490.816 271.518 490.345C271.101 489.874 270.893 489.229 270.893 488.408C270.893 487.682 271.101 487.036 271.518 486.471C271.935 485.906 272.534 485.469 273.314 485.159C274.108 484.836 275.036 484.675 276.099 484.675C276.879 484.675 277.639 484.762 278.379 484.937C279.119 485.099 279.758 485.348 280.296 485.684L279.267 488.045C278.298 487.453 277.202 487.157 275.978 487.157C275.319 487.157 274.828 487.258 274.505 487.46C274.195 487.648 274.041 487.904 274.041 488.226C274.041 488.576 274.229 488.832 274.606 488.993C274.982 489.155 275.581 489.316 276.402 489.478C277.29 489.666 278.023 489.868 278.601 490.083C279.193 490.285 279.698 490.621 280.115 491.092C280.545 491.549 280.76 492.175 280.76 492.969C280.76 493.709 280.552 494.361 280.135 494.926C279.731 495.491 279.133 495.935 278.339 496.258C277.545 496.567 276.603 496.722 275.514 496.722ZM294.119 496.722C292.895 496.722 291.791 496.466 290.809 495.955C289.827 495.43 289.054 494.711 288.489 493.796C287.924 492.881 287.641 491.852 287.641 490.709C287.641 489.565 287.924 488.536 288.489 487.621C289.054 486.693 289.827 485.973 290.809 485.462C291.791 484.937 292.895 484.675 294.119 484.675C295.235 484.675 296.197 484.843 297.004 485.179C297.825 485.516 298.531 486.054 299.123 486.794L297.065 488.67C296.298 487.742 295.356 487.278 294.24 487.278C293.258 487.278 292.444 487.594 291.798 488.226C291.166 488.859 290.85 489.686 290.85 490.709C290.85 491.381 290.991 491.98 291.273 492.504C291.569 493.016 291.973 493.413 292.484 493.695C293.009 493.978 293.594 494.119 294.24 494.119C295.356 494.119 296.298 493.655 297.065 492.726L299.123 494.603C298.545 495.33 297.838 495.868 297.004 496.217C296.184 496.554 295.222 496.722 294.119 496.722ZM301.121 484.897H304.309V489.336H309.031V484.897H312.219V496.5H309.031V491.899H304.309V496.5H301.121V484.897ZM324.672 494.058V496.5H315.329V484.897H324.45V487.339H318.477V489.457H323.764V491.778H318.477V494.058H324.672ZM337.609 496.5L337.589 490.164L334.482 495.269H333.049L329.961 490.365V496.5H326.995V484.897H329.659L333.816 491.637L337.872 484.897H340.555L340.596 496.5H337.609ZM343.686 484.897H346.875V496.5H343.686V484.897ZM355.583 496.722C354.359 496.722 353.256 496.466 352.274 495.955C351.291 495.43 350.518 494.711 349.953 493.796C349.388 492.881 349.105 491.852 349.105 490.709C349.105 489.565 349.388 488.536 349.953 487.621C350.518 486.693 351.291 485.973 352.274 485.462C353.256 484.937 354.359 484.675 355.583 484.675C356.7 484.675 357.661 484.843 358.469 485.179C359.289 485.516 359.995 486.054 360.587 486.794L358.529 488.67C357.762 487.742 356.821 487.278 355.704 487.278C354.722 487.278 353.908 487.594 353.262 488.226C352.63 488.859 352.314 489.686 352.314 490.709C352.314 491.381 352.455 491.98 352.738 492.504C353.034 493.016 353.437 493.413 353.948 493.695C354.473 493.978 355.058 494.119 355.704 494.119C356.821 494.119 357.762 493.655 358.529 492.726L360.587 494.603C360.009 495.33 359.303 495.868 358.469 496.217C357.648 496.554 356.686 496.722 355.583 496.722ZM370.058 494.2H364.629L363.661 496.5H360.573L365.78 484.897H368.928L374.154 496.5H371.006L370.058 494.2ZM369.089 491.899L367.354 487.702L365.598 491.899H369.089ZM375.532 484.897H378.72V494.018H384.39V496.5H375.532V484.897ZM389.89 496.722C388.948 496.722 388.026 496.608 387.125 496.379C386.237 496.15 385.524 495.848 384.986 495.471L386.096 493.11C386.62 493.46 387.233 493.735 387.932 493.937C388.632 494.139 389.345 494.24 390.071 494.24C390.744 494.24 391.228 494.152 391.524 493.978C391.833 493.789 391.988 493.54 391.988 493.231C391.988 492.881 391.8 492.626 391.423 492.464C391.046 492.289 390.448 492.121 389.627 491.96C388.726 491.771 387.986 491.576 387.407 491.374C386.829 491.159 386.324 490.816 385.894 490.345C385.477 489.874 385.268 489.229 385.268 488.408C385.268 487.682 385.477 487.036 385.894 486.471C386.311 485.906 386.91 485.469 387.69 485.159C388.484 484.836 389.412 484.675 390.475 484.675C391.255 484.675 392.015 484.762 392.755 484.937C393.495 485.099 394.134 485.348 394.672 485.684L393.643 488.045C392.674 487.453 391.578 487.157 390.354 487.157C389.694 487.157 389.203 487.258 388.881 487.46C388.571 487.648 388.416 487.904 388.416 488.226C388.416 488.576 388.605 488.832 388.981 488.993C389.358 489.155 389.957 489.316 390.777 489.478C391.665 489.666 392.398 489.868 392.977 490.083C393.569 490.285 394.073 490.621 394.49 491.092C394.921 491.549 395.136 492.175 395.136 492.969C395.136 493.709 394.928 494.361 394.511 494.926C394.107 495.491 393.508 495.935 392.715 496.258C391.921 496.567 390.979 496.722 389.89 496.722Z" fill="#FAFBFF"/>
<path d="M761.107 472.877V475.5H750.17V461.374H760.845V463.998H753.419V467.065H759.977V469.608H753.419V472.877H761.107ZM774.201 475.5L774.181 469.164L771.074 474.269H769.641L766.553 469.365V475.5H763.587V463.897H766.251L770.408 470.637L774.464 463.897H777.148L777.188 475.5H774.201ZM780.278 463.897H783.467V475.5H780.278V463.897ZM790.399 475.722C789.457 475.722 788.536 475.608 787.635 475.379C786.747 475.15 786.034 474.848 785.496 474.471L786.605 472.11C787.13 472.46 787.742 472.735 788.442 472.937C789.141 473.139 789.854 473.24 790.581 473.24C791.253 473.24 791.738 473.152 792.034 472.978C792.343 472.789 792.498 472.54 792.498 472.231C792.498 471.881 792.309 471.626 791.933 471.464C791.556 471.289 790.957 471.121 790.137 470.96C789.235 470.771 788.496 470.576 787.917 470.374C787.339 470.159 786.834 469.816 786.404 469.345C785.987 468.874 785.778 468.229 785.778 467.408C785.778 466.682 785.987 466.036 786.404 465.471C786.821 464.906 787.419 464.469 788.2 464.159C788.993 463.836 789.922 463.675 790.984 463.675C791.765 463.675 792.525 463.762 793.265 463.937C794.005 464.099 794.644 464.348 795.182 464.684L794.153 467.045C793.184 466.453 792.088 466.157 790.863 466.157C790.204 466.157 789.713 466.258 789.39 466.46C789.081 466.648 788.926 466.904 788.926 467.226C788.926 467.576 789.114 467.832 789.491 467.993C789.868 468.155 790.466 468.316 791.287 468.478C792.175 468.666 792.908 468.868 793.487 469.083C794.079 469.285 794.583 469.621 795 470.092C795.431 470.549 795.646 471.175 795.646 471.969C795.646 472.709 795.437 473.361 795.02 473.926C794.617 474.491 794.018 474.935 793.224 475.258C792.431 475.567 791.489 475.722 790.399 475.722ZM801.514 475.722C800.572 475.722 799.65 475.608 798.749 475.379C797.861 475.15 797.148 474.848 796.61 474.471L797.72 472.11C798.245 472.46 798.857 472.735 799.556 472.937C800.256 473.139 800.969 473.24 801.695 473.24C802.368 473.24 802.852 473.152 803.148 472.978C803.458 472.789 803.612 472.54 803.612 472.231C803.612 471.881 803.424 471.626 803.047 471.464C802.671 471.289 802.072 471.121 801.251 470.96C800.35 470.771 799.61 470.576 799.032 470.374C798.453 470.159 797.949 469.816 797.518 469.345C797.101 468.874 796.893 468.229 796.893 467.408C796.893 466.682 797.101 466.036 797.518 465.471C797.935 464.906 798.534 464.469 799.314 464.159C800.108 463.836 801.036 463.675 802.099 463.675C802.879 463.675 803.639 463.762 804.379 463.937C805.119 464.099 805.758 464.348 806.296 464.684L805.267 467.045C804.298 466.453 803.202 466.157 801.978 466.157C801.318 466.157 800.827 466.258 800.505 466.46C800.195 466.648 800.04 466.904 800.04 467.226C800.04 467.576 800.229 467.832 800.605 467.993C800.982 468.155 801.581 468.316 802.401 468.478C803.289 468.666 804.023 468.868 804.601 469.083C805.193 469.285 805.697 469.621 806.114 470.092C806.545 470.549 806.76 471.175 806.76 471.969C806.76 472.709 806.552 473.361 806.135 473.926C805.731 474.491 805.132 474.935 804.339 475.258C803.545 475.567 802.603 475.722 801.514 475.722ZM808.774 463.897H811.962V475.5H808.774V463.897ZM820.711 475.722C819.473 475.722 818.356 475.466 817.361 474.955C816.379 474.43 815.605 473.711 815.04 472.796C814.475 471.881 814.193 470.852 814.193 469.709C814.193 468.565 814.475 467.536 815.04 466.621C815.605 465.693 816.379 464.973 817.361 464.462C818.356 463.937 819.473 463.675 820.711 463.675C821.948 463.675 823.058 463.937 824.04 464.462C825.036 464.973 825.816 465.693 826.381 466.621C826.946 467.536 827.229 468.565 827.229 469.709C827.229 470.852 826.946 471.881 826.381 472.796C825.816 473.711 825.036 474.43 824.04 474.955C823.058 475.466 821.948 475.722 820.711 475.722ZM820.711 473.119C821.33 473.119 821.888 472.971 822.386 472.675C822.897 472.379 823.294 471.975 823.576 471.464C823.859 470.939 824 470.354 824 469.709C824 469.049 823.859 468.464 823.576 467.953C823.294 467.428 822.897 467.018 822.386 466.722C821.888 466.426 821.33 466.278 820.711 466.278C820.092 466.278 819.527 466.426 819.016 466.722C818.518 467.018 818.121 467.428 817.825 467.953C817.543 468.464 817.401 469.049 817.401 469.709C817.401 470.354 817.543 470.939 817.825 471.464C818.121 471.975 818.518 472.379 819.016 472.675C819.527 472.971 820.092 473.119 820.711 473.119ZM840.584 463.897V475.5H837.96L832.613 469.103V475.5H829.485V463.897H832.108L837.456 470.314V463.897H840.584ZM847.548 475.722C846.606 475.722 845.684 475.608 844.783 475.379C843.895 475.15 843.182 474.848 842.644 474.471L843.754 472.11C844.279 472.46 844.891 472.735 845.59 472.937C846.29 473.139 847.003 473.24 847.729 473.24C848.402 473.24 848.886 473.152 849.182 472.978C849.492 472.789 849.646 472.54 849.646 472.231C849.646 471.881 849.458 471.626 849.081 471.464C848.705 471.289 848.106 471.121 847.285 470.96C846.384 470.771 845.644 470.576 845.066 470.374C844.487 470.159 843.983 469.816 843.552 469.345C843.135 468.874 842.927 468.229 842.927 467.408C842.927 466.682 843.135 466.036 843.552 465.471C843.969 464.906 844.568 464.469 845.348 464.159C846.142 463.836 847.07 463.675 848.133 463.675C848.913 463.675 849.673 463.762 850.413 463.937C851.153 464.099 851.792 464.348 852.33 464.684L851.301 467.045C850.332 466.453 849.236 466.157 848.012 466.157C847.353 466.157 846.862 466.258 846.539 466.46C846.229 466.648 846.075 466.904 846.075 467.226C846.075 467.576 846.263 467.832 846.64 467.993C847.016 468.155 847.615 468.316 848.436 468.478C849.323 468.666 850.057 468.868 850.635 469.083C851.227 469.285 851.732 469.621 852.149 470.092C852.579 470.549 852.794 471.175 852.794 471.969C852.794 472.709 852.586 473.361 852.169 473.926C851.765 474.491 851.166 474.935 850.373 475.258C849.579 475.567 848.637 475.722 847.548 475.722ZM868.272 473.2H862.843L861.875 475.5H858.787L863.993 463.897H867.141L872.368 475.5H869.22L868.272 473.2ZM867.303 470.899L865.567 466.702L863.812 470.899H867.303ZM884.844 463.897V475.5H882.221L876.873 469.103V475.5H873.746V463.897H876.369L881.716 470.314V463.897H884.844ZM887.954 463.897H893.423C894.741 463.897 895.898 464.132 896.893 464.603C897.889 465.074 898.656 465.747 899.194 466.621C899.745 467.496 900.021 468.525 900.021 469.709C900.021 470.879 899.745 471.901 899.194 472.776C898.656 473.65 897.889 474.323 896.893 474.794C895.898 475.265 894.741 475.5 893.423 475.5H887.954V463.897ZM893.322 472.998C894.398 472.998 895.245 472.715 895.864 472.15C896.483 471.572 896.792 470.758 896.792 469.709C896.792 468.659 896.483 467.845 895.864 467.267C895.245 466.688 894.398 466.399 893.322 466.399H891.142V472.998H893.322ZM929.466 461.374L924.845 475.5H921.334L918.226 465.935L915.018 475.5H911.527L906.885 461.374H910.276L913.464 471.303L916.793 461.374H919.82L923.049 471.383L926.338 461.374H929.466ZM937.973 473.2H932.545L931.576 475.5H928.489L933.695 463.897H936.843L942.069 475.5H938.921L937.973 473.2ZM937.004 470.899L935.269 466.702L933.513 470.899H937.004ZM947.301 475.722C946.36 475.722 945.438 475.608 944.537 475.379C943.649 475.15 942.936 474.848 942.398 474.471L943.508 472.11C944.032 472.46 944.644 472.735 945.344 472.937C946.043 473.139 946.756 473.24 947.483 473.24C948.156 473.24 948.64 473.152 948.936 472.978C949.245 472.789 949.4 472.54 949.4 472.231C949.4 471.881 949.212 471.626 948.835 471.464C948.458 471.289 947.86 471.121 947.039 470.96C946.138 470.771 945.398 470.576 944.819 470.374C944.241 470.159 943.736 469.816 943.306 469.345C942.889 468.874 942.68 468.229 942.68 467.408C942.68 466.682 942.889 466.036 943.306 465.471C943.723 464.906 944.321 464.469 945.102 464.159C945.895 463.836 946.824 463.675 947.887 463.675C948.667 463.675 949.427 463.762 950.167 463.937C950.907 464.099 951.546 464.348 952.084 464.684L951.055 467.045C950.086 466.453 948.99 466.157 947.765 466.157C947.106 466.157 946.615 466.258 946.292 466.46C945.983 466.648 945.828 466.904 945.828 467.226C945.828 467.576 946.017 467.832 946.393 467.993C946.77 468.155 947.369 468.316 948.189 468.478C949.077 468.666 949.81 468.868 950.389 469.083C950.981 469.285 951.485 469.621 951.902 470.092C952.333 470.549 952.548 471.175 952.548 471.969C952.548 472.709 952.339 473.361 951.922 473.926C951.519 474.491 950.92 474.935 950.126 475.258C949.333 475.567 948.391 475.722 947.301 475.722ZM956.544 466.379H952.891V463.897H963.385V466.379H959.732V475.5H956.544V466.379ZM974.369 473.058V475.5H965.026V463.897H974.147V466.339H968.173V468.457H973.46V470.778H968.173V473.058H974.369Z" fill="#FAFBFF"/>
<path d="M506.129 657.855V660.479H495.191V646.353H505.866V648.976H498.44V652.044H504.999V654.586H498.44V657.855H506.129ZM519.707 648.875V660.479H517.084L511.736 654.082V660.479H508.609V648.875H511.232L516.58 655.292V648.875H519.707ZM534.42 648.875L529.375 660.479H526.227L521.182 648.875H524.573L527.882 656.766L531.272 648.875H534.42ZM535.902 648.875H539.09V660.479H535.902V648.875ZM547.314 657.371H545.357V660.479H542.169V648.875H547.456C549.056 648.875 550.328 649.259 551.269 650.026C552.211 650.779 552.682 651.822 552.682 653.153C552.682 654.001 552.474 654.741 552.056 655.373C551.653 655.992 551.074 656.476 550.321 656.826L552.904 660.479H549.474L547.314 657.371ZM549.474 653.153C549.474 652.575 549.285 652.131 548.909 651.822C548.532 651.512 547.974 651.357 547.234 651.357H545.357V654.949H547.234C547.974 654.949 548.532 654.795 548.909 654.485C549.285 654.176 549.474 653.732 549.474 653.153ZM560.826 660.7C559.588 660.7 558.471 660.445 557.476 659.934C556.494 659.409 555.72 658.689 555.155 657.774C554.59 656.86 554.308 655.831 554.308 654.687C554.308 653.544 554.59 652.514 555.155 651.6C555.72 650.671 556.494 649.952 557.476 649.44C558.471 648.916 559.588 648.653 560.826 648.653C562.063 648.653 563.173 648.916 564.155 649.44C565.151 649.952 565.931 650.671 566.496 651.6C567.061 652.514 567.343 653.544 567.343 654.687C567.343 655.831 567.061 656.86 566.496 657.774C565.931 658.689 565.151 659.409 564.155 659.934C563.173 660.445 562.063 660.7 560.826 660.7ZM560.826 658.097C561.444 658.097 562.003 657.949 562.5 657.653C563.012 657.357 563.408 656.954 563.691 656.443C563.973 655.918 564.115 655.333 564.115 654.687C564.115 654.028 563.973 653.443 563.691 652.931C563.408 652.407 563.012 651.996 562.5 651.701C562.003 651.405 561.444 651.257 560.826 651.257C560.207 651.257 559.642 651.405 559.13 651.701C558.633 651.996 558.236 652.407 557.94 652.931C557.657 653.443 557.516 654.028 557.516 654.687C557.516 655.333 557.657 655.918 557.94 656.443C558.236 656.954 558.633 657.357 559.13 657.653C559.642 657.949 560.207 658.097 560.826 658.097ZM580.699 648.875V660.479H578.075L572.728 654.082V660.479H569.6V648.875H572.223L577.571 655.292V648.875H580.699ZM594.423 660.479L594.402 654.142L591.295 659.248H589.862L586.775 654.344V660.479H583.808V648.875H586.472L590.629 655.615L594.685 648.875H597.369L597.409 660.479H594.423ZM609.843 658.037V660.479H600.499V648.875H609.621V651.317H603.647V653.436H608.934V655.757H603.647V658.037H609.843ZM623.264 648.875V660.479H620.641L615.293 654.082V660.479H612.166V648.875H614.789L620.136 655.292V648.875H623.264ZM628.553 651.357H624.901V648.875H635.394V651.357H631.742V660.479H628.553V651.357ZM644.075 658.178H638.646L637.678 660.479H634.59L639.797 648.875H642.944L648.171 660.479H645.023L644.075 658.178ZM643.106 655.878L641.371 651.68L639.615 655.878H643.106ZM649.549 648.875H652.737V657.996H658.407V660.479H649.549V648.875ZM536.378 667.353H539.647V681.479H536.378V667.353ZM553.492 681.479L553.472 675.142L550.365 680.248H548.932L545.844 675.344V681.479H542.878V669.875H545.542L549.699 676.615L553.755 669.875H556.439L556.479 681.479H553.492ZM564.856 669.875C566.457 669.875 567.729 670.259 568.67 671.026C569.612 671.779 570.083 672.822 570.083 674.153C570.083 675.472 569.612 676.514 568.67 677.281C567.729 678.035 566.457 678.411 564.856 678.411H562.758V681.479H559.569V669.875H564.856ZM564.634 675.949C565.374 675.949 565.933 675.795 566.309 675.485C566.686 675.176 566.874 674.732 566.874 674.153C566.874 673.575 566.686 673.131 566.309 672.822C565.933 672.512 565.374 672.357 564.634 672.357H562.758V675.949H564.634ZM579.26 679.178H573.832L572.863 681.479H569.776L574.982 669.875H578.13L583.357 681.479H580.209L579.26 679.178ZM578.292 676.878L576.556 672.68L574.801 676.878H578.292ZM590.167 681.7C588.943 681.7 587.84 681.445 586.858 680.934C585.876 680.409 585.102 679.689 584.537 678.774C583.972 677.86 583.69 676.831 583.69 675.687C583.69 674.544 583.972 673.514 584.537 672.6C585.102 671.671 585.876 670.952 586.858 670.44C587.84 669.916 588.943 669.653 590.167 669.653C591.284 669.653 592.246 669.822 593.053 670.158C593.874 670.494 594.58 671.032 595.172 671.772L593.114 673.649C592.347 672.721 591.405 672.257 590.288 672.257C589.306 672.257 588.492 672.573 587.847 673.205C587.214 673.837 586.898 674.665 586.898 675.687C586.898 676.36 587.04 676.958 587.322 677.483C587.618 677.994 588.022 678.391 588.533 678.674C589.057 678.956 589.643 679.097 590.288 679.097C591.405 679.097 592.347 678.633 593.114 677.705L595.172 679.582C594.593 680.308 593.887 680.846 593.053 681.196C592.232 681.532 591.27 681.7 590.167 681.7ZM599.348 672.357H595.696V669.875H606.189V672.357H602.537V681.479H599.348V672.357ZM611.685 681.7C610.743 681.7 609.821 681.586 608.92 681.357C608.032 681.129 607.319 680.826 606.781 680.449L607.891 678.088C608.415 678.438 609.028 678.714 609.727 678.916C610.427 679.118 611.14 679.218 611.866 679.218C612.539 679.218 613.023 679.131 613.319 678.956C613.628 678.768 613.783 678.519 613.783 678.209C613.783 677.86 613.595 677.604 613.218 677.443C612.841 677.268 612.243 677.1 611.422 676.938C610.521 676.75 609.781 676.555 609.202 676.353C608.624 676.138 608.12 675.795 607.689 675.324C607.272 674.853 607.063 674.207 607.063 673.387C607.063 672.66 607.272 672.014 607.689 671.449C608.106 670.884 608.705 670.447 609.485 670.138C610.279 669.815 611.207 669.653 612.27 669.653C613.05 669.653 613.81 669.741 614.55 669.916C615.29 670.077 615.929 670.326 616.467 670.662L615.438 673.023C614.469 672.431 613.373 672.135 612.149 672.135C611.489 672.135 610.998 672.236 610.676 672.438C610.366 672.627 610.211 672.882 610.211 673.205C610.211 673.555 610.4 673.81 610.776 673.972C611.153 674.133 611.752 674.295 612.572 674.456C613.46 674.644 614.193 674.846 614.772 675.061C615.364 675.263 615.868 675.6 616.285 676.07C616.716 676.528 616.931 677.153 616.931 677.947C616.931 678.687 616.723 679.34 616.306 679.905C615.902 680.47 615.303 680.913 614.51 681.236C613.716 681.546 612.774 681.7 611.685 681.7Z" fill="#FAFBFF"/>
<path d="M1031.37 62L1027.9 57.0359C1027.76 57.052 1027.54 57.0601 1027.25 57.0601H1023.42V62H1020.28V45.0494H1027.25C1028.72 45.0494 1029.99 45.2915 1031.08 45.7758C1032.17 46.2601 1033.01 46.9543 1033.59 47.8583C1034.18 48.7624 1034.47 49.8359 1034.47 51.0789C1034.47 52.3543 1034.15 53.452 1033.52 54.3722C1032.91 55.2924 1032.02 55.9785 1030.86 56.4305L1034.76 62H1031.37ZM1031.29 51.0789C1031.29 49.9973 1030.94 49.1659 1030.23 48.5848C1029.52 48.0036 1028.48 47.713 1027.1 47.713H1023.42V54.4691H1027.1C1028.48 54.4691 1029.52 54.1785 1030.23 53.5973C1030.94 53 1031.29 52.1606 1031.29 51.0789ZM1048.57 59.5543V62H1037.82V48.1489H1048.3V50.6189H1040.87V53.7911H1047.48V56.1641H1040.87V59.5543H1048.57ZM1058.12 62.2422C1056.68 62.2422 1055.38 61.9354 1054.22 61.322C1053.07 60.6924 1052.17 59.8368 1051.51 58.7552C1050.85 57.6574 1050.51 56.4305 1050.51 55.0745C1050.51 53.7184 1050.85 52.4996 1051.51 51.418C1052.17 50.3364 1053.07 49.4888 1054.22 48.8754C1055.38 48.2458 1056.68 47.931 1058.12 47.931C1060.64 47.931 1062.54 48.7139 1063.83 50.2798L1061.85 52.1686C1060.86 51.0709 1059.65 50.522 1058.21 50.522C1057.33 50.522 1056.53 50.7157 1055.82 51.1032C1055.12 51.4906 1054.57 52.0314 1054.17 52.7256C1053.78 53.4198 1053.59 54.2027 1053.59 55.0745C1053.59 55.9623 1053.78 56.7534 1054.17 57.4475C1054.57 58.1417 1055.12 58.6825 1055.82 59.07C1056.53 59.4574 1057.33 59.6511 1058.21 59.6511C1059.67 59.6511 1060.88 59.0942 1061.85 57.9803L1063.83 59.8933C1062.51 61.4592 1060.6 62.2422 1058.12 62.2422ZM1072.85 57.4475V62H1069.78V57.3991L1064.16 48.1489H1067.4L1071.4 54.6628L1075.39 48.1489H1078.49L1072.85 57.4475ZM1086.24 62.2422C1084.8 62.2422 1083.5 61.9354 1082.34 61.322C1081.19 60.6924 1080.29 59.8368 1079.62 58.7552C1078.96 57.6574 1078.63 56.4305 1078.63 55.0745C1078.63 53.7184 1078.96 52.4996 1079.62 51.418C1080.29 50.3364 1081.19 49.4888 1082.34 48.8754C1083.5 48.2458 1084.8 47.931 1086.24 47.931C1088.75 47.931 1090.66 48.7139 1091.95 50.2798L1089.96 52.1686C1088.98 51.0709 1087.77 50.522 1086.33 50.522C1085.44 50.522 1084.65 50.7157 1083.93 51.1032C1083.24 51.4906 1082.69 52.0314 1082.29 52.7256C1081.9 53.4198 1081.71 54.2027 1081.71 55.0745C1081.71 55.9623 1081.9 56.7534 1082.29 57.4475C1082.69 58.1417 1083.24 58.6825 1083.93 59.07C1084.65 59.4574 1085.44 59.6511 1086.33 59.6511C1087.78 59.6511 1089 59.0942 1089.96 57.9803L1091.95 59.8933C1090.63 61.4592 1088.72 62.2422 1086.24 62.2422ZM1094.72 48.1489H1097.77V59.5301H1104.89V62H1094.72V48.1489ZM1107.18 48.1489H1110.23V62H1107.18V48.1489ZM1127.2 48.1489V62H1124.68L1117.49 53.2825V62H1114.44V48.1489H1116.98L1124.17 56.8906V48.1489H1127.2ZM1140.64 54.9534H1143.52V60.4744C1142.81 61.0233 1141.97 61.4592 1140.98 61.7821C1140.01 62.0888 1139.02 62.2422 1138 62.2422C1136.52 62.2422 1135.19 61.9354 1134.01 61.322C1132.84 60.6924 1131.93 59.8368 1131.27 58.7552C1130.61 57.6574 1130.28 56.4305 1130.28 55.0745C1130.28 53.7184 1130.61 52.4996 1131.27 51.418C1131.93 50.3202 1132.84 49.4646 1134.01 48.8512C1135.17 48.2377 1136.48 47.931 1137.93 47.931C1140.51 47.931 1142.45 48.7059 1143.74 50.2556L1141.76 52.1686C1140.77 51.0709 1139.51 50.522 1137.98 50.522C1137.09 50.522 1136.29 50.7157 1135.58 51.1032C1134.89 51.4906 1134.34 52.0314 1133.93 52.7256C1133.55 53.4198 1133.35 54.2027 1133.35 55.0745C1133.35 55.9462 1133.56 56.7372 1133.96 57.4475C1134.36 58.1417 1134.92 58.6825 1135.63 59.07C1136.34 59.4574 1137.16 59.6511 1138.08 59.6511C1139.01 59.6511 1139.87 59.4574 1140.64 59.07V54.9534Z" fill="#163220"/>
<path d="M278.084 191.86H282.827L293.896 182.373L303.383 191.86H309.708L312.87 207.672H320.776L327.101 236.134H328.682V237.715H259.109V236.134H260.691L267.015 207.672H274.921L278.084 191.86Z" stroke="#FD8B00" stroke-width="6.3248"/>
<path d="M290.391 222.661L292.145 225.292H292.145L290.391 222.661ZM297.407 222.661L299.162 220.03V220.03L297.407 222.661ZM297.061 227.924V234.553H303.386V227.924H297.061ZM290.737 234.553V227.924H284.412V234.553H290.737ZM290.737 227.924C290.737 226.866 291.265 225.879 292.145 225.292L288.636 220.03C285.997 221.789 284.412 224.752 284.412 227.924H290.737ZM299.162 220.03C295.975 217.905 291.823 217.905 288.636 220.03L292.145 225.292C293.207 224.584 294.591 224.584 295.653 225.292L299.162 220.03ZM303.386 227.924C303.386 224.752 301.801 221.789 299.162 220.03L295.653 225.292C296.533 225.879 297.061 226.866 297.061 227.924H303.386Z" fill="#FD8B00"/>
<path d="M591.542 203.879V208.908L595.454 205.749L607.937 195.672C608.103 195.576 608.242 195.507 608.358 195.458V203.879V208.908L612.271 205.749L624.753 195.672C624.919 195.576 625.059 195.507 625.174 195.458V203.879V208.908L629.087 205.749L641.553 195.686C641.721 195.592 641.867 195.522 641.99 195.47V235.015C641.99 235.563 641.827 235.934 641.469 236.282C641.075 236.666 640.688 236.816 640.189 236.816H581.333C580.786 236.816 580.414 236.653 580.066 236.295C579.683 235.902 579.532 235.514 579.532 235.015V176.159C579.532 175.612 579.695 175.241 580.053 174.892C580.447 174.509 580.834 174.358 581.333 174.358H589.741C590.24 174.358 590.627 174.509 591.021 174.892C591.379 175.241 591.542 175.612 591.542 176.159V203.879ZM608.819 195.339C608.819 195.339 608.817 195.339 608.813 195.338C608.817 195.339 608.819 195.339 608.819 195.339ZM608.349 194.868C608.348 194.866 608.348 194.865 608.348 194.865C608.348 194.865 608.348 194.866 608.349 194.868ZM625.635 195.339C625.635 195.339 625.633 195.339 625.629 195.338C625.633 195.339 625.635 195.339 625.635 195.339ZM625.165 194.868C625.164 194.866 625.164 194.865 625.164 194.865C625.164 194.865 625.165 194.866 625.165 194.868ZM642.482 195.337C642.482 195.337 642.48 195.337 642.477 195.336C642.481 195.337 642.482 195.337 642.482 195.337Z" stroke="#FD9C00" stroke-width="4.80604"/>
<path d="M1592.45 221.803L1589.39 216.284L1582.8 219.948L1585.86 225.456C1586.04 225.776 1586.17 226.108 1586.25 226.451C1586.39 227.074 1586.37 227.721 1586.2 228.336C1586.11 228.647 1585.97 228.945 1585.8 229.222C1585.49 229.766 1585.04 230.223 1584.5 230.548C1583.91 230.896 1583.24 231.074 1582.56 231.065H1565.22V223.526L1550.14 234.834L1565.22 246.143V238.604H1582.56C1583.61 238.604 1584.64 238.465 1585.62 238.193C1587.51 237.673 1589.22 236.664 1590.59 235.268C1591.26 234.593 1591.84 233.836 1592.31 233.033C1593.8 230.518 1594.25 227.525 1593.58 224.683C1593.33 223.678 1592.95 222.71 1592.45 221.803ZM1534.54 204.825L1525.83 222.24C1525.38 223.142 1525.05 224.099 1524.85 225.086C1524.48 226.936 1524.58 228.848 1525.14 230.649C1525.7 232.45 1526.71 234.082 1528.06 235.396C1528.73 236.052 1529.48 236.625 1530.3 237.104C1532.02 238.087 1533.97 238.604 1535.95 238.604H1542.6V231.065H1535.95C1535.29 231.067 1534.64 230.898 1534.07 230.575C1533.52 230.259 1533.06 229.805 1532.74 229.259C1532.41 228.727 1532.21 228.121 1532.17 227.495C1532.16 227.186 1532.18 226.875 1532.24 226.572C1532.31 226.244 1532.42 225.919 1532.58 225.606L1541.08 208.598L1547.11 212.077L1544.86 193.369L1527.52 200.772L1534.54 204.825ZM1582.55 212.081L1584.81 193.369L1578.63 196.931L1567.91 177.642C1567.17 176.27 1566.14 175.071 1564.89 174.123C1563.65 173.176 1562.22 172.501 1560.7 172.142C1559.75 171.921 1558.77 171.816 1557.79 171.829C1555.8 171.867 1553.85 172.43 1552.15 173.461C1550.33 174.567 1548.86 176.169 1547.92 178.079L1545.16 183.598L1551.9 186.972L1554.66 181.449C1554.83 181.11 1555.04 180.805 1555.29 180.537C1555.74 180.047 1556.31 179.694 1556.96 179.519C1557.61 179.335 1558.3 179.321 1558.95 179.478C1559.46 179.596 1559.93 179.82 1560.34 180.135C1560.75 180.451 1561.09 180.85 1561.33 181.306L1572.1 200.704L1565.22 204.678L1582.55 212.081Z" fill="#FEEBB2"/>
<g filter="url(#filter0_ddd_6520_89158)">
<rect x="192.711" y="379.465" width="189.686" height="63.2285" rx="12.6457" fill="#FFF7E0"/>
</g>
<path d="M239.492 400.601H244.408V421.846H239.492V400.601ZM259.041 405.275C261.064 405.275 262.693 405.882 263.927 407.096C265.181 408.31 265.809 410.11 265.809 412.498V421.846H261.074V413.226C261.074 411.931 260.791 410.97 260.224 410.343C259.658 409.696 258.838 409.372 257.766 409.372C256.572 409.372 255.621 409.746 254.913 410.495C254.205 411.223 253.851 412.316 253.851 413.773V421.846H249.116V405.518H253.638V407.43C254.266 406.742 255.045 406.216 255.975 405.851C256.906 405.467 257.928 405.275 259.041 405.275ZM279.752 405.275C281.269 405.275 282.645 405.629 283.879 406.337C285.134 407.025 286.115 408.006 286.823 409.281C287.531 410.535 287.885 412.002 287.885 413.682C287.885 415.361 287.531 416.838 286.823 418.113C286.115 419.367 285.134 420.348 283.879 421.057C282.645 421.745 281.269 422.089 279.752 422.089C277.667 422.089 276.029 421.431 274.835 420.116V427.734H270.1V405.518H274.622V407.399C275.796 405.983 277.506 405.275 279.752 405.275ZM278.932 418.204C280.146 418.204 281.137 417.799 281.906 416.99C282.695 416.16 283.09 415.057 283.09 413.682C283.09 412.306 282.695 411.213 281.906 410.404C281.137 409.574 280.146 409.16 278.932 409.16C277.718 409.16 276.717 409.574 275.927 410.404C275.159 411.213 274.774 412.306 274.774 413.682C274.774 415.057 275.159 416.16 275.927 416.99C276.717 417.799 277.718 418.204 278.932 418.204ZM307.504 405.518V421.846H303.012V419.903C302.385 420.611 301.637 421.158 300.767 421.542C299.897 421.906 298.956 422.089 297.944 422.089C295.799 422.089 294.1 421.471 292.845 420.237C291.591 419.003 290.964 417.172 290.964 414.744V405.518H295.698V414.046C295.698 416.676 296.801 417.991 299.006 417.991C300.139 417.991 301.05 417.627 301.738 416.899C302.426 416.15 302.77 415.047 302.77 413.591V405.518H307.504ZM322.422 421.057C321.956 421.401 321.38 421.664 320.692 421.846C320.024 422.008 319.316 422.089 318.567 422.089C316.625 422.089 315.118 421.593 314.045 420.601C312.993 419.61 312.467 418.153 312.467 416.231V409.524H309.948V405.882H312.467V401.906H317.202V405.882H321.268V409.524H317.202V416.17C317.202 416.858 317.374 417.394 317.718 417.779C318.082 418.143 318.588 418.325 319.235 418.325C319.984 418.325 320.621 418.123 321.147 417.718L322.422 421.057ZM330.573 422.089C329.217 422.089 327.892 421.927 326.597 421.603C325.302 421.259 324.27 420.834 323.501 420.328L325.08 416.929C325.808 417.394 326.688 417.779 327.72 418.082C328.752 418.366 329.763 418.507 330.755 418.507C332.758 418.507 333.76 418.012 333.76 417.02C333.76 416.555 333.486 416.221 332.94 416.019C332.394 415.816 331.554 415.644 330.421 415.503C329.086 415.3 327.983 415.068 327.113 414.805C326.243 414.542 325.484 414.076 324.837 413.408C324.209 412.741 323.896 411.79 323.896 410.556C323.896 409.524 324.189 408.613 324.776 407.824C325.383 407.015 326.253 406.388 327.386 405.942C328.539 405.497 329.895 405.275 331.453 405.275C332.606 405.275 333.749 405.406 334.882 405.669C336.036 405.912 336.987 406.256 337.735 406.701L336.157 410.07C334.721 409.261 333.153 408.856 331.453 408.856C330.441 408.856 329.683 408.998 329.177 409.281C328.671 409.564 328.418 409.928 328.418 410.374C328.418 410.879 328.691 411.233 329.237 411.436C329.784 411.638 330.654 411.83 331.847 412.012C333.183 412.235 334.275 412.478 335.125 412.741C335.975 412.984 336.714 413.439 337.341 414.107C337.968 414.774 338.282 415.705 338.282 416.899C338.282 417.91 337.978 418.811 337.371 419.6C336.764 420.389 335.874 421.006 334.7 421.451C333.547 421.876 332.171 422.089 330.573 422.089Z" fill="#163220"/>
<g filter="url(#filter1_ddd_6520_89158)">
<rect x="766.816" y="379.465" width="189.686" height="63.2285" rx="12.6457" fill="#FFF7E0"/>
</g>
<path d="M808.882 422.265C806.676 422.265 804.683 421.789 802.903 420.838C801.143 419.887 799.757 418.582 798.745 416.923C797.754 415.244 797.258 413.362 797.258 411.278C797.258 409.194 797.754 407.322 798.745 405.663C799.757 403.984 801.143 402.669 802.903 401.718C804.683 400.767 806.676 400.291 808.882 400.291C811.087 400.291 813.07 400.767 814.83 401.718C816.591 402.669 817.977 403.984 818.988 405.663C820 407.322 820.506 409.194 820.506 411.278C820.506 413.362 820 415.244 818.988 416.923C817.977 418.582 816.591 419.887 814.83 420.838C813.07 421.789 811.087 422.265 808.882 422.265ZM808.882 418.076C810.136 418.076 811.269 417.793 812.281 417.227C813.293 416.64 814.082 415.83 814.648 414.799C815.235 413.767 815.528 412.593 815.528 411.278C815.528 409.963 815.235 408.789 814.648 407.757C814.082 406.726 813.293 405.926 812.281 405.36C811.269 404.773 810.136 404.48 808.882 404.48C807.627 404.48 806.494 404.773 805.483 405.36C804.471 405.926 803.672 406.726 803.085 407.757C802.518 408.789 802.235 409.963 802.235 411.278C802.235 412.593 802.518 413.767 803.085 414.799C803.672 415.83 804.471 416.64 805.483 417.227C806.494 417.793 807.627 418.076 808.882 418.076ZM840.316 405.572V421.9H835.825V419.958C835.198 420.666 834.449 421.212 833.579 421.597C832.709 421.961 831.768 422.143 830.756 422.143C828.612 422.143 826.912 421.526 825.658 420.292C824.403 419.058 823.776 417.227 823.776 414.799V405.572H828.51V414.101C828.51 416.731 829.613 418.046 831.819 418.046C832.952 418.046 833.862 417.682 834.55 416.953C835.238 416.205 835.582 415.102 835.582 413.645V405.572H840.316ZM855.234 421.111C854.769 421.455 854.192 421.718 853.504 421.9C852.836 422.062 852.128 422.143 851.38 422.143C849.437 422.143 847.93 421.647 846.858 420.656C845.805 419.665 845.279 418.208 845.279 416.286V409.578H842.76V405.936H845.279V401.961H850.014V405.936H854.081V409.578H850.014V416.225C850.014 416.913 850.186 417.449 850.53 417.834C850.894 418.198 851.4 418.38 852.047 418.38C852.796 418.38 853.433 418.177 853.959 417.773L855.234 421.111ZM867.543 405.329C869.061 405.329 870.436 405.684 871.671 406.392C872.925 407.08 873.906 408.061 874.615 409.336C875.323 410.59 875.677 412.057 875.677 413.736C875.677 415.416 875.323 416.893 874.615 418.167C873.906 419.422 872.925 420.403 871.671 421.111C870.436 421.799 869.061 422.143 867.543 422.143C865.459 422.143 863.82 421.486 862.626 420.17V427.788H857.892V405.572H862.414V407.454C863.587 406.038 865.297 405.329 867.543 405.329ZM866.724 418.258C867.938 418.258 868.929 417.854 869.698 417.044C870.487 416.215 870.881 415.112 870.881 413.736C870.881 412.36 870.487 411.268 869.698 410.459C868.929 409.629 867.938 409.214 866.724 409.214C865.51 409.214 864.508 409.629 863.719 410.459C862.95 411.268 862.566 412.36 862.566 413.736C862.566 415.112 862.95 416.215 863.719 417.044C864.508 417.854 865.51 418.258 866.724 418.258ZM895.296 405.572V421.9H890.804V419.958C890.177 420.666 889.428 421.212 888.558 421.597C887.688 421.961 886.747 422.143 885.736 422.143C883.591 422.143 881.891 421.526 880.637 420.292C879.382 419.058 878.755 417.227 878.755 414.799V405.572H883.49V414.101C883.49 416.731 884.592 418.046 886.798 418.046C887.931 418.046 888.841 417.682 889.529 416.953C890.217 416.205 890.561 415.102 890.561 413.645V405.572H895.296ZM910.213 421.111C909.748 421.455 909.171 421.718 908.483 421.9C907.816 422.062 907.108 422.143 906.359 422.143C904.416 422.143 902.909 421.647 901.837 420.656C900.785 419.665 900.259 418.208 900.259 416.286V409.578H897.74V405.936H900.259V401.961H904.993V405.936H909.06V409.578H904.993V416.225C904.993 416.913 905.165 417.449 905.509 417.834C905.873 418.198 906.379 418.38 907.027 418.38C907.775 418.38 908.413 418.177 908.939 417.773L910.213 421.111ZM918.364 422.143C917.009 422.143 915.683 421.981 914.389 421.658C913.094 421.314 912.062 420.889 911.293 420.383L912.871 416.984C913.599 417.449 914.48 417.834 915.511 418.137C916.543 418.42 917.555 418.562 918.546 418.562C920.549 418.562 921.551 418.066 921.551 417.075C921.551 416.609 921.278 416.276 920.732 416.073C920.185 415.871 919.346 415.699 918.213 415.557C916.877 415.355 915.774 415.122 914.904 414.859C914.034 414.596 913.276 414.131 912.628 413.463C912.001 412.795 911.687 411.845 911.687 410.61C911.687 409.578 911.981 408.668 912.568 407.879C913.175 407.07 914.045 406.442 915.178 405.997C916.331 405.552 917.687 405.329 919.244 405.329C920.398 405.329 921.541 405.461 922.674 405.724C923.827 405.967 924.778 406.311 925.527 406.756L923.949 410.125C922.512 409.315 920.944 408.911 919.244 408.911C918.233 408.911 917.474 409.052 916.968 409.336C916.462 409.619 916.209 409.983 916.209 410.428C916.209 410.934 916.483 411.288 917.029 411.49C917.575 411.693 918.445 411.885 919.639 412.067C920.974 412.29 922.067 412.532 922.917 412.795C923.767 413.038 924.505 413.494 925.132 414.161C925.76 414.829 926.073 415.76 926.073 416.953C926.073 417.965 925.77 418.865 925.163 419.655C924.556 420.444 923.665 421.061 922.492 421.506C921.339 421.931 919.963 422.143 918.364 422.143Z" fill="#163220"/>
<path d="M295.47 329.78C294.814 329.123 293.749 329.123 293.092 329.78L282.39 340.481C281.734 341.138 281.734 342.203 282.39 342.859C283.047 343.516 284.112 343.516 284.769 342.859L294.281 333.347L303.794 342.859C304.451 343.516 305.515 343.516 306.172 342.859C306.829 342.203 306.829 341.138 306.172 340.481L295.47 329.78ZM295.963 372V330.969H292.6V372H295.963Z" fill="#FAFBFF"/>
<path d="M860.467 373.22C861.124 373.877 862.189 373.877 862.845 373.22L873.547 362.519C874.204 361.862 874.204 360.797 873.547 360.141C872.89 359.484 871.826 359.484 871.169 360.141L861.656 369.653L852.144 360.141C851.487 359.484 850.422 359.484 849.765 360.141C849.109 360.797 849.109 361.862 849.765 362.519L860.467 373.22ZM859.975 331V372.031H863.338V331H859.975Z" fill="#FAFBFF"/>
<line x1="863.338" y1="503.232" x2="863.338" y2="594.376" stroke="#FAFBFF" stroke-width="3.36322" stroke-dasharray="6.73 6.73"/>
<line x1="863.338" y1="503.232" x2="863.338" y2="594.376" stroke="#FAFBFF" stroke-width="3.36322" stroke-dasharray="6.73 6.73"/>
<line x1="295.963" y1="506.932" x2="295.963" y2="594.375" stroke="#FAFBFF" stroke-width="3.36322" stroke-dasharray="6.73 6.73"/>
<g filter="url(#filter2_ddd_6520_89158)">
<rect x="480.602" y="561.08" width="189.686" height="63.2285" rx="12.6457" fill="#FFF7E0"/>
</g>
<path d="M546.351 582.216H551.268V599.455H561.92V603.461H546.351V582.216ZM574.479 603.825C572.314 603.825 570.352 603.36 568.591 602.429C566.851 601.478 565.475 600.173 564.464 598.514C563.472 596.835 562.977 594.943 562.977 592.839C562.977 590.734 563.472 588.853 564.464 587.193C565.475 585.514 566.851 584.209 568.591 583.278C570.352 582.327 572.324 581.852 574.509 581.852C576.351 581.852 578.01 582.176 579.487 582.823C580.984 583.471 582.238 584.401 583.25 585.615L580.094 588.529C578.657 586.87 576.877 586.04 574.752 586.04C573.437 586.04 572.264 586.334 571.232 586.92C570.2 587.487 569.39 588.286 568.804 589.318C568.237 590.35 567.954 591.523 567.954 592.839C567.954 594.154 568.237 595.327 568.804 596.359C569.39 597.391 570.2 598.2 571.232 598.787C572.264 599.354 573.437 599.637 574.752 599.637C576.877 599.637 578.657 598.797 580.094 597.118L583.25 600.031C582.238 601.266 580.984 602.206 579.487 602.854C577.99 603.501 576.32 603.825 574.479 603.825ZM600.147 598.908H590.283L588.401 603.461H583.363L592.832 582.216H597.688L607.188 603.461H602.028L600.147 598.908ZM598.599 595.175L595.23 587.042L591.861 595.175H598.599Z" fill="#163220"/>
<path d="M461.612 593.882C462.269 593.226 462.269 592.161 461.612 591.504L450.91 580.803C450.253 580.146 449.189 580.146 448.532 580.803C447.875 581.459 447.875 582.524 448.532 583.181L458.045 592.693L448.532 602.206C447.875 602.863 447.875 603.927 448.532 604.584C449.189 605.241 450.253 605.241 450.91 604.584L461.612 593.882ZM295.625 594.375L299.058 594.375L299.058 591.012L295.625 591.012L295.625 594.375ZM305.925 594.375L312.791 594.375L312.791 591.012L305.925 591.012L305.925 594.375ZM319.658 594.375L326.525 594.375L326.525 591.012L319.658 591.012L319.658 594.375ZM333.391 594.375L340.258 594.375L340.258 591.012L333.391 591.012L333.391 594.375ZM347.124 594.375L353.991 594.375L353.991 591.012L347.124 591.012L347.124 594.375ZM360.857 594.375L367.724 594.375L367.724 591.012L360.857 591.012L360.857 594.375ZM374.591 594.375L381.457 594.375L381.457 591.012L374.591 591.012L374.591 594.375ZM388.324 594.375L395.19 594.375L395.19 591.012L388.324 591.012L388.324 594.375ZM402.057 594.375L408.924 594.375L408.924 591.012L402.057 591.012L402.057 594.375ZM415.79 594.375L422.657 594.375L422.657 591.012L415.79 591.012L415.79 594.375ZM429.523 594.375L436.39 594.375L436.39 591.012L429.523 591.012L429.523 594.375ZM443.256 594.375L450.123 594.375L450.123 591.012L443.256 591.012L443.256 594.375ZM456.99 594.375L460.423 594.375L460.423 591.012L456.99 591.012L456.99 594.375ZM462.801 595.072C464.114 593.758 464.114 591.629 462.801 590.315L441.398 568.912C440.084 567.598 437.955 567.598 436.641 568.912C435.328 570.225 435.328 572.355 436.641 573.668L455.666 592.693L436.641 611.719C435.328 613.032 435.328 615.161 436.641 616.475C437.955 617.788 440.084 617.788 441.398 616.475L462.801 595.072ZM295.625 596.057L299.058 596.057L299.058 589.33L295.625 589.33L295.625 596.057ZM305.925 596.057L312.791 596.057L312.791 589.33L305.925 589.33L305.925 596.057ZM319.658 596.057L326.525 596.057L326.525 589.33L319.658 589.33L319.658 596.057ZM333.391 596.057L340.258 596.057L340.258 589.33L333.391 589.33L333.391 596.057ZM347.124 596.057L353.991 596.057L353.991 589.33L347.124 589.33L347.124 596.057ZM360.857 596.057L367.724 596.057L367.724 589.33L360.857 589.33L360.857 596.057ZM374.591 596.057L381.457 596.057L381.457 589.33L374.591 589.33L374.591 596.057ZM388.324 596.057L395.19 596.057L395.19 589.33L388.324 589.33L388.324 596.057ZM402.057 596.057L408.924 596.057L408.924 589.33L402.057 589.33L402.057 596.057ZM415.79 596.057L422.657 596.057L422.657 589.33L415.79 589.33L415.79 596.057ZM429.523 596.057L436.39 596.057L436.39 589.33L429.523 589.33L429.523 596.057ZM443.256 596.057L450.123 596.057L450.123 589.33L443.256 589.33L443.256 596.057ZM456.99 596.057L460.423 596.057L460.423 589.33L456.99 589.33L456.99 596.057Z" fill="#FAFBFF"/>
<path d="M691.971 591.504C691.314 592.161 691.314 593.226 691.971 593.882L702.672 604.584C703.329 605.241 704.394 605.241 705.051 604.584C705.707 603.927 705.707 602.863 705.051 602.206L695.538 592.693L705.051 583.181C705.707 582.524 705.707 581.459 705.051 580.803C704.394 580.146 703.329 580.146 702.672 580.803L691.971 591.504ZM864.348 591.012H861.056V594.375H864.348V591.012ZM854.471 591.012H847.887V594.375H854.471V591.012ZM841.303 591.012H834.719V594.375H841.303V591.012ZM828.135 591.012H821.551V594.375H828.135V591.012ZM814.967 591.012H808.382V594.375H814.967V591.012ZM801.798 591.012H795.214V594.375H801.798V591.012ZM788.63 591.012H782.046V594.375H788.63V591.012ZM775.462 591.012H768.877V594.375H775.462V591.012ZM762.293 591.012H755.709V594.375H762.293V591.012ZM749.125 591.012H742.541V594.375H749.125V591.012ZM735.957 591.012H729.373V594.375H735.957V591.012ZM722.788 591.012H716.204V594.375H722.788V591.012ZM709.62 591.012H703.036V594.375H709.62V591.012ZM696.452 591.012H693.16V594.375H696.452V591.012ZM690.782 590.315C689.468 591.629 689.468 593.758 690.782 595.072L712.185 616.475C713.498 617.788 715.628 617.788 716.941 616.475C718.255 615.162 718.255 613.032 716.941 611.719L697.916 592.693L716.941 573.668C718.255 572.355 718.255 570.225 716.941 568.912C715.628 567.598 713.498 567.598 712.185 568.912L690.782 590.315ZM864.348 589.33H861.056V596.057H864.348V589.33ZM854.471 589.33H847.887V596.057H854.471V589.33ZM841.303 589.33H834.719V596.057H841.303V589.33ZM828.135 589.33H821.551V596.057H828.135V589.33ZM814.967 589.33H808.382V596.057H814.967V589.33ZM801.798 589.33H795.214V596.057H801.798V589.33ZM788.63 589.33H782.046V596.057H788.63V589.33ZM775.462 589.33H768.877V596.057H775.462V589.33ZM762.293 589.33H755.709V596.057H762.293V589.33ZM749.125 589.33H742.541V596.057H749.125V589.33ZM735.957 589.33H729.373V596.057H735.957V589.33ZM722.788 589.33H716.204V596.057H722.788V589.33ZM709.62 589.33H703.036V596.057H709.62V589.33ZM696.452 589.33H693.16V596.057H696.452V589.33Z" fill="#FAFBFF"/>
<path d="M1260.57 65.9754C1257.55 63.5944 1258.24 58.8325 1261.81 57.4039L1289.12 46.4863C1292.7 45.0577 1296.48 48.0339 1295.93 51.8434L1291.73 80.9566C1291.18 84.7662 1286.71 86.5519 1283.68 84.171L1260.57 65.9754Z" fill="#163220"/>
<path d="M862.925 70.0861C859.422 68.4914 858.959 63.7025 862.091 61.4661L886.031 44.3746C889.164 42.1381 893.543 44.1315 893.913 47.9626L896.745 77.2409C897.116 81.072 893.2 83.8676 889.697 82.2729L862.925 70.0861Z" fill="#163220"/>
<defs>
<filter id="filter0_ddd_6520_89158" x="180.065" y="368.084" width="214.979" height="88.5199" filterUnits="userSpaceOnUse" color-interpolation-filters="sRGB">
<feFlood flood-opacity="0" result="BackgroundImageFix"/>
<feColorMatrix in="SourceAlpha" type="matrix" values="0 0 0 0 0 0 0 0 0 0 0 0 0 0 0 0 0 0 127 0" result="hardAlpha"/>
<feOffset dy="2.52914"/>
<feGaussianBlur stdDeviation="2.52914"/>
<feColorMatrix type="matrix" values="0 0 0 0 0 0 0 0 0 0 0 0 0 0 0 0 0 0 0.2 0"/>
<feBlend mode="normal" in2="BackgroundImageFix" result="effect1_dropShadow_6520_89158"/>
<feColorMatrix in="SourceAlpha" type="matrix" values="0 0 0 0 0 0 0 0 0 0 0 0 0 0 0 0 0 0 127 0" result="hardAlpha"/>
<feOffset dy="1.26457"/>
<feGaussianBlur stdDeviation="6.32285"/>
<feColorMatrix type="matrix" values="0 0 0 0 0 0 0 0 0 0 0 0 0 0 0 0 0 0 0.12 0"/>
<feBlend mode="normal" in2="effect1_dropShadow_6520_89158" result="effect2_dropShadow_6520_89158"/>
<feColorMatrix in="SourceAlpha" type="matrix" values="0 0 0 0 0 0 0 0 0 0 0 0 0 0 0 0 0 0 127 0" result="hardAlpha"/>
<feOffset dy="5.05828"/>
<feGaussianBlur stdDeviation="3.16143"/>
<feColorMatrix type="matrix" values="0 0 0 0 0 0 0 0 0 0 0 0 0 0 0 0 0 0 0.14 0"/>
<feBlend mode="normal" in2="effect2_dropShadow_6520_89158" result="effect3_dropShadow_6520_89158"/>
<feBlend mode="normal" in="SourceGraphic" in2="effect3_dropShadow_6520_89158" result="shape"/>
</filter>
<filter id="filter1_ddd_6520_89158" x="754.171" y="368.084" width="214.979" height="88.5199" filterUnits="userSpaceOnUse" color-interpolation-filters="sRGB">
<feFlood flood-opacity="0" result="BackgroundImageFix"/>
<feColorMatrix in="SourceAlpha" type="matrix" values="0 0 0 0 0 0 0 0 0 0 0 0 0 0 0 0 0 0 127 0" result="hardAlpha"/>
<feOffset dy="2.52914"/>
<feGaussianBlur stdDeviation="2.52914"/>
<feColorMatrix type="matrix" values="0 0 0 0 0 0 0 0 0 0 0 0 0 0 0 0 0 0 0.2 0"/>
<feBlend mode="normal" in2="BackgroundImageFix" result="effect1_dropShadow_6520_89158"/>
<feColorMatrix in="SourceAlpha" type="matrix" values="0 0 0 0 0 0 0 0 0 0 0 0 0 0 0 0 0 0 127 0" result="hardAlpha"/>
<feOffset dy="1.26457"/>
<feGaussianBlur stdDeviation="6.32285"/>
<feColorMatrix type="matrix" values="0 0 0 0 0 0 0 0 0 0 0 0 0 0 0 0 0 0 0.12 0"/>
<feBlend mode="normal" in2="effect1_dropShadow_6520_89158" result="effect2_dropShadow_6520_89158"/>
<feColorMatrix in="SourceAlpha" type="matrix" values="0 0 0 0 0 0 0 0 0 0 0 0 0 0 0 0 0 0 127 0" result="hardAlpha"/>
<feOffset dy="5.05828"/>
<feGaussianBlur stdDeviation="3.16143"/>
<feColorMatrix type="matrix" values="0 0 0 0 0 0 0 0 0 0 0 0 0 0 0 0 0 0 0.14 0"/>
<feBlend mode="normal" in2="effect2_dropShadow_6520_89158" result="effect3_dropShadow_6520_89158"/>
<feBlend mode="normal" in="SourceGraphic" in2="effect3_dropShadow_6520_89158" result="shape"/>
</filter>
<filter id="filter2_ddd_6520_89158" x="467.956" y="549.699" width="214.979" height="88.5199" filterUnits="userSpaceOnUse" color-interpolation-filters="sRGB">
<feFlood flood-opacity="0" result="BackgroundImageFix"/>
<feColorMatrix in="SourceAlpha" type="matrix" values="0 0 0 0 0 0 0 0 0 0 0 0 0 0 0 0 0 0 127 0" result="hardAlpha"/>
<feOffset dy="2.52914"/>
<feGaussianBlur stdDeviation="2.52914"/>
<feColorMatrix type="matrix" values="0 0 0 0 0 0 0 0 0 0 0 0 0 0 0 0 0 0 0.2 0"/>
<feBlend mode="normal" in2="BackgroundImageFix" result="effect1_dropShadow_6520_89158"/>
<feColorMatrix in="SourceAlpha" type="matrix" values="0 0 0 0 0 0 0 0 0 0 0 0 0 0 0 0 0 0 127 0" result="hardAlpha"/>
<feOffset dy="1.26457"/>
<feGaussianBlur stdDeviation="6.32285"/>
<feColorMatrix type="matrix" values="0 0 0 0 0 0 0 0 0 0 0 0 0 0 0 0 0 0 0.12 0"/>
<feBlend mode="normal" in2="effect1_dropShadow_6520_89158" result="effect2_dropShadow_6520_89158"/>
<feColorMatrix in="SourceAlpha" type="matrix" values="0 0 0 0 0 0 0 0 0 0 0 0 0 0 0 0 0 0 127 0" result="hardAlpha"/>
<feOffset dy="5.05828"/>
<feGaussianBlur stdDeviation="3.16143"/>
<feColorMatrix type="matrix" values="0 0 0 0 0 0 0 0 0 0 0 0 0 0 0 0 0 0 0.14 0"/>
<feBlend mode="normal" in2="effect2_dropShadow_6520_89158" result="effect3_dropShadow_6520_89158"/>
<feBlend mode="normal" in="SourceGraphic" in2="effect3_dropShadow_6520_89158" result="shape"/>
</filter>
<linearGradient id="paint0_linear_6520_89158" x1="674" y1="104.5" x2="1509.98" y2="109.875" gradientUnits="userSpaceOnUse">
<stop stop-color="#FD9C00"/>
<stop offset="1" stop-color="#FEEBB2"/>
</linearGradient>
</defs>
</svg>
