<svg width="924" height="524" viewBox="0 0 924 524" fill="none" xmlns="http://www.w3.org/2000/svg">
<g clip-path="url(#clip0_8080_201054)">
<path d="M863.943 138.366L868.712 142.595L871.611 140.475L867.382 138.705L870.946 137.814L876.945 140.475L877.058 137.588L881.175 135.367L877.836 131.689L866.052 127.473H863.943L868.135 135.028H865.161L863.943 138.366Z" stroke="#C2C3C8" stroke-width="1.18171" stroke-miterlimit="10"/>
<path d="M880.146 150.264L872.554 142.145L869.278 143.814V148.156H872.554V154.82L867.621 159.765L866.266 158.723V164.609L863.492 163.944L856.816 164.609L852.486 169.617V171.512L849.926 174.059L857.268 181.401L859.1 179.569V174.624L854.82 171.951L861.936 168.613H866.391V171.06L869.002 173.67L873.884 168.776H878.176V166.052H881.175V162.827L880.146 161.798V150.264Z" stroke="#C2C3C8" stroke-width="1.18171" stroke-miterlimit="10"/>
<path d="M860.217 170.594V171.435H861.887V170.055H863.932L865.589 171.724L863.932 173.393H862.213V175.602H860.544L859.088 172.602V170.808L860.217 170.594Z" stroke="#C2C3C8" stroke-width="1.18171" stroke-miterlimit="10"/>
<path d="M700.693 264.469V275.136L702.701 279.14L707.709 276.479V272.476L702.588 264.469H700.693Z" stroke="#C2C3C8" stroke-width="1.18171" stroke-miterlimit="10"/>
<path d="M842.219 249.789L848.205 254.294L850.201 250.793L845.03 246.626L841.365 247.454L839.031 243.953V240.113H841.027L842.194 235.946L840.198 231.227L834.249 230.273V239.284H832.518L836.697 248.622L842.219 249.789Z" stroke="#C2C3C8" stroke-width="1.18171" stroke-miterlimit="10"/>
<path d="M838.58 254.293H840.036V250.566L836.133 249.574L838.58 254.293Z" stroke="#C2C3C8" stroke-width="1.18171" stroke-miterlimit="10"/>
<path d="M843.927 264.354L847.366 267.692L852.034 263.915L848.872 259.07L847.253 260.677L842.697 256.121V261.467H846.261V264.354H843.927Z" stroke="#C2C3C8" stroke-width="1.18171" stroke-miterlimit="10"/>
<path d="M851.87 256.398L850.201 258.067L853.816 262.573L856.263 259.573L854.707 258.017V255.344L853.15 253.574L850.201 254.29L851.87 256.398Z" stroke="#C2C3C8" stroke-width="1.18171" stroke-miterlimit="10"/>
<path d="M859.602 272.801L856.263 263.238L854.042 263.803L854.908 266.89L852.034 269.752H846.75L842.145 274.358H843.362L845.483 272.249H850.679V276.554L854.042 279.917H855.372V273.692H858.497V277.031L859.602 272.801Z" stroke="#C2C3C8" stroke-width="1.18171" stroke-miterlimit="10"/>
<path d="M827.8 270.581L836.861 261.519L834.916 259.574L827.248 269.25L827.8 270.581Z" stroke="#C2C3C8" stroke-width="1.18171" stroke-miterlimit="10"/>
<path d="M872.616 347.866L874.285 346.536V344.754H869.83L870.445 345.695L872.616 347.866Z" stroke="#C2C3C8" stroke-width="1.18171" stroke-miterlimit="10"/>
<path d="M930.609 393.233V387.397H928.263V378.888L920.431 371.057V358.544H914.922V348.027H912.751V342.367H910.077L906.639 354.365V359.209L903.075 370.216H899.749L887.312 357.791L893.398 349.207L891.566 346.697L888.73 348.366L877.899 345.693L877.836 349.533H871.612L865.713 355.432V359.322H861.546L857.518 355.294L840.475 367.329V372.224L809.338 386.456L805.786 395.567L808.234 401.127L804.669 404.252V427.821L802.523 429.954V434.045L805.372 436.894H813.116L818.876 431.134H830.246L833.221 428.159L858.384 423.591L866.491 426.704V436.894L867.897 435.501L876.644 426.741L877.836 428.599L870.884 436.894L872.214 437.936L876.217 434.761L874.059 439.266H877.836V448.641L885.73 451.277L890.575 448.641L893.737 451.277L907.756 446.106L911.922 439.605L925.602 427.256L935.102 410.577V397.738L930.609 393.233Z" stroke="#C2C3C8" stroke-width="1.18171" stroke-miterlimit="10"/>
<path d="M889.621 460.55L885.228 457.789L882.894 460.123V464.704L881.814 465.532V469.297H885.655L887.939 467.001H889.319L896.423 459.885L894.741 458.617L889.621 460.55Z" stroke="#C2C3C8" stroke-width="1.18171" stroke-miterlimit="10"/>
<path d="M935.994 338.412V336.742H933.208L928.1 327.844H931.991L930.886 324.732L925.101 322.511L924.323 318.946L921.536 317.177H920.545L909.752 312.207V337.696L913.868 338.186L917.533 331.735L925.214 333.404L930.321 341.75H936.107L939.219 343.745L940.223 341.411L937.55 338.412H935.994Z" stroke="#C2C3C8" stroke-width="1.18171" stroke-miterlimit="10"/>
<path d="M573.987 142.303L576.158 143.646H578.216V143.106L577.338 142.24L577.012 140.169L572.381 138.074H568.879L558.977 134.309L557.346 134.673L561.864 139.191C562.039 139.366 561.864 140.86 561.864 140.86L560.533 142.203H565.365L567.047 143.872H572.318L573.987 142.303Z" stroke="#C2C3C8" stroke-width="1.18171" stroke-miterlimit="10"/>
<path d="M573.637 149.544L574.201 148.829L577.238 150.749L577.565 152.318L579.435 152.205L579.046 149.482L576.159 148.377L576.987 147.373L573.373 143.922H572.319H567.035L567.65 144.537L571.039 151.565L573.273 149.042L573.637 149.544Z" stroke="#C2C3C8" stroke-width="1.18171" stroke-miterlimit="10"/>
<path d="M574.201 148.832L573.637 149.547L575.77 152.434L577.565 152.321L577.239 150.752L574.201 148.832Z" stroke="#C2C3C8" stroke-width="1.18171" stroke-miterlimit="10"/>
<path d="M583.789 141.063L581.442 143.698L578.543 140.875L577.012 140.172L577.338 142.243L578.217 143.121V143.648H576.159L573.988 142.318L572.318 143.924H573.373L576.987 147.376L576.159 148.38L579.045 149.484L579.409 151.969L582.434 149.145L584.442 149.647L584.078 152.797L586.274 153.851V151.818L587.667 150.425V147.702L589.688 146.598L583.789 141.063Z" stroke="#C2C3C8" stroke-width="1.18171" stroke-miterlimit="10"/>
<path d="M604.734 229.805H595.309L588.633 236.469L587.277 235.114L575.493 234.223V237.335L573.861 238.891L573.937 239.004L577.928 252.897L606.065 241.565V239.004L609.052 237.348L605.324 229.504L604.734 229.805Z" stroke="#C2C3C8" stroke-width="1.18171" stroke-miterlimit="10"/>
<path d="M615.603 206.174H618.175L616.519 202.195L609.629 209.863H603.379L605.512 213.867L613.959 214.532L613.971 214.545L615.603 209.587V206.174Z" stroke="#C2C3C8" stroke-width="1.18171" stroke-miterlimit="10"/>
<path d="M630.311 215.212L625.856 210.644L619.079 208.309L618.175 206.176H615.603V209.589L613.971 214.547L616.293 216.981L614.523 224.875L605.324 229.506L609.052 237.35L624.087 228.992L630.311 215.212Z" stroke="#C2C3C8" stroke-width="1.18171" stroke-miterlimit="10"/>
<path d="M601.284 207.402V200.75H599.402L598.021 204.377L599.891 208.092L601.284 207.402Z" stroke="#C2C3C8" stroke-width="1.18171" stroke-miterlimit="10"/>
<path d="M583.739 190.07L577.565 189.568L563.145 178.223H558.639L552.803 180.984L555.05 183.569L554.221 186.317H551.799L549.879 190.07L545.173 188.715L544.244 194.299H547.357L573.862 238.89L575.494 237.333V234.221L587.278 235.112L588.634 236.468L595.31 229.803H604.735L614.524 224.871L616.294 216.977L613.96 214.53L605.514 213.865L603.38 209.861H602.953L601.284 208.192V207.402L599.891 208.092L598.021 204.377L597.845 204.866L590.278 192.291V186.932L585.333 186.154L583.739 190.07Z" stroke="#C2C3C8" stroke-width="1.18171" stroke-miterlimit="10"/>
<path d="M548.838 172.637V170.679H549.679V169.6L546.88 167.68V168.884L544.859 174.745H546.742L548.838 172.637Z" stroke="#C2C3C8" stroke-width="1.18171" stroke-miterlimit="10"/>
<path d="M546.88 174.609L546.741 174.747H544.859L542.299 182.152H542.211L545.236 188.289L545.173 188.716L545.637 188.854L546.88 182.277V174.609Z" stroke="#C2C3C8" stroke-width="1.18171" stroke-miterlimit="10"/>
<path d="M549.991 177.712H551.472L563.809 169.442V164.221V163.079V161.385H565.315L567.762 158.938H566.821H561.249L559.027 161.171H548.799L546.879 163.079V167.685L549.678 169.605V170.684H548.837V172.642L546.879 174.613V175.729H548.021L549.991 177.712Z" stroke="#C2C3C8" stroke-width="1.18171" stroke-miterlimit="10"/>
<path d="M587.993 182.519H587.001V178.679L585.269 176.959H583.989L582.27 175.227H580.299V173.922L577.601 171.224V168.727L579.044 167.283H580.212V166.781L579.433 166.003V163.443H577.212L574.338 158.938H572.819H571.703H567.762L565.315 161.385H563.809V163.079V164.221V169.442L556.969 174.023L558.726 178.227H563.143L577.563 189.572L583.738 190.074L585.332 186.159L590.277 186.937V186.874L587.993 184.69V182.519Z" stroke="#C2C3C8" stroke-width="1.18171" stroke-miterlimit="10"/>
<path d="M636.651 199.197H639.763V196.411H637.09V191.968H635.308L629.585 186.233L632.309 183.522V180.736H629.748L627.979 173.394L627.088 172.503V161.158H624.866L616.859 156.715H613.521V155.159H606.292V158.271H603.23V159.501L597.507 161.158L591.169 157.832H588.17L586.275 154.268V154.054V153.854L584.079 152.799L584.443 149.649L582.435 149.147L579.41 151.971L579.435 152.209L577.565 152.322L575.77 152.435L573.637 149.549L573.273 149.047L571.039 151.569L574.603 158.936H574.34L577.214 163.442H579.435V166.002L580.213 166.78V167.282H579.046L577.603 168.725V171.223L580.301 173.921V175.226H582.271L583.991 176.958H585.271L587.003 178.678V182.518H587.994V184.689L590.278 186.873V185.793H594.897L600.231 194.691L603.142 194.917L608.852 199.749H615.517V197.854H619.746V201.079L634.53 203.941V201.305L636.651 199.197Z" stroke="#C2C3C8" stroke-width="1.18171" stroke-miterlimit="10"/>
<path d="M692.334 115.916V112.917L690.803 112.578H685.858L679.684 106.403L674.124 107.407L671.614 105.123L669.28 107.068L654.433 95.0579V92.5479L649.702 97.2793H646.702V94.3802H638.808L636.298 90.0504L630.186 89.9375L611.173 94.832L609.918 96.1623L611.248 98.8355L609.83 103.103L614.499 104.772V107.897H607.659L605.713 105.951H600.367L598.372 107.947L588.583 103.717H583.563L576.773 107.395L578.894 109.503L577.639 110.758L574.351 107.482L572.355 109.478V116.481H574.577V119.43H577.739L582.759 124.45L583.425 123.785L588.043 121.388H594.055L596.1 123.446V127.287H589.825L586.939 130.173V131.742H588.934L593.276 136.084H596.1V138.971L596.941 141.757L597.606 139.535H599.79L599.878 139.711L601.459 139.084L603.969 140.866L605.412 143.2H607.081L604.082 129.081L612.202 126.973L614.034 127.977L613.03 125.58L614.034 123.409L616.205 124.237L619.368 129.407L618.715 130.562L620.874 131.742L624.212 135.08H633.675L636.675 138.08V140.088H639.787V143.639H644.807V146.149H647.693L653.027 138.92V137.364H659.93V135.921H662.44L663.946 137.44H676.559L681.453 138.92L682.344 135.369L677.676 129.094L681.679 127.65L685.118 128.341V126.985L683.574 125.467V120.911H691.405V119.355L689.912 117.937V115.966L692.334 115.916ZM672.254 122.505H661.586L658.863 125.228L659.089 128.993L656.077 127.324V123.321L658.524 120.873H672.254V122.505Z" stroke="#C2C3C8" stroke-width="1.18171" stroke-miterlimit="10"/>
<path d="M633.588 165.774V163.879L638.144 162.046V157.993H643.151V154.604H639.763L632.848 151.128L624.866 143.146H618.992V141.012L615.692 137.699H613.018V139.757H611.023V143.146L607.007 142.82L607.07 143.146H605.401L603.957 140.812L601.51 139.03L599.929 139.657L600.845 141.703L603.179 143.485L602.727 145.267H597.732V148.266H599.954L603.229 151.542V158.269H606.292V155.156H613.52V156.713H616.859L624.866 161.155H627.087V164.268L631.254 165.774H633.588Z" stroke="#C2C3C8" stroke-width="1.18171" stroke-miterlimit="10"/>
<path d="M648.799 155.385L644.707 150.792V149.048H647.958L652.137 144.291L653.882 145.27L652.878 146.149L654.383 147.429H658.111L660.558 144.981L655.664 142.095V143.538L651.66 142.095L653.668 139.874L652.702 139.321L647.657 146.149H644.77V143.601H639.763V140.037H636.65V138.029L633.651 135.029H624.188L620.85 131.691L618.704 130.511L617.185 133.197L613.847 132.394L614.688 129.532L614.023 127.926L612.19 126.922L604.07 129.03L607.007 142.823L611.023 143.149V139.761H613.019V137.702H615.692L618.992 141.016V143.149H624.866L632.848 151.131L639.763 154.607H643.151V157.318L647.042 158.548L648.799 155.385Z" stroke="#C2C3C8" stroke-width="1.18171" stroke-miterlimit="10"/>
<path d="M416.358 94.2544H415.116L414.2 95.1705L412.468 94.0034L415.731 91.0039H411.753V93.1625L410.359 94.5556H406.13V97.1158L407.686 98.672L402.604 103.755L404.574 105.738H409.632L413.133 102.224H416.584L417.864 98.3582V95.9486L418.643 95.1705H416.358V94.2544Z" stroke="#C2C3C8" stroke-width="1.18171" stroke-miterlimit="10"/>
<path d="M418.643 95.1705L420.927 92.8864L419.032 91.0039H415.732L412.469 94.0034L414.201 95.1705L415.117 94.2544H416.359V95.1705H418.643Z" stroke="#C2C3C8" stroke-width="1.18171" stroke-miterlimit="10"/>
<path d="M440.379 100.892L439.601 98.3569L438.384 99.6747H435.485L436.827 97.6667L434.154 92.6969H433.125L430.904 90.4755L428.431 87.9906V86.4971L431.268 83.6608V82.6568H425.256L427.704 80.2095V78.9922H424.478L421.818 81.6528H419.37V84.9911L418.366 85.9951V88.5553H417.701L418.806 89.6597L419.471 88.9946V90.3876H420.751L422.144 88.9946L422.872 89.7225L421.429 91.1658L422.37 92.107H425.921L426.373 95.4453V98.3569H421.705L422.144 100.114V102.561H420.136V103.892H422.031L424.139 104.557L427.151 103.892L425.482 105.536H422.395L417.701 110.229H419.144L422.985 108.849L424.478 107.343H426.486L427.591 108.46L436.715 107.23L438.71 105.121H437.041L440.379 100.892Z" stroke="#C2C3C8" stroke-width="1.18171" stroke-miterlimit="10"/>
<path d="M416.698 82.3172L419.145 80.3217L415.92 79.7695V81.4387L414.803 81.765L415.92 84.6515L416.698 82.3172Z" stroke="#C2C3C8" stroke-width="1.18171" stroke-miterlimit="10"/>
<path d="M430.038 76.2031H427.93V77.8723H428.984L430.038 76.2031Z" stroke="#C2C3C8" stroke-width="1.18171" stroke-miterlimit="10"/>
<path d="M465.291 14.3832L478.858 20.6081L485.308 14.3832L491.759 18.713L495.537 15.7135L487.969 12.6011H500.205V9.71461L486.199 8.59766L465.291 10.3798V14.3832Z" stroke="#C2C3C8" stroke-width="1.18171" stroke-miterlimit="10"/>
<path d="M491.671 43.0469H489.588L478.406 50.8781V52.6351H476.322V54.9694L473.913 57.3791L474.904 58.2952V59.864H470.963V72.6525L469.294 76.9823L467.725 77.8984L471.967 85.5414L471.302 87.6624L467.625 88.9927V91.7788L471.076 91.5529V90.4359H472.181H476.523V87.7753H481.305L483.827 80.0696L488.144 75.7649V75.037L483.752 70.6445V65.4236L492.035 60.3534L494.093 58.2952L492.75 57.0779L495.649 54.1913H498.097V46.5483L491.671 43.0469Z" stroke="#C2C3C8" stroke-width="1.18171" stroke-miterlimit="10"/>
<path d="M455.001 120.631V119.075L456.733 118.798L458.565 114.406L449.228 110.566L448.061 111.231L441.861 105.684L439.276 107.34V109.562L434.707 111.005V112.9L431.156 112.787V111.005L428.483 111.57L429.487 113.013V115.008L426.035 115.347L425.144 114.13L420.137 115.573L420.927 118.347L426.6 119.903L426.7 121.133L430.152 124.571L428.42 134.285L434.795 137.862L435.962 136.645L442.551 138.1V136.532L445.889 134.524L451.223 136.281H453.733L457.561 133.394L454.725 131.863V124.295H452.365V123.266L455.001 120.631Z" stroke="#C2C3C8" stroke-width="1.18171" stroke-miterlimit="10"/>
<path d="M461.902 136.645V137.749H459.844V140.698L460.873 142.643H461.902V140.648H462.893V136.645H461.902Z" stroke="#C2C3C8" stroke-width="1.18171" stroke-miterlimit="10"/>
<path d="M410.233 155.284L409.33 154.38V153.05L410.748 152.322L409.33 149.147H412.028V144.478L413.584 142.922V141.09H408.025V140.148H405.69V145.269L402.465 152.598L403.908 154.054V159.714L408.25 158.384H408.715V156.802L410.233 155.284Z" stroke="#C2C3C8" stroke-width="1.18171" stroke-miterlimit="10"/>
<path d="M435.961 136.646L434.794 137.864L428.419 134.287L428.256 135.14L425.369 134.475H412.468L409.719 133.609L407.799 135.53H405.515L404.348 136.697L405.691 138.027V140.148H408.025V141.089H413.584V142.922L412.028 144.478V149.146H409.33L410.748 152.322L409.33 153.049V154.38L410.234 155.283L408.715 156.802V158.383H410.472L412.028 159.939V161.834L414.476 163.391L418.366 159.927H424.993L431.619 153.288V149.209L435.296 145.369V144.126L442.55 140.876V138.102L435.961 136.646Z" stroke="#C2C3C8" stroke-width="1.18171" stroke-miterlimit="10"/>
<path d="M503.154 39.6848H507.547L511.098 41.0653L511.701 41.994L515.554 40.3374V38.4047L502.426 36.8359L486.977 39.848L479.41 43.7385V42.2952L475.632 44.8429H471.302V45.9598H475.858L475.808 47.0266L470.549 52.2976V55.1088L463.233 62.413H461.287V61.3086L451.172 65.9772V77.4354L457.51 81.4389L465.291 77.3225H467.399L467.725 77.8998L469.294 76.9836L470.963 72.6538V59.8653H474.904V58.2966L473.913 57.3804L476.322 54.9708V52.6365H478.406V50.8795L489.588 43.0482H491.671L493.553 44.0773H503.154V39.6848Z" stroke="#C2C3C8" stroke-width="1.18171" stroke-miterlimit="10"/>
<path d="M517.337 61.5207V59.4123L515.781 57.8561V53.9656L512.443 50.301L514.501 46.7367L510.773 45.6198V42.407L511.702 41.9928L511.1 41.0641L507.548 39.6836H503.156V44.0761H493.555L498.098 46.5485V54.1915H502.051V56.5885L495.236 63.4158V69.6783L499.88 74.3092L511.89 71.8745L513.384 70.8078L513.886 71.3098L520.337 66.0638V64.5327L517.337 61.5207Z" stroke="#C2C3C8" stroke-width="1.18171" stroke-miterlimit="10"/>
<path d="M461.062 143.488L459.844 144.655H457.949V145.76L459.254 147.065V151.771H461.062V151.106H462.894V146.814L463.71 146.011L462.894 143.488H461.062Z" stroke="#C2C3C8" stroke-width="1.18171" stroke-miterlimit="10"/>
<path d="M490.091 148.707L491.007 146.875L482.912 142.621L484.167 141.366L483.502 140.625L479.913 140.788L476.662 138.203L475.332 134.451L471.24 131.188L471.818 129.28L470.826 127.272L474.629 126.055V124.298L470.462 121.574L465.631 122.189L464.514 124.185L462.179 123.971L460.824 125.251L459.431 123.971L457.95 125.44H454.725V131.865L457.561 133.396L460.397 131.275L464.401 133.032L465.317 137.111L473.663 143.788L475.156 143.7L480.829 148.205L481.921 147.954L483.088 151.795L481.833 154.054L475.495 154.719L474.654 155.547L472.998 155.133L471.743 156.627L480.164 161.057L481.168 159.388L480.076 157.718L481.582 155.296L483.339 155.961L486.84 152.297V150.126L484.33 148.958L485.999 146.461L490.091 148.707Z" stroke="#C2C3C8" stroke-width="1.18171" stroke-miterlimit="10"/>
<path d="M464.514 119.186H457.398L456.783 118.672L456.733 118.797L455.001 119.073V120.63L452.365 123.265V124.294H454.725V125.436H457.95L459.431 123.968L460.824 125.248L462.179 123.968L464.514 124.181L465.468 122.462L462.619 120.956L464.514 119.186Z" stroke="#C2C3C8" stroke-width="1.18171" stroke-miterlimit="10"/>
<path d="M452.364 106.261L449.515 104.881L443.629 104.555L441.859 105.684L448.059 111.231L449.226 110.566L451.423 111.47L453.644 109.223L452.364 106.261Z" stroke="#C2C3C8" stroke-width="1.18171" stroke-miterlimit="10"/>
<path d="M453.305 104.131H452.138V103.315H454.322L455.564 102.085V101.257H454.435V100.466H455.978V98.634L455.363 97.5547H451.837L448.498 99.4498V101.445L443.629 104.558L449.515 104.884L452.364 106.264L452.401 106.365L453.305 105.298V104.131Z" stroke="#C2C3C8" stroke-width="1.18171" stroke-miterlimit="10"/>
<path d="M463.433 90.4138L466.683 87.1633L465.905 86.3852L464.512 84.9922L465.742 83.7748V82.457H464.098L462.29 84.2642H460.559L458.613 86.2221V90.5518L460.747 92.6853L463.433 91.7943V90.4138Z" stroke="#C2C3C8" stroke-width="1.18171" stroke-miterlimit="10"/>
<path d="M477.465 103.36V100.499L476.273 99.3066L476.474 95.5415L473.851 92.9186H471.002L469.069 94.8387H466.057L464.614 93.408L463.434 92.2158V91.7891L460.749 92.6801L461.175 93.1068V96.4451H460.058V97.5495H458.289V96.4451H455.503V97.5495H455.365L455.98 98.6288V100.461H454.436V101.252H455.565V102.08L454.323 103.31H452.139V104.126H453.306V105.293L452.403 106.36L453.645 109.221L451.424 111.468L458.565 114.404L456.783 118.671L457.398 119.186H462.129H464.514L464.124 119.55L472.244 118.671L472.872 116.601L475.821 114.931L470.4 112.183V108.757L476.75 106.36H478.657V104.552L477.465 103.36Z" stroke="#C2C3C8" stroke-width="1.18171" stroke-miterlimit="10"/>
<path d="M489.752 109.512V112.097L489.551 112.298H498.889L500.432 113.842H501.223V111.633L503.846 109.01H505.477V107.303L503.846 105.672V102.496H502.102V100.413H504.185V98.3299L502.767 96.9117V93.6612H500.319H492.752L492.199 94.226H488.535V92.9961H482.636L476.612 95.6818L476.474 95.5438L476.273 99.3088L477.466 100.501V103.362L478.658 104.555V105.985L484.745 109.512H489.752Z" stroke="#C2C3C8" stroke-width="1.18171" stroke-miterlimit="10"/>
<path d="M507.824 80.9407L509.719 82.8232H512.329V82.3839L513.547 81.5431L511.714 78.1043L513.158 76.9372L513.12 75.6445L512.881 75.77H503.205L499.202 78.2173L496.98 79.4347L497.872 80.6646L500.319 80.0998L500.984 78.8825L502.314 80.2128H503.983V81.7564L505.991 80.9407H507.824Z" stroke="#C2C3C8" stroke-width="1.18171" stroke-miterlimit="10"/>
<path d="M478.656 114.183H480.915L484.856 115.438L486.048 115.815L489.55 112.301H489.487H489.55L489.751 112.1V109.515H484.743L478.656 105.988V106.365H476.749L470.398 108.762V112.188L475.82 114.936L474.942 115.438H478.656V114.183Z" stroke="#C2C3C8" stroke-width="1.18171" stroke-miterlimit="10"/>
<path d="M500.707 92.0551H498.096L497.481 91.1641H496.364L494.896 91.5155L492.75 93.6615H500.318L500.707 92.0551Z" stroke="#C2C3C8" stroke-width="1.18171" stroke-miterlimit="10"/>
<path d="M480.3 125.742H481.304V124.575L482.835 123.057L483.011 121.789L481.668 123.132H475.355L474.238 124.048L474.627 124.299V126.056L475.493 125.78L475.644 126.972H480.3V125.742Z" stroke="#C2C3C8" stroke-width="1.18171" stroke-miterlimit="10"/>
<path d="M481.668 123.132L483.011 121.789L483.375 121.425L485.634 117.572L484.856 115.439L480.915 114.184H478.656V115.439H474.941L472.871 116.606L472.243 118.677L464.123 119.555L462.617 120.961L465.466 122.467L465.629 122.191L470.461 121.576L474.239 124.048L475.356 123.132H481.668Z" stroke="#C2C3C8" stroke-width="1.18171" stroke-miterlimit="10"/>
<path d="M481.456 130.007L484.53 128.363L491.646 128.752V125.439H490.027V126.305H487.53L482.836 123.055L481.305 124.573V125.74H480.301V126.97H475.645L475.657 127.021L474.578 128.363L477.578 130.773L478.331 128.853L479.41 132.618L490.379 138.692L485.083 133.647L481.456 130.007Z" stroke="#C2C3C8" stroke-width="1.18171" stroke-miterlimit="10"/>
<path d="M498.096 86.7482H506.015L507.094 87.8275H508.437L510.181 89.5845H511.148H513.357L515.352 87.4761L514.223 85.2171V83.6609H512.328V82.82H509.717L507.822 80.9375H505.99L503.982 81.7533V85.5434H501.547L499.2 83.1965H496.665L494.645 85.2171V88.5554L495.096 89.2331L495.423 87.5388L498.096 86.7482Z" stroke="#C2C3C8" stroke-width="1.18171" stroke-miterlimit="10"/>
<path d="M507.773 94.9162L508.438 95.3554L509.354 94.5397L508.727 93.8745L509.354 91.7787L511.563 91.1637L511.149 89.5824H510.182L508.438 87.8254H507.095L506.016 86.7461H498.097L495.424 87.5368L495.097 89.231L495.173 89.3565L495.926 90.4986L494.896 91.5151L496.365 91.1637H497.482L498.097 92.0548H500.707L500.318 93.6612H502.765V95.7947H505.263L507.773 94.9162Z" stroke="#C2C3C8" stroke-width="1.18171" stroke-miterlimit="10"/>
<path d="M506.431 103.265H510.021L510.472 103.729H513.472L514.024 104.281H518.253L518.856 104.884H523.286V105.8H523.989V103.804L525.307 102.675H525.282V98.4453H529.122V96.3369L523.223 92.4464V89.3842L515.555 87.8907L515.354 87.4766L513.359 89.585H511.15L511.564 91.1663L509.356 91.7812L508.728 93.8771L509.356 94.5423L508.439 95.358L507.774 94.9188L505.264 95.7973H502.767V96.9142L504.185 98.3324V100.416H502.102V102.499H503.846V104.62H505.076L506.431 103.265Z" stroke="#C2C3C8" stroke-width="1.18171" stroke-miterlimit="10"/>
<path d="M526.511 125.304L526.624 125.191V123.132H528.732H530.954V124.689H535.848L535.735 125.467L532.121 127.086V127.864H534.342V128.466H535.873V130.449L537.241 131.804L541.019 129.746V128.579H544.746V127.362L540.818 127.324L539.124 125.642V124.638L541.91 122.128H544.357L549.026 121.011V117.297H553.255V110.369H546.955L545.236 108.65H539.601L533.627 102.676H525.306L523.989 103.805V105.801H523.286V104.885H518.856L518.253 104.282H514.024L513.472 103.73H510.472L510.02 103.266H506.431L505.076 104.621H503.846V105.675L505.477 107.307V109.014H503.846L501.223 111.637V113.845H500.52L500.219 116.192L502.93 117.974H507.648L508.853 119.016H509.932L510.673 118.288H512.643L514.777 116.167H517.274L521.842 118.075V119.907L524.202 122.266V123.132H521.278V125.806L519.634 127.312L520.839 128.441L522.131 127.412L523.449 127.337V126.27H524.616L525.331 124.538" stroke="#C2C3C8" stroke-width="1.18171" stroke-miterlimit="10"/>
<path d="M519.281 122.188L518.729 126.982L519.682 127.258L521.276 125.803V123.129H524.2V122.263L521.841 119.904V118.072L517.273 116.164H514.775L514.098 116.842L515.604 118.938L519.281 122.188Z" stroke="#C2C3C8" stroke-width="1.18171" stroke-miterlimit="10"/>
<path d="M490.591 118.639V117.434H496.966L498.108 116.292H500.38L500.217 116.191L500.518 113.844H500.43L498.886 112.301H489.549L486.048 115.815L484.855 115.438L485.634 117.572L485.571 117.697L487.165 118.639H490.591Z" stroke="#C2C3C8" stroke-width="1.18171" stroke-miterlimit="10"/>
<path d="M500.996 119.111V121.032L497.645 124.37H495.424V124.997L496.353 126.541L500.218 130.419H503.381V132.465V132.565L505.1 134.284H513.207L515.102 132.389L519.143 132.741L521.566 134.523H521.616V129.854H524.226V127.583L526.51 125.299L525.331 124.533L524.615 126.265H523.448V127.332L522.13 127.407L520.838 128.436L519.633 127.307L519.683 127.256L518.729 126.98L519.281 122.186L515.604 118.936L514.098 116.84L512.643 118.283H510.672L509.932 119.011H508.852L507.648 117.969H502.929L502.866 117.932L502.264 119.111H500.996Z" stroke="#C2C3C8" stroke-width="1.18171" stroke-miterlimit="10"/>
<path d="M495.424 124.371H497.645L500.996 121.033V119.113H502.263L502.866 117.933L500.381 116.289H498.109L496.967 117.431H490.592V118.636H487.166L485.572 117.695L483.376 121.422L483.012 121.786L482.836 123.054L487.53 126.304H490.027V125.438H491.646V125.526L493.24 124.371H495.424Z" stroke="#C2C3C8" stroke-width="1.18171" stroke-miterlimit="10"/>
<path d="M491.834 134.579H493.24V132.446L492.148 131.354L492.926 130.576V129.195L491.646 128.543V128.756L484.53 128.367L481.455 130.011L485.082 133.651L486.525 135.458L487.341 136.249L487.918 136.788L490.378 138.696L490.165 136.537L491.834 134.579Z" stroke="#C2C3C8" stroke-width="1.18171" stroke-miterlimit="10"/>
<path d="M497.093 140.102L495.675 138.684H493.905L492.675 139.913H491.947L493.177 140.88L492.838 147.293L495.926 149.715L496.064 149.941H496.817V147.82H497.695L499.088 146.427V145.122L496.93 143.704L497.093 140.102Z" stroke="#C2C3C8" stroke-width="1.18171" stroke-miterlimit="10"/>
<path d="M502.602 139.105V139.206L498.059 139.62L497.331 140.335L497.093 140.097L496.93 143.699L499.088 145.117V145.092H500.933V143.586H503.092L503.795 142.883H504.435V141.038L502.602 139.105Z" stroke="#C2C3C8" stroke-width="1.18171" stroke-miterlimit="10"/>
<path d="M517.775 140.038L519.281 140.201V134.528H521.565L519.143 132.746L515.101 132.395L513.206 134.29H505.099L503.38 132.57V132.47L502.815 132.746V134.327L504.183 135.695V137.076H502.602V139.109L504.434 141.042V142.886H505.275L506.103 142.071H508.902L509.856 143.012H513.884V141.468H514.876L514.988 141.581L515.629 140.339L517.775 140.038Z" stroke="#C2C3C8" stroke-width="1.18171" stroke-miterlimit="10"/>
<path d="M559.028 161.169L561.249 158.936H566.822H571.704H572.82H574.603L567.65 144.541L565.366 142.257H560.534L558.313 144.478H550.582V143.424H545.524L542.462 140.374H535.572L530.175 142.646V143.424H523.612L519.282 140.198L517.776 140.035L515.63 140.336L514.99 141.579L515.63 142.231V143.348H515.078V145.105L517.274 145.043L518.529 144.616H523.11L524.691 145.206L523.361 146.624L517.525 146.536L514.525 148.13L516.609 153.288L519.947 160.68H524.49L526.122 162.299H529.447V159.463H532.284L535.534 162.726H540.291L542.211 160.806H546.879V163.077L548.8 161.169H559.028Z" stroke="#C2C3C8" stroke-width="1.18171" stroke-miterlimit="10"/>
<path d="M506.268 157.466L502.854 155.044L503.594 154.216L508.025 157.215V155.295L511.689 156.625V155.885L508.928 154.379L508.351 152.547L503.682 146.535L509.681 144.452L514.689 145.117L515.078 145.104V143.347H515.63V142.23L514.877 141.465H513.886V143.008H509.857L508.903 142.067H506.105L505.276 142.883H503.795L503.092 143.586H500.934V145.092H499.089V146.422L497.696 147.815H496.817V149.936H496.064L498.763 154.128L501.009 154.542L499.679 156.462L500.507 158.972L502.101 160.629L502.264 159.549L503.758 161.131L504.511 160.466L505.515 162.386L506.431 161.382L505.264 158.47L506.268 157.466Z" stroke="#C2C3C8" stroke-width="1.18171" stroke-miterlimit="10"/>
<path d="M514.526 165.563H512.493L512.154 165.211H509.932L509.694 164.973L507.385 164.998V166.642H510.384L511.602 167.558H516.107V166.278H514.526V165.563Z" stroke="#C2C3C8" stroke-width="1.18171" stroke-miterlimit="10"/>
<path d="M513.809 159H512.027V160.029H513.809V159Z" stroke="#C2C3C8" stroke-width="1.18171" stroke-miterlimit="10"/>
<path d="M510.596 160.531H509.68V161.121H510.596V160.531Z" stroke="#C2C3C8" stroke-width="1.18171" stroke-miterlimit="10"/>
<path d="M519.42 163.855H518.441V165.964H519.42V163.855Z" stroke="#C2C3C8" stroke-width="1.18171" stroke-miterlimit="10"/>
<path d="M515.829 157.055H514.75V158.41H515.829V157.055Z" stroke="#C2C3C8" stroke-width="1.18171" stroke-miterlimit="10"/>
<path d="M515.078 153.488H514.023V155.208H515.078V153.488Z" stroke="#C2C3C8" stroke-width="1.18171" stroke-miterlimit="10"/>
<path d="M515.29 159.848H514.361V160.814H515.29V159.848Z" stroke="#C2C3C8" stroke-width="1.18171" stroke-miterlimit="10"/>
<path d="M522.029 162.086H520.586V163.642H522.029V162.086Z" stroke="#C2C3C8" stroke-width="1.18171" stroke-miterlimit="10"/>
<path d="M502.816 134.323V132.742L503.381 132.466V130.42H500.218L496.353 126.542L495.424 124.999V124.371H493.24L491.646 125.526V128.538L492.927 129.19V130.571L492.148 131.349L493.24 132.441V134.574H492.989L495.587 138.678H495.675L497.332 140.335L498.06 139.619L502.603 139.205V137.072H504.184V135.691L502.816 134.323Z" stroke="#C2C3C8" stroke-width="1.18171" stroke-miterlimit="10"/>
<path d="M491.835 134.574L490.166 136.532L490.379 138.691L491.948 139.908H492.676L493.906 138.678H495.588L492.99 134.574H491.835Z" stroke="#C2C3C8" stroke-width="1.18171" stroke-miterlimit="10"/>
<path d="M562.365 33.0596L563.921 36.2849L570.586 37.6278L579.044 38.18L579.596 36.3979L573.146 32.1685L579.596 24.8393L596.276 20.6099V18.7148H589.611L589.059 19.2796H578.718L568.264 24.1616L562.365 33.0596Z" stroke="#C2C3C8" stroke-width="1.18171" stroke-miterlimit="10"/>
<path d="M635.533 9.82809L645.874 13.2668L657.22 13.819V11.0454L642.988 6.70312L635.533 9.82809Z" stroke="#C2C3C8" stroke-width="1.18171" stroke-miterlimit="10"/>
<path d="M659.441 11.8242V16.3799H663.119L670.787 15.0496V13.8197L663.897 11.8242H659.441Z" stroke="#C2C3C8" stroke-width="1.18171" stroke-miterlimit="10"/>
<path d="M752.186 21.0469L752.738 23.4941L760.192 25.3892L771.199 24.1593V22.2768L752.186 21.0469Z" stroke="#C2C3C8" stroke-width="1.18171" stroke-miterlimit="10"/>
<path d="M774.65 23.2227V24.3898L785.983 25.3938V23.2227H774.65Z" stroke="#C2C3C8" stroke-width="1.18171" stroke-miterlimit="10"/>
<path d="M768.752 26.5078V28.7292L777.211 29.9465V28.8296L768.752 26.5078Z" stroke="#C2C3C8" stroke-width="1.18171" stroke-miterlimit="10"/>
<path d="M870.219 36.0334L872.892 37.9536L879.23 36.9998V35.3683L873.883 34.7031L870.219 36.0334Z" stroke="#C2C3C8" stroke-width="1.18171" stroke-miterlimit="10"/>
<path d="M843.777 93.332L864.848 114.391L863.882 114.931L861.46 112.509H859.05L860.882 118.181L868.136 123.929L867.132 124.356L864.221 123.013L864.547 125.435H863.304L859.878 122.021L858.962 117.177L856.502 114.717L851.294 107.84V105.92L847.291 103.247L846.538 100.749L843.777 98.1638L844.868 96.4194L842.697 93.9093L843.777 93.332Z" stroke="#C2C3C8" stroke-width="1.18171" stroke-miterlimit="10"/>
<path d="M905.197 55.2974L907.707 54.7452L921.713 59.1879L924.223 57.4058L920.219 54.8958L922.102 54.3436L920.998 52.1222L910.317 48.558H904.871L869.731 40.664L856.616 39.5596L859.502 41.8939L858.247 43.1489L849.901 39.9863H828.202L825.818 37.5893L809.503 37.263L797.379 34.7529V33.3097L772.919 31.1887L774.362 35.531L756.855 33.8493V37.6144L741.506 28.3901H730.061V30.7244L717.272 29.0552L700.254 28.0512L688.796 30.9503V30.1596L699.363 24.7129V23.2696L693.477 20.0443H680.802V18.714H675.342V17.3711H667.235V20.3831L640.541 24.5999L641.871 28.8293H629.095L632.321 32.3935L631.204 33.6485L626.974 32.5441L622.745 33.5356L618.415 29.4192H617.16L618.817 32.8704L616.596 34.6525L621.716 41.9943L629.61 42.6595L633.275 46.8889L632.283 47.554L629.058 44.542H625.155L622.155 52.072L619.156 50.817L621.49 45.044L617.6 43.3748L614.713 37.4763L612.592 35.3679V30.8373H603.368V34.389L602.025 35.7193L602.364 40.0616L610.145 43.5129L609.254 46.0229L599.791 42.0571L583.112 37.7273L582.673 39.6224L589.789 43.174L586.563 45.6213L585.17 42.6344L577.201 44.5671L576.147 45.6213H573.147V43.3999L559.242 48.0686V50.315H554.824L553.017 48.5078V46.6755H555.075L553.017 44.6173H549.013V48.6208L551.235 49.7377L550.344 52.5113L545.562 51.181L540.894 54.6322L542.789 57.7447L533.338 55.7367L532.887 57.5188L536.89 58.6357L537.003 60.4053L528.883 58.4098L527.879 53.6282L521.767 50.4029V49.0726L539.337 53.6784L542.839 50.177L541.584 47.2905L527.239 42.6344L515.555 40.5134V40.3377L510.773 42.4085V45.6338L514.538 46.7508L512.48 50.3025L515.819 53.9671V57.8702L517.375 59.4264V61.5348L520.374 64.5342V66.0654L513.923 71.3238L515.593 72.993H518.592V74.248H515.931L513.158 75.6787V76.9337L511.702 78.1009L513.547 81.5521L512.292 82.3804V83.6355H514.187V85.1917L515.517 87.8648L523.185 89.3708V92.4205L529.084 96.311V98.432H525.244V102.649H533.589L539.551 108.648H545.198L546.955 110.405H553.23V117.345H549.001V121.11L552 120.395V121.499L549.779 122.955H548.085V123.733L549.917 124.988L548.361 125.992V127.498L546.692 127.937L550.695 130.447H552.942L557.347 134.84L558.978 134.476L568.88 138.241H572.382L578.544 141.027L581.443 143.863L583.79 141.228L579.498 137.187V133.296L576.159 131.74V129.355L578.669 126.845H580.451L582.723 124.561L577.703 119.541H574.54V116.592H572.319V109.589L574.314 107.581L577.603 110.869L578.858 109.614L576.737 107.493L583.526 103.829H588.546L598.335 108.058L600.331 106.05H605.677L607.622 107.995H614.462V104.833L609.831 103.113L611.274 98.8838L609.944 96.2106L611.199 94.8803L630.212 89.9858L636.324 90.0987L638.834 94.4411H646.728V97.3276H649.728L654.459 92.5962V95.1062L669.306 107.117L671.64 105.171L674.15 107.443L679.71 106.451L685.885 112.614H690.829L695.498 113.68L705.287 107.506H712.29V110.179H723.296V106.64L721.627 104.983V101.469L733.311 105.146L737.252 109.087H741.82L743.289 107.619L753.655 110.982L755.826 112.978H768.778L772.129 109.639L783.348 112.149L786.022 109.351V101.494L783.348 98.8336L785.269 96.9134H797.354L812.49 112.049H819.543L826.696 119.202H831.879V116.015H838.054V128.351H832.883L838.117 137.074L839.058 136.132H847.178L851.847 116.052L845.948 102.599L842.509 98.2563L832.382 93.8136V96.5997L819.831 92.4833L827.173 74.9132H848.182L852.637 76.4694V78.5903L860.167 76.256V74.8002H856.816V66.6929H864.836L869.053 70.9097L872.278 67.6843L870.396 65.0237L873.834 64.9108L876.834 69.4664L873.947 77.2475L875.391 78.7033L872.554 85.8694L893.3 106.615L897.065 102.85L895.119 100.904L897.78 98.2312L894.015 94.4662H897.19V92.7091L893.852 89.3834L895.458 87.7644L889.183 81.0878H885.518L881.615 73.4197H886.397L887.652 74.6747H889.434V72.5035H898.608L905.661 65.4379L912.451 66.216L912.564 64.7727L899.876 58.4977L902.248 56.4395L898.746 53.9294L900.415 53.0509L905.197 55.2974ZM748.622 98.4947L744.619 101.833V103.502L740.352 105.171L737.014 103.502L741.858 101.996V100.164L743.514 98.4947L745.773 96.2483V89.1575H746.853L748.685 94.3281L748.622 98.4947Z" stroke="#C2C3C8" stroke-width="1.18171" stroke-miterlimit="10"/>
<path d="M376.775 55.0838L380.779 61.0827L389.677 62.8648L403.683 55.0838L399.466 51.5195L385.222 54.4186L382.774 51.5195L376.775 55.0838Z" stroke="#C2C3C8" stroke-width="1.18171" stroke-miterlimit="10"/>
<path d="M828.578 212.095L832.695 217.428H834.251V204.979L831.352 204.414L828.578 212.095Z" stroke="#C2C3C8" stroke-width="1.18171" stroke-miterlimit="10"/>
<path d="M793.777 227.434V231.224H797.781L800.165 228.827V226.43H795.66L793.777 227.434Z" stroke="#C2C3C8" stroke-width="1.18171" stroke-miterlimit="10"/>
<path d="M824.675 142.145L826.056 141.09L829.457 142.145L828.93 140.375L832.82 138.179V136.597L833.485 136.07L835.406 137.124H838.054L838.091 137.087L832.858 128.365H838.029V116.015H831.854V119.203H826.671L819.517 112.049H812.464L797.329 96.9141H785.23L783.323 98.8342L785.983 101.507V109.389L783.323 112.187L779.821 111.397V117.521H788.744L796.576 122.265V123.445H785.745V127.361H781.064V129.983H777.525L776.069 128.528H774.224V131.276L776.897 133.61L774.312 135.204V137.288L771.89 138.781H764.309L759.553 142.044L748.622 139.873V138.028H730.387L725.605 131.916L717.711 127.699H708.926V123.131L703.253 118.575L695.585 114.911L695.196 113.618L692.335 112.966V115.927H689.9V117.898L691.356 119.354V120.91H683.575V125.465L685.018 126.921V128.277L681.567 127.586L677.576 129.03L682.245 135.367L681.353 138.919L681.228 138.894L681.517 141.153H679.734H678.241V144.09H672.23V146.876H668.891V145.872L664.725 147.717V149.938L664.135 149.9V152.21L665.528 153.603L666.494 152.649L670.234 154.293L669.732 156.552L670.811 157.882L669.318 159.213H671.903L674.401 161.472V163.643L681.077 166.14L685.068 163.718L689.335 165.475V168.726L687.955 170.106V170.972H685.495L686.499 173.482H688.494L689.335 175.729L687.741 177.147L686.411 175.979L685.068 177.147L687.239 178.979L687.164 180.987L695.912 186.158L697.92 184.15L717.021 194.993L722.028 193.499L723.02 194.077V196.411H723.936L726.446 192.495L732.106 194.742H735.62V193.575L740.364 188.818L743.451 190.161L745.71 188.58L748.459 190.663L747.041 192.157L750.63 193.324L751.621 192.157L755.637 195.746V203.339L753.88 205.083V209.764H758.298L759.139 212.927H761.473V216.843H763.632V219.177H767.723V220.344H769.643V215.6H770.898V214.433H777.236L779.319 213.755V211.923H780.813L782.645 213.755H785.745V216.767L790.639 219.177L791.769 217.658L797.555 219.102V223.318H799.437L799.111 219.541L816.568 213.316L824.801 204.418L830.461 192.408V186.961L825.127 185.179L827.8 181.84L819.241 170.734L814.008 167.947L817.572 159.602H821.688V157.932L814.849 155.887L811.058 159.664L803.554 152.159L812.514 143.211L816.405 147.102L812.954 150.541L815.238 152.825L822.128 148.382L825.441 143.701L824.675 142.145Z" stroke="#C2C3C8" stroke-width="1.18171" stroke-miterlimit="10"/>
<path d="M655.663 143.536L651.66 142.093L653.668 139.871L652.701 139.319L652.99 138.917V137.361H659.892V135.918H662.34L663.846 137.424H676.459L681.353 138.917L681.516 141.151H678.241V144.088H672.229V146.874H668.891V145.87L664.724 147.715V149.936L662.616 149.823V150.715L654.973 150.351L654.496 149.874H650.216L649.664 148.594L652.049 146.987L654.22 148.041L654.345 147.389L658.11 147.426L660.558 144.979L655.663 142.093V143.536Z" stroke="#C2C3C8" stroke-width="1.18171" stroke-miterlimit="10"/>
<path d="M838.254 153.716L833.02 149.486L837.802 144.705L836.246 142.145L836.861 138.317L838.053 137.125H835.405L833.485 136.07L832.82 136.597V138.179L828.929 140.375L829.456 142.145L826.055 141.09L824.675 142.145L825.44 143.701L822.127 148.382L826.469 150.039L825.905 155.385L835.129 156.941L838.266 153.728L838.254 153.716Z" stroke="#C2C3C8" stroke-width="1.18171" stroke-miterlimit="10"/>
<path d="M845.583 160.491L838.266 153.727L835.128 156.939H835.141L835.354 158.935L833.133 160.165L836.91 163.491L838.027 169.389L846.034 166.942L845.583 160.491Z" stroke="#C2C3C8" stroke-width="1.18171" stroke-miterlimit="10"/>
<path d="M789.773 310.615H785.995V304.504H783.536V301.052L764.861 286.821L762.853 281.474H757.959L756.402 279.918H752.186L766.191 294.376V302.056H768.639L772.868 311.946L785.092 324.182H789.773V310.615Z" stroke="#C2C3C8" stroke-width="1.18171" stroke-miterlimit="10"/>
<path d="M812.451 327.96L805.887 326.404V328.626L798.332 327.96V326.291L790.99 324.961L787.1 328.073L791.881 328.738L791.329 330.069L817.684 335.415V331.299L812.451 330.182V327.96Z" stroke="#C2C3C8" stroke-width="1.18171" stroke-miterlimit="10"/>
<path d="M834.137 333.294L828.803 332.629L827.686 334.574L819.24 333.294V335.076L826.795 336.519L834.137 335.415V333.294Z" stroke="#C2C3C8" stroke-width="1.18171" stroke-miterlimit="10"/>
<path d="M854.205 333.105L835.605 334.574V335.415H842.031L854.205 334.574V333.105Z" stroke="#C2C3C8" stroke-width="1.18171" stroke-miterlimit="10"/>
<path d="M832.945 338.026V339.77H835.606L837.526 341.691L839.409 339.821L836.986 337.398L832.945 338.026Z" stroke="#C2C3C8" stroke-width="1.18171" stroke-miterlimit="10"/>
<path d="M855.297 334.574L847.365 341.69L849.7 342.367L861.547 334.574L860.882 333.105L855.297 334.574Z" stroke="#C2C3C8" stroke-width="1.18171" stroke-miterlimit="10"/>
<path d="M798.559 312.058L795.221 310.941L793.891 313.175L796.777 314.844L798.559 312.058Z" stroke="#C2C3C8" stroke-width="1.18171" stroke-miterlimit="10"/>
<path d="M790.439 309.499V313.502H792.435V311.507L791.217 307.729L787.879 307.277L788.431 309.499H790.439Z" stroke="#C2C3C8" stroke-width="1.18171" stroke-miterlimit="10"/>
<path d="M859.149 309.334L852.598 307.941V310.05H857.931V311.619L859.149 309.334Z" stroke="#C2C3C8" stroke-width="1.18171" stroke-miterlimit="10"/>
<path d="M858.385 313.504V315.06L860.832 317.181L862.714 315.336L861.547 313.504H858.385Z" stroke="#C2C3C8" stroke-width="1.18171" stroke-miterlimit="10"/>
<path d="M864.723 312.949L866.266 315.334H870.835L873.169 317.179L874.951 315.334L873.169 312.949H864.723Z" stroke="#C2C3C8" stroke-width="1.18171" stroke-miterlimit="10"/>
<path d="M865.5 302.267V300.159L868.274 301.05V299.607L867.132 298.465L868.274 295.49H866.391L868.274 292.591L866.831 292.039L864.722 293.043L862.714 298.829L863.718 300.159V302.38H862.162V304.501H866.718L865.5 302.267Z" stroke="#C2C3C8" stroke-width="1.18171" stroke-miterlimit="10"/>
<path d="M876.331 302.22L873.395 301.555V303.726H876.331V302.22Z" stroke="#C2C3C8" stroke-width="1.18171" stroke-miterlimit="10"/>
<path d="M898.08 306.825L896.072 308.833V310.942H894.189L890.738 314.393H887.399V310.728H886.182L886.948 307.051L885.956 304.277H883.509L882.505 303.273H879.618L878.388 304.503H873.055L874.95 308.168H879.179V310.389H884.061V311.946H878.388V312.95L883.07 317.179L884.4 315.334L898.632 322.852L900.853 330.52H897.854L896.963 333.18H905.082L907.304 337.41L909.751 337.698V312.209L898.08 306.825Z" stroke="#C2C3C8" stroke-width="1.18171" stroke-miterlimit="10"/>
<path d="M833.535 315.623H835.606V323.178H838.58V313.502L840.927 311.167L842.082 312.334V316.175L843.224 317.317V320.404H844.906V319.287H848.143V317.292H846.7L844.855 315.447L846.311 314.004L842.697 310.389L848.42 304.666V303.499L845.834 306.084H843.036L841.931 307.189H839.409V305.495H838.467V300.6L840.249 299.722L852.825 300.826L857.18 296.459L856.213 295.492L852.561 299.132L841.479 296.597L836.861 299.157V304.503H835.606V309.272L833.535 311.355V315.623Z" stroke="#C2C3C8" stroke-width="1.18171" stroke-miterlimit="10"/>
<path d="M803.767 313.504H810.004V314.847H814.121V313.504H819.241V318.624L825.027 316.177V308.509L829.407 304.116V298.168H834.138L834.69 296.599L831.352 293.273L832.256 292.37L828.591 288.692L830.524 286.76L828.767 285.316H823.182V289.571L819.844 297.164H815.853L814.849 296.16H812.678L810.67 298.168H806.428L804.457 295.884H803.002L802.387 293.486L799.086 296.8V302.058L803.767 306.739V313.504Z" stroke="#C2C3C8" stroke-width="1.18171" stroke-miterlimit="10"/>
<path d="M828.126 273.141L821.349 283.03L820.295 281.976L812.84 289.431L808.009 289.933V295.881H804.457L806.427 298.165H810.669L812.677 296.157H814.849L815.853 297.161H819.843L823.182 289.569V285.314H828.767L830.524 286.757L836.133 281.148L828.126 273.141Z" stroke="#C2C3C8" stroke-width="1.18171" stroke-miterlimit="10"/>
<path d="M781.54 282.702L777.173 277.921L774.387 279.916H772.893V277.896L770.22 276.051L769.229 276.942L770.308 278.147L771.199 285.375L774.424 288.601V290.822L782.431 297.373L784.1 299.381H785.205L785.544 294.713L781.54 290.709V282.702Z" stroke="#C2C3C8" stroke-width="1.18171" stroke-miterlimit="10"/>
<path d="M654.885 157.383V153.831H659.114V160.131L665 157.935L670.209 157.144L669.732 156.554L670.234 154.295L666.494 152.651L665.528 153.605L664.135 152.212V149.903L662.616 149.828V150.719L654.973 150.355L654.496 149.878H650.216L649.664 148.598L652.049 146.991L654.22 148.045L654.345 147.393L652.877 146.15L653.881 145.272L652.137 144.293L647.957 149.049H644.707V150.794L648.798 155.387L647.267 158.136L648.66 160.131L654.885 157.383Z" stroke="#C2C3C8" stroke-width="1.18171" stroke-miterlimit="10"/>
<path d="M644.593 188.19L647.292 187.023V183.095L648.597 181.79H651.044V180.459L652.5 179.229H654.709V180.459H656.001V174.511H658.863V173.394L656.83 171.95V171.223H661.159V164.722L659.44 163.002V161.107L663.895 159.476L668.564 160.128L669.806 159.212H669.317L670.81 157.882L670.208 157.141L665 157.932L659.114 160.128V153.828H654.884V157.38L648.66 160.128L647.266 158.133L647.041 158.547L643.15 157.317V157.995H638.143V162.048L633.587 163.881V165.776H631.253L627.086 164.27V172.503L627.977 173.394L629.747 180.735H632.307V183.522L629.583 186.232L630.575 187.224L635.256 188.19H644.593Z" stroke="#C2C3C8" stroke-width="1.18171" stroke-miterlimit="10"/>
<path d="M665.589 208.194V205.081L662.351 201.844V199.083H659.665V197.187L662.451 194.401H664.133L664.911 195.167H667.446L668.111 191.402L670.697 188.817V186.482H672.441V184.236L674.336 182.341V178.977L675.328 177.986V176.693H673.069V174.522L670.822 172.276V170.305L669.718 169.201V168.059H676.357L679.658 165.599L674.399 163.641V161.47L671.902 159.211H669.806L668.563 160.127L663.895 159.474L659.439 161.106V163.001L661.159 164.72V171.221H656.829V171.949L658.862 173.393V174.509H656.001V180.458H654.708V179.228H652.499L651.043 180.458V181.788H648.596L647.291 183.094V187.022L644.593 188.189H635.255L630.574 187.223L635.306 191.967H637.088V196.409H639.761V199.195H636.648L634.527 201.304V203.939L635.306 204.09H651.658L657.996 210.428V208.194H665.589Z" stroke="#C2C3C8" stroke-width="1.18171" stroke-miterlimit="10"/>
<path d="M693.916 191.164L705.675 197.577L716.682 199.911L721.351 200.338L722.104 199.083L721.024 197.163L720.836 193.85L717.021 194.992L697.919 184.148L695.912 186.156L695.133 185.692L693.916 187.16V191.164Z" stroke="#C2C3C8" stroke-width="1.18171" stroke-miterlimit="10"/>
<path d="M727.938 199.244L728.666 198.165L733.774 199.244L734.276 196.584L731.942 196.069L732.055 194.714L726.445 192.492L723.935 196.408H723.483L723.27 198.077L727.938 199.244Z" stroke="#C2C3C8" stroke-width="1.18171" stroke-miterlimit="10"/>
<path d="M736.774 210.59H735.443V213.088H733.36V208.294H734.828L737.2 205.922L735.87 204.579H727.11V202.295H725.566L723.772 200.5L722.027 202.257L724.776 205.005H722.856V208.344H724.362L725.353 209.335L724.688 210.502L727.675 218.572L733.385 216.426V214.431H735.506L737.727 219.99L737.74 220.003L739.447 219.513L736.774 210.59Z" stroke="#C2C3C8" stroke-width="1.18171" stroke-miterlimit="10"/>
<path d="M740.954 215.76L739.448 214.593V213.012H740.628V210.251H743.037L744.619 205.758L743.477 204.603L744.92 203.16V199.784L747.455 197.249H749.839V195.617L750.542 194.914V193.295L747.041 192.153L748.459 190.66L745.71 188.577L743.451 190.158L740.364 188.815L735.62 193.571V194.739H732.106L732.056 194.714L731.943 196.069L734.277 196.583L733.775 199.244L728.667 198.165L727.94 199.244L723.271 198.077L723.484 196.408H723.02V194.073L722.029 193.496L720.836 193.848L721.025 197.161L722.104 199.081L721.351 200.336L716.682 199.909L705.676 197.575L693.916 191.162V187.158L695.134 185.69L687.164 180.984L687.24 178.976L685.069 177.143L686.411 175.976L687.742 177.143L689.336 175.725L688.495 173.479H686.499L685.495 170.969H687.955V170.103L689.336 168.722V165.472L685.069 163.715L681.078 166.137L679.659 165.597L676.359 168.057H669.72V169.199L670.824 170.304V172.274L673.071 174.52V176.692H675.33V177.984L674.338 178.976V182.339L672.443 184.234V186.481H670.699V188.815L668.113 191.4L667.448 195.165H664.913L664.135 194.4H662.453L659.667 197.186V199.081H662.353V201.842L665.591 205.08V208.192H657.998V210.426L661.111 213.539H664.775V215.484H660.495L667.837 222.826L670.787 219.876V215.873H672.569L676.685 238.225L682.245 247.123V249.67L688.972 262.798V267.19L692.021 270.24H695.247V265.797H697.468V261.681H700.367V239.781L707.044 238.777V236.442L715.49 226.653L720.271 223.102V219.763L725.379 217.203V219.425L727.676 218.571L724.689 210.502L725.354 209.334L724.363 208.343H722.857V205.005H724.777L722.029 202.256L723.773 200.499L725.568 202.294H727.111V204.578H735.871L737.202 205.921L734.83 208.293H733.361V213.087H735.445V210.589H736.775L738.657 216.839H740.954V215.76Z" stroke="#C2C3C8" stroke-width="1.18171" stroke-miterlimit="10"/>
<path d="M766.518 256.296L764.597 252.706V248.665L761.046 244.699V242.654H762.464V239.316L757.469 231.647V225.849H761.385V224.431H762.891V223.314H764.547L767.496 219.173H763.631V216.838H761.472V212.923H759.138L758.297 209.76H753.88V205.079L755.637 203.334V195.742L751.621 192.152L750.629 193.319L750.541 193.294V194.913L749.838 195.616V197.248H747.454L744.919 199.783V203.159L743.476 204.602L744.618 205.757L743.036 210.25H740.627V213.011H739.447V214.592L740.953 215.759V216.838H738.656L739.447 219.511L737.74 220.001L747.065 233.655V240.997H751.52L754.959 238.224L755.185 234.998L758.297 239.328L763.531 254.564L763.004 266.637L766.518 257.576V256.296Z" stroke="#C2C3C8" stroke-width="1.18171" stroke-miterlimit="10"/>
<path d="M776.143 253.238L775.089 249.624L778.038 246.674H784.928V241.504L782.268 238.843V234.338L779.205 231.276H776.984L774.474 233.773L772.805 232.116L770.245 234.664H769.027V226.657H766.467V224.047L764.71 223.105L764.547 223.319H762.89V224.436H761.384V225.854H757.469V231.652L762.464 239.32V242.658H761.045V244.704L764.597 248.67V252.711L766.517 256.3V257.581L763.003 266.642L762.853 269.917L769.228 276.945L770.22 276.054L772.893 277.899V279.92H774.386L777.172 277.924L774.424 274.925H771.537L768.638 266.353H766.53L765.526 264.132L767.634 255.685V250.452H771.199V253.238H774.198L775.315 255.798L776.871 255.234L777.147 255.485L777.26 253.238H776.143Z" stroke="#C2C3C8" stroke-width="1.18171" stroke-miterlimit="10"/>
<path d="M795.773 241.891L784.201 227.773L790.64 219.176L785.745 216.766V213.754H782.645L780.813 211.922H779.32V213.754L777.236 214.432H770.898V215.599H770.811L773.484 218.26V220.205L776.922 222.1L777.588 221.435L782.03 224.987L780.65 226.367H779.357L778.554 227.17L791.631 240.247L790.916 240.963L792.748 242.782L793.777 254.128L788.318 256.462V258.96H789.322V260.127H785.657V261.884H784.114L784.992 262.687V268.585H786.762L798.772 257.792L799.337 253.124L795.773 241.891Z" stroke="#C2C3C8" stroke-width="1.18171" stroke-miterlimit="10"/>
<path d="M788.318 256.463L793.777 254.128L793.037 246.059H788.042V248.682L783.486 246.674H778.039L775.09 249.623L776.144 253.237H777.261L777.148 255.484L779.244 259.926L782.005 259.952L784.113 261.884H785.657V260.127H789.322V258.96H788.318V256.463Z" stroke="#C2C3C8" stroke-width="1.18171" stroke-miterlimit="10"/>
<path d="M545.637 188.854L546.879 182.277V175.726H548.021L549.992 177.709H551.473L556.969 174.02L558.639 178.224L552.803 180.985L555.049 183.57L554.221 186.319H551.799L549.879 190.071L545.637 188.854Z" stroke="#C2C3C8" stroke-width="1.18171" stroke-miterlimit="10"/>
<path d="M703.252 118.576L708.925 123.132V127.7H717.71L725.604 131.917L730.386 138.029H748.621V139.873L759.552 142.045L764.309 138.782H771.889L774.311 137.288V135.205L776.896 133.611L774.223 131.277V128.528H776.068L777.524 129.984H781.063V127.361H785.744V123.445H796.575V122.266L788.743 117.522H779.82V111.397L772.09 109.678L768.751 113.016H755.8L753.628 111.008L743.249 107.645L741.781 109.113H737.213L733.272 105.172L721.601 101.508V105.009L723.27 106.678V110.18H712.263V107.507H705.26L695.471 113.681L695.195 113.619L695.584 114.911L703.252 118.576Z" stroke="#C2C3C8" stroke-width="1.18171" stroke-miterlimit="10"/>
<path d="M413.057 205.843L443.717 229.262L450.72 227.429L470.436 211.892L471.239 211.252V207.249H464.061L461.563 201.25V185.399L455.564 169.724L458.564 167.892L458.438 158.969H452.301L448.888 160.801L447.633 159.872L435.961 161.127L432.121 163.637H430.376L425.532 166.185H425.381L427.201 178.221H421.867V182.563L402.465 191.398V195.301V197.748L402.904 198.087V197.246V198.087L413.057 205.843Z" stroke="#C2C3C8" stroke-width="1.18171" stroke-miterlimit="10"/>
<path d="M554.008 236.356V247.287L558.639 245.028L565.064 246.158L572.808 253.939L572.908 254.039L574.715 252.521L563.922 242.556L560.27 232.039L556.016 236.356H554.008Z" stroke="#C2C3C8" stroke-width="1.18171" stroke-miterlimit="10"/>
<path d="M572.808 253.938L570.988 256.686V260.489L575.017 260.125L577.916 257.05L575.494 253.235L574.716 252.52L572.908 254.038L572.808 253.938Z" stroke="#C2C3C8" stroke-width="1.18171" stroke-miterlimit="10"/>
<path d="M504.986 250.077V241.455H511.474V224.525H510.182V226.772L484.416 211.348L480.676 213.807L480.99 213.933L484.416 224.211V237.113L474.828 250.077H475.744L477.614 255.787L481.329 251.709L481.919 263.556H478.33L477.664 265.802L482.835 272.479L482.182 273.609L486.249 271.764L487.253 273.056L494.005 267.095H498.711L507.245 259.452L508.211 258.574L504.986 250.077Z" stroke="#C2C3C8" stroke-width="1.18171" stroke-miterlimit="10"/>
<path d="M513.244 216.978V224.521H511.475V241.451H504.986V250.073L508.212 258.569L507.245 259.447L511.186 263.388V268.295L522.456 279.578V282.439L534.454 287.095H543.402L545.485 285.012L546.013 284.485H552.463V279.59L545.021 272.136H541.683V269.136H545.573L554.007 253.085V247.952V247.286V236.355H556.015L560.269 232.038L560.257 232L555.701 230.331L554.471 217.756L549.69 214.091L548.171 210.941L542.122 216.978H513.244Z" stroke="#C2C3C8" stroke-width="1.18171" stroke-miterlimit="10"/>
<path d="M542.122 216.975L548.171 210.939L536.01 185.838H537.566L543.239 194.297H544.243L545.234 188.286L542.21 182.149H536.537L532.948 180.141L526.121 183.567L518.365 180.567H513.244V216.975H542.122Z" stroke="#C2C3C8" stroke-width="1.18171" stroke-miterlimit="10"/>
<path d="M387.342 211.871H391.233V201.755H402.904V198.091L402.465 197.752V195.305H388.12L381.67 206.085L377.892 209.649L376.06 214.707L373.889 216.866V219.878H387.342V211.871Z" stroke="#C2C3C8" stroke-width="1.18171" stroke-miterlimit="10"/>
<path d="M527.237 365.771L521.113 370.666H515.604L518.44 380.555H523.359L527.363 388.562H534.115H535.044L540.202 377.807V367.867L536.286 363.964H532.333V361.441L527.237 363.211V365.771Z" stroke="#C2C3C8" stroke-width="1.18171" stroke-miterlimit="10"/>
<path d="M531.505 305.707L527.828 312.384H528.995H531.744V311.041H534.706V307.276H531.505V305.707Z" stroke="#C2C3C8" stroke-width="1.18171" stroke-miterlimit="10"/>
<path d="M533.061 406.684H536.964L537.955 404.902H536.964V402.016H533.061V406.684Z" stroke="#C2C3C8" stroke-width="1.18171" stroke-miterlimit="10"/>
<path d="M389.225 245.78V242.115H391.233H411.024V206.084L413.057 205.846L402.904 198.09V201.754H391.233V211.87H387.342V219.877H373.889V220.655L375.332 223.315V238.438H382.674L389.225 245.78Z" stroke="#C2C3C8" stroke-width="1.18171" stroke-miterlimit="10"/>
<path d="M429.158 243.359H427.627L419.281 250.626L416.696 249.961L411.438 260.879H412.027L415.692 264.544H420.95V260.151L426.598 259.712H429.786H432.961L433.45 259.185L437.454 254.868L429.158 243.359Z" stroke="#C2C3C8" stroke-width="1.18171" stroke-miterlimit="10"/>
<path d="M531.745 312.382H528.996L531.142 318.519L534.706 314.415V311.039H531.745V312.382Z" stroke="#C2C3C8" stroke-width="1.18171" stroke-miterlimit="10"/>
<path d="M508.211 368.205L504.434 364.428V351.639H511.098V344.699H504.597V330.179H500.593V327.681L495.586 328.509V333.354H489.587L486.751 325.184H471.816L475.97 336.077H474.075L476.635 343.632V348.979L469.846 362.206V369.209H500.43L508.211 368.205Z" stroke="#C2C3C8" stroke-width="1.18171" stroke-miterlimit="10"/>
<path d="M470.524 310.839H477.615V303.661L476.761 302.807V300.862L479.045 298.59L477.125 296.658H474.615V293.156H468.616V298.327H463.207L459.844 305.719L467.549 317.114L470.524 315.131V310.839Z" stroke="#C2C3C8" stroke-width="1.18171" stroke-miterlimit="10"/>
<path d="M468.616 293.156H463.232V298.264L463.207 298.327H468.616V293.156Z" stroke="#C2C3C8" stroke-width="1.18171" stroke-miterlimit="10"/>
<path d="M391.233 253.347V252.042V242.115H389.225V245.779L382.674 238.438H375.332V240.671L373.889 244.675V253.347H384.255H391.233Z" stroke="#C2C3C8" stroke-width="1.18171" stroke-miterlimit="10"/>
<path d="M568.578 290.244L571.176 287.658L567.487 283.969L564.65 286.818V288.148H559.568L555.89 284.483H552.464H546.013L545.486 285.01L550.306 294.36L545.687 301.175L547.519 301.715V305.555L546.503 306.571L558.4 313.173L557.811 316.172L563.709 319.875L570.26 307.726L570.599 307.35L568.578 305.329V290.244Z" stroke="#C2C3C8" stroke-width="1.18171" stroke-miterlimit="10"/>
<path d="M474.616 293.156H484.418V290.069L479.247 278.811L482.184 273.603L482.837 272.473L477.666 265.797L478.331 263.55H481.921L481.331 251.703L477.616 255.782L478.331 257.953L468.743 277.217L466.233 274.469H462.48L458.766 283.618H459.368L463.233 287.483V293.156H468.617H474.616Z" stroke="#C2C3C8" stroke-width="1.18171" stroke-miterlimit="10"/>
<path d="M558.399 313.172L546.502 306.571L544.017 309.055V311.503H538.909V305.328H534.705V307.273V311.038V314.414L531.14 318.518L530.789 318.92L536.048 335.185L546.376 338.598L547.418 342.351L548.635 346.693H558.977L566.933 343.393V341.184H563.256V320.727L563.708 319.874L557.809 316.171L558.399 313.172Z" stroke="#C2C3C8" stroke-width="1.18171" stroke-miterlimit="10"/>
<path d="M548.637 346.698L547.419 342.355L546.051 349.785L547.419 355.458H550.557V363.791L548.298 367.794L544.796 363.051L546.93 360.917V357.29H543.215L541.345 355.646L532.008 359.097L533.012 361.206L532.334 361.444V363.967H536.287L540.203 367.87V377.809L535.045 388.565H534.116L536.965 395.241V402.019V404.905H537.957H539.011V400.462L547.181 395.129V381.173L566.935 361.432V343.397L558.978 346.698H548.637Z" stroke="#C2C3C8" stroke-width="1.18171" stroke-miterlimit="10"/>
<path d="M395.348 270.294L395.762 269.805L392.675 263.555H387.667L386.613 266.416L386.776 266.579V272.365L391.119 275.389L395.348 270.294Z" stroke="#C2C3C8" stroke-width="1.18171" stroke-miterlimit="10"/>
<path d="M402.1 275.639V272.389L395.349 270.293L391.119 275.388L404.51 284.763L405.439 278.978L402.1 275.639Z" stroke="#C2C3C8" stroke-width="1.18171" stroke-miterlimit="10"/>
<path d="M373.889 253.344V254.009L379.862 259.82L384.255 253.344H373.889Z" stroke="#C2C3C8" stroke-width="1.18171" stroke-miterlimit="10"/>
<path d="M426.598 259.707L420.95 260.146V264.539H422.155V270.588L420.285 272.47V282.335L423.699 283.59L432.785 278.595L429.786 259.707H426.598Z" stroke="#C2C3C8" stroke-width="1.18171" stroke-miterlimit="10"/>
<path d="M438.207 254.039L437.454 254.855L433.45 259.172L432.961 259.712L435.546 262.962C435.546 262.962 435.885 273.002 435.998 276.83H439.336V267.493L443.101 261.481V256.461L438.207 254.039Z" stroke="#C2C3C8" stroke-width="1.18171" stroke-miterlimit="10"/>
<path d="M432.962 259.75H429.787L432.799 278.575L435.999 276.818C435.886 272.965 435.548 262.95 435.548 262.95L432.962 259.75Z" stroke="#C2C3C8" stroke-width="1.18171" stroke-miterlimit="10"/>
<path d="M402.466 191.402L421.868 182.566V178.224H427.202L425.382 166.189H417.313L415.279 164.168H412.807L409.808 170.732L401.914 175.4L401.575 177.283L398.902 181.512L400.132 185.29L393.016 194.74H388.447L388.121 195.305H402.466V191.402Z" stroke="#C2C3C8" stroke-width="1.18171" stroke-miterlimit="10"/>
<path d="M488.583 410.915V412.421L494.092 413.249L497.142 411.492V386.894H500.869V372.436L508.098 370.667L515.779 371.244L515.603 370.667H514.549V370.378V368.885H508.876L508.211 368.207L500.43 369.211H469.846V371.106L479.409 390.672L484.303 411.919H485.521L485.596 412.044L486.977 409.748L488.583 410.915Z" stroke="#C2C3C8" stroke-width="1.18171" stroke-miterlimit="10"/>
<path d="M499.59 405.327H502.928L506.517 399.065H509.103L510.27 401.198H515.277L527.175 388.184L523.36 380.554H518.44L515.779 371.241L508.099 370.664L500.87 372.434V386.891H497.143V397.948L500.092 402.014L499.59 405.327Z" stroke="#C2C3C8" stroke-width="1.18171" stroke-miterlimit="10"/>
<path d="M537.957 404.904L536.965 406.686H533.062V402.018H536.965V395.241L534.116 388.564H527.364L527.176 388.188L515.279 401.202H510.271L509.104 399.068H506.519L502.929 405.331H499.591L500.093 402.018L497.144 397.951V411.493L494.094 413.25L488.585 412.422V410.916L486.978 409.749L485.598 412.045L491.421 423.591V428.599H488.974L495.876 435.489L517.939 430.431L539.011 409.359V404.904H537.957Z" stroke="#C2C3C8" stroke-width="1.18171" stroke-miterlimit="10"/>
<path d="M577.715 368.77V372.548L578.769 373.602V378.886L576.711 383.78H575.381L573.762 385.399V389.453L575.958 391.649V396.117L577.602 399.129H579.71V400.246H582.497L583.714 399.016H586.826L590.391 387.671L596.841 372.109V367.879L598.172 365.319L596.728 361.429L598.172 360.312L599.176 363.098L600.732 360.312L599.289 358.09V351.64L596.226 348.59L594.946 349.87V353.422H592.173V357.877L586.161 362.32H579.598V365.884L577.715 368.77Z" stroke="#C2C3C8" stroke-width="1.18171" stroke-miterlimit="10"/>
<path d="M434.819 242.239H441.696L445.047 238.888V228.923L443.717 229.262L413.057 205.844L411.024 206.082V242.113H391.232V252.041H399.766L402.691 260.876H411.438L416.697 249.957L419.282 250.622L427.628 243.356H429.159L429.623 244.008H433.049L434.819 242.239Z" stroke="#C2C3C8" stroke-width="1.18171" stroke-miterlimit="10"/>
<path d="M477.614 255.78L475.744 250.07H475.104L471.226 252.755L469.62 251.161H464.713L462.843 253.031H459.316L456.505 250.233L454.723 252.027H453.129L450.782 249.668H443.804V251.927L442.386 253.345V256.081L443.127 256.458V258.428V261.465L439.387 267.464V276.801H445.273L450.393 283.616H458.764L462.479 274.467H466.231L468.741 277.215L478.33 257.951L477.614 255.78Z" stroke="#C2C3C8" stroke-width="1.18171" stroke-miterlimit="10"/>
<path d="M484.417 237.108V224.206L480.99 213.928L480.677 213.802L475.468 211.895H470.436L450.72 227.432L445.047 228.925V238.89L441.696 242.241H434.819L433.049 244.01H429.623L437.454 254.866L438.207 254.038L442.386 256.083V253.347L443.805 251.929V249.67H450.782L453.129 252.03H454.723L456.505 250.235L459.316 253.034H462.843L464.713 251.164H469.62L471.227 252.758L475.104 250.072H474.828L484.417 237.108Z" stroke="#C2C3C8" stroke-width="1.18171" stroke-miterlimit="10"/>
<path d="M402.692 260.878L399.768 252.043H391.234V253.348H384.256L379.863 259.824L386.615 266.413L387.669 263.551H392.677L395.764 269.801L395.35 270.291L400.897 272.023L403.232 260.878H402.692Z" stroke="#C2C3C8" stroke-width="1.18171" stroke-miterlimit="10"/>
<path d="M420.952 264.54H415.693L412.028 260.875H411.439H403.231L400.896 272.019L402.101 272.383V275.634L405.44 278.972L404.511 284.758L404.913 285.034L409.242 281.583H418.253L420.286 282.336V272.471L422.156 270.589V264.54H420.952Z" stroke="#C2C3C8" stroke-width="1.18171" stroke-miterlimit="10"/>
<path d="M464.011 181.951H466.182V178.788H468.29V173.956L467.838 173.756L463.735 171.974V170.392L467.236 166.891V164.054H465.479V162.134L467.236 160.377V159.135L464.651 159.963V158.043H461.814L460.484 158.972H458.438L458.564 167.895L455.564 169.727L461.476 185.176H464.011V181.951Z" stroke="#C2C3C8" stroke-width="1.18171" stroke-miterlimit="10"/>
<path d="M512.857 180.571V178.224H506.933V176.316L502.766 174.81L495.839 178.061V180.144L497.219 182.529L494.006 185.742L481.243 181.06V177.898L475.332 175.814H472.571L468.291 173.957V178.789H466.183V181.951H464.012V185.177H461.477L461.564 185.403V201.253L464.062 207.252H471.241V211.256L470.437 211.896H475.47L480.678 213.804L484.418 211.344L510.183 226.768V224.521H511.476H513.246V216.979V180.571H512.857Z" stroke="#C2C3C8" stroke-width="1.18171" stroke-miterlimit="10"/>
<path d="M582.12 282.351L593.252 271.219H590.165L579.773 266.777L574.715 261.719V260.163L570.988 260.489V256.686L572.808 253.938L565.064 246.157L558.639 245.027L554.008 247.286V247.951V253.084L545.574 269.136H541.684V272.135H545.022L552.464 279.59V284.485H555.89L559.567 288.149H564.65V286.819L567.487 283.97L570.373 286.857L579.07 282.351H582.12Z" stroke="#C2C3C8" stroke-width="1.18171" stroke-miterlimit="10"/>
<path d="M580.94 261.796L577.915 257.052L575.016 260.127L574.715 260.165V261.721L579.773 266.779L590.164 271.221H593.252L582.12 282.353H579.07L570.373 286.859L571.176 287.662L568.578 290.247V305.332L570.599 307.353L595.172 280.483L602.727 261.796V255.91L580.94 261.796Z" stroke="#C2C3C8" stroke-width="1.18171" stroke-miterlimit="10"/>
<path d="M536.199 293.646L531.48 298.352L530.602 307.351L531.505 305.707V307.276H534.705V305.33H538.91V301.49L543.967 300.662L545.687 301.176L550.305 294.362L545.486 285.012L543.403 287.095H534.705V292.153L536.199 293.646Z" stroke="#C2C3C8" stroke-width="1.18171" stroke-miterlimit="10"/>
<path d="M475.859 320.293L478.331 318.524V320.293H480.753L485.033 316.014V309.952L490.48 304.505V298.945V288.152H486.087V292.495H484.418V293.16H474.616V296.661H477.126L479.047 298.594L476.763 300.866V302.811L477.616 303.664V310.843H470.525V315.135L467.551 317.118L470.299 321.184L470.375 321.372L474.19 318.524L475.859 320.293Z" stroke="#C2C3C8" stroke-width="1.18171" stroke-miterlimit="10"/>
<path d="M547.419 355.453L546.051 349.781L547.419 342.351L546.377 338.598L542.236 337.23V349.755L539.977 356.156L541.345 355.641L543.214 357.285H546.929V360.912L544.796 363.046L548.297 367.79L550.556 363.786V355.453H547.419Z" stroke="#C2C3C8" stroke-width="1.18171" stroke-miterlimit="10"/>
<path d="M536.047 335.189L535.407 333.219L528.341 334.022V335.302L525.944 337.687L527.061 338.804V342.644L525.894 345.141V346.76L527.902 348.768H531.228V353.625H528.48L524.062 349.208L523.108 346.17H521.05V348.417L516.055 347.2V345.919H513.106V344.802L511.775 343.924L511.06 344.702H511.098V351.642H504.434V364.431L508.211 368.208L508.876 368.886H514.549V370.38V370.668H515.603H521.113L527.237 365.774V363.213L532.332 361.444L533.01 361.205L532.006 359.097L539.975 356.16L542.234 349.76V337.235L536.047 335.189Z" stroke="#C2C3C8" stroke-width="1.18171" stroke-miterlimit="10"/>
<path d="M492.373 283.972L496.452 282.642L497.795 285.014L506.505 287.097L507.082 283.972L509.191 284.361L518.49 282.165H522.456V279.58L511.186 268.297V263.39L507.245 259.449L498.711 267.092H494.005L487.253 273.053L486.249 271.761L482.183 273.606L479.246 278.814L484.417 290.071V292.494H486.086V288.151H490.478L492.373 286.093V283.972Z" stroke="#C2C3C8" stroke-width="1.18171" stroke-miterlimit="10"/>
<path d="M528.342 334.021L535.408 333.218L530.789 318.923L531.14 318.522L528.994 312.385H527.827L530.601 307.352L531.479 298.354L536.198 293.647L534.705 292.154V287.096H534.454L522.456 282.44V282.164H518.49L509.19 284.36L507.082 283.971L506.505 287.096L497.795 285.013L496.452 282.641L492.373 283.971V286.092L490.478 288.15V298.943V304.503L485.032 309.95V316.012L480.752 320.291H478.33V318.522L475.857 320.291L474.188 318.522L470.373 321.37L470.461 321.621L471.816 325.186H486.751L489.587 333.356H495.586V328.511L500.594 327.683V330.181H504.597V344.701H511.06L511.776 343.923L513.106 344.801V345.918H516.055V347.199L521.05 348.416V346.169H523.108L524.062 349.207L528.48 353.624H531.228V348.767H527.903L525.895 346.759V345.14L527.062 342.643V338.803L525.945 337.686L528.342 335.301V334.021Z" stroke="#C2C3C8" stroke-width="1.18171" stroke-miterlimit="10"/>
<path d="M376.775 55.0838L380.779 61.0827L389.677 62.8648L403.683 55.0838L399.466 51.5195L385.222 54.4186L382.774 51.5195L376.775 55.0838Z" stroke="#C2C3C8" stroke-width="1.18171" stroke-miterlimit="10"/>
<path d="M306.721 70.2051H314.502V74.2085H320.513L338.41 56.2996H345.425L357.26 44.4523L383.891 40.1728H387.895V29.7311L396.341 21.2724V10.6048H408.351L419.144 7.26648V5.48437H399.014L392.337 0.589844H367.651L335.862 4.36741L320.513 4.81922L302.943 11.7092H292.263L285.197 18.7749L288.485 21.7242H309.168V35.2908H314.728V38.4032H306.721V42.1808H312.506L310.611 44.0633H306.269L302.052 50.1877L306.721 70.2051Z" stroke="#C2C3C8" stroke-width="1.18171" stroke-miterlimit="10"/>
<path d="M149.154 216.425L150.987 217.593L156.822 215.095H160.989L159.947 216.137H163.662L168.004 219.764V222.098H172.836V224.093H171.004V225.763H178.835L183.178 224.432V222.763H178.672V220.429H175.334L169.749 214.844H166.172V213.589L162.495 212.422H156.822L149.154 216.425Z" stroke="#C2C3C8" stroke-width="1.18171" stroke-miterlimit="10"/>
<path d="M155.115 217.631L156.42 216.426L157.851 217.405L156.483 218.572L155.115 217.631Z" stroke="#C2C3C8" stroke-width="1.18171" stroke-miterlimit="10"/>
<path d="M168.582 230.105L167.754 231.524L170 233.193H174.757L175.096 231.649L171.833 230.105H168.582Z" stroke="#C2C3C8" stroke-width="1.18171" stroke-miterlimit="10"/>
<path d="M205.779 230.605V232.852H209.783L210.787 231.722V230.605H205.779Z" stroke="#C2C3C8" stroke-width="1.18171" stroke-miterlimit="10"/>
<path d="M257.738 497.984H261.164L262.068 498.901L259.909 501.737L257.738 500.57V497.984Z" stroke="#C2C3C8" stroke-width="1.18171" stroke-miterlimit="10"/>
<path d="M262.82 499.152L260.912 502.566H263.159L265.405 500.859H266.66V499.152H262.82Z" stroke="#C2C3C8" stroke-width="1.18171" stroke-miterlimit="10"/>
<path d="M288.26 11.5951L315.28 5.75928L316.284 3.42497L296.769 2.25781L255.065 4.59213V6.92644L259.244 9.26075L258.064 11.5951L250.735 6.92644L238.725 9.76275V14.4314L248.401 16.2637V18.1085H240.055V20.9449L261.578 21.7732L268.908 19.602V15.9374L282.424 11.0931L288.26 11.5951Z" stroke="#C2C3C8" stroke-width="1.18171" stroke-miterlimit="10"/>
<path d="M215.531 12.0117L218.757 16.9439H235.887V14.4841L232.436 13.1538L227.102 13.7185H221.982L215.531 12.0117Z" stroke="#C2C3C8" stroke-width="1.18171" stroke-miterlimit="10"/>
<path d="M226.877 19.3743V20.8301H232.11V22.8255L229.989 23.8295V25.938H257.123L259.357 23.2773L250.898 22.6624L247.12 23.1644H238.724V18.3828L226.877 19.3743Z" stroke="#C2C3C8" stroke-width="1.18171" stroke-miterlimit="10"/>
<path d="M163.938 21.7771L184.846 16.9453L188.849 22.7183L193.518 22.1661V19.8318H200.973V23.9483L180.403 27.3995L163.938 21.7771Z" stroke="#C2C3C8" stroke-width="1.18171" stroke-miterlimit="10"/>
<path d="M207.311 19.6055V22.9438H211.54V24.387H219.095L222.76 25.9433L227.554 23.496H222.207V19.6055H207.311Z" stroke="#C2C3C8" stroke-width="1.18171" stroke-miterlimit="10"/>
<path d="M235.888 27.8359L222.986 35.2907V38.4031H229.437V39.9593H246.781L249.68 39.0682L257.235 46.6234L241.447 55.4084H236.327V58.5209H246.894L252.015 63.6413H262.243L268.192 57.6926L264.577 54.0781L268.468 50.1876L274.467 56.1865L282.085 48.5686L271.693 43.511L275.81 40.5115L260.574 28.3881L235.888 27.8359Z" stroke="#C2C3C8" stroke-width="1.18171" stroke-miterlimit="10"/>
<path d="M197.697 30.9489C197.697 30.9489 199.743 35.7807 200.973 35.7807C202.203 35.7807 212.042 32.116 212.042 32.116L214.376 25.9414L197.697 30.9489Z" stroke="#C2C3C8" stroke-width="1.18171" stroke-miterlimit="10"/>
<path d="M141.311 32.9429L144.649 35.7793H151.15L158.83 32.9429V34.3611L156.446 36.7456H154.325V37.6241H163.938L166.637 40.3098H154.827V41.7907H159.496V42.619L158.077 44.0372V44.8781H163.938L177.593 41.5397V42.7069L182.462 44.376L187.018 43.874L188.599 40.9499L192.013 41.5397L193.519 39.8706L187.934 36.6201L190.268 35.0388L191.348 31.1985L196.355 29.7803V28.1112L186.679 29.4415L183.592 34.4489L182.01 34.0348L183.014 31.6126L180.178 30.1945L173.087 30.3576L169.247 26.5298H162.658L162.043 25.9023H151.991V28.2743L141.311 32.9429Z" stroke="#C2C3C8" stroke-width="1.18171" stroke-miterlimit="10"/>
<path d="M213.699 58.3805V59.4723L209.193 60.8026V61.6309H213.285V62.7228H215.531L220.79 59.6355L224.542 62.1329L227.793 60.5516L225.458 58.3805L225.709 57.5522L221.128 53.875H218.794L213.699 58.3805Z" stroke="#C2C3C8" stroke-width="1.18171" stroke-miterlimit="10"/>
<path d="M214.791 65.3118V66.5668H217.539L221.631 64.3078V63.1406L217.627 63.6426L214.791 65.3118Z" stroke="#C2C3C8" stroke-width="1.18171" stroke-miterlimit="10"/>
<path d="M222.986 67.1448L224.881 65.3125H227.04V66.2287L225.019 68.2241L222.986 67.1448Z" stroke="#C2C3C8" stroke-width="1.18171" stroke-miterlimit="10"/>
<path d="M243.895 110.59L245.689 112.385V113.175L249.228 114.593L251.65 114.179V112.598L247.308 110.59H243.895Z" stroke="#C2C3C8" stroke-width="1.18171" stroke-miterlimit="10"/>
<path d="M256.57 118.018L268.618 105.958L273.086 104.59V105.757L267.702 111.141H270.162V112.597H275.672V113.927H274.002V115.596H276.751V119.098L273.463 122.398H271.166L273.099 120.453L271.794 119.135L268.33 122.599H265.493V120.93H267.489L268.869 119.55H266.159V118.847H256.57V118.018Z" stroke="#C2C3C8" stroke-width="1.18171" stroke-miterlimit="10"/>
<path d="M239.967 122.401L243.481 124.898L246.104 123.643V122.941H243.042L241.561 122.062V121.184H240.18L239.967 122.401Z" stroke="#C2C3C8" stroke-width="1.18171" stroke-miterlimit="10"/>
<path d="M272.031 96.3189L271.354 94.085L264.464 90.1945V88.199L263.472 87.195L265.355 84.8607L263.133 72.3985H261.464L255.014 78.8492H253.57L249.341 80.1921L246.567 76.6279L250.332 71.407L248.826 69.901H245.212V66.9518L241.447 64.6175L238.937 65.8725H235.837L232.285 64.2033L228.947 66.0858V68.5331L226.274 70.654V74.2057L221.103 79.3763L223.325 81.5977V85.1117L219.56 88.8767L209.08 93.0685V95.4153L206.972 101.879L203.533 104.778H200.195V103.334L198.802 101.941V99.218L201.638 100.222L202.303 98.3269L199.793 96.6578V93.8717L202.692 91.9892V90.6589H194.911L193.518 89.2658L187.896 85.5008L183.566 83.4928H178.897L180.667 78.3849H177.228V76.5149L181.558 72.1852L193.907 63.6135H199.241V61.505H202.14L203.583 59.1707H208.478L213.874 56.4348L214.376 55.1045L218.869 52.5945V51.0383H222.986V52.3811L224.881 54.6025L225.998 52.3811L233.001 49.8711L234.996 47.3611V44.6879H238.447V41.5002H229.775V43.6212L219.208 48.0639L217.953 46.8089L221.003 43.7467L219.12 41.8516L215.945 45.0268L214.339 42.3536V40.2452C214.339 40.2452 216.497 41.0233 216.497 40.2452V34.3467L220.175 31.5731H223.94L230.503 28.2348V27.3438H219.999L214.326 33.6188L203.307 39.1283L207.988 41.6383V44.9766H200.923V40.308H197.647L192.163 45.7798H180.792L176.287 43.6463L163.887 48.4781H150.986V45.7547H154.324V42.9686L140.143 39.806L129.161 37.9109L102.982 42.9309L94.0212 40.9982L55.6055 74.3814L59.4834 78.2468V80.6439L56.7475 83.6434V92.1523H60.751L62.0813 89.818H63.9011V94.1603L61.2404 97.1598L62.9096 101.326L61.2404 105.669H57.626V109.672L63.2987 115.332L63.0477 115.834L68.645 117.842V114.341H151.375L163.298 118.533L166.724 117.177L167.213 118.093L172.723 114.667H177.391V117.754H179.638V122.009L180.642 126.012H189.151L190.318 127.18V129.439L188.109 131.647L186.741 130.267L185.147 131.861H183.892L179.65 136.103H179.199L178.358 139.027L182.888 137.446L188.561 135.688L190.305 132.689L198.902 131.848V132.752L205.064 128.911H216.071L225.22 119.762H229.75V122.009L228.031 125.573L229.01 127.87L236.264 126.678V128.234L229.926 131.911L231.482 135.136L239.489 130.568L248.375 128.058V126.941H250.822L252.83 124.607L251.387 123.716L252.391 122.047L251.048 121.156L247.157 124.607L247.044 126.05H242.815L238.811 123.716V120.377L244.271 115.596V113.374H239.251L225.446 119.047V117.265L235.674 113.036V110.701L237.908 108.48H257.586L264.928 105.593L268.693 105.255L272.81 102.745L275.32 97.5237L272.031 96.3189ZM124.355 56.1587L132.563 53.3349L126.852 50.8249L140.958 50.3857L136.353 53.1969L141.536 55.7069L134.395 56.5352L132.123 56.4097L126.702 57.3008L120.966 59.6225L124.292 56.8866L124.355 56.1587ZM147.321 65.3328L131.307 70.8423H122.799V69.1731L130.969 66.5878L131.144 63.6636L135.813 66.5878L147.321 63.1742V65.3328ZM153.822 105.368L151.149 109.71L150.409 108.543L151.99 105.87V103.196L151.049 101.941L150.396 94.1352L154.362 92.6794L153.822 105.368Z" stroke="#C2C3C8" stroke-width="1.18171" stroke-miterlimit="10"/>
<path d="M55.4176 74.1962L55.6059 74.3844L94.0593 41.0138L64.9181 34.6133L34.2331 43.7874H27.0545L24.055 45.1302L28.2216 50.8029V53.1372H21.2187V50.464H15.0441L7.37598 53.1372V58.6341L20.3779 56.8018V60.4664L-5.63844 67.8082V70.3182L-9.46621 71.4728V74.3092H-3.14097V76.154L-6.89345 79.9065H-4.30813H2.53166L-1.79812 82.4918L-43 95.6694V97.1628L-19.4812 91.4902V92.8331H-15.8165V89.821L3.69881 83.1569L16.2112 77.9863V75.8152L27.7196 71.1465V72.6525L21.8839 75.652V77.1455L31.2211 74.146H36.0654L38.6508 71.5607H43.3947L46.0302 74.1962H55.4176Z" stroke="#C2C3C8" stroke-width="1.18171" stroke-miterlimit="10"/>
<path d="M229.713 119.765H225.182L216.033 128.914H205.027L198.852 132.767V134.863H190.268V137.361L178.672 143.033H174.505V140.373L178.308 139.03L179.161 136.118H178.873V132.629L176.476 135.026V134.16L179.613 131.023V127.923L177.592 125.902H176.049L172.836 129.103L172.108 128.375L167.038 133.445V136.244L162.909 140.373H160.411V135.202L170.088 125.526H179.425V123.606H177.592H171.255L169.749 122.1V119.929L161.993 123.267H160.487V121.937L156.408 122.602V121.271L163.235 118.548L151.313 114.344H68.5826V117.845L62.9978 115.85L59.2453 123.192L43.5703 145.543V169.388L50.8243 176.642V176.893H60.4125L71.0926 181.901H80.4299V179.403H86.6045L90.6331 183.432V187.849L93.4317 190.648L96.4438 187.624H100.999L103.396 190.021V200.525L110.45 202.859L110.563 202.533V196.748L115.344 191.966L127.468 186.958L133.918 190.071L137.47 188.301L139.252 189.632L140.369 188.628L138.587 186.406L142.038 185.063H151.149L153.095 187.021H155.492L156.458 186.042H158.604L161.503 188.941V191.853L158.943 194.413V198.969L162.934 205.42H164.942L167.389 198.304V191.301L165.168 185.515L170.841 177.395H172.171L178.17 171.396H181.395L184.068 168.723H187.733V165.498L189.854 163.389V155.596L191.41 154.052L192.627 155.495L191.623 157.378L192.627 157.83L196.631 153.713L196.305 151.153H197.974L202.743 146.372V144.037L213.875 142.042V138.816H215.092V136.256L219.648 132.918L228.107 129.805V128.023L228.972 127.885L227.994 125.576L229.713 122.024V119.765Z" stroke="#C2C3C8" stroke-width="1.18171" stroke-miterlimit="10"/>
<path d="M189.69 225.762L187.518 224.758L184.933 225.762L184.845 226.515L187.682 226.766L187.518 230.092H180.93V231.635L183.076 233.781L184.77 231.635H189.263L189.539 231.911L191.384 225.36L189.69 225.762Z" stroke="#C2C3C8" stroke-width="1.18171" stroke-miterlimit="10"/>
<path d="M200.522 228.438H198.113L193.934 224.773L191.373 225.376L189.541 231.927L191.223 233.596H192.44V230.936H194.272V231.952H196.77V230.86L200.522 231.952L202.028 230.107L200.522 228.438Z" stroke="#C2C3C8" stroke-width="1.18171" stroke-miterlimit="10"/>
<path d="M129.84 245.719L134.396 241.139H132.363V240.197L131.509 240.737H130.254L131.384 233.207H123.916V235.541L126.502 238.127V240.135H121.168C121.168 240.135 119.913 243.285 119.135 245.343L125.749 249.472H126.088L129.79 245.707L129.84 245.719Z" stroke="#C2C3C8" stroke-width="1.18171" stroke-miterlimit="10"/>
<path d="M126.551 240.108V238.1L123.966 235.514V233.18H131.885L135.562 229.515L137.42 231.373L139.039 227.206V224.32L142.038 221.308L142.151 218.873H136.253L129.024 220.316V225.098L125.133 229.101H120.377V230.544L114.591 231.649L113.6 230.657H110.148L106.383 218.76V214.192L110.487 202.897L103.434 200.562V190.058L101.037 187.661H96.4814L93.4693 190.673L90.6707 187.874V183.457L86.6045 179.428H80.4298V181.938H71.0926L60.4125 176.918H50.8242V187.259L55.9572 192.38V195.266H51.7404V196.935L58.7559 203.938L56.3713 206.247L63.55 213.414V215.083H67.0515V209.548L63.6378 206.122V201.202L59.7097 190.861L57.0491 186.192V180.055L64.3783 183.557V189.568L71.2181 199.408L69.5489 201.579L80.3922 215.083V222.763H77.7316V225.098L84.0066 231.373H89.5914L105.906 241.802L112.244 238.464L119.084 245.303C119.875 243.245 121.117 240.095 121.117 240.095L126.551 240.108Z" stroke="#C2C3C8" stroke-width="1.18171" stroke-miterlimit="10"/>
<path d="M131.886 233.196H131.434L130.305 240.738H131.51L132.363 240.211V239.12L135.701 235.781L137.408 231.376L135.563 229.531L131.886 233.196Z" stroke="#C2C3C8" stroke-width="1.18171" stroke-miterlimit="10"/>
<path d="M147.033 260.24V254.906L148.928 254.015V248.343L150.321 246.95V245.117H144.235L137.897 248.794V252.17H134.973V253.789L140.545 259.362L147.159 260.366L147.033 260.24Z" stroke="#C2C3C8" stroke-width="1.18171" stroke-miterlimit="10"/>
<path d="M129.839 245.719L126.137 249.484H134.47V248.153L129.839 245.719Z" stroke="#C2C3C8" stroke-width="1.18171" stroke-miterlimit="10"/>
<path d="M137.947 248.78L144.222 245.115H150.309V242.668L148.778 241.137H134.396L129.84 245.717L134.471 248.115V249.445H134.973V252.218H137.947V248.78Z" stroke="#C2C3C8" stroke-width="1.18171" stroke-miterlimit="10"/>
<path d="M147.159 260.363L140.545 259.359L140.733 259.548V263.965L145.854 269.098V270.466L148.841 273.453V271.031H149.832L150.472 263.626L147.159 260.363Z" stroke="#C2C3C8" stroke-width="1.18171" stroke-miterlimit="10"/>
<path d="M169.109 268.862L165.331 265.072L161.165 264.796L155.153 268.247L150.472 263.629L149.832 271.033H152.593V273.456H159.157V270.142L161.88 267.419L164.892 270.418L163.725 271.586L166.248 274.121L169.109 271.31V268.862Z" stroke="#C2C3C8" stroke-width="1.18171" stroke-miterlimit="10"/>
<path d="M160.161 318.946L162.056 321.393L164.83 313.612L173.502 309.947V302.38L161.303 294.348L160.487 295.151V296.82L157.601 298.163V301.489L154.162 304.94V310.838L157.438 314.114V315.055L156.547 315.946L156.936 318.845L160.161 318.946Z" stroke="#C2C3C8" stroke-width="1.18171" stroke-miterlimit="10"/>
<path d="M181.759 311.253L188.348 310.161L191.686 312.081L189.854 316.336L192.829 316.976L194.523 305.656L191.523 302.656V299.569H195.113V297.661H192.766V295.151H202.028L200.02 290.985V277.556H194.523L191.887 274.933H185.512L183.767 266.801H181.935L184.345 259.798L187.068 258.267L186.955 257.903L190.632 255.342L189.076 253.121L182.286 258.455H177.505L174.116 261.856V264.906L169.636 269.386L169.109 268.859V271.306L166.247 274.117L168.168 276.025V279.915L167.277 280.807V288.374L161.303 294.348L173.501 302.38V303.359L180.843 306.911L181.759 311.253Z" stroke="#C2C3C8" stroke-width="1.18171" stroke-miterlimit="10"/>
<path d="M196.807 361.316L198.187 356.208L198.413 349.644L195.301 343.858H191.41V339.303H185.072L177.781 332.011L181.96 327.066V321.394L189.628 318.281H192.627L192.828 316.976L189.854 316.336L191.686 312.082L188.348 310.162L181.759 311.253L180.843 306.911L173.501 303.359V309.948L164.829 313.613L162.055 321.394L160.16 318.947L156.935 318.846L156.546 315.947L153.848 318.645V321.068L156.395 323.615V324.619H154.601V325.962L159.709 328.849L162.269 333.856L173.388 353.422V356.421L190.519 367.653V369.875L194.949 372.586L198.074 369.548L197.196 367.992L199.63 364.428L196.807 361.316Z" stroke="#C2C3C8" stroke-width="1.18171" stroke-miterlimit="10"/>
<path d="M225.044 273.087V274.467H222.547V279.362L224.994 281.809V282.273L226.55 282.06L227.793 286.817L225.622 288.988V292.903H226.99V294.987L230.215 297.321L235.172 294.648V288.937L233.214 286.98V282.562H236.139V278.483L227.881 269.359H226.99V271.129L225.044 273.087Z" stroke="#C2C3C8" stroke-width="1.18171" stroke-miterlimit="10"/>
<path d="M233.215 282.567V286.985L235.173 288.942V294.653L239.389 294.879V292.883L242.954 291.929L244.397 293.21L246.643 289.482V287.324L245.175 286.156V281.764L246.844 281.312L247.698 279.63L244.999 278.702H236.327L236.139 278.488V282.567H233.215Z" stroke="#C2C3C8" stroke-width="1.18171" stroke-miterlimit="10"/>
<path d="M208.918 300.547L214.641 294.824V292.591H212.093V288.7L210.198 286.479H217.088L224.995 284.257V282.274V281.81L222.548 279.363V274.468H225.045V273.088L226.99 271.13V269.36H223.878V265.244L218.707 260.073H213.65L211.504 262.207H207.864L206.546 260.889H199.531V258.354H195.301L194.297 255.016H192.854V257.676L189.189 260.575L191.072 263.023L190.52 266.8L188.851 267.352L186.403 264.014L187.847 261.015L187.069 258.266L184.345 259.797L181.936 266.8H183.768L185.512 274.933H191.888L194.523 277.556H200.02V290.984L202.028 295.151H201.752V300.547H208.918Z" stroke="#C2C3C8" stroke-width="1.18171" stroke-miterlimit="10"/>
<path d="M247.284 292.932L250.786 293.208L255.216 285.138L250.786 280.696L247.698 279.629L246.845 281.311L245.176 281.762V286.155L246.644 287.322V289.481L244.762 292.593L246.393 293.71L247.284 292.932Z" stroke="#C2C3C8" stroke-width="1.18171" stroke-miterlimit="10"/>
<path d="M310.172 321.394H305.164L295.652 311.894H287.594L282.926 310.84L278.696 313.952V309.723L269.133 304.502L266.134 307.501H264.126L266.46 302.946V301.603H259.796L257.462 304.502L256.131 303.498L260.461 297.825V294.374H258.24L256.232 286.154L255.579 285.489L255.215 285.137L250.785 293.207L247.284 292.931L246.392 293.709L244.761 292.592L244.397 293.207L242.954 291.927L239.39 292.881V294.876L235.173 294.65L230.215 297.323L226.99 294.989V292.906H225.622V288.99L227.793 286.819L226.551 282.062L224.995 282.276V284.259L217.088 286.48H210.198L212.093 288.701V292.592H214.641V294.826L208.918 300.549H201.752V295.152H192.766V297.662H195.113V299.57H191.524V302.657L194.523 305.657L192.628 318.282H189.629L181.96 321.394V327.067L177.781 332.012L185.073 339.303H191.411V343.859H195.301L195.515 344.273L199.079 344.587L199.97 342.918H201.25L204.914 339.241H209.257V346.193L213.737 350.674H216.599L220.69 354.778H224.656L226.287 356.409V364.655H234.771V368.608H236.666L238.172 371.934L236.214 378.058L238.172 382.664V386.73H245.175L247.233 394.461H251.124V400.46H254.123V406.02L243.23 416.913L259.683 427.593L260.712 432.839L262.331 431.233V425.485L267.175 420.628V415.922L272.045 411.052V408.141L270.539 406.622V399.569H272.045L281.771 389.855H291.711V387.897H294.384L298.162 377.217V371.883H299.266V351.64H301.161L305.39 343.52H307.725L312.556 338.688V328.184L310.172 321.394Z" stroke="#C2C3C8" stroke-width="1.18171" stroke-miterlimit="10"/>
<path d="M201.864 376.554L202.278 382.314L205.278 390.145H207.612H208.528L211.277 386.23L222.71 387.234V377.47L233.051 375.801L236.389 377.52L238.171 371.935L236.665 368.609H234.77V364.656H226.286V356.411L224.655 354.779H220.689L216.598 350.675H213.736L209.256 346.195V339.242H204.914L201.249 342.919H199.969L199.078 344.588L195.514 344.275L198.413 349.646L198.187 356.21L196.806 361.318L199.63 364.43L197.195 367.994L198.074 369.551L197.371 370.241L199.63 375.386L201.864 376.554Z" stroke="#C2C3C8" stroke-width="1.18171" stroke-miterlimit="10"/>
<path d="M250.508 436.993H256.57L260.712 432.839L259.683 427.593L244.334 417.641L242.803 419.423L244.999 432.261L245.388 431.872L250.508 436.993Z" stroke="#C2C3C8" stroke-width="1.18171" stroke-miterlimit="10"/>
<path d="M240.996 398.902L238.173 406.796L247.234 407.687L250.898 404.248L251.438 400.458H251.124V394.459H247.234L245.176 386.728H238.173V382.662L236.215 378.056L236.391 377.516L233.052 375.797L222.711 377.466V387.192L227.769 392.79L240.996 398.902Z" stroke="#C2C3C8" stroke-width="1.18171" stroke-miterlimit="10"/>
<path d="M236.051 503.646H233.39L232.976 501.726L224.543 500.86L222.71 495.84L216.536 492.075L218.38 487.896L216.874 472.221H214.201L207.7 460.047V432.939L203.032 424.016V416.009L205.542 406.672V398.163L208.554 395.164V390.144H205.291L202.291 382.3L201.877 376.552L199.656 375.372L197.384 370.227L194.975 372.586L195.088 372.661L197.096 383.329V412.859L198.815 414.579V417.302L197.46 418.67V420.753L200.647 427.643C200.647 427.643 201.099 442.779 200.647 443.218C200.195 443.657 198.878 443.218 198.878 443.218V445.113L202.203 452.442V459.784L203.772 461.34V468.569H206.282V462.055L207.537 462.946L210.424 476.626H208.98L207.65 472.861L205.642 472.635L206.897 477.304L205.341 480.529L206.897 482.537H210.737V485.537H208.227L213.348 496.656H215.569V499.103L221.016 504.989L225.798 508.44L239.603 512.896L240.305 511.089L236.051 503.646Z" stroke="#C2C3C8" stroke-width="1.18171" stroke-miterlimit="10"/>
<path d="M254.123 400.462H251.437L250.897 404.252L247.233 407.691L238.171 406.8L240.995 398.906L227.767 392.794L222.71 387.197V387.234L211.277 386.23L208.528 390.146V395.066L205.529 398.078V406.587L203.031 415.924V423.931L207.7 432.841V459.95L214.201 472.123H216.874L218.367 487.811L216.535 491.977L222.71 495.818L224.542 500.863L232.963 501.741L233.39 503.649H236.05L240.305 511.079L239.59 512.898L243.003 514.003L250.119 511.995V510.439H247.346L236.214 502.871H233.992V501.541L234.883 500.649L231.545 495.09V493.647H233.992V489.643L237.607 486.029V482.64H233.214L229.55 478.976V475.524H233.327V467.63H235.548V463.74H231.658L228.269 460.339V457.954L235.222 460.514L238.109 457.615V453.499L236.276 451.667V449.495L238.799 452.031L250.671 448.278V445.831L252.064 444.438V441.162H249.002V437.824L244.221 433.042L244.999 432.264L242.802 419.425L244.334 417.643L243.229 416.915L254.123 406.022V400.462Z" stroke="#C2C3C8" stroke-width="1.18171" stroke-miterlimit="10"/>
<path d="M118.381 297.184L119.699 295.289L121.38 296.732L119.887 298.138L118.381 297.184Z" stroke="#C2C3C8" stroke-width="1.18171" stroke-miterlimit="10"/>
<path d="M121.38 297.688L123.213 302.783L121.518 304.201L118.807 304.364L118.205 301.842L120.703 300.122L120.439 298.34L121.38 297.688Z" stroke="#C2C3C8" stroke-width="1.18171" stroke-miterlimit="10"/>
<path d="M122.385 297.549L122.799 298.892L124.443 298.139L123.979 296.508L122.385 297.549Z" stroke="#C2C3C8" stroke-width="1.18171" stroke-miterlimit="10"/>
<path d="M124.28 299.656L123.891 300.798L124.769 301.024L125.208 299.794L124.28 299.656Z" stroke="#C2C3C8" stroke-width="1.18171" stroke-miterlimit="10"/>
</g>
<defs>
<clipPath id="clip0_8080_201054">
<rect width="924" height="524" fill="white"/>
</clipPath>
</defs>
</svg>
