<svg width="291" height="291" fill="none" xmlns="http://www.w3.org/2000/svg"><path clip-rule="evenodd" d="M32 44c0-5.523 4.477-10 10-10h77.526c5.523 0 10 4.477 10 10v77.435c0 5.522-4.477 10-10 10H42c-5.523 0-10-4.478-10-10V44Z" stroke="#000" stroke-opacity=".87" stroke-width="8.729"/><path d="M60.213 99.453H87.08V92.54H68.697V62.79h-8.484v36.663ZM95.33 67.347c3.037 0 5.08-1.99 5.08-4.713 0-2.514-2.043-4.4-5.08-4.4-3.038 0-5.08 1.99-5.08 4.557 0 2.566 2.042 4.556 5.08 4.556Zm-4.085 32.106h8.17V71.276h-8.17v28.177Z" fill="#000" fill-opacity=".87"/><path clip-rule="evenodd" d="M162.034 44c0-5.523 4.477-10 10-10h77.527c5.523 0 10 4.477 10 10v77.435c0 5.522-4.477 10-10 10h-77.527c-5.523 0-10-4.478-10-10V44Z" stroke="#000" stroke-opacity=".87" stroke-width="8.729"/><path d="M210.07 65.698v22.26l-18.227-22.26h-7.018v36.662h8.38V80.1l18.279 22.26h6.966V65.698h-8.38Zm20.563 4.556c3.038 0 5.08-1.99 5.08-4.713 0-2.514-2.042-4.4-5.08-4.4-3.038 0-5.081 1.99-5.081 4.557 0 2.566 2.043 4.556 5.081 4.556Zm-4.085 32.106h8.17V74.183h-8.17v28.177Z" fill="#000" fill-opacity=".87"/><path clip-rule="evenodd" d="M32 170.82c0-5.523 4.477-10 10-10h77.526c5.523 0 10 4.477 10 10v77.436c0 5.522-4.477 10-10 10H42c-5.523 0-10-4.478-10-10V170.82Z" stroke="#000" stroke-opacity=".87" stroke-width="8.729"/><path d="M66.456 227.987c6.39 0 11.68-2.304 15.136-6.547l-5.447-5.028c-2.462 2.881-5.552 4.348-9.218 4.348-6.86 0-11.732-4.819-11.732-11.732 0-6.914 4.871-11.732 11.732-11.732 3.666 0 6.756 1.466 9.218 4.294l5.447-5.027c-3.457-4.19-8.746-6.495-15.084-6.495-11.417 0-19.902 7.909-19.902 18.96 0 11.051 8.484 18.959 19.85 18.959Zm32.726-.209c8.956 0 15.45-6.023 15.45-14.508s-6.494-14.508-15.45-14.508-15.503 6.023-15.503 14.508 6.547 14.508 15.503 14.508Zm0-6.704c-4.085 0-7.228-2.933-7.228-7.804s3.143-7.804 7.228-7.804 7.175 2.933 7.175 7.804-3.09 7.804-7.175 7.804Z" fill="#000" fill-opacity=".87"/><path clip-rule="evenodd" d="M162.034 170.82c0-5.523 4.477-10 10-10h77.527c5.523 0 10 4.477 10 10v77.436c0 5.522-4.477 10-10 10h-77.527c-5.523 0-10-4.478-10-10V170.82Z" stroke="#000" stroke-opacity=".87" stroke-width="8.729"/><path d="M213.283 227.987c6.389 0 11.679-2.304 15.136-6.547l-5.447-5.028c-2.462 2.881-5.552 4.348-9.218 4.348-6.861 0-11.732-4.819-11.732-11.732 0-6.914 4.871-11.732 11.732-11.732 3.666 0 6.756 1.466 9.218 4.294l5.447-5.027c-3.457-4.19-8.747-6.495-15.084-6.495-11.418 0-19.902 7.909-19.902 18.96 0 11.051 8.484 18.959 19.85 18.959Z" fill="#000" fill-opacity=".87"/></svg>