<svg width="201" height="206" fill="none" xmlns="http://www.w3.org/2000/svg"><path d="M29.292 188.56c-39.05-22.548-39.05-59.103 0-81.65 39.052-22.547 102.368-22.547 141.423 0 39.056 22.547 39.052 59.102 0 81.65-39.051 22.547-102.371 22.547-141.423 0Z" fill="#F0F0F0"/><path d="M107.897 164.911H92.099a.766.766 0 0 1-.802-.63.766.766 0 0 1 .025-.368l.32-1.273a1.383 1.383 0 0 1 1.277-.994h14.157a1.38 1.38 0 0 1 1.273.994l.325 1.273a.765.765 0 0 1-.777.998ZM58.07 147.651l-7.893 4.571a.982.982 0 0 1-.883 0l-23.31-13.441a.266.266 0 0 1-.187-.255.267.267 0 0 1 .187-.255l7.897-4.57a.98.98 0 0 1 .883 0l23.314 13.441a.271.271 0 0 1-.008.509ZM175.791 134.148l-22.912 13.236a.856.856 0 0 1-.776 0l-19.241-11.088c-.217-.128-.217-.325 0-.448l22.912-13.236a.859.859 0 0 1 .776 0l19.241 11.088a.238.238 0 0 1 .113.361.238.238 0 0 1-.113.087ZM66.495 144.013l5.388-3.109a.21.21 0 0 0 0-.411l-29.696-17.146a.782.782 0 0 0-.685 0l-5.389 3.113c-.193.107-.193.288 0 .411l29.692 17.142a.752.752 0 0 0 .69 0Z" fill="#E0E0E0"/><path d="M128.71 48.645a30.53 30.53 0 0 1-29.666 41.839 30.525 30.525 0 1 1 29.666-41.84Z" fill="#455A64"/><path d="M96.713 33.938c-1.396.025-3.187.518-1.89 1.31 1.299.793 2.124.87 2.137 1.898.012 1.026-.662 2.11-.333 2.841.328.731.875 1.581 1.408 1.335.534-.246 1.984-1.869 2.814-1.794.829.073 3.655.2 4.065-.723.411-.924.822-.863 1.503-1.89.682-1.026.641-2.394-.184-2.402-.826-.008-.937.35-2.317.247-1.38-.103-2.02-1.01-3.363-.773-1.343.239-2.81-.065-3.84-.049ZM91.525 34.304c-1.58.846-4.928 2.123-6.46 1.692-.767-.218-1.68-.522-2.653-.702A30.6 30.6 0 0 0 70.606 53.12c.368.767.831 1.485 1.38 2.136 1.207 1.416 2.463 1.597 3.987 1.893 1.524.296 1.051 1.158 1.803 2.053.751.896 1.076 1.43 1.934 1.914.859.485-.304 1.392-.64 2.382-.337.99-.436 1.544.27 3.548.707 2.004 2.752 3.639 3.36 4.415.608.776-.41 1.68-.16 3.285.25 1.606.18 5.951 1.741 8.378 1.56 2.427 2.497 2.148 2.37.51-.128-1.64-.653-3.187.291-4.42.945-1.231 2.875-.903 3.524-3.153s1.072-2.14 2.115-2.904c1.043-.764.575-1.42 1.544-3.158.97-1.737 1.252-3.376-.18-4.107-1.434-.73-2.378-.64-3.61-2.332a15.778 15.778 0 0 0-4.929-4.292c-1.774-.961-4.591.214-5.716-.115-1.126-.329-1.84-2.464-1.766-3.285.074-.822-.764-1.044-1.573-.842-.81.201-1.26-.312-1.483-1.397-.221-1.084 1.462-2.464 2.83-2.554 1.367-.09 2.098.53 2.37 2.292a3.428 3.428 0 0 0 2.698 2.952c1.26.317.472-.993-.411-1.889-.883-.895-.957-1.712-.283-3.696.673-1.983 2.332-1.827 3.568-3.643 1.236-1.815 1.475-.451 2.723-.27 1.249.18 1.064-.493 1.524-1.643.46-1.15 2.053-.156 3.35-1.08 1.299-.924-1.416-2.366-1.231-3.614.185-1.249 1.42-1.204.73-3.076-.69-1.873.264-1.943.757-2.641.492-.698-.382-1.31-1.968-.464Zm-1.848 4.567c-.41.924-.764.747-1.441 1.757a3.82 3.82 0 0 1-2.415 1.643c-.682.082-1.803-1.13-1.86-1.88-.058-.752 1.022-.974 2.246-1.13 1.25-.2 2.422-.74 3.384-1.565.879-.673.501.255.086 1.175ZM130.801 57.668v.086a2.162 2.162 0 0 0-1.207 1.2c-.694 1.704-.821.956-2.464 2.115-1.643 1.158-1.006 2.053-.92 3.223.086 1.17-1.799 2.465-2.731 2.875-.932.41-1.347 3.056-1.039 4.341.308 1.285-1.232 1.807-2.177 2.978-.944 1.17-1.478 3.133-2.094 4.073a2.876 2.876 0 0 1-2.846 1.319c-1.117-.19-2.152-2.054-2.752-3.639a9.322 9.322 0 0 1-.46-5.113c.35-1.741.226-1.523-.188-4.242a4.34 4.34 0 0 0-3.38-3.79c-1.052-.264-2.789.348-3.725-.198-.937-.546-1.335-1.339-1.947-3.897-.612-2.559.657-3.142 1.643-4.518a9.542 9.542 0 0 1 4.69-3.314 5.163 5.163 0 0 1 4.016.518c1.072.533 1.577 1.733 2.341 1.815.764.082 1.417-.316 2.181-.169.764.148 1.277.522 2.02.411.744-.11.271-.981.165-1.454-.107-.472-.781-.353-1.676-.361-.895-.008-1.117-.25-1.433-.846-.316-.596-.822-.07-1.261-.312-.439-.242-.349.85-.386 1.273-.037.423-.366-.325-.366-.325s-.369.58-.529.313c-.16-.267.209-.904.156-1.561-.054-.657-.998-.501-1.59-1.006a2.258 2.258 0 0 0-2.217-.308c-.822.267-.953.074-1.31.784-.358.71-2.111 1.191-2.666 1.097-.554-.095-.164-1.232.313-2.218.476-.985 1.457-.665 2.053-1.671.595-1.006-.226-1.15-.789-1.31-.562-.16-.739-.703-.152-1.984.588-1.281 1.368-.928 1.692-.337a1.981 1.981 0 0 0 1.787.895c.751 0 .575-.521.558-1.642-.016-1.121.489-1.684 1.487-2.103.998-.419 2.665-1.096 3.285-1.696.621-.6 1.771-.205 2.366.44.595.644 1.922.882 3.314 1.117a1.148 1.148 0 0 0 .986-.325 30.392 30.392 0 0 1 7.252 17.466ZM125.087 72.689c-.743-.127-.677.12-1.113.702-.435.583-1.071 1.232-.956 1.856.115.625.172 1.36.685.912.514-.447.337-.99 1.068-1.318.731-.329 1.429-1.963.316-2.152Z" fill="#FDAF00"/><path d="M108.321 32.937c-19.438-5.614-23.068 7.638-12.764 15.987 10.304 8.35 27.959 11.089 30.337 5.598 2.377-5.49-3.122-17.417-17.573-21.585Z" fill="#fff" style="mix-blend-mode:soft-light" opacity=".4"/><path d="M92.092 75.297c-15.109-12.394-14.637-36.46-1.396-44.238-.559.188-1.117.386-1.672.607A30.522 30.522 0 1 0 128.52 71.79c-4.267 5.901-21.331 15.876-36.427 3.507Z" fill="#000" style="mix-blend-mode:multiply" opacity=".05"/><path d="M171.078 31.404c-1.018-.591-2.427-.505-3.979.39-3.105 1.795-5.622 6.16-5.622 9.742 0 1.798.632 3.063 1.642 3.646l1.98 1.15c1.018.587 2.423.505 3.975-.41 3.109-1.791 5.626-6.16 5.626-9.742 0-1.79-.628-3.051-1.642-3.638" fill="#FDAF00"/><path d="M169.091 32.947c-3.105 1.795-5.622 6.16-5.622 9.746 0 3.585 2.517 5.039 5.622 3.244 3.105-1.795 5.63-6.16 5.626-9.741-.004-3.581-2.521-5.04-5.626-3.249Z" fill="#FDAF00"/><path d="M172.194 40.908v.411a9.018 9.018 0 0 1-3.105 3.253c-1.207.698-2.304.772-3.105.328v-.846a5.53 5.53 0 0 1 2.53-4.386l.822-.472c.726-.41 1.429-.472 1.979-.152.55.32.879 1.002.879 1.864Z" fill="#FDAF00"/><path opacity=".4" d="m171.077 31.404 1.992 1.154c-1.018-.591-2.423-.505-3.979.39-2.033 1.179-3.816 3.454-4.801 5.894l-1.996-1.159c.99-2.439 2.772-4.714 4.805-5.889 1.552-.895 2.961-.981 3.979-.39Z" fill="#fff"/><path opacity=".2" d="m165.04 46.287-1.905-1.105c-1.027-.583-1.643-1.848-1.643-3.647l1.992 1.158c-.016 1.746.579 2.99 1.556 3.594Z" fill="#000"/><path opacity=".1" d="m162.294 37.684 1.996 1.158a10.416 10.416 0 0 0-.822 3.852l-1.991-1.158c.027-1.324.304-2.631.817-3.852Z" fill="#000"/><path d="M168.385 39.007a1.087 1.087 0 0 1-.542-.14 1.33 1.33 0 0 1-.587-1.232 3.49 3.49 0 0 1 1.609-2.78 1.201 1.201 0 0 1 1.935 1.121 3.5 3.5 0 0 1-1.606 2.78c-.243.153-.522.24-.809.25ZM171.311 39.043c-.55-.32-1.232-.263-1.979.152l-.822.472a5.534 5.534 0 0 0-2.53 4.386v.855c.801.443 1.898.37 3.105-.329a9.009 9.009 0 0 0 3.105-3.252v-.411c.004-.87-.325-1.548-.879-1.873Z" fill="#fff"/><path d="M142.209 79.88c.584-1.3.882-2.71.875-4.135.285-.443.524-.914.714-1.405-.245.288-.52.548-.821.776.305-.425.519-.909.628-1.42a5.43 5.43 0 0 1-.912.989.871.871 0 0 0-1.043 0 3.394 3.394 0 0 0-1.396 3.154c-1.191.608-2.246.456-2.953-.291-.378 1.075-.197 2.094.444 2.295-.197.113-.424.16-.649.136 0 .89.46 1.445 1.146 1.232a1.781 1.781 0 0 1-.645.41.846.846 0 0 0 1.339.555 4.966 4.966 0 0 1-2.124 2.016 2.878 2.878 0 0 0 2.198-.41c1.416-.822 2.505-2.296 3.199-3.898M32.868 74.71c1.019-.588 2.423-.506 3.98.41 3.105 1.795 5.622 6.16 5.622 9.746 0 1.798-.637 3.06-1.643 3.642l-1.983 1.15c-1.015.587-2.423.505-3.976-.39-3.105-1.795-5.622-6.16-5.622-9.745 0-1.79.628-3.052 1.643-3.639" fill="#FDAF00"/><path d="M34.853 76.258c3.104 1.794 5.626 6.16 5.626 9.741 0 3.581-2.522 5.039-5.626 3.249-3.105-1.791-5.627-6.16-5.623-9.746.005-3.585 2.522-5.027 5.623-3.244Z" fill="#FDAF00"/><path d="M34.455 80.9c-.69-.411-1.232.024-1.232.944a2.99 2.99 0 0 0 1.232 2.386c.69.41 1.232-.025 1.232-.945a2.99 2.99 0 0 0-1.232-2.386Zm0 2.747a1.942 1.942 0 0 1-.822-1.553c0-.595.362-.87.822-.612a1.948 1.948 0 0 1 .821 1.549c-.008.6-.374.89-.821.616ZM36.29 81.573c0 .217-.131.316-.291.222a.693.693 0 0 1-.296-.559c0-.214.131-.312.296-.218a.694.694 0 0 1 .291.555Z" fill="#fff"/><path d="m36.793 80.085-4.332-2.505c-.308-.177-.555 0-.555.41v5.779a1.319 1.319 0 0 0 .555 1.055l1.552.9 1.29.743 1.49.858c.304.177.555 0 .555-.41V81.14a1.322 1.322 0 0 0-.555-1.055Zm0 6.542-4.14-2.39a.451.451 0 0 1-.221-.386v-5.56l4.14 2.39a.44.44 0 0 1 .221.386v5.56Z" fill="#fff"/><path opacity=".4" d="m32.87 74.71-1.991 1.154c1.018-.588 2.423-.505 3.975.41 2.033 1.175 3.816 3.45 4.805 5.89l1.992-1.159c-.986-2.435-2.768-4.714-4.8-5.889-1.557-.911-2.97-.993-3.98-.406Z" fill="#fff"/><path opacity=".2" d="m38.906 89.597 1.906-1.109c1.022-.583 1.643-1.844 1.643-3.642L40.463 86c.012 1.75-.588 2.99-1.557 3.597Z" fill="#000"/><path opacity=".1" d="m41.648 80.988-1.992 1.158A10.43 10.43 0 0 1 40.478 86l1.991-1.154a10.435 10.435 0 0 0-.821-3.857Z" fill="#000"/><path d="M139.336 3.84c-1.014-.592-2.423-.505-3.975.39-3.109 1.794-5.627 6.16-5.627 9.741 0 1.803.637 3.064 1.643 3.647l1.984 1.15c1.018.587 2.423.505 3.975-.39 3.105-1.795 5.626-6.16 5.626-9.746 0-1.79-.632-3.051-1.642-3.638" fill="#FDAF00"/><path d="M137.368 5.4c-3.104 1.795-5.622 6.16-5.622 9.741 0 3.581 2.501 5.04 5.622 3.249 3.121-1.79 5.627-6.16 5.627-9.746 0-3.585-2.538-5.039-5.627-3.244Z" fill="#FDAF00"/><path opacity=".4" d="m139.335 3.84 1.996 1.153c-1.019-.587-2.427-.505-3.98.41-2.032 1.175-3.815 3.45-4.805 5.89l-1.991-1.158c.989-2.435 2.768-4.715 4.805-5.89 1.552-.899 2.961-.985 3.975-.406Z" fill="#fff"/><path opacity=".2" d="m133.302 18.738-1.909-1.109c-1.023-.583-1.643-1.844-1.643-3.643l1.996 1.154c-.017 1.75.583 2.99 1.556 3.598Z" fill="#000"/><path opacity=".1" d="m130.556 10.13 1.992 1.159a10.521 10.521 0 0 0-.822 3.852l-1.996-1.154a10.44 10.44 0 0 1 .826-3.856Z" fill="#000"/><path d="m136.458 17.364 1.429-.821v-4.784l.998-.575.106-1.643-1.104.636V9.25c0-.378.057-.558.332-.714l.793-.448V6.424l-.99.575a2.908 2.908 0 0 0-1.544 2.714v1.274l-.751.43v1.619l.743-.41-.012 4.738Z" fill="#fff"/><path d="M123.156 100.961c-1.014-.592-2.423-.505-3.975.39-3.109 1.795-5.626 6.16-5.626 9.741 0 1.803.636 3.064 1.642 3.647l1.984 1.15c1.018.587 2.423.505 3.975-.411 3.105-1.79 5.627-6.16 5.627-9.741 0-1.791-.633-3.051-1.643-3.639" fill="#FDAF00"/><path d="M121.173 102.509c-3.105 1.79-5.622 6.16-5.622 9.741 0 3.581 2.517 5.039 5.622 3.244 3.105-1.795 5.626-6.16 5.626-9.741 0-3.581-2.521-5.039-5.626-3.244Z" fill="#FDAF00"/><path opacity=".4" d="m123.155 100.961 1.996 1.154c-1.018-.587-2.427-.505-3.979.39-2.033 1.179-3.815 3.454-4.805 5.893l-1.996-1.158c.99-2.439 2.768-4.715 4.805-5.889 1.556-.895 2.965-.982 3.979-.39Z" fill="#fff"/><path opacity=".2" d="m117.123 115.844-1.91-1.121c-1.023-.583-1.643-1.844-1.643-3.647l1.996 1.158c-.016 1.766.583 3.006 1.557 3.61Z" fill="#000"/><path opacity=".1" d="m114.372 107.24 1.992 1.158a10.482 10.482 0 0 0-.821 3.853l-1.992-1.159c.026-1.324.305-2.632.821-3.852Z" fill="#000"/><path d="M119.867 108.666s.912-2.095.998-2.398a9.247 9.247 0 0 0 0-1.561c0-.201.821-.76 1.097-.185.257.614.306 1.295.139 1.939l2.021-1.179c.41-.251.603.103.603.378a1.522 1.522 0 0 1-.324.87s.411-.123.411.411a1.433 1.433 0 0 1-.489.99s.131.102.136.48a1.61 1.61 0 0 1-.567 1.011c.061.151.092.313.09.476a1.545 1.545 0 0 1-.739 1.162l-3.343 1.951-.033-4.345ZM117.954 114.734l1.454-.85-.02-5.064-1.458.846.024 5.068Z" fill="#fff"/><path d="m53.46 48.976.928-.073c1.233-.1 2.682-.58 2.682-2.329a4.106 4.106 0 0 0-1.856-3.216c-.8-.46-1.483-.27-1.745.411a4.107 4.107 0 0 0-1.742-2.407c-1.026-.59-1.856-.11-1.856 1.072 0 1.717 1.45 3.885 2.665 5.405l.924 1.137ZM75.08 99.75c1.018-.587 2.422-.505 3.979.411 3.104 1.795 5.622 6.16 5.622 9.741 0 1.799-.637 3.06-1.643 3.647l-1.983 1.15c-1.015.587-2.423.501-3.976-.411-3.104-1.794-5.622-6.16-5.622-9.741 0-1.794.628-3.051 1.643-3.638" fill="#FDAF00"/><path d="M77.064 101.298c3.108 1.794 5.626 6.16 5.626 9.741 0 3.581-2.522 5.043-5.626 3.248-3.105-1.794-5.627-6.16-5.623-9.741.004-3.581 2.522-5.018 5.623-3.248Z" fill="#FDAF00"/><path opacity=".4" d="m75.082 99.75-1.992 1.158c1.018-.592 2.423-.505 3.975.39 2.033 1.175 3.815 3.454 4.805 5.889l1.992-1.154c-.986-2.439-2.752-4.714-4.805-5.889-1.552-.9-2.957-.982-3.975-.394Z" fill="#fff"/><path opacity=".2" d="m81.11 114.636 1.905-1.104c1.022-.588 1.643-1.848 1.643-3.647l-1.968 1.141c-.004 1.762-.603 3.007-1.58 3.61Z" fill="#000"/><path opacity=".1" d="m83.859 106.033-1.992 1.154a10.43 10.43 0 0 1 .822 3.852l1.991-1.158a10.432 10.432 0 0 0-.821-3.848Z" fill="#000"/><path d="M75.293 104.221v5.45c0 .41.16.706.361.669l3.775-.727c.197-.041.114-.411-.194-.821l-3.388-4.567c-.308-.407-.554-.411-.554-.004Z" fill="#fff"/><path d="M29.501 28.555c1.019-.592 2.423-.506 3.98.39 3.104 1.794 5.622 6.16 5.622 9.741 0 1.803-.633 3.064-1.643 3.647l-1.98 1.15c-1.018.587-2.422.505-3.979-.411-3.105-1.79-5.622-6.16-5.622-9.741 0-1.79.628-3.052 1.643-3.639" fill="#FDAF00"/><path d="M31.49 30.123c3.104 1.795 5.622 6.16 5.622 9.741 0 3.581-2.518 5.04-5.627 3.245-3.108-1.795-5.626-6.16-5.622-9.742.004-3.58 2.522-5.06 5.627-3.244Z" fill="#FDAF00"/><path opacity=".4" d="m29.503 28.554-1.991 1.158c1.018-.587 2.423-.505 3.975.41 2.054 1.175 3.82 3.45 4.805 5.89l1.992-1.158c-.986-2.46-2.76-4.731-4.813-5.91-1.544-.874-2.949-.981-3.967-.39Z" fill="#fff"/><path opacity=".2" d="m35.523 43.437 1.906-1.105c1.027-.583 1.643-1.844 1.643-3.647l-1.992 1.159c.033 1.75-.567 3.01-1.557 3.593Z" fill="#000"/><path opacity=".1" d="m38.28 34.834-1.99 1.158c.515 1.22.794 2.528.82 3.852l1.992-1.158a10.43 10.43 0 0 0-.821-3.852Z" fill="#000"/><path d="M30.185 31.787v5.585a1.926 1.926 0 0 0-.37-.283c-.41-.246-.768.086-.768.74a2.017 2.017 0 0 0 .768 1.621c.41.247.932 0 .932-.649v-5.12l2.465 1.445v4.008a2.109 2.109 0 0 0-.37-.283c-.41-.247-.628.16-.628.821a2.024 2.024 0 0 0 .767 1.643c.411.246.768-.086.768-.74v-6.693l-3.564-2.095Z" fill="#fff"/><path d="M168.527 77.08c-1.018-.587-2.427-.504-3.979.411-3.105 1.795-5.622 6.16-5.622 9.742 0 1.798.632 3.06 1.642 3.646l1.98 1.15c1.018.588 2.423.501 3.975-.41 3.109-1.795 5.627-6.16 5.627-9.742 0-1.794-.629-3.051-1.643-3.638" fill="#FDAF00"/><path d="M166.528 78.629c-3.104 1.795-5.622 6.16-5.622 9.741 0 3.581 2.518 5.043 5.622 3.249 3.105-1.795 5.631-6.16 5.627-9.742-.004-3.58-2.51-5.039-5.627-3.248Z" fill="#FDAF00"/><path opacity=".4" d="m168.527 77.08 1.991 1.158c-1.018-.591-2.423-.505-3.979.411-2.033 1.175-3.815 3.454-4.801 5.89l-1.996-1.155c.99-2.44 2.772-4.714 4.805-5.889 1.569-.92 2.961-1.002 3.98-.415Z" fill="#fff"/><path opacity=".2" d="m162.49 91.968-1.906-1.104c-1.027-.588-1.643-1.848-1.643-3.647l1.992 1.158c-.016 1.745.583 2.99 1.557 3.593Z" fill="#000"/><path opacity=".1" d="m159.743 83.363 1.996 1.154a10.416 10.416 0 0 0-.821 3.852l-1.992-1.162c.028-1.321.305-2.625.817-3.844Z" fill="#000"/><path d="M163.73 83.215v7.064c0 .213.148.3.333.193l4.957-2.875a.734.734 0 0 0 .333-.575v-7.055c0-.21-.148-.296-.333-.193l-4.957 2.874a.725.725 0 0 0-.333.567Zm4.978 4.107-4.333 2.505c-.185.103-.332 0-.332-.193v-6.123a.727.727 0 0 1 .332-.575l4.333-2.501c.185-.107.333-.02.333.189v6.107a.73.73 0 0 1-.333.575v.016Z" fill="#fff"/><path d="M164.043 90v-1.988l1.577-3.026 1.639 1.798-.354-.87.653-1.195 1.483 1.018v1.38L164.043 90ZM167.799 82.255c.197-.115.362.04.362.349a.97.97 0 0 1-.362.764c-.201.115-.361-.041-.361-.35a.952.952 0 0 1 .361-.764Z" fill="#fff"/><path d="m66.932 20.567-1.112-2.09.915-2.58v-1.58l-2.739 1.58v1.577l1.179 2.054a.169.169 0 0 0 .082.07l1.675.969Z" fill="#FDAF00"/><path opacity=".2" d="m66.932 20.567-1.112-2.09.915-2.58v-1.58l-2.739 1.58v1.577l1.179 2.054a.169.169 0 0 0 .082.07l1.675.969Z" fill="#000"/><path d="M78.703 2.004A1.822 1.822 0 0 0 77.88.583l-.669-.386a1.81 1.81 0 0 0-1.643 0L60.091 9.142a1.806 1.806 0 0 0-.822 1.42v8.005a1.81 1.81 0 0 0 .822 1.425l.67.386a1.827 1.827 0 0 0 1.642 0l3.285-1.906 1.175 2.053a.173.173 0 0 0 .26.054.173.173 0 0 0 .056-.082l1.232-3.585 9.446-5.458a1.823 1.823 0 0 0 .821-1.421l.025-8.03Z" fill="#FDAF00"/><path opacity=".2" d="M59.27 18.566a1.81 1.81 0 0 0 .82 1.425l.67.386a1.849 1.849 0 0 0 1.5.066c-.387.143-.682-.074-.682-.543v-8.004c.008-.29.091-.573.242-.821L59.512 9.74a1.644 1.644 0 0 0-.242.822v8.004Z" fill="#000"/><path opacity=".2" d="M78.674 1.787c-.094-.349-.41-.46-.792-.242l-15.483 8.949c-.246.142-.45.348-.591.595L59.5 9.754a1.7 1.7 0 0 1 .58-.612L75.557.198a1.836 1.836 0 0 1 1.642 0l.67.386a1.803 1.803 0 0 1 .804 1.203Z" fill="#fff"/><path d="M66.104 12.024a2.414 2.414 0 0 0-1.096 1.898c0 .698.489.981 1.096.632a2.422 2.422 0 0 0 1.093-1.897c0-.698-.489-.982-1.093-.633ZM70.14 9.688a2.427 2.427 0 0 0-1.097 1.898c0 .698.493.981 1.096.632a2.428 2.428 0 0 0 1.113-1.897c0-.698-.509-.982-1.112-.633ZM74.182 7.35a2.414 2.414 0 0 0-1.096 1.898c0 .698.489.982 1.096.632a2.423 2.423 0 0 0 1.093-1.897c0-.698-.489-.981-1.093-.632Z" fill="#fff"/><path d="m142.141 47.869 7.109-4.107a.597.597 0 0 0 .242-.472V36.9c0-.18-.106-.263-.242-.185l-7.109 4.107a.597.597 0 0 0-.179.205.603.603 0 0 0-.067.263v6.398c-.008.177.111.26.246.181Z" fill="#FDAF00"/><path d="M141.887 47.685v-.127l2.94-4.871-2.899-1.606a.205.205 0 0 1 .02-.053l3.614 1.507c.074.033.173-.025.251-.148l3.61-5.667a.048.048 0 0 1 .02 0l-2.895 4.953 2.936 1.478v.123a.645.645 0 0 1-.074.292l-3.01-1.643-.411.731c-.172.288-.41.41-.57.329l-.411-.238-3.006 5.108a.227.227 0 0 1-.115-.168Z" fill="#fff"/><path d="M61.395 74.011c.222.229.42.479.591.748.174.274.326.56.456.858.121.28.22.568.296.862.067.25.107.506.119.764a.254.254 0 0 1-.05.173.078.078 0 0 1-.106.025l-.949-.55a.476.476 0 0 1-.164-.149 1.53 1.53 0 0 1-.127-.226l-.07-.168a1.757 1.757 0 0 0-.353-.558 1.23 1.23 0 0 0-.317-.255 1.518 1.518 0 0 0-.266-.123.452.452 0 0 0-.226-.025.222.222 0 0 0-.16.107.526.526 0 0 0-.062.287.96.96 0 0 0 .07.362c.059.135.138.261.234.373.125.164.262.317.41.46.181.173.411.386.67.633.25.236.483.491.694.764a4.13 4.13 0 0 1 .797 1.766 5.8 5.8 0 0 1 .098 1.109c.005.313-.034.625-.115.928a1.577 1.577 0 0 1-.328.611.924.924 0 0 1-.51.288 1.388 1.388 0 0 1-.653-.041v.916a.328.328 0 0 1-.057.21.094.094 0 0 1-.14.024l-.948-.55a.37.37 0 0 1-.14-.181.738.738 0 0 1-.057-.28v-.956a4.414 4.414 0 0 1-.608-.76 6.305 6.305 0 0 1-.48-.879 5.372 5.372 0 0 1-.309-.907 4.154 4.154 0 0 1-.115-.859.28.28 0 0 1 .045-.172.082.082 0 0 1 .107-.025l.953.55a.582.582 0 0 1 .16.136c.043.066.081.134.115.205 0 .045.05.115.086.218.045.113.097.223.156.328.07.126.153.245.247.354.102.122.226.225.365.303.193.127.415.203.645.222.172 0 .259-.127.259-.386a.843.843 0 0 0-.095-.378 2.461 2.461 0 0 0-.283-.41 7.524 7.524 0 0 0-.485-.493c-.197-.185-.41-.41-.694-.657a4.477 4.477 0 0 1-1.092-1.581 5.272 5.272 0 0 1-.345-1.971 3.313 3.313 0 0 1 .094-.822 1.87 1.87 0 0 1 .275-.612.978.978 0 0 1 .436-.353c.184-.075.386-.098.583-.066v-.952a.34.34 0 0 1 .057-.214.103.103 0 0 1 .14-.025l.949.55c.064.046.113.11.14.185.036.088.056.181.057.276v.99ZM105.18 7.458l-1.31-.743c-.62-.41-1.486-.41-2.464.152-1.901 1.097-3.437 3.88-3.437 6.218v.53c0 2.336 3.141 4.878 3.141 4.878l1.286.727s-.772-.879-.686-1.06c.821-1.728 3.133-6.607 3.133-8.513v-.534a4.191 4.191 0 0 0-.147-1.141l.147.086.337-.6Zm-3.753 5.34c-.949.545-1.721.102-1.721-.995.513-.078 1.799-2.27 1.721-2.977.948-.546 1.716-.103 1.716.994a3.805 3.805 0 0 1-1.716 2.998v-.02Z" fill="#FDAF00"/><path opacity=".2" d="m105.18 7.458-1.31-.743c-.62-.41-1.486-.41-2.464.152-1.901 1.097-3.437 3.88-3.437 6.218v.53c0 2.336 3.141 4.878 3.141 4.878l1.286.727s-.772-.879-.686-1.06c.821-1.728 3.133-6.607 3.133-8.513v-.534a4.191 4.191 0 0 0-.147-1.141l.147.086.337-.6Zm-3.753 5.34c-.949.545-1.721.102-1.721-.995.513-.078 1.799-2.27 1.721-2.977.948-.546 1.716-.103 1.716.994a3.805 3.805 0 0 1-1.716 2.998v-.02Z" fill="#000"/><path d="M106.238 9.901c0-2.337-1.54-3.343-3.437-2.246-1.897 1.096-3.442 3.88-3.442 6.217v.534c0 1.799 2.054 3.885 2.978 4.752a.466.466 0 0 0 .595.029.47.47 0 0 0 .136-.165c.821-1.643 3.17-6.653 3.17-8.587V9.9Zm-3.437 3.696c-.953.55-1.721.107-1.721-.99a3.793 3.793 0 0 1 1.721-2.977c.949-.55 1.716-.107 1.716.99a3.788 3.788 0 0 1-1.716 2.99v-.013Z" fill="#FDAF00"/><g opacity=".8" stroke="#FDAF00" stroke-miterlimit="10" stroke-linecap="round"><path opacity=".8" d="m140.816 13.244 25.388 20.653M167.26 45.615l-1.487 32.144M163.493 79.73l-16.809-31.615M150.68 39.972l12.583-2.501M135.945 18.736l8.247 18.949M133.306 8.395l-26.99 4.41M106.059 15.729l36.168 23.207M144.85 48.115l-2.772 24.629M160.052 87.87l-34.501 20.081M144.527 79.21l16.185 4.711M137.39 85.676l-12.234 16.439M64.129 83.252l13.495 17.277M41.066 83.689l14.625-5.828M59.558 69.671l-4.472-18.34M50.804 48.633l-13.98 27.84M34.855 75.491l-3.183-33.26M40.48 88.178l33.606 19.404M54.719 41.498l8.944-20.447M80.363 8.428l16.986 4.189M57.959 15.754l-22.83 16.493M38.129 36.887l10.628 4.977M95.944 16.309 57.328 43.873" stroke-width=".75"/><path opacity=".8" d="m83.277 107.504 31.688.025" stroke-width=".71"/></g><path d="M134.285 135.196a1.2 1.2 0 0 0 .166.524c.096.159.228.293.384.392l15.475 8.932a1.222 1.222 0 0 0 1.1 0l21.171-12.221a1.038 1.038 0 0 0 .403-1.454 1.028 1.028 0 0 0-.403-.382l-15.47-8.932a1.236 1.236 0 0 0-1.105 0l-21.171 12.221a1.189 1.189 0 0 0-.55.92Z" fill="#37474F"/><path d="M150.86 143.98v1.195a1.134 1.134 0 0 1-.55-.132l-15.474-8.932a1.032 1.032 0 0 1-.054-1.799c-.25.177-.23.44.054.604l15.474 8.932c.169.09.359.135.55.132Z" fill="#263238"/><path d="M133.767 134.296a1.18 1.18 0 0 1-.517-.936V114.9a1.225 1.225 0 0 1 .55-.957l21.171-12.222a1.036 1.036 0 0 1 1.585.916v18.46a1.238 1.238 0 0 1-.55.957l-21.171 12.222a1.188 1.188 0 0 1-1.068.02Z" fill="#455A64"/><path d="M134.775 134.309a1.031 1.031 0 0 1-1.524-.949v-18.48a1.14 1.14 0 0 1 .16-.542l1.035.595a1.132 1.132 0 0 0-.16.542v18.481c0 .328.213.48.489.353Z" fill="#263238"/><path d="M134.285 115.496v18.481c0 .349.247.493.55.316l21.171-12.222a1.225 1.225 0 0 0 .55-.956v-18.477c0-.353-.246-.493-.55-.32l-21.171 12.222a1.237 1.237 0 0 0-.55.956Z" fill="#37474F"/><path d="m134.838 134.917 15.474 8.928a1.236 1.236 0 0 0 1.101 0l21.17-12.218a.335.335 0 0 0 .224-.32.339.339 0 0 0-.224-.32l-15.47-8.932a1.236 1.236 0 0 0-1.105 0l-21.17 12.221a.343.343 0 0 0-.163.516c.04.058.097.101.163.125Z" fill="#455A64"/><path d="m135.137 115.565 20.407-11.782c.185-.103.333 0 .333.193v15.979a.745.745 0 0 1-.333.575l-20.407 11.782c-.184.103-.332 0-.332-.193V116.14a.723.723 0 0 1 .332-.575Z" fill="#FDAF00"/><path d="m148.324 112.493-.053-.045c-.781-.587-1.82-.558-2.924.078a8.013 8.013 0 0 0-2.83 3.13l-.066.119-.032.061a10.17 10.17 0 0 0-1.212 4.608c0 1.474.411 2.616 1.212 3.207.8.592 1.823.563 2.928-.073a8.163 8.163 0 0 0 2.932-3.311 10.171 10.171 0 0 0 1.232-4.607c-.029-1.446-.439-2.579-1.187-3.167ZM146 123.015a4.828 4.828 0 0 1-.456.324l-.193.119-.189.103c-.148.076-.3.143-.456.201-1.918.694-3.388-.665-3.409-3.314v-.115a10.095 10.095 0 0 1 1.232-4.517l.066-.119a8.672 8.672 0 0 1 2.123-2.621c.146-.116.298-.225.456-.324l.189-.119.193-.103c.148-.076.3-.143.456-.201a2.276 2.276 0 0 1 2.209.23.805.805 0 0 1 .066.049c.694.559 1.125 1.61 1.134 3.035v.115c-.046 2.682-1.516 5.737-3.421 7.257Z" fill="#fff"/><path d="M145.336 123.824c-1.154.665-2.242.694-3.059.074-.817-.62-1.269-1.807-1.269-3.351a10.682 10.682 0 0 1 1.269-4.813l.033-.066.069-.127a8.435 8.435 0 0 1 2.957-3.286c1.154-.665 2.239-.694 3.056-.082l.057.041c.781.633 1.212 1.807 1.212 3.31a10.682 10.682 0 0 1-1.269 4.813 8.512 8.512 0 0 1-3.056 3.487Zm0-10.936-.18.111a5.612 5.612 0 0 0-.436.312 8.276 8.276 0 0 0-2.024 2.497l-.062.115a9.598 9.598 0 0 0-1.154 4.304v.11c0 2.506 1.388 3.836 3.253 3.163a4.326 4.326 0 0 0 .8-.403c.12-.074.292-.201.436-.312 1.864-1.478 3.232-4.386 3.252-6.916v-.111c0-1.314-.41-2.34-1.084-2.874l-.061-.05a2.16 2.16 0 0 0-2.107-.217c-.149.055-.294.12-.436.193l-.197.078Z" fill="#fff"/><path d="m148.394 112.362-.053-.041-.066-.05-.066.128-.065.115c-.225.411-.478.806-.756 1.183a.72.72 0 0 0-.074.098 7.72 7.72 0 0 1-1.199 1.232l-.086.066a5.727 5.727 0 0 1-.588.411c-.24.139-.495.254-.759.34l-.082.025a2.396 2.396 0 0 1-1.171.062h-.074a2.02 2.02 0 0 1-.706-.337l-.058-.045-.065-.058-.07.128c0 .036-.045.078-.066.123l-.07.127.066.053.058.046c.229.17.49.294.767.365h.079a2.58 2.58 0 0 0 1.252-.078l.086-.025c.286-.091.561-.212.822-.361.216-.125.424-.262.624-.411l.09-.069a8.024 8.024 0 0 0 1.282-1.323l.078-.107c.306-.405.581-.833.821-1.281.025-.037.045-.078.07-.123l.065-.127-.086-.066ZM148.391 120.025a2.105 2.105 0 0 0-.887-.374.508.508 0 0 0-.078 0c-.433-.053-.873 0-1.281.156l-.091.033a4.021 4.021 0 0 0-.624.3 5.568 5.568 0 0 0-.801.562l-.09.074a8.279 8.279 0 0 0-1.253 1.372l-.078.107c-.283.4-.54.818-.768 1.252v.021c-.02.033-.037.07-.057.107l-.082.123.07.049a.614.614 0 0 0 .065.049l.07.045.066-.131.057-.115c.211-.4.446-.785.707-1.154l.074-.103a7.88 7.88 0 0 1 1.17-1.285l.082-.07c.237-.2.491-.379.76-.534.188-.11.384-.205.587-.283l.086-.029a2.542 2.542 0 0 1 1.2-.144h.074c.27.049.528.154.755.308l.066.041.066.05.065-.123v-.021c0-.033.037-.07.054-.107l.086-.139-.07-.037Z" fill="#fff"/><path d="M146.91 113.179c-.411-.851-.974-1.13-1.569-.785-.596.345-1.158 1.269-1.573 2.6a14.94 14.94 0 0 0-.624 4.32 8.688 8.688 0 0 0 .624 3.602c.411.85.973 1.129 1.573.784.599-.345 1.154-1.269 1.569-2.599.418-1.404.629-2.861.624-4.325a8.695 8.695 0 0 0-.624-3.597Zm-1.569 10.168c-.518.3-1.002.037-1.376-.731a8.3 8.3 0 0 1-.587-3.417c-.006-1.39.192-2.774.587-4.107.374-1.199.858-2.02 1.376-2.316.517-.296.998-.037 1.371.731a8.318 8.318 0 0 1 .588 3.417 14.208 14.208 0 0 1-.588 4.107c-.373 1.178-.858 2-1.371 2.316Z" fill="#fff"/><path d="m149.439 115.492-8.213 4.735a.356.356 0 0 0-.14.279c0 .103.062.164.14.119l8.213-4.735a.362.362 0 0 0 .14-.279c0-.103-.062-.165-.14-.119Z" fill="#fff"/><path d="M145.483 123.438v-10.933c0-.102-.069-.143-.147-.098a.346.346 0 0 0-.152.271v10.932c0 .103.074.148.152.103a.36.36 0 0 0 .147-.275Z" fill="#fff"/><path d="m136.636 134.436 19.63-11.343a.61.61 0 0 1 .555 0l1.002.579a.168.168 0 0 1 .084.062.17.17 0 0 1-.084.259l-19.626 11.343a.628.628 0 0 1-.551 0l-1.002-.579a.178.178 0 0 1-.086-.059.177.177 0 0 1-.035-.099c0-.035.01-.07.03-.099a.165.165 0 0 1 .083-.064Z" fill="#37474F"/><path d="m139.221 135.931 19.65-11.351a.59.59 0 0 1 .551 0l6.18 3.568c.152.087.152.23 0 .321l-19.605 11.334a.6.6 0 0 1-.551 0l-6.205-3.552a.173.173 0 0 1-.089-.055.168.168 0 0 1-.038-.098.159.159 0 0 1 .026-.101.165.165 0 0 1 .081-.066Z" fill="#263238"/><path d="m156.837 129.693.616-.357c.025 0 .025-.041 0-.058l-.71-.41a.095.095 0 0 0-.049-.013.098.098 0 0 0-.05.013l-.616.353c-.024 0-.024.041 0 .057l.711.411a.12.12 0 0 0 .049.013.102.102 0 0 0 .049-.009Zm-1.232-1.413-.612.358c-.028 0-.024.037 0 .053l.711.411c.015.007.032.01.049.01a.124.124 0 0 0 .05-.01l.611-.357c.029 0 .025-.042 0-.054l-.714-.411a.106.106 0 0 0-.078-.004l-.017.004Zm-1.983 1.146-1.043.604c-.025 0-.025.041 0 .057l.71.411a.105.105 0 0 0 .049.013.106.106 0 0 0 .05-.013l1.043-.599c.024 0 .02-.042 0-.058l-.715-.411a.116.116 0 0 0-.078-.004h-.016Zm1.088-.628-.616.357c-.029 0-.025.041 0 .058l.711.41a.095.095 0 0 0 .049.013.095.095 0 0 0 .049-.013l.616-.353c.025 0 .025-.041 0-.057l-.714-.411a.11.11 0 0 0-.078-.004h-.017Zm-2.415 1.396-.616.353c-.024 0-.024.041 0 .058l.711.411c.015.007.032.01.049.01a.116.116 0 0 0 .049-.01l.616-.358c.025 0 .025-.041 0-.057l-.71-.411a.098.098 0 0 0-.042-.006.091.091 0 0 0-.04.01h-.017Zm-.899.518-.616.357c-.025 0-.025.037 0 .053l.71.411a.111.111 0 0 0 .05.012.104.104 0 0 0 .049-.012l.616-.357c.025 0 .025-.037 0-.054l-.71-.41a.099.099 0 0 0-.083 0h-.016Zm2.817 1.671.616-.357c.025 0 .025-.041 0-.054l-.71-.41a.106.106 0 0 0-.05-.012.104.104 0 0 0-.049.012l-.616.357c-.024 0-.024.037 0 .053l.711.411a.117.117 0 0 0 .098 0Zm-.899.518.616-.354c.029 0 .024-.041 0-.057l-.711-.411a.116.116 0 0 0-.049-.01.116.116 0 0 0-.049.01l-.616.358c-.025 0-.025.041 0 .057l.71.411a.1.1 0 0 0 .048.009.114.114 0 0 0 .047-.013h.004Zm-.9.521.616-.357c.029 0 .025-.041 0-.058l-.71-.41a.104.104 0 0 0-.049-.012.111.111 0 0 0-.05.012l-.616.353c-.024 0-.024.041 0 .057l.715.411a.116.116 0 0 0 .045.012.116.116 0 0 0 .045-.008h.004Zm-.899.518.616-.354c.029 0 .025-.041 0-.057l-.71-.411a.124.124 0 0 0-.099 0l-.612.358c-.029 0-.025.041 0 .057l.715.411a.104.104 0 0 0 .043.006c.015 0 .03-.004.043-.01h.004Zm4.427-3.729.616-.354c.025 0 .025-.041 0-.057l-.71-.411a.124.124 0 0 0-.099 0l-.616.358c-.025 0-.025.041 0 .057l.711.411a.106.106 0 0 0 .094-.004h.004Zm-.821 1.642 1.371-.792c.029 0 .025-.037 0-.054l-1.728-.998a.124.124 0 0 0-.05-.01.116.116 0 0 0-.049.01l-.711.411c-.024 0-.024.041 0 .058l.916.525c.029 0 .029.045 0 .058l-.571.328c-.024 0-.024.041 0 .058l.711.41a.104.104 0 0 0 .098.005l.013-.009Zm-4.604-.62-.616.353c-.025 0-.025.041 0 .058l.711.411a.104.104 0 0 0 .098 0l.616-.354c.025 0 .025-.041 0-.057l-.71-.411a.106.106 0 0 0-.05-.012.104.104 0 0 0-.049.012Zm-.899.518-.616.353c-.025 0-.025.041 0 .057l.71.411a.12.12 0 0 0 .049.011.125.125 0 0 0 .05-.011l.616-.357c.024 0 .024-.041 0-.058l-.711-.41a.115.115 0 0 0-.102.004h.004Zm-4.493 5.819a.104.104 0 0 0 .098 0l.616-.357c.025 0 .025-.037 0-.054l-.71-.41a.104.104 0 0 0-.049-.012.111.111 0 0 0-.05.012l-.616.357c-.024 0-.024.037 0 .053l.711.411Zm-2.698-1.667-.616.357c-.029 0-.025.041 0 .053l.71.411a.104.104 0 0 0 .049.012.106.106 0 0 0 .05-.012l.616-.357c.024 0 .024-.037 0-.054l-.715-.41a.096.096 0 0 0-.049-.014.096.096 0 0 0-.049.014h.004Zm1.445 1.232a.106.106 0 0 0 .05.012.104.104 0 0 0 .049-.012l.616-.354c.025 0 .025-.041 0-.057l-.711-.411a.116.116 0 0 0-.049-.01.116.116 0 0 0-.049.01l-.616.358c-.025 0-.025.041 0 .057l.71.407Zm2.842.764.612-.354c.029 0 .025-.041 0-.057l-.714-.411a.117.117 0 0 0-.099 0l-.612.357c-.029 0-.025.042 0 .058l.715.411a.134.134 0 0 0 .049.003.108.108 0 0 0 .045-.02l.004.013Zm-.998.517a.125.125 0 0 0 .05.011.12.12 0 0 0 .049-.011l.612-.357c.029 0 .024-.041 0-.058l-.715-.41a.095.095 0 0 0-.049-.013.095.095 0 0 0-.049.013l-.612.353c-.029 0-.025.041 0 .057l.714.415Zm-2.39-3.019-.616.354c-.029 0-.025.041 0 .057l.711.411a.117.117 0 0 0 .098 0l.612-.357c.029 0 .025-.042 0-.058l-.715-.411a.1.1 0 0 0-.094-.008l.004.012Zm4.489-2.603-.616.353c-.025 0-.025.041 0 .057l.71.411a.125.125 0 0 0 .05.011.12.12 0 0 0 .049-.011l.616-.357c.029 0 .025-.041 0-.058l-.711-.41a.093.093 0 0 0-.049-.011.104.104 0 0 0-.049.015Zm-3.598 2.053-.612.357c-.028 0-.024.042 0 .058l.715.411a.104.104 0 0 0 .049.012.111.111 0 0 0 .05-.012l.611-.354c.029 0 .025-.041 0-.057l-.714-.411a.118.118 0 0 0-.049-.012.122.122 0 0 0-.05.008Zm4.497-2.595-.616.357c-.024 0-.024.041 0 .057l.711.411a.105.105 0 0 0 .049.013.105.105 0 0 0 .049-.013l.616-.353c.025 0 .025-.041 0-.058l-.71-.41c-.017-.005-.034-.007-.051-.005a.12.12 0 0 0-.048.017v-.016Zm-1.799 1.039-.616.357c-.024 0-.024.041 0 .053l.715.411a.1.1 0 0 0 .094 0l.616-.357c.029 0 .025-.037 0-.054l-.71-.41a.099.099 0 0 0-.051-.004.12.12 0 0 0-.048.02v-.016Zm-.915.538-.612.353c-.029 0-.025.041 0 .057l.714.411a.1.1 0 0 0 .095 0l.616-.353c.029 0 .024-.041 0-.058l-.711-.41a.1.1 0 0 0-.102 0Zm-.9.517-.612.353c-.028 0-.024.041 0 .058l.715.411c.015.007.032.01.049.01a.116.116 0 0 0 .049-.01l.612-.358c.029 0 .025-.041 0-.057l-.71-.411a.121.121 0 0 0-.086.004h-.017Zm4.6.633.612-.358c.029 0 .024-.041 0-.053l-.715-.411a.104.104 0 0 0-.098 0l-.612.358c-.029 0-.025.036 0 .053l.71.411a.117.117 0 0 0 .06.018.11.11 0 0 0 .059-.018h-.016Zm7.893-7.844-.612.353c-.029 0-.024.041 0 .057l.711.411a.105.105 0 0 0 .049.013.105.105 0 0 0 .049-.013l.612-.353c.029 0 .025-.041 0-.058l-.714-.41a.099.099 0 0 0-.079 0h-.016Zm-1.088.628-.612.353c-.029 0-.025.041 0 .058l.71.41a.108.108 0 0 0 .099 0l.612-.353c.029 0 .024-.041 0-.057l-.715-.411a.105.105 0 0 0-.078 0h-.016Zm1.987-1.15-.611.357c-.029 0-.025.041 0 .054l.714.41a.108.108 0 0 0 .099 0l.612-.353c.028 0 .024-.041 0-.057l-.715-.411a.12.12 0 0 0-.082.021l-.017-.021Zm-4.653 4.801.616-.357c.025 0 .025-.041 0-.054l-.71-.41a.104.104 0 0 0-.049-.012.111.111 0 0 0-.05.012l-.616.357c-.024 0-.024.037 0 .053l.711.411a.116.116 0 0 0 .115 0h-.017Zm5.651-5.318a.104.104 0 0 0-.098 0l-.612.353c-.029 0-.025.041 0 .057l.715.411a.117.117 0 0 0 .098 0l.612-.357c.029 0 .025-.041 0-.058l-.715-.406Zm-8.891 8.361.612-.353c.029 0 .025-.041 0-.058l-.71-.41a.096.096 0 0 0-.05-.013.095.095 0 0 0-.049.013l-.612.353c-.029 0-.024.041 0 .057l.715.411a.098.098 0 0 0 .055.016c.02 0 .039-.005.056-.016h-.017Zm11.023-6.365.616-.354c.029 0 .024-.041 0-.057l-.711-.411a.104.104 0 0 0-.098 0l-.616.353c-.025 0-.025.041 0 .058l.714.411a.102.102 0 0 0 .056.017c.02 0 .039-.006.055-.017h-.016Zm-1.914-.066.616-.357c.025 0 .025-.037 0-.054l-.71-.411a.126.126 0 0 0-.05-.012.118.118 0 0 0-.049.012l-.616.358c-.025 0-.025.037 0 .053l.711.411a.106.106 0 0 0 .114 0h-.016Zm.801-1.343a.105.105 0 0 0-.049-.013.106.106 0 0 0-.05.013l-.616.353c-.024 0-.024.041 0 .058l.711.41a.095.095 0 0 0 .049.013.095.095 0 0 0 .049-.013l.616-.353c.025 0 .025-.041 0-.057l-.71-.411Zm.189-.107 1.725.994a.104.104 0 0 0 .098 0l.616-.357c.029 0 .025-.037 0-.054l-1.725-.998a.116.116 0 0 0-.049-.01.116.116 0 0 0-.049.01l-.616.358c-.013.012-.013.041.016.057h-.016Zm-2.086 1.142-.616.357c-.025 0-.025.041 0 .058l.71.41a.095.095 0 0 0 .049.013.098.098 0 0 0 .05-.013l.616-.353c.024 0 .024-.041 0-.057l-.711-.411a.116.116 0 0 0-.082-.004h-.016Zm-6.768 3.909-.616.354c-.025 0-.025.041 0 .057l.71.411a.12.12 0 0 0 .049.011.125.125 0 0 0 .05-.011l.616-.357c.024 0 .024-.042 0-.058l-.711-.411a.095.095 0 0 0-.041-.006.117.117 0 0 0-.041.01h-.016Zm8.784-3.018a.105.105 0 0 0 .094 0l.616-.357c.029 0 .025-.041 0-.058l-.71-.41a.105.105 0 0 0-.049-.013.113.113 0 0 0-.05.013l-.611.353c-.029 0-.025.041 0 .057l.71.415Zm-7.885 2.497-.616.357c-.025 0-.025.041 0 .058l.71.41a.098.098 0 0 0 .05.013.095.095 0 0 0 .049-.013l.616-.353c.025 0 .025-.041 0-.057l-.71-.411a.119.119 0 0 0-.083-.004h-.016Zm-6.739 5.947a.104.104 0 0 0 .098 0l.616-.354c.025 0 .025-.041 0-.057l-.71-.411a.104.104 0 0 0-.049-.012.106.106 0 0 0-.05.012l-.616.353c-.024 0-.024.041 0 .058l.711.411Zm-1.351-1.274-.616.358c-.029 0-.025.037 0 .053l.71.411a.108.108 0 0 0 .099 0l.616-.358c.024 0 .024-.036 0-.053l-.711-.411a.115.115 0 0 0-.041-.008.115.115 0 0 0-.041.008h-.016Zm2.349.756.616-.353c.024 0 .024-.041 0-.058l-.711-.41a.117.117 0 0 0-.098 0l-.616.357c-.029 0-.025.041 0 .057l.71.411a.11.11 0 0 0 .058.016.103.103 0 0 0 .057-.02h-.016Zm.899-.517.616-.358c.025 0 .025-.041 0-.057l-.714-.411a.1.1 0 0 0-.095 0l-.616.353c-.029 0-.025.041 0 .058l.711.411a.11.11 0 0 0 .056.016.118.118 0 0 0 .059-.012h-.017Zm.899-.522.612-.353c.029 0 .025-.041 0-.058l-.714-.41a.112.112 0 0 0-.047-.011.113.113 0 0 0-.048.011l-.616.357c-.028 0-.024.041 0 .057l.711.411a.106.106 0 0 0 .119-.004h-.017Zm-3.211-.238-.616.353c-.029 0-.025.041 0 .058l.71.41a.11.11 0 0 0 .05.013.105.105 0 0 0 .049-.013l.616-.353c.025 0 .025-.041 0-.057l-.715-.411a.097.097 0 0 0-.094 0Zm.899-.522-.616.358c-.028 0-.024.041 0 .057l.711.411a.104.104 0 0 0 .098 0l.612-.353c.029 0 .025-.041 0-.058l-.714-.411a.12.12 0 0 0-.111 0l.02-.004Zm3.594-2.074-.616.354c-.025 0-.025.041 0 .057l.714.411a.1.1 0 0 0 .095 0l.616-.353c.029 0 .024-.042 0-.058l-.711-.411a.113.113 0 0 0-.06-.017.106.106 0 0 0-.059.021l.021-.004Zm-.92.542-.612.358c-.029 0-.025.037 0 .053l.715.411c.014.007.03.01.047.01a.11.11 0 0 0 .047-.01l.616-.357c.029 0 .025-.042 0-.054l-.71-.411a.118.118 0 0 0-.052-.013.114.114 0 0 0-.051.013Zm1.799-1.039-.616.358c-.025 0-.025.041 0 .057l.71.411a.12.12 0 0 0 .049.011.125.125 0 0 0 .05-.011l.616-.353c.028 0 .024-.041 0-.058l-.711-.41a.102.102 0 0 0-.046-.024.13.13 0 0 0-.052-.001v.02Zm-3.598 2.078-.612.354c-.029 0-.024.041 0 .057l.715.411a.117.117 0 0 0 .098 0l.612-.357c.029 0 .025-.042 0-.058l-.714-.411a.102.102 0 0 0-.099-.016v.02Zm.899-.521-.611.357c-.029 0-.025.041 0 .058l.714.41a.095.095 0 0 0 .049.013.096.096 0 0 0 .05-.013l.612-.353c.028 0 .024-.041 0-.057l-.711-.411a.115.115 0 0 0-.048-.024.114.114 0 0 0-.055-.001v.021Zm-.652 3.667.611-.357c.029 0 .025-.041 0-.053l-.71-.411a.104.104 0 0 0-.049-.012.111.111 0 0 0-.05.012l-.612.353c-.028 0-.024.041 0 .058l.715.41a.102.102 0 0 0 .049 0 .126.126 0 0 0 .046-.02v.02Zm-5.278-.534-.71-.41a.095.095 0 0 0-.049-.013.096.096 0 0 0-.05.013l-.616.353c-.028 0-.024.041 0 .057l.711.411a.104.104 0 0 0 .098 0l.616-.353c.029-.037.029-.062 0-.078v.02Zm1.347.411-.71-.411a.104.104 0 0 0-.049-.012.106.106 0 0 0-.05.012l-.948.547c-.025 0-.025.041 0 .057l.71.411a.104.104 0 0 0 .049.012.106.106 0 0 0 .05-.012l.948-.546c.029-.054.029-.078 0-.095v.037Zm-2.439-1.187-.711-.41a.117.117 0 0 0-.098 0l-.76.41c-.025 0 0 .041 0 .054l.715.41a.097.097 0 0 0 .094 0l.76-.435c.029-.029.029-.029 0-.066v.037Zm.579-.337a.117.117 0 0 0 .099 0l.616-.357c.024 0 .024-.041 0-.057l-.711-.411a.105.105 0 0 0-.049-.013.113.113 0 0 0-.05.013l-.616.353c-.024 0-.024.041 0 .058l.711.414Zm3.113 1.976-.711-.411a.104.104 0 0 0-.098 0l-1.183.682c-.029 0-.025.041 0 .057l.711.411a.104.104 0 0 0 .098 0l1.183-.682c.029-.053.029-.078 0-.094v.037Zm.591.821-.714-.411a.129.129 0 0 0-.048-.01.128.128 0 0 0-.047.01l-.768.415c-.024 0-.024.041 0 .054l.711.41a.104.104 0 0 0 .098 0l.76-.435c.037-.029.033-.029.008-.057v.024Zm2.982-6.669c.015.007.032.01.049.01a.116.116 0 0 0 .049-.01l.616-.358c.025 0 .025-.041 0-.053l-.71-.411a.108.108 0 0 0-.099 0l-.616.354c-.024 0-.024.041 0 .057l.711.411Zm-1.799 1.039c.015.007.032.01.049.01a.124.124 0 0 0 .05-.01l.616-.358c.024 0 .024-.041 0-.057l-.711-.411a.104.104 0 0 0-.098 0l-.616.354c-.025 0-.025.041 0 .057l.71.415Zm-3.992 2.279a.106.106 0 0 0 .05.013.105.105 0 0 0 .049-.013l.616-.353c.024 0 .024-.041 0-.058l-.711-.41a.117.117 0 0 0-.098 0l-.616.357c-.025 0-.025.041 0 .057l.71.407Zm4.887-2.821a.106.106 0 0 0 .05.012.104.104 0 0 0 .049-.012l.616-.353c.025 0 .025-.042 0-.058l-.711-.411a.116.116 0 0 0-.049-.01.116.116 0 0 0-.049.01l-.616.358c-.025 0-.025.041 0 .057l.71.407Zm-1.798 1.039c.015.007.032.01.049.01a.116.116 0 0 0 .049-.01l.616-.353c.025 0 .025-.042 0-.058l-.71-.411a.124.124 0 0 0-.099 0l-.616.358c-.025 0-.025.041 0 .057l.711.407Zm.209 5.174a.124.124 0 0 0-.099 0l-.944.551c-.029 0-.025.037 0 .053l.714.411a.111.111 0 0 0 .05.012.104.104 0 0 0 .049-.012l.945-.547c.024 0 .024-.041 0-.057l-.715-.411Zm-1.499-4.431a.105.105 0 0 0 .049.013.11.11 0 0 0 .05-.013l.616-.353c.024 0 .024-.041 0-.058l-.711-.41a.095.095 0 0 0-.049-.013.095.095 0 0 0-.049.013l-.616.353c-.025 0-.025.041 0 .057l.71.411Zm-.899.517a.104.104 0 0 0 .049.011.104.104 0 0 0 .049-.011l.616-.357c.025 0 .025-.041 0-.053l-.71-.411a.106.106 0 0 0-.05-.012.104.104 0 0 0-.049.012l-.616.357c-.025 0-.025.037 0 .054l.711.41Zm19.055-5.704a.104.104 0 0 0-.049-.012.111.111 0 0 0-.05.012l-1.515.875c-.025 0-.025.037 0 .053l.715.411a.097.097 0 0 0 .094 0l1.516-.875c.028 0 .024-.041 0-.057l-.711-.407Zm-1.988 1.15a.104.104 0 0 0-.098 0l-.616.357c-.025 0-.025.037 0 .054l.714.41a.1.1 0 0 0 .095 0l.616-.357c.029 0 .024-.037 0-.053l-.711-.411Zm-12.18 6.735.616-.353c.028 0 .024-.041 0-.057l-.711-.411a.104.104 0 0 0-.098 0l-.612.353c-.029 0-.025.041 0 .058l.714.41a.1.1 0 0 0 .095 0h-.004Zm10.386-5.696a.108.108 0 0 0-.099 0l-.612.353c-.029 0-.024.041 0 .058l.715.41a.117.117 0 0 0 .098 0l.612-.357c.029 0 .025-.041 0-.057l-.714-.407Zm4.686-2.702a.117.117 0 0 0-.099 0l-.616.357c-.025 0-.025.041 0 .058l.71.41a.098.098 0 0 0 .05.013.095.095 0 0 0 .049-.013l.616-.353c.025 0 .025-.041 0-.057l-.71-.415Zm1.609-.111-1.724-.998a.117.117 0 0 0-.099 0l-.616.353c-.029 0-.025.041 0 .058l1.725.998c.015.007.032.01.049.01a.116.116 0 0 0 .049-.01l.616-.358c.029-.016.029-.041 0-.057v.004Zm-9.655 4.751a.116.116 0 0 0-.049-.01.116.116 0 0 0-.049.01l-.756.44c-.024 0-.024.041 0 .057l.711.411a.104.104 0 0 0 .098 0l.756-.435c.029 0 .024-.041 0-.058l-.711-.415Zm2.271-1.314a.104.104 0 0 0-.098 0l-.945.547c-.024 0-.024.041 0 .057l.711.411a.104.104 0 0 0 .098 0l.945-.547c.029 0 .025-.041 0-.057l-.711-.411Zm-4.353 2.514a.117.117 0 0 0-.098 0l-5.064 2.924c-.025 0-.025.041 0 .057l.71.411a.111.111 0 0 0 .05.012.104.104 0 0 0 .049-.012l5.064-2.924c.028 0 .024-.041 0-.058l-.711-.41Zm-5.339 3.088a.105.105 0 0 0-.049-.013.105.105 0 0 0-.049.013l-.776.435c-.029 0-.025.041 0 .058l.71.41a.095.095 0 0 0 .049.013.096.096 0 0 0 .05-.013l.755-.435c.025 0 .025-.041 0-.057l-.69-.411Zm6.391-3.696a.11.11 0 0 0-.05-.013.105.105 0 0 0-.049.013l-.76.435c-.024 0-.024.041 0 .058l.711.41a.095.095 0 0 0 .049.013.095.095 0 0 0 .049-.013l.76-.435c.025 0 .025-.041 0-.057l-.71-.411Zm-7.43 4.291a.118.118 0 0 0-.049-.012.118.118 0 0 0-.049.012l-.76.44c-.025 0-.025.037 0 .053l.711.411a.104.104 0 0 0 .098 0l.76-.439c.025 0 .025-.037 0-.054l-.711-.411Zm9.512-5.494a.096.096 0 0 0-.05-.013.095.095 0 0 0-.049.013l-.76.435c-.024 0-.024.041 0 .057l.711.411a.117.117 0 0 0 .098 0l.76-.439c.025 0 .025-.041 0-.058l-.71-.406Zm3.215-1.857a.104.104 0 0 0-.098 0l-.612.353c-.029 0-.025.042 0 .058l.714.411a.1.1 0 0 0 .095 0l.616-.354c.029 0 .025-.041 0-.057l-.715-.411Zm1.972-1.429.616-.357c.024 0 .024-.041 0-.058l-.711-.41a.095.095 0 0 0-.049-.013.095.095 0 0 0-.049.013l-.616.353c-.025 0-.025.041 0 .057l.71.411a.115.115 0 0 0 .09.012l.009-.008Zm-4.021-.029.616-.353c.025 0 .025-.041 0-.057l-.71-.411a.11.11 0 0 0-.05-.013.105.105 0 0 0-.049.013l-.616.353c-.025 0-.025.041 0 .058l.71.41a.093.093 0 0 0 .045.015.122.122 0 0 0 .046-.006l.008-.009Zm-2.053 3.524 1.798-1.039c.025 0 .025-.037 0-.053l-.71-.411a.108.108 0 0 0-.099 0l-1.798 1.039c-.025 0-.025.041 0 .057l.71.411a.103.103 0 0 0 .107.004l-.008-.008Zm5.059-2.977a.124.124 0 0 0 .099 0l.616-.354c.024 0 .024-.041 0-.057l-.711-.411a.116.116 0 0 0-.049-.01.116.116 0 0 0-.049.01l-.616.358c-.025 0-.025.041 0 .057l.71.407Zm-.916-.588.612-.353c.029 0 .025-.041 0-.057l-.71-.411a.12.12 0 0 0-.049-.011.125.125 0 0 0-.05.011l-.612.357c-.028 0-.024.041 0 .058l.715.41c.015.01.033.016.051.016a.104.104 0 0 0 .052-.011l-.009-.009Zm-5.035 4.082.616-.357c.025 0 .025-.041 0-.057l-.71-.411a.105.105 0 0 0-.049-.013.11.11 0 0 0-.05.013l-.616.353c-.024 0-.024.041 0 .058l.711.41a.12.12 0 0 0 .049.013.102.102 0 0 0 .049-.009Zm3.972-2.353a.095.095 0 0 0 .049.013.095.095 0 0 0 .049-.013l.616-.353c.025 0 .025-.041 0-.057l-.71-.411a.105.105 0 0 0-.049-.013.106.106 0 0 0-.05.013l-.616.353c-.024 0-.024.041 0 .058l.711.41Zm-8.468 4.949.616-.357c.028 0 .024-.041 0-.058l-.711-.411a.118.118 0 0 0-.049-.012.118.118 0 0 0-.049.012l-.616.354c-.025 0-.025.041 0 .057l.71.411a.115.115 0 0 0 .099.016v-.012Zm.899-.522.616-.353c.025 0 .025-.041 0-.057l-.711-.411a.117.117 0 0 0-.098 0l-.616.357c-.025 0-.025.041 0 .058l.71.411a.105.105 0 0 0 .049.016.096.096 0 0 0 .05-.008v-.013Zm-1.799 1.039.616-.357c.029 0 .025-.037 0-.053l-.71-.411a.125.125 0 0 0-.05-.011.12.12 0 0 0-.049.011l-.616.357c-.025 0-.025.041 0 .054l.715.41a.112.112 0 0 0 .094.013v-.013Zm3.598-2.078.616-.353c.024 0 .024-.041 0-.057l-.711-.411a.105.105 0 0 0-.049-.013.105.105 0 0 0-.049.013l-.616.353c-.025 0-.025.041 0 .058l.71.41a.096.096 0 0 0 .048.019.11.11 0 0 0 .051-.006v-.013Zm-.9.522.616-.357c.025 0 .025-.041 0-.058l-.71-.411a.124.124 0 0 0-.099 0l-.616.354c-.024 0-.024.041 0 .057l.711.411a.114.114 0 0 0 .098.016v-.012Zm1.799-1.039.616-.357c.025 0 .025-.037 0-.054l-.71-.41a.108.108 0 0 0-.099 0l-.616.357c-.025 0-.025.041 0 .053l.711.411a.1.1 0 0 0 .047.018.11.11 0 0 0 .051-.006v-.012Zm4.107-7.68a.117.117 0 0 0 .098 0l.612-.357c.029 0 .025-.041 0-.058l-.193-.106a.097.097 0 0 0-.094 0l-.616.357c-.029 0-.025.037 0 .053l.193.111Zm-4.423 2.875a.097.097 0 0 0 .094 0l.616-.357c.029 0 .025-.041 0-.054l-.71-.41a.108.108 0 0 0-.099 0l-.616.357c-.024 0-.024.037 0 .053l.715.411Zm1.795-1.035a.117.117 0 0 0 .098 0l.616-.353c.025 0 .025-.041 0-.058l-.71-.41a.125.125 0 0 0-.05-.011.12.12 0 0 0-.049.011l-.616.357c-.025 0-.025.041 0 .058l.711.406Zm-2.896 1.672a.106.106 0 0 0 .05.012.104.104 0 0 0 .049-.012l.616-.354c.024 0 .024-.041 0-.057l-.711-.411a.116.116 0 0 0-.049-.01.116.116 0 0 0-.049.01l-.616.357c-.025 0-.025.042 0 .058l.71.407Zm1.996-1.154a.104.104 0 0 0 .049.012.106.106 0 0 0 .05-.012l.616-.354c.028 0 .024-.041 0-.057l-.711-.411a.104.104 0 0 0-.098 0l-.616.353c-.025 0-.025.041 0 .058l.71.411Zm-3.795 2.188a.113.113 0 0 0 .05.013.105.105 0 0 0 .049-.013l.616-.353c.025 0 .025-.041 0-.057l-.71-.411a.117.117 0 0 0-.099 0l-.616.357c-.025 0-.025.041 0 .054l.71.41Zm.9-.517a.117.117 0 0 0 .098 0l.616-.357c.025 0 .025-.041 0-.058l-.71-.41a.095.095 0 0 0-.049-.013.098.098 0 0 0-.05.013l-.616.353c-.024 0-.024.041 0 .057l.711.415Zm4.624-2.969a.104.104 0 0 0 .049.012.106.106 0 0 0 .05-.012l.616-.353c.024 0 .024-.041 0-.058l-.189-.111a.106.106 0 0 0-.05-.012.104.104 0 0 0-.049.012l-.616.353c-.024 0-.024.041 0 .058l.189.111Zm2.698-1.557a.106.106 0 0 0 .05.012.104.104 0 0 0 .049-.012l.612-.353c.028 0 .024-.041 0-.057l-.193-.111a.1.1 0 0 0-.095 0l-.616.353c-.029 0-.024.041 0 .057l.193.111Zm1.495.863a.1.1 0 0 0 .095 0l.616-.353c.028 0 .024-.041 0-.058l-.711-.411a.116.116 0 0 0-.049-.01.116.116 0 0 0-.049.01l-.616.358c-.025 0-.025.041 0 .057l.714.407Zm2.247 2.279.616-.353c.024 0 .024-.041 0-.058l-.711-.41a.117.117 0 0 0-.099 0l-.616.357c-.024 0-.024.041 0 .057l.711.411a.1.1 0 0 0 .054.013.11.11 0 0 0 .053-.017h-.008Zm-5.541-2.107a.111.111 0 0 0 .05.012.104.104 0 0 0 .049-.012l.616-.357c.025 0 .021-.037 0-.053l-.189-.111a.095.095 0 0 0-.049-.013.095.095 0 0 0-.049.013l-.616.353c-.029 0-.025.041 0 .057l.188.111Zm-7.322 4.518a.104.104 0 0 0 .049.012.106.106 0 0 0 .05-.012l.632-.358c.025 0 .025-.041 0-.057l-.71-.411a.106.106 0 0 0-.05-.012.104.104 0 0 0-.049.012l-.616.353c-.025 0-.025.041 0 .058l.694.415Z" fill="#455A64"/><path d="m153.803 136.489 6.074-3.503a.731.731 0 0 1 .661 0l3.483 2.008c.04.014.075.039.099.074a.197.197 0 0 1 .038.117.198.198 0 0 1-.038.118.196.196 0 0 1-.099.073l-6.111 3.516a.745.745 0 0 1-.661 0l-3.446-1.992a.204.204 0 0 1-.145-.35.204.204 0 0 1 .145-.061Z" fill="#263238"/><path d="M106.704 133.734H93.3c-.653 0-1.183.53-1.183 1.183v27.191c0 .653.53 1.183 1.183 1.183h13.404c.654 0 1.183-.53 1.183-1.183v-27.191c0-.653-.529-1.183-1.183-1.183Z" fill="#455A64"/><path d="M106.665 135.555H93.346a.776.776 0 0 0-.776.776v24.365c0 .429.348.777.777.777h13.318a.777.777 0 0 0 .776-.777v-24.365a.776.776 0 0 0-.776-.776Z" fill="#FDAF00"/><path d="m103.45 144.704-.062-.066a4.783 4.783 0 0 0-6.645-.099l-.074.07-.037.037a4.785 4.785 0 1 0 6.83.066l-.012-.008Zm-2.699 7.942c-.174.03-.349.049-.525.057h-.444a4.69 4.69 0 0 1-4.464-4.632v-.099a4.695 4.695 0 0 1 1.413-3.285l.074-.07a4.666 4.666 0 0 1 2.99-1.261h.443a4.64 4.64 0 0 1 3.076 1.356l.074.074a4.694 4.694 0 0 1 1.314 3.199v.098a4.69 4.69 0 0 1-3.951 4.542v.021Z" fill="#fff"/><path d="M100.004 153.004a5.004 5.004 0 0 1-4.904-5.978 4.998 4.998 0 0 1 1.368-2.56l.041-.037.078-.078a4.99 4.99 0 0 1 3.491-1.35 4.993 4.993 0 0 1 3.449 1.452l.066.066a4.997 4.997 0 0 1 1.016 5.431 5 5 0 0 1-4.605 3.054Zm0-9.471h-.21a4.453 4.453 0 0 0-2.842 1.2l-.07.069a4.435 4.435 0 0 0-1.346 3.146v.095a4.453 4.453 0 0 0 3.753 4.361c.167.028.336.046.505.053.137.008.274.008.411 0a4.453 4.453 0 0 0 4.259-4.414v-.099a4.432 4.432 0 0 0-1.253-3.047l-.07-.07a4.403 4.403 0 0 0-2.936-1.281l-.201-.013Z" fill="#fff"/><path d="m103.53 144.604-.065-.065-.078-.078-.074.078-.074.07a4.613 4.613 0 0 1-.875.64l-.086.049c-.433.233-.9.394-1.384.477h-.099a4.39 4.39 0 0 1-1.552-.033l-.099-.021a4.506 4.506 0 0 1-1.35-.529l-.083-.05a4.779 4.779 0 0 1-.821-.644l-.07-.074-.074-.078-.082.074-.074.074-.082.078.078.078.066.065c.267.268.564.504.887.703l.09.053a4.76 4.76 0 0 0 1.445.563l.103.02c.305.058.614.087.924.086.244.001.487-.017.727-.053h.099a4.739 4.739 0 0 0 1.482-.505l.091-.049c.343-.194.661-.429.948-.699l.078-.074.078-.073-.074-.083ZM103.526 151.241l-.074-.07a5.082 5.082 0 0 0-.953-.702l-.09-.049a4.847 4.847 0 0 0-1.478-.505h-.103a5.208 5.208 0 0 0-.727-.054c-.31.002-.62.032-.924.091l-.103.02a4.848 4.848 0 0 0-1.445.559l-.09.053a5.06 5.06 0 0 0-.888.702l-.061.062-.078.082.082.078.074.07.082.078.074-.082.07-.07a4.42 4.42 0 0 1 .821-.645l.082-.053c.42-.247.876-.426 1.351-.53l.099-.02a4.71 4.71 0 0 1 1.552-.033h.099c.484.084.952.246 1.384.48l.086.045c.316.18.609.397.875.645l.074.07.074.074.078-.074.065-.066.074-.078-.082-.078Z" fill="#fff"/><path d="M101.814 144.572c-.477-.945-1.121-1.467-1.811-1.467s-1.335.522-1.811 1.467a8.5 8.5 0 0 0 0 6.862c.476.945 1.12 1.462 1.811 1.462.69 0 1.334-.517 1.811-1.462a8.517 8.517 0 0 0 0-6.862Zm-1.811 8.004c-.596 0-1.158-.468-1.585-1.319a8.15 8.15 0 0 1 0-6.509c.41-.85.99-1.318 1.585-1.318s1.158.468 1.585 1.318a8.155 8.155 0 0 1 0 6.509c-.427.838-.99 1.319-1.585 1.319Z" fill="#fff"/><path d="M104.737 147.838h-9.47a.177.177 0 0 0 0 .349h9.47a.173.173 0 0 0 .107-.06.175.175 0 0 0 0-.23.171.171 0 0 0-.107-.059Z" fill="#fff"/><path d="M100.169 152.746v-9.471a.173.173 0 0 0-.054-.114.18.18 0 0 0-.118-.046.176.176 0 0 0-.118.046.174.174 0 0 0-.055.114v9.471a.174.174 0 0 0 .055.114.176.176 0 0 0 .237.001.168.168 0 0 0 .053-.115Z" fill="#fff"/><path d="M98.989 134.207h2.316a.251.251 0 0 1 .173.066.255.255 0 0 1 .078.168.247.247 0 0 1-.158.219.242.242 0 0 1-.093.015h-2.316a.247.247 0 0 1-.174-.065.247.247 0 0 1-.077-.169.248.248 0 0 1 .25-.234ZM102.961 134.207a.232.232 0 0 1 .234.234.236.236 0 0 1-.234.234.242.242 0 0 1-.165-.069.232.232 0 0 1 .165-.399ZM103.898 134.675a.234.234 0 1 0 0-.469.234.234 0 0 0 0 .469ZM96.39 134.675a.234.234 0 1 0 0-.468.234.234 0 0 0 0 .468ZM97.332 134.207a.234.234 0 1 1-.218.144.23.23 0 0 1 .218-.144ZM49.534 139.01l-4.562-2.636a1.196 1.196 0 0 1-.703-.982v-.632l4.732-2.67a1.005 1.005 0 0 0 .455-.784v-5.622l7.963 4.599v5.622a1.003 1.003 0 0 1-.451.789l-4.025 2.316a3.74 3.74 0 0 1-3.409 0Z" fill="#263238"/><path opacity=".3" d="M55.504 136.901v.632l1.458-.842a1 1 0 0 0 .456-.788v-5.618l-1.52-.875-.098 1.175 1.067.612v4.394a1.001 1.001 0 0 1-.456.784l-.907.526Z" fill="#000"/><path d="M56.88 135.59a1.011 1.011 0 0 1-.455.788l-3.475 2a3.77 3.77 0 0 1-3.404 0l-4.575-2.637c-.94-.542-.94-1.42 0-1.963l3.478-2.004a.992.992 0 0 0 .452-.784v-4.394l7.98 4.603v4.391Z" fill="#455A64"/><path d="m47.52 132.308.928-.534a.992.992 0 0 0 .451-.784v-4.394l7.98 4.603v4.391a1.012 1.012 0 0 1-.456.788l-.92.522-7.983-4.592ZM44.27 134.76v.632a1.204 1.204 0 0 0 .702.986l4.562 2.632c.504.275 1.07.416 1.643.411v-.628a3.377 3.377 0 0 1-1.643-.411l-4.562-2.641a1.185 1.185 0 0 1-.703-.981Z" fill="#37474F"/><path d="M36.605 97.475v24.443a1.27 1.27 0 0 0 .567.986l31.166 17.959.054.025c.28.123.497-.029.497-.362v.481c.185.008.37-.034.534-.119a1.232 1.232 0 0 0 .53-.966v-24.439a1.253 1.253 0 0 0-.567-.981L38.24 96.542a1.232 1.232 0 0 0-1.1-.02 1.204 1.204 0 0 0-.535.953Z" fill="#455A64"/><path d="M36.605 97.476v24.443a1.27 1.27 0 0 0 .567.986l31.167 17.959.053.025c.28.123.497-.029.497-.362V116.1a1.26 1.26 0 0 0-.567-.986L37.168 97.155c-.283-.164-.517-.057-.558.23a.801.801 0 0 0-.005.09Z" fill="#37474F"/><path d="M68.906 140.543v-1.663l1.064-.616v1.663a1.233 1.233 0 0 1-.53.965 1.054 1.054 0 0 1-.534.119.677.677 0 0 1-.127 0h-.127l-.099-.025h-.033l-.094-.041c.263.083.48-.069.48-.402Z" fill="#263238"/><path d="M36.605 120.26v1.667a1.27 1.27 0 0 0 .567.986l31.166 17.959.054.024c.28.123.497-.028.497-.361v-1.663L36.606 120.26Z" fill="#455A64"/><path d="M68.742 115.544c.102.169.158.361.164.558v22.785l1.068-.616v-22.789a1.148 1.148 0 0 0-.164-.558l-1.068.62Z" fill="#263238"/><path d="M67.84 136.032v-19.581a.747.747 0 0 0-.34-.591L38.008 98.866c-.185-.107-.337-.02-.337.197v19.581a.752.752 0 0 0 .34.592l29.492 16.989c.184.111.336.021.336-.193Z" fill="#FDAF00"/><path d="M47.496 114.515a12.95 12.95 0 0 0 1.54 5.848c.994 1.897 2.316 3.388 3.72 4.197 1.405.809 2.724.846 3.697.094.973-.751 1.54-2.197 1.54-4.069a12.947 12.947 0 0 0-1.524-5.861c0-.024-.028-.049-.04-.078l-.083-.152a10.208 10.208 0 0 0-3.573-3.959c-1.4-.821-2.718-.842-3.696-.098l-.07.053c-.99.772-1.51 2.181-1.51 4.025Zm.111.135v-.148c0-1.811.563-3.145 1.441-3.852a2.87 2.87 0 0 1 2.887-.353c.199.073.392.158.58.255l.242.131.242.148c.2.127.393.264.58.411a10.996 10.996 0 0 1 2.693 3.322l.082.152a12.77 12.77 0 0 1 1.549 5.729v.148c-.025 3.363-1.894 5.088-4.325 4.205a4.898 4.898 0 0 1-.579-.254l-.242-.132-.242-.148a5.655 5.655 0 0 1-.58-.41c-2.447-1.926-4.3-5.807-4.328-9.204Z" fill="#fff"/><path d="M48.868 120.473a13.501 13.501 0 0 1-1.61-6.111c0-1.906.546-3.396 1.54-4.197l.07-.058c1.039-.776 2.414-.735 3.877.107 1.4.822 2.735 2.284 3.757 4.152l.086.156.041.082a13.52 13.52 0 0 1 1.61 6.115c0 1.959-.57 3.466-1.61 4.251-1.038.784-2.418.751-3.884-.095-1.467-.846-2.846-2.402-3.877-4.402Zm3.655-9.61a4.816 4.816 0 0 0-.55-.242 2.73 2.73 0 0 0-2.678.275l-.074.057c-.875.707-1.364 2.013-1.376 3.676v.144c.025 3.211 1.762 6.899 4.127 8.776.178.147.362.284.555.411.148.097.302.186.46.266.18.093.364.174.554.243 2.366.858 4.107-.822 4.107-4.008a.457.457 0 0 0 0-.074 12.11 12.11 0 0 0-1.479-5.532 1.7 1.7 0 0 0-.078-.144 10.433 10.433 0 0 0-2.566-3.17 14.12 14.12 0 0 0-.555-.411l-.23-.144-.217-.123Z" fill="#fff"/><path d="m48.88 110.334.07-.054.086-.057.086.156c.025.053.054.102.078.148.284.521.606 1.022.961 1.499l.095.127a9.31 9.31 0 0 0 1.523 1.577l.107.086c.237.186.487.354.748.505.304.169.627.304.96.403l.107.033c.48.149.99.176 1.483.078l.094-.021c.323-.077.627-.217.896-.411l.078-.061.082-.066.09.16.082.156.087.16-.083.07-.073.058a2.694 2.694 0 0 1-1.076.488 3.256 3.256 0 0 1-1.59-.094l-.11-.037a5.285 5.285 0 0 1-1.02-.46 7.086 7.086 0 0 1-.796-.534l-.11-.09a9.926 9.926 0 0 1-1.643-1.68l-.103-.131a13.485 13.485 0 0 1-1.043-1.643c-.029-.049-.054-.103-.082-.156l-.087-.164.103-.045ZM48.886 120.063l.082-.057c.314-.211.67-.351 1.043-.411h.103a3.457 3.457 0 0 1 1.643.201l.11.041c.277.105.543.232.797.382.36.207.699.447 1.015.715.04.028.078.06.115.094a10.557 10.557 0 0 1 1.589 1.737l.098.14c.36.508.687 1.039.978 1.589l.074.14.082.164-.086.062-.082.057-.09.062-.083-.168a12.937 12.937 0 0 0-.973-1.61l-.095-.128a9.745 9.745 0 0 0-1.486-1.642l-.103-.091a6.976 6.976 0 0 0-.961-.677c-.24-.14-.491-.26-.752-.358l-.102-.041a3.29 3.29 0 0 0-1.524-.176h-.094a2.54 2.54 0 0 0-.961.386l-.078.057-.087.062-.086-.16v-.025l-.07-.135-.082-.165.066-.045Z" fill="#fff"/><path d="M49.969 115.955a19.052 19.052 0 0 0 .792 5.487c.53 1.688 1.232 2.874 1.996 3.285.764.411 1.466.086 1.992-.998s.793-2.673.793-4.567a18.892 18.892 0 0 0-.793-5.486c-.526-1.688-1.232-2.875-1.992-3.286-.76-.41-1.466-.086-1.996.994s-.792 2.661-.792 4.571Zm1.047 5.339a18.075 18.075 0 0 1-.747-5.199c0-1.799.267-3.343.747-4.337.48-.994 1.088-1.306 1.741-.928s1.27 1.421 1.742 2.94c.5 1.693.748 3.451.739 5.216 0 1.799-.263 3.339-.743 4.337-.481.998-1.089 1.306-1.742.928s-1.269-1.421-1.737-2.957Z" fill="#fff"/><path d="m47.556 114.313 10.406 6.008a.453.453 0 0 1 .177.357c0 .127-.078.205-.177.152l-10.406-6.012a.463.463 0 0 1-.181-.354c0-.151.082-.217.18-.151Z" fill="#fff"/><path d="M52.57 124.39v-13.876c0-.132.095-.185.193-.128a.459.459 0 0 1 .19.345v13.881c0 .127-.095.181-.19.127a.455.455 0 0 1-.193-.349Z" fill="#fff"/><path d="M26.662 137.532a.297.297 0 0 1 .18-.254l7.319-4.222a.955.955 0 0 1 .87 0l22.33 12.912a.296.296 0 0 1 .18.25v.768a.3.3 0 0 1-.18.255l-7.315 4.222a.967.967 0 0 1-.87 0l-22.333-12.892a.297.297 0 0 1-.181-.25c-.004-.095 0-.698 0-.789Z" fill="#FDAF00"/><path opacity=".5" d="M26.662 137.532a.297.297 0 0 1 .18-.254l7.319-4.222a.955.955 0 0 1 .87 0l22.33 12.912a.296.296 0 0 1 .18.25v.768a.3.3 0 0 1-.18.255l-7.315 4.222a.967.967 0 0 1-.87 0l-22.333-12.892a.297.297 0 0 1-.181-.25c-.004-.095 0-.698 0-.789Z" fill="#000"/><path d="m50.048 150.678 7.314-4.205a.264.264 0 0 0 .13-.098.265.265 0 0 0 0-.31.268.268 0 0 0-.13-.097l-22.329-12.912a.955.955 0 0 0-.87 0l-7.318 4.222a.268.268 0 0 0-.18.252.265.265 0 0 0 .18.253l22.332 12.891a.969.969 0 0 0 .87.004Z" fill="#FDAF00"/><path opacity=".3" d="m50.048 150.678 7.314-4.205a.264.264 0 0 0 .13-.098.265.265 0 0 0 0-.31.268.268 0 0 0-.13-.097l-22.329-12.912a.955.955 0 0 0-.87 0l-7.318 4.222a.268.268 0 0 0-.18.252.265.265 0 0 0 .18.253l22.332 12.891a.969.969 0 0 0 .87.004Z" fill="#000"/><path d="M49.64 150.781v.785a.891.891 0 0 0 .411-.103l7.31-4.222a.298.298 0 0 0 .181-.25v-.772a.309.309 0 0 1-.18.254l-7.31 4.206a.903.903 0 0 1-.411.102Z" fill="#FDAF00"/><path opacity=".7" d="M49.64 150.781v.785a.891.891 0 0 0 .411-.103l7.31-4.222a.298.298 0 0 0 .181-.25v-.772a.309.309 0 0 1-.18.254l-7.31 4.206a.903.903 0 0 1-.411.102Z" fill="#000"/><path d="m48.014 142.961-.821.48s-.025.025-.025.029l.743.448.875-.522-.772-.435ZM49.017 143.541l-.822.485a.026.026 0 0 0-.004.014c0 .005.002.01.004.014l.735.411.875-.517-.788-.407ZM46.322 141.984l-.821.485s-.02 0-.02.029l1.231.718.875-.517-1.265-.715ZM45.32 141.418l-.82.485a.03.03 0 0 0-.004.014c0 .005.001.01.003.014l.74.444.842-.546-.76-.411ZM32.195 138.759l.74.444.874-.517-.747-.44-.822.485a.025.025 0 0 0-.014-.001.064.064 0 0 0-.014.005.046.046 0 0 0-.01.011.04.04 0 0 0-.007.013ZM44.319 140.826l-.822.481s-.024.024-.024.033l.743.443.875-.517-.772-.44ZM47.636 144.055l-.756-.44-.821.485v.029l.743.443.834-.517ZM40.82 142.435l.744.444.87-.518-.751-.439-.822.484s-.04.017-.04.029ZM47.023 144.703l.74.443.874-.517-.76-.44-.82.485a.035.035 0 0 0-.023.008.033.033 0 0 0-.01.021ZM39.82 141.857l.74.444.874-.518-.76-.439-.82.48s-.034.025-.034.033ZM38.809 141.277l.739.444.875-.518-.76-.439-.822.484a.034.034 0 0 0-.021.008.035.035 0 0 0-.011.021ZM42.832 143.595l1.585.932 2.008-1.175-.866-.497-1.06.616a.133.133 0 0 1-.074 0 .119.119 0 0 1-.07 0l-.669-.386-.821.481s-.033.02-.033.029ZM42.31 139.668l-.822.485v.028l.74.444.874-.518-.792-.439ZM41.828 143.015l.74.444.874-.518-.76-.439-.821.48c-.033.013-.033.025-.033.033ZM32.649 136.416l.74.443.903-.517-.76-.44-.821.481a.04.04 0 0 0-.02-.01.042.042 0 0 0-.023.004.045.045 0 0 0-.016.016c-.003.007-.004.015-.003.023ZM34.293 135.035l-.82.485a.03.03 0 0 0-.004.014c0 .005 0 .01.003.015l.735.41.875-.517-.789-.407ZM31.797 137.22v.021l.735.41.875-.521-.756-.419-.821.485a.03.03 0 0 0-.021.006.035.035 0 0 0-.012.018ZM30.188 137.601l.743.444.87-.518-.76-.439-.82.48a.046.046 0 0 0-.033.033ZM35.286 135.615l-.821.485v.029l.743.443.87-.517-.792-.44ZM31.188 138.181l.743.444.87-.518-.755-.439-.822.485a.04.04 0 0 0-.037.028ZM38.298 137.352l-.821.484v.029l.739.443.874-.517-.792-.439ZM39.301 137.932l-.821.48a.041.041 0 0 0 0 .033l.74.444.874-.518-.793-.439ZM40.303 138.51l-.821.48s-.025.025-.025.033l.743.444.871-.518-.768-.439ZM37.294 136.773l-.82.481a.033.033 0 0 0 0 .033l.693.435.875-.517-.748-.432ZM41.305 139.088l-.822.485a.033.033 0 0 0-.002.014c0 .005 0 .01.002.014l.74.444.874-.518-.792-.439ZM36.294 136.193l-.821.485v.029l.743.443.87-.517-.792-.44ZM43.328 140.248l-.822.485a.039.039 0 0 0 0 .028l.744.444.87-.518-.792-.439ZM43.553 141.697l-.821.481a.036.036 0 0 0-.025.029v.032l.74.411.87-.517-.764-.436ZM51.233 144.822l-.822.481c-.02 0-.02.024-.02.028l.739.444.875-.517-.773-.436ZM52.234 145.4l-.821.481a.041.041 0 0 0 0 .029l.739.443.875-.517-.793-.436ZM42.546 141.117l-.821.481a.043.043 0 0 0 0 .028l.743.444.871-.517-.793-.436ZM53.24 145.98l-.82.481c-.021 0-.026.025-.026.029l.744.443.87-.517-.768-.436Z" fill="#37474F"/><path d="M43.7 142.785v.02l.734.411.875-.518-.752-.423-.82.481s-.038.025-.038.029ZM50.1 145.475l-.822.48c-.024 0-.024.025-.024.033l.74.443.874-.517-.768-.439ZM52.108 146.633l-.822.48s-.024.025-.024.033l.73.431.871-.517-.755-.427ZM50.246 146.568l.74.444.874-.518-.76-.439-.821.484s-.033.017-.033.029ZM51.13 148.349a.053.053 0 0 0 0 .029v.02l.74.411 2.008-1.17-.76-.44-1.987 1.15ZM41.547 140.539l-.821.481a.032.032 0 0 0-.003.014c0 .005 0 .01.003.014l.735.411.874-.517-.788-.403ZM49.113 147.219l.735.411.871-.464-.76-.439-.821.484c-.005 0-.009 0-.013.002a.026.026 0 0 0-.012.006ZM50.117 147.799l.744.443.87-.517-.76-.44-.821.481c-.029.012-.033.024-.033.033ZM36.53 137.639l-.822.48s-.024.025-.024.033l.743.444.875-.518-.772-.439ZM34.522 136.488l-.822.481c-.02 0-.024.024-.024.033l.735.41.875-.517-.764-.407ZM33.8 138.382l.744.444.87-.517-.755-.44-.821.485a.02.02 0 0 0-.013.001.045.045 0 0 0-.012.005.035.035 0 0 0-.012.022ZM32.797 137.799l.743.448.87-.526-.755-.41-.821.484a.032.032 0 0 0-.02-.005.03.03 0 0 0-.017.009ZM34.805 138.952l.735.411.874-.517-.76-.44-.82.481-.03.065ZM40.544 139.955l-.821.485v.049l.739.411.875-.518-.793-.427ZM36.809 140.119l.743.443.87-.517-.755-.44-.821.481s-.037.025-.037.033ZM35.809 139.541l.739.443.875-.517-.76-.44-.822.485s-.032.016-.032.029ZM38.533 138.797l-.82.484s-.026.021-.026.029l.744.444.87-.518-.768-.439ZM35.526 137.061l-.822.48s-.024.025-.024.033l.743.443.87-.517-.767-.439ZM39.541 139.363l-.821.485a.036.036 0 0 0-.016.011.035.035 0 0 0-.009.018l.744.443.87-.517-.768-.44ZM37.532 138.219l-.821.48a.041.041 0 0 0 0 .033l.735.411.874-.518-.788-.406ZM37.813 140.699l.743.443.875-.517-.76-.439-.822.48a.042.042 0 0 0-.023.01.042.042 0 0 0-.014.023ZM50.018 144.119l-.822.485s-.02 0-.02.028l.739.444.875-.517-.772-.44ZM34.041 134.896l-.76-.439-.82.485a.03.03 0 0 0 0 .028l.739.411.841-.485ZM33.279 135.762l-1.13-.653-.82.485v.029l1.108.64.842-.501ZM35.573 134.19l-.916-.53-.821.485a.027.027 0 0 0 0 .028l.9.534.837-.517ZM30.797 136.95l-.916-.53-.821.48s-.025.025-.025.033l.9.534.862-.517ZM32.408 136.566l-1.4-.8-.822.48a.041.041 0 0 0 0 .029l1.372.792.85-.501ZM35.402 135.097l.74.444.874-.518-.76-.439-.82.48a.034.034 0 0 0-.034.033ZM28.744 137.076l-.82.481s-.026 0-.026.028l1.113.658.863-.522-1.13-.645ZM36.402 135.668l.74.443.874-.517-.76-.44-.82.485a.034.034 0 0 0-.021.01.038.038 0 0 0-.013.019ZM40.863 138.242v.021l.74.41.87-.517-.764-.435-.82.48a.042.042 0 0 0-.026.041ZM41.855 138.822l.74.443.874-.517-.76-.436-.82.481s-.034.025-.034.029ZM39.848 137.664v.021l.74.41.87-.517-.76-.435-.821.48a.037.037 0 0 0-.029.041ZM38.397 136.833l.74.411.874-.517-.76-.44-.82.485a.031.031 0 0 0-.027-.003.037.037 0 0 0-.021.017.036.036 0 0 0-.003.027.032.032 0 0 0 .017.02ZM37.406 136.256l.744.443.87-.517-.755-.44-.822.485s-.037.016-.037.029ZM48.703 148.596l-.821.484a.037.037 0 0 0 0 .029l.735.411.875-.518-.789-.406ZM43.479 145.578l-.822.481s-.024.024-.024.032l.739.444.875-.517-.768-.44ZM46.698 147.438l-.822.48a.051.051 0 0 0-.016.013.05.05 0 0 0-.008.02l1.74 1.006.876-.517-1.77-1.002ZM44.483 146.156l-.822.481s-.024.024-.024.033l.743.443.87-.517-.767-.44ZM45.483 146.756l-.822.48c-.024 0-.024.025-.024.033l.739.444.867-.546-.76-.411ZM42.86 139.4v.021l.735.411.875-.518-.76-.435-.822.48a.037.037 0 0 0-.029.041ZM51.6 148.961l-.756-.44-1.975 1.138a.053.053 0 0 0 0 .029l.74.41 1.991-1.137ZM31.284 138.543l-.822.48s-.024.025-.024.029l.899.538.875-.517-.929-.53ZM32.44 139.207l-.822.481s-.024.024-.024.032l5.7 3.286.875-.522-5.73-3.277ZM33.195 139.34l.74.443.874-.517-.76-.44-.82.485a.039.039 0 0 0-.021.009.045.045 0 0 0-.013.02ZM30.12 137.869l-.822.481s-.025.02-.025.028l.9.534.875-.517-.929-.526ZM38.399 142.648l-.821.481a.042.042 0 0 0 0 .033l.895.517.875-.517-.949-.514ZM40.73 143.992l-.82.485a.03.03 0 0 0-.004.014c0 .005.001.01.004.015l.899.517.87-.517-.948-.514ZM39.57 143.322l-.82.485a.03.03 0 0 0-.004.014l.003.015.9.534.87-.518-.948-.53ZM41.893 144.666l-.822.481s-.024.024-.024.028v.021l1.109.636.874-.517-1.137-.649ZM48.031 145.286l.735.411.875-.517-.76-.44-.821.485s-.029.049-.029.061ZM44.758 146.016l.739.411.875-.518-.756-.386-.821.481a.045.045 0 0 0-.02.001.053.053 0 0 0-.017.011ZM41.22 143.972l2.053 1.207.875-.517-2.053-1.191-.822.484a.029.029 0 0 0-.014-.016.02.02 0 0 0-.01-.003.02.02 0 0 0-.01.001.032.032 0 0 0-.01.005.024.024 0 0 0-.007.008.033.033 0 0 0-.003.011l.001.011ZM46.973 147.294v.021l.74.411.874-.522-.743-.419-.822.485a.026.026 0 0 0-.015-.009.028.028 0 0 0-.018.003.026.026 0 0 0-.013.012.03.03 0 0 0-.003.018ZM47.98 147.872l.736.411.874-.522-.76-.435-.82.481s-.03.061-.03.065ZM40.219 143.392l.739.444.875-.518-.76-.435-.821.48a.051.051 0 0 0-.021.01.042.042 0 0 0-.012.019ZM48.113 146.642l.74.411.87-.518-.755-.439-.822.48c-.033.045-.033.058-.033.066ZM35.2 140.498l.734.443.871-.517-.756-.436-.821.481a.041.041 0 0 0-.018.01.043.043 0 0 0-.01.019ZM39.219 142.814l.743.443.875-.517-.76-.435-.821.484s-.037.013-.037.025ZM34.197 139.919l.74.411.87-.518-.756-.435-.821.48a.044.044 0 0 0-.034.022.04.04 0 0 0 .001.04ZM36.207 141.077l.74.444.874-.513-.76-.436-.821.485a.03.03 0 0 0-.033.02ZM37.207 141.656v.02l.74.411.862-.505-.76-.436-.821.481a.04.04 0 0 0-.014.012.039.039 0 0 0-.007.017ZM38.209 142.239l.739.411.87-.517-.755-.436-.822.481a.035.035 0 0 0-.02.006.043.043 0 0 0-.013.015.043.043 0 0 0-.005.02c0 .007.002.014.006.02ZM45.3 140.814l.74.444.875-.518-.76-.439-.821.48a.034.034 0 0 0-.024.01.031.031 0 0 0-.01.023ZM48.98 148.456l.736.411.878-.469-.76-.439-.82.485s-.034 0-.034.012ZM47.309 141.972l.743.444.87-.518-.755-.439-.821.48s-.037.025-.037.033ZM49.535 143.257l.74.444.874-.517-.76-.44-.821.485a.017.017 0 0 0-.012.001.024.024 0 0 0-.011.006.025.025 0 0 0-.01.021ZM48.535 142.677l.74.444.874-.518-.76-.439-.821.485a.017.017 0 0 0-.012.001.038.038 0 0 0-.011.005.045.045 0 0 0-.007.01.029.029 0 0 0-.003.012ZM44.297 140.234l.743.444.875-.518-.76-.439-.821.48s-.037.025-.037.033ZM46.305 141.394l.735.411.874-.518-.76-.439-.82.48s-.03.058-.03.066ZM50.54 143.836l.742.443.871-.517-.76-.44-.821.485c-.029.008-.033.02-.033.029ZM55.05 146.107l.744.444.456-.284-.76-.435-.41.246s-.03.017-.03.029ZM53.387 147.068l.743.443.875-.517-.76-.435-.821.48c-.033.012-.037.025-.037.029ZM52.048 144.371l.735.41.456-.283-.76-.436-.41.243c-.005-.002-.01-.002-.014-.002a.055.055 0 0 0-.013.004.029.029 0 0 0-.01.009.03.03 0 0 0-.007.011.04.04 0 0 0-.001.014c0 .004.001.009.003.013a.033.033 0 0 0 .009.01.05.05 0 0 0 .012.007ZM53.05 144.949l.734.41.456-.283-.756-.435-.41.246a.04.04 0 0 0-.028.025.04.04 0 0 0-.003.018c0 .007.003.013.006.019ZM54.05 145.523l.744.444.456-.284-.76-.435-.41.246-.03.029Z" fill="#37474F"/></svg>