<svg width="288" height="288" xmlns="http://www.w3.org/2000/svg" xmlns:xlink="http://www.w3.org/1999/xlink"><svg xmlns="http://www.w3.org/2000/svg" xmlns:xlink="http://www.w3.org/1999/xlink" viewBox="0 0 340.64 379.3" width="288" height="288"><defs><radialGradient id="z" cx="921.76" cy="-561.81" r="4.88" xlink:href="#a"/><radialGradient id="c" cx="261.33" cy="377.69" r="157.2" gradientUnits="userSpaceOnUse"><stop offset="0" stop-color="#1b7116" stop-opacity="0" class="stopColor058273 svgShape"/><stop offset=".15" stop-color="#1b7116" stop-opacity=".21" class="stopColor058273 svgShape"/><stop offset=".42" stop-color="#1b7116" stop-opacity=".55" class="stopColor058273 svgShape"/><stop offset=".66" stop-color="#1b7116" stop-opacity=".8" class="stopColor058273 svgShape"/><stop offset=".86" stop-color="#1b7116" stop-opacity=".95" class="stopColor058273 svgShape"/><stop offset="1" stop-color="#1b7116" class="stopColor058273 svgShape"/></radialGradient><radialGradient id="b" cx="222.78" cy="326.94" r="78.29" gradientUnits="userSpaceOnUse"><stop offset="0" stop-color="#3bd733" class="stopColor0dfd8e svgShape"/><stop offset="1" stop-color="#1b7116" class="stopColor058273 svgShape"/></radialGradient><radialGradient id="f" cx="228.16" cy="290.02" r="94.63" xlink:href="#b"/><radialGradient id="g" cx="228.16" cy="290.02" r="94.63" xlink:href="#b"/><radialGradient id="h" cx="222.78" cy="326.94" r="78.29" xlink:href="#b"/><radialGradient id="a" cx="952.09" cy="-432.29" r="4.88" gradientTransform="rotate(-23.38 2612.111 1740.081)" gradientUnits="userSpaceOnUse"><stop offset="0" stop-color="#43d83b" class="stopColor17fc6c svgShape"/><stop offset=".04" stop-color="#43d83b" stop-opacity=".91" class="stopColor17fc6c svgShape"/><stop offset=".18" stop-color="#43d83b" stop-opacity=".63" class="stopColor17fc6c svgShape"/><stop offset=".32" stop-color="#43d83b" stop-opacity=".41" class="stopColor17fc6c svgShape"/><stop offset=".44" stop-color="#43d83b" stop-opacity=".23" class="stopColor17fc6c svgShape"/><stop offset=".54" stop-color="#43d83b" stop-opacity=".11" class="stopColor17fc6c svgShape"/><stop offset=".63" stop-color="#43d83b" stop-opacity=".03" class="stopColor17fc6c svgShape"/><stop offset=".69" stop-color="#43d83b" stop-opacity="0" class="stopColor17fc6c svgShape"/></radialGradient><radialGradient id="i" cx="1005.26" cy="-382.8" r="4.88" xlink:href="#a"/><radialGradient id="j" cx="897.1" cy="-411.32" r="4.88" xlink:href="#a"/><radialGradient id="k" cx="918.23" cy="-466.91" r="4.88" xlink:href="#a"/><radialGradient id="l" cx="876.4" cy="-485.25" r="4.88" xlink:href="#a"/><radialGradient id="m" cx="984.12" cy="-468.31" r="4.88" xlink:href="#a"/><radialGradient id="n" cx="926.5" cy="-520.23" r="4.88" xlink:href="#a"/><radialGradient id="o" cx="1008.08" cy="-449.83" r="4.88" xlink:href="#a"/><radialGradient id="p" cx="1052.01" cy="-400.31" r="4.88" xlink:href="#a"/><radialGradient id="q" cx="1064.65" cy="-485.76" r="4.88" xlink:href="#a"/><radialGradient id="r" cx="1039.85" cy="-442.98" r="4.88" xlink:href="#a"/><radialGradient id="s" cx="1013.78" cy="-499.48" r="4.88" xlink:href="#a"/><radialGradient id="t" cx="1030.2" cy="-463.88" r="4.88" xlink:href="#a"/><radialGradient id="u" cx="1104.97" cy="-472.58" r="4.88" xlink:href="#a"/><radialGradient id="v" cx="1065.57" cy="-551.04" r="4.88" xlink:href="#a"/><radialGradient id="w" cx="1041.6" cy="-491.97" r="4.88" xlink:href="#a"/><radialGradient id="x" cx="1014.06" cy="-567.27" r="4.88" xlink:href="#a"/><radialGradient id="y" cx="955.54" cy="-568.58" r="4.88" xlink:href="#a"/><radialGradient id="e" cx="248.38" cy="358.89" r="57.1" gradientTransform="matrix(1.76 0 0 .06 -324.2 197.51)" gradientUnits="userSpaceOnUse"><stop offset="0" stop-color="#2ab123" class="stopColor0aca83 svgShape"/><stop offset=".4" stop-color="#2ab123" stop-opacity=".53" class="stopColor0aca83 svgShape"/><stop offset=".75" stop-color="#2ab123" stop-opacity=".15" class="stopColor0aca83 svgShape"/><stop offset=".91" stop-color="#2ab123" stop-opacity="0" class="stopColor0aca83 svgShape"/></radialGradient><radialGradient id="A" cx="881.96" cy="-571.82" r="4.88" xlink:href="#a"/><radialGradient id="B" cx="974.54" cy="-546.04" r="4.88" xlink:href="#a"/><radialGradient id="C" cx="963.63" cy="-540.18" r="4.88" xlink:href="#a"/><radialGradient id="D" cx="1059.65" cy="-451.98" r="4.88" xlink:href="#a"/><radialGradient id="E" cx="947.73" cy="-594.54" r="4.88" xlink:href="#a"/><radialGradient id="F" cx="389.15" cy="114.45" r="65.54" xlink:href="#c"/><radialGradient id="G" cx="330.69" cy="210.92" r="74.1" gradientUnits="userSpaceOnUse"><stop offset="0" stop-color="#1b7116" stop-opacity="0" class="stopColor058273 svgShape"/><stop offset=".17" stop-color="#1b7116" stop-opacity=".24" class="stopColor058273 svgShape"/><stop offset=".42" stop-color="#1b7116" stop-opacity=".55" class="stopColor058273 svgShape"/><stop offset=".66" stop-color="#1b7116" stop-opacity=".8" class="stopColor058273 svgShape"/><stop offset=".86" stop-color="#1b7116" stop-opacity=".95" class="stopColor058273 svgShape"/><stop offset="1" stop-color="#1b7116" class="stopColor058273 svgShape"/></radialGradient><radialGradient id="H" cx="134.89" cy="131.55" r="90.99" xlink:href="#c"/><radialGradient id="I" cx="142.2" cy="221.45" r="66.97" xlink:href="#c"/><radialGradient id="d" cx="223.29" cy="144.15" r="64.45" gradientTransform="rotate(-20.91 260.241 143.79)" gradientUnits="userSpaceOnUse"><stop offset="0" stop-color="#3bd733" class="stopColor0dfd8e svgShape"/><stop offset=".06" stop-color="#2fc727" class="stopColor0be388 svgShape"/><stop offset=".16" stop-color="#29ac22" class="stopColor09c582 svgShape"/><stop offset=".26" stop-color="#24971e" class="stopColor08ad7c svgShape"/><stop offset=".37" stop-color="#20861b" class="stopColor079a78 svgShape"/><stop offset=".51" stop-color="#1d7a18" class="stopColor068c75 svgShape"/><stop offset=".68" stop-color="#1b7217" class="stopColor058474 svgShape"/><stop offset="1" stop-color="#1b7116" class="stopColor058273 svgShape"/></radialGradient><radialGradient id="J" cx="266.31" cy="158.5" r="43" xlink:href="#d"/><radialGradient id="K" cx="183.71" cy="150.25" r="71.97" xlink:href="#d"/><radialGradient id="L" cx="187.45" cy="174.85" r="50.18" xlink:href="#d"/><radialGradient id="M" cx="221.5" cy="184.75" r="53.36" gradientTransform="matrix(-.96 -.27 -.27 .96 521.58 67.9)" xlink:href="#d"/><radialGradient id="N" cx="224.27" cy="202.98" r="37.21" gradientTransform="matrix(-.96 -.27 -.27 .96 521.58 67.9)" xlink:href="#d"/><radialGradient id="O" cx="221.07" cy="130.02" r="34.49" gradientTransform="rotate(13.79 210.779 93.741)" xlink:href="#d"/><radialGradient id="P" cx="222.86" cy="141.8" r="24.05" gradientTransform="rotate(13.79 210.779 93.741)" xlink:href="#d"/><linearGradient id="Q" x1="198.57" x2="273.42" y1="203.17" y2="203.17" gradientTransform="rotate(24.5 233.896 194.194)" xlink:href="#d"/><linearGradient id="R" x1="164.95" x2="171.33" y1="34.8" y2="34.8" xlink:href="#d"/><linearGradient id="S" x1="231.28" x2="245.86" y1="127.08" y2="127.08" xlink:href="#d"/><linearGradient id="T" x1="243.15" x2="249.52" y1="119.79" y2="119.79" xlink:href="#d"/><linearGradient id="U" x1="220.11" x2="229.25" y1="113.03" y2="113.03" gradientTransform="scale(-1 1) rotate(-6.3 18.04 4234.09)" xlink:href="#d"/><linearGradient id="V" x1="226.54" x2="232.91" y1="105.99" y2="105.99" gradientTransform="scale(-1 1) rotate(-6.3 18.04 4234.09)" xlink:href="#d"/></defs><g style="isolation:isolate" class="color000 svgShape"><path fill="url(#c)" d="M362.34 290.49a133.75 133.75 0 0 1-267.5 0Z" transform="translate(-68.14 -70.13)"/><ellipse style="mix-blend-mode:screen" cx="114.14" cy="220.77" fill="url(#e)" rx="106.44" ry="3.9"/><path fill="url(#b)" d="M202.1 351.76c-.45 0-5.66-4.91-6.25-5.35s-7.29-5.21-9.22-4.76-3 .53-3.87 0-3.12-4.88-3.87-4.88h-5.65c-2.68 0-4.31-.15-6.1 0a31.35 31.35 0 0 1-4.31-.07l-3.83 5.54s-.44 5.95 0 6.7 1.69.74-.2 3.42-3.52 7.58-2.92 9.52-.25 3.27 2.92 6.1 5.26 4.46 7.64 6.24 5.65 1.64 7.29 4.17 8.77 15.76 8.92 18.74-1.93 2.08 1.19 6.25 1.34 3.86 4.91 6.24 8.48 4.46 9.67 5.51 1.78-2.24 1.78-2.24l-3.27-4-.89-.3-1.79-2.08 1.94-5.5 4.76-6.55 2.08-6.39.59-4.47 3.42-1.93a30.22 30.22 0 0 0 2.68-3.42c.45-.89 1.34-2.24 1.34-2.24h3.57s4.31-7.73 4.76-9.21.89-3 .89-3-1-3.72 0-5.35 1.79-2.83 1-3.28-8.92-.59-8.92-.59h-6.25a14.92 14.92 0 0 0-1.34-1.93 9.11 9.11 0 0 0-2.67-.89Z" transform="translate(-68.14 -70.13)"/><path fill="url(#f)" d="m202.74 399.36-1.93 2.64s-3-.3-3 1.19-.3 3.27 1.34 3.42 2.38.15 3.57-.75a6.57 6.57 0 0 0 1.79-2.9s1.28-3.05.39-3.64a2.53 2.53 0 0 0-2.16.04Z" transform="translate(-68.14 -70.13)"/><path fill="url(#g)" d="M291.58 382.84v-7.52l7.25-4.88s4-4.48 4.49-5 5.93-1.05 6.72-.92 2.9-3.3 3.3-2.64a24.8 24.8 0 0 1 1.05 3.7l-1.19 2.1-6.06 1.72a13.42 13.42 0 0 0-2.74 2.92c-.69 1.3-4 2.75-4 2.75a23 23 0 0 1-2.77 3.56c-1.85 2-2.24 2.5-3.7 2.9a5.73 5.73 0 0 0-2.35 1.31Z" transform="translate(-68.14 -70.13)"/><path fill="url(#h)" d="M321.12 311c-1.39-3.56-3.76-3-8.51-6.72s-3.36-2.77-4.55-3.17-5.93 1-7.91 1-11.27-4.15-12.26-4.35-15.82 1.38-19 1.58-2.55 3.76-2.55 3.76 1.39 2.18 2.55 2.57 3.19 1.58 4.58 1.92 1.38 5 1.38 5l4.61 1.45 4.29-2.44h4.94a14.91 14.91 0 0 1 4.88 1 6.19 6.19 0 0 1 1.36 1.44 11.75 11.75 0 0 1-2.18.84 5.31 5.31 0 0 0-1.59.59v2.18a15.44 15.44 0 0 1-3.16 1.18h-1.3l-2.7 1.84-2-.74s-2.38-.05-3.17.64a.69.69 0 0 1-1.19-.2l-2.17-1.58-2.48.45-8.65-5.8-8-.61-7.65 6.06-4.69 12.77-2.64 5.34s1.49 8.93 2.68 9.82 5.65 5.36 5.65 5.36a10 10 0 0 1 4.76 0c3 .59 10.41 0 10.41 0l3.28 4.46v4.46l-1.14 3.58s.59 5.06-.3 6.84-4.17 7.14-5.36 8.93-15.46 11-15.46 11l-6.55 12.2-2.08 6.54v3.28l6.25-1.81 9.2-12.83 22.15-5.54 10.29-5.8-1.32-9.23 4.82-12.11 4.41-.55 10-6.46.14-2.95c.28-.1.59-.21.95-.32a5.88 5.88 0 0 0 4.35-5.34 12.25 12.25 0 0 1 1.78-5.93c1.18-2.17 6.72-7.91 7.51-10.88s-.19-5.14-1.38-9.09-.59-3.76 2.77-5.34 3.33-4.75 1.95-8.29Z" transform="translate(-68.14 -70.13)"/><path fill="none" stroke="#43d83b" stroke-linecap="round" stroke-linejoin="round" stroke-width=".75" opacity=".3" class="colorStroke17fc6c svgStroke" d="m38.41 234.38 29.26 81.67 11.25-88.28-40.51 6.61z"/><path fill="none" stroke="#17fc6c" stroke-linecap="round" stroke-linejoin="round" stroke-width=".75" opacity=".3" d="m78.92 227.77 10.85-40.35-51.36 46.96"/><path fill="none" stroke="#20861b" stroke-linecap="round" stroke-linejoin="round" stroke-width=".75" class="colorStroke069b76 svgStroke" d="m116.02 375.69 110.59-16.75-68.45-24.32-42.14 41.07z"/><path fill="none" stroke="#20861b" stroke-linecap="round" stroke-linejoin="round" stroke-width=".75" class="colorStroke069b76 svgStroke" d="m67.67 316.05 45.67.23 2.68 59.41-48.35-59.64zM173.27 288.85l-15.11 45.77-44.82-18.34 59.93-27.43zM99.77 264.06l13.57 52.22 59.93-27.43-73.5-24.79z"/><path fill="none" stroke="#20861b" stroke-linecap="round" stroke-linejoin="round" stroke-width=".75" class="colorStroke069b76 svgStroke" d="M226.61 358.94 202.6 296.3l-44.44 38.32 68.45 24.32z"/><path fill="none" stroke="#20861b" stroke-linecap="round" stroke-linejoin="round" stroke-width=".75" class="colorStroke069b76 svgStroke" d="m173.27 288.85 29.33 7.45-44.44 38.32 15.11-45.77z"/><path fill="none" stroke="#20861b" stroke-linecap="round" stroke-linejoin="round" stroke-width=".75" class="colorStroke069b76 svgStroke" d="m262.58 324.32-35.97 34.62-24.01-62.64 59.98 28.02z"/><path fill="none" stroke="#20861b" stroke-linecap="round" stroke-linejoin="round" stroke-width=".75" class="colorStroke069b76 svgStroke" d="m240.26 240.87 22.32 83.45-59.98-28.02 37.66-55.43z"/><path fill="none" stroke="#20861b" stroke-linecap="round" stroke-linejoin="round" stroke-width=".75" class="colorStroke069b76 svgStroke" d="m188.12 248.46 46.35 41.52 5.79-49.11-52.14 7.59z"/><path fill="none" stroke="#20861b" stroke-linecap="round" stroke-linejoin="round" stroke-width=".75" class="colorStroke069b76 svgStroke" d="m202.6 296.3 31.87-6.32-17.14-15.36-14.73 21.68z"/><path fill="none" stroke="#20861b" stroke-linecap="round" stroke-linejoin="round" stroke-width=".75" class="colorStroke069b76 svgStroke" d="m262.58 324.32-28.11-34.34-31.87 6.32 59.98 28.02z"/><path fill="none" stroke="#20861b" stroke-linecap="round" stroke-linejoin="round" stroke-width=".75" class="colorStroke069b76 svgStroke" d="m188.12 248.46-14.85 40.39 29.33 7.45-14.48-47.84zM240.26 240.87l42.24-3.91-48.03 53.02 5.79-49.11zM215.19 180.57l25.07 60.3-22.93 33.75-2.14-94.05zM188.12 248.46l27.07-67.89 1.45 63.74-28.52 4.15z"/><path fill="none" stroke="#20861b" stroke-linecap="round" stroke-linejoin="round" stroke-width=".75" class="colorStroke069b76 svgStroke" d="m161.48 186.13 26.64 62.33-88.35 15.6 61.71-77.93z"/><path fill="none" stroke="#20861b" stroke-linecap="round" stroke-linejoin="round" stroke-width=".75" class="colorStroke069b76 svgStroke" d="M215.19 180.57 99.77 264.06l61.71-77.93 53.71-5.56z"/><path fill="none" stroke="#20861b" stroke-linecap="round" stroke-linejoin="round" stroke-width=".75" class="colorStroke069b76 svgStroke" d="m173.27 288.85-66.03-80.7 80.88 40.31-14.85 40.39zM67.67 316.05l32.1-51.99-20.85-36.29-11.25 88.28z"/><path fill="none" stroke="#20861b" stroke-linecap="round" stroke-linejoin="round" stroke-width=".75" class="colorStroke069b76 svgStroke" d="m107.24 208.15 54.24-22.02-27.86 35.17-26.38-13.15zM78.92 227.77l47.02 3.24-18.7-22.86-28.32 19.62zM282.5 236.96l-67.31-56.39 25.07 60.3 42.24-3.91zM262.58 324.32l-13.5-50.47 33.42-36.89-19.92 87.36zM78.92 227.77l10.85-40.35 17.47 20.73-28.32 19.62zM161.48 186.13l-71.71 1.29 17.47 20.73 54.24-22.02z"/><path fill="url(#a)" d="M227.63 401.39a3.6 3.6 0 1 1-4.68 2 3.6 3.6 0 0 1 4.68-2Z" transform="translate(-68.14 -70.13)"/><path fill="url(#i)" d="M296.08 425.72a3.6 3.6 0 1 1-4.68 2 3.6 3.6 0 0 1 4.68-2Z" transform="translate(-68.14 -70.13)"/><path fill="url(#j)" d="M185.48 442.47a3.6 3.6 0 1 1-4.68 2 3.6 3.6 0 0 1 4.68-2Z" transform="translate(-68.14 -70.13)"/><path fill="url(#k)" d="M182.81 383.05a3.61 3.61 0 1 1-4.68 2 3.62 3.62 0 0 1 4.68-2Z" transform="translate(-68.14 -70.13)"/><path fill="url(#l)" d="M137.14 382.83a3.6 3.6 0 1 1-4.68 2 3.61 3.61 0 0 1 4.68-2Z" transform="translate(-68.14 -70.13)"/><path fill="url(#m)" d="M242.73 355.62a3.61 3.61 0 1 1-4.68 2 3.61 3.61 0 0 1 4.68-2Z" transform="translate(-68.14 -70.13)"/><path fill="url(#n)" d="M169.24 330.83a3.6 3.6 0 1 1-4.68 2 3.61 3.61 0 0 1 4.68-2Z" transform="translate(-68.14 -70.13)"/><path fill="url(#o)" d="M272.07 363.07a3.6 3.6 0 1 1-4.68 2 3.6 3.6 0 0 1 4.68-2Z" transform="translate(-68.14 -70.13)"/><path fill="url(#p)" d="M332.05 391.09a3.6 3.6 0 1 1-4.68 2 3.61 3.61 0 0 1 4.68-2Z" transform="translate(-68.14 -70.13)"/><path fill="url(#q)" d="M309.73 307.64a3.61 3.61 0 1 1-4.68 2 3.6 3.6 0 0 1 4.68-2Z" transform="translate(-68.14 -70.13)"/><path fill="url(#r)" d="M303.94 356.75a3.6 3.6 0 1 1-4.68 2 3.61 3.61 0 0 1 4.68-2Z" transform="translate(-68.14 -70.13)"/><path fill="url(#s)" d="M257.59 315.24a3.6 3.6 0 1 1-4.68 2 3.61 3.61 0 0 1 4.68-2Z" transform="translate(-68.14 -70.13)"/><path fill="url(#t)" d="M286.8 341.39a3.61 3.61 0 1 1-4.68 2 3.61 3.61 0 0 1 4.68-2Z" transform="translate(-68.14 -70.13)"/><path fill="url(#u)" d="M352 303.73a3.61 3.61 0 1 1-4.68 2 3.61 3.61 0 0 1 4.68-2Z" transform="translate(-68.14 -70.13)"/><path fill="url(#v)" d="M284.66 247.35a3.6 3.6 0 1 1-4.68 2 3.61 3.61 0 0 1 4.68-2Z" transform="translate(-68.14 -70.13)"/><path fill="url(#w)" d="M286.11 311.08a3.61 3.61 0 1 1-4.68 2 3.6 3.6 0 0 1 4.68-2Z" transform="translate(-68.14 -70.13)"/><path fill="url(#x)" d="M230.94 252.9a3.61 3.61 0 1 1-4.68 2 3.61 3.61 0 0 1 4.68-2Z" transform="translate(-68.14 -70.13)"/><path fill="url(#y)" d="M176.7 274.92a3.61 3.61 0 1 1-4.68 2 3.61 3.61 0 0 1 4.68-2Z" transform="translate(-68.14 -70.13)"/><path fill="url(#z)" d="M148.39 294.55a3.6 3.6 0 1 1-4.68 2 3.6 3.6 0 0 1 4.68-2Z" transform="translate(-68.14 -70.13)"/><path fill="url(#A)" d="M107.88 301.15a3.61 3.61 0 1 1-4.68 2 3.6 3.6 0 0 1 4.68-2Z" transform="translate(-68.14 -70.13)"/><path fill="url(#B)" d="M203.09 288.08a3.6 3.6 0 1 1-4.68 2 3.61 3.61 0 0 1 4.68-2Z" transform="translate(-68.14 -70.13)"/><path fill="url(#C)" d="M195.41 297.78a3.6 3.6 0 1 1-4.68 2 3.61 3.61 0 0 1 4.68-2Z" transform="translate(-68.14 -70.13)"/><path fill="url(#D)" d="M318.55 340.62a3.61 3.61 0 1 1-4.68 2 3.6 3.6 0 0 1 4.68-2Z" transform="translate(-68.14 -70.13)"/><path fill="url(#E)" d="M159.24 254.2a3.6 3.6 0 1 1-4.68 2 3.59 3.59 0 0 1 4.68-2Z" transform="translate(-68.14 -70.13)"/><path fill="#2cbb25" d="M274.04 313.35a.92.92 0 1 1-.92-.91.92.92 0 0 1 .92.91Z" class="color0ad686 svgShape"/><circle cx="262.26" cy="280.22" r=".92" fill="#2cbb25" class="color0ad686 svgShape"/><path fill="#2cbb25" d="M272.54 268.58a.92.92 0 1 1-.92-.92.92.92 0 0 1 .92.92zm-8.4-48.57a.92.92 0 1 1-.92-.92.92.92 0 0 1 .92.92zm-58.53-30.82a.92.92 0 1 1-.91-.92.91.91 0 0 1 .91.92z" class="color0ad686 svgShape"/><circle cx="275.71" cy="203.3" r=".92" fill="#2cbb25" class="color0ad686 svgShape"/><circle cx="284.54" cy="249.73" r=".92" fill="#2cbb25" class="color0ad686 svgShape"/><circle cx="282.56" cy="286.52" r=".92" fill="#2cbb25" class="color0ad686 svgShape"/><circle cx="235.99" cy="311.04" r=".92" fill="#2cbb25" class="color0ad686 svgShape"/><circle cx="233.15" cy="320.01" r=".92" fill="#2cbb25" class="color0ad686 svgShape"/><path fill="#2cbb25" d="M218.86 347.47a.92.92 0 1 1-.91-.91.92.92 0 0 1 .91.91zm-58.43 27.87a.92.92 0 1 1-.91-.91.92.92 0 0 1 .91.91zm-51.09-4.04a.92.92 0 1 1-.92-.91.92.92 0 0 1 .92.91z" class="color0ad686 svgShape"/><circle cx="93.31" cy="346.46" r=".92" fill="#2cbb25" class="color0ad686 svgShape"/><path fill="#2cbb25" d="M73.45 282.93a.92.92 0 1 1-.91-.92.91.91 0 0 1 .91.92Z" class="color0ad686 svgShape"/><circle cx="67.48" cy="190.2" r=".92" fill="#2cbb25" class="color0ad686 svgShape"/><path fill="#2cbb25" d="M14.53 236.25a.92.92 0 1 1-.92-.92.92.92 0 0 1 .92.92Z" class="color0ad686 svgShape"/><circle cx="18.43" cy="279.04" r=".92" fill="#2cbb25" class="color0ad686 svgShape"/><path fill="#2cbb25" d="M40.94 331.87a.92.92 0 1 1-.92-.92.92.92 0 0 1 .92.92Z" class="color0ad686 svgShape"/><circle cx="79.89" cy="337.88" r=".92" fill="#2cbb25" class="color0ad686 svgShape"/><circle cx="75.23" cy="305.76" r=".92" fill="#2cbb25" class="color0ad686 svgShape"/><circle cx="56.4" cy="261.44" r=".92" fill="#2cbb25" class="color0ad686 svgShape"/><path fill="#2cbb25" d="M52.41 228.72a.92.92 0 1 1-.91-.91.92.92 0 0 1 .91.91zm23.22-13.74a.92.92 0 1 1-.91-.91.92.92 0 0 1 .91.91zm29.14 19.1a.92.92 0 1 1-.92-.92.92.92 0 0 1 .92.92zm31.31 28.91a.92.92 0 1 1-.91-.91.92.92 0 0 1 .91.91zM12.86 212.81a.92.92 0 1 1-.92-.92.92.92 0 0 1 .92.92z" class="color0ad686 svgShape"/><circle cx="18.06" cy="202.42" r=".92" fill="#2cbb25" class="color0ad686 svgShape"/><path fill="#2cbb25" d="M65.86 210.98a.92.92 0 1 1-.92-.92.92.92 0 0 1 .92.92Z" class="color0ad686 svgShape"/><circle cx="314.87" cy="228.39" r=".92" fill="#2cbb25" class="color0ad686 svgShape"/><circle cx="315.2" cy="254.15" r=".92" fill="#2cbb25" class="color0ad686 svgShape"/><circle cx="275.27" cy="290.73" r=".92" fill="#2cbb25" class="color0ad686 svgShape"/><path fill="#2cbb25" d="M133.58 352.51a.92.92 0 1 1-.92-.92.92.92 0 0 1 .92.92zm23.33 4.17a.92.92 0 1 1-.92-.91.92.92 0 0 1 .92.91z" class="color0ad686 svgShape"/><circle cx="199.47" cy="369.96" r=".92" fill="#2cbb25" class="color0ad686 svgShape"/><path fill="url(#F)" d="M324.25 101.14c.54-5.18 4.24-9.2 8.73-9.2a7.68 7.68 0 0 1 3.77 1 13 13 0 0 1 6.55-1.77h.47c1-3.09 3.51-5.28 6.45-5.28a6.55 6.55 0 0 1 5.43 3.16 13.89 13.89 0 0 1 8.63-3.05 13.27 13.27 0 0 1 4.66.84c1-4.48 4.43-7.77 8.49-7.77a8.62 8.62 0 0 1 7.57 5.07 13.71 13.71 0 0 1 8.15-2.76c8.66 0 15.67 8.38 15.67 18.72v1Z" transform="translate(-68.14 -70.13)"/><path fill="url(#G)" d="M395.49 200.81c-1.9-4.12-6.82-7.38-13.09-8.65a13 13 0 0 0-12.8-10.86 12.78 12.78 0 0 0-4.3.75 26 26 0 0 0-47.92 5.29A13 13 0 0 0 302 200.09v.72Z" transform="translate(-68.14 -70.13)"/><path fill="url(#H)" d="M160.15 102.09c-1.87-4-6.71-7.26-12.88-8.51a12.74 12.74 0 0 0-16.82-10 25.54 25.54 0 0 0-47.14 5.21 12.76 12.76 0 0 0-15.17 12.54v.71Z" transform="translate(-68.14 -70.13)"/><path fill="url(#I)" d="M98.29 212.12c1.38-3 4.94-5.34 9.48-6.27a9.37 9.37 0 0 1 12.38-7.32 18.8 18.8 0 0 1 34.7 3.84 9.34 9.34 0 0 1 11.15 9.22v.53Z" transform="translate(-68.14 -70.13)"/><path fill="#2cbb25" d="M115.39 66.18a.75.75 0 0 1-.76.75.74.74 0 0 1-.75-.75.75.75 0 0 1 .75-.76.76.76 0 0 1 .76.76zm30.53 46.13a.76.76 0 0 1-1.51 0 .76.76 0 1 1 1.51 0zm-32.31-23.18a.76.76 0 1 1-.76-.76.76.76 0 0 1 .76.76zm20.55-24.14a.76.76 0 1 1-.76-.75.76.76 0 0 1 .76.75zm56.04-5.33a.76.76 0 1 1-.76-.75.76.76 0 0 1 .76.75zm23.4 25.01a.76.76 0 1 1-.74-.8.76.76 0 0 1 .74.8zm-8.03-18.73a.76.76 0 1 1-.76-.75.76.76 0 0 1 .76.75zm-33.86 34.68a.76.76 0 0 1-1.52 0 .76.76 0 0 1 1.52 0zm26.73-6.16a.75.75 0 0 1-.76.75.74.74 0 0 1-.75-.75.75.75 0 0 1 .75-.76.76.76 0 0 1 .76.76zm-5.35 30.57a.76.76 0 1 1-.75-.75.76.76 0 0 1 .75.75zM152.1 51.05a.76.76 0 1 1-.75-.75.76.76 0 0 1 .75.75z" class="color0ad686 svgShape"/><path fill="url(#d)" d="M283.76 149c-7-1.28-20.54-12.47-38.76-10.84-14.85 1.33-17.12 20.29-17.15 20.87.45-.38 18.38-16.23 55.91-10.03Z" transform="translate(-68.14 -70.13)"/><path fill="url(#J)" d="M227.85 159.05c9.76 9.66 25.38 8.76 32.3.58 10.51-12.41 23.61-10.63 23.61-10.63-37.53-6.2-55.46 9.65-55.91 10.05Z" transform="translate(-68.14 -70.13)"/><path fill="url(#K)" d="M170.51 140.27c7.86 1.31 21.27-4.21 36.31 3.57 14.81 7.66 18.93 27.53 18.74 28.16-.32-.59-13.2-24.06-55.05-31.73Z" transform="translate(-68.14 -70.13)"/><path fill="url(#L)" d="M225.56 172c-13.94 6.48-30.8 3.39-36.15-7.33s-18.9-24.42-18.9-24.42c41.85 7.69 54.73 31.16 55.05 31.75Z" transform="translate(-68.14 -70.13)"/><path fill="url(#M)" d="M270.35 182.59c-5.87-.62-14.37-7.2-26.65-4.61-12.1 2.56-19 16-18.95 16.44.35-.36 14.18-14.6 45.6-11.83Z" transform="translate(-68.14 -70.13)"/><path fill="url(#N)" d="M224.75 194.42c8.68 7.38 21.34 8.49 27.28 1.88s18.32-13.72 18.32-13.72c-31.42-2.76-45.25 11.48-45.6 11.84Z" transform="translate(-68.14 -70.13)"/><path fill="url(#O)" d="M207.14 125.26c3.51 1.51 10.38.47 16.49 5.81s5.67 15 5.51 15.25c-.08-.32-3.4-12.71-22-21.06Z" transform="translate(-68.14 -70.13)"/><path fill="url(#P)" d="M229.14 146.32c-7.23 1.43-14.72-1.94-16-7.54s-6-13.52-6-13.52c18.6 8.35 21.92 20.74 22 21.06Z" transform="translate(-68.14 -70.13)"/><path fill="none" stroke="url(#Q)" stroke-miterlimit="10" d="M235.69 107.36s-24.77 112.5-4.69 191.79" transform="translate(-68.14 -70.13)"/><circle cx="168.14" cy="34.8" r="2.69" fill="none" stroke="url(#R)" stroke-miterlimit="10"/><path fill="none" stroke="url(#S)" stroke-miterlimit="10" d="M231.41 131.84s10.05 2.62 14-10.09" transform="translate(-68.14 -70.13)"/><path fill="none" stroke="url(#T)" stroke-miterlimit="10" d="M249 119.79a2.69 2.69 0 1 1-2.68-2.69 2.68 2.68 0 0 1 2.68 2.69Z" transform="translate(-68.14 -70.13)"/><path fill="none" stroke="url(#U)" stroke-miterlimit="10" d="M233.41 119.73c-2.89-1.26-6.11-4.15-7.35-10.74" transform="translate(-68.14 -70.13)"/><path fill="none" stroke="url(#V)" stroke-miterlimit="10" d="M222.67 106.63a2.69 2.69 0 1 0 3-2.36 2.69 2.69 0 0 0-3 2.36Z" transform="translate(-68.14 -70.13)"/></g></svg></svg>