<svg width="200" height="196" fill="none" xmlns="http://www.w3.org/2000/svg"><path d="M100 195.851c55.228 0 100-26.556 100-59.315s-44.772-59.315-100-59.315S0 103.777 0 136.536s44.772 59.315 100 59.315Z" fill="#F0F0F0"/><path d="M132.002 156.71a5.457 5.457 0 0 0-.799-2.805 7.226 7.226 0 0 0-.341-.523l-.021-.026a5.618 5.618 0 0 0-.372-.457l-.039-.039a5.13 5.13 0 0 0-.401-.393l-.039-.03a3.928 3.928 0 0 0-.432-.328l-.259-.142-.117-.052-.134-.06a1.752 1.752 0 0 0-.19-.061h-.052a1.528 1.528 0 0 0-.224-.043 1.414 1.414 0 0 0-.825.129c-2.285 1.144-15.449 9.517-21.509 13.289l-3.002 1.821a.683.683 0 0 0-.246.242.995.995 0 0 0-.069.129.57.57 0 0 0-.03.091.965.965 0 0 0-.035.116v.078l-.496.272-.432.241a17.316 17.316 0 0 0-3.42-2.537c-4.156-2.395-9.658-3.716-15.497-3.716-5.84 0-11.342 1.321-15.497 3.716-4.319 2.481-6.669 5.835-6.669 9.438 0 3.604 2.367 6.953 6.669 9.439 4.155 2.395 9.657 3.711 15.497 3.711 5.839 0 11.341-1.316 15.496-3.711 4.319-2.486 6.669-5.835 6.669-9.439a8.681 8.681 0 0 0-1.408-4.665l.397-.211a.897.897 0 0 0 .864.082c2.056-1.131 22.096-9.668 26.195-11.864.432-.29.738-.859.768-1.692Zm-35.415 24.487c-3.585 2.068-8.418 3.207-13.601 3.207-5.183 0-10.016-1.139-13.6-3.207-3.08-1.778-4.777-3.966-4.777-6.158 0-2.193 1.697-4.385 4.776-6.159 3.585-2.071 8.414-3.211 13.601-3.211 5.187 0 10.016 1.14 13.6 3.211 3.08 1.774 4.777 3.962 4.777 6.159 0 2.197-1.71 4.38-4.798 6.158h.022ZM135.068 106.013l-20.326-11.752a4.133 4.133 0 0 0-3.74 0L7.739 153.82c-1.032.595-1.032 1.562 0 2.158l20.33 11.751a4.133 4.133 0 0 0 3.74 0l38.694-22.325 5.951 3.453c3.149 1.817 8.254 1.817 11.407 0l17.729-10.155c3.153-1.817 3.153-4.748 0-6.582l-5.947-3.452 35.416-20.518c1.036-.574 1.036-1.532.009-2.136Z" fill="#E0E0E0"/><path d="m87.85 147.184 15.28-8.83c1.572-.906 2.358-2.097 2.358-3.288v-2.123L91.11 124.79a3.367 3.367 0 0 1-1.52-2.633v-18.846l-26.653 15.411v18.821a3.35 3.35 0 0 0 1.525 2.633l11.981 7.008c3.149 1.796 8.258 1.796 11.407 0Z" fill="#37474F"/><path d="M69.323 140.874v2.115l-4.889-2.814a3.36 3.36 0 0 1-1.52-2.633v-18.821l5.084-2.93c.103 1.295.22 2.624.323 3.923l-3.563 2.059v14.708a3.333 3.333 0 0 0 1.52 2.632l3.045 1.761Z" fill="#263238"/><path d="M64.758 136.485a3.365 3.365 0 0 0 1.52 2.632l10.167 5.909c3.149 1.817 8.254 1.817 11.407 0l15.284-8.826c3.149-1.817 3.149-4.747 0-6.577l-10.17-5.917a3.354 3.354 0 0 1-1.525-2.633v-14.708l-26.683 15.412v14.708Z" fill="#455A64"/><path opacity=".15" d="m96.062 125.497-3.097-1.787a3.351 3.351 0 0 1-1.524-2.632v-14.713l-26.683 15.412v14.708a3.365 3.365 0 0 0 1.52 2.632l3.045 1.753 26.739-15.373Z" fill="#000"/><path d="M105.495 132.941v2.124c0 1.195-.79 2.378-2.362 3.293l-15.28 8.821a11.437 11.437 0 0 1-5.443 1.351v-2.115a11.437 11.437 0 0 0 5.442-1.351l15.281-8.83c1.572-.928 2.362-2.119 2.362-3.293Z" fill="#37474F"/><path d="M21.909 156.791a4.097 4.097 0 0 0 3.684-.069l103.224-59.557a4.184 4.184 0 0 0 1.9-3.289V3.63a4.062 4.062 0 0 0-1.783-3.22 4.08 4.08 0 0 0-3.685.066L22.025 60.032a4.2 4.2 0 0 0-1.9 3.289v90.246a4.075 4.075 0 0 0 1.784 3.224Z" fill="#455A64"/><path d="m25.594 156.717 103.224-59.536a4.186 4.186 0 0 0 1.9-3.289V3.63c0-1.213-.863-1.705-1.9-1.096L25.616 62.09a4.2 4.2 0 0 0-1.9 3.288v90.243c-.022 1.213.828 1.705 1.878 1.096Z" fill="#37474F"/><path d="M27.262 143.697V66.54a2.515 2.515 0 0 1 1.127-1.972l97.609-56.3c.627-.362 1.141-.068 1.141.657v77.161a2.523 2.523 0 0 1-1.141 1.972l-97.609 56.299c-.618.363-1.127.069-1.127-.66Z" fill="#FDAF00"/><path opacity=".7" d="M27.262 143.697V66.54a2.515 2.515 0 0 1 1.127-1.972l97.609-56.3c.627-.362 1.141-.068 1.141.657v77.161a2.523 2.523 0 0 1-1.141 1.972l-97.609 56.299c-.618.363-1.127.069-1.127-.66Z" fill="#fff"/><path d="M76.996 123.296c-.2.002-.396-.048-.57-.147a1.46 1.46 0 0 1-.63-1.342 4.112 4.112 0 0 1 1.891-3.272 1.302 1.302 0 0 1 1.478-.128 1.294 1.294 0 0 1 .63 1.341 4.117 4.117 0 0 1-1.892 3.276 1.842 1.842 0 0 1-.907.272Zm1.594-4.597a1.42 1.42 0 0 0-.687.216 3.714 3.714 0 0 0-1.676 2.9.863.863 0 0 0 1.46.842 3.704 3.704 0 0 0 1.676-2.9 1.054 1.054 0 0 0-.432-.967.704.704 0 0 0-.341-.091Z" fill="#FDAF00"/><path d="M144.082 22.787 43.574 80.722v74.002a1.296 1.296 0 0 0 1.922 1.113l1.793-1.031 94.918-54.689a4.145 4.145 0 0 0 1.875-3.246V22.787Z" fill="#F0F0F0"/><path d="M143.65 23.534V96.87a3.732 3.732 0 0 1-1.659 2.87l-94.918 54.69-1.793 1.031a.86.86 0 0 1-1.217-.405.83.83 0 0 1-.066-.333v-73.77l99.644-57.399.009-.021Zm.423-.725L43.574 80.722v74.002a1.296 1.296 0 0 0 1.296 1.295c.225.001.446-.059.64-.173l1.791-1.031 94.906-54.698a4.145 4.145 0 0 0 1.875-3.246V22.787l-.009.022Z" fill="#E0E0E0"/><path opacity=".8" d="M141.695 21.41 41.184 79.323l2.388 1.381 100.507-57.917-2.384-1.377Z" fill="#455A64"/><path d="M44.247 155.856a1.295 1.295 0 0 1-.674-1.131V80.723l-2.392-1.381v73.596a1.93 1.93 0 0 0 0 .272 1.982 1.982 0 0 0 .976 1.45l1.974 1.144.099.052h.017Z" fill="#EBEBEB"/><path d="M41.18 79.359v-4.994a2.074 2.074 0 0 1 .933-1.623l98.65-56.83a2.062 2.062 0 0 1 1.866 0l.514.298a2.07 2.07 0 0 1 .937 1.619v4.997L43.572 80.722 41.18 79.36Z" fill="#FDAF00"/><path opacity=".3" d="M41.18 79.359v-4.994a2.074 2.074 0 0 1 .933-1.623l98.65-56.83a2.062 2.062 0 0 1 1.866 0l.514.298a2.07 2.07 0 0 1 .937 1.619v4.997L43.572 80.722 41.18 79.36Z" fill="#000"/><path d="M43.574 75.742a2.072 2.072 0 0 1 .933-1.623l98.642-56.838c.514-.302.933-.06.933.535v5.01L43.574 80.722v-4.98Z" fill="#FDAF00"/><path opacity=".4" d="M43.574 75.742a2.072 2.072 0 0 1 .933-1.623l98.642-56.838c.514-.302.933-.06.933.535v5.01L43.574 80.722v-4.98Z" fill="#000"/><path d="M43.844 74.818c-.167.28-.26.598-.272.924v4.98l-2.388-1.377v-4.984a1.91 1.91 0 0 1 .272-.92l2.388 1.377Z" fill="#FDAF00"/><path opacity=".5" d="M43.844 74.818c-.167.28-.26.598-.272.924v4.98l-2.388-1.377v-4.984a1.91 1.91 0 0 1 .272-.92l2.388 1.377Z" fill="#000"/><path d="M139.691 22.602c0 .557.393.785.864.505a1.937 1.937 0 0 0 .864-1.52c0-.556-.393-.785-.864-.504a1.937 1.937 0 0 0-.864 1.519ZM136.188 24.618c0 .556.393.785.863.505a1.937 1.937 0 0 0 .864-1.52c0-.556-.393-.785-.864-.505a1.937 1.937 0 0 0-.863 1.52ZM132.676 26.65c0 .558.393.786.864.506a1.937 1.937 0 0 0 .863-1.52c0-.556-.393-.785-.863-.504a1.928 1.928 0 0 0-.864 1.519ZM43.574 80.723v74.002A1.293 1.293 0 0 0 44.856 156a1.3 1.3 0 0 0 .64-.161l1.793-1.032 21.962-12.658V65.941L43.574 80.723ZM71.004 67.192v71.861l70.97-40.943V26.248l-70.97 40.944Z" fill="#FAFAFA"/><path d="m63.372 74.624-16.382 9.46a1.21 1.21 0 0 0-.549.95v1.704c0 .35.247.488.549.316l16.382-9.46a1.21 1.21 0 0 0 .548-.95v-1.7c0-.35-.246-.493-.548-.32Z" fill="#FDAF00"/><path opacity=".8" d="m63.372 74.624-16.382 9.46a1.21 1.21 0 0 0-.549.95v1.704c0 .35.247.488.549.316l16.382-9.46a1.21 1.21 0 0 0 .548-.95v-1.7c0-.35-.246-.493-.548-.32Z" fill="#FAFAFA"/><path d="m67.016 75.302-.48-.466c.098-.245.149-.505.152-.768a.905.905 0 0 0-.358-.829.558.558 0 0 0-.588.026 1.92 1.92 0 0 0-.76 1.567.906.906 0 0 0 .363.828.48.48 0 0 0 .255.07.661.661 0 0 0 .332-.096 1.35 1.35 0 0 0 .432-.431l.397.38a.167.167 0 0 0 .13.056.194.194 0 0 0 .138-.06.185.185 0 0 0-.013-.277Zm-1.274 0a.208.208 0 0 1-.207.026c-.082-.047-.173-.207-.173-.5a1.562 1.562 0 0 1 .57-1.24.255.255 0 0 1 .134-.042.143.143 0 0 1 .073 0c.078.047.169.203.169.5a1.584 1.584 0 0 1-.566 1.26v-.004ZM46.843 92.056l-.367.211s-.038 0-.038-.03v-.993a.099.099 0 0 1 .038-.078l.367-.21s.04 0 .04.03v.992a.1.1 0 0 1-.04.078ZM47.39 91.736l-.367.212c-.021 0-.039 0-.039-.03v-.993a.089.089 0 0 1 .04-.074l.366-.203c.022 0 .04 0 .04.026v.997a.095.095 0 0 1-.04.065ZM47.945 91.416l-.367.216c-.022 0-.039 0-.039-.03v-.997a.095.095 0 0 1 .039-.073l.367-.212c.022 0 .039 0 .039.03v.993a.082.082 0 0 1-.039.073ZM46.843 93.337l-.367.211s-.038 0-.038-.03v-.993a.098.098 0 0 1 .038-.077l.367-.212s.04 0 .04.03v.993a.1.1 0 0 1-.04.078ZM47.39 93.018l-.367.212c-.021 0-.039 0-.039-.03v-.993a.09.09 0 0 1 .04-.074l.366-.19c.022 0 .04 0 .04.026v.997a.095.095 0 0 1-.04.052ZM47.945 92.698l-.367.216c-.022 0-.039 0-.039-.03v-.998a.096.096 0 0 1 .039-.073l.367-.211c.022 0 .039 0 .039.03v.992a.082.082 0 0 1-.039.074ZM46.9 96.72l-.431-.271v-.082l.432-.798c0-.04.056-.035.056 0v1.074c.004.048-.035.09-.056.078Z" fill="#455A64"/><path d="m46.708 96.112.596-.34v.28l-.596.345c-.048.03-.09 0-.09-.09a.254.254 0 0 1 .09-.195ZM47.418 95.703l.203-.117v.285l-.203.116v-.284ZM48.17 95.395v1.04a.229.229 0 0 1-.094.195c-.048.03-.091 0-.091-.087v-.897l-.25.142v-.28l.34-.199c.052-.013.096.026.096.086ZM47.078 99.057a1.96 1.96 0 0 0-.626 1.683c.073.539.393.518.431.768 0 .03.022.039.04.03l.401-.229a.095.095 0 0 0 .03-.032.1.1 0 0 0 .013-.041c.043-.332.454-.734.454-1.54.004-.618-.337-.92-.743-.64ZM47.319 101.956l-.389.225c-.026 0-.047 0-.047-.039v-.354a.124.124 0 0 1 .047-.095l.389-.224c.026 0 .047 0 .047.039v.362a.119.119 0 0 1-.014.049.124.124 0 0 1-.033.037ZM47.172 90.65a2.356 2.356 0 0 0-.704 1.493c-.039.274-.005.554.1.81l-.13.683c0 .056 0 .082.051.047l.393-.431a.61.61 0 0 0 .57-.164c.408-.397.658-.927.705-1.493.099-.946-.402-1.416-.985-.946Zm.138 2.226c-.358.207-.652-.073-.652-.63a1.725 1.725 0 0 1 .652-1.38c.363-.208.656.073.656.63a1.725 1.725 0 0 1-.656 1.389v-.009ZM47.172 103.755a2.339 2.339 0 0 0-.704 1.489c-.04.275-.005.557.1.815l-.13.678c0 .056 0 .086.051.052l.393-.432a.611.611 0 0 0 .57-.164c.407-.397.657-.927.705-1.493.099-.945-.402-1.424-.985-.945Zm.138 2.227c-.358.207-.652-.074-.652-.631a1.723 1.723 0 0 1 .652-1.381c.363-.207.656.074.656.63a1.727 1.727 0 0 1-.656 1.382ZM47.722 108.555a.902.902 0 0 1-.345.73c-.19.112-.346-.039-.346-.333a.914.914 0 0 1 .346-.729c.19-.108.345.039.345.332ZM48.314 108.658a.61.61 0 0 1-.23.488c-.129.073-.232-.026-.232-.22a.6.6 0 0 1 .233-.488c.125-.073.229.026.229.22ZM47.786 110.648l-.825.466v-1.045a.719.719 0 0 1 .298-.565l.224-.129c.16-.091.294 0 .294.224l.009 1.049ZM48.123 109.267l-.225.13v1.187l.432-.246v-.924c-.008-.147-.099-.207-.207-.147ZM46.441 109.742c0 .195.104.294.23.22a.597.597 0 0 0 .228-.483c0-.198-.103-.298-.229-.224a.612.612 0 0 0-.229.487ZM46.637 110.122l.22-.13v1.191l-.431.242v-.924a.468.468 0 0 1 .211-.379Z" fill="#455A64"/><path d="m50.416 89.726 9.597-5.55c.259-.151.466-.043.466.237a1 1 0 0 1-.466.777l-9.597 5.55c-.26.147-.467.043-.467-.237a1 1 0 0 1 .467-.777ZM50.416 94.234l9.592-5.533c.26-.146.467-.043.467.238a1 1 0 0 1-.467.777l-9.592 5.532c-.26.147-.467.043-.467-.237a1 1 0 0 1 .467-.777ZM50.416 98.75l9.597-5.512c.259-.15.466-.043.466.234a.996.996 0 0 1-.466.776l-9.597 5.511c-.26.152-.467.044-.467-.237a.994.994 0 0 1 .467-.772ZM50.416 103.259l9.592-5.532c.26-.151.467-.044.467.237a.99.99 0 0 1-.467.773l-9.592 5.537c-.26.146-.467.043-.467-.238a.996.996 0 0 1 .467-.777ZM50.416 107.769l9.592-5.533c.26-.146.467-.043.467.238a1 1 0 0 1-.467.777l-9.592 5.524c-.26.146-.467.043-.467-.238a1 1 0 0 1 .467-.768Z" fill="#E0E0E0"/><path d="m52.173 111.455 9.593-5.533c.26-.151.466-.043.466.233a1.002 1.002 0 0 1-.466.777l-9.593 5.533c-.259.151-.466.043-.466-.233a1 1 0 0 1 .466-.777Z" fill="#455A64"/><path d="m52.173 114.502 9.593-5.533c.26-.151.466-.043.466.237a.987.987 0 0 1-.466.773l-9.593 5.532c-.259.151-.466.044-.466-.233a.996.996 0 0 1 .466-.776ZM52.173 117.548l9.593-5.532c.26-.151.466-.043.466.237a.99.99 0 0 1-.466.773l-9.593 5.537c-.259.146-.466.043-.466-.238a1.001 1.001 0 0 1 .466-.777ZM54.037 119.486l9.592-5.533c.26-.151.467-.043.467.233a.998.998 0 0 1-.467.777l-9.592 5.533c-.255.151-.467.043-.467-.233a1.006 1.006 0 0 1 .467-.777Z" fill="#E0E0E0"/><path d="m51.798 122.106.782-1.372c.03-.052.03-.121 0-.138l-.782-.475c-.035-.021-.091.048-.091.121v1.847c.004.065.056.086.09.017Z" fill="#455A64"/><path d="m54.037 122.52 9.592-5.545c.26-.147.467-.043.467.237a1 1 0 0 1-.467.777l-9.592 5.546c-.255.151-.467.043-.467-.238a1.017 1.017 0 0 1 .467-.777Z" fill="#E0E0E0"/><path d="m51.798 125.144.782-1.373c.03-.051.03-.12 0-.142l-.782-.475c-.035-.021-.091.052-.091.125v1.848c.004.073.056.081.09.017Z" fill="#455A64"/><path d="m54.037 125.558 9.592-5.533c.26-.151.467-.043.467.238a1 1 0 0 1-.467.777l-9.592 5.532c-.255.147-.467.044-.467-.237a1.013 1.013 0 0 1 .467-.777Z" fill="#E0E0E0"/><path d="m51.798 128.195.782-1.377c.03-.052.03-.121 0-.138l-.782-.475c-.035-.022-.091.052-.091.125v1.847c.004.061.056.069.09.018Z" fill="#455A64"/><path d="m54.037 128.597 9.592-5.532c.26-.151.467-.044.467.233a.994.994 0 0 1-.467.777l-9.592 5.532c-.255.151-.467.043-.467-.233a1.006 1.006 0 0 1 .467-.777Z" fill="#E0E0E0"/><path d="m51.798 131.217.782-1.372c.03-.052.03-.121 0-.138l-.782-.475c-.035-.026-.091.047-.091.121v1.864c.004.056.056.069.09 0Z" fill="#455A64"/><path d="m54.037 131.648 9.592-5.533c.26-.146.467-.043.467.238a1 1 0 0 1-.467.777l-9.592 5.532c-.255.147-.467.043-.467-.237a1.009 1.009 0 0 1 .467-.777Z" fill="#E0E0E0"/><path d="m51.798 134.238.782-1.373c.03-.052.03-.121 0-.142l-.782-.475c-.035-.022-.091.052-.091.125v1.865c.004.073.056.082.09 0Z" fill="#455A64"/><path d="m54.037 134.67 9.592-5.533c.26-.151.467-.043.467.237a.987.987 0 0 1-.467.773l-9.592 5.537c-.255.146-.467.043-.467-.238a1.017 1.017 0 0 1 .467-.776Z" fill="#E0E0E0"/><path d="m51.798 137.292.782-1.377c.03-.051.03-.12 0-.138l-.782-.474c-.035-.022-.091.051-.091.125v1.83c.004.09.056.099.09.034Z" fill="#455A64"/><path d="m54.037 137.691 9.592-5.533c.26-.151.467-.043.467.233a.994.994 0 0 1-.467.777l-9.592 5.533c-.255.151-.467.043-.467-.237a1.008 1.008 0 0 1 .467-.773Z" fill="#E0E0E0"/><path d="m51.798 140.326.782-1.372c.03-.052.03-.121 0-.138l-.782-.475c-.035-.026-.091.048-.091.121v1.847c.004.074.056.087.09.017Z" fill="#455A64"/><path d="m54.037 140.742 9.592-5.533c.26-.147.467-.043.467.237a1.004 1.004 0 0 1-.467.777l-9.592 5.533c-.255.147-.467.043-.467-.237a1.017 1.017 0 0 1 .467-.777Z" fill="#E0E0E0"/><path d="m51.798 143.365.778-1.359c.03-.052.03-.121 0-.143l-.782-.474c-.035-.022-.09.051-.09.125v1.847c.008.06.06.069.094.004Z" fill="#455A64"/><path d="m73.229 77.045 31.528-18.186a1.03 1.03 0 0 0 .467-.807V50.02c0-.298-.212-.431-.467-.268L73.229 67.935a1.028 1.028 0 0 0-.471.807v8.036c0 .297.211.418.47.267Z" fill="#F0F0F0"/><path d="m75.974 71.38.207-.864-.285.164V70.5a.074.074 0 0 1 0-.03v-.026l.458-.263a.047.047 0 0 1 0 .026v.138a.701.701 0 0 1 0 .082l-.207.863v.03a.046.046 0 0 1 0 .022l-.139.077a.035.035 0 0 1-.026-.011.035.035 0 0 1-.008-.028ZM76.759 69.933a.199.199 0 0 1 .125-.038.13.13 0 0 1 .087.034c.024.028.04.063.047.1a.707.707 0 0 1 0 .142v.263c.004.055.004.11 0 .164a.716.716 0 0 1-.047.156.926.926 0 0 1-.087.138.593.593 0 0 1-.125.103.26.26 0 0 1-.125.039.148.148 0 0 1-.082-.039.182.182 0 0 1-.052-.1.706.706 0 0 1 0-.141v-.26a.998.998 0 0 1 0-.163.697.697 0 0 1 .134-.293.47.47 0 0 1 .125-.105Zm.103.596v-.25a.334.334 0 0 0 0-.065.13.13 0 0 0 0-.043.034.034 0 0 0-.03 0h-.047a.204.204 0 0 0-.078.095.368.368 0 0 0 0 .064v.385a.101.101 0 0 0 0 .043c.01.003.02.003.03 0a.073.073 0 0 0 .048 0 .156.156 0 0 0 .047-.043.125.125 0 0 0 .03-.052.18.18 0 0 0 0-.065.377.377 0 0 0-.021-.073l.022.004ZM77.405 69.872v-.112a.318.318 0 0 0 0-.07l-.026-.051a.065.065 0 0 0-.047 0 .112.112 0 0 0-.065 0 .189.189 0 0 0-.065.052.266.266 0 0 0-.047.073.297.297 0 0 0-.026.168v.112a.207.207 0 0 0 0 .078.073.073 0 0 0 .026.047.06.06 0 0 0 .047 0 .16.16 0 0 0 .065 0 .276.276 0 0 0 .065-.056.403.403 0 0 0 .047-.069.304.304 0 0 0 .026-.082.654.654 0 0 0 0-.09ZM77.643 69.419v.03l-.475 1.247.077-.043a.052.052 0 0 0 .022-.022v-.026l.475-1.234-.078.048a.042.042 0 0 0-.021 0ZM75.969 68.906l-.316-.488a6.23 6.23 0 0 0-.747 2.015l.51-.043a4.71 4.71 0 0 1 .553-1.484ZM76.866 67.94v-.825a3.523 3.523 0 0 0-1.21 1.295l.316.488c.212-.39.52-.72.894-.959ZM75.345 71.159a4.25 4.25 0 0 1 .073-.768l-.51.043a5.298 5.298 0 0 0-.103 1.036c-.004.31.031.618.104.919l.51-.553a2.936 2.936 0 0 1-.074-.677Z" fill="#455A64"/><path d="M78.82 68.173a1.727 1.727 0 0 0-.748-1.153 1.214 1.214 0 0 0-1.21.095v.825a.899.899 0 0 1 .895-.065 1.266 1.266 0 0 1 .553.863c.05.222.075.45.073.678 0 .257-.025.515-.073.768a4.82 4.82 0 0 1-.553 1.484c-.214.391-.521.723-.894.967a.89.89 0 0 1-.894.065 1.251 1.251 0 0 1-.553-.863l-.51.552a1.687 1.687 0 0 0 .747 1.153 1.202 1.202 0 0 0 1.21-.095c.505-.325.92-.77 1.21-1.295a6.308 6.308 0 0 0 .746-2.011c.065-.343.099-.691.1-1.04a3.973 3.973 0 0 0-.1-.928Z" fill="#FDAF00"/><path d="m81.998 65.91 9.588-5.533c.26-.15.471-.043.471.233a1.002 1.002 0 0 1-.47.777l-9.589 5.524c-.259.151-.47.043-.47-.233a1 1 0 0 1 .47-.768Z" fill="#455A64"/><path d="m81.998 67.952 16.607-9.58c.259-.152.466-.044.466.236a.991.991 0 0 1-.466.773l-16.607 9.581c-.259.151-.47.043-.47-.237a.998.998 0 0 1 .47-.773Z" fill="#E0E0E0"/><path d="m107.427 57.31 31.529-18.187a1.035 1.035 0 0 0 .467-.812V30.28c0-.298-.208-.432-.467-.268l-31.529 18.182a1.036 1.036 0 0 0-.466.812v8.032c.009.297.216.418.466.271Z" fill="#F0F0F0"/><path d="M110.336 50.906c0-.057.009-.114.026-.169a.587.587 0 0 1 .06-.15.588.588 0 0 1 .195-.211.425.425 0 0 1 .103-.036.156.156 0 0 1 .091.022.2.2 0 0 1 .065.078.43.43 0 0 1 .021.142.375.375 0 0 1 0 .082.504.504 0 0 1 0 .078.47.47 0 0 1-.021.073l-.026.069-.181.492a.057.057 0 0 0 0 .026.055.055 0 0 1-.022.021l-.151.087a.021.021 0 0 1 0-.022l.125-.332a.218.218 0 0 1-.091 0 .112.112 0 0 1-.073-.03.177.177 0 0 1-.052-.078.363.363 0 0 1-.069-.142Zm.384-.22a.15.15 0 0 0 0-.052.031.031 0 0 0-.008-.015.047.047 0 0 0-.013-.011h-.035a.07.07 0 0 0-.039 0l-.039.03-.03.047a.23.23 0 0 0-.026.057.263.263 0 0 0 0 .056.15.15 0 0 0 0 .051s0 .022.026.026h.03a.07.07 0 0 0 .039 0 .132.132 0 0 0 .039-.034.165.165 0 0 0 .035-.043.19.19 0 0 0 .021-.056.263.263 0 0 0 0-.056ZM111.259 50.008a.192.192 0 0 1 .121-.04.122.122 0 0 1 .087.035.266.266 0 0 1 .051.1.485.485 0 0 1 0 .142v.263a.643.643 0 0 1 0 .164c-.013.053-.03.105-.051.156a.734.734 0 0 1-.087.138.56.56 0 0 1-.121.103.276.276 0 0 1-.125.04.145.145 0 0 1-.086-.04.235.235 0 0 1-.052-.099.638.638 0 0 1 0-.138v-.263a.898.898 0 0 1 0-.164.905.905 0 0 1 .052-.16.547.547 0 0 1 .211-.237Zm.1.595a2.614 2.614 0 0 0 0-.25.305.305 0 0 0 0-.06.126.126 0 0 0 0-.048.046.046 0 0 0-.031 0h-.047a.159.159 0 0 0-.048.043.356.356 0 0 0-.034.052v.138a2.02 2.02 0 0 0 0 .246v.065a.156.156 0 0 0 0 .043.037.037 0 0 0 .034 0h.048l.047-.039a.24.24 0 0 0 .031-.056.698.698 0 0 0 0-.065.397.397 0 0 0 0-.069ZM111.923 49.838a.422.422 0 0 1 0 .112c.002.03.002.06 0 .09a.372.372 0 0 1-.073.151.278.278 0 0 1-.069.057.133.133 0 0 1-.065.021.064.064 0 0 1-.043 0 .135.135 0 0 1-.03-.052.337.337 0 0 1 0-.077.15.15 0 0 1 0-.052.306.306 0 0 1 0-.06.415.415 0 0 1 0-.087.405.405 0 0 1 .03-.082.258.258 0 0 1 .043-.073.315.315 0 0 1 .065-.052.158.158 0 0 1 .069 0 .055.055 0 0 1 .043 0 .134.134 0 0 1 .03.052.446.446 0 0 1 0 .052Zm.242-.311v-.03h.022l.078-.048-.471 1.235a.112.112 0 0 1 0 .025v.022l-.078.043.449-1.247Zm-.432.526v.052c0 .009 0 0 .026 0a.04.04 0 0 0 .02-.013.036.036 0 0 0 .01-.021v-.16a.224.224 0 0 0 0-.052h-.03a.068.068 0 0 0-.026.04.204.204 0 0 0 0 .06v.094Zm.635.044a.526.526 0 0 1 0 .112c.002.03.002.06 0 .09a.6.6 0 0 1-.03.082.246.246 0 0 1-.048.07.16.16 0 0 1-.064.056.13.13 0 0 1-.065 0 .053.053 0 0 1-.043 0 .152.152 0 0 1-.031-.052.45.45 0 0 1 0-.074.422.422 0 0 1 0-.112.685.685 0 0 1 0-.09.48.48 0 0 1 .074-.151.245.245 0 0 1 .065-.057.157.157 0 0 1 .064 0 .064.064 0 0 1 .048 0 .15.15 0 0 1 .03.052.263.263 0 0 1 0 .056v.018Zm-.19.215v.052c0 .009 0 0 .026 0a.043.043 0 0 0 .03-.035.234.234 0 0 0 0-.064.302.302 0 0 0 0-.095.113.113 0 0 0 0-.052h-.03a.068.068 0 0 0-.026.039.204.204 0 0 0 0 .06v.095ZM111.354 48.035v-.824a3.52 3.52 0 0 0-1.209 1.295l.315.487c.212-.39.52-.719.894-.958Z" fill="#455A64"/><path d="M113.311 48.268a1.701 1.701 0 0 0-.747-1.152 1.203 1.203 0 0 0-1.21.095v.824a.893.893 0 0 1 .894-.064 1.254 1.254 0 0 1 .553.863c.051.222.076.45.074.677a4.215 4.215 0 0 1-.074.769 4.703 4.703 0 0 1-.553 1.484 2.71 2.71 0 0 1-.894.967.89.89 0 0 1-.894.065 1.257 1.257 0 0 1-.552-.864 2.915 2.915 0 0 1-.074-.677 4.713 4.713 0 0 1 .613-2.253l-.315-.488a6.246 6.246 0 0 0-.851 3.052c-.001.31.034.618.104.919a1.687 1.687 0 0 0 .747 1.152 1.202 1.202 0 0 0 1.209-.095 3.564 3.564 0 0 0 1.21-1.294 6.354 6.354 0 0 0 .747-2.012c.065-.342.098-.69.099-1.04a3.962 3.962 0 0 0-.086-.928Z" fill="#FDAF00"/><path d="m116.494 46.006 9.592-5.537c.255-.147.467-.043.467.237a1.012 1.012 0 0 1-.467.777l-9.592 5.533c-.259.15-.467.043-.467-.237a.992.992 0 0 1 .467-.773Z" fill="#455A64"/><path d="m116.494 48.044 16.606-9.577c.26-.151.471-.043.471.237a.995.995 0 0 1-.471.773l-16.606 9.58c-.259.147-.467.044-.467-.237a1.013 1.013 0 0 1 .467-.776Z" fill="#E0E0E0"/><path d="m76.435 79.251 6.73-3.884c.258-.15.466-.043.466.233a.997.997 0 0 1-.467.777l-6.729 3.884c-.259.151-.466.044-.466-.237a.991.991 0 0 1 .466-.773Z" fill="#455A64"/><path d="M138.994 45.675v51.357a.597.597 0 0 1-.251.432L73.19 135.27V83.912a.621.621 0 0 1 .255-.431l.816-.47a1.463 1.463 0 0 0 .687-1.183v-2.96a.6.6 0 0 1 .25-.432l9.411-5.43v2.762a.703.703 0 0 0 .691.764.864.864 0 0 0 .432-.12l53.271-30.733-.009-.004Zm.173-.544a.434.434 0 0 0-.208.065L85.507 76.032a.432.432 0 0 1-.207.064c-.155 0-.259-.125-.259-.332V72.79c0-.211-.108-.332-.26-.332a.433.433 0 0 0-.206.065l-9.593 5.533a1.036 1.036 0 0 0-.466.811v2.97a1.026 1.026 0 0 1-.471.806l-.816.475a1.028 1.028 0 0 0-.471.807v51.552c0 .211.108.336.259.336a.429.429 0 0 0 .212-.064l65.726-37.923a1.026 1.026 0 0 0 .467-.807V45.463c0-.211-.104-.332-.26-.332h.005Z" fill="#E0E0E0"/><path d="M76.984 86.164a.461.461 0 0 1-.229-.056.548.548 0 0 1-.246-.492V83.66a1.249 1.249 0 0 1 .579-.997l5.213-3.021a.539.539 0 0 1 .544-.035.55.55 0 0 1 .246.492v1.955a1.249 1.249 0 0 1-.579.997l-5.208 3.021a.657.657 0 0 1-.32.09Zm.32-3.125a.804.804 0 0 0-.363.622v1.955a.164.164 0 0 0 .03.116.169.169 0 0 0 .117-.034l5.213-3a.83.83 0 0 0 .358-.625v-1.955a.164.164 0 0 0-.03-.117.168.168 0 0 0-.117.035l-5.208 3.003Z" fill="#E0E0E0"/><path d="m77.624 83.843 3.398-1.968c.173-.099.311-.03.311.156a.66.66 0 0 1-.31.518l-3.4 1.972c-.172.1-.31.026-.31-.16a.668.668 0 0 1 .31-.518Z" fill="#E0E0E0"/><path d="m81.802 81.55.28.402s.031 0 .044-.026l.28-.725v-.051l-.56.323a.069.069 0 0 0-.044.078Z" fill="#455A64"/><path d="M76.268 105.133c.25-.142.432-.026.432.259a.987.987 0 0 1-.432.781c-.25.143-.432.026-.432-.259a.99.99 0 0 1 .432-.781ZM79.784 101.084c.25-.142.453-.026.453.259a.992.992 0 0 1-.453.781c-.247.143-.432.026-.432-.259a.994.994 0 0 1 .431-.781ZM83.285 99.06c.247-.142.432-.025.432.26a.996.996 0 0 1-.431.781c-.251.142-.454.026-.454-.26a.993.993 0 0 1 .454-.78ZM86.795 97.924c.25-.142.432-.026.432.259a.99.99 0 0 1-.432.781c-.25.143-.432.026-.432-.259a.986.986 0 0 1 .432-.78ZM90.307 94.278c.25-.143.432-.026.432.263a.988.988 0 0 1-.432.777c-.246.146-.432.03-.432-.26a1.01 1.01 0 0 1 .432-.78ZM93.81 92.989c.251-.143.433-.026.433.258a.988.988 0 0 1-.432.782c-.25.142-.432.026-.432-.26a.988.988 0 0 1 .432-.78ZM97.319 88.923c.25-.147.453-.03.453.259a.996.996 0 0 1-.453.78c-.247.143-.432.027-.432-.262a.997.997 0 0 1 .432-.777ZM100.83 87.926c.247-.142.432-.026.432.263a.995.995 0 0 1-.432.777c-.25.147-.432.03-.432-.259a1.006 1.006 0 0 1 .432-.781ZM104.338 76.791c.251-.142.432-.026.432.263a1.012 1.012 0 0 1-.432.781c-.25.143-.432.027-.432-.263a1.005 1.005 0 0 1 .432-.78ZM107.856 82.88c.246-.147.432-.03.432.259a1.017 1.017 0 0 1-.432.781c-.251.142-.454.026-.454-.263a.99.99 0 0 1 .454-.777ZM111.354 82.88c.25-.147.432-.03.432.259a1.005 1.005 0 0 1-.432.781c-.251.142-.432.026-.432-.263a.984.984 0 0 1 .432-.777ZM114.862 82.88c.25-.147.432-.03.432.259a1.005 1.005 0 0 1-.432.781c-.247.142-.432.026-.432-.263a.996.996 0 0 1 .432-.777ZM118.375 76.794c.247-.147.432-.03.432.259a1.004 1.004 0 0 1-.432.781c-.25.142-.453.026-.453-.263a.99.99 0 0 1 .453-.777ZM121.881 75.63c.251-.143.432-.027.432.258a.993.993 0 0 1-.432.781c-.25.143-.432.026-.432-.259a.993.993 0 0 1 .432-.78ZM125.401 70.719c.25-.142.453-.026.453.263a.99.99 0 0 1-.453.777c-.247.147-.432.03-.432-.259a1.004 1.004 0 0 1 .432-.781ZM129.221 71.43c.177-.305.177-.634.002-.736-.176-.101-.461.064-.638.37-.176.306-.177.635-.001.737.175.1.461-.065.637-.37ZM132.733 71.43c.176-.305.177-.634.002-.736-.176-.101-.462.064-.638.37-.177.306-.177.635-.002.737.176.1.461-.065.638-.37ZM135.93 68.694c.246-.143.432-.026.432.263a.997.997 0 0 1-.432.777c-.25.146-.453.03-.453-.26a.997.997 0 0 1 .453-.78Z" fill="#FDAF00"/><path d="M76.26 105.753a.116.116 0 0 1-.073-.026.11.11 0 0 1-.03-.077c0-.029.01-.057.03-.078l3.542-4.065.03-.026 3.481-2.007 3.503-1.135 3.49-3.63.043-.026 3.481-1.294 3.49-4.027a.179.179 0 0 1 .052-.034l3.455-.997 3.481-11.062a.11.11 0 0 1 .034-.052.114.114 0 0 1 .057-.025.118.118 0 0 1 .108.056l3.477 6.016h6.91l3.459-5.995a.11.11 0 0 1 .061-.051l3.477-1.153 3.485-4.88a.117.117 0 0 1 .091-.044h6.988l3.481-2.011a.113.113 0 0 1 .151.039.111.111 0 0 1-.043.147l-3.507 2.028a.12.12 0 0 1-.056 0h-6.962l-3.477 4.864a.096.096 0 0 1-.052.039l-3.455 1.152-3.49 6.042a.107.107 0 0 1-.041.038.109.109 0 0 1-.054.014h-7.018a.114.114 0 0 1-.091-.052l-3.386-5.86-3.434 10.91a.13.13 0 0 1-.028.044.129.129 0 0 1-.045.029l-3.481 1.001-3.486 4.027-.043.03-3.49 1.294-3.49 3.63a.09.09 0 0 1-.043.026l-3.51 1.135-3.456 1.994-3.546 4.026a.104.104 0 0 1-.07.026Z" fill="#FDAF00"/><path d="M76.27 107.91a.213.213 0 0 1-.186-.107.22.22 0 0 1 .077-.298l59.65-34.41a.217.217 0 0 1 .276.088.216.216 0 0 1-.06.283l-59.65 34.397a.198.198 0 0 1-.108.047Z" fill="#E0E0E0"/><path d="M76.268 103.108c.25-.143.432-.026.432.259a.987.987 0 0 1-.432.781c-.25.142-.432.026-.432-.259a.986.986 0 0 1 .432-.781ZM79.784 97.035c.25-.142.453-.025.453.26a.993.993 0 0 1-.453.78c-.247.143-.432.026-.432-.258a.996.996 0 0 1 .431-.782ZM83.608 96.986c.176-.306.177-.636.001-.737-.175-.101-.46.064-.637.37-.177.305-.177.635-.002.736.176.102.461-.064.638-.37ZM86.795 88.923c.25-.147.432-.03.432.259a.993.993 0 0 1-.432.78c-.25.143-.432.027-.432-.262a.981.981 0 0 1 .432-.777ZM90.307 90.963c.25-.142.432-.026.432.26a.993.993 0 0 1-.432.78c-.246.143-.432.026-.432-.259a.996.996 0 0 1 .432-.78ZM93.81 89.95c.251-.143.433-.026.433.263a.984.984 0 0 1-.432.776c-.25.147-.432.03-.432-.258a1 1 0 0 1 .432-.782ZM97.319 86.915c.25-.147.453-.03.453.259a.996.996 0 0 1-.453.781c-.247.142-.432.026-.432-.259a.996.996 0 0 1 .432-.781ZM100.83 82.88c.247-.147.432-.03.432.259a1.004 1.004 0 0 1-.432.781c-.25.142-.432.026-.432-.263a.997.997 0 0 1 .432-.777ZM104.338 81.854c.251-.143.432-.026.432.259a.992.992 0 0 1-.432.78c-.25.143-.432.027-.432-.258a.993.993 0 0 1 .432-.781ZM107.858 78.82c.25-.147.432-.03.432.258a1.004 1.004 0 0 1-.432.781c-.247.143-.432.026-.432-.263a.995.995 0 0 1 .432-.777ZM111.354 78.82c.25-.147.432-.03.432.258a1.005 1.005 0 0 1-.432.781c-.251.143-.432.026-.432-.263a.985.985 0 0 1 .432-.777ZM114.862 70.719c.25-.142.432-.026.432.263a.997.997 0 0 1-.432.777c-.247.147-.432.03-.432-.259a1.004 1.004 0 0 1 .432-.781ZM118.375 74.741c.247-.142.432-.03.432.26a.991.991 0 0 1-.432.78c-.25.143-.453.026-.453-.259a.985.985 0 0 1 .453-.78ZM121.881 70.719c.251-.142.432-.026.432.263a.984.984 0 0 1-.432.777c-.25.147-.432.03-.432-.259a1.005 1.005 0 0 1 .432-.781ZM125.391 68.694c.246-.143.432-.026.432.263a.997.997 0 0 1-.432.777c-.25.146-.453.03-.453-.26a.997.997 0 0 1 .453-.78ZM128.901 68.694c.25-.143.432-.026.432.263a.986.986 0 0 1-.432.777c-.251.146-.432.03-.432-.26a.992.992 0 0 1 .432-.78ZM132.408 66.67c.251-.142.454-.026.454.263a.99.99 0 0 1-.454.777c-.246.147-.431.03-.431-.259a1.016 1.016 0 0 1 .431-.78ZM135.93 66.67c.246-.142.432-.026.432.263a.997.997 0 0 1-.432.777c-.25.147-.453.03-.453-.259a.996.996 0 0 1 .453-.78Z" fill="#FDAF00"/><path d="M76.27 103.738a.107.107 0 0 1-.057 0 .11.11 0 0 1-.038-.147l3.532-6.085a.099.099 0 0 1 .074-.052l3.43-.734 3.485-7.293a.113.113 0 0 1 .069-.056.104.104 0 0 1 .086 0l3.455 2.002 3.456-.997 3.485-3.02 3.503-4.04a.083.083 0 0 1 .051-.035l3.486-1.006 3.49-3.02a.106.106 0 0 1 .073-.026h3.455l3.464-8.032a.121.121 0 0 1 .086-.065.106.106 0 0 1 .096.039l3.429 3.953 3.425-3.953a.086.086 0 0 1 .03-.026l3.52-2.028a.084.084 0 0 1 .052 0h3.481l3.455-2.003a.12.12 0 0 1 .052 0h3.537a.11.11 0 0 1 .077.032.108.108 0 0 1-.077.184h-3.481l-3.455 2.002h-3.533l-3.481 2.007-3.494 4.036a.111.111 0 0 1-.038.026.11.11 0 0 1-.126-.026l-3.399-3.92-3.456 7.942a.103.103 0 0 1-.04.047.105.105 0 0 1-.059.018h-3.455l-3.512 2.986h-.043l-3.476 1.001-3.495 4.027-3.515 3.047-.04.022-3.506 1.014a.096.096 0 0 1-.082 0l-3.412-1.968-3.455 7.237a.09.09 0 0 1-.074.056l-3.455.734-3.511 6.042a.103.103 0 0 1-.07.078Z" fill="#FDAF00"/><g opacity=".3" fill="#000"><path opacity=".3" d="M76.268 103.108c.25-.143.432-.026.432.259a.987.987 0 0 1-.432.781c-.25.142-.432.026-.432-.259a.986.986 0 0 1 .432-.781ZM79.784 97.035c.25-.142.453-.025.453.26a.993.993 0 0 1-.453.78c-.247.143-.432.026-.432-.258a.996.996 0 0 1 .431-.782ZM83.608 96.986c.176-.306.177-.636.001-.737-.175-.101-.46.064-.637.37-.177.305-.177.635-.002.736.176.102.461-.064.638-.37ZM86.795 88.923c.25-.147.432-.03.432.259a.993.993 0 0 1-.432.78c-.25.143-.432.027-.432-.262a.981.981 0 0 1 .432-.777ZM90.303 90.963c.25-.142.432-.026.432.26a.993.993 0 0 1-.432.78c-.246.143-.432.026-.432-.259a.996.996 0 0 1 .432-.78ZM93.81 89.95c.251-.143.433-.026.433.263a.984.984 0 0 1-.432.776c-.25.147-.432.03-.432-.258a1 1 0 0 1 .432-.782ZM97.319 86.915c.25-.147.453-.03.453.259a.996.996 0 0 1-.453.781c-.247.142-.432.026-.432-.259a.996.996 0 0 1 .432-.781ZM100.83 82.88c.247-.147.432-.03.432.259a1.004 1.004 0 0 1-.432.781c-.25.142-.432.026-.432-.263a.997.997 0 0 1 .432-.777ZM104.338 81.854c.251-.143.432-.026.432.259a.992.992 0 0 1-.432.78c-.25.143-.432.027-.432-.258a.993.993 0 0 1 .432-.781ZM107.858 78.82c.25-.147.432-.03.432.258a1.004 1.004 0 0 1-.432.781c-.247.143-.432.026-.432-.263a.995.995 0 0 1 .432-.777ZM111.354 78.82c.25-.147.432-.03.432.258a1.005 1.005 0 0 1-.432.781c-.251.143-.432.026-.432-.263a.985.985 0 0 1 .432-.777ZM114.862 70.719c.25-.142.431-.026.431.263a.983.983 0 0 1-.431.777c-.247.147-.432.03-.432-.259a1.004 1.004 0 0 1 .432-.781ZM118.375 74.741c.247-.142.432-.03.432.26a.991.991 0 0 1-.432.78c-.25.143-.453.026-.453-.259a.985.985 0 0 1 .453-.78ZM121.881 70.719c.251-.142.432-.026.432.263a.984.984 0 0 1-.432.777c-.25.147-.432.03-.432-.259a1.005 1.005 0 0 1 .432-.781ZM125.391 68.694c.246-.143.432-.026.432.263a.997.997 0 0 1-.432.777c-.25.146-.453.03-.453-.26a.997.997 0 0 1 .453-.78ZM128.901 68.694c.25-.143.432-.026.432.263a.986.986 0 0 1-.432.777c-.251.146-.432.03-.432-.26a.992.992 0 0 1 .432-.78ZM132.405 66.67c.25-.142.453-.026.453.263a.99.99 0 0 1-.453.777c-.247.147-.432.03-.432-.259a1.004 1.004 0 0 1 .432-.78ZM135.93 66.67c.246-.142.432-.026.432.263a.997.997 0 0 1-.432.777c-.25.147-.453.03-.453-.259a.996.996 0 0 1 .453-.78Z"/><path opacity=".3" d="M76.27 103.738a.107.107 0 0 1-.057 0 .11.11 0 0 1-.038-.147l3.532-6.085a.099.099 0 0 1 .074-.052l3.43-.734 3.485-7.293a.113.113 0 0 1 .069-.056.104.104 0 0 1 .086 0l3.455 2.002 3.456-.997 3.485-3.02 3.503-4.04a.083.083 0 0 1 .051-.035l3.486-1.006 3.49-3.02a.106.106 0 0 1 .073-.026h3.455l3.464-8.032a.121.121 0 0 1 .086-.065.106.106 0 0 1 .096.039l3.429 3.953 3.425-3.953a.086.086 0 0 1 .03-.026l3.52-2.028a.084.084 0 0 1 .052 0h3.481l3.455-2.003a.12.12 0 0 1 .052 0h3.537a.11.11 0 0 1 .077.032.108.108 0 0 1-.077.184h-3.481l-3.455 2.002h-3.533l-3.481 2.007-3.494 4.036a.111.111 0 0 1-.038.026.11.11 0 0 1-.126-.026l-3.399-3.92-3.456 7.942a.103.103 0 0 1-.04.047.105.105 0 0 1-.059.018h-3.455l-3.511 2.986h-.044l-3.476 1.001-3.495 4.027-3.515 3.047-.04.022-3.506 1.014a.096.096 0 0 1-.082 0l-3.412-1.968-3.455 7.237a.09.09 0 0 1-.074.056l-3.455.734-3.511 6.042a.103.103 0 0 1-.07.078Z"/></g><path d="M120.127 86.065a1.978 1.978 0 0 1 1.982-.164l-2 5.386.018-5.222Z" fill="#FDAF00"/><path d="M99.408 97.356a1.98 1.98 0 0 1 1.982-.164l-2 5.386.018-5.222Z" fill="#B17A00"/><path d="M86.408 105.356a1.98 1.98 0 0 1 1.982-.164l-2 5.386.018-5.222ZM118.129 88.224a5.942 5.942 0 0 1 2-2.158v5.24l-2-3.082ZM97.406 99.513a5.94 5.94 0 0 1 2-2.157v5.239l-2-3.082Z" fill="#FDAF00"/><path d="M84.406 107.513a5.95 5.95 0 0 1 2-2.158v5.24l-2-3.082ZM116.887 91.554c.221-1.172.64-2.299 1.239-3.331l2 3.081-3.239.25ZM96.168 102.845c.221-1.172.64-2.299 1.24-3.331l2 3.081-3.24.25Z" fill="#FDAF00"/><path d="M83.168 110.845c.221-1.172.64-2.299 1.24-3.331l2 3.081-3.24.25Z" fill="#FDAF00"/><path opacity=".3" d="M118.126 88.224a10.52 10.52 0 0 0-1.239 3.332l3.239-.25v-5.24a5.942 5.942 0 0 0-2 2.158ZM97.407 99.513a10.523 10.523 0 0 0-1.239 3.332l3.24-.25v-5.24a5.94 5.94 0 0 0-2 2.158ZM84.407 107.513a10.527 10.527 0 0 0-1.239 3.332l3.24-.25v-5.24a5.95 5.95 0 0 0-2 2.158Z" fill="#000"/><path d="M122.109 85.902a2.79 2.79 0 0 1 1.24 1.9l-3.24 3.486 2-5.386Z" fill="#FDAF00"/><path d="M101.39 97.191a2.79 2.79 0 0 1 1.24 1.9l-3.24 3.486 2-5.386Z" fill="#B17A00"/><path d="M88.39 105.191a2.806 2.806 0 0 1 1.24 1.899l-3.24 3.487 2-5.386ZM116.887 94.793a6.563 6.563 0 0 1-.168-1.523c.002-.58.058-1.158.168-1.727l3.24-.25-3.24 3.5ZM96.169 106.082a6.523 6.523 0 0 1-.169-1.523c.002-.58.058-1.158.169-1.727l3.239-.25-3.24 3.5Z" fill="#FDAF00"/><path d="M83.169 114.082a6.523 6.523 0 0 1-.169-1.523c.002-.58.058-1.158.169-1.727l3.239-.25-3.24 3.5Z" fill="#B17A00"/><path d="M123.368 91.055a10.52 10.52 0 0 1-1.239 3.331l-2-3.081 3.239-.25Z" fill="#FDAF00"/><path d="M102.645 102.346a10.52 10.52 0 0 1-1.239 3.331l-2-3.081 3.239-.25Z" fill="#B17A00"/><path d="M89.645 110.346a10.522 10.522 0 0 1-1.24 3.331l-1.999-3.081 3.24-.25ZM120.129 96.544a1.981 1.981 0 0 1-2 .147l2-5.386v5.239ZM99.406 107.835a1.973 1.973 0 0 1-2 .147l2-5.386v5.239ZM86.406 115.835a1.973 1.973 0 0 1-2 .147l2-5.386v5.239ZM116.887 94.792l3.239-3.487-2 5.386a2.801 2.801 0 0 1-1.239-1.9Z" fill="#FDAF00"/><path d="m96.168 106.083 3.24-3.487-2 5.386a2.807 2.807 0 0 1-1.24-1.899Z" fill="#FDAF00"/><path d="m83.168 114.083 3.24-3.487-2 5.386a2.807 2.807 0 0 1-1.24-1.899Z" fill="#B17A00"/><path d="M123.368 87.816c.114.5.169 1.011.164 1.524 0 .58-.055 1.157-.164 1.726l-3.239.25 3.239-3.5Z" fill="#FDAF00"/><path d="M102.646 99.11c.114.499.169 1.01.164 1.523a9.344 9.344 0 0 1-.164 1.726l-3.24.25 3.24-3.5Z" fill="#B17A00"/><path d="M89.645 107.109c.115.5.17 1.011.165 1.524 0 .579-.056 1.157-.165 1.726l-3.239.25 3.24-3.5ZM122.109 94.386a5.942 5.942 0 0 1-2 2.158v-5.24l2 3.082ZM101.39 105.677a5.93 5.93 0 0 1-2 2.158v-5.239l2 3.081ZM88.39 113.677a5.933 5.933 0 0 1-2 2.158v-5.239l2 3.081Z" fill="#FDAF00"/><path d="m118.432 99.216 3.395-1.967c.173-.1.311-.03.311.155a.674.674 0 0 1-.311.518l-3.395 1.968c-.173.099-.311.03-.311-.156a.675.675 0 0 1 .311-.518ZM97.71 110.506l3.394-1.968c.173-.1.311-.031.311.155a.66.66 0 0 1-.311.518l-3.395 1.968c-.172.099-.31.03-.31-.156a.672.672 0 0 1 .31-.517ZM84.71 118.506l3.394-1.968c.173-.1.311-.031.311.155a.667.667 0 0 1-.31.518l-3.396 1.968c-.172.099-.31.03-.31-.156a.672.672 0 0 1 .31-.517Z" fill="#455A64"/><path d="m117.678 101.681 4.898-2.831c.173-.1.311-.03.311.16a.667.667 0 0 1-.311.513l-4.898 2.84c-.173.099-.311.03-.311-.155a.669.669 0 0 1 .311-.527ZM96.96 112.97l4.897-2.831c.173-.099.311-.03.311.16a.653.653 0 0 1-.311.513l-4.898 2.84c-.172.099-.31.03-.31-.155a.661.661 0 0 1 .31-.527ZM83.96 120.97l4.897-2.831c.173-.099.311-.03.311.16a.658.658 0 0 1-.31.513l-4.899 2.84c-.172.099-.31.03-.31-.155a.661.661 0 0 1 .31-.527ZM117.678 103.708l4.898-2.839c.173-.1.311-.026.311.159a.665.665 0 0 1-.311.514l-4.898 2.84c-.173.099-.311.03-.311-.156a.66.66 0 0 1 .311-.518ZM96.96 114.997l4.897-2.839c.173-.1.311-.026.311.159a.653.653 0 0 1-.094.294.652.652 0 0 1-.217.22l-4.898 2.84c-.172.099-.31.03-.31-.156a.657.657 0 0 1 .31-.518ZM83.96 122.997l4.897-2.839c.173-.1.311-.026.311.159a.658.658 0 0 1-.31.514l-4.899 2.84c-.172.099-.31.03-.31-.156a.657.657 0 0 1 .31-.518ZM117.678 105.755l4.898-2.84c.173-.099.311-.025.311.16a.674.674 0 0 1-.311.518l-4.898 2.835c-.173.1-.311.031-.311-.155a.674.674 0 0 1 .311-.518ZM96.96 117.044l4.897-2.839c.173-.1.311-.026.311.159a.66.66 0 0 1-.311.518l-4.898 2.836c-.172.099-.31.03-.31-.156a.672.672 0 0 1 .31-.518ZM83.96 125.044l4.897-2.839c.173-.1.311-.026.311.159a.667.667 0 0 1-.31.518l-4.899 2.836c-.172.099-.31.03-.31-.156a.672.672 0 0 1 .31-.518Z" fill="#E0E0E0"/><path d="M132.406 78.952a1.981 1.981 0 0 1 2-.147l-2 5.37v-5.223ZM130.406 81.111a5.986 5.986 0 0 1 2-2.158v5.222l-2-3.064Z" fill="#FDAF00"/><path d="M129.172 84.443c.22-1.172.637-2.3 1.235-3.332l2 3.082-3.235.25Z" fill="#FDAF00"/><path d="M134.406 78.807a2.803 2.803 0 0 1 1.239 1.899l-3.239 3.487 2-5.386ZM129.173 87.68a6.51 6.51 0 0 1-.169-1.524c.002-.58.059-1.157.169-1.726l3.234-.25-3.234 3.5Z" fill="#FDAF00"/><path d="M135.645 83.941c-.22 1.173-.639 2.3-1.239 3.332l-2-3.099 3.239-.233ZM132.406 89.43a1.989 1.989 0 0 1-2 .151l2-5.407v5.256Z" fill="#FDAF00"/><path d="m129.172 87.678 3.235-3.487-2 5.39a2.817 2.817 0 0 1-1.235-1.903Z" fill="#FDAF00"/><path opacity=".3" d="M130.408 81.111a10.493 10.493 0 0 0-1.235 3.332 9.262 9.262 0 0 0-.169 1.726 6.51 6.51 0 0 0 .169 1.523 2.799 2.799 0 0 0 1.235 1.904l1.999-5.42v-5.223a5.975 5.975 0 0 0-1.999 2.158Z" fill="#000"/><path d="M135.645 80.723c.116.5.173 1.01.169 1.523a9.179 9.179 0 0 1-.169 1.726l-3.239.25 3.239-3.5Z" fill="#FDAF00"/><path d="M134.406 87.272a5.908 5.908 0 0 1-2 2.158v-5.256l2 3.098Z" fill="#FDAF00"/><path d="m130.709 92.129 3.399-1.968c.173-.1.311-.03.311.155a.65.65 0 0 1-.311.518l-3.399 1.972c-.172.1-.311.026-.311-.16a.675.675 0 0 1 .311-.517Z" fill="#455A64"/><path d="m129.964 94.593 4.893-2.84c.173-.099.311-.025.311.16a.662.662 0 0 1-.311.518l-4.893 2.835c-.173.1-.316.03-.316-.155a.673.673 0 0 1 .316-.518ZM129.964 96.621l4.893-2.835c.173-.1.311-.03.311.155a.662.662 0 0 1-.311.518l-4.893 2.835c-.173.104-.316.03-.316-.155a.673.673 0 0 1 .316-.518ZM129.964 98.65l4.893-2.823c.173-.1.311-.03.311.155a.663.663 0 0 1-.311.518l-4.893 2.84c-.173.099-.316.025-.316-.16a.68.68 0 0 1 .316-.53Z" fill="#E0E0E0"/><path d="M132.344 149.205a5.766 5.766 0 0 0-2.458-4.609c-.7-.431-1.343-.496-1.823-.25-2.889 1.45-23.193 14.462-24.493 15.105a.93.93 0 0 0-.432.837 2.9 2.9 0 0 0 1.236 2.318.92.92 0 0 0 .447.189.92.92 0 0 0 .481-.068c2.056-1.131 22.101-9.668 26.195-11.86.51-.259.821-.833.847-1.662Z" fill="#FDAF00"/><path opacity=".1" d="M131.545 146.399a5.19 5.19 0 0 0-1.659-1.804c-.695-.431-1.339-.496-1.814-.254l-.06.03c-2.639 1.351-17.751 10.983-22.835 14.117h-.034l-.208.129-.06.039-.117.069-.138.082c-.535.328-.903.54-1.041.609a.978.978 0 0 0-.34.435.99.99 0 0 0-.07.402 1.991 1.991 0 0 0 0 .289v.117c0 .038 0 .116.034.176l.039.143c0 .056.035.108.056.164.012.042.027.084.044.125l28.203-14.868Z" fill="#000"/><path d="M104.379 162.613a2.878 2.878 0 0 1-1.231-2.309c.026-.833.622-1.152 1.335-.712a2.908 2.908 0 0 1 1.218 2.309c0 .82-.613 1.153-1.322.712Z" fill="#FDAF00"/><path d="M98.31 163.175a2.222 2.222 0 0 0 .946 1.773.726.726 0 0 0 .708.095l4.915-2.611a.704.704 0 0 0 .311-.638 2.225 2.225 0 0 0-.946-1.774.705.705 0 0 0-.708-.091l-4.91 2.611a.714.714 0 0 0-.316.635Z" fill="#37474F"/><path d="M98.63 162.532a.709.709 0 0 0-.32.643c-.003.259.047.516.147.755l6.336-3.366a1.905 1.905 0 0 0-.544-.544.708.708 0 0 0-.708-.091l-4.911 2.611v-.008Z" fill="#263238"/><path d="M104.611 167.529c0-3.146-2.082-6.288-6.241-8.687-8.319-4.8-21.807-4.8-30.125 0-4.16 2.399-6.241 5.541-6.241 8.687v5.796c0 3.142 2.082 6.288 6.24 8.688 8.32 4.799 21.808 4.799 30.126 0 4.159-2.4 6.241-5.546 6.241-8.688v-5.796Zm-35.334-6.905c3.714-2.158 8.699-3.323 14.032-3.323 5.335 0 10.319 1.178 14.033 3.323 3.36 1.938 5.209 4.389 5.209 6.905s-1.849 4.972-5.209 6.905c-3.714 2.158-8.698 3.323-14.032 3.323s-10.319-1.182-14.033-3.323c-3.36-1.937-5.213-4.393-5.213-6.905 0-2.512 1.853-4.967 5.213-6.905Z" fill="#FDAF00"/><path opacity=".3" d="M68.246 176.221c8.318 4.799 21.807 4.799 30.125 0 8.318-4.799 8.318-12.58 0-17.379-8.318-4.8-21.807-4.8-30.125 0-8.318 4.799-8.327 12.58 0 17.379Zm-4.18-8.692c0-2.516 1.848-4.967 5.208-6.905 3.714-2.158 8.698-3.323 14.032-3.323s10.318 1.178 14.037 3.323c3.356 1.938 5.209 4.389 5.209 6.905s-1.853 4.972-5.209 6.905c-3.719 2.158-8.703 3.323-14.037 3.323-5.334 0-10.318-1.182-14.032-3.323-3.356-1.933-5.209-4.376-5.209-6.905Z" fill="#fff"/><path d="M64.066 167.529c.014 1.023.3 2.024.83 2.9.864-1.463 2.332-2.835 4.383-4.013 3.71-2.158 8.695-3.323 14.033-3.323 5.338 0 10.318 1.178 14.028 3.323 2.047 1.178 3.537 2.55 4.384 4.013a5.762 5.762 0 0 0 .829-2.9c0-2.516-1.848-4.967-5.213-6.905-3.71-2.158-8.699-3.323-14.028-3.323-5.33 0-10.322 1.182-14.033 3.323-3.364 1.938-5.213 4.389-5.213 6.905Z" fill="#FDAF00"/><path opacity=".1" d="M64.066 167.529c.014 1.023.3 2.024.83 2.9.864-1.463 2.332-2.835 4.383-4.013 3.71-2.158 8.695-3.323 14.033-3.323 5.338 0 10.318 1.178 14.028 3.323 2.047 1.178 3.537 2.55 4.384 4.013a5.762 5.762 0 0 0 .829-2.9c0-2.516-1.848-4.967-5.213-6.905-3.71-2.158-8.699-3.323-14.028-3.323-5.33 0-10.322 1.182-14.033 3.323-3.364 1.938-5.213 4.389-5.213 6.905Z" fill="#000"/><path opacity=".4" d="M69.274 163.243c3.715-2.158 8.699-3.323 14.033-3.323s10.318 1.182 14.036 3.323c2.769 1.601 4.509 3.552 5.036 5.611-.527 2.045-2.267 3.996-5.036 5.61-3.718 2.158-8.702 3.323-14.036 3.323s-10.318-1.182-14.033-3.323c-2.773-1.601-4.513-3.552-5.036-5.61.523-2.059 2.263-4.01 5.036-5.611Z" fill="#fff"/><path opacity=".1" d="M78.287 179.48v5.788a27.852 27.852 0 0 1-10.042-3.255c-4.16-2.399-6.241-5.545-6.241-8.691v-5.792a7.33 7.33 0 0 1 .255-1.899c-1.01 3.742.984 7.703 5.982 10.591a28.093 28.093 0 0 0 10.046 3.258Z" fill="#000"/></svg>