<svg width="208" height="190" fill="none" xmlns="http://www.w3.org/2000/svg"><g clip-path="url(#a)"><path d="M103.981 190.001c57.428 0 103.982-26.88 103.982-60.037s-46.554-60.036-103.982-60.036C46.554 69.928 0 96.807 0 129.964s46.554 60.037 103.981 60.037Z" fill="#F0F0F0"/><path d="m38.48 155.501-17.081-9.861c-.964-.557-.964-1.456 0-2.014l99.357-57.366a3.889 3.889 0 0 1 3.487 0l17.086 9.865c.963.553.963 1.457 0 2.014L41.971 155.5a3.864 3.864 0 0 1-3.491 0Z" fill="#E0E0E0"/><path d="m99.882 137.928 14.691-8.491c1.517-.865 2.273-2.023 2.273-3.168v-2.039l-15.236-8.595a3.23 3.23 0 0 1-1.46-2.532V94.998L74.5 109.819v18.105a3.239 3.239 0 0 0 1.46 2.532l12.964 7.472c3.02 1.745 7.929 1.745 10.958 0Z" fill="#263238"/><path d="M80.653 131.131v2.035l-4.7-2.709a3.242 3.242 0 0 1-1.457-2.533v-18.1l4.883-2.822c.104 1.24.212 2.523.315 3.772l-3.426 1.984v14.147a3.216 3.216 0 0 0 1.46 2.532l2.925 1.694Z" fill="#000"/><path d="M76.27 126.908a3.23 3.23 0 0 0 1.46 2.532l11.187 6.442c3.025 1.75 7.938 1.75 10.967 0l14.691-8.486c3.025-1.728 3.025-4.58 0-6.33l-11.195-6.452a3.223 3.223 0 0 1-1.461-2.532V97.94L76.274 112.76l-.005 14.147Z" fill="#37474F"/><path d="m106.357 116.338-2.977-1.728a3.223 3.223 0 0 1-1.461-2.532V97.939l-25.65 14.822v14.147a3.23 3.23 0 0 0 1.461 2.532l2.925 1.685 25.702-14.787Z" fill="#263238"/><path d="M116.842 124.25v2.044c0 1.145-.761 2.286-2.273 3.163l-14.692 8.486a11.014 11.014 0 0 1-5.233 1.297v-2.036a10.952 10.952 0 0 0 5.233-1.296l14.692-8.495c1.512-.89 2.273-2.035 2.273-3.163ZM35.087 144.491a3.917 3.917 0 0 0 3.538-.065l99.194-57.271a4.023 4.023 0 0 0 1.828-3.163V3.487a3.921 3.921 0 0 0-1.729-3.098 3.916 3.916 0 0 0-3.539.064l-99.18 57.254a4.037 4.037 0 0 0-1.828 3.163v80.522a3.93 3.93 0 0 0 1.715 3.099Z" fill="#455A64"/><path d="m38.624 144.421 99.194-57.267a4.038 4.038 0 0 0 1.828-3.163V3.486c0-1.166-.817-1.637-1.828-1.054l-99.19 57.267a4.036 4.036 0 0 0-1.827 3.163v80.505c0 1.166.816 1.624 1.823 1.054Z" fill="#FDC723"/><path d="m38.624 144.421 99.194-57.267a4.038 4.038 0 0 0 1.828-3.163V3.486c0-1.166-.817-1.637-1.828-1.054l-99.19 57.267a4.036 4.036 0 0 0-1.827 3.163v80.505c0 1.166.816 1.624 1.823 1.054Z" fill="#37474F"/><path d="M38.355 146.508a3.94 3.94 0 0 1-3.275-.069 3.928 3.928 0 0 1-1.728-3.103v-7.307l3.426 1.984v7.306c.017 1.063.691 1.543 1.577 1.189Z" fill="#263238"/><path d="M36.797 138.014v7.302c0 1.167.817 1.638 1.823 1.055l99.198-57.267a4.034 4.034 0 0 0 1.828-3.167V78.62l-102.85 59.393Z" fill="#37474F"/><path opacity=".2" d="M36.8 137.996v7.32c0 1.167.818 1.638 1.824 1.055l99.194-57.267a4.044 4.044 0 0 0 1.828-3.167V78.62L36.801 137.996Z" fill="#000"/><path d="M40.227 128.844V64.003a2.428 2.428 0 0 1 1.097-1.901L135.116 7.95c.61-.35 1.098-.065 1.098.63v64.846a2.427 2.427 0 0 1-1.098 1.901l-93.81 54.151c-.591.35-1.08.065-1.08-.635Z" fill="#FDC723"/><path opacity=".3" d="M40.227 128.844V64.003a2.428 2.428 0 0 1 1.097-1.901L135.116 7.95c.61-.35 1.098-.065 1.098.63v64.846a2.427 2.427 0 0 1-1.098 1.901l-93.81 54.151c-.591.35-1.08.065-1.08-.635Z" fill="#000"/><path d="M88.22 110.639a3.794 3.794 0 0 0-1.728 2.969c0 1.093.77 1.538 1.729.989a3.787 3.787 0 0 0 1.728-2.968c-.013-1.093-.782-1.538-1.728-.99Z" fill="#455A64"/><path d="M37.334 61.057a3.888 3.888 0 0 0-.54 1.806v75.151l-3.427-1.983V60.888a3.79 3.79 0 0 1 .54-1.806l3.427 1.975Z" fill="#263238"/><path d="M153.457 3.106a.905.905 0 0 0-.934.074l-98.86 57.093a2.831 2.831 0 0 0-1.297 2.217v66.652a1.239 1.239 0 0 0 .54 1.111c.208.112 1.297.751 1.634.929a.737.737 0 0 0 .743-.044l98.874-57.115a2.82 2.82 0 0 0 1.296-2.217V4.83a.895.895 0 0 0-.397-.864c-.242-.082-1.366-.704-1.599-.86Z" fill="#FDC723"/><path d="M54.878 131.048c-.354 0-.644-.432-.644-.98V63.42a2.64 2.64 0 0 1 1.176-2.03l98.856-57.095a.985.985 0 0 1 .467-.147c.307 0 .493.26.493.7v66.976a2.63 2.63 0 0 1-1.176 2.027l-98.856 57.102a.652.652 0 0 1-.316.095Z" fill="#FAFAFA"/><path d="M154.731 4.363c.238 0 .277.303.277.484v66.976a2.384 2.384 0 0 1-1.067 1.841l-98.857 57.098a.395.395 0 0 1-.207.069c-.225 0-.432-.358-.432-.764V63.419a2.392 2.392 0 0 1 1.067-1.845L154.373 4.48a.76.76 0 0 1 .358-.117Zm0-.432a1.188 1.188 0 0 0-.574.173L55.3 61.202a2.826 2.826 0 0 0-1.296 2.217v66.648c0 .648.359 1.196.864 1.196a.826.826 0 0 0 .432-.125l98.857-57.115a2.82 2.82 0 0 0 1.296-2.217V4.83c0-.583-.289-.916-.709-.916l-.013.017Z" fill="#E0E0E0"/><path d="M52.918 130.254c.138.073 1.136.644 1.572.89a1.29 1.29 0 0 1-.47-1.076v-62.46l-1.643-.96v62.495a1.257 1.257 0 0 0 .54 1.111Z" fill="#F0F0F0"/><path d="M155.44 4.836c0-.808-.579-1.136-1.296-.73L55.3 61.204a2.826 2.826 0 0 0-1.296 2.217v4.187L155.44 9.04V4.836Z" fill="#FDC723"/><path opacity=".4" d="M154.158 4.127 55.301 61.203a2.593 2.593 0 0 0-.903.95l-1.625-.941c.212-.384.518-.707.89-.938L152.525 3.18a.913.913 0 0 1 .929-.078c.229.143 1.297.748 1.565.89a.945.945 0 0 0-.86.135Z" fill="#fff"/><path opacity=".15" d="M52.379 66.653v-4.161a2.64 2.64 0 0 1 .393-1.297l1.63.938a2.593 2.593 0 0 0-.381 1.27v4.187l-1.642-.937Z" fill="#000"/><path d="M54.02 67.61v7.54l101.418-58.554V9.04L54.02 67.611Z" fill="#EBEBEB"/><path d="m58.242 67.05 6.56-3.769v3.76l-6.56 3.79v-3.782ZM66.422 62.326v1.486l3.27-1.888v-1.486l-3.27 1.888ZM66.422 64.62v1.487l3.27-1.888v-1.487l-3.27 1.889ZM71.332 59.492v1.486l3.271-1.888v-1.487l-3.271 1.889ZM71.332 61.787v1.486l3.271-1.888v-1.487l-3.271 1.889ZM76.238 56.662v1.482l3.271-1.888V54.77l-3.27 1.892ZM76.238 58.957v1.486l3.271-1.892v-1.486l-3.27 1.892ZM90.957 48.162l.004 1.486 3.271-1.888v-1.487l-3.275 1.889ZM90.957 50.457l.004 1.486 3.271-1.888v-1.487l-3.275 1.889ZM95.867 45.328v1.486l3.275-1.888V43.44l-3.275 1.888ZM95.867 47.623v1.486l3.275-1.888v-1.487l-3.275 1.889ZM100.773 42.494v1.486l3.271-1.888v-1.486l-3.271 1.888ZM100.773 44.787v1.486l3.271-1.888v-1.487l-3.271 1.889ZM81.144 53.826l8.18-4.723v3.781l-8.18 4.719v-3.777ZM105.684 39.663l6.559-3.772v3.763l-6.559 3.785v-3.776ZM113.863 34.94v1.486l3.271-1.893V33.05l-3.271 1.888ZM113.863 37.234v1.486l3.271-1.888v-1.486l-3.271 1.888ZM118.773 32.105v1.487l3.271-1.889v-1.486l-3.271 1.888ZM118.773 34.4v1.486l3.271-1.888v-1.486l-3.271 1.888ZM123.676 29.271l.004 1.486 3.271-1.888v-1.486l-3.275 1.888ZM123.676 31.566l.004 1.487 3.271-1.889v-1.486l-3.275 1.888ZM138.398 20.771v1.486l3.276-1.888v-1.486l-3.276 1.888ZM138.398 23.066v1.486l3.276-1.888v-1.486l-3.276 1.888ZM143.309 17.937v1.487l3.271-1.889V16.05l-3.271 1.888ZM143.309 20.23v1.486l3.271-1.888v-1.486l-3.271 1.888ZM148.215 15.101v1.487l3.271-1.889v-1.486l-3.271 1.888ZM148.215 17.4v1.483l3.271-1.889v-1.486l-3.271 1.892ZM128.586 26.44l8.18-4.723v3.776l-8.18 4.723V26.44ZM54.02 67.612l-1.637-.96v7.558l1.637.942v-7.54Z" fill="#E0E0E0"/><path d="M129.27 21.176v.281c0 .432.311.622.695.402l19.877-11.472a1.546 1.546 0 0 0 .696-1.21V8.9c0-.432-.311-.626-.696-.402l-19.877 11.473a1.532 1.532 0 0 0-.695 1.205Z" fill="#F5F5F5"/><path d="M150.53 9.177V8.9c0-.432-.311-.626-.695-.402l-2.593 1.487v1.888l2.593-1.486a1.555 1.555 0 0 0 .695-1.21Z" fill="#455A64"/><path d="m55.66 76.095 98.148-56.657v3.767L63.836 75.153l-.005 49.113-8.17 4.718v-52.89Z" fill="#F0F0F0"/><path d="m63.836 75.152 8.171-4.718V74.2l-8.171 4.728v-3.777ZM63.836 105.369l8.171-4.715v3.768l-8.171 4.723v-3.776ZM63.836 109.15l8.171-4.718v3.768l-8.171 4.727v-3.777Z" fill="#FDC723"/><path opacity=".8" d="m63.836 109.15 8.171-4.718v3.768l-8.171 4.727v-3.777Z" fill="#fff"/><path d="m112.906 77.037 8.171-4.715v3.768l-8.171 4.723v-3.776Z" fill="#FDC723"/><path opacity=".3" d="m112.906 77.037 8.171-4.715v3.768l-8.171 4.723v-3.776Z" fill="#000"/><path d="m112.906 80.816 8.171-4.718v3.768l-8.171 4.727v-3.777Z" fill="#FDC723"/><path opacity=".4" d="m112.906 80.816 8.171-4.718v3.768l-8.171 4.727v-3.777Z" fill="#000"/><path d="m112.906 84.594 8.171-4.719v3.768l-8.171 4.727v-3.776Z" fill="#FDC723"/><path opacity=".5" d="m112.906 84.594 8.171-4.719v3.768l-8.171 4.727v-3.776Z" fill="#000"/><path d="m112.906 88.37 8.171-4.718v3.773l-8.171 4.722v-3.776Z" fill="#FDC723"/><path opacity=".3" d="m112.906 88.37 8.171-4.718v3.773l-8.171 4.722v-3.776Z" fill="#000"/><path d="m104.734 51.537 8.171-4.719v18.888l-8.171 4.727V51.537ZM104.734 74.205l8.171-4.719v26.445l-8.171 4.727V74.205ZM72.004 93.094l8.171-4.719v3.768l-8.171 4.727v-3.776Z" fill="#FDC723"/><path opacity=".3" d="m72.004 93.094 8.171-4.719v3.768l-8.171 4.727v-3.776Z" fill="#000"/><path d="m88.375 64.76 8.171-4.719v3.768l-8.171 4.727V64.76Z" fill="#FDC723"/><path opacity=".6" d="m88.375 64.76 8.171-4.719v3.768l-8.171 4.727V64.76Z" fill="#fff"/><path d="m129.273 63.819 8.172-4.723v3.772l-8.172 4.723v-3.772Z" fill="#FDC723"/><path opacity=".8" d="m129.273 63.819 8.172-4.723v3.772l-8.172 4.723v-3.772Z" fill="#fff"/><path d="m129.273 71.375 8.172-4.719v3.768l-8.172 4.727v-3.776Z" fill="#FDC723"/><path d="m55.564 75.921-.1.056v53.357l98.438-56.844.104-.056V19.078L55.564 75.921Zm98.049-7.488-7.778 4.49v-3.315l7.778-4.485v3.31ZM55.858 79.987l7.778-4.49v3.315l-7.778 4.49v-3.315Zm48.672-5.427v3.314l-7.778 4.49V79.05l7.778-4.49Zm-7.778 4.023v-3.314l7.778-4.49v3.315l-7.778 4.489Zm8.18-4.256 7.778-4.49v3.314l-7.778 4.49v-3.314Zm0-.467v-3.31l7.778-4.494v3.319l-7.778 4.485Zm0-3.776v-3.302l7.778-4.49v3.315l-7.778 4.477Zm0-3.781v-3.31l7.778-4.494v3.314l-7.778 4.49Zm-.402.233-7.778 4.49V67.71l7.778-4.49v3.315Zm0 .467v3.314l-7.778 4.49v-3.315l7.778-4.49Zm-8.18 8.037-7.777 4.49v-3.315l7.777-4.49v3.315Zm0 .462v3.314l-7.777 4.49v-3.314l7.777-4.49Zm0 3.781v3.314l-7.777 4.49v-3.314l7.777-4.49Zm0 3.777v3.314l-7.777 4.49v-3.315l7.777-4.49Zm.402-.234 7.778-4.49v3.315l-7.778 4.49v-3.315Zm7.778-.708v3.314l-7.778 4.49v-3.315l7.778-4.49Zm.402-.234 7.778-4.49v3.315l-7.778 4.49v-3.315Zm0-.466v-3.315l7.778-4.49v3.315l-7.778 4.49Zm8.18-8.033 7.778-4.49v3.315l-7.778 4.49v-3.315Zm0-.467v-3.314l7.778-4.49v3.315l-7.778 4.49Zm0-3.776v-3.315l7.778-4.49v3.315l-7.778 4.49Zm0-3.781v-3.332l7.778-4.49v3.315l-7.778 4.507Zm0-3.777V58.27l7.778-4.49v3.31l-7.778 4.494Zm0-3.78v-3.315l7.778-4.49v3.315l-7.778 4.49Zm-.402.232-7.778 4.49v-3.314l7.778-4.49v3.314Zm-8.18 4.723-7.778 4.49v-3.314l7.778-4.49v3.314Zm-8.18 4.723-7.777 4.49v-3.314l7.777-4.49v3.314Zm0 .463v3.314l-7.777 4.49v-3.315l7.777-4.49Zm-8.18 8.037-7.777 4.49v-3.32l7.778-4.489v3.319Zm0 .466v3.297l-7.777 4.494v-3.314l7.778-4.477Zm0 3.777v3.314l-7.777 4.49v-3.314l7.778-4.49Zm0 3.78v3.31l-7.777 4.495v-3.314l7.778-4.49Zm0 3.778v3.314l-7.777 4.49v-3.31l7.778-4.495Zm0 3.78v3.306l-7.777 4.494v-3.314l7.778-4.486Zm.403-.233 7.777-4.49v3.315l-7.777 4.49V91.33Zm7.777-.713v3.314l-7.777 4.49v-3.314l7.777-4.49Zm.402-.233 7.778-4.49v3.314l-7.778 4.49v-3.314Zm8.18-4.723 7.778-4.49V84.5l-7.778 4.49V85.66Zm8.18-4.719 7.778-4.49v3.315l-7.778 4.49v-3.315Zm0-.466v-3.323l7.778-4.49v3.314l-7.778 4.499Zm8.179-8.037 7.778-4.49v3.314l-7.778 4.49v-3.314Zm0-.463v-3.314l7.778-4.49v3.315l-7.778 4.49Zm0-3.78V64.88l7.778-4.49v3.315l-7.778 4.49Zm0-3.777v-3.314l7.778-4.49v3.314l-7.778 4.49Zm0-3.781v-3.314l7.778-4.49v3.314l-7.778 4.49Zm0-3.777v-3.314l7.778-4.49v3.315l-7.778 4.49Zm0-3.78v-3.315l7.778-4.49v3.315l-7.778 4.49Zm0-3.777v-3.315l7.778-4.489v3.314l-7.778 4.49Zm-.401.229-7.778 4.494v-3.315l7.778-4.49v3.31Zm-8.18 4.718-7.778 4.49v-3.31l7.778-4.494v3.314Zm-8.18 4.723-7.778 4.49V60.15l7.778-4.49v3.314Zm-8.18 4.723-7.777 4.49v-3.315l7.777-4.49v3.315Zm-8.18 4.727-7.777 4.49V69.6l7.778-4.49v3.314Zm0 .467v3.31l-7.777 4.494V73.38l7.778-4.49Zm-8.179 8.033-7.778 4.49v-3.31l7.778-4.495v3.315Zm0 .466v3.315l-7.778 4.49V81.88l7.778-4.49Zm0 3.777v3.332l-7.778 4.49v-3.315l7.778-4.507Zm0 3.78v3.315l-7.778 4.49v-3.315l7.778-4.49Zm0 3.778v3.314l-7.778 4.49v-3.31l7.778-4.494Zm0 3.78v3.315l-7.778 4.489v-3.314l7.778-4.49Zm0 3.777v3.314l-7.778 4.49v-3.31l7.778-4.494Zm0 3.781v3.314l-7.778 4.49v-3.315l7.778-4.489Zm.402-.234 7.778-4.489v3.314l-7.778 4.49v-3.315Zm7.778-.708v3.314l-7.778 4.49v-3.315l7.778-4.49Zm.402-.233 7.777-4.49v3.314l-7.777 4.49v-3.314Zm8.18-4.723 7.777-4.49v3.314l-7.778 4.49v-3.314Zm8.179-4.723 7.778-4.49v3.314l-7.778 4.49v-3.314Zm8.18-4.723 7.778-4.49v3.315l-7.778 4.49v-3.315Zm8.179-4.723 7.778-4.49v3.315l-7.778 4.49v-3.315Zm0-.462v-3.315l7.778-4.49v3.315l-7.778 4.49Zm8.163-8.038 7.778-4.489v3.314l-7.778 4.49v-3.315Zm0-.466v-3.314l7.778-4.49v3.314l-7.778 4.49Zm0-3.777V63.94l7.778-4.502v3.314l-7.778 4.502Zm0-3.78v-3.315l7.778-4.49v3.336l-7.778 4.468Zm0-3.777v-3.314l7.778-4.49v3.314l-7.778 4.49Zm0-3.781V52.6l7.778-4.49v3.314l-7.778 4.49Zm0-3.777v-3.314l7.778-4.49v3.315l-7.778 4.49Zm0-3.78v-3.315l7.778-4.49v3.328l-7.778 4.476Zm0-3.777v-3.293l7.778-4.49v3.315l-7.778 4.468Zm0-3.781v-3.314l7.778-4.49v3.314l-7.778 4.49Zm-.402.233-7.778 4.49v-3.314l7.778-4.49v3.314Zm-8.18 4.723-7.778 4.49V46.93l7.778-4.49v3.315Zm-8.179 4.723-7.778 4.49v-3.31l7.778-4.49v3.31Zm-8.163 4.723-7.778 4.49v-3.315l7.778-4.49v3.315Zm-8.18 4.723-7.777 4.49V61.1l7.777-4.49v3.315Zm-8.18 4.718-7.777 4.494v-3.314l7.778-4.49v3.31Zm-8.179 4.732-7.778 4.49v-3.31l7.778-4.494v3.314Zm0 .467v3.314l-7.778 4.49V74.33l7.778-4.49Zm-8.18 8.037-7.778 4.49v-3.315l7.778-4.49v3.315Zm0 .462v3.314l-7.778 4.49V82.83l7.778-4.49Zm0 3.78v3.315l-7.778 4.49v-3.314l7.778-4.49Zm0 3.778v3.314l-7.778 4.49v-3.315l7.778-4.49Zm0 3.78v3.315l-7.778 4.468v-3.315l7.778-4.468Zm0 3.777v3.314l-7.778 4.49v-3.323l7.778-4.481Zm0 3.78v3.315l-7.778 4.49v-3.315l7.778-4.49Zm0 3.777v3.315l-7.778 4.489v-3.314l7.778-4.49Zm0 3.781v3.315l-7.778 4.476v-3.314l7.778-4.477Zm0 3.777v3.314l-7.778 4.49v-3.314l7.778-4.49Zm.402-.229 7.778-4.494v3.314l-7.778 4.49v-3.31Zm7.778-.713v3.314l-7.778 4.49v-3.323l7.778-4.481Zm.402-.233 7.778-4.49v3.314l-7.778 4.49v-3.314Zm8.18-4.749 7.777-4.49v3.315l-7.777 4.489v-3.314Zm8.18-4.723 7.777-4.49v3.315l-7.778 4.489v-3.314Zm8.179-4.719 7.778-4.493v3.314l-7.778 4.49v-3.31Zm8.18-4.722 7.778-4.49v3.314l-7.778 4.49v-3.314Zm8.179-4.723 7.778-4.49v3.314l-7.778 4.49V83.76Zm8.163-4.706 7.778-4.494v3.314l-7.778 4.49v-3.31Zm0-.467v-3.314l7.778-4.49v3.315l-7.778 4.49Zm8.21-8.032 7.778-4.494v3.314l-7.778 4.49v-3.31Zm0-.467v-3.306l7.778-4.49v3.315l-7.778 4.48Zm0-3.781v-3.31l7.778-4.494v3.314l-7.778 4.49Zm0-3.777v-3.314l7.778-4.49v3.315l-7.778 4.49Zm0-3.78v-3.31l7.778-4.494v3.305l-7.778 4.498Zm0-3.777v-3.314l7.778-4.49v3.314l-7.778 4.49Zm0-3.781v-3.31l7.778-4.494v3.315l-7.778 4.489Zm0-3.777v-3.314l7.778-4.49v3.315l-7.778 4.49Zm0-3.78v-3.31l7.778-4.494v3.297l-7.778 4.507Zm0-3.777v-3.323l7.778-4.49v3.315l-7.778 4.498Zm0-3.78v-3.31l7.778-4.495v3.314l-7.778 4.49Zm0-3.778v-3.314l7.778-4.49v3.315l-7.778 4.49Zm-.406.234-7.778 4.49v-3.315l7.778-4.49v3.315Zm-8.176 4.723-7.778 4.49v-3.315l7.778-4.49v3.315Zm-8.179 4.718-7.778 4.494v-3.314l7.778-4.49v3.31Zm-8.18 4.723-7.778 4.49v-3.31l7.778-4.49v3.31Zm-8.18 4.723-7.778 4.49V52.6l7.778-4.49v3.31Zm-8.18 4.723-7.778 4.49v-3.31l7.778-4.49v3.31Zm-8.18 4.723-7.777 4.49v-3.328l7.778-4.49v3.328Zm-8.179 4.723-7.778 4.49v-3.298l7.778-4.494v3.302Zm-8.193 4.723-7.778 4.49v-3.315l7.778-4.49v3.315Zm0 .462v3.314l-7.778 4.49v-3.314l7.778-4.49ZM55.858 83.768l7.778-4.49v3.315l-7.778 4.49v-3.315Zm0 3.777 7.778-4.49v3.314l-7.778 4.49v-3.314Zm0 3.78 7.778-4.489v3.314l-7.778 4.49v-3.314Zm0 3.777 7.778-4.49v3.315l-7.778 4.49v-3.315Zm0 3.781 7.778-4.49v3.315l-7.778 4.489v-3.314Zm0 3.777 7.778-4.49v3.314l-7.778 4.49v-3.314Zm0 3.781 7.778-4.49v3.314l-7.778 4.49v-3.314Zm0 3.776 7.778-4.489v3.314l-7.778 4.49v-3.315Zm0 3.781 7.778-4.489v3.314l-7.778 4.489v-3.314Zm0 3.777 7.778-4.49v3.314l-7.778 4.49v-3.314Zm0 3.781 7.778-4.49v3.297l-7.778 4.49v-3.297Zm8.175-4.723 7.778-4.49v3.314l-7.778 4.49v-3.314Zm7.778-.713v3.301l-7.778 4.494v-3.306l7.778-4.489Zm.402-.234 7.778-4.489v3.305l-7.778 4.49v-3.306Zm8.18-4.718 7.778-4.49v3.315l-7.778 4.489v-3.314Zm8.18-4.723 7.777-4.49v3.284l-7.777 4.49v-3.284Zm8.18-4.723 7.777-4.49v3.302l-7.778 4.489v-3.301Zm8.179-4.723 7.778-4.49v3.302l-7.778 4.49v-3.302Zm8.18-4.723 7.778-4.49v3.302l-7.778 4.49v-3.302Zm8.179-4.722 7.778-4.49v3.301l-7.778 4.49v-3.302Zm8.163-4.723 7.778-4.49v3.301l-7.778 4.49V82.83Zm8.21-4.719 7.778-4.494v3.301l-7.778 4.49v-3.297Zm0-.467v-3.314l7.778-4.49v3.315l-7.778 4.49Zm15.953-12.989-7.778 4.49v-3.314l7.778-4.49v3.314Zm0-3.78-7.778 4.489v-3.314l7.778-4.486v3.31Zm0-3.777-7.786 4.498v-3.314l7.777-4.49.009 3.306Zm0-3.781-7.778 4.49v-3.315l7.778-4.49v3.315Zm0-3.777-7.778 4.49v-3.314l7.778-4.49v3.314Zm0-3.78-7.778 4.489v-3.314l7.778-4.49v3.315Zm0-3.777-7.786 4.49v-3.315l7.777-4.49.009 3.315Zm0-3.781-7.778 4.49v-3.315l7.778-4.49v3.315Zm0-3.777-7.778 4.49v-3.314l7.778-4.49v3.314Zm0-3.78-7.778 4.49V31.82l7.778-4.49v3.314Zm0-3.777-7.786 4.48v-3.313l7.777-4.49.009 3.323Zm0-3.781-7.778 4.49v-3.31l7.778-4.49v3.31ZM63.632 71.721v3.314l-7.778 4.486v-3.31l7.778-4.49Zm-7.778 53.611 7.778-4.489v3.301l-7.778 4.49v-3.302ZM145.83 76.69v-3.3l7.777-4.49v3.3l-7.777 4.49Z" fill="#E0E0E0"/><path d="m121.074 42.092 32.732-18.887v18.896L121.074 60.98V42.091Z" fill="#FAFAFA" stroke="#E0E0E0" stroke-miterlimit="10"/><path d="m122.73 56.265 4.425-12.081 4.892 2.925 4.917-5.008 4.904 3.232 4.905-12.077 4.904 2.515" stroke="#455A64" stroke-width=".75" stroke-linecap="round" stroke-linejoin="round"/><path d="M127.149 43.613a1.092 1.092 0 0 0-.493.865c0 .315.221.432.493.285a1.092 1.092 0 0 0 .492-.864c0-.316-.22-.45-.492-.286ZM132.047 46.535a1.096 1.096 0 0 0-.492.864c0 .315.22.432.492.285a1.11 1.11 0 0 0 .493-.864c.008-.311-.212-.44-.493-.285ZM136.961 41.527a1.106 1.106 0 0 0-.492.864c0 .316.22.432.492.285a1.095 1.095 0 0 0 .493-.864c0-.311-.22-.44-.493-.285ZM141.864 44.745a1.092 1.092 0 0 0-.493.865c0 .315.22.432.493.285a1.08 1.08 0 0 0 .35-.373c.086-.15.135-.319.142-.491 0-.286-.22-.428-.492-.286ZM146.77 32.685a1.092 1.092 0 0 0-.493.865c0 .315.221.432.493.285a1.091 1.091 0 0 0 .493-.864c0-.325-.221-.446-.493-.286ZM151.672 35.2a1.08 1.08 0 0 0-.35.372c-.086.15-.135.319-.142.492 0 .315.22.432.492.285a1.09 1.09 0 0 0 .493-.864c0-.316-.22-.445-.493-.286Z" fill="#FDC723"/><path d="m167.421 92.795-8.702 5.025 8.702 5.026 8.707-5.026-8.707-5.025Z" fill="#455A64"/><path d="M176.129 97.807v19.989l-8.703 5.025-.004-19.976 8.707-5.038Z" fill="#37474F"/><path d="m167.421 102.845.005 19.976-8.707-5.025v-19.99l8.702 5.039Z" fill="#263238"/><path d="m155.972 108.07-8.702 5.026 8.702 5.025 8.707-5.021-8.707-5.03Z" fill="#FDC723"/><path opacity=".3" d="m155.972 108.07-8.702 5.026 8.702 5.025 8.707-5.021-8.707-5.03Z" fill="#fff"/><path d="M164.68 113.086v11.321l-8.703 5.025-.004-11.308 8.707-5.038ZM155.972 118.124l.004 11.308-8.706-5.029v-11.317l8.702 5.038Z" fill="#FDC723"/><path opacity=".1" d="m155.972 118.124.004 11.308-8.706-5.029v-11.317l8.702 5.038Z" fill="#000"/><path d="m144.519 109.984-8.703 5.021 8.703 5.03 8.707-5.025-8.707-5.026Z" fill="#FDC723"/><path opacity=".88" d="m144.519 109.984-8.703 5.021 8.703 5.03 8.707-5.025-8.707-5.026Z" fill="#fff"/><path d="M153.226 114.996v16.022l-8.702 5.021-.004-16.005 8.706-5.038Z" fill="#FDC723"/><path opacity=".75" d="M153.226 114.996v16.022l-8.702 5.021-.004-16.005 8.706-5.038Z" fill="#fff"/><path d="m144.519 120.034.004 16.005-8.707-5.025v-16.018l8.703 5.038Z" fill="#FDC723"/><path opacity=".6" d="m144.519 120.034.004 16.005-8.707-5.025v-16.018l8.703 5.038Z" fill="#fff"/><path d="m133.07 126.953-8.703 5.025 8.703 5.026 8.707-5.026-8.707-5.025Z" fill="#FDC723"/><path opacity=".3" d="m133.07 126.953-8.703 5.025 8.703 5.026 8.707-5.026-8.707-5.025Z" fill="#000"/><path d="M141.777 131.969v5.656l-8.702 5.025-.005-5.647 8.707-5.034Z" fill="#FDC723"/><path opacity=".4" d="M141.777 131.969v5.656l-8.702 5.025-.005-5.647 8.707-5.034Z" fill="#000"/><path d="m133.07 137.003.004 5.647-8.707-5.025v-5.656l8.703 5.034Z" fill="#FDC723"/><path opacity=".55" d="m133.07 137.003.004 5.647-8.707-5.025v-5.656l8.703 5.034Z" fill="#000"/><path d="M85.66 162.104v3.297l-3.254-8.845v-3.288l3.254 8.836Z" fill="#263238"/><path d="M85.664 162.109v3.292l13.421-4.653v-3.293l-13.42 4.654Z" fill="#37474F"/><path d="m82.406 153.264 3.258 8.845 13.421-4.658c-3.685-3.215-10.093-4.822-16.679-4.187Z" fill="#455A64"/><path d="m84.326 166.262-1.97 9.377c-8.137-.795-14.018-4.909-13.95-9.614v-3.207c0 4.667 5.864 8.742 13.953 9.528l1.366-6.442.6.358Z" fill="#FDC723"/><path opacity=".4" d="m84.326 166.262-1.97 9.377c-8.137-.795-14.018-4.909-13.95-9.614v-3.207c0 4.667 5.864 8.742 13.953 9.528l1.366-6.442.6.358Z" fill="#000"/><path d="M83.86 172.453v3.292a25.988 25.988 0 0 0 9.903-1.369c3.837-1.331 6.547-3.457 7.631-5.951a5.945 5.945 0 0 0 .501-2.298v-3.405s-.929-.074-2.017-1.232l-2.515.864-11.507 3.993-1.997 6.106Z" fill="#FDC723"/><path opacity=".6" d="M83.86 172.453v3.292a25.988 25.988 0 0 0 9.903-1.369c3.837-1.331 6.547-3.457 7.631-5.951a5.945 5.945 0 0 0 .501-2.298v-3.405s-.929-.074-2.017-1.232l-2.515.864-11.507 3.993-1.997 6.106Z" fill="#fff"/><path d="m73.844 158.955 10.003 5.773v-3.293l-10.003-5.773v3.293Z" fill="#FDC723"/><path opacity=".1" d="m73.844 158.955 10.003 5.773v-3.293l-10.003-5.773v3.293Z" fill="#000"/><path d="M68.528 161.63c-1.093 5.146 5.06 9.86 13.827 10.716l1.992-9.377-11.571-6.68c-2.437 1.517-3.816 3.267-4.248 5.341Z" fill="#FDC723"/><path opacity=".3" d="M68.528 161.63c-1.093 5.146 5.06 9.86 13.827 10.716l1.992-9.377-11.571-6.68c-2.437 1.517-3.816 3.267-4.248 5.341Z" fill="#000"/><path d="m83.916 172.18-.057.273a25.983 25.983 0 0 0 9.904-1.353c3.837-1.331 6.547-3.457 7.631-5.95 1.02-2.364.48-4.809-1.517-6.914l-2.514.865-11.507 3.992-1.94 9.087Z" fill="#FDC723"/><path opacity=".75" d="m83.916 172.18-.057.273a25.983 25.983 0 0 0 9.904-1.353c3.837-1.331 6.547-3.457 7.631-5.95 1.02-2.364.48-4.809-1.517-6.914l-2.514.865-11.507 3.992-1.94 9.087Z" fill="#fff"/><path d="m73.844 155.662 9.999 5.772-2.939-7.985a20.488 20.488 0 0 0-7.06 2.213ZM84.324 166.265v-3.292l-1.992 9.376v3.293l1.992-9.377Z" fill="#FDC723"/><path opacity=".55" d="M84.324 166.265v-3.292l-1.992 9.376v3.293l1.992-9.377Z" fill="#000"/><path d="m97.085 148.328-2.183 1.258 2.183 1.257 2.177-1.257-2.177-1.258Z" fill="#FDC723"/><path opacity=".3" d="m97.085 148.328-2.183 1.258 2.183 1.257 2.177-1.257-2.177-1.258Z" fill="#000"/><path d="M99.264 149.582v1.262l-2.178 1.257v-1.257l2.178-1.262Z" fill="#FDC723"/><path opacity=".4" d="M99.264 149.582v1.262l-2.178 1.257v-1.257l2.178-1.262Z" fill="#000"/><path d="M97.084 150.844v1.257l-2.182-1.257v-1.262l2.182 1.262Z" fill="#FDC723"/><path opacity=".55" d="M97.084 150.844v1.257l-2.182-1.257v-1.262l2.182 1.262Z" fill="#000"/><path d="m100.406 147.348 8.072-4.658a1.867 1.867 0 0 1 1.689-.03c.432.259.432.696-.056.976l-8.072 4.659a1.878 1.878 0 0 1-1.689.03c-.45-.259-.428-.696.056-.977Z" fill="#E0E0E0"/><path d="m101.99 151.16-2.177 1.258 2.177 1.257 2.178-1.257-2.178-1.258Z" fill="#FDC723"/><path opacity=".88" d="m101.99 151.16-2.177 1.258 2.177 1.257 2.178-1.257-2.178-1.258Z" fill="#fff"/><path d="M104.166 152.416v1.262l-2.178 1.257v-1.262l2.178-1.257Z" fill="#FDC723"/><path opacity=".75" d="M104.166 152.416v1.262l-2.178 1.257v-1.262l2.178-1.257Z" fill="#fff"/><path d="M101.99 153.673v1.262l-2.177-1.257v-1.262l2.177 1.257Z" fill="#FDC723"/><path opacity=".6" d="M101.99 153.673v1.262l-2.177-1.257v-1.262l2.177 1.257Z" fill="#fff"/><path d="m105.318 150.179 8.068-4.658a1.857 1.857 0 0 1 1.689-.035c.432.264.432.7-.052.977l-8.071 4.666a1.873 1.873 0 0 1-1.69.031c-.436-.264-.436-.7.056-.981Z" fill="#E0E0E0"/><path d="m106.897 153.994-2.178 1.258 2.178 1.257 2.177-1.257-2.177-1.258Z" fill="#FDC723"/><path opacity=".3" d="m106.897 153.994-2.178 1.258 2.178 1.257 2.177-1.257-2.177-1.258Z" fill="#fff"/><path d="M109.076 155.252v1.262l-2.178 1.257v-1.262l2.178-1.257ZM106.897 156.509v1.262l-2.178-1.257v-1.262l2.178 1.257Z" fill="#FDC723"/><path opacity=".1" d="M106.897 156.509v1.262l-2.178-1.257v-1.262l2.178 1.257Z" fill="#000"/><path d="m110.22 153.017 8.072-4.662a1.873 1.873 0 0 1 1.689-.031c.454.264.433.7-.051.977l-8.072 4.658a1.87 1.87 0 0 1-1.69.035c-.453-.264-.427-.7.052-.977Z" fill="#E0E0E0"/><path d="m111.807 156.828-2.178 1.258 2.178 1.257 2.178-1.257-2.178-1.258Z" fill="#455A64"/><path d="M113.982 158.082v1.262l-2.177 1.257v-1.257l2.177-1.262Z" fill="#37474F"/><path d="M111.807 159.344v1.257l-2.178-1.257v-1.262l2.178 1.262Z" fill="#263238"/><path d="m115.13 155.853 8.072-4.662a1.873 1.873 0 0 1 1.69-.031c.453.26.432.696-.057.977l-8.067 4.658a1.87 1.87 0 0 1-1.689.03c-.454-.259-.428-.695.051-.972Z" fill="#E0E0E0"/></g><defs><clipPath id="a"><path fill="#fff" d="M0 0h207.967v190H0z"/></clipPath></defs></svg>