<svg width="201" height="203" fill="none" xmlns="http://www.w3.org/2000/svg"><path d="M29.292 185.56c-39.05-22.548-39.05-59.103 0-81.65 39.052-22.547 102.368-22.547 141.423 0 39.056 22.547 39.052 59.102 0 81.65-39.051 22.547-102.371 22.547-141.423 0Z" fill="#F0F0F0"/><path d="m135.068 106.013-20.326-11.752a4.133 4.133 0 0 0-3.74 0L7.739 153.82c-1.032.595-1.032 1.562 0 2.158l20.33 11.751a4.133 4.133 0 0 0 3.74 0l38.694-22.325 5.951 3.453c3.149 1.817 8.254 1.817 11.407 0l17.729-10.155c3.153-1.817 3.153-4.748 0-6.582l-5.947-3.452 35.416-20.518c1.036-.574 1.036-1.532.009-2.136Z" fill="#E0E0E0"/><path d="m87.85 147.184 15.28-8.83c1.572-.906 2.358-2.097 2.358-3.288v-2.123L91.11 124.79a3.367 3.367 0 0 1-1.52-2.633v-18.846l-26.653 15.411v18.821a3.35 3.35 0 0 0 1.525 2.633l11.981 7.008c3.149 1.796 8.258 1.796 11.407 0Z" fill="#37474F"/><path d="M69.323 140.874v2.115l-4.889-2.814a3.36 3.36 0 0 1-1.52-2.633v-18.821l5.084-2.93c.103 1.295.22 2.624.323 3.923l-3.563 2.059v14.708a3.333 3.333 0 0 0 1.52 2.632l3.045 1.761Z" fill="#263238"/><path d="M64.758 136.485a3.365 3.365 0 0 0 1.52 2.632l10.167 5.909c3.149 1.817 8.254 1.817 11.407 0l15.284-8.826c3.149-1.817 3.149-4.747 0-6.577l-10.17-5.917a3.354 3.354 0 0 1-1.525-2.633v-14.708l-26.683 15.412v14.708Z" fill="#455A64"/><path opacity=".15" d="m96.062 125.497-3.097-1.787a3.351 3.351 0 0 1-1.524-2.632v-14.713l-26.683 15.412v14.708a3.365 3.365 0 0 0 1.52 2.632l3.045 1.753 26.739-15.373Z" fill="#000"/><path d="M105.495 132.941v2.124c0 1.195-.79 2.378-2.362 3.293l-15.28 8.821a11.437 11.437 0 0 1-5.443 1.351v-2.115a11.437 11.437 0 0 0 5.442-1.351l15.281-8.83c1.572-.928 2.362-2.119 2.362-3.293Z" fill="#37474F"/><path d="M21.909 156.791a4.097 4.097 0 0 0 3.684-.069l103.224-59.557a4.184 4.184 0 0 0 1.9-3.289V3.63a4.062 4.062 0 0 0-1.783-3.22 4.08 4.08 0 0 0-3.685.066L22.025 60.032a4.2 4.2 0 0 0-1.9 3.289v90.246a4.075 4.075 0 0 0 1.784 3.224Z" fill="#455A64"/><path d="m25.594 156.717 103.224-59.536a4.186 4.186 0 0 0 1.9-3.289V3.63c0-1.213-.863-1.705-1.9-1.096L25.616 62.09a4.2 4.2 0 0 0-1.9 3.288v90.243c-.022 1.213.828 1.705 1.878 1.096Z" fill="#37474F"/><path d="M27.262 143.697V66.54a2.515 2.515 0 0 1 1.127-1.972l97.609-56.3c.627-.362 1.141-.068 1.141.657v77.161a2.523 2.523 0 0 1-1.141 1.972l-97.609 56.299c-.618.363-1.127.069-1.127-.66Z" fill="#FDAF00"/><path opacity=".7" d="M27.262 143.697V66.54a2.515 2.515 0 0 1 1.127-1.972l97.609-56.3c.627-.362 1.141-.068 1.141.657v77.161a2.523 2.523 0 0 1-1.141 1.972l-97.609 56.299c-.618.363-1.127.069-1.127-.66Z" fill="#fff"/><path d="M76.996 123.296c-.2.002-.396-.048-.57-.147a1.46 1.46 0 0 1-.63-1.342 4.112 4.112 0 0 1 1.891-3.272 1.302 1.302 0 0 1 1.478-.128 1.294 1.294 0 0 1 .63 1.341 4.117 4.117 0 0 1-1.892 3.276 1.842 1.842 0 0 1-.907.272Zm1.594-4.597a1.42 1.42 0 0 0-.687.216 3.714 3.714 0 0 0-1.676 2.9.863.863 0 0 0 1.46.842 3.704 3.704 0 0 0 1.676-2.9 1.054 1.054 0 0 0-.432-.967.704.704 0 0 0-.341-.091Z" fill="#FDAF00"/><path d="M145.082 22.787 44.574 80.722v74.002a1.296 1.296 0 0 0 1.922 1.113l1.793-1.031 94.918-54.689a4.145 4.145 0 0 0 1.875-3.246V22.787Z" fill="#F0F0F0"/><path d="M144.65 23.534V96.87a3.732 3.732 0 0 1-1.659 2.87l-94.918 54.69-1.793 1.031a.86.86 0 0 1-1.217-.405.83.83 0 0 1-.066-.333v-73.77l99.644-57.399.009-.021Zm.423-.725L44.574 80.722v74.002a1.296 1.296 0 0 0 1.296 1.295c.225.001.446-.059.64-.173l1.791-1.031 94.906-54.698a4.145 4.145 0 0 0 1.875-3.246V22.787l-.009.022Z" fill="#E0E0E0"/><path opacity=".8" d="M142.695 21.41 42.184 79.323l2.388 1.381 100.507-57.917-2.384-1.377Z" fill="#455A64"/><path d="M45.247 155.854a1.295 1.295 0 0 1-.674-1.131V80.721l-2.392-1.381v73.596a1.93 1.93 0 0 0 0 .272 1.982 1.982 0 0 0 .976 1.45l1.974 1.144.099.052h.017Z" fill="#EBEBEB"/><path d="M42.18 79.359v-4.994a2.074 2.074 0 0 1 .933-1.623l98.65-56.83a2.062 2.062 0 0 1 1.866 0l.514.298a2.07 2.07 0 0 1 .937 1.619v4.997L44.572 80.722 42.18 79.36Z" fill="#FDAF00"/><path opacity=".3" d="M42.18 79.359v-4.994a2.074 2.074 0 0 1 .933-1.623l98.65-56.83a2.062 2.062 0 0 1 1.866 0l.514.298a2.07 2.07 0 0 1 .937 1.619v4.997L44.572 80.722 42.18 79.36Z" fill="#000"/><path d="M44.574 75.742a2.072 2.072 0 0 1 .933-1.623l98.642-56.838c.514-.302.933-.06.933.535v5.01L44.574 80.722v-4.98Z" fill="#FDAF00"/><path opacity=".4" d="M44.574 75.742a2.072 2.072 0 0 1 .933-1.623l98.642-56.838c.514-.302.933-.06.933.535v5.01L44.574 80.722v-4.98Z" fill="#000"/><path d="M44.844 74.818c-.167.28-.26.598-.272.924v4.98l-2.388-1.377v-4.984a1.91 1.91 0 0 1 .272-.92l2.388 1.377Z" fill="#FDAF00"/><path opacity=".5" d="M44.844 74.818c-.167.28-.26.598-.272.924v4.98l-2.388-1.377v-4.984a1.91 1.91 0 0 1 .272-.92l2.388 1.377Z" fill="#000"/><path d="M140.691 22.602c0 .557.393.785.864.505a1.937 1.937 0 0 0 .864-1.52c0-.556-.393-.785-.864-.504a1.937 1.937 0 0 0-.864 1.519ZM137.188 24.618c0 .556.393.785.863.505a1.937 1.937 0 0 0 .864-1.52c0-.556-.393-.785-.864-.505a1.937 1.937 0 0 0-.863 1.52ZM133.676 26.65c0 .558.393.786.864.506a1.937 1.937 0 0 0 .863-1.52c0-.556-.393-.785-.863-.504a1.928 1.928 0 0 0-.864 1.519ZM54.574 89.723v74.002A1.293 1.293 0 0 0 55.856 165a1.3 1.3 0 0 0 .64-.161l1.793-1.032 21.962-12.658V74.941L54.574 89.723ZM82.004 74.194v71.861l70.97-40.943V33.25l-70.97 40.944Z" fill="#FAFAFA"/><path d="m74.372 81.624-16.382 9.46a1.21 1.21 0 0 0-.549.95v1.704c0 .35.247.488.549.316l16.382-9.46a1.21 1.21 0 0 0 .548-.95v-1.7c0-.35-.246-.493-.548-.32Z" fill="#FDAF00"/><path opacity=".8" d="m74.372 81.624-16.382 9.46a1.21 1.21 0 0 0-.549.95v1.704c0 .35.247.488.549.316l16.382-9.46a1.21 1.21 0 0 0 .548-.95v-1.7c0-.35-.246-.493-.548-.32Z" fill="#FAFAFA"/><path d="m78.016 82.302-.48-.466c.098-.245.149-.505.152-.768a.905.905 0 0 0-.358-.829.558.558 0 0 0-.588.026 1.92 1.92 0 0 0-.76 1.567.906.906 0 0 0 .363.828.48.48 0 0 0 .255.07.661.661 0 0 0 .332-.096 1.35 1.35 0 0 0 .432-.431l.397.38a.167.167 0 0 0 .13.056.194.194 0 0 0 .138-.06.185.185 0 0 0-.013-.277Zm-1.274 0a.208.208 0 0 1-.207.026c-.082-.047-.173-.207-.173-.5a1.562 1.562 0 0 1 .57-1.24.255.255 0 0 1 .134-.042.143.143 0 0 1 .073 0c.078.047.169.203.169.5a1.584 1.584 0 0 1-.566 1.26v-.004ZM57.843 99.056l-.367.211s-.038 0-.038-.03v-.993a.099.099 0 0 1 .038-.078l.367-.21s.04 0 .04.03v.992a.1.1 0 0 1-.04.078ZM58.39 98.736l-.367.212c-.021 0-.039 0-.039-.03v-.993a.089.089 0 0 1 .04-.074l.366-.203c.022 0 .04 0 .04.026v.997a.095.095 0 0 1-.04.065ZM58.945 98.416l-.367.216c-.022 0-.039 0-.039-.03v-.997a.095.095 0 0 1 .039-.073l.367-.212c.022 0 .039 0 .039.03v.993a.082.082 0 0 1-.039.073ZM57.843 100.337l-.367.211s-.038 0-.038-.03v-.993a.098.098 0 0 1 .038-.077l.367-.212s.04 0 .04.03v.993c0 .015-.004.03-.011.043a.097.097 0 0 1-.029.035ZM58.39 100.018l-.367.211c-.021 0-.039 0-.039-.03v-.992a.09.09 0 0 1 .04-.074l.366-.19c.022 0 .04 0 .04.026v.997a.094.094 0 0 1-.04.052ZM58.945 99.698l-.367.216c-.022 0-.039 0-.039-.03v-.998a.096.096 0 0 1 .039-.073l.367-.211c.022 0 .039 0 .039.03v.992a.082.082 0 0 1-.039.074ZM57.9 103.721l-.431-.272v-.082l.432-.798c0-.039.056-.035.056 0v1.074c.004.048-.035.091-.056.078Z" fill="#455A64"/><path d="m57.708 103.112.596-.341v.281l-.596.345c-.048.03-.09 0-.09-.09a.252.252 0 0 1 .09-.195ZM58.418 102.702l.203-.116v.285l-.203.116v-.285ZM59.17 102.395v1.041a.23.23 0 0 1-.094.194c-.048.03-.091 0-.091-.087v-.897l-.25.142v-.28l.34-.199c.052-.013.096.026.096.086ZM58.078 106.055a1.954 1.954 0 0 0-.626 1.683c.073.539.393.518.431.768 0 .03.022.039.04.03l.401-.229a.095.095 0 0 0 .03-.032.1.1 0 0 0 .013-.041c.043-.332.454-.734.454-1.541.004-.617-.337-.919-.743-.638ZM58.319 108.956l-.389.225c-.026 0-.047 0-.047-.039v-.354a.124.124 0 0 1 .047-.095l.389-.224c.026 0 .047 0 .047.039v.362a.119.119 0 0 1-.014.049.124.124 0 0 1-.033.037ZM58.172 97.65a2.356 2.356 0 0 0-.704 1.493c-.039.274-.005.554.1.81l-.13.683c0 .056 0 .082.051.047l.393-.431a.619.619 0 0 0 .57-.164c.408-.397.658-.927.705-1.493.099-.946-.402-1.416-.985-.946Zm.138 2.226c-.358.207-.652-.073-.652-.63a1.725 1.725 0 0 1 .652-1.38c.363-.208.656.073.656.63a1.725 1.725 0 0 1-.656 1.389v-.009ZM58.172 110.755a2.339 2.339 0 0 0-.704 1.489c-.04.275-.005.557.1.815l-.13.678c0 .056 0 .086.051.052l.393-.432a.611.611 0 0 0 .57-.164c.407-.397.657-.927.705-1.493.099-.945-.402-1.424-.985-.945Zm.138 2.227c-.358.207-.652-.074-.652-.631a1.723 1.723 0 0 1 .652-1.381c.363-.207.656.074.656.63a1.727 1.727 0 0 1-.656 1.382ZM58.722 115.555a.902.902 0 0 1-.345.73c-.19.112-.346-.039-.346-.333a.914.914 0 0 1 .346-.729c.19-.108.345.039.345.332ZM59.314 115.658a.61.61 0 0 1-.23.488c-.129.073-.232-.026-.232-.22a.6.6 0 0 1 .233-.488c.125-.073.229.026.229.22ZM58.786 117.648l-.825.466v-1.045a.719.719 0 0 1 .298-.565l.224-.129c.16-.091.294 0 .294.224l.009 1.049ZM59.123 116.265l-.225.13v1.187l.432-.246v-.924c-.008-.147-.099-.207-.207-.147ZM57.441 116.742c0 .195.104.294.23.22a.597.597 0 0 0 .228-.483c0-.198-.103-.298-.229-.224a.612.612 0 0 0-.229.487ZM57.633 117.122l.22-.13v1.191l-.431.242v-.924a.468.468 0 0 1 .212-.379Z" fill="#455A64"/><path d="m61.416 96.724 9.597-5.55c.259-.151.466-.043.466.237a1 1 0 0 1-.466.777l-9.597 5.55c-.26.147-.467.043-.467-.237a1 1 0 0 1 .467-.777ZM61.416 101.236l9.592-5.533c.26-.147.467-.043.467.238a1 1 0 0 1-.467.776l-9.592 5.533c-.26.147-.467.043-.467-.237a1 1 0 0 1 .467-.777ZM61.416 105.748l9.597-5.512c.259-.151.466-.043.466.234a.994.994 0 0 1-.466.776l-9.597 5.512c-.26.151-.467.043-.467-.238a.993.993 0 0 1 .467-.772ZM61.416 110.259l9.592-5.532c.26-.151.467-.044.467.237a.99.99 0 0 1-.467.772l-9.592 5.538c-.26.146-.467.043-.467-.238a.996.996 0 0 1 .467-.777ZM61.416 114.769l9.592-5.533c.26-.146.467-.043.467.238a1 1 0 0 1-.467.777l-9.592 5.524c-.26.146-.467.043-.467-.238a1 1 0 0 1 .467-.768Z" fill="#E0E0E0"/><path d="m63.173 118.455 9.593-5.533c.26-.151.466-.043.466.233a1.002 1.002 0 0 1-.466.777l-9.593 5.533c-.259.151-.466.043-.466-.233a1 1 0 0 1 .466-.777Z" fill="#455A64"/><path d="m63.173 121.502 9.593-5.533c.26-.151.466-.043.466.237a.987.987 0 0 1-.466.773l-9.593 5.532c-.259.151-.466.044-.466-.233a.996.996 0 0 1 .466-.776ZM63.173 124.548l9.593-5.532c.26-.151.466-.043.466.237a.99.99 0 0 1-.466.773l-9.593 5.537c-.259.146-.466.043-.466-.238a1.001 1.001 0 0 1 .466-.777ZM65.037 126.486l9.592-5.533c.26-.151.467-.043.467.233a.998.998 0 0 1-.467.777l-9.592 5.533c-.255.151-.467.043-.467-.233a1.006 1.006 0 0 1 .467-.777Z" fill="#E0E0E0"/><path d="m62.798 129.106.782-1.372c.03-.052.03-.121 0-.138l-.782-.475c-.035-.021-.091.048-.091.121v1.847c.004.065.056.086.09.017Z" fill="#455A64"/><path d="m65.037 129.52 9.592-5.545c.26-.147.467-.043.467.237a1 1 0 0 1-.467.777l-9.592 5.546c-.255.151-.467.043-.467-.238a1.017 1.017 0 0 1 .467-.777Z" fill="#E0E0E0"/><path d="m62.798 132.146.782-1.373c.03-.051.03-.121 0-.142l-.782-.475c-.035-.021-.091.052-.091.125v1.847c.004.074.056.082.09.018Z" fill="#455A64"/><path d="m65.037 132.558 9.592-5.533c.26-.151.467-.043.467.238a1 1 0 0 1-.467.777l-9.592 5.532c-.255.147-.467.044-.467-.237a1.013 1.013 0 0 1 .467-.777Z" fill="#E0E0E0"/><path d="m62.798 135.196.782-1.376c.03-.052.03-.121 0-.138l-.782-.475c-.035-.022-.091.052-.091.125v1.847c.004.061.056.069.09.017Z" fill="#455A64"/><path d="m65.037 135.597 9.592-5.532c.26-.151.467-.044.467.233a.994.994 0 0 1-.467.777l-9.592 5.532c-.255.151-.467.043-.467-.233a1.006 1.006 0 0 1 .467-.777Z" fill="#E0E0E0"/><path d="m62.798 138.217.782-1.372c.03-.052.03-.121 0-.138l-.782-.475c-.035-.026-.091.047-.091.121v1.864c.004.056.056.069.09 0Z" fill="#455A64"/><path d="m65.037 138.648 9.592-5.533c.26-.146.467-.043.467.238a1 1 0 0 1-.467.777l-9.592 5.532c-.255.147-.467.043-.467-.237a1.009 1.009 0 0 1 .467-.777Z" fill="#E0E0E0"/><path d="m62.798 141.238.782-1.373c.03-.052.03-.121 0-.142l-.782-.475c-.035-.022-.091.052-.091.125v1.865c.004.073.056.082.09 0Z" fill="#455A64"/><path d="m65.037 141.67 9.592-5.533c.26-.151.467-.043.467.237a.987.987 0 0 1-.467.773l-9.592 5.537c-.255.146-.467.043-.467-.238a1.017 1.017 0 0 1 .467-.776Z" fill="#E0E0E0"/><path d="m62.798 144.294.782-1.377c.03-.051.03-.12 0-.138l-.782-.474c-.035-.022-.091.051-.091.125v1.83c.004.09.056.099.09.034Z" fill="#455A64"/><path d="m65.037 144.691 9.592-5.533c.26-.151.467-.043.467.233a.994.994 0 0 1-.467.777l-9.592 5.533c-.255.151-.467.043-.467-.237a1.008 1.008 0 0 1 .467-.773Z" fill="#E0E0E0"/><path d="m62.798 147.326.782-1.372c.03-.052.03-.121 0-.138l-.782-.475c-.035-.026-.091.048-.091.121v1.847c.004.074.056.087.09.017Z" fill="#455A64"/><path d="m65.037 147.742 9.592-5.533c.26-.147.467-.043.467.237a1.004 1.004 0 0 1-.467.777l-9.592 5.533c-.255.147-.467.043-.467-.237a1.017 1.017 0 0 1 .467-.777Z" fill="#E0E0E0"/><path d="m62.798 150.365.778-1.359c.03-.052.03-.121 0-.143l-.782-.474c-.035-.022-.09.051-.09.125v1.847c.008.06.06.069.094.004Z" fill="#455A64"/><path d="m84.229 84.045 31.528-18.186a1.03 1.03 0 0 0 .467-.807V57.02c0-.298-.212-.431-.467-.268L84.229 74.935a1.028 1.028 0 0 0-.471.807v8.036c0 .297.211.418.47.267Z" fill="#F0F0F0"/><path d="m86.974 78.38.207-.864-.285.164V77.5a.074.074 0 0 1 0-.03v-.026l.458-.263a.047.047 0 0 1 0 .026v.138a.701.701 0 0 1 0 .082l-.207.863v.03a.046.046 0 0 1 0 .022l-.139.077a.035.035 0 0 1-.026-.011.035.035 0 0 1-.008-.028ZM87.759 76.933a.199.199 0 0 1 .125-.038.13.13 0 0 1 .087.034c.024.028.04.063.047.1a.707.707 0 0 1 0 .142v.263c.004.055.004.11 0 .164a.716.716 0 0 1-.047.156.926.926 0 0 1-.087.138.593.593 0 0 1-.125.103.26.26 0 0 1-.125.039.148.148 0 0 1-.082-.039.182.182 0 0 1-.052-.1.706.706 0 0 1 0-.141v-.26a.998.998 0 0 1 0-.163.697.697 0 0 1 .134-.293.47.47 0 0 1 .125-.105Zm.103.596v-.25a.334.334 0 0 0 0-.065.13.13 0 0 0 0-.043.034.034 0 0 0-.03 0h-.047a.204.204 0 0 0-.078.095.368.368 0 0 0 0 .064v.385a.101.101 0 0 0 0 .043c.01.003.02.003.03 0a.073.073 0 0 0 .048 0 .156.156 0 0 0 .047-.043.125.125 0 0 0 .03-.052.18.18 0 0 0 0-.065.377.377 0 0 0-.021-.073l.022.004ZM88.405 76.872v-.112a.318.318 0 0 0 0-.07l-.026-.051a.065.065 0 0 0-.047 0 .112.112 0 0 0-.065 0 .189.189 0 0 0-.065.052.266.266 0 0 0-.047.073.297.297 0 0 0-.026.168v.112a.207.207 0 0 0 0 .078.073.073 0 0 0 .026.047.06.06 0 0 0 .047 0 .16.16 0 0 0 .065 0 .276.276 0 0 0 .065-.056.403.403 0 0 0 .047-.069.304.304 0 0 0 .026-.082.654.654 0 0 0 0-.09ZM88.643 76.419v.03l-.475 1.247.077-.043a.052.052 0 0 0 .022-.022v-.026l.475-1.234-.078.048a.042.042 0 0 0-.021 0ZM86.969 75.906l-.316-.488a6.23 6.23 0 0 0-.747 2.015l.51-.043a4.71 4.71 0 0 1 .553-1.484ZM87.866 74.938v-.825a3.523 3.523 0 0 0-1.21 1.295l.316.488c.212-.39.52-.72.894-.958ZM86.345 78.159a4.25 4.25 0 0 1 .073-.768l-.51.043a5.298 5.298 0 0 0-.103 1.036c-.004.31.031.618.104.919l.51-.553a2.936 2.936 0 0 1-.074-.677Z" fill="#455A64"/><path d="M89.82 75.173a1.727 1.727 0 0 0-.748-1.153 1.214 1.214 0 0 0-1.21.095v.825a.899.899 0 0 1 .895-.065 1.266 1.266 0 0 1 .553.863c.05.222.075.45.073.678 0 .257-.025.515-.073.768a4.82 4.82 0 0 1-.553 1.484c-.214.391-.521.723-.894.967a.89.89 0 0 1-.894.065 1.251 1.251 0 0 1-.553-.863l-.51.552a1.687 1.687 0 0 0 .747 1.153 1.202 1.202 0 0 0 1.21-.095c.505-.325.92-.77 1.21-1.295a6.308 6.308 0 0 0 .746-2.011c.065-.343.099-.691.1-1.04a3.973 3.973 0 0 0-.1-.928Z" fill="#FDAF00"/><path d="m92.998 72.91 9.588-5.533c.259-.15.471-.043.471.233a1.003 1.003 0 0 1-.471.777l-9.588 5.524c-.259.151-.47.043-.47-.233a1 1 0 0 1 .47-.768Z" fill="#455A64"/><path d="m92.998 74.952 16.607-9.58c.259-.152.466-.044.466.237a.991.991 0 0 1-.466.772l-16.607 9.581c-.259.151-.47.043-.47-.237a.998.998 0 0 1 .47-.773Z" fill="#E0E0E0"/><path d="m118.427 64.31 31.529-18.187a1.035 1.035 0 0 0 .467-.812V37.28c0-.298-.208-.432-.467-.268l-31.529 18.182a1.036 1.036 0 0 0-.466.812v8.031c.009.298.216.42.466.272Z" fill="#F0F0F0"/><path d="M121.336 57.906c0-.057.009-.114.026-.169a.587.587 0 0 1 .06-.15.588.588 0 0 1 .195-.211.425.425 0 0 1 .103-.036.156.156 0 0 1 .091.022.2.2 0 0 1 .065.078.43.43 0 0 1 .021.142.375.375 0 0 1 0 .082.504.504 0 0 1 0 .078.47.47 0 0 1-.021.073l-.026.069-.181.492a.057.057 0 0 0 0 .026.055.055 0 0 1-.022.021l-.151.087a.021.021 0 0 1 0-.022l.125-.332a.218.218 0 0 1-.091 0 .112.112 0 0 1-.073-.03.177.177 0 0 1-.052-.078.363.363 0 0 1-.069-.142Zm.384-.22a.15.15 0 0 0 0-.052.031.031 0 0 0-.008-.015.047.047 0 0 0-.013-.011h-.035a.07.07 0 0 0-.039 0l-.039.03-.03.047a.23.23 0 0 0-.026.057.263.263 0 0 0 0 .056.15.15 0 0 0 0 .051s0 .022.026.026h.03a.07.07 0 0 0 .039 0 .132.132 0 0 0 .039-.034.165.165 0 0 0 .035-.043.19.19 0 0 0 .021-.056.263.263 0 0 0 0-.056ZM122.259 57.008a.192.192 0 0 1 .121-.04.122.122 0 0 1 .087.035.266.266 0 0 1 .051.1.485.485 0 0 1 0 .142v.263a.643.643 0 0 1 0 .164c-.013.053-.03.105-.051.156a.734.734 0 0 1-.087.138.56.56 0 0 1-.121.103.276.276 0 0 1-.125.04.145.145 0 0 1-.086-.04.235.235 0 0 1-.052-.099.638.638 0 0 1 0-.138v-.263a.898.898 0 0 1 0-.164.905.905 0 0 1 .052-.16.547.547 0 0 1 .211-.237Zm.1.595a2.614 2.614 0 0 0 0-.25.305.305 0 0 0 0-.06.126.126 0 0 0 0-.048.046.046 0 0 0-.031 0h-.047a.159.159 0 0 0-.048.043.356.356 0 0 0-.034.052v.138a2.02 2.02 0 0 0 0 .246v.065a.156.156 0 0 0 0 .043.037.037 0 0 0 .034 0h.048l.047-.039a.24.24 0 0 0 .031-.056.698.698 0 0 0 0-.065.397.397 0 0 0 0-.069ZM122.923 56.838a.422.422 0 0 1 0 .112c.002.03.002.06 0 .09a.372.372 0 0 1-.073.151.278.278 0 0 1-.069.057.133.133 0 0 1-.065.021.064.064 0 0 1-.043 0 .135.135 0 0 1-.03-.052.337.337 0 0 1 0-.077.15.15 0 0 1 0-.052.306.306 0 0 1 0-.06.415.415 0 0 1 0-.087.405.405 0 0 1 .03-.082.258.258 0 0 1 .043-.073.315.315 0 0 1 .065-.052.158.158 0 0 1 .069 0 .055.055 0 0 1 .043 0 .134.134 0 0 1 .03.052.446.446 0 0 1 0 .052Zm.242-.311v-.03h.022l.078-.048-.471 1.235a.112.112 0 0 1 0 .025v.022l-.078.043.449-1.247Zm-.432.526v.052c0 .009 0 0 .026 0a.04.04 0 0 0 .02-.013.036.036 0 0 0 .01-.021v-.16a.224.224 0 0 0 0-.052h-.03a.068.068 0 0 0-.026.04.204.204 0 0 0 0 .06v.094Zm.635.044a.526.526 0 0 1 0 .112c.002.03.002.06 0 .09a.6.6 0 0 1-.03.082.246.246 0 0 1-.048.07.16.16 0 0 1-.064.056.13.13 0 0 1-.065 0 .053.053 0 0 1-.043 0 .152.152 0 0 1-.031-.052.45.45 0 0 1 0-.074.422.422 0 0 1 0-.112.685.685 0 0 1 0-.09.48.48 0 0 1 .074-.151.245.245 0 0 1 .065-.057.157.157 0 0 1 .064 0 .064.064 0 0 1 .048 0 .15.15 0 0 1 .03.052.263.263 0 0 1 0 .056v.018Zm-.19.215v.052c0 .009 0 0 .026 0a.043.043 0 0 0 .03-.035.234.234 0 0 0 0-.064.302.302 0 0 0 0-.095.113.113 0 0 0 0-.052h-.03a.068.068 0 0 0-.026.039.204.204 0 0 0 0 .06v.095ZM122.354 55.035v-.824a3.52 3.52 0 0 0-1.209 1.295l.315.487c.212-.39.52-.719.894-.958Z" fill="#455A64"/><path d="M124.311 55.268a1.701 1.701 0 0 0-.747-1.152 1.203 1.203 0 0 0-1.21.095v.824a.893.893 0 0 1 .894-.064 1.254 1.254 0 0 1 .553.863c.051.222.076.45.074.677a4.215 4.215 0 0 1-.074.769 4.703 4.703 0 0 1-.553 1.484 2.71 2.71 0 0 1-.894.967.89.89 0 0 1-.894.065 1.257 1.257 0 0 1-.552-.864 2.915 2.915 0 0 1-.074-.677 4.713 4.713 0 0 1 .613-2.253l-.315-.488a6.246 6.246 0 0 0-.851 3.052c-.001.31.034.618.104.919a1.687 1.687 0 0 0 .747 1.152 1.202 1.202 0 0 0 1.209-.095 3.564 3.564 0 0 0 1.21-1.294 6.354 6.354 0 0 0 .747-2.012c.065-.342.098-.69.099-1.04a3.962 3.962 0 0 0-.086-.928Z" fill="#FDAF00"/><path d="m127.494 53.006 9.592-5.537c.255-.147.467-.043.467.237a1.012 1.012 0 0 1-.467.777l-9.592 5.533c-.259.15-.467.043-.467-.237a.992.992 0 0 1 .467-.773Z" fill="#455A64"/><path d="m127.494 55.044 16.606-9.577c.26-.151.471-.043.471.237a.995.995 0 0 1-.471.773l-16.606 9.58c-.259.147-.467.044-.467-.237a1.013 1.013 0 0 1 .467-.776Z" fill="#E0E0E0"/><path d="m87.435 86.25 6.73-3.885c.258-.15.466-.043.466.234a.998.998 0 0 1-.467.776l-6.729 3.885c-.259.15-.466.043-.466-.238a.991.991 0 0 1 .466-.772Z" fill="#455A64"/><path d="M149.994 52.673v51.357a.594.594 0 0 1-.251.432L84.19 142.268V90.91a.621.621 0 0 1 .255-.431l.816-.47a1.464 1.464 0 0 0 .687-1.183v-2.96a.6.6 0 0 1 .25-.432l9.411-5.43v2.762a.704.704 0 0 0 .691.764.864.864 0 0 0 .432-.12l53.271-30.733-.009-.004Zm.173-.544a.436.436 0 0 0-.208.065L96.507 83.03a.432.432 0 0 1-.207.064c-.155 0-.259-.125-.259-.332V79.79c0-.212-.108-.333-.26-.333a.431.431 0 0 0-.206.065l-9.593 5.533a1.036 1.036 0 0 0-.466.811v2.97a1.027 1.027 0 0 1-.471.806l-.816.475a1.027 1.027 0 0 0-.471.807v51.552c0 .211.108.336.259.336a.429.429 0 0 0 .212-.064l65.726-37.923a1.024 1.024 0 0 0 .467-.807V52.461c0-.211-.104-.332-.26-.332h.005Z" fill="#E0E0E0"/><path d="M87.984 93.164a.461.461 0 0 1-.229-.056.548.548 0 0 1-.246-.492V90.66a1.249 1.249 0 0 1 .579-.997l5.213-3.021a.539.539 0 0 1 .544-.035.55.55 0 0 1 .246.492v1.955a1.249 1.249 0 0 1-.579.997l-5.208 3.021a.657.657 0 0 1-.32.09Zm.32-3.125a.804.804 0 0 0-.363.622v1.955a.164.164 0 0 0 .03.116.169.169 0 0 0 .117-.034l5.213-3a.83.83 0 0 0 .358-.625v-1.955a.164.164 0 0 0-.03-.117.168.168 0 0 0-.117.035l-5.208 3.003Z" fill="#E0E0E0"/><path d="m88.624 90.841 3.398-1.967c.173-.1.311-.03.311.155a.66.66 0 0 1-.31.518l-3.4 1.972c-.172.1-.31.026-.31-.16a.668.668 0 0 1 .31-.518Z" fill="#E0E0E0"/><path d="m92.802 88.55.28.402s.031 0 .044-.026l.28-.725v-.051l-.56.323a.069.069 0 0 0-.044.078Z" fill="#455A64"/><path d="M87.268 112.131c.25-.142.432-.026.432.259a.987.987 0 0 1-.432.781c-.25.143-.432.026-.432-.259a.99.99 0 0 1 .432-.781ZM90.784 108.084c.25-.142.453-.026.453.259a.992.992 0 0 1-.453.781c-.247.143-.432.026-.432-.259a.994.994 0 0 1 .431-.781ZM94.285 106.061c.247-.143.432-.026.432.259a.99.99 0 0 1-.431.781c-.251.142-.454.026-.454-.259a.992.992 0 0 1 .454-.781ZM97.795 104.924c.25-.142.432-.026.432.259a.99.99 0 0 1-.432.781c-.25.143-.432.026-.432-.259a.987.987 0 0 1 .432-.781ZM101.307 101.279c.25-.142.432-.025.432.264a.983.983 0 0 1-.432.777c-.246.146-.432.03-.432-.259a1.001 1.001 0 0 1 .432-.782ZM104.811 99.987c.25-.143.432-.026.432.259a.997.997 0 0 1-.432.781c-.251.142-.432.026-.432-.259a.99.99 0 0 1 .432-.781ZM108.319 95.923c.25-.147.453-.03.453.259a.997.997 0 0 1-.453.78c-.247.143-.432.027-.432-.262a.995.995 0 0 1 .432-.777ZM111.83 94.924c.247-.143.432-.026.432.263a.995.995 0 0 1-.432.777c-.25.147-.432.03-.432-.259a1.006 1.006 0 0 1 .432-.781ZM115.338 83.791c.251-.142.432-.026.432.263a1.012 1.012 0 0 1-.432.781c-.25.143-.432.027-.432-.263a1.005 1.005 0 0 1 .432-.78ZM118.856 89.88c.246-.147.432-.03.432.259a1.017 1.017 0 0 1-.432.781c-.251.142-.454.026-.454-.263a.99.99 0 0 1 .454-.777ZM122.354 89.88c.25-.147.432-.03.432.259a1.005 1.005 0 0 1-.432.781c-.251.142-.432.026-.432-.263a.984.984 0 0 1 .432-.777ZM125.862 89.88c.25-.147.432-.03.432.259a1.005 1.005 0 0 1-.432.781c-.247.142-.432.026-.432-.263a.996.996 0 0 1 .432-.777ZM129.375 83.794c.247-.147.432-.03.432.259a1.004 1.004 0 0 1-.432.781c-.25.142-.453.026-.453-.263a.99.99 0 0 1 .453-.777ZM132.881 82.631c.251-.142.432-.026.432.259a.993.993 0 0 1-.432.781c-.25.143-.432.026-.432-.259a.993.993 0 0 1 .432-.78ZM136.401 77.717c.25-.142.453-.026.453.263a.989.989 0 0 1-.453.777c-.247.147-.432.03-.432-.259a1.004 1.004 0 0 1 .432-.781ZM140.221 78.43c.177-.305.177-.634.002-.736-.176-.101-.461.064-.638.37-.176.306-.177.635-.001.737.175.1.461-.065.637-.37ZM143.733 78.43c.176-.305.177-.634.002-.736-.176-.101-.462.064-.638.37-.177.306-.177.635-.002.737.176.1.461-.065.638-.37ZM146.93 75.694c.246-.143.432-.026.432.263a.997.997 0 0 1-.432.777c-.25.146-.453.03-.453-.26a.997.997 0 0 1 .453-.78Z" fill="#FDAF00"/><path d="M87.26 112.753a.116.116 0 0 1-.073-.026.11.11 0 0 1-.03-.077c0-.029.01-.057.03-.078l3.542-4.065.03-.026 3.481-2.007 3.503-1.135 3.49-3.63.043-.026 3.481-1.294 3.49-4.027a.181.181 0 0 1 .052-.034l3.455-.997 3.481-11.062a.11.11 0 0 1 .034-.052.114.114 0 0 1 .057-.025.118.118 0 0 1 .108.056l3.477 6.016h6.91l3.459-5.995a.11.11 0 0 1 .061-.051l3.477-1.153 3.485-4.88a.117.117 0 0 1 .091-.044h6.988l3.481-2.011a.113.113 0 0 1 .151.039.111.111 0 0 1-.043.147l-3.507 2.028a.12.12 0 0 1-.056 0h-6.962l-3.477 4.864a.096.096 0 0 1-.052.039l-3.455 1.152-3.49 6.042a.107.107 0 0 1-.041.038.109.109 0 0 1-.054.014h-7.018a.114.114 0 0 1-.091-.052l-3.386-5.86-3.434 10.91a.13.13 0 0 1-.028.044.129.129 0 0 1-.045.029l-3.481 1.001-3.486 4.027-.043.03-3.49 1.295-3.49 3.629a.085.085 0 0 1-.043.026l-3.51 1.135-3.456 1.994-3.546 4.026a.104.104 0 0 1-.07.026Z" fill="#FDAF00"/><path d="M87.27 114.912a.213.213 0 0 1-.186-.107.221.221 0 0 1 .077-.298l59.65-34.41a.217.217 0 0 1 .276.089.216.216 0 0 1-.06.283l-59.65 34.396a.198.198 0 0 1-.108.047Z" fill="#E0E0E0"/><path d="M87.268 110.108c.25-.143.432-.026.432.259a.987.987 0 0 1-.432.781c-.25.142-.432.026-.432-.259a.986.986 0 0 1 .432-.781ZM90.784 104.035c.25-.142.453-.026.453.259a.988.988 0 0 1-.453.781c-.247.143-.432.026-.432-.258a.998.998 0 0 1 .431-.782ZM94.608 103.986c.176-.306.177-.636.001-.737-.175-.101-.46.064-.637.37-.177.305-.177.635-.002.736.176.102.461-.064.638-.369ZM97.795 95.923c.25-.147.432-.03.432.259a.993.993 0 0 1-.432.78c-.25.143-.432.027-.432-.262a.981.981 0 0 1 .432-.777ZM101.307 97.963c.25-.142.432-.026.432.26a.993.993 0 0 1-.432.78c-.246.143-.432.026-.432-.259a.993.993 0 0 1 .432-.78ZM104.811 96.95c.25-.143.432-.026.432.263a.984.984 0 0 1-.432.776c-.251.147-.432.03-.432-.258a1.005 1.005 0 0 1 .432-.782ZM108.319 93.915c.25-.147.453-.03.453.259a.997.997 0 0 1-.453.781c-.247.142-.432.026-.432-.259a.991.991 0 0 1 .432-.781ZM111.83 89.88c.247-.147.432-.03.432.259a1.004 1.004 0 0 1-.432.781c-.25.142-.432.026-.432-.263a.997.997 0 0 1 .432-.777ZM115.338 88.854c.251-.143.432-.026.432.259a.992.992 0 0 1-.432.78c-.25.143-.432.027-.432-.258a.993.993 0 0 1 .432-.781ZM118.858 85.82c.25-.147.432-.03.432.258a1.004 1.004 0 0 1-.432.781c-.247.143-.432.026-.432-.263a.995.995 0 0 1 .432-.777ZM122.354 85.82c.25-.147.432-.03.432.258a1.005 1.005 0 0 1-.432.781c-.251.143-.432.026-.432-.263a.985.985 0 0 1 .432-.777ZM125.862 77.717c.25-.142.432-.026.432.263a.997.997 0 0 1-.432.777c-.247.147-.432.03-.432-.259a1.004 1.004 0 0 1 .432-.781ZM129.375 81.741c.247-.142.432-.03.432.26a.991.991 0 0 1-.432.78c-.25.143-.453.026-.453-.259a.985.985 0 0 1 .453-.78ZM132.881 77.717c.251-.142.432-.026.432.263a.984.984 0 0 1-.432.777c-.25.147-.432.03-.432-.259a1.005 1.005 0 0 1 .432-.781ZM136.391 75.694c.246-.143.432-.026.432.263a.997.997 0 0 1-.432.777c-.25.146-.453.03-.453-.26a.997.997 0 0 1 .453-.78ZM139.901 75.694c.25-.143.432-.026.432.263a.986.986 0 0 1-.432.777c-.251.146-.432.03-.432-.26a.992.992 0 0 1 .432-.78ZM143.408 73.67c.251-.142.454-.026.454.263a.99.99 0 0 1-.454.777c-.246.147-.431.03-.431-.259a1.016 1.016 0 0 1 .431-.78ZM146.93 73.67c.246-.142.432-.026.432.263a.997.997 0 0 1-.432.777c-.25.147-.453.03-.453-.259a.996.996 0 0 1 .453-.78Z" fill="#FDAF00"/><path d="M87.27 110.738a.107.107 0 0 1-.057 0 .11.11 0 0 1-.038-.147l3.532-6.085a.098.098 0 0 1 .074-.052l3.43-.734 3.485-7.293a.113.113 0 0 1 .069-.056.104.104 0 0 1 .086 0l3.455 2.002 3.455-.997 3.486-3.02 3.503-4.04a.083.083 0 0 1 .051-.035l3.486-1.006 3.49-3.02a.106.106 0 0 1 .073-.026h3.455l3.464-8.032a.121.121 0 0 1 .086-.065.106.106 0 0 1 .096.039l3.429 3.953 3.425-3.953a.086.086 0 0 1 .03-.026l3.52-2.028a.084.084 0 0 1 .052 0h3.481l3.455-2.003a.12.12 0 0 1 .052 0h3.537a.11.11 0 0 1 .077.032.108.108 0 0 1-.077.184h-3.481l-3.455 2.002h-3.533l-3.481 2.007-3.494 4.036a.111.111 0 0 1-.038.026.11.11 0 0 1-.126-.026l-3.399-3.92-3.456 7.942a.103.103 0 0 1-.04.047.105.105 0 0 1-.059.018h-3.455l-3.512 2.986h-.043l-3.476 1.001-3.495 4.027-3.515 3.047-.039.022-3.507 1.014a.097.097 0 0 1-.082 0l-3.412-1.968-3.455 7.237a.092.092 0 0 1-.074.056l-3.455.734-3.511 6.042a.103.103 0 0 1-.07.078Z" fill="#FDAF00"/><g opacity=".3" fill="#000"><path opacity=".3" d="M87.268 110.108c.25-.143.432-.026.432.259a.987.987 0 0 1-.432.781c-.25.142-.432.026-.432-.259a.986.986 0 0 1 .432-.781ZM90.784 104.035c.25-.142.453-.026.453.259a.988.988 0 0 1-.453.781c-.247.143-.432.026-.432-.258a.998.998 0 0 1 .431-.782ZM94.608 103.986c.176-.306.177-.636.001-.737-.175-.101-.46.064-.637.37-.177.305-.177.635-.002.736.176.102.461-.064.638-.369ZM97.795 95.923c.25-.147.432-.03.432.259a.993.993 0 0 1-.432.78c-.25.143-.432.027-.432-.262a.981.981 0 0 1 .432-.777ZM101.303 97.963c.25-.142.432-.026.432.26a.993.993 0 0 1-.432.78c-.246.143-.432.026-.432-.259a.993.993 0 0 1 .432-.78ZM104.811 96.95c.25-.143.432-.026.432.263a.984.984 0 0 1-.432.776c-.251.147-.432.03-.432-.258a1.005 1.005 0 0 1 .432-.782ZM108.319 93.915c.25-.147.453-.03.453.259a.997.997 0 0 1-.453.781c-.247.142-.432.026-.432-.259a.991.991 0 0 1 .432-.781ZM111.83 89.88c.247-.147.432-.03.432.259a1.004 1.004 0 0 1-.432.781c-.25.142-.432.026-.432-.263a.997.997 0 0 1 .432-.777ZM115.338 88.854c.251-.143.432-.026.432.259a.992.992 0 0 1-.432.78c-.25.143-.432.027-.432-.258a.993.993 0 0 1 .432-.781ZM118.858 85.82c.25-.147.432-.03.432.258a1.004 1.004 0 0 1-.432.781c-.247.143-.432.026-.432-.263a.995.995 0 0 1 .432-.777ZM122.354 85.82c.25-.147.432-.03.432.258a1.005 1.005 0 0 1-.432.781c-.251.143-.432.026-.432-.263a.985.985 0 0 1 .432-.777ZM125.862 77.719c.25-.142.431-.026.431.263a.983.983 0 0 1-.431.777c-.247.147-.432.03-.432-.259a1.004 1.004 0 0 1 .432-.781ZM129.375 81.741c.247-.142.432-.03.432.26a.991.991 0 0 1-.432.78c-.25.143-.453.026-.453-.259a.985.985 0 0 1 .453-.78ZM132.881 77.719c.251-.142.432-.026.432.263a.984.984 0 0 1-.432.777c-.25.147-.432.03-.432-.259a1.005 1.005 0 0 1 .432-.781ZM136.391 75.694c.246-.143.432-.026.432.263a.997.997 0 0 1-.432.777c-.25.146-.453.03-.453-.26a.997.997 0 0 1 .453-.78ZM139.901 75.694c.25-.143.432-.026.432.263a.986.986 0 0 1-.432.777c-.251.146-.432.03-.432-.26a.992.992 0 0 1 .432-.78ZM143.405 73.67c.25-.142.453-.026.453.263a.99.99 0 0 1-.453.777c-.247.147-.432.03-.432-.259a1.004 1.004 0 0 1 .432-.78ZM146.93 73.67c.246-.142.432-.026.432.263a.997.997 0 0 1-.432.777c-.25.147-.453.03-.453-.259a.996.996 0 0 1 .453-.78Z"/><path opacity=".3" d="M87.27 110.738a.107.107 0 0 1-.057 0 .11.11 0 0 1-.038-.147l3.532-6.085a.098.098 0 0 1 .074-.052l3.43-.734 3.485-7.293a.113.113 0 0 1 .069-.056.104.104 0 0 1 .086 0l3.455 2.002 3.455-.997 3.486-3.02 3.503-4.04a.083.083 0 0 1 .051-.035l3.486-1.006 3.49-3.02a.106.106 0 0 1 .073-.026h3.455l3.464-8.032a.121.121 0 0 1 .086-.065.106.106 0 0 1 .096.039l3.429 3.953 3.425-3.953a.086.086 0 0 1 .03-.026l3.52-2.028a.084.084 0 0 1 .052 0h3.481l3.455-2.003a.12.12 0 0 1 .052 0h3.537a.11.11 0 0 1 .077.032.108.108 0 0 1-.077.184h-3.481l-3.455 2.002h-3.533l-3.481 2.007-3.494 4.036a.111.111 0 0 1-.038.026.11.11 0 0 1-.126-.026l-3.399-3.92-3.456 7.942a.103.103 0 0 1-.04.047.105.105 0 0 1-.059.018h-3.455l-3.511 2.986h-.044l-3.476 1.001-3.495 4.027-3.515 3.047-.039.022-3.507 1.014a.097.097 0 0 1-.082 0l-3.412-1.968-3.455 7.237a.092.092 0 0 1-.074.056l-3.455.734-3.511 6.042a.103.103 0 0 1-.07.078Z"/></g><path d="m89.103 95.09 3.408-1.972c.173-.1.31-.03.31.16a.662.662 0 0 1-.31.513l-3.4 1.972c-.168.1-.31.03-.31-.16a.674.674 0 0 1 .302-.513Z" fill="#E0E0E0"/><path d="M87.27 95.923c.25-.147.432-.03.432.259a.988.988 0 0 1-.432.78c-.25.143-.454.027-.454-.258a.993.993 0 0 1 .454-.781Z" fill="#FDAF00"/><path opacity=".3" d="M87.27 95.923c.25-.147.432-.03.432.259a.988.988 0 0 1-.432.78c-.25.143-.454.027-.454-.258a.993.993 0 0 1 .454-.781Z" fill="#000"/><path d="m89.104 97.105 3.399-1.968c.173-.1.31-.03.31.156a.66.66 0 0 1-.31.517l-3.4 1.973c-.167.099-.31.026-.31-.16a.678.678 0 0 1 .31-.518Z" fill="#E0E0E0"/><path d="M87.27 97.964c.25-.142.432-.03.432.259a.988.988 0 0 1-.432.781c-.25.142-.454.026-.454-.259a.993.993 0 0 1 .454-.781ZM87.267 124.937a.117.117 0 0 1-.074-.03.101.101 0 0 1-.024-.036.107.107 0 0 1 .024-.12l1.78-1.83 1.727-.22 1.767-2.278 1.766.241 1.728-1.549 1.753-1.049 1.784-2.473 1.775.557 1.706-1.523a.107.107 0 0 1 .151 0 .093.093 0 0 1 .035.075.102.102 0 0 1-.009.042.106.106 0 0 1-.026.034l-1.796 1.605-1.728-.548-1.728 2.395-1.753 1.049-1.775 1.605-1.728-.237-1.727 2.249-1.84.215-1.728 1.774a.118.118 0 0 1-.06.052Z" fill="#FDAF00"/><path d="M87.962 119.015a.2.2 0 0 1 .043-.039.483.483 0 0 1 .31-.112.306.306 0 0 1 .213.078c.064.06.112.136.138.22.037.113.054.231.052.349a1.865 1.865 0 0 1-.19.786 1.385 1.385 0 0 1-.212.323.99.99 0 0 1-.263.225.53.53 0 0 1-.268.082.325.325 0 0 1-.207-.082.517.517 0 0 1-.143-.22 1.184 1.184 0 0 1-.047-.35 1.263 1.263 0 0 1 0-.22c.01-.071.024-.142.043-.211 0-.069.039-.134.06-.199.022-.065.043-.129.065-.19l.466-1.329a.437.437 0 0 0 .03-.065.098.098 0 0 1 .02-.035.093.093 0 0 1 .033-.025l.146-.082a.027.027 0 0 1 .008-.007.032.032 0 0 1 .01-.002l.01.002a.025.025 0 0 1 .007.007V118.027l-.324.988Zm-.333 1.122c0 .07.011.14.03.207a.34.34 0 0 0 .087.143.197.197 0 0 0 .13.056.347.347 0 0 0 .177-.052.845.845 0 0 0 .177-.151c.051-.064.094-.133.13-.207.075-.15.113-.316.112-.484a.755.755 0 0 0-.026-.207.329.329 0 0 0-.087-.142.197.197 0 0 0-.13-.056.369.369 0 0 0-.176.052.705.705 0 0 0-.177.151.935.935 0 0 0-.13.211 1.122 1.122 0 0 0-.117.479ZM89.157 119.502c.009.037.02.073.034.108.015.03.04.055.07.069a.18.18 0 0 0 .12 0 .602.602 0 0 0 .2-.082.738.738 0 0 0 .275-.28.872.872 0 0 0 .117-.449.487.487 0 0 0-.03-.198.16.16 0 0 0-.082-.095.192.192 0 0 0-.125 0 .56.56 0 0 0-.156.069l-.212.12a.036.036 0 0 1-.025.01.036.036 0 0 1-.026-.01.085.085 0 0 1 0-.06v-.142a.224.224 0 0 1 0-.074l.026-.069.462-1.036-.739.432a.025.025 0 0 1-.01.008.032.032 0 0 1-.014.004.031.031 0 0 1-.013-.004.025.025 0 0 1-.01-.008s-.022-.03-.022-.06v-.143a.151.151 0 0 1 .022-.086.121.121 0 0 1 .047-.061l1.01-.582h.048a.077.077 0 0 1 0 .065v.12a.268.268 0 0 1 0 .078.332.332 0 0 1-.034.082l-.454 1.019a.501.501 0 0 1 .238-.074.242.242 0 0 1 .181.056.364.364 0 0 1 .117.186.902.902 0 0 1 .043.306 1.556 1.556 0 0 1-.19.743 1.472 1.472 0 0 1-.203.284 1.019 1.019 0 0 1-.246.199.729.729 0 0 1-.298.112.301.301 0 0 1-.203-.043.334.334 0 0 1-.121-.155.668.668 0 0 1-.043-.233.139.139 0 0 1 0-.069.107.107 0 0 1 .038-.048l.117-.069h.048a.099.099 0 0 1 .043.06ZM90.686 118.624a.309.309 0 0 0 .035.108.131.131 0 0 0 .069.069.18.18 0 0 0 .12 0 .602.602 0 0 0 .2-.082.743.743 0 0 0 .276-.285.966.966 0 0 0 .086-.202.871.871 0 0 0 .03-.242.495.495 0 0 0-.03-.199.184.184 0 0 0-.082-.095.206.206 0 0 0-.125 0 .789.789 0 0 0-.156.065l-.216.125a.034.034 0 0 1-.023.008.035.035 0 0 1-.024-.008.085.085 0 0 1 0-.06v-.143a.141.141 0 0 1 0-.073.61.61 0 0 1 .026-.069l.462-1.036-.739.432a.04.04 0 0 1-.026.01.04.04 0 0 1-.026-.01.088.088 0 0 1 0-.061v-.142a.192.192 0 0 1 0-.086.112.112 0 0 1 .02-.036.107.107 0 0 1 .032-.025l1.011-.587a.04.04 0 0 1 .024-.008.04.04 0 0 1 .023.008.091.091 0 0 1 .022.065v.142a.291.291 0 0 1 0 .078c0 .026-.022.052-.034.082l-.454 1.019a.57.57 0 0 1 .233-.078.277.277 0 0 1 .186.06c.053.05.094.112.117.182.03.1.044.205.043.31a1.51 1.51 0 0 1-.19.738c-.054.104-.123.2-.203.285-.072.08-.155.148-.247.203a.76.76 0 0 1-.297.112.341.341 0 0 1-.208-.043.398.398 0 0 1-.12-.155.663.663 0 0 1-.04-.233.139.139 0 0 1 0-.069.095.095 0 0 1 .04-.052l.116-.065a.034.034 0 0 1 .024-.009c.008 0 .017.003.023.009.011.012.019.027.022.043Z" fill="#455A64"/><path d="m87.584 126.331 15.164-8.783c.169-.099.311-.026.311.16a.67.67 0 0 1-.311.518l-15.164 8.769c-.168.1-.31.031-.31-.159a.675.675 0 0 1 .31-.505ZM87.584 116.205l3.4-1.968c.172-.1.31-.03.31.155a.667.667 0 0 1-.31.518l-3.4 1.968c-.168.099-.31.03-.31-.155a.678.678 0 0 1 .31-.518Z" fill="#E0E0E0"/><path d="M87.27 137.073a.095.095 0 0 1-.073-.034.105.105 0 0 1-.024-.034.105.105 0 0 1 .024-.117l1.78-1.83 1.761-.22 1.771-1.549 1.728-.467 1.784-3.543 1.783.863 1.728-1.519h.03l1.706-.323 1.728-2.983a.114.114 0 0 1 .026-.036.126.126 0 0 1 .039-.022.099.099 0 0 1 .045-.004.091.091 0 0 1 .042.014.097.097 0 0 1 .034.03.109.109 0 0 1 .018.085.103.103 0 0 1-.019.041l-1.775 3.069-1.775.336-1.788 1.571-1.728-.863-1.727 3.453-1.775.483-1.762 1.549-1.75.225-1.727 1.774a.114.114 0 0 1-.045.039.109.109 0 0 1-.059.012Z" fill="#FDAF00"/><path opacity=".3" d="M87.27 137.073a.095.095 0 0 1-.073-.034.105.105 0 0 1-.024-.034.105.105 0 0 1 .024-.117l1.78-1.83 1.761-.22 1.771-1.549 1.728-.467 1.784-3.543 1.783.863 1.728-1.519h.03l1.706-.323 1.728-2.983a.114.114 0 0 1 .026-.036.126.126 0 0 1 .039-.022.099.099 0 0 1 .045-.004.091.091 0 0 1 .042.014.097.097 0 0 1 .034.03.109.109 0 0 1 .018.085.103.103 0 0 1-.019.041l-1.775 3.069-1.775.336-1.788 1.571-1.728-.863-1.727 3.453-1.775.483-1.762 1.549-1.75.225-1.727 1.774a.114.114 0 0 1-.045.039.109.109 0 0 1-.059.012Z" fill="#000"/><path d="M88.161 132.771a.224.224 0 0 1 0 .09.115.115 0 0 1-.052.057l-.103.06a.034.034 0 0 1-.024.009.034.034 0 0 1-.024-.009.091.091 0 0 1 0-.065v-2.158l-.432.725c-.017.032-.034.049-.051.052a.036.036 0 0 1-.024.01.035.035 0 0 1-.024-.01l-.06-.086a.088.088 0 0 1 0-.069c0-.031.008-.061.025-.087l.549-.966a.17.17 0 0 1 .043-.052l.04-.026.103-.06a.036.036 0 0 1 .026-.01c.01 0 .018.003.026.01a.077.077 0 0 1 0 .06l-.018 2.525ZM89.285 130.777a1.132 1.132 0 0 0 .156-.592.457.457 0 0 0-.083-.306c-.052-.061-.134-.061-.25 0a.484.484 0 0 0-.151.129.877.877 0 0 0-.108.169 1.512 1.512 0 0 0-.104.405.249.249 0 0 1-.026.082.156.156 0 0 1-.043.048l-.117.065h-.039a.07.07 0 0 1 0-.052 1.769 1.769 0 0 1 .16-.665c.053-.109.117-.213.19-.311a.9.9 0 0 1 .255-.224.495.495 0 0 1 .25-.078c.067.003.13.031.177.078a.452.452 0 0 1 .113.207c.023.101.035.203.034.307.005.079.005.158 0 .237a1.971 1.971 0 0 1-.038.22 2.714 2.714 0 0 1-.19.466l-.575 1.152.786-.453a.034.034 0 0 1 .024-.009c.009 0 .017.003.024.009V131.864a.15.15 0 0 1 0 .086.102.102 0 0 1-.047.061l-1.107.639a.04.04 0 0 1-.023.008.04.04 0 0 1-.024-.008.089.089 0 0 1-.022-.061v-.142a.25.25 0 0 1 0-.082.786.786 0 0 1 .043-.104l.735-1.484ZM91.317 129.347v.665c0 .152-.013.303-.04.453a2.346 2.346 0 0 1-.12.432c-.05.124-.12.24-.203.345-.08.101-.178.186-.29.25a.52.52 0 0 1-.293.087.291.291 0 0 1-.111-.037.29.29 0 0 1-.088-.076.651.651 0 0 1-.121-.276 2.203 2.203 0 0 1-.043-.406v-.681c.003-.154.018-.307.043-.458.023-.148.063-.293.12-.432.052-.122.12-.238.2-.345.08-.102.18-.189.293-.254a.48.48 0 0 1 .29-.082.287.287 0 0 1 .203.116c.06.083.1.177.12.276.03.139.043.281.04.423Zm-1.067 1.295c-.016.17.021.34.108.488.069.082.172.082.306 0a.724.724 0 0 0 .303-.354c.077-.197.115-.406.112-.617v-.665a.814.814 0 0 0-.112-.492c-.07-.082-.169-.082-.303 0a.727.727 0 0 0-.306.354 1.645 1.645 0 0 0-.108.617v.669Z" fill="#455A64"/><path d="m87.584 138.464 15.164-8.778c.169-.099.311-.03.311.16a.667.667 0 0 1-.311.513l-15.164 8.783c-.168.099-.31.026-.31-.16a.678.678 0 0 1 .31-.518ZM87.584 128.337l3.4-1.972c.172-.1.31-.026.31.159a.667.667 0 0 1-.31.518l-3.4 1.968c-.168.099-.31.03-.31-.155a.674.674 0 0 1 .31-.518Z" fill="#E0E0E0"/><path d="M108.318 112.753a.105.105 0 0 1-.082-.043.092.092 0 0 1-.024-.034.098.098 0 0 1 0-.082.104.104 0 0 1 .024-.035l1.753-1.398 1.767-2.015 1.792-.264 1.728-.384 1.775-2.089 1.728.307 1.727-2.767 1.78.026 1.727-1.532a.099.099 0 0 1 .036-.024.102.102 0 0 1 .084 0 .108.108 0 0 1 .036.024.11.11 0 0 1 0 .151l-1.784 1.593-1.728-.03-1.758 2.787-1.766-.31-1.728 2.05-1.792.405-1.728.251-1.727 1.968-1.771 1.445a.102.102 0 0 1-.069 0Z" fill="#FDAF00"/><path d="m109.015 106.846.043-.039.048-.034a.495.495 0 0 1 .25-.061.31.31 0 0 1 .212.078c.063.061.11.137.138.22.033.113.049.231.048.349a1.811 1.811 0 0 1-.186.786 1.572 1.572 0 0 1-.212.324c-.075.09-.166.165-.267.224a.516.516 0 0 1-.264.082.34.34 0 0 1-.212-.082.507.507 0 0 1-.12-.255 1.034 1.034 0 0 1-.052-.349 1.615 1.615 0 0 1 0-.22c0-.074.026-.143.043-.212l.06-.203c.022-.064.048-.125.069-.185l.467-1.329.026-.065a.14.14 0 0 1 .052-.061l.147-.082h.038a.067.067 0 0 1 0 .052.07.07 0 0 1 0 .035.026.026 0 0 1 0 .021l-.328 1.006Zm-.328 1.122c-.002.07.008.14.03.207a.331.331 0 0 0 .082.143.203.203 0 0 0 .134.056.334.334 0 0 0 .173-.052.754.754 0 0 0 .177-.151c.052-.066.097-.137.134-.212a1.153 1.153 0 0 0 .112-.479c0-.07-.01-.14-.03-.207a.389.389 0 0 0-.082-.142.215.215 0 0 0-.134-.056.382.382 0 0 0-.177.051.854.854 0 0 0-.307.363 1.109 1.109 0 0 0-.082.237.984.984 0 0 0-.03.242ZM110.793 106.212c.048-.091.087-.187.117-.285.025-.102.038-.206.039-.311a.464.464 0 0 0-.083-.302c-.051-.065-.138-.06-.25 0a.65.65 0 0 0-.156.125.975.975 0 0 0-.168.367c0 .069-.03.138-.043.207a.213.213 0 0 1-.026.082.114.114 0 0 1-.039.048l-.117.069a.031.031 0 0 1-.021.007.034.034 0 0 1-.022-.007.077.077 0 0 1 0-.052c.001-.108.015-.215.043-.32a1.708 1.708 0 0 1 .307-.651.915.915 0 0 1 .255-.229.477.477 0 0 1 .246-.073.247.247 0 0 1 .181.077.432.432 0 0 1 .108.203c.028.102.041.206.039.311.005.078.005.155 0 .233a1.277 1.277 0 0 1-.043.22 1.738 1.738 0 0 1-.073.225c-.035.077-.069.155-.113.241l-.574 1.153.786-.454a.04.04 0 0 1 .024-.008c.008 0 .017.003.024.008a.091.091 0 0 1 .021.065v.143a.187.187 0 0 1-.069.146l-1.106.635h-.051a.091.091 0 0 1 0-.065v-.142a.226.226 0 0 1 0-.082.52.52 0 0 1 .043-.1l.721-1.484ZM112.539 103.892a.034.034 0 0 1 .024-.009c.009 0 .017.003.024.009a.078.078 0 0 1 .021.065v.164a.508.508 0 0 1 0 .078.753.753 0 0 1 0 .095l-.57 2.589a.62.62 0 0 1-.03.082.106.106 0 0 1-.048.056l-.116.069a.035.035 0 0 1-.022.008.037.037 0 0 1-.022-.008.077.077 0 0 1 0-.056.193.193 0 0 1 0-.034l.571-2.59-.864.488a.04.04 0 0 1-.024.008.04.04 0 0 1-.024-.008.09.09 0 0 1-.021-.065v-.142a.218.218 0 0 1 .021-.087.141.141 0 0 1 .048-.06l1.032-.652Z" fill="#455A64"/><path d="m108.639 114.161 15.16-8.783c.173-.099.311-.026.311.16a.674.674 0 0 1-.311.518l-15.16 8.778c-.173.099-.311.026-.311-.16a.67.67 0 0 1 .311-.513ZM108.639 104.031l3.395-1.968c.173-.099.315-.03.315.155a.668.668 0 0 1-.315.518l-3.395 1.968c-.173.099-.311.03-.311-.155a.674.674 0 0 1 .311-.518Z" fill="#E0E0E0"/><path d="M108.32 124.898a.132.132 0 0 1-.056 0 .12.12 0 0 1-.046-.069.112.112 0 0 1 .011-.082l1.793-2.935 1.805.332 1.697-.466 1.754-2.136 1.727-.432 1.771-3.159 1.814.527 1.702-.324 1.728-1.537a.107.107 0 0 1 .08-.037c.016 0 .031.003.045.009a.105.105 0 0 1 .059.067c.005.014.006.03.004.045a.108.108 0 0 1-.046.076l-1.775 1.58h-.026l-1.788.336-1.671-.487-1.728 3.09-1.767.431-1.753 2.137h-.03l-1.78.487h-.026l-1.68-.31-1.727 2.809a.104.104 0 0 1-.04.035.102.102 0 0 1-.051.013Z" fill="#FDAF00"/><path opacity=".3" d="M108.32 124.898a.132.132 0 0 1-.056 0 .12.12 0 0 1-.046-.069.112.112 0 0 1 .011-.082l1.793-2.935 1.805.332 1.697-.466 1.754-2.136 1.727-.432 1.771-3.159 1.814.527 1.702-.324 1.728-1.537a.107.107 0 0 1 .08-.037c.016 0 .031.003.045.009a.105.105 0 0 1 .059.067c.005.014.006.03.004.045a.108.108 0 0 1-.046.076l-1.775 1.58h-.026l-1.788.336-1.671-.487-1.728 3.09-1.767.431-1.753 2.137h-.03l-1.78.487h-.026l-1.68-.31-1.727 2.809a.104.104 0 0 1-.04.035.102.102 0 0 1-.051.013Z" fill="#000"/><path d="m109.13 119.81-.035.026h-.034a.53.53 0 0 1-.238.077.313.313 0 0 1-.207-.064.435.435 0 0 1-.126-.19.996.996 0 0 1-.056-.367c.001-.135.018-.27.052-.401.034-.13.08-.255.138-.376.057-.111.127-.215.208-.311a.939.939 0 0 1 .246-.215.567.567 0 0 1 .268-.087.314.314 0 0 1 .203.082.502.502 0 0 1 .129.22c.032.113.046.229.043.346.006.07.006.141 0 .211 0 .074-.034.147-.051.225-.018.077-.044.146-.07.22-.025.073-.043.138-.064.194l-.467 1.329-.03.065a.094.094 0 0 1-.02.035.096.096 0 0 1-.032.025l-.147.087a.025.025 0 0 1-.017.006.027.027 0 0 1-.017-.006.09.09 0 0 1 0-.056V120.828l.324-1.018Zm.332-1.118a.627.627 0 0 0-.03-.211.272.272 0 0 0-.135-.154.176.176 0 0 0-.068-.01.362.362 0 0 0-.164.047.68.68 0 0 0-.164.138 1.02 1.02 0 0 0-.233.669.784.784 0 0 0 .025.216.313.313 0 0 0 .083.134.19.19 0 0 0 .125.047.282.282 0 0 0 .164-.047.724.724 0 0 0 .164-.138c.048-.061.09-.126.125-.195a.97.97 0 0 0 .082-.228.968.968 0 0 0 .026-.268ZM110.129 119.512a.516.516 0 0 0 .039.108.163.163 0 0 0 .069.073c.04.012.082.012.121 0a.599.599 0 0 0 .199-.082.74.74 0 0 0 .276-.28c.036-.066.065-.136.087-.207a.902.902 0 0 0 .03-.242.518.518 0 0 0-.03-.199.188.188 0 0 0-.083-.095.24.24 0 0 0-.125 0 .617.617 0 0 0-.155.069l-.216.121a.037.037 0 0 1-.024.01.037.037 0 0 1-.024-.01.077.077 0 0 1 0-.06v-.143a.224.224 0 0 1 0-.073l.031-.069.462-1.036-.743.432a.036.036 0 0 1-.024.009.036.036 0 0 1-.024-.009.103.103 0 0 1-.021-.065v-.142a.218.218 0 0 1 .021-.087.141.141 0 0 1 .048-.06l1.015-.583a.034.034 0 0 1 .024-.009c.008 0 .017.003.023.009a.087.087 0 0 1 .022.061v.142a.255.255 0 0 1 0 .078.652.652 0 0 1-.035.082l-.453 1.018a.503.503 0 0 1 .233-.073.258.258 0 0 1 .181.056c.058.049.1.114.121.186.03.099.045.202.044.306 0 .133-.017.265-.052.393a1.518 1.518 0 0 1-.341.634 1.029 1.029 0 0 1-.247.199.754.754 0 0 1-.298.112.325.325 0 0 1-.207-.043.395.395 0 0 1-.121-.156.655.655 0 0 1-.039-.228.23.23 0 0 1 0-.074.122.122 0 0 1 .043-.047l.117-.069h.043a.051.051 0 0 1 .012.02.059.059 0 0 1 .001.023Z" fill="#455A64"/><path d="m108.639 126.293 15.16-8.791c.173-.099.311-.03.311.16a.665.665 0 0 1-.311.513l-15.16 8.783c-.173.099-.311.026-.311-.16a.67.67 0 0 1 .311-.505ZM108.639 116.169l3.395-1.972c.173-.1.315-.026.315.159a.668.668 0 0 1-.315.518l-3.395 1.968c-.173.1-.311.03-.311-.155a.664.664 0 0 1 .311-.518Z" fill="#E0E0E0"/><path d="M131.127 93.065a1.978 1.978 0 0 1 1.982-.164l-2 5.386.018-5.222Z" fill="#FDAF00"/><path d="M129.129 95.224a5.942 5.942 0 0 1 2-2.158v5.24l-2-3.082ZM127.887 98.554c.221-1.172.64-2.299 1.239-3.331l2 3.081-3.239.25Z" fill="#FDAF00"/><path opacity=".3" d="M129.126 95.224a10.52 10.52 0 0 0-1.239 3.332l3.239-.25v-5.24a5.942 5.942 0 0 0-2 2.158Z" fill="#000"/><path d="M133.109 92.902a2.79 2.79 0 0 1 1.24 1.9l-3.24 3.486 2-5.386ZM127.887 101.793a6.56 6.56 0 0 1-.168-1.523c.002-.58.058-1.158.168-1.727l3.24-.25-3.24 3.5ZM134.368 98.055c-.221 1.172-.64 2.299-1.239 3.331l-2-3.081 3.239-.25ZM131.129 103.544a1.976 1.976 0 0 1-2 .147l2-5.386v5.239Z" fill="#FDAF00"/><path d="m127.887 101.792 3.239-3.487-2 5.386a2.81 2.81 0 0 1-1.239-1.899ZM134.368 94.816c.114.5.169 1.011.164 1.524 0 .58-.055 1.157-.164 1.726l-3.239.25 3.239-3.5Z" fill="#FDAF00"/><path d="M133.109 101.386a5.935 5.935 0 0 1-2 2.158v-5.24l2 3.082Z" fill="#FDAF00"/><path d="m129.432 106.216 3.395-1.968c.173-.099.311-.03.311.156a.678.678 0 0 1-.311.518l-3.395 1.968c-.173.099-.311.03-.311-.156a.678.678 0 0 1 .311-.518Z" fill="#455A64"/><path d="m128.678 108.681 4.898-2.831c.173-.099.311-.03.311.16a.67.67 0 0 1-.311.513l-4.898 2.84c-.173.099-.311.03-.311-.155a.669.669 0 0 1 .311-.527ZM128.678 110.708l4.898-2.839c.173-.1.311-.026.311.159a.665.665 0 0 1-.311.514l-4.898 2.84c-.173.099-.311.03-.311-.156a.66.66 0 0 1 .311-.518ZM128.678 112.755l4.898-2.84c.173-.099.311-.025.311.16a.674.674 0 0 1-.311.518l-4.898 2.835c-.173.1-.311.031-.311-.155a.674.674 0 0 1 .311-.518Z" fill="#E0E0E0"/><path d="M143.406 85.952a1.981 1.981 0 0 1 2-.147l-2 5.37v-5.223ZM141.406 88.111a5.986 5.986 0 0 1 2-2.158v5.222l-2-3.064Z" fill="#FDAF00"/><path d="M140.172 91.441c.22-1.172.637-2.299 1.235-3.332l2 3.082-3.235.25Z" fill="#FDAF00"/><path d="M145.406 85.805a2.802 2.802 0 0 1 1.239 1.899l-3.239 3.487 2-5.386ZM140.173 94.68a6.51 6.51 0 0 1-.169-1.524c.002-.58.059-1.157.169-1.726l3.234-.25-3.234 3.5Z" fill="#FDAF00"/><path d="M146.645 90.941c-.22 1.173-.639 2.3-1.239 3.332l-2-3.099 3.239-.233ZM143.406 96.432a1.988 1.988 0 0 1-2 .151l2-5.407v5.256Z" fill="#FDAF00"/><path d="m140.172 94.678 3.235-3.487-2 5.39a2.817 2.817 0 0 1-1.235-1.903Z" fill="#FDAF00"/><path opacity=".3" d="M141.408 88.111a10.493 10.493 0 0 0-1.235 3.332 9.262 9.262 0 0 0-.169 1.726 6.51 6.51 0 0 0 .169 1.523 2.799 2.799 0 0 0 1.235 1.904l1.999-5.42v-5.223a5.975 5.975 0 0 0-1.999 2.158Z" fill="#000"/><path d="M146.645 87.723c.116.5.173 1.01.169 1.523a9.179 9.179 0 0 1-.169 1.726l-3.239.25 3.239-3.5Z" fill="#FDAF00"/><path d="M145.406 94.275a5.91 5.91 0 0 1-2 2.157v-5.256l2 3.099Z" fill="#FDAF00"/><path d="m141.709 99.129 3.399-1.968c.173-.1.311-.03.311.155a.65.65 0 0 1-.311.518l-3.399 1.972c-.172.1-.311.026-.311-.16a.675.675 0 0 1 .311-.517Z" fill="#455A64"/><path d="m140.964 101.593 4.893-2.84c.173-.099.311-.025.311.16a.662.662 0 0 1-.311.518l-4.893 2.835c-.173.1-.316.031-.316-.155a.676.676 0 0 1 .316-.518ZM140.964 103.623l4.893-2.835c.173-.1.311-.031.311.155a.66.66 0 0 1-.311.518l-4.893 2.835c-.173.104-.316.03-.316-.155a.694.694 0 0 1 .096-.297.683.683 0 0 1 .22-.221ZM140.964 105.649l4.893-2.822c.173-.1.311-.031.311.155a.66.66 0 0 1-.311.518l-4.893 2.84c-.173.099-.316.025-.316-.16a.684.684 0 0 1 .316-.531Z" fill="#E0E0E0"/></svg>