<svg width="201" height="218" fill="none" xmlns="http://www.w3.org/2000/svg"><path d="M29.292 200.56c-39.05-22.548-39.05-59.103 0-81.65 39.052-22.547 102.368-22.547 141.423 0 39.056 22.547 39.052 59.102 0 81.65-39.051 22.547-102.371 22.547-141.423 0Z" fill="#F0F0F0"/><path opacity=".07" d="M120.785 194.167 19.372 135.613a.556.556 0 0 1-.38-.529.56.56 0 0 1 .38-.53l60.113-34.708a2.029 2.029 0 0 1 1.834 0L182.736 158.4a.56.56 0 0 1 .275.855.555.555 0 0 1-.275.204l-60.117 34.708a2.03 2.03 0 0 1-1.834 0Z" fill="#000"/><path d="m141.858 29.26 2.542 1.47a3.198 3.198 0 0 1-.021-.338v-.738c0-1.309.919-1.842 2.055-1.186.489.3.908.702 1.228 1.178.182-1.648 1.479-2.262 3.05-1.356a6.808 6.808 0 0 1 3.093 5.33v1.101c.01.438-.078.872-.259 1.27l2.118 1.221a2.517 2.517 0 0 1 1.144 1.974c0 .729-.512 1.021-1.144.657l-13.806-7.948a2.542 2.542 0 0 1-1.139-1.978c0-.724.508-1.02 1.139-.657ZM158.669 22.507l1.402.538v-3.088c0-2.449 1.953-3.038 4.076-1.813 2.118 1.224 3.838 4.202 3.838 6.65v.45a2.074 2.074 0 0 1 1.783.275 6.105 6.105 0 0 1 2.762 4.787v.203l1.958 1.131a4.017 4.017 0 0 1 1.821 3.152c0 1.161-.817 1.631-1.821 1.05l-15.819-9.133a4.013 4.013 0 0 1-1.821-3.151c0-1.161.813-1.631 1.821-1.051Z" fill="#EBEBEB"/><path d="m40.85 146.073-1.428-.817a1.79 1.79 0 0 1-.805-1.398V39.111a1.778 1.778 0 0 1 .81-1.398L104.42.196a1.792 1.792 0 0 1 1.609 0l1.415.818a1.768 1.768 0 0 1 .81 1.398v104.742a1.776 1.776 0 0 1-.81 1.398l-64.98 37.521a1.795 1.795 0 0 1-1.614 0Z" fill="#FDAF00"/><path opacity=".3" d="m40.85 146.073-1.428-.817a1.79 1.79 0 0 1-.805-1.398V39.111a1.778 1.778 0 0 1 .81-1.398L104.42.196a1.792 1.792 0 0 1 1.609 0l1.415.818a1.768 1.768 0 0 1 .81 1.398v104.742a1.776 1.776 0 0 1-.81 1.398l-64.98 37.521a1.795 1.795 0 0 1-1.614 0Z" fill="#000"/><path d="M108.245 2.276c-.059-.423-.398-.572-.8-.334l-64.98 37.516c-.24.148-.437.355-.573.602l-3.029-1.737c.138-.243.333-.448.568-.597L104.416.196a1.803 1.803 0 0 1 1.614 0l1.415.818a1.82 1.82 0 0 1 .8 1.262Z" fill="#FDAF00"/><path opacity=".2" d="M108.245 2.276c-.059-.423-.398-.572-.8-.334l-64.98 37.516c-.24.148-.437.355-.573.602l-3.029-1.737c.138-.243.333-.448.568-.597L104.416.196a1.803 1.803 0 0 1 1.614 0l1.415.818a1.82 1.82 0 0 1 .8 1.262Z" fill="#000"/><path d="M42.32 146.137h-.047l-.085.03h-.034l-.148.038a1.8 1.8 0 0 1-.961-.081 1.066 1.066 0 0 1-.178-.08l-1.445-.788a1.8 1.8 0 0 1-.805-1.398V39.111c.011-.282.093-.557.237-.8l3.03 1.75c-.147.24-.229.514-.238.796v104.751c-.009.151.034.3.123.423a.425.425 0 0 0 .424.14l.127-.034Z" fill="#FDAF00"/><path opacity=".4" d="M42.32 146.137h-.047l-.085.03h-.034l-.148.038a1.8 1.8 0 0 1-.961-.081 1.066 1.066 0 0 1-.178-.08l-1.445-.788a1.8 1.8 0 0 1-.805-1.398V39.111c.011-.282.093-.557.237-.8l3.03 1.75c-.147.24-.229.514-.238.796v104.751c-.009.151.034.3.123.423a.425.425 0 0 0 .424.14l.127-.034Z" fill="#000"/><path d="M65.104 34.904a.648.648 0 0 0-.144-.296l-.055-.047a.309.309 0 0 0-.301-.042.473.473 0 0 0-.11.047 1.3 1.3 0 0 0-.458.554 2.022 2.022 0 0 0-.186.814.788.788 0 0 0 .182.576.352.352 0 0 0 .462.038.878.878 0 0 0 .25-.224 1.932 1.932 0 0 0 .394-1.11 1.197 1.197 0 0 0-.034-.31Zm10.565-23.613a1.542 1.542 0 0 0-.775-.203 2.99 2.99 0 0 0-1.457.47 6.562 6.562 0 0 0-2.665 3.224c-.085.19-.165.386-.237.58-.072.195-.149.39-.212.593-.064.204-.136.424-.195.61a4.874 4.874 0 0 0-.06.2c-.042.14-.08.27-.118.423a.212.212 0 0 1 0 .055l-.237.746-.106.424-.102.402a26.584 26.584 0 0 1-.555 1.834c-.038.098-.097.28-.152.424-.055.144-.085.207-.127.305-.068.165-.14.322-.212.474-.072.153-.097.195-.148.288-1.136 2.186-2.542 3.042-3.334 4.169-.704.979-.907 1.767-1.856 3.317a22.581 22.581 0 0 1-1.173 1.75c-1.369 1.889-1.86 2.825-2.03 3.389a.152.152 0 0 0 0 .046c0 .047-.025.085-.033.127a.128.128 0 0 0 0 .038.693.693 0 0 1 0 .106 2.46 2.46 0 0 0 0 .335v4.177l1.512.873V36.26c-.018-.218 0-.437.055-.648.165-.568.653-1.5 2.025-3.39.496-.685.873-1.27 1.178-1.753.944-1.55 1.148-2.334 1.851-3.309.805-1.126 2.194-1.978 3.334-4.172.18-.346.343-.701.487-1.064.729-1.821 1.055-4.236 1.953-6.27a6.587 6.587 0 0 1 2.686-3.215c.92-.53 1.597-.576 2.118-.33l-1.415-.818Zm6.634 5.376a1.81 1.81 0 0 0-.402-.157c-.572-.135-1.424.195-2.28.098 1.2 1.55 2.869.555 3.813.775.142.033.278.089.403.165l-1.534-.88Zm3.199 5.774a.886.886 0 0 0-.127.093l-.06.064a.45.45 0 0 0-.06.068 1.877 1.877 0 0 0-.397 1.14.81.81 0 0 0 .178.571l.05.047a.313.313 0 0 0 .301.042.329.329 0 0 0 .115-.046c.047-.029.092-.06.135-.094.063-.063.121-.13.174-.203.213-.313.33-.68.334-1.06 0-.55-.288-.838-.643-.622Zm.99-3.813a4.853 4.853 0 0 0-1.562-.554c-.23-.051-.424-.115-.623-.17.597.535 1.33.895 2.118 1.042a6.04 6.04 0 0 1 1.398.453l-1.33-.77Z" fill="#FDAF00"/><path opacity=".8" d="M65.104 34.904a.648.648 0 0 0-.144-.296l-.055-.047a.309.309 0 0 0-.301-.042.473.473 0 0 0-.11.047 1.3 1.3 0 0 0-.458.554 2.022 2.022 0 0 0-.186.814.788.788 0 0 0 .182.576.352.352 0 0 0 .462.038.878.878 0 0 0 .25-.224 1.932 1.932 0 0 0 .394-1.11 1.197 1.197 0 0 0-.034-.31Zm10.565-23.613a1.542 1.542 0 0 0-.775-.203 2.99 2.99 0 0 0-1.457.47 6.562 6.562 0 0 0-2.665 3.224c-.085.19-.165.386-.237.58-.072.195-.149.39-.212.593-.064.204-.136.424-.195.61a4.874 4.874 0 0 0-.06.2c-.042.14-.08.27-.118.423a.212.212 0 0 1 0 .055l-.237.746-.106.424-.102.402a26.584 26.584 0 0 1-.555 1.834c-.038.098-.097.28-.152.424-.055.144-.085.207-.127.305-.068.165-.14.322-.212.474-.072.153-.097.195-.148.288-1.136 2.186-2.542 3.042-3.334 4.169-.704.979-.907 1.767-1.856 3.317a22.581 22.581 0 0 1-1.173 1.75c-1.369 1.889-1.86 2.825-2.03 3.389a.152.152 0 0 0 0 .046c0 .047-.025.085-.033.127a.128.128 0 0 0 0 .038.693.693 0 0 1 0 .106 2.46 2.46 0 0 0 0 .335v4.177l1.512.873V36.26c-.018-.218 0-.437.055-.648.165-.568.653-1.5 2.025-3.39.496-.685.873-1.27 1.178-1.753.944-1.55 1.148-2.334 1.851-3.309.805-1.126 2.194-1.978 3.334-4.172.18-.346.343-.701.487-1.064.729-1.821 1.055-4.236 1.953-6.27a6.587 6.587 0 0 1 2.686-3.215c.92-.53 1.597-.576 2.118-.33l-1.415-.818Zm6.634 5.376a1.81 1.81 0 0 0-.402-.157c-.572-.135-1.424.195-2.28.098 1.2 1.55 2.869.555 3.813.775.142.033.278.089.403.165l-1.534-.88Zm3.199 5.774a.886.886 0 0 0-.127.093l-.06.064a.45.45 0 0 0-.06.068 1.877 1.877 0 0 0-.397 1.14.81.81 0 0 0 .178.571l.05.047a.313.313 0 0 0 .301.042.329.329 0 0 0 .115-.046c.047-.029.092-.06.135-.094.063-.063.121-.13.174-.203.213-.313.33-.68.334-1.06 0-.55-.288-.838-.643-.622Zm.99-3.813a4.853 4.853 0 0 0-1.562-.554c-.23-.051-.424-.115-.623-.17.597.535 1.33.895 2.118 1.042a6.04 6.04 0 0 1 1.398.453l-1.33-.77Z" fill="#fff"/><path d="m87.955 19.48-.119-.072a5.847 5.847 0 0 0-1.398-.454 4.358 4.358 0 0 1-2.118-1.042 2.727 2.727 0 0 0-.492-.364 1.41 1.41 0 0 0-.423-.165c-.915-.22-2.584.78-3.783-.775a.4.4 0 0 1-.038-.051c-.848-1.127-1.144-3.648-2.402-4.39a.89.89 0 0 0-.127-.067c-.517-.246-1.19-.199-2.119.33-3.33 1.924-3.44 6.486-4.66 9.486-1.22 2.999-2.897 3.944-3.812 5.236-.915 1.292-.983 2.245-3.033 5.083-2.05 2.839-2.118 3.512-2.118 4.046v4.202l27.252-15.746V20.53a1.058 1.058 0 0 0-.61-1.05ZM64.494 36.548c-.356.207-.644-.068-.644-.619a1.696 1.696 0 0 1 .644-1.364c.356-.203.64.076.64.623a1.694 1.694 0 0 1-.64 1.36Zm10.455-12.663a1.378 1.378 0 0 1-2.118-.643 3.876 3.876 0 0 1-.33-1.695c0-2.063 1.088-4.363 2.431-5.139.182-.106.38-.184.585-.228 1.059-.212 1.838.809 1.838 2.567.017 2.063-1.076 4.363-2.406 5.139Zm10.557.53c-.36.208-.648-.068-.648-.614a1.694 1.694 0 0 1 .648-1.36c.352-.203.64.072.64.618a1.695 1.695 0 0 1-.64 1.356Z" fill="#FDAF00"/><path opacity=".4" d="m87.955 19.48-.119-.072a5.847 5.847 0 0 0-1.398-.454 4.358 4.358 0 0 1-2.118-1.042 2.727 2.727 0 0 0-.492-.364 1.41 1.41 0 0 0-.423-.165c-.915-.22-2.584.78-3.783-.775a.4.4 0 0 1-.038-.051c-.848-1.127-1.144-3.648-2.402-4.39a.89.89 0 0 0-.127-.067c-.517-.246-1.19-.199-2.119.33-3.33 1.924-3.44 6.486-4.66 9.486-1.22 2.999-2.897 3.944-3.812 5.236-.915 1.292-.983 2.245-3.033 5.083-2.05 2.839-2.118 3.512-2.118 4.046v4.202l27.252-15.746V20.53a1.058 1.058 0 0 0-.61-1.05ZM64.494 36.548c-.356.207-.644-.068-.644-.619a1.696 1.696 0 0 1 .644-1.364c.356-.203.64.076.64.623a1.694 1.694 0 0 1-.64 1.36Zm10.455-12.663a1.378 1.378 0 0 1-2.118-.643 3.876 3.876 0 0 1-.33-1.695c0-2.063 1.088-4.363 2.431-5.139.182-.106.38-.184.585-.228 1.059-.212 1.838.809 1.838 2.567.017 2.063-1.076 4.363-2.406 5.139Zm10.557.53c-.36.208-.648-.068-.648-.614a1.694 1.694 0 0 1 .648-1.36c.352-.203.64.072.64.618a1.695 1.695 0 0 1-.64 1.356Z" fill="#fff"/><path d="M61.45 35.611a1.961 1.961 0 0 0-.098.648v4.207l-1.534-.873v-4.202a2.46 2.46 0 0 1 0-.335.693.693 0 0 0 0-.106.128.128 0 0 1 0-.038c0-.042.021-.08.034-.127v-.047l1.597.873ZM66.485 27.16c-.704.975-.907 1.759-1.852 3.309l-1.512-.873c.949-1.55 1.152-2.338 1.856-3.317l1.508.881ZM72.261 15.647c-.898 2.038-1.224 4.448-1.953 6.27-.144.362-.307.717-.487 1.063l-1.512-.847c.05-.093.097-.19.148-.288.05-.098.144-.31.212-.475.042-.097.089-.199.127-.305.038-.106.106-.27.152-.423.047-.153.072-.195.102-.297.165-.491.31-1.004.453-1.538l.102-.402c.038-.136.072-.267.106-.424l.203-.758a.212.212 0 0 0 0-.055c.038-.14.076-.271.119-.424 0-.063.038-.131.06-.199a10.4 10.4 0 0 1 .194-.61c.068-.186.135-.398.212-.593.076-.195.152-.39.237-.58l1.525.885Z" fill="#FDAF00"/><path opacity=".65" d="M61.45 35.611a1.961 1.961 0 0 0-.098.648v4.207l-1.534-.873v-4.202a2.46 2.46 0 0 1 0-.335.693.693 0 0 0 0-.106.128.128 0 0 1 0-.038c0-.042.021-.08.034-.127v-.047l1.597.873ZM66.485 27.16c-.704.975-.907 1.759-1.852 3.309l-1.512-.873c.949-1.55 1.152-2.338 1.856-3.317l1.508.881ZM72.261 15.647c-.898 2.038-1.224 4.448-1.953 6.27-.144.362-.307.717-.487 1.063l-1.512-.847c.05-.093.097-.19.148-.288.05-.098.144-.31.212-.475.042-.097.089-.199.127-.305.038-.106.106-.27.152-.423.047-.153.072-.195.102-.297.165-.491.31-1.004.453-1.538l.102-.402c.038-.136.072-.267.106-.424l.203-.758a.212.212 0 0 0 0-.055c.038-.14.076-.271.119-.424 0-.063.038-.131.06-.199a10.4 10.4 0 0 1 .194-.61c.068-.186.135-.398.212-.593.076-.195.152-.39.237-.58l1.525.885Z" fill="#fff"/><path d="M64.033 35.12a2.093 2.093 0 0 1 0 0Zm1.102.073a1.2 1.2 0 0 0-.034-.289c.019.095.029.192.03.288a1.927 1.927 0 0 1-.22.848c.138-.262.215-.552.224-.847Zm19.948-10.77a.313.313 0 0 0 .301.043.34.34 0 0 1-.3-.042ZM77.374 18.747c0 2.063-1.09 4.363-2.428 5.138a1.376 1.376 0 0 1-2.118-.64c.208-.044.407-.123.589-.233 1.36-.788 2.436-3.075 2.436-5.142a3.867 3.867 0 0 0-.33-1.695c1.063-.208 1.85.813 1.85 2.572Z" fill="#FDAF00"/><path opacity=".1" d="M77.374 18.747c0 2.063-1.09 4.363-2.428 5.138a1.376 1.376 0 0 1-2.118-.64c.208-.044.407-.123.589-.233 1.36-.788 2.436-3.075 2.436-5.142a3.867 3.867 0 0 0-.33-1.695c1.063-.208 1.85.813 1.85 2.572Z" fill="#000"/><path d="M64.91 36.06a1.482 1.482 0 0 1-.17.263.878.878 0 0 1-.25.225.351.351 0 0 1-.461-.038.79.79 0 0 1-.182-.576c.005-.282.068-.559.186-.814a1.3 1.3 0 0 1 .458-.555.474.474 0 0 1 .11-.046.335.335 0 0 1 .356.089.649.649 0 0 1 .144.296 1.2 1.2 0 0 1 .034.288c-.007.303-.083.6-.225.869Z" fill="#455A64"/><path d="M86.146 23.072a1.928 1.928 0 0 1-.335 1.06c-.052.072-.11.14-.174.203a1.293 1.293 0 0 1-.135.093.325.325 0 0 1-.115.046.318.318 0 0 1-.351-.088.81.81 0 0 1-.178-.572c.004-.414.143-.814.398-1.14a.455.455 0 0 1 .06-.068l.059-.063a.884.884 0 0 1 .127-.093c.356-.225.644.063.644.622Z" fill="#37474F"/><path d="M105.208 17.62c-.059-.199-.246-.262-.466-.135l-56.55 32.649c-.143.09-.261.213-.344.36l-1.512-.873a.989.989 0 0 1 .157-.207.844.844 0 0 1 .186-.153l56.55-32.649a.722.722 0 0 1 .14-.063c.232-.08.484-.08.716 0 .037.012.073.03.106.05l.551.314a.587.587 0 0 1 .08.06.279.279 0 0 1 .068.059.86.86 0 0 1 .148.177 1.068 1.068 0 0 1 .17.41Z" fill="#fff"/><path d="m180.403 156.515-39.122-20.906-5.329-3.453a62.39 62.39 0 0 1-11.985-10.121 71.018 71.018 0 0 1-18.741-48.069V53.208l-1.724-.991-55.792-1.233c.007-.168.054-.333.14-.479l-1.513-.872a1.033 1.033 0 0 0-.14.478v35.302h-.025v20.757c0 .988 0 1.979.03 2.966v.034c.029 2.535.223 5.065.58 7.574.251 1.669.562 3.324.932 4.965a71.056 71.056 0 0 0 17.017 32.539 62.234 62.234 0 0 0 11.972 10.129l5.33 3.453 38.744 22.368h.022l1.694.982a2.03 2.03 0 0 0 1.834 0l55.699-32.124a.638.638 0 0 0 .377-.529v-2.012Z" fill="#EBEBEB"/><path opacity=".1" d="M180.4 156.516v1.991a.631.631 0 0 1-.377.529l-55.682 32.154a1.862 1.862 0 0 1-.919.22v-1.991c.32.007.637-.069.919-.22l55.682-32.145a.645.645 0 0 0 .377-.538Z" fill="#000"/><path d="m180.024 155.995-38.746-22.355-5.329-3.452a62.42 62.42 0 0 1-11.984-10.121 71.024 71.024 0 0 1-18.742-48.07V17.774a.58.58 0 0 0 0-.144c-.059-.2-.245-.263-.466-.136L48.19 50.135c-.143.09-.26.213-.343.36-.085.146-.133.31-.14.479v54.225a71.053 71.053 0 0 0 18.741 48.06 62.252 62.252 0 0 0 11.985 10.121l5.33 3.453 38.744 22.367a2.034 2.034 0 0 0 1.835 0l55.682-32.145a.564.564 0 0 0 .379-.529.56.56 0 0 0-.379-.53Z" fill="#FAFAFA"/><path d="m70.42 29.426-.08.123a2.901 2.901 0 0 0-.38.957v.05a.075.075 0 0 0 0 .022l-.933 5.202-.292 1.66c-.013.071-.03.14-.051.208a1.18 1.18 0 0 1-.06.2c-.017.044-.033.09-.046.135l1.508.873c.072-.174.126-.354.161-.538l.293-1.66.915-5.195c.07-.417.231-.814.474-1.16l-1.508-.877ZM60.006 46.197c-.153.237-.3.483-.424.724a5.594 5.594 0 0 0-.182.352c-.055.114-.148.305-.212.457-.063.153-.144.34-.207.509-.064.17-.127.339-.182.513-.056.173-.132.398-.187.601a8.633 8.633 0 0 0-.11.424c-.085.317-.157.644-.224.97-.026.114-.051.233-.072.343-.022.11-.056.275-.081.424v.02c0 .11 0 .183.055.213a.06.06 0 0 0 .047 0l1.27-1.021.212-.17.102-.076.114-.09.09-.067a.485.485 0 0 1 .076-.06 11.56 11.56 0 0 1 1.868-3.812l-1.491-.928c-.166.238-.322.454-.462.674ZM76.363 18.018a5.55 5.55 0 0 0-.191.347c-.042.065-.08.133-.11.203-.055.098-.102.195-.153.293a2.89 2.89 0 0 0-.114.237c-.076.157-.144.31-.208.462-.063.152-.144.334-.207.5-.06.148-.115.3-.161.449-.08.224-.148.453-.212.682-.034.118-.064.237-.093.355v.026l-.038.182a5.35 5.35 0 0 0-.085.424c-.021.14-.047.224-.076.334-.03.11-.06.233-.098.352-.038.119-.072.22-.106.335v.03c-.046.118-.093.245-.148.372-.055.127-.102.25-.16.377a.867.867 0 0 0-.043.102l-.14.288a16.139 16.139 0 0 1-.407.775l1.492.894c.544-.92.94-1.922 1.173-2.965a13.036 13.036 0 0 1 1.593-4.177l-1.508-.877ZM85.359 21.378a.546.546 0 0 0-.246-.085 1.846 1.846 0 0 0 1.352.847.94.94 0 0 1 .377.08l-1.483-.842Z" fill="#FDAF00"/><path opacity=".8" d="M85.359 21.378a.546.546 0 0 0-.246-.085 1.846 1.846 0 0 0 1.352.847.94.94 0 0 1 .377.08l-1.483-.842Z" fill="#fff"/><path d="M90.98 27.956a1.638 1.638 0 0 0-1.516.043c-1.758.78-2.52 1.127-3.427 1.508-.178 1.165.512 1.27.847 1.14 1.27-.509 1.927-.818 4.088-1.767a1.63 1.63 0 0 1 1.504-.05l-1.496-.873Z" fill="#FDAF00"/><path opacity=".8" d="M90.98 27.956a1.638 1.638 0 0 0-1.516.043c-1.758.78-2.52 1.127-3.427 1.508-.178 1.165.512 1.27.847 1.14 1.27-.509 1.927-.818 4.088-1.767a1.63 1.63 0 0 1 1.504-.05l-1.496-.873Z" fill="#fff"/><path d="M70.085 38.866a6.195 6.195 0 0 1-1.33 1.902l-4.74 3.554a12.717 12.717 0 0 0-2.034 2.119l-1.512-.915a12.491 12.491 0 0 1 2.033-2.093l4.745-3.559a6.29 6.29 0 0 0 1.33-1.897l1.508.89Z" fill="#FDAF00"/><path opacity=".8" d="M70.085 38.866a6.195 6.195 0 0 1-1.33 1.902l-4.74 3.554a12.717 12.717 0 0 0-2.034 2.119l-1.512-.915a12.491 12.491 0 0 1 2.033-2.093l4.745-3.559a6.29 6.29 0 0 0 1.33-1.897l1.508.89Z" fill="#fff"/><path d="M75.103 26.037a16 16 0 0 1-2.389 3.334c-.296.287-.56.605-.788.95l-1.508-.848c.218-.359.478-.69.775-.987a15.914 15.914 0 0 0 2.39-3.33l1.52.881Z" fill="#FDAF00"/><path opacity=".8" d="M75.103 26.037a16 16 0 0 1-2.389 3.334c-.296.287-.56.605-.788.95l-1.508-.848c.218-.359.478-.69.775-.987a15.914 15.914 0 0 0 2.39-3.33l1.52.881Z" fill="#fff"/><path d="M83.65 14.857c-.56-.292-1.3-.241-2.178.216-1.296.678-2.6 2.119-3.592 3.813l-1.517-.873c.996-1.694 2.3-3.139 3.601-3.812.423-.241.899-.376 1.385-.394.296-.004.588.07.848.212l1.453.838Z" fill="#FDAF00"/><path opacity=".8" d="M83.65 14.857c-.56-.292-1.3-.241-2.178.216-1.296.678-2.6 2.119-3.592 3.813l-1.517-.873c.996-1.694 2.3-3.139 3.601-3.812.423-.241.899-.376 1.385-.394.296-.004.588.07.848.212l1.453.838Z" fill="#fff"/><path opacity=".65" d="M61.98 46.419a11.562 11.562 0 0 0-1.868 3.812.491.491 0 0 0-.076.06l-.09.067-.114.09-.101.076-.212.169-1.271 1.021a.06.06 0 0 1-.047 0c-.05-.03-.072-.102-.055-.212v-.021c.026-.14.055-.275.08-.424.026-.148.047-.228.073-.343.068-.326.14-.652.224-.97.038-.14.072-.271.11-.423.056-.204.12-.403.187-.602.068-.2.119-.343.182-.513.064-.17.136-.339.208-.508a7.67 7.67 0 0 1 .212-.458c.076-.152.114-.233.182-.351.127-.242.275-.487.423-.725.149-.237.297-.423.462-.656l1.491.91ZM71.929 30.312a2.841 2.841 0 0 0-.474 1.16l-.915 5.194-.293 1.66a2.702 2.702 0 0 1-.16.539l-1.509-.873c.013-.046.029-.091.047-.135.025-.065.045-.132.059-.2.022-.067.038-.137.05-.207l.293-1.66.92-5.194c-.002-.007-.002-.015 0-.021v-.051c.068-.34.197-.664.38-.958l.081-.123 1.521.869ZM77.878 18.89a13.038 13.038 0 0 0-1.601 4.182 10.19 10.19 0 0 1-1.182 2.965l-1.517-.872c.06-.102.114-.204.17-.31.055-.106.16-.309.237-.466l.14-.288a.876.876 0 0 1 .042-.101c.055-.123.11-.255.16-.378.052-.122.103-.254.15-.372v-.03c.033-.114.075-.224.105-.335.03-.11.072-.237.098-.351.025-.115.055-.225.076-.335.021-.11.05-.28.085-.424l.038-.182v-.025c.03-.119.059-.237.093-.356.063-.229.131-.457.212-.682.046-.148.101-.3.16-.449.064-.165.136-.335.208-.5.072-.165.132-.305.208-.462.034-.08.076-.156.114-.237.038-.08.098-.195.153-.292.03-.071.067-.139.11-.204.06-.118.123-.233.19-.347l1.551.852Z" fill="#fff"/><path d="m58.223 51.718 1.27-1.02c-.5.402-1.198.948-1.27 1.02Z" fill="#FDAF00"/><path d="M92.508 28.843h-.02a1.65 1.65 0 0 0-1.509.046c-2.156.953-2.809 1.271-4.084 1.77-.343.14-1.033.026-.847-1.139a.636.636 0 0 1 0-.08l.292-1.66.818-4.525s.186-.712-.288-.983h-.034a.849.849 0 0 0-.377-.085 1.83 1.83 0 0 1-1.347-.847 3.413 3.413 0 0 1-.509-2.588c.344-1.94-.033-3.3-.893-3.813l-.068-.042c-.555-.293-1.3-.246-2.17.211-2.295 1.186-4.617 4.75-5.193 7.965-.356 2.029-2.393 5.147-3.571 6.295-1.178 1.148-1.271 2.118-1.271 2.118l-.915 5.198-.292 1.66c-.216 1.242-1.492 2.44-1.492 2.44l-4.74 3.555a11.438 11.438 0 0 0-3.902 5.905s-1.779 1.381-1.889 1.491l.606-.347 32.73-18.813.457-.255c.08-.05 1.398-1.296 1.398-1.296-.03-1.093-.343-1.855-.89-2.181Zm-9.45-9.55c-.352 1.975-1.776 4.178-3.19 4.92-.98.512-1.695.194-1.928-.704a3.766 3.766 0 0 1 0-1.534c.351-1.974 1.779-4.177 3.194-4.914.135-.071.277-.13.424-.173 1.143-.356 1.808.63 1.5 2.406Z" fill="#FDAF00"/><path opacity=".55" d="M92.508 28.843h-.02a1.65 1.65 0 0 0-1.509.046c-2.156.953-2.809 1.271-4.084 1.77-.343.14-1.033.026-.847-1.139a.636.636 0 0 1 0-.08l.292-1.66.818-4.525s.186-.712-.288-.983h-.034a.849.849 0 0 0-.377-.085 1.83 1.83 0 0 1-1.347-.847 3.413 3.413 0 0 1-.509-2.588c.344-1.94-.033-3.3-.893-3.813l-.068-.042c-.555-.293-1.3-.246-2.17.211-2.295 1.186-4.617 4.75-5.193 7.965-.356 2.029-2.393 5.147-3.571 6.295-1.178 1.148-1.271 2.118-1.271 2.118l-.915 5.198-.292 1.66c-.216 1.242-1.492 2.44-1.492 2.44l-4.74 3.555a11.438 11.438 0 0 0-3.902 5.905s-1.779 1.381-1.889 1.491l.606-.347 32.73-18.813.457-.255c.08-.05 1.398-1.296 1.398-1.296-.03-1.093-.343-1.855-.89-2.181Zm-9.45-9.55c-.352 1.975-1.776 4.178-3.19 4.92-.98.512-1.695.194-1.928-.704a3.766 3.766 0 0 1 0-1.534c.351-1.974 1.779-4.177 3.194-4.914.135-.071.277-.13.424-.173 1.143-.356 1.808.63 1.5 2.406Z" fill="#fff"/><path d="m58.229 51.722 33.335-19.165.462-.255c.08-.05 1.398-1.3 1.398-1.3l-33.31 19.224s-2.017 1.563-1.885 1.496ZM81.537 16.887a2.376 2.376 0 0 0-.424.173c-1.415.737-2.843 2.94-3.194 4.914a3.766 3.766 0 0 0 0 1.534c.237.898.949 1.216 1.927.703 1.415-.741 2.839-2.944 3.19-4.918.33-1.775-.335-2.762-1.5-2.406ZM78.02 23.47c-.1-.488-.1-.991 0-1.479.344-1.948 1.758-4.126 3.144-4.846.123-.066.252-.122.385-.165.091.474.091.961 0 1.436-.347 1.978-1.775 4.177-3.19 4.918a2.87 2.87 0 0 1-.322.14l-.017-.004Z" fill="#FDAF00"/><path opacity=".1" d="M81.537 16.887a2.376 2.376 0 0 0-.424.173c-1.415.737-2.843 2.94-3.194 4.914a3.766 3.766 0 0 0 0 1.534c.237.898.949 1.216 1.927.703 1.415-.741 2.839-2.944 3.19-4.918.33-1.775-.335-2.762-1.5-2.406ZM78.02 23.47c-.1-.488-.1-.991 0-1.479.344-1.948 1.758-4.126 3.144-4.846.123-.066.252-.122.385-.165.091.474.091.961 0 1.436-.347 1.978-1.775 4.177-3.19 4.918a2.87 2.87 0 0 1-.322.14l-.017-.004Z" fill="#000"/><path opacity=".1" d="M51.16 70.13v21.524c0 .386.267.542.602.347l32.01-18.436a1.338 1.338 0 0 0 .605-1.046V50.994c0-.39-.271-.542-.606-.352L51.761 69.08a1.339 1.339 0 0 0-.6 1.05Z" fill="#FDAF00"/><path d="M52.555 89.943s2.893-3.813 3.736-5.43c1.25-2.42.962-7.101 3.355-8.474 2.394-1.372 2.017 4.804 5.114 3.034 3.096-1.771 3.092-3.868 4.66-4.893 1.567-1.026 2.935 1.025 4.782 0 2.118-1.178 3.088-8.384 5.274-9.583 2.449-1.343 3.42 5.22 3.42 5.22v2.622L52.554 89.943Z" fill="#FDAF00"/><path opacity=".6" d="M52.555 89.943s1.36-7.329 2.838-8.189c2.118-1.228 1.373 4.236 4.236 2.457 2.352-1.436 1.915-7.672 4.965-9.387 2.292-1.271 2.144 3.613 4.961 2.02s2.118-9.46 4.96-11.048c2.843-1.589 2.45 6.833 4.627 5.507 2.571-1.546 1.694-3.626 3.74-5.443v6.566L52.555 89.943Z" fill="#FDAF00"/><path opacity=".25" d="M52.555 89.943s1.36-7.329 2.838-8.189c2.118-1.228 1.373 4.236 4.236 2.457 2.352-1.436 1.915-7.672 4.965-9.387 2.292-1.271 2.144 3.613 4.961 2.02s2.118-9.46 4.96-11.048c2.843-1.589 2.45 6.833 4.627 5.507 2.571-1.546 1.694-3.626 3.74-5.443v6.566L52.555 89.943Z" fill="#000"/><path d="M53.992 71.34c0 .453.318.635.708.424a1.565 1.565 0 0 0 .707-1.229c0-.453-.313-.635-.707-.424a1.572 1.572 0 0 0-.708 1.229Z" fill="#FDAF00"/><path opacity=".25" d="M53.992 71.34c0 .453.318.635.708.424a1.565 1.565 0 0 0 .707-1.229c0-.453-.313-.635-.707-.424a1.572 1.572 0 0 0-.708 1.229Z" fill="#000"/><path d="m57.216 69.164 12.027-6.943c.203-.115.369-.03.369.199a.792.792 0 0 1-.369.618l-12.027 6.948c-.203.114-.368.025-.368-.2a.804.804 0 0 1 .368-.622Z" fill="#455A64"/><path d="M53.992 74.615c0 .454.318.636.708.424a1.563 1.563 0 0 0 .707-1.229c0-.453-.313-.635-.707-.423a1.572 1.572 0 0 0-.708 1.228Z" fill="#FDAF00"/><path d="m57.216 72.437 12.027-6.943c.203-.114.369-.03.369.2a.793.793 0 0 1-.369.618l-12.027 6.947c-.203.115-.368.026-.368-.199a.804.804 0 0 1 .368-.623Z" fill="#455A64"/><path opacity=".1" d="M51.152 95.542v14.234c0 .254.182.36.403.233l17.017-9.837a.873.873 0 0 0 .398-.69v-14.23c0-.254-.178-.356-.398-.228l-17.017 9.823a.884.884 0 0 0-.403.695Z" fill="#FDAF00"/><path d="M53.027 106.994V96.166l.644-.373v10.828l-.644.373Z" fill="#FDAF00"/><path d="m52.879 107.827.94-.542v.335l-.94.542v-.335Z" fill="#455A64"/><path d="M54.258 106.282v-8.663l.644-.369v8.663l-.644.369Z" fill="#FDAF00"/><path d="m54.11 107.12.94-.542v.331l-.94.542v-.331Z" fill="#455A64"/><path d="M56.133 105.202v-9.41l.644-.372v9.409l-.644.373Z" fill="#FDAF00"/><path d="m55.992 106.032.936-.542v.335l-.936.538v-.331Z" fill="#455A64"/><path d="M57.363 104.489v-7.786l.648-.373v7.786l-.648.373Z" fill="#FDAF00"/><path d="m57.219 105.321.936-.538v.331l-.936.542v-.335Z" fill="#455A64"/><path d="M59.238 103.41v-4.342l.644-.373v4.343l-.644.372Z" fill="#FDAF00"/><path d="m59.09 104.243.936-.542v.331l-.936.542v-.331Z" fill="#455A64"/><path d="M60.469 102.698v-4.927l.648-.373v4.927l-.648.373Z" fill="#FDAF00"/><path d="m60.32 103.532.94-.542v.335l-.94.538v-.331Z" fill="#455A64"/><path d="M62.344 101.615v-5.936l.644-.372v5.935l-.644.373Z" fill="#FDAF00"/><path d="m62.203 102.448.94-.542v.331l-.94.542v-.331Z" fill="#455A64"/><path d="M63.574 100.906v-3.863l.648-.373v3.863l-.648.373Z" fill="#FDAF00"/><path d="m63.438 101.736.936-.543v.335l-.936.538v-.33Z" fill="#455A64"/><path d="M65.45 99.82v-1.685l.643-.373v1.686l-.644.373ZM53.027 106.994V96.166l.644-.373v10.828l-.644.373ZM56.133 105.202v-9.41l.644-.372v9.409l-.644.373ZM59.238 103.41v-4.342l.644-.373v4.343l-.644.372ZM62.344 101.615v-5.936l.644-.372v5.935l-.644.373Z" fill="#FDAF00"/><path d="M65.45 99.82v-1.685l.643-.373v1.686l-.644.373Z" fill="#FDAF00"/><path d="m65.313 100.652.936-.543v.331l-.936.542v-.33Z" fill="#455A64"/><path d="M66.68 99.114v-.843l.648-.373v.844l-.648.372Z" fill="#FDAF00"/><path d="m66.543 99.94.936-.542v.335l-.936.538v-.33Z" fill="#455A64"/><path d="m62.402 90.371-.703.407v.809l.703-.407v-.809Z" fill="#FDAF00"/><path opacity=".25" d="m62.402 90.371-.703.407v.809l.703-.407v-.809Z" fill="#000"/><path d="m67.851 87.342-5.028 2.897a.424.424 0 0 0-.182.318v.161c0 .114.08.165.182.106l5.028-2.902a.425.425 0 0 0 .182-.318v-.14c0-.135-.08-.182-.182-.122Z" fill="#455A64"/><path d="m62.402 91.72-.703.407v.814l.703-.407v-.813Z" fill="#FDAF00"/><path d="m67.851 88.693-5.028 2.902a.423.423 0 0 0-.182.317v.157c0 .119.08.165.182.106l5.028-2.902a.394.394 0 0 0 .182-.317v-.157c0-.115-.08-.165-.182-.106Z" fill="#455A64"/><path d="M53.027 106.994V96.166l.644-.373v10.828l-.644.373ZM56.133 105.202v-9.41l.644-.372v9.409l-.644.373ZM59.238 103.41v-4.342l.644-.373v4.343l-.644.372ZM62.344 101.615v-5.936l.644-.372v5.935l-.644.373Z" fill="#FDAF00"/><path d="M53.027 106.994V96.166l.644-.373v10.828l-.644.373ZM56.133 105.202v-9.41l.644-.372v9.409l-.644.373ZM59.238 103.41v-4.342l.644-.373v4.343l-.644.372ZM62.344 101.615v-5.936l.644-.372v5.935l-.644.373ZM65.45 99.82v-1.685l.643-.373v1.686l-.644.373Z" fill="#FDAF00"/><path opacity=".25" d="M53.027 106.994V96.166l.644-.373v10.828l-.644.373ZM56.133 105.202v-9.41l.644-.372v9.409l-.644.373ZM59.238 103.41v-4.342l.644-.373v4.343l-.644.372ZM62.344 101.615v-5.936l.644-.372v5.935l-.644.373ZM65.45 99.82v-1.685l.643-.373v1.686l-.644.373Z" fill="#000"/><path opacity=".1" d="M70.848 84.185v14.238c0 .254.178.356.402.229l12.709-7.35a.884.884 0 0 0 .424-.69V76.373c0-.254-.182-.356-.424-.228l-12.709 7.35a.874.874 0 0 0-.402.69Z" fill="#FDAF00"/><path d="m72.484 83.863-.703.403v.813l.703-.407v-.809Z" fill="#FDAF00"/><path d="m75.084 82.572-2.322 1.338a.242.242 0 0 0-.11.19v.221c0 .072.051.097.11.064l2.322-1.34a.25.25 0 0 0 .11-.19v-.22c0-.072-.05-.097-.11-.064Z" fill="#455A64"/><path d="m76.473 81.559-.704.406v.814l.704-.407v-.813Z" fill="#FDAF00"/><path opacity=".25" d="m76.473 81.559-.704.406v.814l.704-.407v-.813Z" fill="#000"/><path d="m79.081 80.288-2.322 1.338a.259.259 0 0 0-.11.191v.225a.068.068 0 0 0 .11.063l2.322-1.339a.245.245 0 0 0 .11-.194v-.22c0-.069-.046-.09-.11-.064Z" fill="#455A64"/><path d="m80.461 79.254-.703.407v.813l.703-.407v-.813Z" fill="#FDAF00"/><path opacity=".4" d="m80.461 79.254-.703.407v.813l.703-.407v-.813Z" fill="#000"/><path d="m83.08 78.009-2.322 1.339a.229.229 0 0 0-.106.19v.22c0 .073.047.098.11.064l2.318-1.339a.234.234 0 0 0 .11-.19v-.22c0-.072-.047-.098-.11-.064Z" fill="#455A64"/><path d="M77.835 84.074c-2.071 1.195-3.753 4.105-3.753 6.495 0 2.389 1.695 3.363 3.753 2.168 2.06-1.194 3.75-4.105 3.75-6.498 0-2.394-1.678-3.376-3.75-2.165Zm-.58 7.664a2.254 2.254 0 0 1-1.097.356c-.8 0-.92-.954-.92-1.525 0-1.987 1.454-4.504 3.174-5.508a2.25 2.25 0 0 1 1.097-.36c.8 0 .923.958.923 1.525 0 1.987-1.453 4.504-3.177 5.499v.013Z" fill="#FDAF00"/><path opacity=".25" d="M78.395 85.062a2.25 2.25 0 0 1 1.097-.36c.5 0 .733.368.848.788l.847-.97c-.614-1.063-1.885-1.305-3.351-.458v1.398c.174-.149.361-.282.56-.398Z" fill="#000"/><path opacity=".4" d="m81.187 84.52-.847.97c.06.24.088.488.085.737a4.46 4.46 0 0 1-.06.699l1.212-.7a3.389 3.389 0 0 0-.398-1.694l.008-.013Z" fill="#000"/><path d="M65.115 51.545c.072-.042.127-.042.165 0a.34.34 0 0 1 .08.136l1.174 4.55a.486.486 0 0 1 .02.11.36.36 0 0 1-.033.148.208.208 0 0 1-.085.102l-.678.394c-.072.042-.123.047-.156 0a.2.2 0 0 1-.055-.102l-.153-.601-1.432.826-.152.775a.52.52 0 0 1-.055.17.369.369 0 0 1-.153.16l-.682.39a.06.06 0 0 1-.08 0 .139.139 0 0 1-.039-.11.9.9 0 0 1 .022-.136l1.169-5.892a.909.909 0 0 1 .076-.229.398.398 0 0 1 .165-.186l.882-.505Zm-.873 4.148.873-.504-.424-1.742-.45 2.246ZM69.446 54.845a.123.123 0 0 1-.148 0 .233.233 0 0 1-.072-.076l-1.233-2.118v2.804a.424.424 0 0 1-.047.182.263.263 0 0 1-.101.127l-.704.424a.08.08 0 0 1-.106 0 .17.17 0 0 1-.042-.131v-5.372c0-.063.015-.125.043-.182a.292.292 0 0 1 .105-.127l.56-.322a.14.14 0 0 1 .148 0c.028.02.053.046.072.076l1.233 2.118V49.44a.424.424 0 0 1 .046-.183.233.233 0 0 1 .102-.122l.703-.424a.09.09 0 0 1 .106 0c.03.037.045.084.042.131v5.363a.458.458 0 0 1-.042.183.25.25 0 0 1-.106.127l-.559.33ZM72.889 47.05c.072-.043.127-.043.165 0a.283.283 0 0 1 .076.14l1.178 4.549a.487.487 0 0 1 .021.11.31.31 0 0 1-.038.148.203.203 0 0 1-.08.102l-.683.394c-.072.042-.122.047-.152 0a.174.174 0 0 1-.055-.102l-.153-.601-1.431.847-.12.767a.653.653 0 0 1-.054.17.382.382 0 0 1-.157.16l-.678.39a.064.064 0 0 1-.084 0 .152.152 0 0 1-.034-.106.836.836 0 0 1 .02-.14l1.174-5.905c.019-.079.046-.156.08-.229a.398.398 0 0 1 .166-.186l.839-.509Zm-.847 4.13.872-.504-.423-1.742-.45 2.246ZM77.418 48.914c.042-.021.076-.021.101 0a.18.18 0 0 1 .047.131v.881a.424.424 0 0 1-.047.182.242.242 0 0 1-.102.128l-2.495 1.44a.076.076 0 0 1-.101 0 .169.169 0 0 1-.043-.132V46.19c0-.063.015-.126.043-.182a.322.322 0 0 1 .101-.128l.708-.423a.076.076 0 0 1 .102 0 .169.169 0 0 1 .042.131v4.236l1.644-.91ZM79.473 48.842a.422.422 0 0 1-.042.182.322.322 0 0 1-.102.127l-.707.424a.076.076 0 0 1-.102 0 .17.17 0 0 1-.042-.131v-1.8l-1.246-2.805a.203.203 0 0 1-.02-.097.313.313 0 0 1 .033-.149.19.19 0 0 1 .085-.102l.737-.423c.072-.042.127-.047.16 0 .03.021.052.05.064.085l.682 1.652.682-2.44c.019-.056.041-.11.068-.161a.385.385 0 0 1 .161-.178l.737-.424a.063.063 0 0 1 .085 0c.025.031.037.07.034.11 0 .04-.007.08-.021.119l-1.246 4.236v1.775ZM82.457 41.449c.19-.122.41-.195.635-.212a.894.894 0 0 1 .496.106.797.797 0 0 1 .33.339c.08.15.122.317.123.487a.325.325 0 0 1-.11.246l-.707.423a.212.212 0 0 1-.123.038.279.279 0 0 1-.144-.097.297.297 0 0 0-.102-.063.325.325 0 0 0-.16 0 .57.57 0 0 0-.238.088 1.46 1.46 0 0 0-.364.297.844.844 0 0 0-.12.2.601.601 0 0 0-.046.232.229.229 0 0 0 .055.178.215.215 0 0 0 .17.055c.109-.004.217-.021.322-.05l.495-.128a1.73 1.73 0 0 1 .517-.068.652.652 0 0 1 .369.14c.11.1.188.23.224.373.053.207.078.421.072.635.002.288-.04.574-.127.848a3.12 3.12 0 0 1-.347.767 3.484 3.484 0 0 1-.525.669 3.363 3.363 0 0 1-.67.508 1.572 1.572 0 0 1-.665.233.894.894 0 0 1-.52-.093.848.848 0 0 1-.361-.381 1.242 1.242 0 0 1-.131-.551.335.335 0 0 1 .038-.148.237.237 0 0 1 .076-.098l.707-.423a.25.25 0 0 1 .12-.043c.03.005.06.018.084.038a.607.607 0 0 1 .068.072.35.35 0 0 0 .114.085c.056.028.12.04.182.034a.618.618 0 0 0 .271-.102c.177-.098.338-.223.479-.368a.67.67 0 0 0 .19-.458.173.173 0 0 0-.067-.165.376.376 0 0 0-.212-.034c-.12.013-.24.037-.356.072l-.517.131a.793.793 0 0 1-.813-.144c-.2-.29-.29-.64-.254-.99 0-.252.036-.501.106-.742.069-.262.171-.514.305-.75a3.39 3.39 0 0 1 .483-.674c.187-.204.406-.377.648-.512ZM84.836 45.97a.076.076 0 0 1-.101 0 .17.17 0 0 1-.043-.131v-5.372c0-.063.015-.125.043-.182a.293.293 0 0 1 .101-.127l.708-.424a.076.076 0 0 1 .102 0 .17.17 0 0 1 .042.132v5.363a.423.423 0 0 1-.043.182.276.276 0 0 1-.101.123l-.708.436ZM87.846 38.322c.19-.121.407-.194.631-.212a.906.906 0 0 1 .5.106c.14.077.255.195.326.339.082.15.125.317.127.487a.335.335 0 0 1-.038.148.187.187 0 0 1-.076.098l-.707.423a.2.2 0 0 1-.119.039.208.208 0 0 1-.097-.047l-.051-.05a.241.241 0 0 0-.098-.064.342.342 0 0 0-.165 0 .539.539 0 0 0-.233.089 1.275 1.275 0 0 0-.364.296.729.729 0 0 0-.119.2.534.534 0 0 0-.046.232.25.25 0 0 0 .05.178.225.225 0 0 0 .174.055c.108-.004.214-.021.318-.05.135-.029.3-.071.496-.128.167-.048.342-.07.516-.067a.677.677 0 0 1 .373.14c.107.1.184.23.22.372.053.208.078.421.072.636.002.286-.04.572-.122.847a3.471 3.471 0 0 1-1.542 1.944 1.584 1.584 0 0 1-.67.233.906.906 0 0 1-.52-.093.848.848 0 0 1-.344-.352 1.242 1.242 0 0 1-.127-.55.395.395 0 0 1 .034-.149.241.241 0 0 1 .08-.097l.703-.424a.25.25 0 0 1 .12-.042.203.203 0 0 1 .088.038l.064.072a.361.361 0 0 0 .3.119.657.657 0 0 0 .272-.102c.175-.099.335-.223.474-.368a.673.673 0 0 0 .216-.483.177.177 0 0 0-.072-.166.376.376 0 0 0-.212-.034c-.12.013-.24.037-.356.072l-.516.132a.784.784 0 0 1-.81-.144 1.458 1.458 0 0 1-.258-.991 2.9 2.9 0 0 1 .106-.742c.073-.26.175-.512.305-.75.133-.243.295-.47.483-.673.177-.203.384-.377.614-.517Z" fill="#455A64"/><path d="m59.857 109.192 35.034-20.224a.699.699 0 0 1 1.106.513l.08.449a1.61 1.61 0 0 1-.724 1.571L60.37 111.7a.721.721 0 0 1-1.131-.508l-.085-.424a1.563 1.563 0 0 1 .703-1.576ZM63.263 128.802l28.294-16.344a.714.714 0 0 1 .805-.045c.081.05.152.116.207.194a.845.845 0 0 1-.457.995l-28.337 16.361c-.423.233-.847.165-.991-.161a.868.868 0 0 1 .479-1Z" fill="#FDAF00"/><path opacity=".7" d="m63.263 128.802 28.294-16.344a.714.714 0 0 1 .805-.045c.081.05.152.116.207.194a.845.845 0 0 1-.457.995l-28.337 16.361c-.423.233-.847.165-.991-.161a.868.868 0 0 1 .479-1Z" fill="#fff"/><path d="m64.416 131.098 17.33-9.993a.693.693 0 0 1 1.01.148.849.849 0 0 1-.454.995l-17.369 10.019c-.424.233-.847.161-.991-.161a.87.87 0 0 1 .474-1.008ZM69.424 139.963l28.544-16.491a.843.843 0 0 1 1.101.097c.208.288.043.712-.364.945l-28.566 16.492a.85.85 0 0 1-1.093-.106c-.194-.276-.03-.699.377-.937Z" fill="#FDAF00"/><path opacity=".7" d="m69.424 139.963 28.544-16.491a.843.843 0 0 1 1.101.097c.208.288.043.712-.364.945l-28.566 16.492a.85.85 0 0 1-1.093-.106c-.194-.276-.03-.699.377-.937Z" fill="#fff"/><path d="m70.878 142.061 11.213-6.473a.848.848 0 0 1 1.106.094c.203.283.042.703-.365.94l-11.213 6.465a.878.878 0 0 1-1.11-.089c-.195-.284-.038-.704.369-.937ZM73.198 145.103l28.603-16.522a.94.94 0 0 1 1.144.077c.224.275.08.69-.322.923l-28.608 16.522a.939.939 0 0 1-1.144-.072c-.224-.284-.08-.695.327-.928Z" fill="#FDAF00"/><path opacity=".7" d="m73.198 145.103 28.603-16.522a.94.94 0 0 1 1.144.077c.224.275.08.69-.322.923l-28.608 16.522a.939.939 0 0 1-1.144-.072c-.224-.284-.08-.695.327-.928Z" fill="#fff"/><path d="m74.838 147.06 11.15-6.439a.97.97 0 0 1 1.165.072c.237.275.102.686-.3.919l-11.138 6.431a.989.989 0 0 1-1.173-.068c-.242-.271-.106-.682.296-.915ZM66.11 134.508l22.384-12.925a.778.778 0 0 1 1.06.123.754.754 0 0 1-.425.97l-22.418 12.946a.747.747 0 0 1-1.042-.131.783.783 0 0 1 .44-.983Z" fill="#FDAF00"/><path opacity=".7" d="m66.11 134.508 22.384-12.925a.778.778 0 0 1 1.06.123.754.754 0 0 1-.425.97l-22.418 12.946a.747.747 0 0 1-1.042-.131.783.783 0 0 1 .44-.983Z" fill="#fff"/><path d="m67.382 136.732 20.41-11.785a.793.793 0 0 1 1.072.119c.19.296 0 .728-.394.966L68.04 137.817a.782.782 0 0 1-1.064-.119.745.745 0 0 1 .407-.966ZM100.343 112.169a.892.892 0 0 1 1.211.403.926.926 0 0 1-.279 1.27.885.885 0 0 1-.693.054.894.894 0 0 1-.523-.456.928.928 0 0 1 .284-1.271ZM105.794 120.795a1.05 1.05 0 0 1 1.317.339.755.755 0 0 1 .058.947.762.762 0 0 1-.252.227 1.08 1.08 0 0 1-1.318-.339.788.788 0 0 1-.174-.632.772.772 0 0 1 .369-.542Z" fill="#FDAF00"/><path opacity=".7" d="M105.794 120.795a1.05 1.05 0 0 1 1.317.339.755.755 0 0 1 .058.947.762.762 0 0 1-.252.227 1.08 1.08 0 0 1-1.318-.339.788.788 0 0 1-.174-.632.772.772 0 0 1 .369-.542Z" fill="#fff"/><path opacity=".1" d="m84.998 158.634 42.541-24.57a2.588 2.588 0 0 1 2.33 0l22.512 12.997c.639.372.639.974 0 1.342l-42.541 24.571a2.565 2.565 0 0 1-2.33 0l-22.508-12.993c-.648-.377-.648-.978-.004-1.347Z" fill="#FDAF00"/><path d="M113.791 166.374a.408.408 0 0 1 .076.055c.02.017.037.037.051.06.013.02.021.043.025.067a.303.303 0 0 1 0 .085l-.021.195.318-.186H114.312l.156.089v.042l-.673.39h-.038a.24.24 0 0 1-.038 0l-.123-.072a.097.097 0 0 1-.038-.034.035.035 0 0 1-.006-.019.03.03 0 0 1 .006-.019l.067-.399a.1.1 0 0 0 0-.076.23.23 0 0 0-.046-.042h-.148a.22.22 0 0 0-.072.025.1.1 0 0 0-.043.043.062.062 0 0 0 0 .038l.021.029v.026a.041.041 0 0 1-.01.013c-.005.004-.01.006-.015.008l-.157.093H113.104a.33.33 0 0 1-.101-.085.183.183 0 0 1-.034-.106c0-.038.012-.075.034-.105a.361.361 0 0 1 .127-.106.643.643 0 0 1 .173-.068.732.732 0 0 1 .187 0c.059 0 .117.008.174.025a.627.627 0 0 1 .127.034ZM113.982 165.877a.907.907 0 0 1 .195-.076.87.87 0 0 1 .204 0 .921.921 0 0 1 .372.106c.046.022.09.048.132.076l.127.077c.047.027.09.061.127.101.031.03.051.068.059.11a.176.176 0 0 1-.025.119.344.344 0 0 1-.132.11.587.587 0 0 1-.398.076.766.766 0 0 1-.195-.033 1.184 1.184 0 0 1-.178-.072l-.131-.072-.131-.081a.417.417 0 0 1-.123-.102.254.254 0 0 1-.064-.114.166.166 0 0 1 .03-.114.436.436 0 0 1 .131-.111Zm.788.301-.245-.144-.077-.034h-.076a.242.242 0 0 0-.076 0l-.081.03a.143.143 0 0 0-.051.047.075.075 0 0 0 0 .042.194.194 0 0 0 .094.089c.079.052.161.1.245.144l.077.034h.076a.242.242 0 0 0 .076 0 .192.192 0 0 0 .076-.03.131.131 0 0 0 .051-.042.064.064 0 0 0 .005-.023.069.069 0 0 0-.005-.024.082.082 0 0 0-.029-.042.364.364 0 0 0-.081-.047h.021ZM116.525 165.193a.376.376 0 0 1 .122.106.167.167 0 0 1 .034.114.197.197 0 0 1-.051.11.35.35 0 0 1-.118.102.68.68 0 0 1-.17.068 1.058 1.058 0 0 1-.194.03.797.797 0 0 1-.386-.094.361.361 0 0 1-.072-.051l-.047-.055a.36.36 0 0 1-.029-.05l-.021-.051-.136-.36v-.022l.203-.118h.06l.093.246a.652.652 0 0 1 .161-.055c.061-.005.121-.005.182 0l.178.025c.066.008.13.027.191.055Zm-.526.301a.186.186 0 0 0 .068.025h.148l.064-.025a.219.219 0 0 0 .042-.038.081.081 0 0 0 0-.038.094.094 0 0 0 0-.047.14.14 0 0 0-.046-.038.234.234 0 0 0-.068-.026h-.148l-.06.026a.13.13 0 0 0-.046.038.18.18 0 0 0-.022.038.124.124 0 0 0 0 .047c.022.02.048.033.077.038h-.009ZM124.861 160.074l.072.051a.173.173 0 0 1 .055.059l.025.072a.243.243 0 0 1 0 .085l-.025.19.322-.182H125.382l.157.093a.023.023 0 0 1 .003.011.023.023 0 0 1-.003.011.02.02 0 0 1 0 .021l-.67.385h-.076l-.127-.076-.038-.03a.041.041 0 0 1-.005-.019c0-.006.002-.013.005-.019l.063-.402a.086.086 0 0 0 0-.072.17.17 0 0 0-.05-.043h-.144a.175.175 0 0 0-.072 0c-.026 0-.039.03-.043.043a.04.04 0 0 0-.004.019c0 .006.001.013.004.019a.193.193 0 0 0 0 .034v.029c0 .009 0 0-.025.022l-.157.089h-.059a.44.44 0 0 1-.102-.085.227.227 0 0 1-.047-.102.187.187 0 0 1 .03-.11.35.35 0 0 1 .123-.106.575.575 0 0 1 .178-.072.963.963 0 0 1 .186 0 .787.787 0 0 1 .174.026.76.76 0 0 1 .178.059ZM125.029 159.578a.574.574 0 0 1 .195-.076.664.664 0 0 1 .199 0 .996.996 0 0 1 .195.034c.061.02.12.045.178.072l.136.076.127.076c.045.03.088.064.127.102a.25.25 0 0 1 .059.114.162.162 0 0 1-.03.115.352.352 0 0 1-.131.114.574.574 0 0 1-.195.076 1.102 1.102 0 0 1-.394-.038.83.83 0 0 1-.178-.072l-.131-.072-.131-.076a.617.617 0 0 1-.127-.106.214.214 0 0 1-.06-.11.165.165 0 0 1 .03-.114.292.292 0 0 1 .131-.115Zm.788.297-.246-.144-.08-.034h-.153a.19.19 0 0 0-.076.029.15.15 0 0 0-.051.043.059.059 0 0 0-.004.023c0 .008.001.016.004.023a.128.128 0 0 0 .03.043l.059.046.25.14.072.034a.249.249 0 0 0 .077 0h.08a.262.262 0 0 0 .076-.03.141.141 0 0 0 .051-.046.054.054 0 0 0 .005-.021.054.054 0 0 0-.005-.022.14.14 0 0 0-.03-.046l-.059-.038ZM125.843 159.511h-.038l.034-.297a.07.07 0 0 1 0-.029l.021-.026.157-.089H126.089l.948.547v.021l-.165.097h-.076l-.64-.368-.021.161a.02.02 0 0 1 0 .021h-.038l-.254-.038ZM136.473 153.338l.076.051c.02.016.037.036.051.059a.228.228 0 0 1 .025.072.303.303 0 0 1 0 .085l-.021.19.318-.182h.038a.081.081 0 0 1 .038 0l.152.089.013.008a.038.038 0 0 1 .009.013l.002.011a.03.03 0 0 1-.002.01l-.674.386a.05.05 0 0 1-.034 0h-.038l-.127-.076a.102.102 0 0 1-.038-.03.032.032 0 0 1-.005-.019c0-.007.001-.013.005-.019l.068-.424a.087.087 0 0 0 .009-.036.091.091 0 0 0-.009-.036.267.267 0 0 0-.047-.042h-.148a.177.177 0 0 0-.072.021.19.19 0 0 0-.043.042.254.254 0 0 0 0 .039.182.182 0 0 0 0 .033v.03c0 .009 0 0-.025.021l-.157.089h-.059a.69.69 0 0 1-.102-.084.214.214 0 0 1-.042-.102.154.154 0 0 1 .029-.11.315.315 0 0 1 .123-.106.653.653 0 0 1 .178-.072.922.922 0 0 1 .182 0 .661.661 0 0 1 .327.089ZM136.64 152.842a.617.617 0 0 1 .199-.076.828.828 0 0 1 .199 0 .983.983 0 0 1 .195.034c.061.021.12.045.178.072l.136.076.127.077c.043.03.084.064.123.101a.216.216 0 0 1 .059.115.135.135 0 0 1-.001.06.14.14 0 0 1-.025.054.41.41 0 0 1-.131.114.62.62 0 0 1-.199.077 1.102 1.102 0 0 1-.394-.038.862.862 0 0 1-.178-.072l-.131-.072-.131-.077a.732.732 0 0 1-.123-.106.188.188 0 0 1-.06-.11.152.152 0 0 1 .001-.06.14.14 0 0 1 .025-.054.324.324 0 0 1 .131-.115Zm.788.297-.246-.144-.076-.03a.253.253 0 0 0-.076-.021h-.076a.178.178 0 0 0-.077.03.137.137 0 0 0-.051.042.046.046 0 0 0-.006.023c0 .009.002.017.006.024a.09.09 0 0 0 .03.042.244.244 0 0 0 .059.047l.246.139.076.034a.249.249 0 0 0 .077 0h.076a.291.291 0 0 0 .076-.029.135.135 0 0 0 .051-.047.075.075 0 0 0 0-.042.157.157 0 0 0-.034-.047l-.055-.021ZM137.451 152.774h-.034a.02.02 0 0 1 0-.021l.03-.297v-.029a.05.05 0 0 1 .021-.026l.156-.089h.034a.053.053 0 0 1 .039 0l.948.547.022.021a.036.036 0 0 1 .002.011.036.036 0 0 1-.002.01l-.17.098H138.425l-.644-.369v.161a.026.026 0 0 1 0 .021h-.076l-.254-.038ZM138.128 152.359a.284.284 0 0 1-.102-.093.153.153 0 0 1-.025-.102.206.206 0 0 1 .051-.106.428.428 0 0 1 .11-.093.897.897 0 0 1 .343-.093.882.882 0 0 1 .178 0c.057.01.111.03.161.059a.328.328 0 0 1 .089.072c.02.023.033.051.038.081a.62.62 0 0 1 .161 0c.05.012.099.03.144.055.04.023.075.055.102.093a.163.163 0 0 1 .021.106.217.217 0 0 1-.055.106.413.413 0 0 1-.123.101.876.876 0 0 1-.17.072.975.975 0 0 1-.186.03.617.617 0 0 1-.182 0 .61.61 0 0 1-.161-.059.276.276 0 0 1-.098-.085.15.15 0 0 1-.029-.089l-.14-.021a.507.507 0 0 1-.127-.034Zm.233-.136a.205.205 0 0 0 .106.022.256.256 0 0 0 .156-.062.111.111 0 0 0 .022-.04.056.056 0 0 0-.008-.038.063.063 0 0 0-.03-.026.27.27 0 0 0-.106 0 .326.326 0 0 0-.119.034c-.038.026-.055.047-.059.072.005.016.015.03.029.038h.009Zm.398.25a.17.17 0 0 0 .106.022.298.298 0 0 0 .136-.043c.046-.029.072-.055.076-.08.004-.026 0-.043-.034-.06a.177.177 0 0 0-.106-.021.294.294 0 0 0-.135.043c-.047.029-.073.055-.077.08-.004.026-.004.042.026.059h.008ZM146.068 147.802a.227.227 0 0 1 .072.05.186.186 0 0 1 .055.06c.013.02.021.043.025.068a.237.237 0 0 1 0 .084l-.025.195.322-.186H146.589l.157.089v.025c0 .026 0 0 0 0l-.67.39H146l-.127-.072-.038-.034a.041.041 0 0 1-.005-.019c0-.007.002-.013.005-.019l.063-.398a.103.103 0 0 0 0-.077.117.117 0 0 0-.05-.038h-.144a.222.222 0 0 0-.072.026.08.08 0 0 0-.043.042.04.04 0 0 0-.004.019.04.04 0 0 0 .004.019.076.076 0 0 0 0 .03v.046l-.025.026-.157.089h-.03a.032.032 0 0 1-.014.003.033.033 0 0 1-.015-.003.289.289 0 0 1-.102-.085.192.192 0 0 1-.047-.102.175.175 0 0 1 .03-.106.371.371 0 0 1 .123-.11.75.75 0 0 1 .178-.067.644.644 0 0 1 .186 0 .568.568 0 0 1 .174.025.49.49 0 0 1 .178.03ZM146.236 147.301a.858.858 0 0 1 .195-.076.828.828 0 0 1 .199 0 .76.76 0 0 1 .195.034.81.81 0 0 1 .178.072c.047.022.092.048.136.076l.127.076c.047.027.09.062.127.102.029.031.05.069.059.11a.179.179 0 0 1-.029.119.363.363 0 0 1-.132.114.798.798 0 0 1-.195.076.737.737 0 0 1-.199 0 .766.766 0 0 1-.195-.033 1.184 1.184 0 0 1-.178-.072l-.131-.072-.131-.081a.483.483 0 0 1-.127-.102.229.229 0 0 1-.06-.11.175.175 0 0 1 .03-.118.362.362 0 0 1 .131-.115Zm.788.318-.245-.144-.081-.034h-.072a.18.18 0 0 0-.08 0l-.077.025a.133.133 0 0 0-.05.047.04.04 0 0 0-.005.021c0 .008.001.015.005.021a.12.12 0 0 0 .029.047l.059.042c.077.051.161.098.246.144l.076.034h.081a.14.14 0 0 0 .076 0 .252.252 0 0 0 .076-.025.176.176 0 0 0 .051-.047.05.05 0 0 0 .005-.021.054.054 0 0 0-.005-.021.08.08 0 0 0-.029-.047l-.06-.042ZM147.044 147.234a.053.053 0 0 1-.039 0 .037.037 0 0 1 0-.021l.034-.3a.113.113 0 0 1 0-.026l.021-.025.157-.089a.04.04 0 0 1 .034 0h.038l.949.55a.023.023 0 0 1 .003.011.023.023 0 0 1-.003.011v.021l-.165.093h-.076l-.64-.373v.165h-.038l-.275-.017ZM147.716 146.871a.35.35 0 0 1-.123-.106.167.167 0 0 1-.029-.115.168.168 0 0 1 .046-.11.371.371 0 0 1 .115-.093.627.627 0 0 1 .16-.068.761.761 0 0 1 .195-.025.795.795 0 0 1 .195 0 .653.653 0 0 1 .187.072l.072.051a.26.26 0 0 1 .042.051l.034.05a.228.228 0 0 0 .021.051l.144.365-.203.118h-.06l-.101-.245a.857.857 0 0 1-.157.046.723.723 0 0 1-.174 0 .892.892 0 0 1-.178-.021.588.588 0 0 1-.186-.021Zm.508-.293a.14.14 0 0 0-.063-.025h-.14a.14.14 0 0 0-.063.025.18.18 0 0 0-.043.034.155.155 0 0 0 0 .043.081.081 0 0 0 0 .038.077.077 0 0 0 .043.038.14.14 0 0 0 .063.025h.14a.14.14 0 0 0 .063-.025.158.158 0 0 0 .043-.034.075.075 0 0 0 0-.042.081.081 0 0 0 0-.038.096.096 0 0 0-.043-.039Z" fill="#455A64"/><path opacity=".3" d="M104.699 167.149c1.042-.626-7.121-5.507-3.537-7.498 3.584-1.991 9.379 2.767 12.98.682 3.423-1.982-7.075-6.833-3.542-8.858 3.533-2.025 10.46 3.36 14.167 1.364 3.219-1.737-.649-3.668.876-5.143 1.526-1.474 5.601.339 8.24-1.105 2.639-1.445-7.329-4.66-1.868-7.833l12.747 7.363-38.127 22.151-1.936-1.123Z" fill="#FDAF00"/><path d="m105.141 167.229-.877-.165c.25-.161-.694-1.067-1.457-1.796-1.906-1.83-4.516-4.338-2.076-5.702a4.93 4.93 0 0 1 2.174-.576c1.652-.089 3.367.423 5.024.889 1.495.424 3.041.886 4.236.818a3.334 3.334 0 0 0 1.534-.449c1.588-.919-.144-2.605-1.813-4.236-1.78-1.737-3.622-3.533-1.725-4.618a4.6 4.6 0 0 1 2.072-.538c1.8-.085 3.698.525 5.71 1.169 1.78.568 3.614 1.157 4.987 1.098.488-.014.966-.14 1.398-.369 1.753-.945 1.27-1.966.847-2.965-.352-.767-.686-1.496 0-2.161.898-.868 2.749-.762 4.236-.678 1.555.089 2.898.17 4.05-.461.949-.517-.047-1.382-1.199-2.381-1.796-1.563-4.033-3.508-.678-5.444l.873.165c-3.118 1.801-.974 3.66.746 5.16 1.245 1.08 2.321 2.017 1.118 2.677-1.504.822-3.486.708-5.084.615-1.597-.093-2.499-.14-3.117.457-.619.598-.293 1.271.042 2 .462.995.983 2.118-.97 3.173a4.877 4.877 0 0 1-2.118.525c-1.847.081-3.771-.534-5.808-1.186-1.754-.564-3.563-1.14-4.876-1.08a2.956 2.956 0 0 0-1.343.377c-1.665.953.101 2.673 1.804 4.342 1.826 1.779 3.55 3.465 1.737 4.516a4.98 4.98 0 0 1-2.241.61c-1.669.093-3.389-.424-5.083-.894-1.483-.424-3.017-.877-4.203-.813a3.334 3.334 0 0 0-1.47.423c-2.198 1.233.424 3.754 2.165 5.423 1.258 1.207 1.843 1.8 1.385 2.075Z" fill="#FDAF00"/><path d="M111.568 152.03a.46.46 0 0 1-.267-.021l-.195-.115c-.05-.029 0-.068.073-.089a.474.474 0 0 1 .266.026l.195.11c.051.034.021.072-.072.089ZM122.687 158.452a.487.487 0 0 1-.267-.025l-.389-.216c-.051-.03-.021-.072.072-.089a.42.42 0 0 1 .262.025l.399.229c.046.017.012.055-.077.076Zm-.796-.462a.452.452 0 0 1-.267-.021l-.394-.228c-.055-.034-.021-.073.068-.089a.486.486 0 0 1 .267.021l.398.233c.068.029.021.067-.072.084Zm-.792-.457a.485.485 0 0 1-.267 0l-.398-.233c-.051-.03-.022-.068.072-.085a.45.45 0 0 1 .267 0l.394.229c.055.034.016.072-.068.089Zm-.797-.458a.453.453 0 0 1-.267-.025l-.394-.229c-.055-.029-.021-.068.072-.089a.481.481 0 0 1 .263.026l.398.228c.051.03.022.072-.072.089Zm-.792-.457a.479.479 0 0 1-.267-.026l-.398-.228c-.051-.03-.021-.072.072-.089a.451.451 0 0 1 .267.025l.394.229c.055.03.021.068-.068.089Zm-.796-.462a.422.422 0 0 1-.263 0l-.398-.229c-.055-.034-.021-.072.072-.089a.49.49 0 0 1 .263 0l.398.233c.055.022.021.068-.072.085Zm-.792-.457a.486.486 0 0 1-.267-.022l-.399-.228c-.05-.034-.021-.072.072-.089a.45.45 0 0 1 .267.021l.394.229c.055.034.026.059-.067.089Zm-.797-.454a.424.424 0 0 1-.263-.025l-.398-.229c-.055-.03-.021-.068.072-.089a.464.464 0 0 1 .263.026l.398.228c.055.026.021.089-.072.089Zm-.792-.457a.478.478 0 0 1-.267-.026l-.398-.228c-.051-.03-.021-.072.072-.089a.453.453 0 0 1 .267.025l.394.229c.055.025.025.063-.068.085v.004Zm-.796-.462a.423.423 0 0 1-.263-.021l-.398-.229c-.055-.034-.022-.072.072-.089a.414.414 0 0 1 .262.026l.399.228c.067.026.021.064-.072.081v.004Zm-.793-.457a.487.487 0 0 1-.267-.022l-.398-.228c-.051-.034-.021-.072.072-.089a.452.452 0 0 1 .267.021l.398.229c.051.029.013.067-.072.084v.005Zm-.796-.458a.424.424 0 0 1-.263-.025l-.398-.229c-.055-.03-.021-.068.072-.089a.473.473 0 0 1 .263.025l.398.229c.055.025.021.068-.072.085v.004Zm-.792-.458a.477.477 0 0 1-.267-.025l-.394-.229c-.055-.029-.026-.072.068-.089a.474.474 0 0 1 .266.026l.399.229c.051.025.021.067-.072.084v.004Zm-.797-.457a.469.469 0 0 1-.262-.025l-.399-.229c-.055-.03-.021-.072.072-.089a.424.424 0 0 1 .263.025l.398.229c.055.025.021.064-.072.085v.004ZM123.277 158.79a.487.487 0 0 1-.267-.022l-.19-.114c-.055-.03-.022-.068.067-.089a.486.486 0 0 1 .267.025l.195.111c.051.033.021.072-.072.089ZM110.937 165.183a.486.486 0 0 1-.267-.025l-.398-.229c-.051-.03-.022-.072.072-.089a.453.453 0 0 1 .267.025l.398.229c.051.03.008.068-.072.089Zm-.797-.462a.42.42 0 0 1-.262-.021l-.399-.229c-.055-.034-.021-.072.072-.089a.472.472 0 0 1 .263.022l.398.233c.055.029.021.067-.072.084Zm-.792-.457a.496.496 0 0 1-.267-.021l-.394-.229c-.055-.034-.025-.072.068-.089a.452.452 0 0 1 .267.021l.398.229c.051.034.021.072-.072.089Zm-.796-.458a.424.424 0 0 1-.263-.025l-.398-.229c-.055-.03-.021-.068.072-.089a.46.46 0 0 1 .262.026l.399.228c.055.03.021.072-.072.089Zm-.793-.457a.474.474 0 0 1-.266-.026l-.394-.228c-.055-.03-.026-.072.067-.089a.451.451 0 0 1 .267.025l.399.229c.05.034.021.068-.073.089Zm-.796-.458a.473.473 0 0 1-.263-.025l-.398-.229c-.055-.034-.021-.072.072-.089a.424.424 0 0 1 .263.025l.398.229c.055.03.021.068-.072.089Zm-.792-.445a.485.485 0 0 1-.267 0l-.394-.228c-.055-.034-.021-.072.068-.089a.45.45 0 0 1 .267 0l.398.228c.051.017.021.056-.072.089Zm-.797-.457a.414.414 0 0 1-.262-.026l-.398-.228c-.051-.03-.022-.068.072-.089a.487.487 0 0 1 .267.025l.393.229c.064.013.022.055-.072.072v.017Zm-.792-.458a.487.487 0 0 1-.267-.025l-.394-.229c-.055-.029-.021-.072.068-.089a.478.478 0 0 1 .267.026l.398.228c.051.013.009.055-.072.072v.017Zm-.792-.457a.478.478 0 0 1-.267-.026l-.398-.228c-.051-.03-.021-.072.072-.089a.452.452 0 0 1 .267.025l.394.229c.055.013.021.051-.068.072v.017Zm-.796-.462a.423.423 0 0 1-.263-.021l-.398-.229c-.055-.034-.021-.072.072-.089a.486.486 0 0 1 .262.021l.399.229c.051.017.021.055-.072.072v.017Zm-.793-.457a.45.45 0 0 1-.266-.026l-.399-.229c-.05-.029-.021-.067.072-.084a.452.452 0 0 1 .267.021l.394.229c.055.017.021.055-.068.072v.017ZM111.523 165.522a.472.472 0 0 1-.263-.021l-.194-.115c-.055-.029-.022-.067.072-.089a.46.46 0 0 1 .262.026l.195.11c.055.034.021.072-.072.089ZM126.988 147.662a.418.418 0 0 1-.263-.026l-.194-.11c-.055-.034-.022-.072.067-.089a.486.486 0 0 1 .267.022l.195.114c.055.047.021.072-.072.089ZM134.082 151.759a.486.486 0 0 1-.267-.025l-.394-.229c-.051-.029-.021-.068.072-.085a.467.467 0 0 1 .267 0l.394.229c.051.051.021.093-.072.11Zm-.788-.457a.46.46 0 0 1-.267-.021l-.394-.229c-.055-.03 0-.072.072-.089a.424.424 0 0 1 .263.025l.398.225c.051.034.021.072-.072.089Zm-.788-.453a.453.453 0 0 1-.267-.026l-.394-.224c-.055-.034-.021-.072.072-.089a.423.423 0 0 1 .263.021l.394.229c.046.029.046.072-.068.089Zm-.788-.458a.452.452 0 0 1-.267-.021l-.394-.229c-.055-.03-.021-.072.072-.089a.464.464 0 0 1 .263.026l.394.228c.055.03.025.068-.068.085Zm-.792-.453a.425.425 0 0 1-.263-.026l-.394-.224c-.055-.034-.021-.072.072-.089a.472.472 0 0 1 .263.021l.394.229c.055.029.021.072-.072.089Zm-.788-.453a.465.465 0 0 1-.263-.026l-.394-.229c-.055-.029 0-.067.072-.089a.463.463 0 0 1 .263.026l.394.229c.055.029.021.067-.072.089Zm-.788-.458a.472.472 0 0 1-.263-.021l-.394-.229c-.055-.034-.021-.072.068-.089a.451.451 0 0 1 .267.025l.394.225c.055.034.021.072-.072.089Zm-.788-.453a.465.465 0 0 1-.263-.026l-.394-.228c-.055-.03-.025-.068.068-.089a.477.477 0 0 1 .267.025l.394.229c.055.029.021.068-.072.089Zm-.788-.458a.472.472 0 0 1-.263-.021l-.394-.229c-.055-.029-.025-.072.068-.089a.444.444 0 0 1 .267.026l.394.224c.055.017.021.072-.072.089ZM134.67 152.097a.444.444 0 0 1-.267-.025l-.195-.11c-.051-.03-.021-.072.072-.089a.451.451 0 0 1 .267.025l.195.111c.051.029.021.072-.072.088ZM109.926 149.565l-1.821-1.055-2.398 1.394 1.822 1.05.995-.58 1.148.398-.512-.767v.004l.766-.444ZM100.388 157.931l-1.822-1.05-2.402 1.389 1.822 1.051 1-.576 1.143.394-.508-.763h-.004l.771-.445ZM125.922 145.662l-1.821-1.051-2.398 1.39 1.817 1.05 1-.58 1.148.398-.512-.762.766-.445ZM120.683 173.122h.051a.075.075 0 0 1 .055 0l.229.132a.042.042 0 0 1 .018.011.049.049 0 0 1 .011.018.097.097 0 0 1 0 .034l.039.28c.123-.038.252-.055.381-.051.126.004.25.039.36.102.165.093.237.195.22.296-.017.102-.11.204-.284.305-.085.05-.176.088-.271.115a1.083 1.083 0 0 1-.271.046.921.921 0 0 1-.246 0 .53.53 0 0 1-.199-.068l-.021-.025a.028.028 0 0 1 0-.025l.233-.136a.191.191 0 0 1 .081-.021h.224a.447.447 0 0 0 .136-.055.26.26 0 0 0 .114-.106c0-.034 0-.068-.051-.098a.255.255 0 0 0-.169-.029.615.615 0 0 0-.182.068l-.157.088a.065.065 0 0 1-.051 0 .103.103 0 0 1-.055 0l-.186-.105s-.026-.022-.03-.034c-.004-.013 0-.026 0-.034l-.034-.25-.483.284a.15.15 0 0 1-.11 0l-.229-.132a.061.061 0 0 1-.025-.034.033.033 0 0 1-.004-.014c0-.005.002-.011.004-.015l.902-.547ZM121.496 172.613a.965.965 0 0 1 .289-.11c.098-.014.198-.014.296 0a1.249 1.249 0 0 1 .547.157l.194.106c.068.042.132.076.187.114.067.043.129.093.186.148a.352.352 0 0 1 .085.166.252.252 0 0 1-.038.169.52.52 0 0 1-.195.165.935.935 0 0 1-.288.115 1.189 1.189 0 0 1-.292 0 1.137 1.137 0 0 1-.284-.051 1.625 1.625 0 0 1-.263-.106l-.191-.106-.19-.114a.858.858 0 0 1-.187-.153.308.308 0 0 1-.084-.165.256.256 0 0 1 .038-.17.55.55 0 0 1 .19-.165Zm1.157.424c-.119-.072-.237-.144-.36-.208l-.115-.051a.503.503 0 0 0-.224-.025.417.417 0 0 0-.11.042.198.198 0 0 0-.076.064.066.066 0 0 0-.008.034c0 .012.002.023.008.034a.14.14 0 0 0 .042.063.516.516 0 0 0 .089.064c.11.072.233.144.36.212l.11.046a.375.375 0 0 0 .115.03.338.338 0 0 0 .224-.042.193.193 0 0 0 .072-.064.072.072 0 0 0 .008-.032.072.072 0 0 0-.008-.032.128.128 0 0 0-.042-.067l-.085-.068ZM123.104 172.067c.056.027.11.058.161.093.038.02.071.047.098.081a.169.169 0 0 1 .042.088.123.123 0 0 1-.025.089.234.234 0 0 1-.102.085.414.414 0 0 1-.305.059l-.152-.025a.992.992 0 0 1-.14-.055l-.085-.047-.08-.05a.367.367 0 0 1-.094-.081.166.166 0 0 1-.046-.089.119.119 0 0 1 .025-.089.312.312 0 0 1 .102-.085.564.564 0 0 1 .152-.059.517.517 0 0 1 .157 0c.05.001.1.008.148.021.05.017.098.038.144.064Zm-.22.301a.557.557 0 0 0 .106.038.154.154 0 0 0 .085 0c.025 0 .038-.034.029-.051a.163.163 0 0 0-.063-.059 1.752 1.752 0 0 0-.144-.085.422.422 0 0 0-.102-.034.124.124 0 0 0-.085 0c-.029 0-.038.03-.029.047a.178.178 0 0 0 .063.059c.042.031.086.059.132.085h.008Zm.424-.721a.037.037 0 0 1 0-.029l.029-.03.153-.089a.077.077 0 0 1 .042-.013c.015 0 .03.005.043.013l.478 1.339a.05.05 0 0 1 0 .034.08.08 0 0 1-.029.029l-.153.089h-.046a.079.079 0 0 1-.043 0l-.474-1.343Zm1.402.352c.057.029.112.061.165.097.037.022.07.049.098.081a.16.16 0 0 1 .042.085.13.13 0 0 1-.025.093.241.241 0 0 1-.102.085.527.527 0 0 1-.148.059.517.517 0 0 1-.157 0 .656.656 0 0 1-.153-.021.897.897 0 0 1-.139-.06.61.61 0 0 1-.085-.042l-.081-.051a.616.616 0 0 1-.097-.08.203.203 0 0 1-.042-.089.119.119 0 0 1 .025-.089.289.289 0 0 1 .102-.085.434.434 0 0 1 .152-.059.983.983 0 0 1 .453.076h-.008Zm-.216.301a.363.363 0 0 0 .106.038c.027.01.057.01.084 0 .026 0 .039-.03.03-.047a.163.163 0 0 0-.068-.059 1.1 1.1 0 0 0-.139-.085l-.102-.034a.124.124 0 0 0-.085 0c-.029 0-.038.034-.029.051a.165.165 0 0 0 .063.06c.046.03.096.056.148.076h-.008Z" fill="#455A64"/><path d="m118.218 171.89-1.576-.466a2.364 2.364 0 0 0-.542 1.991l1.741-.161a1.697 1.697 0 0 1 .377-1.364ZM116.84 171.199l1.572.462c.216-.218.461-.404.728-.555.307-.173.631-.315.966-.424l-.801-.907c-.49.154-.963.358-1.41.61a4.796 4.796 0 0 0-1.055.814ZM122.876 170.352l.275-1.004a10.493 10.493 0 0 0-3.444.313l.801.907a7.584 7.584 0 0 1 2.368-.216ZM117.909 173.508l-1.745.157a3.557 3.557 0 0 0 1.584 1.791l1.246-.715a2.585 2.585 0 0 1-1.085-1.233ZM119.304 174.918l-1.249.72c.975.5 2.036.81 3.126.915l.275-1.008a6.148 6.148 0 0 1-2.152-.627ZM121.873 175.579l-.275 1.004a10.602 10.602 0 0 0 3.444-.313l-.801-.907a7.705 7.705 0 0 1-2.368.216ZM125.598 174.834a4.962 4.962 0 0 1-.961.424l.8.911c.49-.153.962-.359 1.407-.615a4.79 4.79 0 0 0 1.059-.809l-1.572-.466a3.51 3.51 0 0 1-.733.555ZM126.527 174.05l1.572.462a2.325 2.325 0 0 0 .542-1.987l-1.741.157a1.69 1.69 0 0 1-.373 1.368ZM125.42 171.022l1.246-.72a8.607 8.607 0 0 0-3.105-.915l-.276 1.004c.744.08 1.467.294 2.135.631ZM126.833 172.431l1.745-.161a3.535 3.535 0 0 0-1.584-1.791l-1.271.72c.497.275.888.709 1.11 1.232Z" fill="#FDAF00"/><path opacity=".3" d="m116.84 171.199 1.572.462c.216-.218.461-.404.728-.555.307-.173.631-.315.966-.424l-.801-.907c-.49.154-.963.358-1.41.61a4.796 4.796 0 0 0-1.055.814ZM122.876 170.352l.275-1.004a10.493 10.493 0 0 0-3.444.313l.801.907a7.584 7.584 0 0 1 2.368-.216ZM125.42 171.022l1.246-.72a8.607 8.607 0 0 0-3.105-.915l-.276 1.004c.744.08 1.467.294 2.135.631Z" fill="#000"/><path d="M136.501 165.208H136.734l.089-.038a.186.186 0 0 0 .064-.051.138.138 0 0 0 .025-.055.073.073 0 0 0 .006-.03c0-.01-.002-.02-.006-.029a.147.147 0 0 0-.068-.055.314.314 0 0 0-.169-.043.364.364 0 0 0-.182.051.16.16 0 0 0-.039.034l-.025.038v.03h-.021l-.288.169a.075.075 0 0 1-.055 0 .086.086 0 0 1-.055 0l-.712-.474a.065.065 0 0 1-.025-.034.04.04 0 0 1 0-.03l.796-.457a.103.103 0 0 1 .055 0h.055l.229.131a.046.046 0 0 1 .018.013.038.038 0 0 1 .007.021.04.04 0 0 1 0 .03l-.542.313.178.114a.204.204 0 0 1 .042-.063.357.357 0 0 1 .081-.064c.073-.041.151-.074.233-.097a1.108 1.108 0 0 1 .525-.004c.091.023.178.059.259.106a.526.526 0 0 1 .182.156.225.225 0 0 1 .055.161.278.278 0 0 1-.072.157.563.563 0 0 1-.178.144 1.102 1.102 0 0 1-.788.123.949.949 0 0 1-.208-.072s-.021 0-.021-.03a.02.02 0 0 1 0-.021l.237-.14a.201.201 0 0 1 .06 0l.025-.004ZM136.856 163.748a.97.97 0 0 1 .288-.11 1.101 1.101 0 0 1 .581.025c.089.028.175.063.258.106l.199.11c.068.038.131.076.187.115.067.04.128.09.182.148a.326.326 0 0 1 .089.165.257.257 0 0 1-.038.169.61.61 0 0 1-.195.166.856.856 0 0 1-.288.11 1.154 1.154 0 0 1-.293.025 1.06 1.06 0 0 1-.284-.051 1.647 1.647 0 0 1-.262-.105l-.195-.106-.186-.115a.83.83 0 0 1-.187-.152.334.334 0 0 1-.089-.165.234.234 0 0 1 .043-.17.54.54 0 0 1 .19-.165Zm1.157.423c-.119-.072-.238-.144-.36-.207a.62.62 0 0 0-.115-.051l-.11-.025a.35.35 0 0 0-.224.046.209.209 0 0 0-.077.064.077.077 0 0 0 0 .068.143.143 0 0 0 .043.063.516.516 0 0 0 .089.064 3.568 3.568 0 0 0 .47.258.494.494 0 0 0 .114.025.29.29 0 0 0 .11 0 .296.296 0 0 0 .115-.042.182.182 0 0 0 .072-.063.077.077 0 0 0 0-.068.157.157 0 0 0-.047-.064.454.454 0 0 0-.068-.055l-.012-.013ZM138.475 163.184c.057.028.113.061.165.097.037.021.07.049.098.081a.141.141 0 0 1 .042.084.13.13 0 0 1-.025.094.261.261 0 0 1-.102.084.5.5 0 0 1-.148.06.986.986 0 0 1-.309-.026.963.963 0 0 1-.14-.059l-.085-.043-.08-.05a.51.51 0 0 1-.098-.081.21.21 0 0 1-.042-.089.119.119 0 0 1 .025-.089.297.297 0 0 1 .102-.084.465.465 0 0 1 .152-.06.879.879 0 0 1 .305.026.768.768 0 0 1 .14.055Zm-.216.305c.034.015.07.026.106.034.027.01.057.01.085 0 .025 0 .038-.03.029-.047a.16.16 0 0 0-.067-.059 1.187 1.187 0 0 0-.14-.085l-.102-.034a.102.102 0 0 0-.085 0c-.029 0-.038.03-.029.047a.17.17 0 0 0 .063.059c.045.032.091.06.14.085Zm.424-.72a.04.04 0 0 1 0-.034l.029-.026.153-.089a.077.077 0 0 1 .042-.013c.015 0 .03.005.043.013l.478 1.339a.097.097 0 0 1 0 .034.08.08 0 0 1-.029.029l-.153.085a.072.072 0 0 1-.046 0h-.043l-.474-1.338Zm1.406.351.165.093a.664.664 0 0 1 .098.085.146.146 0 0 1 .042.085.14.14 0 0 1-.025.093.38.38 0 0 1-.102.085.552.552 0 0 1-.152.059.49.49 0 0 1-.153 0 .49.49 0 0 1-.152-.025.68.68 0 0 1-.14-.055l-.085-.043-.08-.051a.623.623 0 0 1-.098-.08.215.215 0 0 1-.042-.089.119.119 0 0 1 .025-.089.311.311 0 0 1 .102-.089.639.639 0 0 1 .152-.059.56.56 0 0 1 .153 0l.152.025c.05.014.098.032.144.055h-.004Zm-.216.301a.363.363 0 0 0 .106.038c.027.01.057.01.085 0 .025 0 .034-.03.025-.047a.21.21 0 0 0-.063-.063 1.304 1.304 0 0 0-.14-.081.363.363 0 0 0-.106-.038.175.175 0 0 0-.085 0c-.025.017-.034.034-.025.051 0 0 .029.034.063.059.046.031.094.058.144.081h-.004Z" fill="#455A64"/><path d="m133.605 162.997-1.571-.466a2.34 2.34 0 0 0-.543 1.991l1.742-.161a1.693 1.693 0 0 1 .372-1.364ZM132.23 162.306l1.572.462c.219-.216.466-.403.733-.555.305-.173.628-.315.962-.424l-.801-.906c-.489.153-.96.357-1.406.61a4.79 4.79 0 0 0-1.06.813ZM138.259 161.459l.275-1.004a10.464 10.464 0 0 0-3.444.314l.801.906a7.644 7.644 0 0 1 2.368-.216ZM133.3 164.615l-1.745.157a3.562 3.562 0 0 0 1.588 1.792l1.246-.716a2.598 2.598 0 0 1-1.089-1.233ZM134.701 166.025l-1.271.721a8.64 8.64 0 0 0 3.105.915l.275-1.009a6.071 6.071 0 0 1-2.109-.627ZM137.279 166.683l-.275 1.004a10.602 10.602 0 0 0 3.444-.313l-.801-.911a7.738 7.738 0 0 1-2.368.22ZM140.993 165.942c-.307.173-.63.315-.966.423l.801.911a6.987 6.987 0 0 0 1.411-.614 4.82 4.82 0 0 0 1.059-.809l-1.576-.466a3.395 3.395 0 0 1-.729.555ZM141.941 165.158l1.576.462a2.344 2.344 0 0 0 .543-1.987l-1.742.157a1.691 1.691 0 0 1-.377 1.368ZM140.827 162.129l1.249-.72a8.686 8.686 0 0 0-3.105-.915l-.28 1.004a6.22 6.22 0 0 1 2.136.631ZM142.229 163.539l1.741-.161a3.5 3.5 0 0 0-1.584-1.792l-1.245.72c.488.281.87.714 1.088 1.233Z" fill="#FDAF00"/><path opacity=".3" d="m132.23 162.306 1.572.462c.219-.216.466-.403.733-.555.305-.173.628-.315.962-.424l-.801-.906c-.489.153-.96.357-1.406.61a4.79 4.79 0 0 0-1.06.813ZM138.259 161.459l.275-1.004a10.464 10.464 0 0 0-3.444.314l.801.906a7.644 7.644 0 0 1 2.368-.216ZM141.941 165.158l1.576.462a2.344 2.344 0 0 0 .543-1.987l-1.742.157a1.691 1.691 0 0 1-.377 1.368ZM140.827 162.129l1.249-.72a8.686 8.686 0 0 0-3.105-.915l-.28 1.004a6.22 6.22 0 0 1 2.136.631ZM142.229 163.539l1.741-.161a3.5 3.5 0 0 0-1.584-1.792l-1.245.72c.488.281.87.714 1.088 1.233Z" fill="#000"/><path d="M152.193 156.6h-.021l-.682-.848-.555.322a.065.065 0 0 1-.051 0 .122.122 0 0 1-.06 0l-.224-.131a.049.049 0 0 1-.018-.014.045.045 0 0 1-.012-.02s0-.021.022-.029l.889-.513a.089.089 0 0 1 .051 0 .147.147 0 0 1 .059 0l.199.114c.031.023.059.05.081.081l.682.847v.034a.04.04 0 0 1 0 .03l-.259.148a.06.06 0 0 1-.023.005.06.06 0 0 1-.023-.005.091.091 0 0 1-.055-.021ZM152.201 154.889c.09-.051.187-.088.288-.111.098-.014.198-.014.297 0 .096.005.192.022.283.051.091.027.179.062.263.106l.195.11.186.111a.928.928 0 0 1 .183.148.317.317 0 0 1 .088.165.24.24 0 0 1-.038.169.56.56 0 0 1-.195.17c-.09.051-.187.088-.288.11a1.098 1.098 0 0 1-.292 0 1.06 1.06 0 0 1-.284-.051 1.24 1.24 0 0 1-.262-.106l-.191-.106c-.072-.038-.131-.076-.191-.114a.853.853 0 0 1-.186-.152.32.32 0 0 1-.085-.161.242.242 0 0 1 .002-.089.237.237 0 0 1 .036-.081.502.502 0 0 1 .191-.169Zm1.156.423-.36-.207-.114-.047a.417.417 0 0 0-.225-.03.412.412 0 0 0-.11.043.172.172 0 0 0-.076.068.065.065 0 0 0 0 .063.146.146 0 0 0 .042.064l.089.067c.111.072.233.14.361.208l.11.051.114.025a.506.506 0 0 0 .11 0 .43.43 0 0 0 .115-.042.195.195 0 0 0 .072-.068.071.071 0 0 0 .007-.032.064.064 0 0 0-.007-.031.131.131 0 0 0-.047-.064.512.512 0 0 0-.059-.055l-.022-.013ZM153.804 154.331a1.025 1.025 0 0 1 .258.173.175.175 0 0 1 .042.089.119.119 0 0 1-.025.089.274.274 0 0 1-.102.089.61.61 0 0 1-.148.059h-.157l-.152-.025a.992.992 0 0 1-.14-.055l-.085-.047-.08-.046a.72.72 0 0 1-.098-.085.18.18 0 0 1-.042-.085.14.14 0 0 1 .025-.093.38.38 0 0 1 .102-.085.63.63 0 0 1 .457-.059c.052.02.1.047.145.081Zm-.221.3a.363.363 0 0 0 .106.038c.027.01.058.01.085 0 .025 0 .038-.033.03-.05a.164.164 0 0 0-.068-.06 1.147 1.147 0 0 0-.14-.08.314.314 0 0 0-.106-.038.11.11 0 0 0-.08 0c-.03 0-.039.029-.03.046a.214.214 0 0 0 .063.064c.048.03.097.057.149.08h-.009Zm.424-.716a.05.05 0 0 1 0-.034l.03-.029.152-.089a.072.072 0 0 1 .042-.013c.015 0 .03.004.043.013l.478 1.339a.092.092 0 0 1 0 .033.06.06 0 0 1-.029.03l-.153.089a.09.09 0 0 1-.046 0 .079.079 0 0 1-.043 0l-.474-1.339Zm1.406.352c.058.026.114.057.166.093.035.022.068.05.097.081a.155.155 0 0 1 .042.089.121.121 0 0 1-.025.089.297.297 0 0 1-.102.084.436.436 0 0 1-.148.06.986.986 0 0 1-.309-.026 1.312 1.312 0 0 1-.14-.055l-.085-.046-.08-.051a.51.51 0 0 1-.098-.081.21.21 0 0 1-.042-.089.123.123 0 0 1 .025-.089.307.307 0 0 1 .102-.084.422.422 0 0 1 .305-.06.656.656 0 0 1 .153.021.875.875 0 0 1 .152.064h-.013Zm-.216.301c.034.015.07.026.106.034.027.01.058.01.085 0 .025 0 .034-.034.03-.051a.164.164 0 0 0-.068-.06.844.844 0 0 0-.246-.118.124.124 0 0 0-.085 0c-.025 0-.034.03-.025.046.008.017.03.039.063.06.049.033.1.063.153.089h-.013Z" fill="#455A64"/><path d="m148.999 154.105-1.576-.466a2.362 2.362 0 0 0-.542 1.991l1.741-.161a1.687 1.687 0 0 1 .377-1.364ZM147.625 153.416l1.572.461c.218-.217.464-.403.733-.555.305-.173.627-.315.961-.423l-.8-.907a7.283 7.283 0 0 0-1.407.61 4.819 4.819 0 0 0-1.059.814ZM153.649 152.567l.276-1.004a10.497 10.497 0 0 0-3.445.313l.805.907a7.561 7.561 0 0 1 2.364-.216ZM148.695 155.725l-1.746.156a3.57 3.57 0 0 0 1.585 1.792l1.245-.733a2.576 2.576 0 0 1-1.084-1.215ZM150.09 157.135l-1.25.72c.97.498 2.025.808 3.109.915l.276-1.008a6.159 6.159 0 0 1-2.135-.627ZM152.662 157.787l-.275 1.004a10.575 10.575 0 0 0 3.444-.314l-.805-.911a7.682 7.682 0 0 1-2.364.221ZM156.384 157.05a5.215 5.215 0 0 1-.962.423l.801.911a6.995 6.995 0 0 0 1.393-.597 4.797 4.797 0 0 0 1.059-.809l-1.571-.466c-.216.21-.458.391-.72.538ZM157.312 156.265l1.572.462a2.325 2.325 0 0 0 .538-1.987l-1.737.157a1.69 1.69 0 0 1-.373 1.368ZM156.219 153.237l1.271-.72a8.64 8.64 0 0 0-3.109-.915l-.276 1.004a6.236 6.236 0 0 1 2.114.631ZM157.616 154.648l1.745-.161a3.516 3.516 0 0 0-1.584-1.792l-1.25.72c.492.277.875.712 1.089 1.233Z" fill="#FDAF00"/><g opacity=".3" fill="#000"><path opacity=".3" d="m147.625 153.416 1.572.461c.218-.217.464-.403.733-.555.305-.173.627-.315.961-.423l-.8-.907a7.283 7.283 0 0 0-1.407.61 4.819 4.819 0 0 0-1.059.814ZM153.649 152.569l.276-1.004a10.497 10.497 0 0 0-3.445.313l.805.907a7.561 7.561 0 0 1 2.364-.216ZM152.662 157.787l-.275 1.004a10.575 10.575 0 0 0 3.444-.314l-.805-.911a7.682 7.682 0 0 1-2.364.221ZM156.38 157.05a5.215 5.215 0 0 1-.962.423l.801.911a6.995 6.995 0 0 0 1.393-.597 4.797 4.797 0 0 0 1.059-.809l-1.571-.466c-.216.21-.458.391-.72.538ZM157.312 156.267l1.572.462a2.325 2.325 0 0 0 .538-1.987l-1.737.157a1.69 1.69 0 0 1-.373 1.368ZM156.219 153.237l1.271-.72a8.64 8.64 0 0 0-3.109-.915l-.276 1.004a6.236 6.236 0 0 1 2.114.631ZM157.612 154.648l1.746-.161a3.522 3.522 0 0 0-1.585-1.792l-1.25.72c.492.277.875.712 1.089 1.233Z"/></g><g opacity=".3" fill="#000"><path opacity=".3" d="M87.292 75.688a.215.215 0 0 1-.187-.106.212.212 0 0 1 .08-.287l13.764-7.948a.214.214 0 0 1 .249 0 .214.214 0 0 1 .078.236.216.216 0 0 1-.115.129l-13.764 7.951a.242.242 0 0 1-.105.025ZM87.292 77.675a.217.217 0 0 1-.187-.106.212.212 0 0 1 .08-.288l13.764-7.948a.214.214 0 0 1 .249 0 .214.214 0 0 1 .078.236.208.208 0 0 1-.115.129l-13.764 7.951a.24.24 0 0 1-.105.026ZM87.292 79.661a.215.215 0 0 1-.187-.106.212.212 0 0 1 .08-.288l13.764-7.947a.215.215 0 0 1 .169-.036.21.21 0 0 1 .139.1.225.225 0 0 1 .028.084.216.216 0 0 1-.053.164.215.215 0 0 1-.071.052l-13.764 7.952a.242.242 0 0 1-.105.025ZM87.292 81.647a.215.215 0 0 1-.187-.106.212.212 0 0 1 .08-.288l13.764-7.947a.215.215 0 0 1 .169-.036.21.21 0 0 1 .139.101.224.224 0 0 1 .028.084.216.216 0 0 1-.053.163.216.216 0 0 1-.071.053l-13.764 7.951a.242.242 0 0 1-.105.025ZM87.292 83.652a.217.217 0 0 1-.187-.106.212.212 0 0 1 .08-.288l13.764-7.947a.212.212 0 0 1 .161-.023.213.213 0 0 1 .149.26.213.213 0 0 1-.098.132l-13.768 7.93a.241.241 0 0 1-.101.042ZM87.292 85.622a.215.215 0 0 1-.187-.106.212.212 0 0 1 .08-.288l13.76-7.93a.207.207 0 0 1 .288.076.217.217 0 0 1 .022.161.22.22 0 0 1-.098.13l-13.764 7.948a.241.241 0 0 1-.101.009ZM87.292 87.61a.208.208 0 0 1-.206-.267.212.212 0 0 1 .1-.128l13.763-7.947a.213.213 0 0 1 .161-.023.214.214 0 0 1 .128.1.217.217 0 0 1-.077.292l-13.764 7.947a.242.242 0 0 1-.105.025ZM87.292 51.842a.215.215 0 0 1-.187-.106.212.212 0 0 1 .08-.288L100.95 43.5a.213.213 0 0 1 .161-.022.215.215 0 0 1 .128.099.217.217 0 0 1-.077.292l-13.764 7.947a.242.242 0 0 1-.105.026ZM87.292 53.828a.207.207 0 0 1-.187-.106.212.212 0 0 1 .08-.288l13.764-7.947a.212.212 0 0 1 .161-.023.213.213 0 0 1 .149.26.213.213 0 0 1-.098.131l-13.764 7.948a.239.239 0 0 1-.105.025ZM87.291 55.819a.212.212 0 0 1-.105-.399l13.763-7.947a.205.205 0 0 1 .234.014.218.218 0 0 1 .076.224.217.217 0 0 1-.098.13L87.397 55.79a.25.25 0 0 1-.106.03ZM87.291 57.81a.212.212 0 0 1-.105-.397l13.763-7.948a.213.213 0 0 1 .16-.023.207.207 0 0 1 .128.1c.028.049.036.107.022.161a.217.217 0 0 1-.098.13l-13.764 7.948a.25.25 0 0 1-.106.03ZM87.291 59.793a.212.212 0 0 1-.105-.398l13.759-7.939a.212.212 0 0 1 .311.24.213.213 0 0 1-.099.129l-13.764 7.947a.199.199 0 0 1-.102.021ZM87.291 61.78a.212.212 0 0 1-.105-.398l13.763-7.947a.209.209 0 0 1 .288.08.21.21 0 0 1-.076.288l-13.768 7.948a.199.199 0 0 1-.102.03ZM87.293 63.767a.215.215 0 0 1-.213-.184.208.208 0 0 1 .107-.21l13.764-7.951a.213.213 0 0 1 .274.314.208.208 0 0 1-.062.054l-13.768 7.952a.199.199 0 0 1-.102.025ZM87.293 65.754a.215.215 0 0 1-.213-.185.208.208 0 0 1 .107-.21l13.764-7.951a.212.212 0 0 1 .288.08.208.208 0 0 1-.076.288l-13.764 7.948a.199.199 0 0 1-.106.03ZM87.293 67.742a.216.216 0 0 1-.213-.185.208.208 0 0 1 .107-.21l13.764-7.95a.213.213 0 0 1 .288.08.208.208 0 0 1-.076.288l-13.764 7.947a.2.2 0 0 1-.106.03ZM87.292 69.728a.215.215 0 0 1-.187-.106.212.212 0 0 1 .08-.288l13.764-7.948a.215.215 0 0 1 .169-.036.21.21 0 0 1 .139.101.224.224 0 0 1 .028.084.216.216 0 0 1-.053.164.215.215 0 0 1-.071.052l-13.764 7.947a.199.199 0 0 1-.105.03ZM87.292 71.714a.215.215 0 0 1-.187-.106.212.212 0 0 1 .08-.288l6.885-3.978a.22.22 0 0 1 .292.08.212.212 0 0 1-.08.289l-6.88 3.974a.2.2 0 0 1-.11.03ZM55.816 117.364a.216.216 0 0 1-.182-.106.213.213 0 0 1 .076-.288l45.066-26.015a.21.21 0 0 1 .307.064.208.208 0 0 1-.025.248.204.204 0 0 1-.071.052l-45.044 26.019a.217.217 0 0 1-.127.026ZM56.456 119.869a.211.211 0 0 1-.203-.157.212.212 0 0 1 .097-.237l45.066-26.02a.202.202 0 0 1 .16-.022.205.205 0 0 1 .128.099.217.217 0 0 1-.077.292L56.562 119.84a.19.19 0 0 1-.106.03ZM57.215 122.321a.214.214 0 0 1-.107-.029.213.213 0 0 1-.106-.156.204.204 0 0 1 .043-.156.2.2 0 0 1 .064-.053l45.053-26.02a.216.216 0 0 1 .293.077c.026.05.033.107.018.162a.222.222 0 0 1-.099.13L57.313 122.29a.209.209 0 0 1-.098.03ZM57.999 124.766a.204.204 0 0 1-.108-.028.205.205 0 0 1-.078-.078.215.215 0 0 1 .08-.292l45.074-26.015a.212.212 0 0 1 .212.364l-45.074 26.028a.195.195 0 0 1-.106.021ZM58.91 127.151a.206.206 0 0 1-.105-.029.207.207 0 0 1-.077-.077.217.217 0 0 1 .076-.292l45.066-26.015a.21.21 0 0 1 .27.086.212.212 0 0 1-.058.278L59.02 127.121a.237.237 0 0 1-.11.03ZM73.736 150.81a.213.213 0 0 1-.157-.072c-1.546-1.758-4.884-5.677-6.456-7.943-3.364-5.02-5.8-9.409-7.448-13.416a.218.218 0 0 1 .002-.165.218.218 0 0 1 .117-.115.226.226 0 0 1 .081-.015.205.205 0 0 1 .15.064c.019.02.034.044.044.07 1.636 3.982 4.059 8.345 7.401 13.34 1.563 2.245 4.885 6.151 6.427 7.901a.205.205 0 0 1-.021.296.194.194 0 0 1-.14.055ZM102.759 112.01a.216.216 0 0 1-.186-.106.218.218 0 0 1-.018-.162.218.218 0 0 1 .098-.13l4.893-2.826a.213.213 0 1 1 .212.369l-4.893 2.825a.198.198 0 0 1-.106.03ZM101.069 115.975a.213.213 0 0 1-.128-.044.216.216 0 0 1-.066-.248.213.213 0 0 1 .088-.102l7.96-4.6a.216.216 0 0 1 .292.08.21.21 0 0 1-.08.288l-7.96 4.601a.218.218 0 0 1-.106.025ZM108.415 120.61a.214.214 0 0 1-.186-.106.219.219 0 0 1 .081-.292l4.871-2.804a.217.217 0 0 1 .249-.001.22.22 0 0 1 .086.149.202.202 0 0 1-.052.164.214.214 0 0 1-.071.052l-4.872 2.809a.194.194 0 0 1-.106.029ZM106.952 124.436a.215.215 0 0 1-.206-.155.218.218 0 0 1 .007-.136.218.218 0 0 1 .089-.103l7.854-4.66a.216.216 0 0 1 .32.154.205.205 0 0 1-.041.156.204.204 0 0 1-.063.054l-7.854 4.66a.19.19 0 0 1-.106.03ZM75.522 152.64a.21.21 0 0 1-.194-.291.215.215 0 0 1 .088-.103l45.329-26.172a.217.217 0 0 1 .315.159.207.207 0 0 1-.004.082.206.206 0 0 1-.1.128l-45.328 26.168a.198.198 0 0 1-.106.029ZM77.42 154.399a.217.217 0 0 1-.127-.044.215.215 0 0 1-.066-.248.216.216 0 0 1 .088-.102l45.328-26.168a.213.213 0 0 1 .08-.035.201.201 0 0 1 .088-.001.216.216 0 0 1 .14.101.214.214 0 0 1-.096.3l-45.307 26.167a.236.236 0 0 1-.127.03ZM79.244 155.996a.203.203 0 0 1-.108-.028.213.213 0 0 1-.079-.077.222.222 0 0 1 .08-.293l45.329-26.167a.207.207 0 0 1 .161-.021.214.214 0 0 1 .15.26.214.214 0 0 1-.099.129L79.35 155.967a.197.197 0 0 1-.106.029ZM81.413 157.744a.21.21 0 0 1-.194-.292.217.217 0 0 1 .088-.102l45.328-26.168a.218.218 0 0 1 .16-.021c.054.015.1.05.128.098a.214.214 0 0 1-.076.288l-45.328 26.172a.243.243 0 0 1-.106.025ZM125.057 179.063a.208.208 0 0 1-.202-.157.213.213 0 0 1 .096-.237l8.604-4.969a.205.205 0 0 1 .079-.026.21.21 0 0 1 .232.266.204.204 0 0 1-.099.129l-8.604 4.965a.197.197 0 0 1-.106.029ZM126.78 180.054a.214.214 0 0 1-.194-.292.204.204 0 0 1 .088-.102l8.604-4.965a.21.21 0 0 1 .294.236.208.208 0 0 1-.082.128l-8.604 4.969a.23.23 0 0 1-.106.026ZM128.498 181.049a.209.209 0 0 1-.196-.151.21.21 0 0 1 .082-.235l8.604-4.969a.21.21 0 0 1 .311.24.209.209 0 0 1-.1.129l-8.603 4.965a.197.197 0 0 1-.098.021ZM140.546 170.12a.211.211 0 0 1-.106-.394l8.604-4.965a.232.232 0 0 1 .08-.036.217.217 0 0 1 .088 0 .2.2 0 0 1 .08.036.209.209 0 0 1 .034.312.207.207 0 0 1-.071.053l-8.587 4.969a.235.235 0 0 1-.122.025ZM142.264 171.116a.216.216 0 0 1-.202-.157.215.215 0 0 1 .008-.135.214.214 0 0 1 .088-.102l8.604-4.97a.22.22 0 0 1 .078-.027.212.212 0 0 1 .157.041.19.19 0 0 1 .053.063.216.216 0 0 1-.076.292l-8.612 4.965a.212.212 0 0 1-.098.03ZM143.987 172.106a.213.213 0 0 1-.128-.044.212.212 0 0 1 .022-.35l8.604-4.969a.211.211 0 0 1 .29.078.213.213 0 0 1-.078.291l-8.604 4.969a.23.23 0 0 1-.106.025ZM156.03 161.177a.214.214 0 0 1-.202-.157.215.215 0 0 1 .008-.135.204.204 0 0 1 .088-.102l8.604-4.969a.214.214 0 0 1 .319.154.194.194 0 0 1-.006.083.193.193 0 0 1-.038.074.2.2 0 0 1-.063.053l-8.604 4.969a.2.2 0 0 1-.106.03ZM157.753 162.171a.212.212 0 0 1-.106-.394l8.604-4.969a.207.207 0 0 1 .161-.021.21.21 0 0 1 .15.26.213.213 0 0 1-.1.129l-8.603 4.965a.2.2 0 0 1-.106.03ZM159.472 163.167a.215.215 0 0 1-.182-.106.218.218 0 0 1 .076-.293l8.604-4.981a.217.217 0 0 1 .249-.001c.024.018.044.04.059.065a.214.214 0 0 1-.096.3l-8.604 4.969a.2.2 0 0 1-.106.047Z"/></g><path d="M69.596 127.538c.224-.53.804-.915 1.694-1.021a6.123 6.123 0 0 1 5.084 2.169c.53.707.652 1.389.423 1.923l-14.539 38.093c-.284.8-1.105 1.385-2.389 1.542-2.453.296-5.638-1.064-7.121-3.033-.78-1.038-.928-2.034-.547-2.792l17.395-36.881Z" fill="#455A64"/><path d="M76.372 128.686c1.059 1.415.5 2.732-1.271 2.944a6.124 6.124 0 0 1-5.084-2.169c-1.063-1.415-.5-2.733 1.271-2.944a6.124 6.124 0 0 1 5.084 2.169Z" fill="#37474F"/><path d="M76.75 116.466a3.686 3.686 0 0 1 3.08 1.313 1.164 1.164 0 0 1 .258 1.161l-4.715 11.065a1.18 1.18 0 0 1-1.017.614 3.7 3.7 0 0 1-3.084-1.309 1.185 1.185 0 0 1-.258-1.165l4.719-11.048a1.17 1.17 0 0 1 1.017-.631Z" fill="#FDAF00"/><path opacity=".2" d="M76.75 116.466a3.686 3.686 0 0 1 3.08 1.313 1.164 1.164 0 0 1 .258 1.161l-4.715 11.065a1.18 1.18 0 0 1-1.017.614 3.7 3.7 0 0 1-3.084-1.309 1.185 1.185 0 0 1-.258-1.165l4.719-11.048a1.17 1.17 0 0 1 1.017-.631Z" fill="#000"/><path opacity=".2" d="m73.563 122.179.326.191.05.03.064.034.068.038c.209.122.424.234.644.334.267.136.542.254.813.36.244.105.493.197.746.276.282.083.564.165.847.245.148.043.288.081.424.111.107.028.216.051.326.067l.106.022 2.118-4.953a1.162 1.162 0 0 0-.258-1.16 2.643 2.643 0 0 0-.445-.454c-1.316.406-2.679.64-4.054.695l-1.775 4.164Z" fill="#000"/><path opacity=".15" d="m73.398 131.5-15.34 38.677c.598.1 1.207.119 1.81.055 1.27-.157 2.118-.737 2.389-1.546l14.539-38.084c-.229.533-.81.91-1.695 1.016a5.006 5.006 0 0 1-1.703-.118Z" fill="#000"/><path d="M121.332 70.666c0-.318-.021-.631-.047-.945-.025-.313-.038-.618-.072-.923 0-.208-.038-.424-.063-.615a19.694 19.694 0 0 0-.216-1.554 20.836 20.836 0 0 0-.127-.69c-.047-.23-.089-.425-.132-.645a51.402 51.402 0 0 0-.423-1.694c-.085-.259-.165-.513-.25-.767a.414.414 0 0 1-.038-.119c-.093-.25-.182-.491-.276-.728a13.3 13.3 0 0 0-.343-.81c-.123-.258-.173-.38-.275-.567a3.137 3.137 0 0 0-.203-.424 7.057 7.057 0 0 0-.259-.491.64.64 0 0 0-.068-.106 11.53 11.53 0 0 0-.245-.424c-.085-.14-.119-.178-.174-.267-.4-.632-.85-1.232-1.347-1.792-.085-.097-.174-.19-.25-.283-.076-.094-.14-.149-.212-.22-.072-.073-.182-.179-.275-.276a8.613 8.613 0 0 0-.814-.729 5.265 5.265 0 0 0-.423-.326c-.149-.102-.284-.212-.424-.313a7.91 7.91 0 0 0-.699-.458l-.186-.114-.038-.034-4.406-2.55-.064-.039a13.979 13.979 0 0 0-6.973-1.762c-3.639 0-7.744 1.19-12.09 3.698-14.95 8.63-27.049 29.604-27.049 46.875 0 8.604 3.008 14.658 7.875 17.492l.043.025 4.367 2.559.051.034.064.034.067.038c.21.122.424.234.644.334.265.134.537.255.814.361.243.105.492.196.745.275.132.047.263.085.399.119.138.051.28.092.423.122.14.044.28.081.424.111.105.032.213.056.322.072.19.038.39.08.589.101.045.009.09.009.135 0 .233.038.47.072.7.098 4.032.423 8.718-.716 13.73-3.605 14.945-8.63 27.061-29.616 27.061-46.862a8.35 8.35 0 0 0 .008-1.216Zm-49.29 40.711a26.398 26.398 0 0 1-.914-7.079c0-16.352 11.963-37.072 26.12-45.248a25.318 25.318 0 0 1 6.626-2.741 14.551 14.551 0 0 1 3.389-.424c.579-.001 1.157.044 1.729.136h.046c2.898 3.427 3.326 8.921 3.326 11.861 0 16.348-11.951 37.068-26.117 45.24-3.6 2.08-7.066 3.177-10.036 3.177a6.903 6.903 0 0 1-1.826-.233 12.883 12.883 0 0 1-2.342-4.689Z" fill="#37474F"/><path opacity=".25" d="M117.476 70.737c0 8.69-3.389 18.602-8.663 27.223-.25.424-.504.809-.767 1.212-.263.402-.445.694-.678 1.037-.495.737-1 1.466-1.525 2.178-.25.339-.5.673-.758 1.004-.259.33-.559.728-.847 1.089a42.17 42.17 0 0 1-1.695 2.003c-.377.424-.762.848-1.148 1.271a43.986 43.986 0 0 1-10.057 8.219c-.678.389-1.348.745-2.012 1.067a20.074 20.074 0 0 1-6.884 2.059c-.39.038-.771.051-1.14.051h-.572a8.634 8.634 0 0 1-1.076-.115 6.225 6.225 0 0 1-.508-.088c-.165-.039-.33-.073-.496-.123a7.925 7.925 0 0 1-4.236-2.745 6.998 6.998 0 0 0 1.822.233c2.965 0 6.439-1.098 10.04-3.178 14.166-8.167 26.112-28.891 26.112-45.24 0-2.94-.423-8.43-3.321-11.86h-.047c3.69.588 5.791 3.1 6.973 6.002.336.825.606 1.675.809 2.542 0 .046 0 .093.03.144.038.152.076.313.106.47a90.28 90.28 0 0 0 .11.576c.034.164.064.325.089.483.089.61.165 1.199.216 1.767 0 .165.03.317.038.474.009.157.022.237.026.352v.148c0 .127 0 .25.021.373a.937.937 0 0 1 0 .106v.462c.034.262.038.563.038.804Z" fill="#000"/><path d="m74.792 120.434-4.063-2.389c-4.867-2.843-7.858-8.892-7.858-17.471 0-7.693 2.415-16.123 6.401-23.867l4.613 2.648c-3.994 7.744-6.638 16.098-6.638 23.782-.004 8.414 2.86 14.383 7.545 17.297Z" fill="#263238"/><path d="m113.48 54.398-.039-.033-4.393-2.56-.059-.037A13.93 13.93 0 0 0 102.012 50c-3.635 0-7.744 1.19-12.095 3.699-8.278 4.782-15.674 13.36-20.648 22.994l4.593 2.699-.102.19c4.978-9.527 12.353-18.152 20.542-23.3 7.413-4.66 14.45-4.736 19.364-1.745l-.186-.14Z" fill="#455A64"/><path opacity=".3" d="M115.12 69.353c0 16.348-11.963 37.072-26.12 45.244a25.233 25.233 0 0 1-6.639 2.745c-1.116.275-2.26.417-3.41.423a9.746 9.746 0 0 1-3.465-.588c-1.759-1.475-2.818-3.61-3.453-5.804a26.394 26.394 0 0 1-.915-7.079c0-16.352 11.963-37.072 26.12-45.248a25.32 25.32 0 0 1 6.626-2.74 14.553 14.553 0 0 1 3.389-.424 9.779 9.779 0 0 1 3.466.593c1.758 1.47 2.817 3.609 3.452 5.803.636 2.305.955 4.685.949 7.075Z" fill="#fff"/></svg>