<svg width="292" height="292" fill="none" xmlns="http://www.w3.org/2000/svg"><path d="M73.325 193.981c-.125-.362-.231-.74-.328-1.115-.047-.166-.087-.332-.131-.5-.072-.325-.147-.644-.203-.979-.057-.284-.09-.565-.128-.856a11.43 11.43 0 0 1-.097-.74 17.416 17.416 0 0 1-.088-1.719c.019-10.334 8.378-18.687 18.71-18.709 10.327.022 18.687 8.378 18.705 18.709 0 .581-.037 1.15-.09 1.719-.019.25-.06.496-.091.74-.04.294-.078.575-.131.856-.066.335-.128.657-.206.979a21.51 21.51 0 0 1-.453 1.615c0 .006 0 .006-.007.013-2.484 7.418-9.465 12.765-17.725 12.778-8.262-.013-15.24-5.36-17.73-12.778-.007-.007-.007-.007-.007-.013ZM244.093 169.357c10.334.021 18.69 8.381 18.712 18.709a18.779 18.779 0 0 1-1.215 6.556c-2.66 7.087-9.469 12.137-17.5 12.15-8.022-.013-14.831-5.063-17.494-12.15a18.681 18.681 0 0 1-1.209-6.556c.019-10.328 8.375-18.688 18.706-18.709Z" fill="#000" fill-opacity=".87"/><path d="M64.913 146.625c13.868-11.074 20.637-19.852 23.593-24.415-3.59 0-5.272-1.269-5.547-1.659-1.112-1.547 49.675-10.45 91.549-4.966 7.282.953 23.238 6.338 46.591 20.519 12.928 7.85 34.562 2.868 49.287 14.131 13.402 10.256 17.712 17.043 17.324 22.046-.487 6.329-3.175 7.991-.287 10.878 4.084 4.088-14.634 10.972-20.791 10.972h-1.446a21.9 21.9 0 0 0 .865-6.062c0-12.119-9.828-21.95-21.95-21.95-12.118 0-21.94 9.831-21.94 21.95 0 2.112.313 4.137.866 6.062h-10.688c-3.747 0-43.315-.575-43.315-.575h-56.743c.453-1.756.719-3.587.719-5.49 0-12.125-9.828-21.947-21.947-21.95-12.122.003-21.947 9.828-21.947 21.95 0 1.9.27 3.731.72 5.49h-2.454s-5.781-5.206-8.375-5.206c-4.916 0-10.547-28.587 5.916-41.725Zm108.939-2.793s47.89 2.584 47.89.95c0-6.253-37.993-23.934-49.662-25.444-3.681-.472-7.837-.834-12.228-1.084l6.031 25.018c4.55.369 7.969.56 7.969.56ZM104.6 123.013c.918 3.45 2.45 7.266 4.693 10.544 4.169 6.1 34.491 7.14 43.469 8.375l.628.078-1.766-24.084c-22.818-.578-47.996 1.434-47.024 5.087Z" fill="#000" fill-opacity=".87"/><path d="M8.758 104.435v-15.88c0-1.11.906-2.013 2.018-2.013h1.616c1.116 0 2.019.9 2.019 2.012v15.881h11.303v-15.88a2.007 2.007 0 0 1 2.012-2.013h1.625c1.11 0 2.016.9 2.016 2.012v15.881h3.753v14.106c0 6.728-4.278 11.394-9.156 14.253v12.903c-.006 6.682 2.278 12.628 5.725 16.756 3.475 4.138 7.884 6.391 12.634 6.4h7.756c-.36 4.119-.097 8.063.525 11.3h-8.31c-8.502 0-16.08-4.19-21.286-10.471-5.25-6.3-8.338-14.76-8.344-23.988v-12.721c-5.028-2.841-9.662-7.563-9.662-14.432v-14.106h3.756Z" fill="#000" fill-opacity=".87"/></svg>