<svg width="1637" height="808" viewBox="0 0 1637 808" fill="none" xmlns="http://www.w3.org/2000/svg">
  <g clip-path="url(#clip0_12269_189595)">
    <path d="M1423.88 217.804L1431.37 224.442L1435.92 221.113L1429.28 218.336L1434.87 216.938L1444.29 221.113L1444.46 216.583L1450.92 213.097L1445.69 207.327L1427.19 200.709H1423.88L1430.46 212.565H1425.79L1423.88 217.804Z" fill="#FDBD00" stroke="#47484C" stroke-miterlimit="10"/>
    <path d="M1449.31 236.473L1437.39 223.73L1432.25 226.35V233.164H1437.39V243.623L1429.65 251.382L1427.53 249.748V258.985L1423.17 257.941L1412.7 258.985L1405.9 266.843V269.817L1401.88 273.815L1413.4 285.337L1416.28 282.461V274.701L1409.56 270.506L1420.73 265.267H1427.72V269.108L1431.82 273.205L1439.48 265.524H1446.22V261.25H1450.92V256.188L1449.31 254.573V236.473Z" fill="#FDBD00" stroke="#47484C" stroke-miterlimit="10"/>
    <path d="M1418.03 268.38V269.7H1420.65V267.533H1423.86L1426.46 270.153L1423.86 272.772H1421.16V276.238H1418.54L1416.26 271.531V268.715L1418.03 268.38Z" fill="#FDBD00" stroke="#47484C" stroke-miterlimit="10"/>
    <path d="M1167.69 415.701V432.442L1170.84 438.725L1178.7 434.549V428.267L1170.66 415.701H1167.69Z" fill="#25262A" stroke="#47484C" stroke-miterlimit="10"/>
    <path d="M1389.79 392.657L1399.18 399.728L1402.31 394.233L1394.2 387.694L1388.45 388.994L1384.78 383.499V377.472H1387.92L1389.75 370.933L1386.62 363.528L1377.28 362.031V376.172H1374.56L1381.12 390.826L1389.79 392.657Z" fill="#25262A" stroke="#47484C" stroke-miterlimit="10"/>
    <path d="M1384.08 399.726H1386.36V393.876L1380.24 392.32L1384.08 399.726Z" fill="#25262A" stroke="#47484C" stroke-miterlimit="10"/>
    <path d="M1392.47 415.524L1397.87 420.762L1405.19 414.834L1400.23 407.232L1397.69 409.753L1390.54 402.604V410.994H1396.13V415.524H1392.47Z" fill="#25262A" stroke="#47484C" stroke-miterlimit="10"/>
    <path d="M1404.94 403.037L1402.32 405.656L1407.99 412.727L1411.83 408.02L1409.39 405.578V401.382L1406.94 398.605L1402.32 399.728L1404.94 403.037Z" fill="#25262A" stroke="#47484C" stroke-miterlimit="10"/>
    <path d="M1417.07 428.777L1411.83 413.77L1408.34 414.656L1409.7 419.501L1405.19 423.991H1396.9L1389.67 431.219H1391.58L1394.91 427.911H1403.06V434.666L1408.34 439.944H1410.43V430.176H1415.33V435.414L1417.07 428.777Z" fill="#25262A" stroke="#47484C" stroke-miterlimit="10"/>
    <path d="M1367.16 425.292L1381.38 411.072L1378.33 408.02L1366.29 423.204L1367.16 425.292Z" fill="#25262A" stroke="#47484C" stroke-miterlimit="10"/>
    <path d="M1539.47 752.584L1548.91 755.203L1598.64 728.241V722.47H1593.67L1593.4 718.807L1539.47 752.584Z" fill="#25262A" stroke="#47484C" stroke-miterlimit="10"/>
    <path d="M1602.83 722.747L1605.71 725.367L1636.08 703.111L1633.46 700.748L1626.39 703.111L1621.4 700.748L1624.3 696.297L1621.68 686.627L1616.44 684.086V697.873L1603.36 710.97L1607.54 716.189L1602.83 722.747Z" fill="#25262A" stroke="#47484C" stroke-miterlimit="10"/>
    <path d="M1437.49 546.572L1440.11 544.484V541.688H1433.12L1434.08 543.165L1437.49 546.572Z" fill="#FDBD00" stroke="#47484C" stroke-miterlimit="10"/>
    <path d="M1528.5 617.774V608.615H1524.82V595.262L1512.53 582.972V563.336H1503.88V546.832H1500.47V537.949H1496.28L1490.88 556.778V564.38L1485.29 581.653H1480.07L1460.55 562.155L1470.1 548.683L1467.23 544.744L1462.78 547.363L1445.78 543.168L1445.68 549.195H1435.91L1426.66 558.452V564.557H1420.12L1413.8 558.235L1387.05 577.123V584.804L1338.19 607.138L1332.61 621.437L1336.45 630.162L1330.86 635.066V672.053L1327.49 675.402V681.822L1331.96 686.293H1344.11L1353.15 677.253H1371L1375.67 672.585L1415.16 665.416L1427.88 670.3V686.293L1430.08 684.107L1443.81 670.36L1445.68 673.274L1434.77 686.293L1436.86 687.928L1443.14 682.945L1439.75 690.015H1445.68V704.728L1458.07 708.864L1465.67 704.728L1470.64 708.864L1492.64 700.749L1499.17 690.547L1520.64 671.167L1535.55 644.992V624.844L1528.5 617.774Z" fill="#FDBD00" stroke="#47484C" stroke-miterlimit="10"/>
    <path d="M1464.18 723.415L1457.28 719.082L1453.62 722.745V729.934L1451.93 731.234V737.142H1457.95L1461.54 733.538H1463.7L1474.85 722.371L1472.21 720.382L1464.18 723.415Z" fill="#FDBD00" stroke="#47484C" stroke-miterlimit="10"/>
    <path d="M1550.48 503.383H1548.65L1546.29 506.711H1531.63L1532.93 511.103H1538.57L1540.79 513.329L1549.81 508.366H1553.89V500.113H1550.48V503.383Z" fill="#25262A" stroke="#47484C" stroke-miterlimit="10"/>
    <path d="M1546.94 490.815L1556.88 498.417V502.731H1559.25V497.492L1546.94 488.865V490.815Z" fill="#25262A" stroke="#47484C" stroke-miterlimit="10"/>
    <path d="M1565.64 505.746L1570.49 516.598H1573.5V512.147L1567.61 505.076L1565.64 505.746Z" fill="#25262A" stroke="#47484C" stroke-miterlimit="10"/>
    <path d="M1575.67 513.131L1575.47 515.691L1580.32 519.611H1583.72V518.429H1580.97L1575.67 513.131Z" fill="#25262A" stroke="#47484C" stroke-miterlimit="10"/>
    <path d="M1593.4 526.288V522.959L1588.55 519.611H1585.68V521.443H1588.95L1591.45 526.288H1593.4Z" fill="#25262A" stroke="#47484C" stroke-miterlimit="10"/>
    <path d="M1575.47 523.923L1580.71 528.256H1583.72V525.754L1575.47 520.535V523.923Z" fill="#25262A" stroke="#47484C" stroke-miterlimit="10"/>
    <path d="M1590.91 533.103H1597.33V531.134L1590.91 529.164V533.103Z" fill="#25262A" stroke="#47484C" stroke-miterlimit="10"/>
    <path d="M1536.95 531.743V529.123H1532.58L1524.56 515.159H1530.67L1528.94 510.275L1519.86 506.789L1518.64 501.195L1514.26 498.418H1512.71L1495.77 490.619V530.62L1502.23 531.388L1507.98 521.265L1520.03 523.884L1528.05 536.981H1537.13L1542.01 540.113L1543.59 536.45L1539.39 531.743H1536.95Z" fill="#25262A" stroke="#47484C" stroke-miterlimit="10"/>
    <path d="M968.846 223.987L972.254 226.095H975.483V225.248L974.105 223.889L973.593 220.639L966.325 217.35H960.83L945.291 211.441L942.73 212.013L949.821 219.103C950.096 219.379 949.821 221.722 949.821 221.722L947.733 223.83H955.316L957.955 226.449H966.227L968.846 223.987Z" fill="#25262A" stroke="#47484C" stroke-miterlimit="10"/>
    <path d="M968.293 235.351L969.179 234.228L973.946 237.241L974.458 239.703L977.392 239.526L976.782 235.252L972.252 233.519L973.552 231.944L967.88 226.527H966.225H957.934L958.899 227.492L964.216 238.522L967.722 234.563L968.293 235.351Z" fill="#25262A" stroke="#47484C" stroke-miterlimit="10"/>
    <path d="M969.179 234.229L968.293 235.351L971.641 239.881L974.457 239.704L973.945 237.242L969.179 234.229Z" fill="#25262A" stroke="#47484C" stroke-miterlimit="10"/>
    <path d="M984.228 222.037L980.545 226.173L975.995 221.742L973.593 220.639L974.105 223.888L975.483 225.267V226.094H972.253L968.846 224.007L966.227 226.528H967.881L973.553 231.944L972.253 233.519L976.783 235.252L977.354 239.152L982.101 234.721L985.252 235.509L984.681 240.452L988.128 242.106V238.916L990.314 236.73V232.456L993.485 230.723L984.228 222.037Z" fill="#25262A" stroke="#47484C" stroke-miterlimit="10"/>
    <path d="M1017.1 361.301H1002.31L991.83 371.759L989.703 369.632L971.209 368.234V373.118L968.648 375.56L968.767 375.737L975.03 397.54L1019.19 379.755V375.737L1023.87 373.138L1018.02 360.828L1017.1 361.301Z" fill="#25262A" stroke="#47484C" stroke-miterlimit="10"/>
    <path d="M1034.16 324.216H1038.19L1035.59 317.973L1024.78 330.006H1014.97L1018.32 336.289L1031.58 337.333L1031.6 337.353L1034.16 329.573V324.216Z" fill="#25262A" stroke="#47484C" stroke-miterlimit="10"/>
    <path d="M1057.24 338.395L1050.24 331.226L1039.61 327.563L1038.19 324.215H1034.15V329.572L1031.59 337.351L1035.24 341.172L1032.46 353.561L1018.02 360.828L1023.87 373.138L1047.47 360.021L1057.24 338.395Z" fill="#25262A" stroke="#47484C" stroke-miterlimit="10"/>
    <path d="M1011.68 326.144V315.705H1008.73L1006.56 321.397L1009.5 327.227L1011.68 326.144Z" fill="#25262A" stroke="#47484C" stroke-miterlimit="10"/>
    <path d="M984.149 298.948L974.459 298.16L951.829 280.355H944.758L935.6 284.688L939.125 288.746L937.826 293.059H934.024L931.011 298.948L923.625 296.821L922.168 305.585H927.052L968.648 375.562L971.209 373.12V368.235L989.703 369.633L991.83 371.761L1002.31 361.302H1017.1L1032.46 353.562L1035.24 341.174L1031.57 337.333L1018.32 336.29L1014.97 330.007H1014.3L1011.68 327.387V326.147L1009.5 327.23L1006.56 321.4L1006.29 322.168L994.41 302.434V294.024L986.65 292.803L984.149 298.948Z" fill="#25262A" stroke="#47484C" stroke-miterlimit="10"/>
    <path d="M929.376 271.59V268.518H930.696V266.824L926.304 263.811V265.701L923.133 274.899H926.087L929.376 271.59Z" fill="#25262A" stroke="#47484C" stroke-miterlimit="10"/>
    <path d="M926.303 274.682L926.086 274.898H923.132L919.114 286.518H918.977L923.723 296.149L923.625 296.819L924.353 297.036L926.303 286.715V274.682Z" fill="#25262A" stroke="#47484C" stroke-miterlimit="10"/>
    <path d="M931.189 279.55H933.513L952.873 266.571V258.378V256.585V253.926H955.237L959.077 250.086H957.6H948.856L945.37 253.592H929.318L926.305 256.585V263.813L930.697 266.827V268.521H929.377V271.593L926.305 274.685V276.438H928.097L931.189 279.55Z" fill="#25262A" stroke="#47484C" stroke-miterlimit="10"/>
    <path d="M990.823 287.093H989.267V281.066L986.549 278.368H984.54L981.842 275.65H978.75V273.602L974.516 269.367V265.448L976.781 263.183H978.612V262.395L977.391 261.174V257.156H973.905L969.395 250.086H967.012H965.259H959.075L955.234 253.926H952.871V256.585V258.378V266.571L942.137 273.759L944.894 280.357H951.827L974.456 298.162L984.146 298.95L986.648 292.805L994.408 294.026V293.927L990.823 290.5V287.093Z" fill="#25262A" stroke="#47484C" stroke-miterlimit="10"/>
    <path d="M1067.18 313.266H1072.07V308.894H1067.87V301.922H1065.07L1056.09 292.921L1060.37 288.667V284.295H1056.35L1053.57 272.773L1052.17 271.375V253.57H1048.69L1036.12 246.598H1030.88V244.156H1019.54V249.04H1014.73V250.97L1005.75 253.57L995.806 248.351H991.099L988.125 242.758V242.423V242.108L984.678 240.453L985.249 235.51L982.098 234.722L977.351 239.153L977.391 239.528L974.456 239.705L971.64 239.882L968.292 235.352L967.721 234.564L964.215 238.523L969.808 250.084H969.395L973.905 257.155H977.391V261.173L978.612 262.394V263.181H976.78L974.515 265.446V269.366L978.75 273.6V275.648H981.842L984.54 278.366H986.549L989.267 281.065V287.091H990.823V290.499L994.407 293.926V292.232H1001.66L1010.03 306.196L1014.6 306.55L1023.56 314.133H1034.01V311.159H1040.65V316.22L1063.85 320.711V316.575L1067.18 313.266Z" fill="#25262A" stroke="#47484C" stroke-miterlimit="10"/>
    <path d="M1154.57 182.57V177.863L1152.17 177.331H1144.41L1134.72 167.641L1125.99 169.216L1122.05 165.632L1118.39 168.685L1095.09 149.836V145.897L1087.67 153.322H1082.96V148.773H1070.57L1066.63 141.978L1057.04 141.801L1027.2 149.482L1025.23 151.57L1027.32 155.765L1025.09 162.461L1032.42 165.08V169.985H1021.69L1018.63 166.932H1010.24L1007.11 170.063L991.751 163.426H983.873L973.218 169.197L976.546 172.505L974.577 174.475L969.417 169.335L966.285 172.466V183.456H969.771V188.084H974.734L982.612 195.962L983.656 194.919L990.904 191.157H1000.34L1003.55 194.387V200.413H993.701L989.171 204.943V207.405H992.302L999.117 214.22H1003.55V218.75L1004.87 223.122L1005.91 219.636H1009.34L1009.48 219.912L1011.96 218.927L1015.9 221.724L1018.16 225.387H1020.78L1016.07 203.23L1028.82 199.921L1031.69 201.497L1030.12 197.735L1031.69 194.328L1035.1 195.628L1040.06 203.742L1039.04 205.554L1042.43 207.405L1047.67 212.644H1062.52L1067.22 217.351V220.503H1072.11V226.076H1079.99V230.015H1084.51L1092.89 218.671V216.229H1103.72V213.964H1107.66L1110.02 216.347H1129.81L1137.49 218.671L1138.89 213.097L1131.57 203.25L1137.85 200.985L1143.25 202.068V199.941L1140.82 197.558V190.408H1153.11V187.966L1150.77 185.741V182.648L1154.57 182.57ZM1123.06 192.91H1106.32L1102.04 197.183L1102.4 203.092L1097.67 200.473V194.19L1101.51 190.349H1123.06V192.91Z" fill="#25262A" stroke="#47484C" stroke-miterlimit="10"/>
    <path d="M1062.38 260.818V257.844L1069.53 254.968V248.607H1077.39V243.289H1072.07L1061.22 237.834L1048.69 225.307H1039.47V221.959L1034.29 216.76H1030.1V219.99H1026.97V225.307L1020.66 224.795L1020.76 225.307H1018.14L1015.88 221.644L1012.04 218.847L1009.56 219.832L1010.99 223.043L1014.66 225.839L1013.95 228.636H1006.11V233.343H1009.6L1014.74 238.483V249.04H1019.54V244.156H1030.89V246.598H1036.12L1048.69 253.57H1052.18V258.454L1058.72 260.818H1062.38Z" fill="#25262A" stroke="#47484C" stroke-miterlimit="10"/>
    <path d="M1086.25 244.51L1079.83 237.302V234.564H1084.93L1091.49 227.1L1094.22 228.636L1092.65 230.015L1095.01 232.024H1100.86L1104.7 228.183L1097.02 223.653V225.918L1090.74 223.653L1093.89 220.167L1092.37 219.301L1084.46 230.015H1079.93V226.017H1072.07V220.423H1067.18V217.272L1062.48 212.565H1047.63L1042.39 207.326L1039.02 205.475L1036.64 209.689L1031.4 208.429L1032.72 203.938L1031.67 201.417L1028.8 199.842L1016.05 203.151L1020.66 224.796L1026.97 225.308V219.99H1030.1V216.76H1034.29L1039.47 221.959V225.308H1048.69L1061.22 237.834L1072.07 243.289H1077.39V247.543L1083.49 249.474L1086.25 244.51Z" fill="#25262A" stroke="#47484C" stroke-miterlimit="10"/>
    <path d="M721.473 148.576H719.523L718.085 150.013L715.367 148.182L720.488 143.475H714.244V146.862L712.058 149.048H705.421V153.066L707.863 155.508L699.887 163.485L702.979 166.597H710.916L716.411 161.082H721.827L723.836 155.016V151.234L725.057 150.013H721.473V148.576Z" fill="#FDBD00" stroke="#47484C" stroke-miterlimit="10"/>
    <path d="M725.057 150.013L728.642 146.429L725.668 143.475H720.488L715.367 148.182L718.085 150.013L719.523 148.576H721.473V150.013H725.057Z" fill="#FDBD00" stroke="#47484C" stroke-miterlimit="10"/>
    <path d="M759.171 158.993L757.95 155.015L756.04 157.083H751.49L753.597 153.931L749.402 146.132H747.787L744.301 142.646L740.421 138.746V136.403L744.872 131.952V130.376H735.438L739.279 126.535V124.625H734.217L730.042 128.8H726.201V134.039L724.626 135.615V139.633H723.582L725.315 141.366L726.359 140.322V142.508H728.368L730.554 140.322L731.696 141.464L729.431 143.729L730.909 145.206H736.482L737.191 150.445V155.015H729.865L730.554 157.772V161.612H727.403V163.7H730.377L733.686 164.744L738.412 163.7L735.793 166.28H730.948L723.582 173.646H725.847L731.874 171.48L734.217 169.116H737.369L739.102 170.869L753.42 168.939L756.552 165.63H753.932L759.171 158.993Z" fill="#FDBD00" stroke="#47484C" stroke-miterlimit="10"/>
    <path d="M722.005 129.844L725.846 126.712L720.784 125.846V128.465L719.031 128.977L720.784 133.507L722.005 129.844Z" fill="#FDBD00" stroke="#47484C" stroke-miterlimit="10"/>
    <path d="M742.942 120.254H739.633V122.873H741.287L742.942 120.254Z" fill="#FDBD00" stroke="#47484C" stroke-miterlimit="10"/>
    <path d="M798.266 23.2338L819.556 33.0025L829.679 23.2338L839.803 30.0286L845.731 25.3214L833.855 20.437H853.057V15.9072L831.078 14.1543L798.266 16.951V23.2338Z" fill="#25262A" stroke="#47484C" stroke-miterlimit="10"/>
    <path d="M839.666 68.2188H836.396L818.848 80.5085V83.2658H815.578V86.9291L811.797 90.7106L813.353 92.1483V94.6102H807.169V114.68L804.549 121.474L802.087 122.912L808.744 134.906L807.7 138.235L801.93 140.323V144.695L807.346 144.34V142.588H809.079H815.894V138.412H823.397L827.356 126.319L834.131 119.564V118.422L827.238 111.528V103.335L840.237 95.3783L843.467 92.1483L841.359 90.2379L845.909 85.708H849.749V73.7137L839.666 68.2188Z" fill="#25262A" stroke="#47484C" stroke-miterlimit="10"/>
    <path d="M782.115 189.974V187.532L784.833 187.099L787.709 180.206L773.056 174.179L771.224 175.223L761.495 166.518L757.437 169.117V172.603L750.268 174.868V177.842L744.695 177.665V174.868L740.5 175.755L742.075 178.02V181.151L736.659 181.683L735.261 179.772L727.402 182.037L728.643 186.39L737.545 188.832L737.703 190.762L743.119 196.159L740.401 211.403L750.406 217.016L752.238 215.105L762.578 217.39V214.928L767.817 211.777L776.187 214.534H780.126L786.133 210.004L781.682 207.602V195.725H777.979V194.11L782.115 189.974Z" fill="#25262A" stroke="#47484C" stroke-miterlimit="10"/>
    <path d="M792.949 215.105V216.839H789.719V221.467L791.334 224.52H792.949V221.388H794.505V215.105H792.949Z" fill="#25262A" stroke="#47484C" stroke-miterlimit="10"/>
    <path d="M711.863 244.352L710.445 242.934V240.846L712.671 239.704L710.445 234.721H714.68V227.394L717.122 224.952V222.077H708.397V220.6H704.734V228.635L699.672 240.137L701.937 242.422V251.304L708.751 249.217H709.48V246.735L711.863 244.352Z" fill="#FDBD00" stroke="#47484C" stroke-miterlimit="10"/>
    <path d="M752.237 215.106L750.405 217.016L740.4 211.403L740.144 212.743L735.614 211.699H715.368L711.055 210.34L708.041 213.353H704.457L702.625 215.185L704.732 217.273V220.601H708.396V222.078H717.121V224.954L714.678 227.396V234.722H710.444L712.67 239.705L710.444 240.848V242.935L711.862 244.353L709.479 246.736V249.218H712.236L714.678 251.66V254.634L718.519 257.076L724.624 251.641H735.024L745.423 241.222V234.821L751.193 228.794V226.844L762.577 221.743V217.391L752.237 215.106Z" fill="#25262A" stroke="#47484C" stroke-miterlimit="10"/>
    <path d="M857.687 62.9395H864.58L870.154 65.106L871.099 66.5634L877.145 63.9637V60.9306L856.544 58.4688L832.3 63.1956L820.423 69.3011V67.0361L814.495 71.0342H807.7V72.7871H814.85L814.771 74.4612L806.519 82.7331V87.1449L795.036 98.6074H791.984V96.8743L776.109 104.201V122.182L786.055 128.465L798.266 122.005H801.575L802.087 122.911L804.549 121.473L807.169 114.679V94.6093H813.353V92.1474L811.797 90.7097L815.578 86.9282V83.2649H818.848V80.5076L836.396 68.2178H839.666L842.62 69.8328H857.687V62.9395Z" fill="#25262A" stroke="#47484C" stroke-miterlimit="10"/>
    <path d="M879.939 97.2109V93.9021L877.497 91.46V85.3545L872.258 79.6035L875.488 74.0101L869.639 72.2572V67.2152L871.096 66.5653L870.151 65.1079L864.577 62.9414H857.684V69.8347H842.617L849.747 73.7146V85.709H855.951V89.4707L845.256 100.185V110.013L852.544 117.28L871.392 113.459L873.736 111.785L874.523 112.573L884.647 104.341V101.938L879.939 97.2109Z" fill="#25262A" stroke="#47484C" stroke-miterlimit="10"/>
    <path d="M791.627 225.84L789.716 227.671H786.742V229.405L788.79 231.453V238.839H791.627V237.795H794.502V231.059L795.782 229.799L794.502 225.84H791.627Z" fill="#25262A" stroke="#47484C" stroke-miterlimit="10"/>
    <path d="M837.184 234.032L838.622 231.157L825.919 224.48L827.888 222.51L826.845 221.348L821.212 221.604L816.111 217.547L814.023 211.658L807.602 206.538L808.508 203.544L806.952 200.393L812.92 198.482V195.725L806.381 191.451L798.799 192.416L797.046 195.548L793.382 195.213L791.255 197.222L789.069 195.213L786.745 197.517H781.684V207.601L786.135 210.004L790.586 206.676L796.869 209.433L798.306 215.834L811.404 226.312L813.747 226.174L822.649 233.244L824.363 232.85L826.195 238.877L824.225 242.422L814.279 243.466L812.959 244.766L810.36 244.116L808.39 246.46L821.606 253.412L823.181 250.793L821.468 248.173L823.831 244.372L826.588 245.416L832.083 239.665V236.258L828.144 234.426L830.764 230.507L837.184 234.032Z" fill="#25262A" stroke="#47484C" stroke-miterlimit="10"/>
    <path d="M797.045 187.708H785.878L784.913 186.9L784.834 187.097L782.116 187.531V189.973L777.98 194.109V195.724H781.683V197.516H786.745L789.069 195.212L791.255 197.221L793.382 195.212L797.045 195.547L798.542 192.848L794.071 190.485L797.045 187.708Z" fill="#FDBD00" stroke="#47484C" stroke-miterlimit="10"/>
    <path d="M777.981 167.423L773.51 165.256L764.273 164.744L761.496 166.517L771.225 175.222L773.057 174.178L776.504 175.596L779.99 172.071L777.981 167.423Z" fill="#25262A" stroke="#47484C" stroke-miterlimit="10"/>
    <path d="M779.455 164.074H777.623V162.794H781.05L783 160.864V159.564H781.227V158.323H783.65V155.448L782.684 153.754H777.15L771.911 156.728V159.859L764.27 164.744L773.507 165.256L777.977 167.422L778.036 167.58L779.455 165.906V164.074Z" fill="#25262A" stroke="#47484C" stroke-miterlimit="10"/>
    <path d="M795.352 142.549L800.453 137.448L799.232 136.227L797.046 134.041L798.976 132.13V130.062H796.396L793.56 132.899H790.842L787.789 135.971V142.766L791.137 146.114L795.352 144.716V142.549Z" fill="#25262A" stroke="#47484C" stroke-miterlimit="10"/>
    <path d="M817.371 162.874V158.383L815.5 156.512L815.815 150.604L811.699 146.487H807.228L804.195 149.501H799.468L797.203 147.256L795.352 145.384V144.715L791.137 146.113L791.807 146.783V152.022H790.054V153.755H787.277V152.022H782.905V153.755H782.688L783.653 155.449V158.324H781.231V159.565H783.003V160.865L781.053 162.795H777.626V164.075H779.458V165.907L778.04 167.581L779.99 172.071L776.504 175.597L787.71 180.205L784.914 186.902L785.879 187.709H793.304H797.046L796.435 188.28L809.178 186.902L810.163 183.652L814.791 181.033L806.283 176.719V171.343L816.249 167.581H819.242V164.745L817.371 162.874Z" fill="#25262A" stroke="#47484C" stroke-miterlimit="10"/>
    <path d="M836.653 172.524V176.581L836.337 176.897H850.991L853.413 179.319H854.654V175.853L858.77 171.736H861.331V169.058L858.77 166.498V161.515H856.033V158.245H859.302V154.976L857.076 152.75V147.649H853.236H841.36L840.493 148.536H834.742V146.605H825.485L816.032 150.82L815.815 150.604L815.5 156.512L817.371 158.383V162.874L819.242 164.745V166.99L828.794 172.524H836.653Z" fill="#25262A" stroke="#47484C" stroke-miterlimit="10"/>
    <path d="M865.013 127.679L867.987 130.633H872.083V129.943L873.994 128.624L871.118 123.227L873.383 121.396L873.324 119.367L872.95 119.564H857.765L851.482 123.405L847.996 125.315L849.394 127.245L853.235 126.359L854.279 124.449L856.367 126.536H858.986V128.959L862.137 127.679H865.013Z" fill="#25262A" stroke="#47484C" stroke-miterlimit="10"/>
    <path d="M819.241 179.851H822.786L828.97 181.821L830.841 182.412L836.336 176.897H836.238H836.336L836.651 176.582V172.525H828.793L819.241 166.99V167.581H816.247L806.281 171.343V176.72L814.79 181.033L813.411 181.821H819.241V179.851Z" fill="#25262A" stroke="#47484C" stroke-miterlimit="10"/>
    <path d="M853.846 145.127H849.75L848.784 143.729H847.032L844.727 144.28L841.359 147.648H853.236L853.846 145.127Z" fill="#25262A" stroke="#47484C" stroke-miterlimit="10"/>
    <path d="M821.821 197.991H823.397V196.159L825.8 193.776L826.075 191.787L823.968 193.894H814.061L812.309 195.332L812.919 195.726V198.483L814.278 198.05L814.514 199.921H821.821V197.991Z" fill="#25262A" stroke="#47484C" stroke-miterlimit="10"/>
    <path d="M823.968 193.892L826.075 191.785L826.646 191.214L830.191 185.167L828.97 181.819L822.786 179.85H819.241V181.819H813.411L810.161 183.651L809.177 186.9L796.434 188.279L794.07 190.485L798.541 192.848L798.797 192.415L806.38 191.45L812.308 195.33L814.061 193.892H823.968Z" fill="#25262A" stroke="#47484C" stroke-miterlimit="10"/>
    <path d="M823.633 204.686L828.458 202.106L839.625 202.717V197.517H837.085V198.876H833.165L825.799 193.775L823.396 196.158V197.99H821.821V199.92H814.514L814.534 199.999L812.84 202.106L817.547 205.888L818.729 202.875L820.422 208.783L837.636 218.316L829.325 210.398L823.633 204.686Z" fill="#25262A" stroke="#47484C" stroke-miterlimit="10"/>
    <path d="M849.748 136.799H862.176L863.87 138.492H865.977L868.715 141.25H870.231H873.697L876.829 137.941L875.056 134.396V131.954H872.082V130.634H867.986L865.012 127.68H862.136L858.985 128.96V134.908H855.164L851.481 131.225H847.503L844.332 134.396V139.635L845.041 140.698L845.553 138.039L849.748 136.799Z" fill="#25262A" stroke="#47484C" stroke-miterlimit="10"/>
    <path d="M864.934 149.618L865.978 150.308L867.415 149.028L866.431 147.984L867.415 144.695L870.882 143.73L870.232 141.248H868.715L865.978 138.491H863.87L862.176 136.797H849.749L845.554 138.038L845.042 140.697L845.16 140.893L846.342 142.686L844.727 144.281L847.031 143.73H848.784L849.749 145.128H853.845L853.235 147.649H857.075V150.997H860.995L864.934 149.618Z" fill="#25262A" stroke="#47484C" stroke-miterlimit="10"/>
    <path d="M862.826 162.716H868.459L869.168 163.445H873.875L874.742 164.311H881.379L882.324 165.257H889.277V166.694H890.38V163.563L892.448 161.79H892.408V155.153H898.435V151.844L889.178 145.739V140.933L877.144 138.589L876.829 137.939L873.698 141.248H870.231L870.881 143.73L867.415 144.695L866.43 147.984L867.415 149.028L865.977 150.308L864.933 149.619L860.994 150.997H857.075V152.75L859.301 154.976V158.245H856.031V161.515H858.769V164.843H860.699L862.826 162.716Z" fill="#25262A" stroke="#47484C" stroke-miterlimit="10"/>
    <path d="M894.339 197.299L894.517 197.122V193.892H897.825H901.311V196.334H908.993L908.815 197.555L903.143 200.096V201.317H906.629V202.263H909.032V205.374L911.179 207.501L917.107 204.271V202.44H922.956V200.529L916.792 200.47L914.133 197.831V196.256L918.505 192.317H922.346L929.672 190.564V184.734H936.31V173.862H926.423L923.725 171.164H914.881L905.507 161.789H892.449L890.381 163.562V166.693H889.278V165.255H882.325L881.38 164.31H874.743L873.876 163.443H869.169L868.46 162.715H862.827L860.7 164.842H858.77V166.496L861.33 169.057V171.735H858.77L854.654 175.851V179.318H853.551L853.078 183.001L857.332 185.797H864.738L866.628 187.432H868.322L869.484 186.29H872.576L875.924 182.961H879.844L887.013 185.955V188.83L890.715 192.533V193.892H886.127V198.087L883.546 200.451L885.437 202.223L887.466 200.608L889.534 200.49V198.816H891.365L892.488 196.098" fill="#25262A"/>
    <path d="M894.339 197.299L894.517 197.122V193.892H897.825H901.311V196.334H908.993L908.815 197.555L903.143 200.096V201.317H906.629V202.263H909.032V205.374L911.179 207.501L917.107 204.271V202.44H922.956V200.529L916.792 200.47L914.133 197.831V196.256L918.505 192.317H922.346L929.672 190.564V184.734H936.31V173.862H926.423L923.725 171.164H914.881L905.507 161.789H892.449L890.381 163.562V166.693H889.278V165.255H882.325L881.38 164.31H874.743L873.876 163.443H869.169L868.46 162.715H862.827L860.7 164.842H858.77V166.496L861.33 169.057V171.735H858.77L854.654 175.851V179.318H853.551L853.078 183.001L857.332 185.797H864.738L866.628 187.432H868.322L869.484 186.29H872.576L875.924 182.961H879.844L887.013 185.955V188.83L890.715 192.533V193.892H886.127V198.087L883.546 200.451L885.437 202.223L887.466 200.608L889.534 200.49V198.816H891.365L892.488 196.098" stroke="#47484C" stroke-miterlimit="10"/>
    <path d="M882.993 192.417L882.127 199.94L883.624 200.373L886.125 198.089V193.894H890.714V192.535L887.011 188.832V185.957L879.842 182.963H875.923L874.859 184.026L877.223 187.316L882.993 192.417Z" fill="#25262A" stroke="#47484C" stroke-miterlimit="10"/>
    <path d="M837.969 186.843V184.952H847.975L849.767 183.16H853.332L853.076 183.002L853.548 179.319H853.41L850.988 176.896H836.335L830.84 182.411L828.969 181.82L830.19 185.168L830.091 185.365L832.593 186.843H837.969Z" fill="#25262A" stroke="#47484C" stroke-miterlimit="10"/>
    <path d="M854.299 187.59V190.604L849.041 195.842H845.555V196.827L847.012 199.25L853.078 205.336H858.041V208.546V208.703L860.74 211.402H873.463L876.437 208.428L882.778 208.979L886.58 211.776H886.658V204.449H890.755V200.884L894.34 197.3L892.488 196.098L891.366 198.816H889.534V200.491L887.466 200.609L885.437 202.224L883.547 200.451L883.625 200.372L882.129 199.939L882.995 192.416L877.224 187.314L874.861 184.025L872.576 186.29H869.484L868.322 187.433H866.628L864.738 185.798H857.332L857.234 185.739L856.288 187.59H854.299Z" fill="#25262A" stroke="#47484C" stroke-miterlimit="10"/>
    <path d="M845.555 195.844H849.041L854.3 190.605V187.592H856.289L857.234 185.74L853.335 183.16H849.77L847.977 184.952H837.972V186.843H832.596L830.094 185.366L826.648 191.215L826.076 191.787L825.801 193.776L833.167 198.877H837.086V197.518H839.627V197.656L842.128 195.844H845.555Z" fill="#25262A" stroke="#47484C" stroke-miterlimit="10"/>
    <path d="M839.921 211.857H842.127V208.508L840.413 206.795L841.634 205.574V203.407L839.625 202.383V202.718L828.458 202.107L823.633 204.687L829.325 210.399L831.59 213.235L832.87 214.476L833.776 215.323L837.636 218.317L837.301 214.929L839.921 211.857Z" fill="#25262A" stroke="#47484C" stroke-miterlimit="10"/>
    <path d="M848.173 220.522L845.947 218.297H843.17L841.24 220.227H840.098L842.028 221.744L841.496 231.808L846.341 235.609L846.558 235.963H847.739V232.635H849.118L851.304 230.449V228.4L847.917 226.175L848.173 220.522Z" fill="#25262A" stroke="#47484C" stroke-miterlimit="10"/>
    <path d="M856.82 218.965V219.122L849.691 219.772L848.548 220.895L848.174 220.521L847.918 226.173L851.306 228.399V228.359H854.201V225.996H857.588L858.691 224.893H859.696V221.998L856.82 218.965Z" fill="#25262A" stroke="#47484C" stroke-miterlimit="10"/>
    <path d="M880.632 220.424L882.995 220.68V211.778H886.58L882.778 208.981L876.437 208.43L873.463 211.404H860.74L858.041 208.705V208.548L857.155 208.981V211.463L859.302 213.61V215.776H856.82V218.967L859.696 222V224.895H861.015L862.315 223.615H866.707L868.204 225.092H874.526V222.669H876.082L876.259 222.847L877.264 220.897L880.632 220.424Z" fill="#25262A" stroke="#47484C" stroke-miterlimit="10"/>
    <path d="M945.366 253.59L948.852 250.085H957.597H965.258H967.011H969.808L958.897 227.494L955.312 223.91H947.73L944.244 227.396H932.111V225.742H924.174L919.369 220.956H908.556L900.087 224.52V225.742H889.787L882.992 220.68L880.628 220.424L877.261 220.897L876.256 222.846L877.261 223.87V225.623H876.394V228.381L879.841 228.282L881.81 227.613H888.999L891.48 228.538L889.393 230.764L880.234 230.626L875.527 233.127L878.797 241.222L884.036 252.822H891.165L893.726 255.363H898.945V250.912H903.396L908.497 256.033H915.961L918.975 253.019H926.301V256.584L929.315 253.59H945.366Z" fill="#25262A" stroke="#47484C" stroke-miterlimit="10"/>
    <path d="M862.571 247.781L857.214 243.98L858.376 242.68L865.328 247.387V244.374L871.079 246.462V245.3L866.746 242.936L865.84 240.061L858.514 230.627L867.928 227.357L875.786 228.401L876.397 228.381V225.624H877.263V223.871L876.082 222.67H874.526V225.092H868.204L866.707 223.615H862.315L861.015 224.895H858.691L857.588 225.998H854.2V228.362H851.305V230.449L849.119 232.636H847.74V235.964H846.559L850.793 242.542L854.318 243.192L852.231 246.206L853.531 250.145L856.032 252.744L856.288 251.051L858.632 253.532L859.813 252.488L861.389 255.502L862.827 253.926L860.995 249.357L862.571 247.781Z" fill="#25262A" stroke="#47484C" stroke-miterlimit="10"/>
    <path d="M875.531 260.482H872.34L871.808 259.931H868.322L867.948 259.557L864.324 259.596V262.176H869.031L870.942 263.614H878.012V261.605H875.531V260.482Z" fill="#25262A" stroke="#47484C" stroke-miterlimit="10"/>
    <path d="M874.406 250.182H871.609V251.797H874.406V250.182Z" fill="#25262A" stroke="#47484C" stroke-miterlimit="10"/>
    <path d="M869.364 252.586H867.926V253.512H869.364V252.586Z" fill="#25262A" stroke="#47484C" stroke-miterlimit="10"/>
    <path d="M883.212 257.805H881.676V261.113H883.212V257.805Z" fill="#25262A" stroke="#47484C" stroke-miterlimit="10"/>
    <path d="M877.577 247.131H875.883V249.258H877.577V247.131Z" fill="#25262A" stroke="#47484C" stroke-miterlimit="10"/>
    <path d="M876.397 241.537H874.742V244.235H876.397V241.537Z" fill="#25262A" stroke="#47484C" stroke-miterlimit="10"/>
    <path d="M876.731 251.52H875.273V253.036H876.731V251.52Z" fill="#25262A" stroke="#47484C" stroke-miterlimit="10"/>
    <path d="M887.308 255.027H885.043V257.47H887.308V255.027Z" fill="#25262A" stroke="#47484C" stroke-miterlimit="10"/>
    <path d="M857.154 211.46V208.978L858.04 208.545V205.335H853.077L847.011 199.249L845.553 196.827V195.842H842.126L839.625 197.654V202.381L841.634 203.405V205.571L840.413 206.792L842.126 208.506V211.854H841.732L845.809 218.294H845.947L848.547 220.894L849.689 219.771L856.819 219.121V215.773H859.3V213.607L857.154 211.46Z" fill="#25262A" stroke="#47484C" stroke-miterlimit="10"/>
    <path d="M839.92 211.855L837.301 214.928L837.636 218.315L840.097 220.226H841.24L843.17 218.296H845.809L841.732 211.855H839.92Z" fill="#25262A" stroke="#47484C" stroke-miterlimit="10"/>
    <path d="M950.605 52.5428L953.048 57.6044L963.506 59.7118L976.78 60.5784L977.647 57.7817L967.524 51.1444L977.647 39.6425L1003.82 33.0052V30.0312H993.364L992.497 30.9175H976.268L959.862 38.5789L950.605 52.5428Z" fill="#25262A" stroke="#47484C" stroke-miterlimit="10"/>
    <path d="M1065.43 16.0857L1081.66 21.4822L1099.46 22.3488V17.9962L1077.13 11.1816L1065.43 16.0857Z" fill="#25262A" stroke="#47484C" stroke-miterlimit="10"/>
    <path d="M1102.95 19.2168V26.3661H1108.72L1120.75 24.2784V22.3483L1109.94 19.2168H1102.95Z" fill="#25262A" stroke="#47484C" stroke-miterlimit="10"/>
    <path d="M1248.5 33.6934L1249.36 37.5339L1261.06 40.5079L1278.33 38.5778V35.6235L1248.5 33.6934Z" fill="#25262A" stroke="#47484C" stroke-miterlimit="10"/>
    <path d="M1283.75 37.1016V38.9332L1301.53 40.5088V37.1016H1283.75Z" fill="#25262A" stroke="#47484C" stroke-miterlimit="10"/>
    <path d="M1274.49 42.2617V45.7478L1287.77 47.6582V45.9053L1274.49 42.2617Z" fill="#25262A" stroke="#47484C" stroke-miterlimit="10"/>
    <path d="M1433.73 57.2088L1437.92 60.2221L1447.87 58.7253V56.1649L1439.48 55.1211L1433.73 57.2088Z" fill="#25262A" stroke="#47484C" stroke-miterlimit="10"/>
    <path d="M1392.23 147.137L1425.3 180.185L1423.78 181.032L1419.98 177.231H1416.2L1419.08 186.133L1430.46 195.153L1428.89 195.823L1424.32 193.716L1424.83 197.517H1422.88L1417.5 192.16L1416.06 184.557L1412.2 180.697L1404.03 169.904V166.891L1397.75 162.696L1396.57 158.777L1392.23 154.719L1393.95 151.982L1390.54 148.043L1392.23 147.137Z" fill="#25262A" stroke="#47484C" stroke-miterlimit="10"/>
    <path d="M1488.62 87.4405L1492.56 86.5739L1514.54 93.546L1518.48 90.7493L1512.19 86.8103L1515.15 85.9437L1513.42 82.4577L1496.65 76.8643H1488.11L1432.96 64.476L1412.38 62.7429L1416.91 66.4062L1414.94 68.3757L1401.84 63.4125H1367.79L1364.05 59.6507L1338.44 59.1387L1319.42 55.1996V52.9347L1281.03 49.6062L1283.3 56.4207L1255.82 53.7816V59.6901L1231.74 45.2142H1213.77V48.8775L1193.7 46.258L1167 44.6824L1149.02 49.232V47.9912L1165.6 39.4435V37.1786L1156.36 32.1169H1136.47V30.0293H1127.9V27.9219H1115.18V32.6487L1073.29 39.2663L1075.38 45.9035H1055.33L1060.39 51.4969L1058.64 53.4664L1052 51.7333L1045.36 53.2892L1038.57 46.8292H1036.6L1039.2 52.2454L1035.71 55.0421L1043.75 66.5637L1056.13 67.6075L1061.88 74.2448L1060.33 75.2887L1055.27 70.5618H1049.14L1044.43 82.3789L1039.73 80.4094L1043.39 71.3496L1037.29 68.7302L1032.76 59.4735L1029.43 56.1647V49.0547H1014.95V54.6285L1012.84 56.7161L1013.38 63.5307L1025.59 68.9468L1024.19 72.8858L1009.34 66.6622L983.163 59.8674L982.474 62.8413L993.641 68.4151L988.58 72.2556L986.393 67.5682L973.887 70.6012L972.233 72.2556H967.525V68.7696L945.703 76.0962V79.6216H938.771L935.934 76.7855V73.91H939.164L935.934 70.68H929.652V76.9627L933.138 78.7156L931.739 83.0682L924.236 80.9805L916.909 86.3967L919.883 91.2811L905.052 88.1299L904.343 90.9266L910.626 92.6795L910.803 95.4565L898.061 92.325L896.485 84.8211L886.894 79.7595V77.6718L914.467 84.8999L919.962 79.4049L917.992 74.8751L895.481 67.5682L877.144 64.2397V63.964L869.641 67.2136V72.2753L875.549 74.0282L872.319 79.6019L877.558 85.3529V91.478L880 93.9203V97.229L884.707 101.936V104.339L874.584 112.591L877.204 115.211H881.911V117.18H877.735L873.383 119.425V121.395L871.098 123.227L873.993 128.643L872.024 129.943V131.912H874.998V134.354L877.085 138.549L889.119 140.913V145.699L898.376 151.804V155.133H892.349V161.75H905.446L914.802 171.165H923.664L926.422 173.922H936.269V184.813H929.632V190.722L934.339 189.599V191.332L930.853 193.617H928.194V194.838L931.07 196.808L928.627 198.383V200.747L926.008 201.436L932.291 205.375H935.816L942.729 212.268L945.29 211.697L960.829 217.606H966.324L975.994 221.978L980.544 226.429L984.227 222.293L977.491 215.951V209.846L972.252 207.404V203.662L976.191 199.722H978.988L982.553 196.138L974.675 188.26H969.712V183.632H966.225V172.642L969.357 169.49L974.517 174.651L976.487 172.681L973.158 169.353L983.813 163.602H991.691L1007.05 170.239L1010.19 167.088H1018.58L1021.63 170.14H1032.36V165.177L1025.09 162.479L1027.36 155.842L1025.27 151.647L1027.24 149.559L1057.08 141.878L1066.67 142.055L1070.61 148.87H1083V153.4H1087.71L1095.13 145.974V149.913L1118.43 168.762L1122.09 165.709L1126.03 169.274L1134.76 167.718L1144.45 177.388H1152.21L1159.53 179.062L1174.9 169.372H1185.89V173.567H1203.16V168.013L1200.54 165.414V159.899L1218.87 165.67L1225.06 171.854H1232.23L1234.53 169.55L1250.8 174.828L1254.21 177.959H1274.53L1279.79 172.72L1297.4 176.659L1301.59 172.267V159.938L1297.4 155.763L1300.41 152.75H1319.38L1343.13 176.502H1354.2L1365.43 187.728H1373.56V182.726H1383.25V202.086H1375.14L1383.35 215.774L1384.83 214.297H1397.57L1404.9 182.785L1395.64 161.671L1390.24 154.857L1374.35 147.885V152.257L1354.65 145.797L1366.17 118.224H1399.14L1406.14 120.666V123.995L1417.95 120.331V118.047H1412.69V105.324H1425.28L1431.9 111.941L1436.96 106.88L1434 102.704L1439.4 102.527L1444.11 109.676L1439.58 121.887L1441.84 124.172L1437.39 135.418L1469.95 167.974L1475.86 162.065L1472.8 159.013L1476.98 154.818L1471.07 148.909H1476.05V146.152L1470.81 140.933L1473.34 138.392L1463.49 127.914H1457.74L1451.61 115.88H1459.12L1461.09 117.85H1463.88V114.443H1478.28L1489.35 103.354L1500 104.575L1500.18 102.31L1480.27 92.4628L1483.99 89.2328L1478.5 85.2938L1481.12 83.9151L1488.62 87.4405ZM1242.9 155.231L1236.62 160.47V163.09L1229.92 165.709L1224.68 163.09L1232.29 160.726V157.851L1234.89 155.231L1238.43 151.706V140.578H1240.13L1243 148.692L1242.9 155.231Z" fill="#25262A" stroke="#47484C" stroke-miterlimit="10"/>
    <path d="M659.355 87.1071L665.638 96.5214L679.602 99.3181L701.582 87.1071L694.964 81.5137L672.61 86.0632L668.77 81.5137L659.355 87.1071Z" fill="#25262A" stroke="#47484C" stroke-miterlimit="10"/>
    <path d="M1368.38 333.51L1374.84 341.881H1377.28V322.343L1372.73 321.457L1368.38 333.51Z" fill="#25262A" stroke="#47484C" stroke-miterlimit="10"/>
    <path d="M1313.77 357.58V363.527H1320.05L1323.79 359.766V356.004H1316.72L1313.77 357.58Z" fill="#25262A" stroke="#47484C" stroke-miterlimit="10"/>
    <path d="M1362.26 223.731L1364.42 222.077L1369.76 223.731L1368.93 220.954L1375.04 217.508V215.026L1376.08 214.199L1379.1 215.853H1383.25L1383.31 215.794L1375.1 202.106H1383.21V182.726H1373.52V187.729H1365.39L1354.16 176.502H1343.09L1319.34 152.75H1300.35L1297.36 155.763L1301.54 159.958V172.327L1297.36 176.719L1291.87 175.478V185.089H1305.87L1318.16 192.534V194.385H1301.16V200.53H1293.82V204.647H1288.26L1285.98 202.362H1283.08V206.675L1287.28 210.339L1283.22 212.84V216.109L1279.42 218.453H1267.52L1260.06 223.574L1242.9 220.166V217.271H1214.29L1206.78 207.68L1194.39 201.062H1180.61V193.893L1171.71 186.744L1159.67 180.993L1159.06 178.964L1154.57 177.94V182.588H1150.75V185.68L1153.04 187.965V190.407H1140.82V197.556L1143.09 199.841V201.968L1137.67 200.885L1131.41 203.15L1138.74 213.096L1137.34 218.67L1137.14 218.63L1137.59 222.175H1134.8H1132.45V226.784H1123.02V231.156H1117.78V229.581L1111.24 232.476V235.962L1110.32 235.903V239.527L1112.5 241.713L1114.02 240.216L1119.89 242.796L1119.1 246.341L1120.79 248.429L1118.45 250.517H1122.51L1126.43 254.062V257.469L1136.9 261.388L1143.17 257.587L1149.86 260.344V265.446L1147.7 267.612V268.971H1143.84L1145.41 272.91H1148.54L1149.86 276.435L1147.36 278.661L1145.28 276.829L1143.17 278.661L1146.58 281.536L1146.46 284.688L1160.18 292.802L1163.34 289.651L1193.31 306.667L1201.17 304.324L1202.73 305.23V308.893H1204.16L1208.1 302.748L1216.99 306.274H1222.5V304.442L1229.94 296.977L1234.79 299.085L1238.33 296.603L1242.65 299.873L1240.42 302.216L1246.06 304.048L1247.61 302.216L1253.91 307.849V319.765L1251.16 322.502V329.849H1258.09L1259.41 334.812H1263.07V340.957H1266.46V344.62H1272.88V346.452H1275.89V339.007H1277.86V337.175H1287.81L1291.08 336.112V333.236H1293.42L1296.3 336.112H1301.16V340.838L1308.84 344.62L1310.62 342.237L1319.7 344.502V351.119H1322.65L1322.14 345.191L1349.53 335.422L1362.45 321.458L1371.34 302.61V294.063L1362.97 291.266L1367.16 286.027L1353.73 268.597L1345.52 264.224L1351.11 251.127H1357.57V248.508L1346.84 245.297L1340.89 251.226L1329.11 239.448L1343.17 225.405L1349.28 231.511L1343.86 236.907L1347.45 240.492L1358.26 233.52L1363.46 226.173L1362.26 223.731Z" fill="#FDBD00" stroke="#47484C" stroke-miterlimit="10"/>
    <path d="M1097.02 225.918L1090.74 223.653L1093.89 220.167L1092.37 219.3L1092.82 218.67V216.228H1103.66V213.963H1107.5L1109.86 216.326H1129.65L1137.34 218.67L1137.59 222.176H1132.45V226.784H1123.02V231.157H1117.78V229.581L1111.24 232.476V235.962L1107.93 235.785V237.183L1095.94 236.612L1095.19 235.864H1088.47L1087.61 233.855L1091.35 231.334L1094.75 232.988L1094.95 231.964L1100.86 232.023L1104.7 228.183L1097.02 223.653V225.918Z" fill="#25262A" stroke="#47484C" stroke-miterlimit="10"/>
    <path d="M1383.57 241.891L1375.35 235.253L1382.86 227.749L1380.41 223.732L1381.38 217.725L1383.25 215.854H1379.1L1376.08 214.199L1375.04 215.026V217.508L1368.93 220.955L1369.76 223.732L1364.42 222.077L1362.26 223.732L1363.46 226.174L1358.26 233.52L1365.07 236.12L1364.19 244.51L1378.66 246.952L1383.59 241.91L1383.57 241.891Z" fill="#25262A" stroke="#47484C" stroke-miterlimit="10"/>
    <path d="M1395.06 252.526L1383.58 241.91L1378.66 246.952H1378.68L1379.01 250.084L1375.53 252.014L1381.46 257.233L1383.21 266.49L1395.77 262.649L1395.06 252.526Z" fill="#25262A" stroke="#47484C" stroke-miterlimit="10"/>
    <path d="M1307.48 488.118H1301.55V478.526H1297.69V473.11L1268.39 450.776L1265.24 442.386H1257.56L1255.11 439.943H1248.5L1270.48 462.632V474.686H1274.32L1280.95 490.205L1300.14 509.408H1307.48V488.118Z" fill="#FDBD00" stroke="#47484C" stroke-miterlimit="10"/>
    <path d="M1343.07 515.338L1332.77 512.896V516.382L1320.92 515.338V512.719L1309.39 510.631L1303.29 515.515L1310.79 516.559L1309.93 518.647L1351.29 527.037V520.577L1343.07 518.824V515.338Z" fill="#FDBD00" stroke="#47484C" stroke-miterlimit="10"/>
    <path d="M1377.1 523.706L1368.73 522.662L1366.98 525.715L1353.73 523.706V526.503L1365.58 528.768L1377.1 527.034V523.706Z" fill="#FDBD00" stroke="#47484C" stroke-miterlimit="10"/>
    <path d="M1408.6 523.412L1379.41 525.716V527.036H1389.49L1408.6 525.716V523.412Z" fill="#FDBD00" stroke="#47484C" stroke-miterlimit="10"/>
    <path d="M1375.23 531.133V533.871H1379.41L1382.42 536.884L1385.38 533.95L1381.58 530.148L1375.23 531.133Z" fill="#FDBD00" stroke="#47484C" stroke-miterlimit="10"/>
    <path d="M1410.31 525.716L1397.86 536.884L1401.53 537.947L1420.12 525.716L1419.07 523.412L1410.31 525.716Z" fill="#FDBD00" stroke="#47484C" stroke-miterlimit="10"/>
    <path d="M1321.27 490.384L1316.03 488.631L1313.94 492.137L1318.47 494.756L1321.27 490.384Z" fill="#FDBD00" stroke="#47484C" stroke-miterlimit="10"/>
    <path d="M1308.53 486.367V492.65H1311.66V489.518L1309.75 483.59L1304.51 482.881L1305.37 486.367H1308.53Z" fill="#FDBD00" stroke="#47484C" stroke-miterlimit="10"/>
    <path d="M1416.36 486.108L1406.08 483.922V487.231H1414.45V489.693L1416.36 486.108Z" fill="#FDBD00" stroke="#47484C" stroke-miterlimit="10"/>
    <path d="M1415.16 492.65V495.093L1419 498.421L1421.95 495.526L1420.12 492.65H1415.16Z" fill="#FDBD00" stroke="#47484C" stroke-miterlimit="10"/>
    <path d="M1425.1 491.781L1427.52 495.523H1434.69L1438.36 498.418L1441.15 495.523L1438.36 491.781H1425.1Z" fill="#FDBD00" stroke="#47484C" stroke-miterlimit="10"/>
    <path d="M1426.32 475.02V471.712L1430.68 473.11V470.845L1428.89 469.053L1430.68 464.385H1427.72L1430.68 459.835L1428.41 458.969L1425.1 460.544L1421.95 469.624L1423.53 471.712V475.198H1421.09V478.526H1428.24L1426.32 475.02Z" fill="#FDBD00" stroke="#47484C" stroke-miterlimit="10"/>
    <path d="M1443.32 474.942L1438.71 473.898V477.306H1443.32V474.942Z" fill="#FDBD00" stroke="#47484C" stroke-miterlimit="10"/>
    <path d="M1477.45 482.171L1474.3 485.323V488.631H1471.35L1465.93 494.048H1460.69V488.297H1458.78L1459.98 482.526L1458.43 478.173H1454.59L1453.01 476.598H1448.48L1446.55 478.528H1438.18L1441.15 484.279H1447.79V487.765H1455.45V490.207H1446.55V491.783L1453.9 498.42L1455.98 495.525L1478.32 507.322L1481.8 519.356H1477.1L1475.7 523.531H1488.44L1491.93 530.168L1495.77 530.621V490.621L1477.45 482.171Z" fill="#FDBD00" stroke="#47484C" stroke-miterlimit="10"/>
    <path d="M1376.16 495.976H1379.41V507.832H1384.08V492.647L1387.76 488.984L1389.57 490.816V496.842L1391.36 498.635V503.48H1394V501.727H1399.09V498.595H1396.82L1393.93 495.7L1396.21 493.435L1390.54 487.763L1399.52 478.782V476.95L1395.46 481.007H1391.07L1389.34 482.741H1385.38V480.082H1383.9V472.401L1386.7 471.022L1406.43 472.755L1413.27 465.901L1411.75 464.385L1406.02 470.096L1388.63 466.118L1381.38 470.136V478.526H1379.41V486.01L1376.16 489.279V495.976Z" fill="#FDBD00" stroke="#47484C" stroke-miterlimit="10"/>
    <path d="M1329.44 492.649H1339.23V494.757H1345.69V492.649H1353.73V500.685L1362.81 496.844V484.811L1369.68 477.917V468.582H1377.11L1377.97 466.12L1372.73 460.901L1374.15 459.483L1368.4 453.712L1371.43 450.679L1368.68 448.414H1359.91V455.091L1354.67 467.006H1348.41L1346.83 465.431H1343.43L1340.28 468.582H1333.62L1330.53 464.997H1328.24L1327.28 461.236L1322.1 466.435V474.687L1329.44 482.034V492.649Z" fill="#FDBD00" stroke="#47484C" stroke-miterlimit="10"/>
    <path d="M1367.67 429.311L1357.04 444.83L1355.38 443.176L1343.68 454.875L1336.1 455.663V464.998H1330.53L1333.62 468.583H1340.28L1343.43 465.431H1346.83L1348.41 467.007H1354.67L1359.91 455.091V448.415H1368.68L1371.43 450.68L1380.24 441.876L1367.67 429.311Z" fill="#25262A" stroke="#47484C" stroke-miterlimit="10"/>
    <path d="M1294.56 444.315L1287.71 436.812L1283.34 439.943H1280.99V436.772L1276.8 433.877L1275.24 435.275L1276.94 437.166L1278.33 448.51L1283.4 453.572V457.058L1295.96 467.339L1298.58 470.49H1300.31L1300.85 463.164L1294.56 456.881V444.315Z" fill="#25262A" stroke="#47484C" stroke-miterlimit="10"/>
    <path d="M1095.8 247.644V242.07H1102.44V251.957L1111.68 248.51L1119.85 247.269L1119.1 246.344L1119.89 242.799L1114.02 240.219L1112.5 241.715L1110.32 239.529V235.905L1107.93 235.787V237.185L1095.94 236.614L1095.19 235.866H1088.47L1087.61 233.857L1091.35 231.336L1094.76 232.99L1094.95 231.966L1092.65 230.016L1094.23 228.638L1091.49 227.102L1084.93 234.566H1079.83V237.304L1086.25 244.512L1083.85 248.825L1086.03 251.957L1095.8 247.644Z" fill="#25262A" stroke="#47484C" stroke-miterlimit="10"/>
    <path d="M1079.65 295.994L1083.89 294.162V287.997L1085.93 285.949H1089.77V283.861L1092.06 281.931H1095.52V283.861H1097.55V274.526H1102.04V272.773L1098.85 270.508V269.366H1105.65V259.164L1102.95 256.466V253.492L1109.94 250.931L1117.27 251.955L1119.22 250.518H1118.45L1120.79 248.43L1119.85 247.268L1111.67 248.509L1102.44 251.955V242.068H1095.8V247.642L1086.03 251.955L1083.85 248.824L1083.49 249.474L1077.39 247.544V248.607H1069.53V254.969L1062.38 257.844V260.818H1058.71L1052.18 258.455V271.375L1053.57 272.773L1056.35 284.295H1060.37V288.667L1056.1 292.921L1057.65 294.477L1065 295.994H1079.65Z" fill="#25262A" stroke="#47484C" stroke-miterlimit="10"/>
    <path d="M1112.6 327.386V322.501L1107.52 317.42V313.087H1103.3V310.113L1107.67 305.741H1110.31L1111.53 306.942H1115.51L1116.56 301.034L1120.61 296.976V293.313H1123.35V289.788L1126.33 286.814V281.535L1127.88 279.98V277.951H1124.34V274.544L1120.81 271.018V267.926L1119.08 266.193V264.401H1129.5L1134.68 260.54L1126.42 257.468V254.061L1122.5 250.516H1119.22L1117.27 251.953L1109.94 250.929L1102.95 253.49V256.464L1105.65 259.162V269.364H1098.85V270.506L1102.04 272.771V274.524H1097.55V283.859H1095.52V281.929H1092.06L1089.77 283.859V285.947H1085.93L1083.88 287.995V294.16L1079.65 295.992H1064.99L1057.65 294.475L1065.07 301.92H1067.87V308.892H1072.07V313.264H1067.18L1063.85 316.573V320.709L1065.07 320.945H1090.74L1100.68 330.891V327.386H1112.6Z" fill="#25262A" stroke="#47484C" stroke-miterlimit="10"/>
    <path d="M1157.05 300.662L1175.51 310.726L1192.78 314.389L1200.1 315.059L1201.29 313.09L1199.59 310.076L1199.3 304.877L1193.31 306.669L1163.33 289.652L1160.18 292.804L1158.96 292.075L1157.05 294.379V300.662Z" fill="#25262A" stroke="#47484C" stroke-miterlimit="10"/>
    <path d="M1210.44 313.342L1211.59 311.648L1219.6 313.342L1220.39 309.167L1216.73 308.359L1216.9 306.232L1208.1 302.746L1204.16 308.891H1203.45L1203.12 311.51L1210.44 313.342Z" fill="#25262A" stroke="#47484C" stroke-miterlimit="10"/>
    <path d="M1224.31 331.149H1222.22V335.069H1218.95V327.545H1221.26L1224.98 323.823L1222.89 321.715H1209.14V318.131H1206.72L1203.91 315.314L1201.17 318.072L1205.48 322.385H1202.47V327.624H1204.83L1206.39 329.18L1205.34 331.011L1210.03 343.675L1218.99 340.308V337.176H1222.32L1225.81 345.901L1225.83 345.921L1228.5 345.153L1224.31 331.149Z" fill="#25262A" stroke="#47484C" stroke-miterlimit="10"/>
    <path d="M1230.87 339.262L1228.51 337.43V334.948H1230.36V330.615H1234.14L1236.62 323.565L1234.83 321.753L1237.09 319.488V314.19L1241.07 310.211H1244.81V307.651L1245.92 306.548V304.007L1240.42 302.215L1242.65 299.871L1238.33 296.602L1234.79 299.084L1229.94 296.976L1222.5 304.441V306.272H1216.98L1216.9 306.233L1216.73 308.36L1220.39 309.167L1219.6 313.343L1211.59 311.649L1210.44 313.343L1203.12 311.511L1203.45 308.892H1202.72V305.228L1201.17 304.322L1199.3 304.874L1199.59 310.073L1201.29 313.087L1200.1 315.056L1192.78 314.387L1175.51 310.723L1157.05 300.659V294.376L1158.96 292.072L1146.46 284.686L1146.57 281.535L1143.17 278.66L1145.27 276.828L1147.36 278.66L1149.86 276.434L1148.54 272.909H1145.41L1143.84 268.97H1147.7V267.611L1149.86 265.444V260.343L1143.17 257.586L1136.9 261.387L1134.68 260.54L1129.5 264.4H1119.08V266.193L1120.81 267.926V271.018L1124.34 274.543V277.951H1127.88V279.979L1126.33 281.535V286.814L1123.35 289.787V293.313H1120.62V296.976L1116.56 301.033L1115.51 306.942H1111.54L1110.31 305.741H1107.68L1103.3 310.113V313.087H1107.52V317.42L1112.6 322.501V327.385H1100.68V330.891L1105.57 335.776H1111.32V338.828H1104.6L1116.12 350.35L1120.75 345.722V339.439H1123.55L1130.01 374.516L1138.73 388.48V392.478L1149.29 413.079V419.972L1154.08 424.758H1159.14V417.786H1162.62V411.326H1167.17V376.958L1177.65 375.382V371.719L1190.91 356.357L1198.41 350.783V345.544L1206.43 341.527V345.013L1210.03 343.673L1205.34 331.009L1206.39 329.178L1204.83 327.622H1202.47V322.383H1205.48L1201.17 318.07L1203.91 315.312L1206.72 318.129H1209.14V321.713H1222.89L1224.98 323.821L1221.26 327.543H1218.95V335.067H1222.22V331.147H1224.31L1227.26 340.955H1230.87V339.262Z" fill="#FDBD00" stroke="#47484C" stroke-miterlimit="10"/>
    <path d="M1270.99 402.877L1267.98 397.244V390.902L1262.4 384.678V381.468H1264.63V376.229L1256.79 364.195V355.096H1262.93V352.871H1265.3V351.118H1267.9L1272.53 344.618H1266.46V340.955H1263.07V334.81H1259.41L1258.09 329.847H1251.16V322.501L1253.91 319.763V307.848L1247.61 302.215L1246.05 304.046L1245.92 304.007V306.548L1244.81 307.651V310.211H1241.07L1237.09 314.189V319.487L1234.83 321.752L1236.62 323.564L1234.14 330.615H1230.36V334.948H1228.51V337.43L1230.87 339.261V340.955H1227.27L1228.51 345.15L1225.83 345.918L1240.46 367.347V378.868H1247.45L1252.85 374.516L1253.2 369.454L1258.09 376.249L1266.3 400.159L1265.47 419.105L1270.99 404.886V402.877Z" fill="#25262A" stroke="#47484C" stroke-miterlimit="10"/>
    <path d="M1286.1 398.071L1284.44 392.399L1289.07 387.771H1299.88V379.656L1295.71 375.481V368.41L1290.9 363.605H1287.41L1283.48 367.524L1280.86 364.924L1276.84 368.922H1274.93V356.357H1270.91V352.26L1268.15 350.783L1267.9 351.118H1265.3V352.871H1262.93V355.096H1256.79V364.196L1264.63 376.229V381.468H1262.4V384.679L1267.98 390.902V397.244L1270.99 402.877V404.886L1265.47 419.106L1265.24 424.246L1275.24 435.275L1276.8 433.877L1280.99 436.772V439.943H1283.34L1287.71 436.812L1283.4 432.104H1278.87L1274.32 418.653H1271.01L1269.43 415.167L1272.74 401.912V393.699H1278.34V398.071H1283.04L1284.8 402.089L1287.24 401.203L1287.67 401.597L1287.85 398.071H1286.1Z" fill="#25262A" stroke="#47484C" stroke-miterlimit="10"/>
    <path d="M1316.9 380.268L1298.74 358.111L1308.84 344.62L1301.16 340.839V336.112H1296.3L1293.42 333.236H1291.08V336.112L1287.81 337.175H1277.86V339.007H1277.72L1281.92 343.182V346.235L1287.31 349.209L1288.36 348.165L1295.33 353.739L1293.16 355.905H1291.14L1289.87 357.166L1310.4 377.688L1309.27 378.811L1312.15 381.667L1313.76 399.471L1305.2 403.134V407.054H1306.77V408.885H1301.02V411.643H1298.6L1299.98 412.903V422.16H1302.76L1321.6 405.222L1322.49 397.895L1316.9 380.268Z" fill="#25262A" stroke="#47484C" stroke-miterlimit="10"/>
    <path d="M1305.2 403.136L1313.76 399.473L1312.6 386.809H1304.76V390.925L1297.61 387.774H1289.07L1284.44 392.402L1286.09 398.074H1287.84L1287.67 401.6L1290.96 408.572L1295.29 408.611L1298.6 411.644H1301.02V408.887H1306.77V407.055H1305.2V403.136Z" fill="#25262A" stroke="#47484C" stroke-miterlimit="10"/>
    <path d="M924.355 297.037L926.305 286.717V276.436H928.098L931.19 279.548H933.514L942.14 273.758L944.76 280.356L935.601 284.689L939.127 288.746L937.827 293.059H934.026L931.012 298.948L924.355 297.037Z" fill="#25262A" stroke="#47484C" stroke-miterlimit="10"/>
    <path d="M1605.45 596.975L1602.58 588.723L1599.17 590.554L1603.62 602.47L1614.21 613.322L1617.09 610.309L1605.45 596.975Z" fill="#25262A" stroke="#47484C" stroke-miterlimit="10"/>
    <path d="M1171.7 186.744L1180.61 193.894V201.063H1194.39L1206.78 207.68L1214.28 217.272H1242.9V220.167L1260.06 223.574L1267.52 218.454H1279.42L1283.22 216.11V212.84L1287.27 210.339L1283.08 206.676V202.363H1285.97L1288.26 204.647H1293.81V200.531H1301.16V194.386H1318.16V192.535L1305.87 185.09H1291.86V175.479L1279.73 172.781L1274.49 178.019H1254.17L1250.76 174.868L1234.47 169.59L1232.17 171.894H1225L1218.81 165.71L1200.5 159.959V165.454L1203.12 168.073V173.568H1185.84V169.373H1174.85L1159.49 179.063L1159.06 178.965L1159.67 180.993L1171.7 186.744Z" fill="#25262A" stroke="#47484C" stroke-miterlimit="10"/>
    <path d="M716.295 323.704L764.41 360.455L775.4 357.58L806.341 333.197L807.601 332.192V325.91H796.336L792.416 316.495V291.621L783.002 267.021L787.709 264.146L787.512 250.143H777.881L772.524 253.018L770.555 251.561L752.238 253.53L746.211 257.469H743.474L735.872 261.467H735.635L738.491 280.355H730.121V287.169L699.672 301.035V307.16V311.001L700.361 311.532V310.213V311.532L716.295 323.704Z" fill="#25262A" stroke="#47484C" stroke-width="1.18171" stroke-miterlimit="10"/>
    <path d="M937.488 371.586V388.74L944.756 385.195L954.84 386.968L966.992 399.179L967.149 399.336L969.985 396.953L953.047 381.315L947.316 364.811L940.64 371.586H937.488Z" fill="#25262A" stroke="#47484C" stroke-width="1.18171" stroke-miterlimit="10"/>
    <path d="M966.993 399.175L964.137 403.488V409.456L970.459 408.884L975.008 404.059L971.207 398.072L969.986 396.949L967.15 399.332L966.993 399.175Z" fill="#25262A" stroke="#47484C" stroke-width="1.18171" stroke-miterlimit="10"/>
    <path d="M860.558 393.111V379.581H870.74V353.012H868.712V356.537L828.278 332.332L822.408 336.192L822.901 336.389L828.278 352.52V372.766L813.23 393.111H814.668L817.603 402.072L823.433 395.672L824.358 414.264H818.725L817.682 417.789L825.796 428.267L824.772 430.04L831.153 427.144L832.729 429.173L843.325 419.818H850.71L864.103 407.823L865.62 406.445L860.558 393.111Z" fill="#25262A" stroke="#47484C" stroke-width="1.18171" stroke-miterlimit="10"/>
    <path d="M873.518 341.175V353.011H870.741V379.58H860.559V393.111L865.62 406.444L864.104 407.823L870.288 414.007V421.708L887.974 439.414V443.904L906.803 451.211H920.845L924.115 447.942L924.942 447.115H935.065V439.434L923.386 427.735H918.147V423.027H924.253L937.488 397.837V389.782V388.738V371.584H940.639L947.316 364.809L947.296 364.75L940.147 362.13L938.216 342.396L930.713 336.645L928.33 331.701L918.836 341.175H873.518Z" fill="#25262A" stroke="#47484C" stroke-width="1.18171" stroke-miterlimit="10"/>
    <path d="M918.838 341.172L928.331 331.699L909.247 292.309H911.689L920.591 305.583H922.167L923.722 296.149L918.976 286.518H910.074L904.441 283.367L893.727 288.744L881.555 284.037H873.52V341.172H918.838Z" fill="#FDBD00" stroke="#47484C" stroke-width="1.18171" stroke-miterlimit="10"/>
    <path d="M675.937 333.158H682.043V317.283H700.359V311.532L699.67 311.001V307.16H677.158L667.035 324.078L661.107 329.672L658.231 337.609L654.824 340.996V345.723H675.937V333.158Z" fill="#25262A" stroke="#47484C" stroke-width="1.18171" stroke-miterlimit="10"/>
    <path d="M895.48 574.68L885.869 582.361H877.223L881.674 597.88H889.394L895.677 610.446H906.273H907.73L915.825 593.567V577.969L909.68 571.844H903.476V567.885L895.48 570.662V574.68Z" fill="#25262A" stroke="#47484C" stroke-width="1.18171" stroke-miterlimit="10"/>
    <path d="M902.177 480.418L896.406 490.896H898.238H902.551V488.788H907.199V482.88H902.177V480.418Z" fill="#25262A" stroke="#47484C" stroke-width="1.18171" stroke-miterlimit="10"/>
    <path d="M904.617 638.887H910.742L912.298 636.09H910.742V631.561H904.617V638.887Z" fill="#25262A" stroke="#47484C" stroke-width="1.18171" stroke-miterlimit="10"/>
    <path d="M678.892 386.375V380.624H682.043H713.102V324.079L716.293 323.705L700.359 311.533V317.284H682.043V333.158H675.937V345.724H654.824V346.945L657.089 351.12V374.853H668.611L678.892 386.375Z" fill="#25262A" stroke="#47484C" stroke-width="1.18171" stroke-miterlimit="10"/>
    <path d="M741.56 382.574H739.157L726.059 393.978L722.002 392.934L713.75 410.069H714.676L720.427 415.82H728.679V408.926L737.542 408.237H742.544H747.527L748.295 407.41L754.578 400.635L741.56 382.574Z" fill="#25262A" stroke="#47484C" stroke-width="1.18171" stroke-miterlimit="10"/>
    <path d="M902.552 490.896H898.238L901.606 500.527L907.2 494.087V488.789H902.552V490.896Z" fill="#25262A" stroke="#47484C" stroke-width="1.18171" stroke-miterlimit="10"/>
    <path d="M865.622 578.499L859.694 572.571V552.502H870.152V541.61H859.95V518.823H853.667V514.904L845.809 516.204V523.806H836.395L831.943 510.984H808.506L815.025 528.08H812.051L816.069 539.936V548.326L805.414 569.085V580.075H853.411L865.622 578.499Z" fill="#25262A" stroke="#47484C" stroke-width="1.18171" stroke-miterlimit="10"/>
    <path d="M806.475 488.473H817.603V477.207L816.264 475.868V472.815L819.848 469.251L816.835 466.218H812.896V460.723H803.482V468.837H794.993L789.715 480.437L801.808 498.321L806.475 495.209V488.473Z" fill="#25262A" stroke="#47484C" stroke-width="1.18171" stroke-miterlimit="10"/>
    <path d="M803.485 460.723H795.036V468.739L794.996 468.837H803.485V460.723Z" fill="#25262A" stroke="#47484C" stroke-width="1.18171" stroke-miterlimit="10"/>
    <path d="M682.043 398.251V396.203V380.624H678.892V386.375L668.611 374.854H657.089V378.359L654.824 384.642V398.251H671.092H682.043Z" fill="#25262A" stroke="#47484C" stroke-width="1.18171" stroke-miterlimit="10"/>
    <path d="M960.356 456.154L964.433 452.097L958.643 446.307L954.192 450.777V452.865H946.215L940.444 447.114H935.068H924.944L924.117 447.941L931.68 462.614L924.432 473.309L927.308 474.156V480.182L925.712 481.778L944.383 492.137L943.458 496.844L952.715 502.654L962.995 483.59L963.527 482.999L960.356 479.828V456.154Z" fill="#25262A" stroke="#47484C" stroke-width="1.18171" stroke-miterlimit="10"/>
    <path d="M812.898 460.725H828.28V455.88L820.166 438.213L824.775 430.04L825.799 428.267L817.684 417.789L818.728 414.264H824.361L823.435 395.672L817.606 402.073L818.728 405.48L803.681 435.712L799.742 431.399H793.853L788.023 445.757H788.969L795.035 451.823V460.725H803.484H812.898Z" fill="#25262A" stroke="#47484C" stroke-width="1.18171" stroke-miterlimit="10"/>
    <path d="M944.384 492.136L925.713 481.776L921.813 485.676V489.516H913.797V479.826H907.2V482.879V488.787V494.085L901.606 500.526L901.055 501.156L909.307 526.681L925.516 532.038L927.151 537.927L929.061 544.741H945.29L957.777 539.562V536.095H952.006V503.992L952.715 502.653L943.458 496.843L944.384 492.136Z" fill="#25262A" stroke="#47484C" stroke-width="1.18171" stroke-miterlimit="10"/>
    <path d="M929.061 544.742L927.15 537.928L925.004 549.587L927.15 558.489H932.074V571.567L928.529 577.85L923.034 570.405L926.382 567.057V561.365H920.553L917.618 558.785L902.965 564.201L904.54 567.51L903.477 567.884V571.843H909.681L915.826 577.968V593.566L907.731 610.445H906.274L910.744 620.923V631.558V636.088H912.3H913.955V629.116L926.776 620.746V598.845L957.776 567.864V539.562L945.29 544.742H929.061Z" fill="#25262A" stroke="#47484C" stroke-width="1.18171" stroke-miterlimit="10"/>
    <path d="M688.501 424.84L689.151 424.072L684.306 414.264H676.447L674.793 418.754L675.049 419.01V428.09L681.864 432.836L688.501 424.84Z" fill="#25262A" stroke="#47484C" stroke-width="1.18171" stroke-miterlimit="10"/>
    <path d="M699.1 433.228V428.127L688.504 424.838L681.867 432.834L702.882 447.546L704.339 438.467L699.1 433.228Z" fill="#25262A" stroke="#47484C" stroke-width="1.18171" stroke-miterlimit="10"/>
    <path d="M654.824 398.25V399.294L664.199 408.413L671.092 398.25H654.824Z" fill="#25262A" stroke="#47484C" stroke-width="1.18171" stroke-miterlimit="10"/>
    <path d="M737.543 408.234L728.681 408.924V415.817H730.571V425.31L727.637 428.264V443.745L732.994 445.714L747.253 437.876L742.546 408.234H737.543Z" fill="#25262A" stroke="#47484C" stroke-width="1.18171" stroke-miterlimit="10"/>
    <path d="M755.764 399.334L754.582 400.614L748.299 407.389L747.531 408.236L751.588 413.337C751.588 413.337 752.12 429.093 752.297 435.1H757.536V420.447L763.445 411.013V403.135L755.764 399.334Z" fill="#25262A" stroke="#47484C" stroke-width="1.18171" stroke-miterlimit="10"/>
    <path d="M747.53 408.293H742.547L747.274 437.836L752.296 435.078C752.119 429.032 751.587 413.315 751.587 413.315L747.53 408.293Z" fill="#25262A" stroke="#47484C" stroke-width="1.18171" stroke-miterlimit="10"/>
    <path d="M699.672 301.037L730.12 287.172V280.357H738.491L735.635 261.47H722.971L719.78 258.299H715.9L711.193 268.599L698.805 275.926L698.273 278.88L694.078 285.518L696.008 291.446L684.841 306.276H677.672L677.16 307.162H699.672V301.037Z" fill="#25262A" stroke="#47484C" stroke-width="1.18171" stroke-miterlimit="10"/>
    <path d="M834.819 645.524V647.888L843.465 649.188L848.251 646.43V607.828H854.1V585.139L865.445 582.362L877.498 583.268L877.222 582.362H875.568V581.909V579.566H866.666L865.622 578.502L853.411 580.078H805.414V583.052L820.422 613.756L828.103 647.1H830.013L830.131 647.297L832.298 643.693L834.819 645.524Z" fill="#25262A" stroke="#47484C" stroke-width="1.18171" stroke-miterlimit="10"/>
    <path d="M852.091 636.757H857.329L862.962 626.929H867.019L868.851 630.278H876.709L895.38 609.854L889.393 597.879H881.673L877.497 583.265L865.444 582.359L854.099 585.136V607.825H848.25V625.177L852.878 631.558L852.091 636.757Z" fill="#25262A" stroke="#47484C" stroke-width="1.18171" stroke-miterlimit="10"/>
    <path d="M912.297 636.091L910.741 638.888H904.616V631.561H910.741V620.926L906.27 610.448H895.674L895.379 609.857L876.708 630.281H868.85L867.018 626.933H862.961L857.328 636.761H852.089L852.877 631.561L848.248 625.18V646.431L843.463 649.189L834.816 647.889V645.525L832.295 643.694L830.129 647.298L839.267 665.417V673.276H835.427L846.259 684.088L880.883 676.151L913.951 643.083V636.091H912.297Z" fill="#25262A" stroke="#47484C" stroke-width="1.18171" stroke-miterlimit="10"/>
    <path d="M974.692 579.387V585.315L976.347 586.969V595.261L973.117 602.942H971.029L968.488 605.483V611.844L971.935 615.291V622.302L974.515 627.029H977.824V628.782H982.196L984.107 626.852H988.991L994.584 609.047L1004.71 584.625V577.988L1006.8 573.97L1004.53 567.865L1006.8 566.112L1008.37 570.484L1010.81 566.112L1008.55 562.626V552.503L1003.74 547.717L1001.73 549.726V555.299H997.381V562.291L987.947 569.263H977.647V574.857L974.692 579.387Z" fill="#25262A" stroke="#47484C" stroke-width="1.18171" stroke-miterlimit="10"/>
    <path d="M750.444 380.819H761.237L766.496 375.56V359.922L764.408 360.454L716.293 323.703L713.102 324.077V380.622H682.043V396.201H695.436L700.025 410.066H713.752L722.004 392.931L726.062 393.975L739.159 382.572H741.562L742.29 383.596H747.667L750.444 380.819Z" fill="#25262A" stroke="#47484C" stroke-width="1.18171" stroke-miterlimit="10"/>
    <path d="M817.605 402.07L814.67 393.109H813.666L807.58 397.324L805.059 394.822H797.358L794.423 397.757H788.889L784.477 393.365L781.681 396.181H779.179L775.496 392.479H764.546V396.024L762.32 398.249V402.543L763.482 403.134V406.226V410.992L757.613 420.406V435.059H766.85L774.886 445.754H788.023L793.852 431.396H799.741L803.68 435.709L818.727 405.477L817.605 402.07Z" fill="#25262A" stroke="#47484C" stroke-width="1.18171" stroke-miterlimit="10"/>
    <path d="M828.278 372.765V352.518L822.901 336.388L822.409 336.191L814.235 333.197H806.338L775.397 357.58L766.494 359.924V375.561L761.236 380.82H750.443L747.666 383.597H742.289L754.579 400.633L755.761 399.334L762.319 402.544V398.25L764.545 396.025V392.48H775.495L779.178 396.182H781.679L784.476 393.366L788.888 397.758H794.422L797.357 394.823H805.057L807.578 397.325L813.664 393.11H813.231L828.278 372.765Z" fill="#25262A" stroke="#47484C" stroke-width="1.18171" stroke-miterlimit="10"/>
    <path d="M700.025 410.068L695.436 396.203H682.043V398.251H671.093L664.199 408.414L674.795 418.754L676.45 414.264H684.308L689.153 424.072L688.503 424.84L697.208 427.558L700.872 410.068H700.025Z" fill="#25262A" stroke="#47484C" stroke-width="1.18171" stroke-miterlimit="10"/>
    <path d="M728.68 415.817H720.428L714.677 410.066H713.751H700.87L697.207 427.556L699.098 428.127V433.228L704.337 438.467L702.879 447.546L703.509 447.98L710.304 442.563H724.445L727.636 443.745V428.265L730.571 425.31V415.817H728.68Z" fill="#25262A" stroke="#47484C" stroke-width="1.18171" stroke-miterlimit="10"/>
    <path d="M796.255 286.205H799.662V281.242H802.971V273.659L802.262 273.344L795.822 270.547V268.066L801.316 262.571V258.12H798.559V255.106L801.316 252.349V250.399L797.259 251.699V248.686H792.808L790.721 250.143H787.51L787.707 264.146L783 267.022L792.276 291.266H796.255V286.205Z" fill="#25262A" stroke="#47484C" stroke-width="1.18171" stroke-miterlimit="10"/>
    <path d="M872.909 284.038V280.355H863.613V277.361L857.074 274.997L846.203 280.099V283.368L848.369 287.11L843.327 292.152L823.297 284.806V279.842L814.021 276.573H809.688L802.972 273.658V281.241H799.663V286.204H796.256V291.266H792.277L792.415 291.62V316.495L796.335 325.909H807.6V332.192L806.34 333.197H814.237L822.411 336.19L828.28 332.33L868.714 356.535V353.01H870.743H873.52V341.173V284.038H872.909Z" fill="#25262A" stroke="#47484C" stroke-width="1.18171" stroke-miterlimit="10"/>
    <path d="M981.606 443.767L999.076 426.297H994.231L977.923 419.325L969.986 411.388V408.946L964.137 409.458V403.49L966.992 399.177L954.84 386.966L944.757 385.193L937.489 388.738V389.782V397.838L924.254 423.028H918.148V427.735H923.387L935.067 439.434V447.115H940.443L946.214 452.866H954.191V450.778L958.642 446.307L963.172 450.837L976.82 443.767H981.606Z" fill="#25262A" stroke="#47484C" stroke-width="1.18171" stroke-miterlimit="10"/>
    <path d="M979.755 411.507L975.009 404.062L970.459 408.887L969.986 408.946V411.388L977.924 419.325L994.231 426.298H999.076L981.607 443.767H976.821L963.172 450.838L964.432 452.098L960.355 456.155V479.829L963.526 483L1002.09 440.833L1013.95 411.507V402.27L979.755 411.507Z" fill="#25262A" stroke="#47484C" stroke-width="1.18171" stroke-miterlimit="10"/>
    <path d="M909.542 461.492L902.136 468.877L900.758 482.999L902.176 480.419V482.881H907.198V479.828H913.796V473.801L921.733 472.501L924.431 473.309L931.679 462.614L924.116 447.941L920.847 451.211H907.198V459.148L909.542 461.492Z" fill="#25262A" stroke="#47484C" stroke-width="1.18171" stroke-miterlimit="10"/>
    <path d="M814.847 503.304L818.727 500.527V503.304H822.528L829.244 496.588V487.076L837.792 478.528V469.803V452.865H830.898V459.68H828.279V460.724H812.897V466.219H816.836L819.849 469.252L816.265 472.816V475.869L817.604 477.208V488.474H806.476V495.21L801.809 498.322L806.122 504.703L806.24 504.998L812.227 500.527L814.847 503.304Z" fill="#25262A" stroke="#47484C" stroke-width="1.18171" stroke-miterlimit="10"/>
    <path d="M927.148 558.488L925.001 549.586L927.148 537.926L925.513 532.037L919.014 529.891V549.546L915.469 559.591L917.616 558.783L920.55 561.363H926.38V567.055L923.032 570.403L928.527 577.848L932.072 571.566V558.488H927.148Z" fill="#25262A" stroke="#47484C" stroke-width="1.18171" stroke-miterlimit="10"/>
    <path d="M909.303 526.682L908.299 523.59L897.211 524.85V526.859L893.449 530.601L895.202 532.354V538.381L893.37 542.3V544.841L896.521 547.992H901.741V555.614H897.427L890.495 548.681L888.998 543.915H885.768V547.441L877.929 545.53V543.521H873.301V541.768L871.213 540.39L870.09 541.611H870.15V552.502H859.691V572.572L865.62 578.5L866.663 579.563H875.566V581.907V582.36H877.22H885.866L895.477 574.679V570.661L903.474 567.884L904.537 567.51L902.962 564.201L915.468 559.593L919.013 549.548V529.892L909.303 526.682Z" fill="#25262A" stroke="#47484C" stroke-width="1.18171" stroke-miterlimit="10"/>
    <path d="M840.765 446.309L847.166 444.221L849.273 447.943L862.942 451.213L863.848 446.309L867.157 446.919L881.751 443.472H887.974V439.415L870.288 421.709V414.008L864.104 407.824L850.711 419.819H843.326L832.73 429.174L831.154 427.145L824.773 430.04L820.164 438.214L828.278 455.88V459.681H830.898V452.867H837.791L840.765 449.637V446.309Z" fill="#25262A" stroke="#47484C" stroke-width="1.18171" stroke-miterlimit="10"/>
    <path d="M897.21 524.851L908.298 523.59L901.051 501.158L901.602 500.527L898.234 490.897H896.403L900.755 482.999L902.134 468.877L909.539 461.492L907.196 459.148V451.211H906.802L887.973 443.904V443.471H881.749L867.155 446.917L863.847 446.307L862.941 451.211L849.272 447.941L847.165 444.219L840.764 446.307V449.635L837.79 452.865V469.803V478.528L829.242 487.076V496.588L822.526 503.304H818.725V500.527L814.845 503.304L812.226 500.527L806.238 504.998L806.376 505.392L808.503 510.986H831.94L836.392 523.807H845.806V516.205L853.664 514.905V518.824H859.947V541.612H870.09L871.213 540.39L873.3 541.769V543.522H877.929V545.531L885.767 547.441V543.916H888.997L890.494 548.682L897.427 555.615H901.74V547.993H896.521L893.37 544.842V542.301L895.201 538.382V532.355L893.448 530.602L897.21 526.86V524.851Z" fill="#25262A" stroke="#47484C" stroke-width="1.18171" stroke-miterlimit="10"/>
    <path d="M659.352 87.1071L665.634 96.5214L679.598 99.3181L701.578 87.1071L694.96 81.5137L672.606 86.0632L668.766 81.5137L659.352 87.1071Z" fill="#25262A" stroke="#47484C" stroke-width="1.18171" stroke-miterlimit="10"/>
    <path d="M549.414 110.839H561.625V117.121H571.059L599.144 89.0165H610.154L628.726 70.4243L670.519 63.7083H676.802V47.3219L690.057 34.0474V17.3066H708.905L725.843 12.0677V9.27094H694.252L683.774 1.58984H645.034L595.146 7.51808L571.059 8.2271L543.486 19.0397H526.725L515.637 30.1281L520.797 34.7564H553.254V56.0469H561.979V60.9313H549.414V66.8595H558.493L555.519 69.8138H548.705L542.087 79.425L549.414 110.839Z" fill="#25262A" stroke="#47484C" stroke-width="1.18171" stroke-miterlimit="10"/>
    <path d="M302.141 340.306L305.016 342.138L314.174 338.219H320.713L319.078 339.853H324.908L331.723 345.545V349.208H339.305V352.34H336.43V354.959H348.72L355.534 352.872V350.252H348.464V346.589H343.225L334.46 337.825H328.847V335.855L323.077 334.023H314.174L302.141 340.306Z" fill="#25262A" stroke="#47484C" stroke-width="1.18171" stroke-miterlimit="10"/>
    <path d="M311.496 342.195L313.544 340.305L315.79 341.841L313.643 343.673L311.496 342.195Z" fill="#25262A" stroke="#47484C" stroke-width="1.18171" stroke-miterlimit="10"/>
    <path d="M332.628 361.773L331.328 363.999L334.854 366.618H342.318L342.85 364.196L337.729 361.773H332.628Z" fill="#25262A" stroke="#47484C" stroke-width="1.18171" stroke-miterlimit="10"/>
    <path d="M391.008 362.562V366.088H397.291L398.866 364.315V362.562H391.008Z" fill="#25262A" stroke="#47484C" stroke-width="1.18171" stroke-miterlimit="10"/>
    <path d="M472.543 782.166H477.92L479.338 783.604L475.95 788.055L472.543 786.223V782.166Z" fill="#25262A" stroke="#47484C" stroke-width="1.18171" stroke-miterlimit="10"/>
    <path d="M480.521 784L477.527 789.357H481.053L484.578 786.679H486.548V784H480.521Z" fill="#25262A" stroke="#47484C" stroke-width="1.18171" stroke-miterlimit="10"/>
    <path d="M520.444 18.8622L562.847 9.70393L564.423 6.04063L533.797 4.20898L468.35 7.87228V11.5356L474.909 15.1989L473.057 18.8622L461.555 11.5356L442.707 15.9867V23.3133L457.892 26.1887V29.0839H444.795V33.535L478.572 34.8349L490.074 31.4277V25.6767L511.285 18.0744L520.444 18.8622Z" fill="#25262A" stroke="#47484C" stroke-width="1.18171" stroke-miterlimit="10"/>
    <path d="M406.309 19.5117L411.37 27.2519H438.254V23.3917L432.838 21.304L424.468 22.1903H416.432L406.309 19.5117Z" fill="#25262A" stroke="#47484C" stroke-width="1.18171" stroke-miterlimit="10"/>
    <path d="M424.113 31.0735V33.3581H432.326V36.4897L428.998 38.0653V41.374H471.579L475.084 37.1987L461.81 36.2336L455.882 37.0214H442.705V29.5176L424.113 31.0735Z" fill="#25262A" stroke="#47484C" stroke-width="1.18171" stroke-miterlimit="10"/>
    <path d="M325.344 34.8365L358.156 27.2539L364.439 36.3137L371.765 35.4471V31.7838H383.464V38.2438L351.184 43.6599L325.344 34.8365Z" fill="#25262A" stroke="#47484C" stroke-width="1.18171" stroke-miterlimit="10"/>
    <path d="M393.41 31.4297V36.6686H400.047V38.9335H411.904L417.655 41.3757L425.178 37.5352H416.788V31.4297H393.41Z" fill="#25262A" stroke="#47484C" stroke-width="1.18171" stroke-miterlimit="10"/>
    <path d="M438.254 44.3477L418.008 56.0466V60.931H428.131V63.3732H455.35L459.899 61.9748L471.756 73.8313L446.979 87.6179H438.944V92.5022H455.527L463.563 100.538H479.614L488.95 91.2024L483.277 85.5302L489.383 79.4247L498.797 88.839L510.752 76.884L494.445 68.9469L500.905 64.2397L476.995 45.2142L438.254 44.3477Z" fill="#25262A" stroke="#47484C" stroke-width="1.18171" stroke-miterlimit="10"/>
    <path d="M378.324 49.2334C378.324 49.2334 381.535 56.816 383.465 56.816C385.395 56.816 400.836 51.065 400.836 51.065L404.499 41.375L378.324 49.2334Z" fill="#25262A" stroke="#47484C" stroke-width="1.18171" stroke-miterlimit="10"/>
    <path d="M289.832 52.3634L295.071 56.8145H305.273L317.326 52.3634V54.589L313.584 58.331H310.256V59.7097H325.342L329.577 63.9245H311.044V66.2485H318.37V67.5484L316.145 69.7739V71.0935H325.342L346.771 65.8546V67.6862L354.412 70.3057L361.562 69.5179L364.043 64.9289L369.4 65.8546L371.764 63.2351L362.999 58.1341L366.663 55.6525L368.356 49.6258L376.215 47.4002V44.7808L361.03 46.8685L356.185 54.7268L353.703 54.0769L355.279 50.2757L350.828 48.0502L339.7 48.3062L333.673 42.2992H323.333L322.368 41.3145H306.593V45.0368L289.832 52.3634Z" fill="#25262A" stroke="#47484C" stroke-width="1.18171" stroke-miterlimit="10"/>
    <path d="M403.434 92.2854V93.9989L396.363 96.0866V97.3864H402.784V99.0999H406.309L414.562 94.2549L420.45 98.1742L425.551 95.6927L421.888 92.2854L422.282 90.9855L415.093 85.2148H411.43L403.434 92.2854Z" fill="#25262A" stroke="#47484C" stroke-width="1.18171" stroke-miterlimit="10"/>
    <path d="M405.148 103.157V105.127H409.462L415.882 101.582V99.75L409.6 100.538L405.148 103.157Z" fill="#25262A" stroke="#47484C" stroke-width="1.18171" stroke-miterlimit="10"/>
    <path d="M418.008 106.034L420.982 103.158H424.369V104.596L421.198 107.727L418.008 106.034Z" fill="#25262A" stroke="#47484C" stroke-width="1.18171" stroke-miterlimit="10"/>
    <path d="M450.82 174.219L453.637 177.035V178.276L459.191 180.502L462.992 179.852V177.37L456.177 174.219H450.82Z" fill="#25262A" stroke="#47484C" stroke-width="1.18171" stroke-miterlimit="10"/>
    <path d="M470.711 185.877L489.618 166.95L496.63 164.803V166.634L488.181 175.084H492.041V177.368H500.687V179.456H498.067V182.075H502.381V187.57L497.221 192.75H493.616L496.649 189.697L494.601 187.629L489.165 193.065H484.714V190.446H487.846L490.012 188.279H485.758V187.176H470.711V185.877Z" fill="#25262A" stroke="#47484C" stroke-width="1.18171" stroke-miterlimit="10"/>
    <path d="M444.656 192.75L450.171 196.67L454.287 194.7V193.597H449.482L447.158 192.218V190.84H444.991L444.656 192.75Z" fill="#25262A" stroke="#47484C" stroke-width="1.18171" stroke-miterlimit="10"/>
    <path d="M494.978 151.825L493.915 148.319L483.102 142.213V139.082L481.546 137.506L484.501 133.843L481.015 114.286H478.395L468.272 124.409H466.007L459.37 126.516L455.017 120.923L460.926 112.73L458.562 110.366H452.89V105.738L446.981 102.075L443.042 104.044H438.178L432.604 101.425L427.365 104.379V108.219L423.17 111.548V117.122L415.056 125.236L418.542 128.722V134.237L412.633 140.145L396.188 146.723V150.406L392.879 160.549L387.482 165.099H382.244V162.834L380.057 160.648V156.374L384.508 157.95L385.552 154.976L381.613 152.356V147.984L386.163 145.03V142.942H373.952L371.766 140.756L362.942 134.847L356.147 131.696H348.821L351.598 123.68H346.201V120.746L352.996 113.951L372.376 100.499H380.747V97.1902H385.296L387.561 93.5269H395.242L403.711 89.2334L404.499 87.1457L411.55 83.2067V80.7645H418.01V82.8719L420.984 86.3579L422.737 82.8719L433.727 78.9328L436.858 74.9938V70.7987H442.274V65.7962H428.665V69.1247L412.082 76.0967L410.112 74.1272L414.898 69.3216L411.944 66.3476L406.961 71.3305L404.44 67.1355V63.8267C404.44 63.8267 407.827 65.0478 407.827 63.8267V54.57L413.598 50.2173H419.507L429.807 44.9784V43.5801H413.322L404.42 53.4276L387.128 62.0738L394.474 66.0128V71.2517H383.386V63.9251H378.245L369.639 72.5122H351.795L344.724 69.164L325.266 76.7467H305.019V72.4728H310.258V68.1005L288.002 63.1373L270.769 60.1634L229.685 68.0414L215.623 65.0084L155.336 117.397L161.422 123.464V127.225L157.128 131.932V145.286H163.411L165.499 141.622H168.354V148.437L164.179 153.144L166.799 159.683L164.179 166.497H158.507V172.78L167.409 181.663L167.015 182.45L175.799 185.602V180.107H305.629L324.34 186.685L329.717 184.558L330.485 185.996L339.131 180.619H346.457V185.464H349.983V192.14L351.559 198.423H364.912L366.743 200.255V203.8L363.277 207.266L361.13 205.1L358.629 207.601H356.66L350.003 214.258H349.294L347.974 218.847L355.084 216.365L363.986 213.608L366.724 208.901L380.215 207.581V208.999L389.885 202.973H407.158L421.516 188.615H428.626V192.14L425.927 197.734L427.464 201.338L438.847 199.467V201.909L428.901 207.68L431.343 212.742L443.909 205.573L457.853 201.633V199.881H461.694L464.845 196.217L462.58 194.819L464.156 192.2L462.048 190.801L455.943 196.217L455.765 198.482H449.128L442.845 194.819V189.58L451.413 182.076V178.59H443.535L421.87 187.492V184.696L437.922 178.058V174.395L441.427 170.909H472.309L483.831 166.379L489.74 165.847L496.2 161.908L500.139 153.715L494.978 151.825ZM263.226 88.8001L276.106 84.3687L267.145 80.4297L289.283 79.7403L282.054 84.152L290.188 88.0911L278.982 89.391L275.417 89.194L266.909 90.5924L257.908 94.2359L263.127 89.9424L263.226 88.8001ZM299.268 103.197L274.137 111.843H260.784V109.224L273.605 105.167L273.881 100.578L281.208 105.167L299.268 99.8097V103.197ZM309.47 166.025L305.275 172.839L304.113 171.008L306.595 166.812V162.617L305.117 160.648L304.093 148.398L310.317 146.113L309.47 166.025Z" fill="#25262A" stroke="#47484C" stroke-width="1.18171" stroke-miterlimit="10"/>
    <path d="M155.039 117.103L155.334 117.398L215.68 65.0289L169.948 54.9844L121.794 69.3815H110.528L105.821 71.4889L112.36 80.3911V84.0544H101.37V79.8593H91.6798L79.6461 84.0544V92.6809L100.05 89.8054V95.5563L59.2222 107.078V111.017L53.2152 112.829V117.28H63.1416V120.175L57.2527 126.064H61.3099H72.0438L65.249 130.121L0.589844 150.801V153.145L37.4985 144.243V146.35H43.2495V141.623L73.8754 131.165L93.5115 123.051V119.643L111.572 112.317V114.68L102.414 119.387V121.731L117.067 117.024H124.669L128.726 112.967H136.171L140.307 117.103H155.039Z" fill="#25262A" stroke="#47484C" stroke-width="1.18171" stroke-miterlimit="10"/>
    <path d="M428.563 188.614H421.454L407.096 202.972H389.823L380.133 209.018V212.307H366.662V216.226L348.463 225.129H341.925V220.953L347.892 218.846L349.231 214.277H348.778V208.801L345.017 212.563V211.204L349.94 206.28V201.416L346.77 198.245H344.347L339.305 203.267L338.163 202.125L330.206 210.081V214.473L323.726 220.953H319.807V212.839L334.992 197.654H349.645V194.64H346.77H336.824L334.46 192.277V188.87L322.289 194.109H319.925V192.021L313.524 193.065V190.977L324.238 186.703L305.528 180.105H175.698V185.6L166.933 182.469L161.045 193.991L136.445 229.068V266.488L147.829 277.872V278.266H162.876L179.637 286.124H194.29V282.205H203.98L210.302 288.527V295.46L214.694 299.852L219.421 295.105H226.57L230.332 298.867V315.352L241.401 319.015L241.578 318.503V309.424L249.082 301.92L268.107 294.061L278.231 298.946L283.804 296.169L286.601 298.257L288.354 296.681L285.557 293.195L290.973 291.088H305.272L308.325 294.16H312.086L313.603 292.624H316.971L321.52 297.173V301.743L317.503 305.76V312.91L323.766 323.033H326.917L330.757 311.866V300.876L327.271 291.797L336.174 279.054H338.261L347.676 269.64H352.737L356.932 265.444H362.683V260.383L366.012 257.074V244.843L368.454 242.421L370.364 244.686L368.789 247.64L370.364 248.349L376.647 241.889L376.135 237.871H378.754L386.239 230.367V226.704L403.708 223.573V218.511H405.619V214.493L412.768 209.254L426.042 204.37V201.573L427.401 201.357L425.865 197.733L428.563 192.159V188.614Z" fill="#FDBD00" stroke="#47484C" stroke-width="1.18171" stroke-miterlimit="10"/>
    <path d="M365.759 354.96L362.352 353.385L358.294 354.96L358.157 356.142L362.608 356.536L362.352 361.755H352.012V364.178L355.38 367.546L358.038 364.178H365.089L365.523 364.611L368.418 354.33L365.759 354.96Z" fill="#25262A" stroke="#47484C" stroke-width="1.18171" stroke-miterlimit="10"/>
    <path d="M382.753 359.155H378.971L372.413 353.404L368.395 354.35L365.52 364.631L368.159 367.25H370.069V363.075H372.945V364.67H376.864V362.956L382.753 364.67L385.116 361.775L382.753 359.155Z" fill="#25262A" stroke="#47484C" stroke-width="1.18171" stroke-miterlimit="10"/>
    <path d="M271.831 386.277L278.981 379.088H275.79V377.611L274.451 378.458H272.481L274.254 366.641H262.535V370.304L266.592 374.361V377.512H258.222C258.222 377.512 256.252 382.456 255.031 385.686L265.411 392.165H265.942L271.752 386.257L271.831 386.277Z" fill="#25262A" stroke="#47484C" stroke-width="1.18171" stroke-miterlimit="10"/>
    <path d="M266.672 377.474V374.322L262.615 370.265V366.602H275.043L280.814 360.851L283.728 363.766L286.269 357.227V352.697L290.976 347.97L291.153 344.149H281.897L270.552 346.414V353.918L264.447 360.201H256.982V362.466L247.903 364.199L246.347 362.643H240.931L235.022 343.972V336.803L241.463 319.078L230.394 315.414V298.929L226.632 295.168H219.483L214.756 299.894L210.364 295.502V288.57L203.983 282.248H194.293V286.187H179.64L162.879 278.309H147.832V294.537L155.887 302.573V307.103H149.27V309.722L160.279 320.712L156.537 324.336L167.803 335.582V338.201H173.298V329.516L167.941 324.139V316.419L161.776 300.19L157.601 292.863V283.232L169.103 288.727V298.161L179.837 313.602L177.217 317.01L194.234 338.201V350.255H190.058V353.918L199.906 363.766H208.67L234.274 380.132L244.22 374.894L254.954 385.627C256.195 382.397 258.144 377.454 258.144 377.454L266.672 377.474Z" fill="#25262A" stroke="#47484C" stroke-width="1.18171" stroke-miterlimit="10"/>
    <path d="M275.04 366.622H274.331L272.559 378.459H274.449L275.789 377.632V375.918L281.028 370.679L283.706 363.766L280.811 360.871L275.04 366.622Z" fill="#25262A" stroke="#47484C" stroke-width="1.18171" stroke-miterlimit="10"/>
    <path d="M298.814 409.065V400.694L301.788 399.296V390.394L303.974 388.208V385.332H294.422L284.476 391.103V396.401H279.887V398.941L288.631 407.686L299.011 409.262L298.814 409.065Z" fill="#25262A" stroke="#47484C" stroke-width="1.18171" stroke-miterlimit="10"/>
    <path d="M271.83 386.273L266.02 392.182H279.097V390.094L271.83 386.273Z" fill="#25262A" stroke="#47484C" stroke-width="1.18171" stroke-miterlimit="10"/>
    <path d="M284.555 391.082L294.403 385.331H303.955V381.491L301.552 379.088H278.981L271.832 386.277L279.1 390.038V392.126H279.887V396.479H284.555V391.082Z" fill="#25262A" stroke="#47484C" stroke-width="1.18171" stroke-miterlimit="10"/>
    <path d="M299.012 409.259L288.633 407.684L288.928 407.979V414.912L296.964 422.967V425.114L301.651 429.801V426H303.207L304.212 414.38L299.012 409.259Z" fill="#25262A" stroke="#47484C" stroke-width="1.18171" stroke-miterlimit="10"/>
    <path d="M333.459 422.594L327.531 416.646L320.992 416.213L311.558 421.629L304.212 414.381L303.207 426.001H307.54V429.802H317.841V424.603L322.114 420.329L326.841 425.036L325.01 426.868L328.968 430.846L333.459 426.434V422.594Z" fill="#25262A" stroke="#47484C" stroke-width="1.18171" stroke-miterlimit="10"/>
    <path d="M319.414 501.194L322.388 505.035L326.741 492.824L340.35 487.073V475.197L321.207 462.592L319.926 463.852V466.472L315.396 468.579V473.798L310 479.214V488.471L315.14 493.612V495.089L313.742 496.487L314.353 501.037L319.414 501.194Z" fill="#25262A" stroke="#47484C" stroke-width="1.18171" stroke-miterlimit="10"/>
    <path d="M353.31 489.122L363.65 487.409L368.889 490.422L366.013 497.099L370.681 498.103L373.34 480.338L368.633 475.631V470.786H374.266V467.793H370.583V463.853H385.118L381.967 457.315V436.241H373.34L369.204 432.125H359.199L356.461 419.362H353.586L357.367 408.372L361.641 405.97L361.464 405.398L367.235 401.381L364.792 397.895L354.137 406.265H346.633L341.316 411.602V416.388L334.285 423.419L333.457 422.592V426.433L328.967 430.844L331.98 433.838V439.944L330.582 441.342V453.218L321.207 462.593L340.351 475.198V476.734L351.872 482.308L353.31 489.122Z" fill="#FDBD00" stroke="#47484C" stroke-width="1.18171" stroke-miterlimit="10"/>
    <path d="M376.924 567.688L379.091 559.673L379.445 549.372L374.561 540.293H368.455V533.143H358.509L347.066 521.7L353.625 513.94V505.038L365.659 500.154H370.366L370.681 498.106L366.013 497.101L368.889 490.424L363.65 487.411L353.31 489.125L351.872 482.31L340.35 476.736V487.076L326.741 492.827L322.388 505.038L319.414 501.198L314.353 501.04L313.742 496.491L309.508 500.725V504.526L313.506 508.524V510.1H310.69V512.207L318.705 516.737L322.723 524.595L340.173 555.3V560.007L367.057 577.634V581.12L374.009 585.375L378.913 580.608L377.535 578.166L381.356 572.573L376.924 567.688Z" fill="#25262A" stroke="#47484C" stroke-width="1.18171" stroke-miterlimit="10"/>
    <path d="M421.24 429.228V431.395H417.32V439.076L421.161 442.916V443.645L423.603 443.31L425.553 450.775L422.146 454.182V460.327H424.292V463.596L429.354 467.26L437.134 463.065V454.103L434.061 451.031V444.098H438.65V437.697L425.691 423.379H424.292V426.156L421.24 429.228Z" fill="#25262A" stroke="#47484C" stroke-width="1.18171" stroke-miterlimit="10"/>
    <path d="M434.059 444.102V451.035L437.131 454.107V463.069L443.749 463.423V460.291L449.342 458.795L451.607 460.804L455.132 454.954V451.567L452.828 449.735V442.842L455.448 442.133L456.787 439.493L452.552 438.036H438.943L438.648 437.701V444.102H434.059Z" fill="#25262A" stroke="#47484C" stroke-width="1.18171" stroke-miterlimit="10"/>
    <path d="M395.93 472.323L404.911 463.342V459.836H400.913V453.731L397.939 450.245H408.752L421.16 446.759V443.647V442.918L417.319 439.078V431.397H421.239V429.23L424.291 426.158V423.381H419.407V416.921L411.293 408.806H403.356L399.988 412.154H394.276L392.208 410.086H381.199V406.108H374.561L372.986 400.869H370.721V405.044L364.97 409.594L367.924 413.435L367.057 419.363L364.438 420.229L360.597 414.991L362.862 410.283L361.641 405.97L357.367 408.373L353.586 419.363H356.461L359.199 432.125H369.204L373.34 436.242H381.967V457.315L385.118 463.854H384.685V472.323H395.93Z" fill="#25262A" stroke="#47484C" stroke-width="1.18171" stroke-miterlimit="10"/>
    <path d="M456.138 460.369L461.633 460.802L468.586 448.138L461.633 441.166L456.788 439.492L455.449 442.131L452.83 442.84V449.734L455.134 451.565V454.953L452.18 459.837L454.74 461.59L456.138 460.369Z" fill="#25262A" stroke="#47484C" stroke-width="1.18171" stroke-miterlimit="10"/>
    <path d="M554.83 505.037H546.972L532.043 490.128H519.399L512.072 488.473L505.435 493.358V486.721L490.427 478.527L485.72 483.235H482.569L486.232 476.085V473.978H475.774L472.111 478.527L470.023 476.952L476.818 468.05V462.633H473.332L470.181 449.733L469.157 448.689L468.585 448.138L461.633 460.802L456.138 460.368L454.74 461.59L452.179 459.837L451.608 460.802L449.343 458.793L443.75 460.29V463.421L437.132 463.067L429.353 467.262L424.291 463.598V460.329H422.144V454.184L425.552 450.777L423.602 443.312L421.159 443.647V446.759L408.752 450.245H397.939L400.913 453.731V459.837H404.911V463.342L395.93 472.323H384.684V463.855H370.582V467.794H374.265V470.787H368.633V475.632L373.34 480.339L370.366 500.153H365.659L353.625 505.037V513.939L347.066 521.699L358.509 533.142H368.455V540.291H374.561L374.896 540.941L380.489 541.434L381.887 538.814H383.896L389.647 533.044H396.462V543.955L403.493 550.986H407.983L414.404 557.426H420.628L423.188 559.986V572.926H436.502V579.13H439.476L441.839 584.349L438.767 593.961L441.839 601.189V607.57H452.829L456.059 619.702H462.165V629.116H466.872V637.841L449.776 654.937L475.597 671.697L477.212 679.93L479.752 677.409V668.388L487.355 660.766V653.381L494.997 645.739V641.17L492.633 638.787V627.718H494.997L510.26 612.474H525.859V609.402H530.054L535.982 592.641V584.271H537.715V552.502H540.689L547.326 539.76H550.99L558.572 532.177V515.692L554.83 505.037Z" fill="#FDBD00" stroke="#47484C" stroke-width="1.18171" stroke-miterlimit="10"/>
    <path d="M384.86 591.599L385.51 600.639L390.217 612.928H393.881H395.318L399.632 606.783L417.574 608.359V593.036L433.803 590.417L439.042 593.115L441.838 584.351L439.475 579.132H436.501V572.928H423.187V559.988L420.627 557.427H414.403L407.982 550.987H403.492L396.461 543.956V533.045H389.646L383.895 538.816H381.886L380.488 541.435L374.895 540.943L379.444 549.372L379.09 559.673L376.923 567.689L381.355 572.573L377.534 578.166L378.912 580.609L377.809 581.692L381.355 589.767L384.86 591.599Z" fill="#25262A" stroke="#47484C" stroke-width="1.18171" stroke-miterlimit="10"/>
    <path d="M461.198 686.448H470.711L477.21 679.929L475.595 671.696L451.508 656.078L449.105 658.875L452.552 679.023L453.163 678.412L461.198 686.448Z" fill="#25262A" stroke="#47484C" stroke-width="1.18171" stroke-miterlimit="10"/>
    <path d="M446.27 626.673L441.839 639.061L456.058 640.459L461.809 635.063L462.656 629.115H462.164V619.701H456.058L452.828 607.569H441.839V601.187L438.766 593.959L439.042 593.112L433.803 590.414L417.574 593.034V608.297L425.511 617.081L446.27 626.673Z" fill="#25262A" stroke="#47484C" stroke-width="1.18171" stroke-miterlimit="10"/>
    <path d="M438.509 791.051H434.334L433.684 788.037L420.449 786.678L417.573 778.8L407.883 772.892L410.778 766.333L408.415 741.734H404.22L394.018 722.63V680.088L386.691 666.085V653.52L390.63 638.867V625.513L395.357 620.806V612.928H390.236L385.529 600.619L384.879 591.598L381.393 589.747L377.828 581.672L374.047 585.375L374.224 585.493L377.375 602.234V648.576L380.074 651.274V655.548L377.947 657.695V660.964L382.949 671.777C382.949 671.777 383.658 695.529 382.949 696.219C382.24 696.908 380.172 696.219 380.172 696.219V699.193L385.391 710.695V722.216L387.853 724.659V736.003H391.792V725.781L393.762 727.18L398.292 748.647H396.027L393.939 742.739L390.788 742.384L392.757 749.711L390.315 754.772L392.757 757.924H398.784V762.631H394.845L402.881 780.081H406.367V783.921L414.914 793.158L422.418 798.574L444.083 805.566L445.186 802.73L438.509 791.051Z" fill="#25262A" stroke="#47484C" stroke-width="1.18171" stroke-miterlimit="10"/>
    <path d="M466.87 629.118H462.656L461.809 635.065L456.058 640.462L441.838 639.064L446.269 626.675L425.511 617.084L417.573 608.3V608.359L399.631 606.783L395.318 612.928V620.649L390.611 625.375V638.729L386.691 653.382V665.947L394.018 679.931V722.472L404.22 741.577H408.415L410.759 766.196L407.883 772.734L417.573 778.761L420.449 786.679L433.664 788.057L434.334 791.051H438.509L445.186 802.71L444.063 805.566L449.42 807.299L460.588 804.148V801.706H456.235L438.765 789.83H435.279V787.742L436.678 786.344L431.439 777.619V775.354H435.279V769.071L440.951 763.399V758.081H434.058L428.307 752.33V746.914H434.235V734.526H437.721V728.42H431.616L426.298 723.083V719.341L437.209 723.359L441.739 718.809V712.349L438.864 709.474V706.066L442.823 710.045L461.454 704.156V700.315L463.64 698.129V692.989H458.835V687.75L451.331 680.246L452.552 679.025L449.105 658.877L451.508 656.08L449.775 654.938L466.87 637.842V629.118Z" fill="#25262A" stroke="#47484C" stroke-width="1.18171" stroke-miterlimit="10"/>
    <path d="M253.852 467.044L255.92 464.07L258.559 466.335L256.215 468.541L253.852 467.044Z" fill="#25262A" stroke="#47484C" stroke-width="1.18171" stroke-miterlimit="10"/>
    <path d="M258.557 467.832L261.433 475.828L258.774 478.054L254.52 478.31L253.574 474.351L257.494 471.653L257.08 468.856L258.557 467.832Z" fill="#25262A" stroke="#47484C" stroke-width="1.18171" stroke-miterlimit="10"/>
    <path d="M260.133 467.615L260.783 469.723L263.363 468.541L262.634 465.98L260.133 467.615Z" fill="#25262A" stroke="#47484C" stroke-width="1.18171" stroke-miterlimit="10"/>
    <path d="M263.107 470.924L262.496 472.716L263.875 473.071L264.564 471.14L263.107 470.924Z" fill="#25262A" stroke="#47484C" stroke-width="1.18171" stroke-miterlimit="10"/>
    <circle cx="343.5" cy="437.5" r="3.5" fill="white"/>
    <circle cx="325.5" cy="313.5" r="3.5" fill="white"/>
    <circle cx="351.5" cy="259.5" r="3.5" fill="white"/>
    <circle cx="140.5" cy="250.5" r="3.5" fill="white"/>
    <circle cx="482.5" cy="650.5" r="3.5" fill="white"/>
    <circle cx="488.5" cy="631.5" r="3.5" fill="white"/>
    <circle cx="1360.5" cy="285.5" r="3.5" fill="white"/>
    <circle cx="1440.5" cy="260.5" r="3.5" fill="white"/>
    <circle cx="1138.5" cy="306.5" r="3.5" fill="white"/>
    <circle cx="898.5" cy="294.5" r="3.5" fill="white"/>
    <circle cx="749.5" cy="164.5" r="3.5" fill="white"/>
    <circle cx="719.5" cy="155.5" r="3.5" fill="white"/>
    <circle cx="706.5" cy="240.5" r="3.5" fill="white"/>
    <circle cx="785.5" cy="192.5" r="3.5" fill="white"/>
    <circle cx="790.5" cy="191.5" r="3.5" fill="white"/>
    <circle cx="1153.5" cy="392.5" r="3.5" fill="white"/>
    <circle cx="1336.5" cy="677.5" r="3.5" fill="white"/>
    <circle cx="1499.5" cy="609.5" r="3.5" fill="white"/>
    <circle cx="1315.5" cy="515.5" r="3.5" fill="white"/>
    <circle cx="1466.5" cy="699.5" r="3.5" fill="white"/>
  </g>
  <defs>
    <clipPath id="clip0_12269_189595">
      <rect width="1637" height="808" fill="white"/>
    </clipPath>
  </defs>
</svg>
