<svg width="20" height="20" viewBox="0 0 20 20" fill="none" xmlns="http://www.w3.org/2000/svg">
<path fill-rule="evenodd" clip-rule="evenodd" d="M17.8157 14L17.8157 12.5L18.4912 12.5C18.8627 12.5 19.1666 12.275 19.1666 12L19.1666 8C19.1666 7.725 18.8627 7.5 18.4912 7.5L17.8157 7.5L17.8157 6C17.8149 5.73499 17.6722 5.48102 17.4191 5.29362C17.166 5.10623 16.6299 5.00066 16.2719 5L2.18417 5C1.44152 5 0.833294 5.44975 0.833294 6L0.833294 14C0.833293 14.5497 1.44152 15 2.18417 15L16.2719 15C17.0152 15 17.8157 14.5497 17.8157 14ZM3.1231 14.25C2.94039 14.25 2.76312 14.1352 2.76312 14L2.76312 10L2.76312 6C2.76312 5.86425 2.9404 5.75 3.1231 5.75L15.1622 5.75C15.3456 5.75 15.5 5.86425 15.5 6L15.5 14C15.5 14.1352 15.3456 14.25 15.1622 14.25L3.1231 14.25ZM5.65751 12.966L5.65751 7.0319C5.65751 6.75993 5.44041 6.5374 5.17506 6.5374L4.21014 6.5374C3.94479 6.5374 3.72769 6.75993 3.72769 7.0319L3.72769 12.966C3.72769 13.2379 3.94479 13.4605 4.21014 13.4605L5.17506 13.4605C5.44041 13.4605 5.65751 13.2379 5.65751 12.966ZM8.55302 7.0319L8.55302 12.966C8.55302 13.2379 8.33591 13.4605 8.07056 13.4605L7.10565 13.4605C6.8403 13.4605 6.62319 13.2379 6.62319 12.966L6.62319 7.0319C6.62319 6.75993 6.8403 6.5374 7.10565 6.5374L8.07056 6.5374C8.33591 6.5374 8.55302 6.75993 8.55302 7.0319ZM11.4469 12.966L11.4469 7.0319C11.4469 6.75993 11.2298 6.5374 10.9644 6.5374L9.99953 6.5374C9.73418 6.5374 9.51708 6.75993 9.51708 7.0319L9.51708 12.966C9.51708 13.2379 9.73418 13.4605 9.99953 13.4605L10.9644 13.4605C11.2298 13.4605 11.4469 13.2379 11.4469 12.966ZM14.3424 7.0319L14.3424 12.966C14.3424 13.2379 14.1253 13.4605 13.86 13.4605L12.895 13.4605C12.6297 13.4605 12.4126 13.2379 12.4126 12.966L12.4126 7.0319C12.4126 6.75993 12.6297 6.5374 12.895 6.5374L13.86 6.5374C14.1253 6.5374 14.3424 6.75993 14.3424 7.0319Z" fill="currentColor"/>
</svg>
