<svg width="20" height="20" viewBox="0 0 20 20" fill="none" xmlns="http://www.w3.org/2000/svg">
<path fill-rule="evenodd" clip-rule="evenodd" d="M1.66663 3.66406C1.66663 2.55949 2.56206 1.66406 3.66663 1.66406H16.3333C17.4379 1.66406 18.3333 2.55949 18.3333 3.66406V16.3307C18.3333 17.4353 17.4379 18.3307 16.3333 18.3307H3.66663C2.56206 18.3307 1.66663 17.4353 1.66663 16.3307V3.66406Z" stroke="currentColor" stroke-width="2"/>
<path d="M7.65328 13.3307C8.77564 13.3307 9.7048 12.9256 10.312 12.1797L9.35521 11.2957C8.92283 11.8022 8.38005 12.06 7.73608 12.06C6.53093 12.06 5.67536 11.2129 5.67536 9.9974C5.67536 8.78193 6.53093 7.93478 7.73608 7.93478C8.38005 7.93478 8.92283 8.19261 9.35521 8.68985L10.312 7.80587C9.7048 7.06922 8.77564 6.66406 7.66248 6.66406C5.65696 6.66406 4.16663 8.05449 4.16663 9.9974C4.16663 11.9403 5.65696 13.3307 7.65328 13.3307Z" fill="currentColor"/>
<path d="M13.4016 13.2939C14.9747 13.2939 16.1155 12.235 16.1155 10.7433C16.1155 9.25154 14.9747 8.19261 13.4016 8.19261C11.8285 8.19261 10.6785 9.25154 10.6785 10.7433C10.6785 12.235 11.8285 13.2939 13.4016 13.2939ZM13.4016 12.1153C12.684 12.1153 12.1321 11.5996 12.1321 10.7433C12.1321 9.8869 12.684 9.37124 13.4016 9.37124C14.1192 9.37124 14.662 9.8869 14.662 10.7433C14.662 11.5996 14.1192 12.1153 13.4016 12.1153Z" fill="currentColor"/>
</svg>
