<svg width="20" height="20" viewBox="0 0 20 20" fill="none" xmlns="http://www.w3.org/2000/svg">
<path fill-rule="evenodd" clip-rule="evenodd" d="M1.66663 3.66406C1.66663 2.55949 2.56206 1.66406 3.66663 1.66406H16.3333C17.4379 1.66406 18.3333 2.55949 18.3333 3.66406V16.3307C18.3333 17.4353 17.4379 18.3307 16.3333 18.3307H3.66663C2.56206 18.3307 1.66663 17.4353 1.66663 16.3307V3.66406Z" stroke="currentColor" stroke-width="2"/>
<path d="M6.66663 13.3307H11.0082V12.2126H8.03764V7.40104H6.66663V13.3307Z" fill="currentColor"/>
<path d="M12.3412 8.13801C12.8321 8.13801 13.1622 7.81612 13.1622 7.37563C13.1622 6.96902 12.8321 6.66406 12.3412 6.66406C11.8504 6.66406 11.5203 6.98596 11.5203 7.40104C11.5203 7.81612 11.8504 8.13801 12.3412 8.13801ZM11.6811 13.3307H13.0014V8.77334H11.6811V13.3307Z" fill="currentColor"/>
</svg>
