<svg width="20" height="20" viewBox="0 0 20 20" fill="none" xmlns="http://www.w3.org/2000/svg">
<path fill-rule="evenodd" clip-rule="evenodd" d="M1.66663 3.66406C1.66663 2.55949 2.56206 1.66406 3.66663 1.66406H16.3333C17.4379 1.66406 18.3333 2.55949 18.3333 3.66406V16.3307C18.3333 17.4353 17.4379 18.3307 16.3333 18.3307H3.66663C2.56206 18.3307 1.66663 17.4353 1.66663 16.3307V3.66406Z" stroke="currentColor" stroke-width="2"/>
<path d="M9.91251 7.40104V11.0012L6.96741 7.40104H5.83337V13.3307H7.18744V9.73056L10.141 13.3307H11.2666V7.40104H9.91251Z" fill="currentColor"/>
<path d="M13.2352 8.13801C13.726 8.13801 14.0561 7.81612 14.0561 7.37563C14.0561 6.96902 13.726 6.66406 13.2352 6.66406C12.7443 6.66406 12.4143 6.98596 12.4143 7.40104C12.4143 7.81612 12.7443 8.13801 13.2352 8.13801ZM12.5751 13.3307H13.8953V8.77334H12.5751V13.3307Z" fill="currentColor"/>
</svg>
