<svg width="20" height="20" viewBox="0 0 20 20" fill="none" xmlns="http://www.w3.org/2000/svg">
<path fill-rule="evenodd" clip-rule="evenodd" d="M1.66663 3.66406C1.66663 2.55949 2.56206 1.66406 3.66663 1.66406H16.3333C17.4379 1.66406 18.3333 2.55949 18.3333 3.66406V16.3307C18.3333 17.4353 17.4379 18.3307 16.3333 18.3307H3.66663C2.56206 18.3307 1.66663 17.4353 1.66663 16.3307V3.66406Z" stroke="currentColor" stroke-width="2"/>
<path d="M10.1532 13.3307C11.2756 13.3307 12.2047 12.9256 12.8119 12.1797L11.8551 11.2957C11.4228 11.8022 10.88 12.06 10.236 12.06C9.03089 12.06 8.17534 11.2129 8.17534 9.9974C8.17534 8.78193 9.03089 7.93478 10.236 7.93478C10.88 7.93478 11.4228 8.19261 11.8551 8.68985L12.8119 7.80587C12.2047 7.06922 11.2756 6.66406 10.1624 6.66406C8.15694 6.66406 6.66663 8.05449 6.66663 9.9974C6.66663 11.9403 8.15694 13.3307 10.1532 13.3307Z" fill="currentColor"/>
</svg>
