<svg width="376" height="115" viewBox="0 0 376 115" fill="none" xmlns="http://www.w3.org/2000/svg">
<path d="M327.604 106.127V108H313.232V106.507L321.75 98.1653C322.823 97.1116 323.545 96.2042 323.916 95.4432C324.306 94.6626 324.501 93.8821 324.501 93.1016C324.501 91.8917 324.081 90.9551 323.242 90.2916C322.423 89.6087 321.242 89.2672 319.701 89.2672C317.3 89.2672 315.437 90.0282 314.11 91.5503L312.617 90.2624C313.417 89.3257 314.432 88.6037 315.661 88.0964C316.91 87.5891 318.315 87.3354 319.876 87.3354C321.964 87.3354 323.613 87.833 324.823 88.8281C326.052 89.8038 326.667 91.1502 326.667 92.8674C326.667 93.9211 326.433 94.9358 325.964 95.9115C325.496 96.8872 324.608 98.0092 323.301 99.2775L316.335 106.127H327.604ZM336.251 108.176C334.671 108.176 333.256 107.756 332.007 106.917C330.778 106.078 329.812 104.878 329.11 103.317C328.427 101.736 328.085 99.8825 328.085 97.7555C328.085 95.6285 328.427 93.7845 329.11 92.2235C329.812 90.6429 330.778 89.4331 332.007 88.594C333.256 87.7549 334.671 87.3354 336.251 87.3354C337.832 87.3354 339.237 87.7549 340.466 88.594C341.715 89.4331 342.691 90.6429 343.393 92.2235C344.096 93.7845 344.447 95.6285 344.447 97.7555C344.447 99.8825 344.096 101.736 343.393 103.317C342.691 104.878 341.715 106.078 340.466 106.917C339.237 107.756 337.832 108.176 336.251 108.176ZM336.251 106.244C337.442 106.244 338.486 105.912 339.383 105.249C340.3 104.585 341.013 103.619 341.52 102.351C342.027 101.083 342.281 99.5507 342.281 97.7555C342.281 95.9603 342.027 94.4285 341.52 93.1601C341.013 91.8917 340.3 90.9258 339.383 90.2624C338.486 89.5989 337.442 89.2672 336.251 89.2672C335.061 89.2672 334.007 89.5989 333.09 90.2624C332.193 90.9258 331.49 91.8917 330.983 93.1601C330.475 94.4285 330.222 95.9603 330.222 97.7555C330.222 99.5507 330.475 101.083 330.983 102.351C331.49 103.619 332.193 104.585 333.09 105.249C334.007 105.912 335.061 106.244 336.251 106.244ZM359.35 106.127V108H344.978V106.507L353.496 98.1653C354.569 97.1116 355.291 96.2042 355.662 95.4432C356.052 94.6626 356.247 93.8821 356.247 93.1016C356.247 91.8917 355.828 90.9551 354.989 90.2916C354.169 89.6087 352.989 89.2672 351.447 89.2672C349.047 89.2672 347.183 90.0282 345.857 91.5503L344.364 90.2624C345.164 89.3257 346.179 88.6037 347.408 88.0964C348.657 87.5891 350.062 87.3354 351.623 87.3354C353.711 87.3354 355.36 87.833 356.569 88.8281C357.799 89.8038 358.413 91.1502 358.413 92.8674C358.413 93.9211 358.179 94.9358 357.711 95.9115C357.243 96.8872 356.355 98.0092 355.047 99.2775L348.081 106.127H359.35ZM365.624 87.511V108H363.517V89.3843H358.687V87.511H365.624Z" fill="white"/>
<path d="M125.79 77.1043C124.431 78.3279 122.731 79.2796 120.692 79.9593C118.721 80.5711 116.648 80.877 114.472 80.877C109.442 80.877 105.567 79.5175 102.848 76.7984C100.129 74.0793 98.7696 70.2386 98.7696 65.2763V32.8513H89.1849V26.7334H98.7696V15.0074H106.009V26.7334H122.324V32.8513H106.009V64.8685C106.009 68.0634 106.791 70.5105 108.354 72.21C109.986 73.8414 112.297 74.6571 115.288 74.6571C116.783 74.6571 118.211 74.4192 119.571 73.9434C120.998 73.4675 122.222 72.7878 123.241 71.9041L125.79 77.1043ZM159.668 26.3255C166.398 26.3255 171.734 28.2969 175.677 32.2395C179.688 36.1142 181.693 41.7903 181.693 49.2678V80.3672H174.453V49.9815C174.453 44.4074 173.06 40.1588 170.273 37.2358C167.486 34.3128 163.509 32.8513 158.343 32.8513C152.565 32.8513 147.976 34.5847 144.578 38.0516C141.247 41.4504 139.581 46.1748 139.581 52.2247V80.3672H132.342V4.70889H139.581V36.1142C141.553 32.9873 144.272 30.5741 147.738 28.8747C151.205 27.1753 155.182 26.3255 159.668 26.3255ZM194.72 26.7334H201.959V80.3672H194.72V26.7334ZM198.391 15.0074C196.895 15.0074 195.638 14.4976 194.618 13.4779C193.598 12.4583 193.088 11.2347 193.088 9.80716C193.088 8.44762 193.598 7.25803 194.618 6.23837C195.638 5.21872 196.895 4.70889 198.391 4.70889C199.886 4.70889 201.144 5.21872 202.163 6.23837C203.183 7.19005 203.693 8.34565 203.693 9.70519C203.693 11.2007 203.183 12.4583 202.163 13.4779C201.144 14.4976 199.886 15.0074 198.391 15.0074ZM263.807 26.7334V80.3672H256.873V70.5785C254.97 73.8414 252.353 76.3905 249.022 78.2259C245.691 79.9933 241.884 80.877 237.602 80.877C230.6 80.877 225.06 78.9397 220.981 75.065C216.971 71.1223 214.966 65.3783 214.966 57.8328V26.7334H222.205V57.1191C222.205 62.7612 223.599 67.0437 226.386 69.9667C229.173 72.8897 233.149 74.3512 238.316 74.3512C243.958 74.3512 248.41 72.6518 251.673 69.253C254.936 65.7861 256.567 60.9938 256.567 54.8758V26.7334H263.807ZM344.344 26.3255C351.074 26.3255 356.342 28.2629 360.149 32.1376C364.024 36.0123 365.961 41.7223 365.961 49.2678V80.3672H358.722V49.9815C358.722 44.4074 357.362 40.1588 354.643 37.2358C351.992 34.3128 348.219 32.8513 343.325 32.8513C337.751 32.8513 333.366 34.5847 330.171 38.0516C326.976 41.4504 325.379 46.1748 325.379 52.2247V80.3672H318.139V49.9815C318.139 44.4074 316.78 40.1588 314.061 37.2358C311.41 34.3128 307.603 32.8513 302.641 32.8513C297.134 32.8513 292.75 34.5847 289.487 38.0516C286.292 41.4504 284.695 46.1748 284.695 52.2247V80.3672H277.455V26.7334H284.389V36.5221C286.292 33.2592 288.943 30.744 292.342 28.9766C295.741 27.2092 299.65 26.3255 304.068 26.3255C308.555 26.3255 312.429 27.2772 315.692 29.1806C319.023 31.0839 321.504 33.905 323.136 37.6437C325.107 34.1089 327.928 31.3558 331.599 29.3845C335.337 27.3452 339.586 26.3255 344.344 26.3255Z" fill="white"/>
<path fill-rule="evenodd" clip-rule="evenodd" d="M69.039 23.3671C75.4917 23.3671 80.7226 18.1362 80.7226 11.6835C80.7226 5.23089 75.4917 0 69.039 0C62.5864 0 57.3555 5.23089 57.3555 11.6835C57.3555 18.1362 62.5864 23.3671 69.039 23.3671ZM21.2428 8.49711H0V48.3616L20.9172 82.8469H50.9827V61.6041H21.2428V8.49711ZM80.7226 27.6156H59.4798V82.8469H80.7226V27.6156Z" fill="#6ADBFF"/>
</svg>
