<svg width="468" height="128" viewBox="0 0 468 128" fill="none" xmlns="http://www.w3.org/2000/svg">
<path fill-rule="evenodd" clip-rule="evenodd" d="M42.4086 79.9193V71.0015L56.8113 94.6781H61.94L76.4129 70.3692L76.4832 99.8771H87.1622L87.0217 50.6973H77.6776L59.5513 81.259L41.144 50.6973H31.7295V60.718L42.4086 79.9193ZM295.801 28.8C294.208 26.6923 292.007 25.1935 289.197 24.3036C291.257 23.2263 292.85 21.7509 293.974 19.8774C295.145 18.0039 295.73 15.8728 295.73 13.484C295.73 9.54963 294.115 6.43491 290.883 4.13985C287.698 1.8448 283.108 0.697266 277.112 0.697266H253.085V49.8771H278.517C284.934 49.8771 289.805 48.7296 293.131 46.4345C296.503 44.0926 298.189 40.7671 298.189 36.458C298.189 33.4136 297.393 30.8609 295.801 28.8ZM264.396 20.861V9.26861H275.707C278.517 9.26861 280.649 9.76041 282.101 10.744C283.553 11.6808 284.279 13.1093 284.279 15.0297C284.279 16.95 283.553 18.402 282.101 19.3856C280.649 20.3692 278.517 20.861 275.707 20.861H264.396ZM284.419 39.8304C282.92 40.814 280.672 41.3058 277.674 41.3058H264.396V29.1513H277.674C283.717 29.1513 286.738 31.1888 286.738 35.2637C286.738 37.3245 285.965 38.8468 284.419 39.8304ZM304.605 41.3292H323.164L327.029 49.8771H331.244L315.963 16.7978H311.806L296.525 49.8771H300.741L304.605 41.3292ZM313.914 20.779L321.642 37.9334H306.127L313.914 20.779ZM325.77 20.3106H337.421V49.8771H341.636V20.3106H350.495H353.287H362.146V49.8771H366.361V20.3106H378.012V16.7978H353.287H350.495H325.77V20.3106ZM404.624 49.8771V46.3642H384.776V34.8304H401.872V31.3761H384.776V20.3106H403.921V16.7978H380.561V49.8771H404.624ZM425.081 39.4557L432.575 49.8771H437.142L429.062 38.636C431.482 37.8163 433.336 36.5088 434.624 34.7133C435.951 32.9179 436.615 30.7516 436.615 28.2146C436.615 24.6236 435.385 21.8329 432.926 19.8423C430.467 17.8126 427.091 16.7978 422.798 16.7978H409.917V49.8771H414.133V39.5727H422.798C423.305 39.5727 424.066 39.5337 425.081 39.4557ZM429.823 34.0693C428.145 35.4354 425.725 36.1185 422.563 36.1185H414.133V20.3106H422.563C425.764 20.3106 428.203 20.9937 429.882 22.3598C431.56 23.7259 432.399 25.6775 432.399 28.2146C432.399 30.7516 431.541 32.7032 429.823 34.0693ZM454.253 49.8771V39.1044L467.953 16.7978H463.62L452.262 35.0646L440.904 16.7978H436.396L450.096 38.9873V49.8771H454.253ZM120.048 99.8771V92.7929H102.074V86.177H117.413V79.444H102.074V73.2966H119.404V66.2123H92.9405V99.8771H120.048ZM153.43 82.6056H144.999V91.9146C143.36 92.6172 141.603 92.9685 139.73 92.9685C136.764 92.9685 134.344 92.0513 132.47 90.2168C130.636 88.3823 129.718 86.0014 129.718 83.074C129.718 80.1076 130.636 77.7071 132.47 75.8727C134.344 74.0382 136.725 73.1209 139.613 73.1209C143.048 73.1209 145.877 74.4285 148.102 77.0436L154.191 71.5987C150.873 67.5784 145.975 65.5683 139.496 65.5683C135.866 65.5683 132.587 66.3294 129.66 67.8517C126.771 69.3349 124.508 71.423 122.868 74.1162C121.229 76.7704 120.409 79.7563 120.409 83.074C120.409 86.3917 121.209 89.3776 122.81 92.0317C124.449 94.6859 126.713 96.7741 129.601 98.2963C132.529 99.7795 135.846 100.521 139.554 100.521C141.974 100.521 144.433 100.15 146.931 99.4087C149.429 98.6671 151.596 97.6133 153.43 96.2472V82.6056ZM164.389 93.2027H180.138L182.89 99.8771H192.023L176.86 66.2123H167.726L152.621 99.8771H161.579L164.389 93.2027ZM172.293 74.3504L177.328 86.5283H167.199L172.293 74.3504ZM201.465 81.1419V73.2966H218.678V66.2123H192.215V99.8771H201.465V88.2262H216.688V81.1419H201.465ZM225.845 93.2027H241.595L244.346 99.8771H253.48L238.316 66.2123H229.183L214.077 99.8771H223.035L225.845 93.2027ZM233.749 74.3504L238.784 86.5283H228.656L233.749 74.3504ZM259.833 98.2963C262.682 99.7795 265.883 100.521 269.434 100.521C272.635 100.521 275.426 100.033 277.807 99.0574C280.227 98.0426 282.276 96.4813 283.954 94.3736L277.982 88.9287C275.758 91.6219 273.025 92.9685 269.786 92.9685C267.912 92.9685 266.214 92.5587 264.692 91.739C263.209 90.9193 262.038 89.7679 261.179 88.2847C260.36 86.7625 259.95 85.0256 259.95 83.074C259.95 80.1076 260.867 77.7071 262.701 75.8727C264.575 74.0382 266.936 73.1209 269.786 73.1209C273.025 73.1209 275.758 74.4675 277.982 77.1607L283.954 71.7158C282.237 69.569 280.188 68.0078 277.807 67.032C275.465 66.0562 272.674 65.5683 269.434 65.5683C265.883 65.5683 262.682 66.3294 259.833 67.8517C256.983 69.3349 254.739 71.423 253.1 74.1162C251.46 76.7704 250.641 79.7563 250.641 83.074C250.641 86.3917 251.46 89.3776 253.1 92.0317C254.739 94.6859 256.983 96.7741 259.833 98.2963ZM331.002 98.2963C333.89 99.7795 337.13 100.521 340.721 100.521C344.312 100.521 347.532 99.7795 350.381 98.2963C353.27 96.7741 355.533 94.6859 357.173 92.0317C358.812 89.3776 359.632 86.3917 359.632 83.074C359.632 79.7563 358.812 76.7704 357.173 74.1162C355.533 71.423 353.27 69.3349 350.381 67.8517C347.532 66.3294 344.312 65.5683 340.721 65.5683C337.13 65.5683 333.89 66.3294 331.002 67.8517C328.153 69.3349 325.908 71.423 324.269 74.1162C322.63 76.7704 321.81 79.7563 321.81 83.074C321.81 86.3917 322.63 89.3776 324.269 92.0317C325.908 94.6859 328.153 96.7741 331.002 98.2963ZM345.58 91.6805C344.136 92.5391 342.516 92.9685 340.721 92.9685C338.925 92.9685 337.286 92.5391 335.803 91.6805C334.359 90.8218 333.207 89.6508 332.349 88.1676C331.529 86.6454 331.119 84.9475 331.119 83.074C331.119 81.1614 331.529 79.4636 332.349 77.9804C333.207 76.4581 334.359 75.2677 335.803 74.409C337.286 73.5503 338.925 73.1209 340.721 73.1209C342.516 73.1209 344.136 73.5503 345.58 74.409C347.064 75.2677 348.215 76.4581 349.035 77.9804C349.854 79.4636 350.264 81.1614 350.264 83.074C350.264 84.9475 349.854 86.6454 349.035 88.1676C348.215 89.6508 347.064 90.8218 345.58 91.6805ZM371.623 90.8608H377.303L383.567 99.8771H393.52L386.026 89.28C388.212 88.2652 389.89 86.86 391.061 85.0646C392.271 83.2301 392.876 81.0834 392.876 78.6244C392.876 74.7603 391.51 71.7353 388.778 69.5495C386.046 67.3247 382.357 66.2123 377.712 66.2123H362.373V99.8771H371.623V90.8608ZM381.928 74.7603C383.021 75.658 383.567 76.946 383.567 78.6244C383.567 80.3027 383.021 81.5908 381.928 82.4885C380.835 83.3862 379.215 83.8351 377.068 83.8351H371.623V73.4137H377.068C379.215 73.4137 380.835 73.8625 381.928 74.7603ZM405.496 66.2123H396.246V99.8771H405.496V66.2123ZM437.729 96.6577V92.7929H419.755V86.177H435.095V79.444H419.755V73.2966H437.085V66.2123H410.622V99.8771H437.729V96.9671C439.277 98.0248 441.309 98.8777 443.826 99.5258C446.441 100.189 449.114 100.521 451.847 100.521C455.008 100.521 457.74 100.072 460.043 99.1745C462.346 98.2378 464.083 96.9497 465.254 95.3104C466.464 93.6711 467.069 91.778 467.069 89.6313C467.069 87.3284 466.444 85.5135 465.195 84.1864C463.985 82.8203 462.522 81.8445 460.804 81.259C459.126 80.6345 456.999 80.049 454.423 79.5026C452.042 79.0342 450.305 78.5658 449.212 78.0975C448.119 77.6291 447.573 76.8875 447.573 75.8727C447.573 74.9359 448.022 74.1943 448.919 73.6479C449.856 73.0624 451.281 72.7696 453.193 72.7696C456.745 72.7696 459.926 73.6283 462.736 75.3457L465.722 68.4957C464.161 67.5199 462.307 66.7978 460.16 66.3294C458.014 65.822 455.808 65.5683 453.544 65.5683C450.461 65.5683 447.768 66.0367 445.465 66.9734C443.201 67.8712 441.464 69.1397 440.254 70.779C439.044 72.4184 438.439 74.2919 438.439 76.3996C438.439 78.7805 439.044 80.654 440.254 82.0201C441.503 83.3862 442.967 84.3815 444.645 85.0061C446.324 85.5915 448.47 86.1575 451.086 86.7039C453.466 87.1723 455.203 87.6602 456.296 88.1676C457.389 88.636 457.936 89.3776 457.936 90.3924C457.936 91.2901 457.487 92.0122 456.589 92.5587C455.73 93.0661 454.325 93.3198 452.374 93.3198C450.266 93.3198 448.197 93.027 446.168 92.4416C444.138 91.8561 442.362 91.0559 440.84 90.0411L437.729 96.6577ZM426.562 126.877V125.004H415.292L422.259 118.154C423.566 116.885 424.454 115.763 424.923 114.787C425.391 113.811 425.625 112.796 425.625 111.743C425.625 110.025 425.01 108.679 423.781 107.703C422.571 106.708 420.922 106.21 418.834 106.21C417.272 106.21 415.867 106.464 414.618 106.971C413.389 107.478 412.374 108.2 411.574 109.137L413.067 110.425C414.394 108.903 416.258 108.142 418.658 108.142C420.2 108.142 421.38 108.483 422.2 109.166C423.039 109.83 423.459 110.767 423.459 111.977C423.459 112.757 423.264 113.538 422.873 114.319C422.503 115.08 421.781 115.987 420.707 117.041L412.189 125.384V126.877H426.562ZM431.113 125.794C432.362 126.633 433.777 127.053 435.357 127.053C436.938 127.053 438.343 126.633 439.573 125.794C440.822 124.955 441.798 123.755 442.5 122.193C443.203 120.613 443.554 118.759 443.554 116.631C443.554 114.504 443.203 112.66 442.5 111.099C441.798 109.518 440.822 108.308 439.573 107.469C438.343 106.629 436.938 106.21 435.357 106.21C433.777 106.21 432.362 106.629 431.113 107.469C429.883 108.308 428.917 109.518 428.215 111.099C427.531 112.66 427.19 114.504 427.19 116.631C427.19 118.759 427.531 120.613 428.215 122.193C428.917 123.755 429.883 124.955 431.113 125.794ZM438.49 124.125C437.592 124.789 436.548 125.121 435.357 125.121C434.167 125.121 433.113 124.789 432.196 124.125C431.298 123.462 430.595 122.496 430.088 121.227C429.581 119.959 429.327 118.427 429.327 116.631C429.327 114.836 429.581 113.304 430.088 112.035C430.595 110.767 431.298 109.801 432.196 109.137C433.113 108.474 434.167 108.142 435.357 108.142C436.548 108.142 437.592 108.474 438.49 109.137C439.407 109.801 440.119 110.767 440.627 112.035C441.134 113.304 441.388 114.836 441.388 116.631C441.388 118.427 441.134 119.959 440.627 121.227C440.119 122.496 439.407 123.462 438.49 124.125ZM458.605 126.877V125.004H447.335L454.302 118.154C455.61 116.885 456.497 115.763 456.966 114.787C457.434 113.811 457.668 112.796 457.668 111.743C457.668 110.025 457.054 108.679 455.824 107.703C454.614 106.708 452.965 106.21 450.877 106.21C449.316 106.21 447.911 106.464 446.662 106.971C445.432 107.478 444.417 108.2 443.617 109.137L445.11 110.425C446.437 108.903 448.301 108.142 450.701 108.142C452.243 108.142 453.424 108.483 454.243 109.166C455.083 109.83 455.502 110.767 455.502 111.977C455.502 112.757 455.307 113.538 454.917 114.319C454.546 115.08 453.824 115.987 452.75 117.041L444.232 125.384V126.877H458.605ZM462.919 126.877H465.027V106.385H458.089V108.259H462.919V126.877Z" fill="white"/>
<rect x="407.902" y="77.8926" width="27.3221" height="7.80632" fill="#D50000"/>
<rect x="284.953" y="75.9395" width="33.1769" height="9.7579" fill="#D50000"/>
<rect x="296.668" y="97.4072" width="33.1769" height="9.7579" transform="rotate(-90 296.668 97.4072)" fill="#D50000"/>
</svg>
