<svg width="1129" height="381" viewBox="0 0 1129 381" fill="none" xmlns="http://www.w3.org/2000/svg">
<path d="M142.481 66.9811C148.197 68.7913 152.675 71.8401 155.914 76.1273C159.153 80.3193 160.773 85.5117 160.773 91.7044C160.773 100.469 157.343 107.234 150.484 111.997C143.719 116.666 133.811 119 120.759 119H69.0255V18.9637H117.9C130.095 18.9637 139.432 21.2979 145.911 25.9663C152.484 30.6346 155.771 36.9703 155.771 44.9732C155.771 49.8321 154.58 54.167 152.198 57.9779C149.912 61.7888 146.673 64.7899 142.481 66.9811ZM92.0338 36.3986V59.9786H115.042C120.759 59.9786 125.093 58.9783 128.047 56.9775C131 54.9768 132.477 52.0234 132.477 48.1172C132.477 44.211 131 41.3052 128.047 39.3997C125.093 37.399 120.759 36.3986 115.042 36.3986H92.0338ZM119.044 101.565C125.141 101.565 129.714 100.565 132.763 98.564C135.907 96.5633 137.479 93.4669 137.479 89.2749C137.479 80.9862 131.334 76.8419 119.044 76.8419H92.0338V101.565H119.044ZM241.466 101.708V119H175.3V36.8274H239.894V54.1193H197.593V69.1248H235.035V85.5593H197.593V101.708H241.466ZM334.375 36.8274V119H315.797L277.926 73.6979V119H255.775V36.8274H274.353L312.224 82.2724V36.8274H334.375ZM394.125 120.572C385.456 120.572 377.643 118.762 370.688 115.141C363.733 111.426 358.255 106.329 354.254 99.8502C350.252 93.3717 348.252 86.0833 348.252 77.9851C348.252 69.887 350.252 62.5986 354.254 56.1201C358.255 49.5463 363.733 44.4492 370.688 40.8288C377.643 37.1132 385.456 35.2554 394.125 35.2554C402.033 35.2554 408.845 36.4463 414.561 38.8281C420.373 41.2099 425.375 45.0208 429.567 50.2608L414.99 63.5513C409.56 56.9775 402.891 53.6906 394.983 53.6906C388.028 53.6906 382.264 55.9295 377.691 60.4073C373.213 64.8852 370.974 70.7444 370.974 77.9851C370.974 82.7488 371.975 86.9884 373.975 90.704C376.071 94.3244 378.929 97.1349 382.55 99.1357C386.265 101.136 390.41 102.137 394.983 102.137C402.891 102.137 409.56 98.8498 414.99 92.276L429.567 105.567C425.47 110.711 420.468 114.522 414.561 116.999C408.75 119.381 401.938 120.572 394.125 120.572ZM441.568 36.8274H464.147V68.2673H497.588V36.8274H520.168V119H497.588V86.4168H464.147V119H441.568V36.8274ZM615.217 119L615.074 74.1266L593.066 110.283H582.919L561.054 75.5557V119H540.047V36.8274H558.911L588.35 84.5589L617.075 36.8274H636.081L636.367 119H615.217ZM710.987 102.708H672.544L665.685 119H643.82L680.69 36.8274H702.984L739.997 119H717.704L710.987 102.708ZM704.127 86.4168L691.837 56.6917L679.404 86.4168H704.127ZM784.052 96.992H770.19V119H747.611V36.8274H785.053C796.39 36.8274 805.393 39.5426 812.063 44.9732C818.732 50.3084 822.066 57.6921 822.066 67.1241C822.066 73.1262 820.589 78.3662 817.636 82.844C814.778 87.2266 810.681 90.6564 805.346 93.1335L823.638 119H799.344L784.052 96.992ZM799.344 67.1241C799.344 63.0273 798.01 59.8833 795.342 57.6921C792.675 55.5008 788.721 54.4052 783.481 54.4052H770.19V79.843H783.481C788.721 79.843 792.675 78.7473 795.342 76.556C798.01 74.3648 799.344 71.2208 799.344 67.1241ZM869.02 88.7033L859.731 98.2782V119H837.437V36.8274H859.731V71.8401L893.171 36.8274H918.037L883.882 73.4121L919.895 119H893.6L869.02 88.7033ZM309.7 123.287L268.247 250H236.75L208.873 164.197L180.091 250H148.775L107.141 123.287H137.552L166.153 212.348L196.021 123.287H223.173L252.136 213.072L281.642 123.287H309.7ZM405.904 228.097V250H322.093V145.915H403.913V167.818H350.331V186.825H397.758V207.642H350.331V228.097H405.904ZM507.84 228.097V250H424.028V145.915H505.848V167.818H452.267V186.825H499.694V207.642H452.267V228.097H507.84ZM565.969 211.624L554.203 223.752V250H525.964V145.915H554.203V190.264L596.561 145.915H628.058L584.795 192.255L630.411 250H597.104L565.969 211.624ZM776.794 226.106V250H681.036V230.993L729.91 184.834C735.1 179.886 738.599 175.662 740.41 172.162C742.22 168.542 743.125 164.982 743.125 161.482C743.125 156.414 741.375 152.552 737.875 149.897C734.496 147.121 729.488 145.734 722.851 145.734C717.3 145.734 712.291 146.82 707.826 148.992C703.361 151.044 699.62 154.181 696.603 158.405L675.243 144.648C680.191 137.286 687.009 131.554 695.698 127.451C704.387 123.227 714.343 121.115 725.566 121.115C734.979 121.115 743.185 122.684 750.184 125.822C757.305 128.839 762.795 133.183 766.657 138.855C770.64 144.406 772.631 150.983 772.631 158.586C772.631 165.465 771.183 171.921 768.286 177.955C765.39 183.989 759.778 190.867 751.452 198.591L722.308 226.106H776.794ZM840.131 252.172C829.632 252.172 820.279 249.578 812.073 244.388C803.867 239.199 797.41 231.717 792.704 221.942C788.118 212.047 785.825 200.28 785.825 186.644C785.825 173.007 788.118 161.301 792.704 151.526C797.41 141.631 803.867 134.088 812.073 128.899C820.279 123.71 829.632 121.115 840.131 121.115C850.63 121.115 859.982 123.71 868.188 128.899C876.395 134.088 882.79 141.631 887.376 151.526C892.083 161.301 894.436 173.007 894.436 186.644C894.436 200.28 892.083 212.047 887.376 221.942C882.79 231.717 876.395 239.199 868.188 244.388C859.982 249.578 850.63 252.172 840.131 252.172ZM840.131 227.373C847.854 227.373 853.888 224.054 858.232 217.417C862.697 210.779 864.93 200.522 864.93 186.644C864.93 172.766 862.697 162.508 858.232 155.871C853.888 149.233 847.854 145.915 840.131 145.915C832.528 145.915 826.494 149.233 822.029 155.871C817.684 162.508 815.512 172.766 815.512 186.644C815.512 200.522 817.684 210.779 822.029 217.417C826.494 224.054 832.528 227.373 840.131 227.373ZM999.581 226.106V250H903.822V230.993L952.697 184.834C957.886 179.886 961.386 175.662 963.196 172.162C965.006 168.542 965.911 164.982 965.911 161.482C965.911 156.414 964.161 152.552 960.662 149.897C957.283 147.121 952.275 145.734 945.637 145.734C940.086 145.734 935.078 146.82 930.613 148.992C926.148 151.044 922.407 154.181 919.39 158.405L898.029 144.648C902.977 137.286 909.796 131.554 918.484 127.451C927.173 123.227 937.129 121.115 948.352 121.115C957.765 121.115 965.972 122.684 972.971 125.822C980.091 128.839 985.582 133.183 989.444 138.855C993.426 144.406 995.417 150.983 995.417 158.586C995.417 165.465 993.969 171.921 991.073 177.955C988.176 183.989 982.565 190.867 974.238 198.591L945.094 226.106H999.581ZM1057.84 123.287V250H1028.52V146.82H1003.17V123.287H1057.84Z" fill="white"/>
<path d="M722.2 352.2C714.933 352.2 708.367 350.633 702.5 347.5C696.7 344.367 692.133 340.067 688.8 334.6C685.533 329.067 683.9 322.867 683.9 316C683.9 309.133 685.533 302.967 688.8 297.5C692.133 291.967 696.7 287.633 702.5 284.5C708.367 281.367 714.933 279.8 722.2 279.8C729.467 279.8 736 281.367 741.8 284.5C747.6 287.633 752.167 291.967 755.5 297.5C758.833 302.967 760.5 309.133 760.5 316C760.5 322.867 758.833 329.067 755.5 334.6C752.167 340.067 747.6 344.367 741.8 347.5C736 350.633 729.467 352.2 722.2 352.2ZM722.2 338.4C726.333 338.4 730.067 337.467 733.4 335.6C736.733 333.667 739.333 331 741.2 327.6C743.133 324.2 744.1 320.333 744.1 316C744.1 311.667 743.133 307.8 741.2 304.4C739.333 301 736.733 298.367 733.4 296.5C730.067 294.567 726.333 293.6 722.2 293.6C718.067 293.6 714.333 294.567 711 296.5C707.667 298.367 705.033 301 703.1 304.4C701.233 307.8 700.3 311.667 700.3 316C700.3 320.333 701.233 324.2 703.1 327.6C705.033 331 707.667 333.667 711 335.6C714.333 337.467 718.067 338.4 722.2 338.4ZM830.575 293.5V351H817.575L791.075 319.3V351H775.575V293.5H788.575L815.075 325.3V293.5H830.575ZM849.485 293.5H865.285V338.7H893.385V351H849.485V293.5ZM905.427 293.5H921.227V351H905.427V293.5ZM994.981 293.5V351H981.981L955.481 319.3V351H939.981V293.5H952.981L979.481 325.3V293.5H994.981ZM1060.19 338.9V351H1013.89V293.5H1059.09V305.6H1029.49V316.1H1055.69V327.6H1029.49V338.9H1060.19Z" fill="white"/>
<path d="M0 9.52832H66.6908L233.418 262.001H157.633L0 9.52832Z" fill="#FBBA00"/>
</svg>
