<svg viewBox="0 0 48 48" fill="none" xmlns="http://www.w3.org/2000/svg">
  <path d="M43.6709 34.7828C44.1414 35.0721 44.7573 34.9253 45.0466 34.4549C45.3359 33.9844 45.1891 33.3685 44.7187 33.0792L43.6709 34.7828ZM31.4715 26.1056L30.9476 26.9574L30.9476 26.9574L31.4715 26.1056ZM30.7397 25.8445L30.8733 24.8534H30.8733L30.7397 25.8445ZM25.3915 25.1235L25.5251 24.1325H25.5251L25.3915 25.1235ZM23.4284 26.2185L22.515 25.8114L23.4284 26.2185ZM20.2178 33.4228L21.1312 33.8299L21.1312 33.8299L20.2178 33.4228ZM20.5536 35.4589L19.8194 36.1377H19.8194L20.5536 35.4589ZM24.9599 40.2248L24.2256 40.9037V40.9037L24.9599 40.2248ZM25.424 41.8538L24.4422 41.6639V41.6639L25.424 41.8538ZM23.5447 46.3036C23.4398 46.8459 23.7943 47.3705 24.3366 47.4753C24.8788 47.5802 25.4034 47.2257 25.5083 46.6835L23.5447 46.3036ZM10.1442 7.42224C10.3593 6.91357 10.1213 6.32683 9.61267 6.11171C9.104 5.8966 8.51725 6.13457 8.30214 6.64324L10.1442 7.42224ZM7.12686 11.9897L8.04789 12.3792L8.04789 12.3792L7.12686 11.9897ZM7.09798 13.3779L8.03441 13.027L7.09798 13.3779ZM9.79115 20.5657L10.7276 20.2149L9.79115 20.5657ZM11.153 21.741L11.3631 20.7633L11.153 21.741ZM16.1756 22.8205L15.9655 23.7982H15.9655L16.1756 22.8205ZM17.4693 23.8367L18.3694 23.401L18.3694 23.401L17.4693 23.8367ZM18.3612 25.6794L17.4611 26.1151L17.4611 26.1151L18.3612 25.6794ZM20.0489 26.7375V25.7375V26.7375ZM23.1972 27.7375C23.7494 27.7375 24.1972 27.2897 24.1972 26.7375C24.1972 26.1852 23.7494 25.7375 23.1972 25.7375V27.7375ZM30.6055 1.75047C30.3363 1.26825 29.7272 1.09557 29.2449 1.36479C28.7627 1.63401 28.59 2.24317 28.8593 2.7254L30.6055 1.75047ZM31.92 6.15631L31.0468 6.64377V6.64377L31.92 6.15631ZM31.5405 8.46095L30.8697 7.71927L31.5405 8.46095ZM25.2333 14.1651L25.904 14.9067L25.904 14.9067L25.2333 14.1651ZM24.882 14.4158L25.3654 15.2912L25.3654 15.2912L24.882 14.4158ZM22.0128 16.0002L21.5294 15.1248V15.1248L22.0128 16.0002ZM21.1064 16.2339V17.2339V16.2339ZM16.1036 16.2339V17.2339V16.2339ZM14.3757 17.381L13.4541 16.9928L14.3757 17.381ZM11.5024 21.626C11.288 22.135 11.5268 22.7214 12.0358 22.9358C12.5447 23.1502 13.1311 22.9114 13.3455 22.4024L11.5024 21.626ZM45.5 24C45.5 35.8741 35.8741 45.5 24 45.5V47.5C36.9787 47.5 47.5 36.9787 47.5 24H45.5ZM24 45.5C12.1259 45.5 2.5 35.8741 2.5 24H0.5C0.5 36.9787 11.0213 47.5 24 47.5V45.5ZM2.5 24C2.5 12.1259 12.1259 2.5 24 2.5V0.5C11.0213 0.5 0.5 11.0213 0.5 24H2.5ZM24 2.5C35.8741 2.5 45.5 12.1259 45.5 24H47.5C47.5 11.0213 36.9787 0.5 24 0.5V2.5ZM44.7187 33.0792L31.9954 25.2538L30.9476 26.9574L43.6709 34.7828L44.7187 33.0792ZM31.9954 25.2538C31.6534 25.0435 31.2711 24.9071 30.8733 24.8534L30.6061 26.8355C30.7272 26.8518 30.8435 26.8933 30.9476 26.9574L31.9954 25.2538ZM30.8733 24.8534L25.5251 24.1325L25.2579 26.1146L30.6061 26.8355L30.8733 24.8534ZM25.5251 24.1325C24.9093 24.0495 24.2832 24.1682 23.7406 24.4709L24.7148 26.2176C24.88 26.1255 25.0705 26.0893 25.2579 26.1146L25.5251 24.1325ZM23.7406 24.4709C23.198 24.7736 22.768 25.2439 22.515 25.8114L24.3418 26.6256C24.4188 26.4528 24.5497 26.3097 24.7148 26.2176L23.7406 24.4709ZM22.515 25.8114L19.3044 33.0157L21.1312 33.8299L24.3418 26.6256L22.515 25.8114ZM19.3044 33.0157C19.0754 33.5294 19.0022 34.099 19.0937 34.654L21.0671 34.3284C21.0392 34.1596 21.0615 33.9862 21.1312 33.8299L19.3044 33.0157ZM19.0937 34.654C19.1853 35.2089 19.4376 35.7248 19.8194 36.1377L21.2879 34.78C21.1717 34.6544 21.0949 34.4973 21.0671 34.3284L19.0937 34.654ZM19.8194 36.1377L24.2256 40.9037L25.6941 39.546L21.2879 34.78L19.8194 36.1377ZM24.2256 40.9037C24.3188 41.0045 24.387 41.1259 24.4246 41.2579L26.3481 40.7099C26.2245 40.276 26.0004 39.8773 25.6941 39.546L24.2256 40.9037ZM24.4246 41.2579C24.4623 41.39 24.4683 41.529 24.4422 41.6639L26.4058 42.0437C26.4915 41.6007 26.4717 41.1438 26.3481 40.7099L24.4246 41.2579ZM24.4422 41.6639L23.5447 46.3036L25.5083 46.6835L26.4058 42.0437L24.4422 41.6639ZM8.30214 6.64324L6.20583 11.6002L8.04789 12.3792L10.1442 7.42224L8.30214 6.64324ZM6.20583 11.6002C5.91923 12.2779 5.90338 13.0397 6.16156 13.7288L8.03441 13.027C7.95584 12.8173 7.96066 12.5855 8.04789 12.3792L6.20583 11.6002ZM6.16156 13.7288L8.85473 20.9166L10.7276 20.2149L8.03441 13.027L6.16156 13.7288ZM8.85473 20.9166C9.02383 21.3679 9.30369 21.7695 9.66856 22.0844L10.9753 20.5703C10.8642 20.4745 10.779 20.3522 10.7276 20.2149L8.85473 20.9166ZM9.66856 22.0844C10.0334 22.3993 10.4716 22.6174 10.9428 22.7187L11.3631 20.7633C11.2197 20.7325 11.0863 20.6661 10.9753 20.5703L9.66856 22.0844ZM10.9428 22.7187L15.9655 23.7982L16.3857 21.8429L11.3631 20.7633L10.9428 22.7187ZM15.9655 23.7982C16.0955 23.8262 16.2175 23.8834 16.3221 23.9656L17.5576 22.3928C17.2138 22.1228 16.8131 21.9347 16.3857 21.8429L15.9655 23.7982ZM16.3221 23.9656C16.4267 24.0477 16.5112 24.1527 16.5692 24.2724L18.3694 23.401C18.1789 23.0076 17.9013 22.6628 17.5576 22.3928L16.3221 23.9656ZM16.5692 24.2724L17.4611 26.1151L19.2613 25.2437L18.3694 23.401L16.5692 24.2724ZM17.4611 26.1151C17.6965 26.6013 18.0641 27.0114 18.5218 27.2983L19.5841 25.6038C19.4448 25.5165 19.333 25.3917 19.2613 25.2437L17.4611 26.1151ZM18.5218 27.2983C18.9794 27.5853 19.5087 27.7375 20.0489 27.7375V25.7375C19.8845 25.7375 19.7234 25.6911 19.5841 25.6038L18.5218 27.2983ZM20.0489 27.7375H23.1972V25.7375H20.0489V27.7375ZM28.8593 2.7254L31.0468 6.64377L32.7931 5.66885L30.6055 1.75047L28.8593 2.7254ZM31.0468 6.64377C31.1433 6.81664 31.1784 7.01712 31.1462 7.21247L33.1196 7.53741C33.2253 6.89555 33.1102 6.23682 32.7931 5.66885L31.0468 6.64377ZM31.1462 7.21247C31.114 7.40781 31.0166 7.58648 30.8697 7.71927L32.2113 9.20263C32.6937 8.7663 33.0139 8.17926 33.1196 7.53741L31.1462 7.21247ZM30.8697 7.71927L24.5625 13.4234L25.904 14.9067L32.2113 9.20263L30.8697 7.71927ZM24.5625 13.4234C24.5125 13.4686 24.4575 13.5078 24.3986 13.5404L25.3654 15.2912C25.5592 15.1842 25.7399 15.0552 25.904 14.9067L24.5625 13.4234ZM24.3986 13.5404L21.5294 15.1248L22.4963 16.8756L25.3654 15.2912L24.3986 13.5404ZM21.5294 15.1248C21.3999 15.1964 21.2544 15.2339 21.1064 15.2339L21.1064 17.2339C21.5925 17.2339 22.0707 17.1106 22.4963 16.8756L21.5294 15.1248ZM21.1064 15.2339H16.1036V17.2339H21.1064V15.2339ZM16.1036 15.2339C15.5379 15.2339 14.9848 15.4008 14.5135 15.7136L15.6197 17.3799C15.7631 17.2847 15.9314 17.2339 16.1036 17.2339V15.2339ZM14.5135 15.7136C14.0422 16.0265 13.6737 16.4715 13.4541 16.9928L15.2972 17.7692C15.3641 17.6105 15.4762 17.4751 15.6197 17.3799L14.5135 15.7136ZM13.4541 16.9928L11.5024 21.626L13.3455 22.4024L15.2972 17.7692L13.4541 16.9928Z" fill="#66676C"/>
</svg>
