<svg viewBox="0 0 46 46" fill="none" xmlns="http://www.w3.org/2000/svg">
  <path d="M29.3633 3.375C32.5419 4.22985 35.44 5.90489 37.7675 8.23235C40.0949 10.5598 41.77 13.458 42.6248 16.6365" stroke="#66676C" stroke-width="2" stroke-linecap="round" stroke-linejoin="round"/>
  <path d="M27.4219 10.6211C29.329 11.134 31.0679 12.139 32.4644 13.5355C33.8609 14.932 34.8659 16.6709 35.3788 18.578" stroke="#66676C" stroke-width="2" stroke-linecap="round" stroke-linejoin="round"/>
  <path d="M13.6741 23.254C15.6191 27.2302 18.8422 30.4387 22.8273 32.3655C23.1188 32.5037 23.4413 32.5636 23.7631 32.5392C24.0848 32.5149 24.3946 32.4072 24.6621 32.2267L30.5298 28.314C30.7894 28.1409 31.0879 28.0354 31.3985 28.0068C31.7092 27.9783 32.022 28.0277 32.3087 28.1506L43.2861 32.8552C43.659 33.0136 43.9703 33.2889 44.1732 33.6396C44.376 33.9903 44.4594 34.3975 44.4107 34.7997C44.0637 37.5147 42.739 40.0102 40.6847 41.8188C38.6303 43.6275 35.9871 44.6253 33.25 44.6254C24.7962 44.6254 16.6887 41.2672 10.711 35.2894C4.73325 29.3117 1.375 21.2042 1.375 12.7504C1.37514 10.0133 2.37295 7.37013 4.1816 5.31575C5.99024 3.26137 8.48569 1.93668 11.2007 1.58971C11.6029 1.54103 12.0101 1.62439 12.3608 1.82723C12.7115 2.03007 12.9868 2.34139 13.1452 2.71429L17.854 13.7013C17.9757 13.9855 18.0254 14.2954 17.9984 14.6034C17.9715 14.9114 17.8687 15.208 17.6994 15.4667L13.8003 21.4244C13.6228 21.6924 13.5179 22.0019 13.4958 22.3226C13.4737 22.6432 13.5351 22.9642 13.6741 23.254V23.254Z" stroke="#66676C" stroke-width="2" stroke-linecap="round" stroke-linejoin="round"/>
</svg>
