<svg viewBox="0 0 52 48" fill="none" xmlns="http://www.w3.org/2000/svg">
  <path d="M18.5 35.248H3.03125C2.65829 35.248 2.3006 35.0999 2.03688 34.8362C1.77316 34.5724 1.625 34.2148 1.625 33.8418V18.373C1.625 13.8975 3.4029 9.60527 6.56757 6.44061C9.73224 3.27594 14.0244 1.49805 18.5 1.49805H18.5C22.9755 1.49805 27.2677 3.27594 30.4324 6.44062C33.5971 9.6053 35.375 13.8975 35.375 18.373V18.3731C35.375 22.8486 33.5971 27.1408 30.4324 30.3055C27.2678 33.4702 22.9756 35.248 18.5 35.248V35.248Z" stroke="#66676C" stroke-width="2" stroke-linecap="round" stroke-linejoin="round"/>
  <path d="M17.5859 35.2484C18.7504 38.5385 20.906 41.3869 23.756 43.4014C26.606 45.416 30.0103 46.4977 33.5004 46.4977H48.9692C49.3422 46.4977 49.6999 46.3496 49.9636 46.0858C50.2273 45.8221 50.3755 45.4644 50.3755 45.0915V29.6227C50.3754 25.3067 48.7217 21.1549 45.7545 18.0207C42.7873 14.8866 38.732 13.0085 34.4225 12.7725" stroke="#66676C" stroke-width="2" stroke-linecap="round" stroke-linejoin="round"/>
</svg>
