<?xml version="1.0" encoding="UTF-8" standalone="no"?>
<!DOCTYPE svg PUBLIC "-//W3C//DTD SVG 1.1//EN" "http://www.w3.org/Graphics/SVG/1.1/DTD/svg11.dtd">
<svg width="100%" height="100%" viewBox="0 0 1036 339" version="1.1" xmlns="http://www.w3.org/2000/svg" xmlns:xlink="http://www.w3.org/1999/xlink" xml:space="preserve" xmlns:serif="http://www.serif.com/" style="fill-rule:evenodd;clip-rule:evenodd;stroke-linejoin:round;stroke-miterlimit:2;">
    <g transform="matrix(1,0,0,1,-1145,-474)">
        <g id="USA-2022-COLOUR" serif:id="USA 2022 COLOUR" transform="matrix(1.48707,0,0,0.71308,1524.32,384.227)">
            <rect x="-255" y="126" width="696" height="474" style="fill:none;"/>
            <g transform="matrix(2.80193,0,0,5.8432,-312.469,-19.1123)">
                <path d="M75.152,58.731L77.234,58.731L71.147,43.637L68.816,43.637L62.751,58.731L64.833,58.731L66.168,55.381L73.817,55.381L75.152,58.731ZM69.992,45.309L73.251,53.709L66.711,53.709L69.992,45.309Z" style="fill:white;fill-rule:nonzero;"/>
            </g>
            <g transform="matrix(2.80193,0,0,5.8432,-312.469,-19.1123)">
                <path d="M81.424,58.731L83.3,58.731L83.3,45.309L88.098,45.309L88.098,43.637L76.648,43.637L76.648,45.309L81.424,45.309L81.424,58.731Z" style="fill:white;fill-rule:nonzero;"/>
            </g>
            <g transform="matrix(2.80193,0,0,5.8432,-312.469,-19.1123)">
                <path d="M94.326,58.731L96.201,58.731L96.201,45.309L101,45.309L101,43.637L89.55,43.637L89.55,45.309L94.326,45.309L94.326,58.731Z" style="fill:white;fill-rule:nonzero;"/>
            </g>
            <g transform="matrix(2.80193,0,0,5.8432,-312.469,-19.1123)">
                <path d="M103.492,58.731L113.381,58.731L113.381,57.059L105.368,57.059L105.368,51.85L113.222,51.85L113.222,50.178L105.368,50.178L105.368,45.309L113.381,45.309L113.381,43.637L103.492,43.637L103.492,58.731Z" style="fill:white;fill-rule:nonzero;"/>
            </g>
            <g transform="matrix(2.80193,0,0,5.8432,-312.469,-19.1123)">
                <path d="M125.108,58.731L127.323,58.731L123.251,52.575C125.312,52.394 127.165,50.902 127.165,48.185C127.165,45.399 125.199,43.637 122.436,43.637L116.371,43.637L116.371,58.731L118.247,58.731L118.247,52.733L121.259,52.733L125.108,58.731ZM125.221,48.185C125.221,49.883 123.998,51.083 122.21,51.083L118.247,51.083L118.247,45.309L122.21,45.309C123.998,45.309 125.221,46.486 125.221,48.185Z" style="fill:white;fill-rule:nonzero;"/>
            </g>
            <g transform="matrix(2.80193,0,0,5.8432,-312.469,-19.1123)">
                <path d="M134.162,58.731L136.037,58.731L136.037,52.349L141.968,43.637L139.772,43.637L135.088,50.652L130.404,43.637L128.209,43.637L134.162,52.349L134.162,58.731Z" style="fill:white;fill-rule:nonzero;"/>
            </g>
            <g transform="matrix(2.80193,0,0,5.8432,-195.27,243.252)">
                <path d="M0,6.915L7.135,6.915C8.24,6.878 9.166,7.744 9.204,8.849C9.205,8.879 9.205,8.909 9.205,8.939C9.229,10.013 8.377,10.903 7.304,10.927C7.248,10.928 7.191,10.927 7.135,10.923L0,10.923L0,6.915ZM0,-4.005L6.872,-4.005C7.852,-3.981 8.633,-3.18 8.632,-2.199C8.655,-1.195 7.874,-0.356 6.872,-0.306L0,-0.306L0,-4.005ZM9.554,18.142C15.455,18.142 18.228,14.266 18.228,10.172C18.228,6.386 15.805,3.477 12.637,2.995C15.5,2.378 17.656,-0.087 17.656,-3.745C17.661,-7.174 15.019,-11.227 8.941,-11.227L-8.896,-11.227L-8.896,-6.067L3.061,18.142L9.554,18.142Z" style="fill:white;fill-rule:nonzero;"/>
            </g>
            <g transform="matrix(0.672464,0,0,1.37787,-258.362,130.966)">
                <path d="M715.516,286.947C715.516,291.198 716.647,294.503 718.909,296.865C721.171,299.226 724.313,300.407 728.334,300.407C732.355,300.407 735.487,299.226 737.73,296.865C739.973,294.503 741.094,291.198 741.094,286.947L741.094,262.39L745.096,262.39L745.096,286.947C745.096,292.3 743.617,296.491 740.659,299.521C737.701,302.551 733.593,304.067 728.334,304.067C723.075,304.067 718.957,302.551 715.98,299.521C713.003,296.491 711.514,292.3 711.514,286.947L711.514,262.39L715.516,262.39L715.516,286.947Z" style="fill:white;fill-rule:nonzero;"/>
            </g>
            <g transform="matrix(0.672464,0,0,1.37787,-258.362,130.966)">
                <path d="M779.432,269.179C777.769,268.116 775.952,267.3 773.98,266.729C772.008,266.159 770.152,265.873 768.412,265.873C765.628,265.873 763.395,266.434 761.713,267.556C760.031,268.677 759.19,270.202 759.19,272.131C759.19,273.823 759.654,275.2 760.582,276.263C761.51,277.325 762.651,278.162 764.004,278.772C765.357,279.382 767.213,280.06 769.572,280.808C772.317,281.635 774.531,282.451 776.213,283.258C777.895,284.065 779.326,285.236 780.505,286.77C781.684,288.305 782.274,290.332 782.274,292.851C782.274,295.054 781.665,297.002 780.447,298.695C779.229,300.387 777.518,301.695 775.314,302.62C773.11,303.545 770.577,304.008 767.716,304.008C764.893,304.008 762.138,303.437 759.451,302.296C756.764,301.154 754.453,299.639 752.52,297.75L754.376,294.385C756.193,296.196 758.301,297.612 760.698,298.636C763.095,299.659 765.454,300.17 767.774,300.17C770.867,300.17 773.323,299.531 775.14,298.252C776.957,296.973 777.866,295.251 777.866,293.087C777.866,291.355 777.402,289.938 776.474,288.836C775.546,287.735 774.405,286.888 773.052,286.298C771.699,285.708 769.804,285.019 767.368,284.232C764.623,283.366 762.419,282.55 760.756,281.782C759.093,281.015 757.682,279.874 756.522,278.358C755.362,276.843 754.782,274.866 754.782,272.426C754.782,270.34 755.362,268.51 756.522,266.936C757.682,265.362 759.306,264.152 761.394,263.305C763.482,262.459 765.899,262.036 768.644,262.036C770.848,262.036 773.062,262.371 775.285,263.04C777.508,263.709 779.471,264.594 781.172,265.696L779.432,269.179Z" style="fill:white;fill-rule:nonzero;"/>
            </g>
            <g transform="matrix(0.672464,0,0,1.37787,-258.362,130.966)">
                <path d="M822.004,303.712L817.19,292.733L794.686,292.733L789.93,303.712L785.638,303.712L803.908,262.449L808.084,262.449L826.354,303.712L822.004,303.712ZM796.252,289.073L815.624,289.073L805.88,266.759L796.252,289.073Z" style="fill:white;fill-rule:nonzero;"/>
            </g>
            <g transform="matrix(0.672464,0,0,1.37787,-258.362,130.966)">
                <path d="M873.624,300.052L873.624,303.712L844.856,303.712L844.856,300.348L860.864,283.347C862.72,281.379 864.189,279.46 865.272,277.591C866.355,275.722 866.896,274.098 866.896,272.721C866.896,270.556 866.103,268.864 864.518,267.644C862.933,266.424 860.729,265.814 857.906,265.814C855.973,265.814 853.981,266.257 851.932,267.142C849.883,268.028 848.027,269.258 846.364,270.832L844.566,267.821C846.538,266.05 848.732,264.673 851.149,263.689C853.566,262.705 855.973,262.213 858.37,262.213C862.237,262.213 865.32,263.118 867.621,264.929C869.922,266.739 871.072,269.159 871.072,272.19C871.072,274.039 870.405,276.115 869.071,278.417C867.737,280.72 865.91,283.11 863.59,285.59L849.902,300.052L873.624,300.052Z" style="fill:white;fill-rule:nonzero;"/>
            </g>
            <g transform="matrix(0.672464,0,0,1.37787,-258.362,130.966)">
                <path d="M897.172,262.213C902.547,262.213 906.665,264.014 909.526,267.615C912.387,271.216 913.818,276.361 913.818,283.051C913.818,289.742 912.387,294.897 909.526,298.518C906.665,302.138 902.547,303.949 897.172,303.949C891.836,303.949 887.728,302.138 884.847,298.518C881.966,294.897 880.526,289.742 880.526,283.051C880.526,276.361 881.966,271.216 884.847,267.615C887.728,264.014 891.836,262.213 897.172,262.213ZM897.172,265.46C893.073,265.46 889.961,266.946 887.834,269.917C885.707,272.888 884.644,277.266 884.644,283.051C884.644,288.836 885.707,293.215 887.834,296.186C889.961,299.157 893.073,300.643 897.172,300.643C901.271,300.643 904.393,299.157 906.539,296.186C908.685,293.215 909.758,288.836 909.758,283.051C909.758,277.266 908.685,272.888 906.539,269.917C904.393,266.946 901.271,265.46 897.172,265.46Z" style="fill:white;fill-rule:nonzero;"/>
            </g>
            <g transform="matrix(0.672464,0,0,1.37787,-258.362,130.966)">
                <path d="M948.154,300.052L948.154,303.712L919.386,303.712L919.386,300.348L935.394,283.347C937.25,281.379 938.719,279.46 939.802,277.591C940.885,275.722 941.426,274.098 941.426,272.721C941.426,270.556 940.633,268.864 939.048,267.644C937.463,266.424 935.259,265.814 932.436,265.814C930.503,265.814 928.511,266.257 926.462,267.142C924.413,268.028 922.557,269.258 920.894,270.832L919.096,267.821C921.068,266.05 923.262,264.673 925.679,263.689C928.096,262.705 930.503,262.213 932.9,262.213C936.767,262.213 939.85,263.118 942.151,264.929C944.452,266.739 945.602,269.159 945.602,272.19C945.602,274.039 944.935,276.115 943.601,278.417C942.267,280.72 940.44,283.11 938.12,285.59L924.432,300.052L948.154,300.052Z" style="fill:white;fill-rule:nonzero;"/>
            </g>
            <g transform="matrix(0.672464,0,0,1.37787,-258.362,130.966)">
                <path d="M981.214,300.052L981.214,303.712L952.446,303.712L952.446,300.348L968.454,283.347C970.31,281.379 971.779,279.46 972.862,277.591C973.945,275.722 974.486,274.098 974.486,272.721C974.486,270.556 973.693,268.864 972.108,267.644C970.523,266.424 968.319,265.814 965.496,265.814C963.563,265.814 961.571,266.257 959.522,267.142C957.473,268.028 955.617,269.258 953.954,270.832L952.156,267.821C954.128,266.05 956.322,264.673 958.739,263.689C961.156,262.705 963.563,262.213 965.96,262.213C969.827,262.213 972.91,263.118 975.211,264.929C977.512,266.739 978.662,269.159 978.662,272.19C978.662,274.039 977.995,276.115 976.661,278.417C975.327,280.72 973.5,283.11 971.18,285.59L957.492,300.052L981.214,300.052Z" style="fill:white;fill-rule:nonzero;"/>
            </g>
            <g transform="matrix(2.80193,0,0,5.8432,20.3611,462.661)">
                <path d="M-0.004,-15.932L12.085,-15.932L12.085,-11.92L4.823,-11.92L4.823,-10.057L11.917,-10.057L11.917,-6.045L4.823,-6.045L4.823,0L-0.004,0L-0.004,-15.932Z" style="fill:white;fill-rule:nonzero;"/>
            </g>
            <g transform="matrix(2.80193,0,0,5.8432,71.715,405.029)">
                <path d="M0,3.794L3.629,3.794L1.814,-1.818L0,3.794ZM4.872,7.81L-1.243,7.81L-1.866,9.863L-7.094,9.863L-1.218,-6.069L4.847,-6.069L10.721,9.863L5.491,9.863L4.872,7.81Z" style="fill:white;fill-rule:nonzero;"/>
            </g>
            <g transform="matrix(2.80193,0,0,5.8432,99.7764,416.187)">
                <path d="M0,0C0,-4.921 3.773,-8.242 8.645,-8.242C12.945,-8.242 15.049,-5.806 16.002,-3.609L11.847,-1.677C11.381,-3.052 10.096,-3.982 8.645,-3.995C6.448,-3.995 4.891,-2.229 4.891,-0.008C4.891,2.213 6.442,3.98 8.645,3.98C10.096,3.966 11.381,3.036 11.847,1.661L16.002,3.57C15.072,5.698 12.945,8.228 8.645,8.228C3.773,8.242 0,4.896 0,0" style="fill:white;fill-rule:nonzero;"/>
            </g>
            <g transform="matrix(2.80193,0,0,5.8432,213.154,439.506)">
                <path d="M0,-7.982C-2.319,-7.982 -3.822,-6.215 -3.822,-3.995C-3.822,-1.774 -2.316,-0.007 0,-0.007C2.316,-0.007 3.822,-1.776 3.822,-3.995C3.822,-6.213 2.317,-7.982 0,-7.982M0,-12.233C4.921,-12.233 8.719,-8.892 8.719,-3.991C8.719,0.911 4.921,4.251 0,4.251C-4.921,4.251 -8.719,0.906 -8.719,-3.991C-8.719,-8.887 -4.917,-12.233 0,-12.233" style="fill:white;fill-rule:nonzero;"/>
            </g>
            <g transform="matrix(2.80193,0,0,5.8432,260.4,439.217)">
                <path d="M0,-7.908L-2.939,-7.908L-2.939,-5.114L-0.001,-5.114C0.77,-5.021 1.471,-5.571 1.564,-6.342C1.658,-7.114 1.108,-7.815 0.337,-7.908C0.225,-7.922 0.111,-7.922 -0.001,-7.908L0,-7.908ZM-1.193,-1.098L-2.939,-1.098L-2.939,4.012L-7.765,4.012L-7.765,-11.92L0.741,-11.92C4.465,-11.92 6.473,-9.436 6.473,-6.451C6.559,-4.416 5.432,-2.524 3.602,-1.629L6.491,4.009L0.997,4.009L-1.193,-1.098Z" style="fill:white;fill-rule:nonzero;"/>
            </g>
            <g transform="matrix(2.80193,0,0,5.8432,-337.351,-4067.99)">
                <rect x="221.775" y="759.44" width="4.827" height="15.932" style="fill:white;"/>
            </g>
            <g transform="matrix(2.80193,0,0,5.8432,-337.351,-4065.2)">
                <rect x="176.575" y="759.201" width="4.826" height="15.932" style="fill:rgb(247,188,35);"/>
            </g>
            <g transform="matrix(-2.80193,0,0,5.8432,665.686,-4065.18)">
                <rect x="171.024" y="764.752" width="15.932" height="4.827" style="fill:rgb(247,188,35);"/>
            </g>
            <g transform="matrix(2.80193,0,0,5.8432,348.336,403.554)">
                <path d="M0,4.289C1.383,5.609 3.222,6.345 5.134,6.342C6.039,6.342 6.9,6.034 6.9,5.412C6.9,4.79 6.233,4.482 4.654,4.194C2.029,3.717 -1.988,3.096 -1.988,-0.892C-1.988,-3.591 0.259,-6.052 4.629,-6.052C7.073,-6.119 9.463,-5.334 11.39,-3.83L8.807,-0.414C7.519,-1.377 5.969,-1.927 4.363,-1.99C3.17,-1.99 2.906,-1.563 2.906,-1.155C2.906,-0.534 3.552,-0.32 5.248,-0.032C7.877,0.421 11.77,1.186 11.77,4.865C11.77,8.375 9.165,10.408 4.89,10.408C1.499,10.408 -0.817,9.403 -2.513,7.877L0,4.289Z" style="fill:white;fill-rule:nonzero;"/>
            </g>
            <g transform="matrix(2.80193,0,0,5.8432,304.811,434.556)">
                <path d="M0,4.81L12.085,4.81L12.085,0.794L4.823,0.794L4.823,0L0,0L0,4.81Z" style="fill:white;fill-rule:nonzero;"/>
            </g>
            <g transform="matrix(-2.80193,0,0,5.8432,977.659,-4069.44)">
                <rect x="228.169" y="765.48" width="12.984" height="4.099" style="fill:rgb(247,188,35);"/>
            </g>
            <g transform="matrix(0.275209,0,0,0.573925,-290.469,639.653)">
                <g transform="matrix(1.91895,0,0,1.91895,259.478,-598.627)">
                    <path d="M312.1,64.291C331.834,64.291 343.543,74.225 349.406,85.182L327.757,96.257C324.672,90.485 318.644,86.904 312.1,86.957C300.364,87.325 291.144,97.136 291.512,108.866C291.864,120.09 300.881,129.107 312.1,129.459C317.008,129.619 321.847,128.281 325.977,125.632L325.977,121.923L309.552,121.923L309.552,100.781L350.935,100.781L350.935,134.911C341.161,146.081 326.963,152.37 312.121,152.104C286.396,152.104 265.414,135.311 265.414,108.179C265.387,80.977 286.374,64.291 312.1,64.291" style="fill:white;fill-rule:nonzero;"/>
                </g>
                <g transform="matrix(1.91895,0,0,1.91895,259.478,-599.312)">
                    <path d="M389.803,118.619L409.143,118.619L399.459,88.71L389.803,118.619ZM415.789,140.022L383.189,140.022L379.879,150.963L352.006,150.963L383.322,66.055L415.645,66.055L446.961,150.963L419.066,150.963L415.789,140.022Z" style="fill:white;fill-rule:nonzero;"/>
                </g>
                <g transform="matrix(1.91895,0,0,1.91895,259.478,-597.901)">
                    <rect x="232.286" y="65.687" width="25.725" height="84.908" style="fill:white;"/>
                </g>
                <g transform="matrix(1.91895,0,0,1.91895,259.478,-534.209)">
                    <path d="M84.816,56.505C85.237,55.806 85.674,55.114 86.122,54.426C93.295,43.501 103.261,34.979 116.025,28.861C128.783,22.737 143.2,19.678 159.257,19.678C173.311,19.678 185.931,21.847 197.117,26.196C208.304,30.54 217.625,36.791 225.081,44.95L197.975,67.457C187.796,57.192 175.608,52.06 161.41,52.06C148.502,52.06 138.105,55.647 130.222,62.82C122.335,69.993 118.391,79.57 118.391,91.546C118.391,99.183 120.182,105.994 123.769,111.979C127.35,117.969 132.37,122.643 138.824,126C145.278,129.358 152.665,131.037 160.979,131.037C169.154,131.037 176.828,129.523 183.996,126.491L183.996,88.583L221.638,88.583L221.638,145.842C213.036,151.502 203.14,155.845 191.953,158.872C180.772,161.9 169.586,163.413 158.399,163.413C150.73,163.413 143.434,162.694 136.516,161.244L84.816,56.505Z" style="fill:white;"/>
                </g>
            </g>
            <g transform="matrix(2.80193,0,0,5.8432,338.672,372.762)">
                <path d="M0,3.465L0,-0.547L-12.085,-0.547L-12.085,4.012L-7.262,4.012L-7.262,3.465L0,3.465Z" style="fill:white;fill-rule:nonzero;"/>
            </g>
        </g>
    </g>
</svg>
