<svg width="49" height="50" viewBox="0 0 49 50" fill="none" xmlns="http://www.w3.org/2000/svg">
  <path
    d="M7.528 44.2h-3.9L2.884 46H.892l3.744-8.4h1.92l3.756 8.4h-2.04l-.744-1.8Zm-.612-1.476-1.332-3.216-1.332 3.216h2.664Zm8.06-3.276c.8 0 1.443.24 1.931.72.497.48.744 1.192.744 2.136V46H15.78v-3.408c0-.512-.112-.892-.336-1.14-.225-.256-.549-.384-.973-.384-.472 0-.848.148-1.127.444-.28.288-.42.72-.42 1.296V46h-1.872v-6.456h1.787v.756c.248-.272.556-.48.925-.624a3.145 3.145 0 0 1 1.212-.228Zm7.515 6.648c-.68 0-1.292-.14-1.836-.42a3.22 3.22 0 0 1-1.26-1.188 3.257 3.257 0 0 1-.456-1.716c0-.64.152-1.212.456-1.716a3.135 3.135 0 0 1 1.26-1.176c.544-.288 1.156-.432 1.836-.432.68 0 1.288.144 1.824.432.536.28.956.672 1.26 1.176.304.504.456 1.076.456 1.716 0 .64-.152 1.212-.456 1.716a3.22 3.22 0 0 1-1.26 1.188c-.536.28-1.144.42-1.824.42Zm0-1.536c.48 0 .872-.16 1.176-.48.312-.328.468-.764.468-1.308s-.156-.976-.468-1.296c-.304-.328-.696-.492-1.176-.492s-.876.164-1.188.492c-.312.32-.468.752-.468 1.296s.156.98.468 1.308c.312.32.708.48 1.188.48Zm11.367-7.464V46H32.07v-.744c-.464.56-1.136.84-2.016.84-.608 0-1.16-.136-1.656-.408a2.932 2.932 0 0 1-1.152-1.164c-.28-.504-.42-1.088-.42-1.752 0-.664.14-1.248.42-1.752.28-.504.664-.892 1.152-1.164a3.387 3.387 0 0 1 1.656-.408c.824 0 1.468.26 1.932.78v-3.132h1.872Zm-3.48 7.464c.472 0 .864-.16 1.176-.48.312-.328.468-.764.468-1.308s-.156-.976-.468-1.296a1.555 1.555 0 0 0-1.176-.492c-.48 0-.876.164-1.188.492-.312.32-.468.752-.468 1.296s.156.98.468 1.308c.312.32.708.48 1.188.48Zm11.537-1.764c0 .024-.012.192-.036.504h-4.884c.088.4.296.716.624.948.328.232.736.348 1.224.348.336 0 .632-.048.888-.144a2.23 2.23 0 0 0 .732-.48l.996 1.08c-.608.696-1.496 1.044-2.664 1.044-.728 0-1.372-.14-1.932-.42a3.163 3.163 0 0 1-1.296-1.188 3.257 3.257 0 0 1-.456-1.716c0-.632.148-1.2.444-1.704a3.15 3.15 0 0 1 1.236-1.188 3.623 3.623 0 0 1 1.764-.432 3.6 3.6 0 0 1 1.716.408c.512.272.912.664 1.2 1.176.296.504.444 1.092.444 1.764Zm-3.348-1.932c-.424 0-.78.12-1.068.36-.288.24-.464.568-.528.984h3.18c-.064-.408-.24-.732-.528-.972-.288-.248-.64-.372-1.056-.372Zm6.766 5.232c-.536 0-1.06-.064-1.572-.192-.512-.136-.92-.304-1.224-.504l.624-1.344c.288.184.636.336 1.044.456.408.112.808.168 1.2.168.792 0 1.188-.196 1.188-.588 0-.184-.108-.316-.324-.396-.216-.08-.548-.148-.996-.204a9.609 9.609 0 0 1-1.308-.276 2.071 2.071 0 0 1-.9-.552c-.248-.264-.372-.64-.372-1.128 0-.408.116-.768.348-1.08.24-.32.584-.568 1.032-.744.456-.176.992-.264 1.608-.264.456 0 .908.052 1.356.156.456.096.832.232 1.128.408l-.624 1.332a3.725 3.725 0 0 0-1.86-.48c-.4 0-.7.056-.9.168-.2.112-.3.256-.3.432 0 .2.108.34.324.42.216.08.56.156 1.032.228.528.088.96.184 1.296.288.336.096.628.276.876.54s.372.632.372 1.104c0 .4-.12.756-.36 1.068-.24.312-.592.556-1.056.732-.456.168-1 .252-1.632.252Z"
    fill="currentColor" />
  <path fill-rule="evenodd" clip-rule="evenodd"
    d="M13.8 18a1.6 1.6 0 0 1 1.6-1.6h19.2a1.6 1.6 0 0 1 0 3.2H15.4a1.6 1.6 0 0 1-1.6-1.6Z" fill="currentColor" />
</svg>