<svg width="47" height="48" viewBox="0 0 47 48" fill="none" xmlns="http://www.w3.org/2000/svg">
  <g clip-path="url(#wkj4yo01ca)">
    <g clip-path="url(#okhe36sxpb)">
      <g clip-path="url(#71cd7rgb2c)" fill="#FDBD00" opacity=".4">
        <g clip-path="url(#tpf42a6hgd)">
          <circle cx="1.837" cy="31.633" r=".926" />
          <circle cx="6.999" cy="31.633" r=".926" />
          <circle cx="12.116" cy="31.633" r=".926" />
          <circle cx="17.255" cy="31.633" r=".926" />
          <circle cx="22.394" cy="31.633" r=".926" />
          <circle cx="27.533" cy="31.633" r=".926" />
          <circle cx="32.676" cy="31.633" r=".926" />
          <circle cx="37.816" cy="31.633" r=".926" />
          <circle cx="42.936" cy="31.633" r=".926" />
        </g>
        <g clip-path="url(#dtnxcps3ee)">
          <circle cx="1.837" cy="25.492" r=".926" />
          <circle cx="6.999" cy="25.492" r=".926" />
          <circle cx="12.116" cy="25.492" r=".926" />
          <circle cx="17.255" cy="25.492" r=".926" />
          <circle cx="22.394" cy="25.492" r=".926" />
          <circle cx="27.533" cy="25.492" r=".926" />
          <circle cx="32.676" cy="25.492" r=".926" />
          <circle cx="37.816" cy="25.492" r=".926" />
          <circle cx="42.936" cy="25.492" r=".926" />
        </g>
        <g clip-path="url(#dxvaczdq2f)">
          <circle cx="1.837" cy="19.35" r=".926" />
          <circle cx="6.999" cy="19.35" r=".926" />
          <circle cx="12.116" cy="19.35" r=".926" />
          <circle cx="17.255" cy="19.35" r=".926" />
          <circle cx="22.394" cy="19.35" r=".926" />
          <circle cx="27.533" cy="19.35" r=".926" />
          <circle cx="32.676" cy="19.35" r=".926" />
          <circle cx="37.816" cy="19.35" r=".926" />
          <circle cx="42.936" cy="19.35" r=".926" />
        </g>
        <g clip-path="url(#ha5o4dutvg)">
          <circle cx="1.837" cy="13.209" r=".926" />
          <circle cx="6.999" cy="13.209" r=".926" />
          <circle cx="12.116" cy="13.209" r=".926" />
          <circle cx="17.255" cy="13.209" r=".926" />
          <circle cx="22.394" cy="13.209" r=".926" />
          <circle cx="27.533" cy="13.209" r=".926" />
          <circle cx="32.676" cy="13.209" r=".926" />
          <circle cx="37.816" cy="13.209" r=".926" />
          <circle cx="42.936" cy="13.209" r=".926" />
        </g>
        <g clip-path="url(#12px7zokih)">
          <circle cx="1.837" cy="7.068" r=".926" />
          <circle cx="6.999" cy="7.068" r=".926" />
          <circle cx="12.116" cy="7.068" r=".926" />
          <circle cx="17.255" cy="7.068" r=".926" />
          <circle cx="22.394" cy="7.068" r=".926" />
          <circle cx="27.533" cy="7.068" r=".926" />
          <circle cx="32.676" cy="7.068" r=".926" />
          <circle cx="37.816" cy="7.068" r=".926" />
          <circle cx="42.936" cy="7.068" r=".926" />
        </g>
        <g clip-path="url(#cc08umtvji)">
          <circle cx="1.837" cy=".926" r=".926" />
          <circle cx="6.999" cy=".926" r=".926" />
          <circle cx="12.116" cy=".926" r=".926" />
          <circle cx="17.255" cy=".926" r=".926" />
          <circle cx="22.394" cy=".926" r=".926" />
          <circle cx="27.533" cy=".926" r=".926" />
          <circle cx="32.676" cy=".926" r=".926" />
          <circle cx="37.816" cy=".926" r=".926" />
          <circle cx="42.936" cy=".926" r=".926" />
        </g>
      </g>
    </g>
    <path fill="#FDBD00" d="M0 11.953h35.849v35.849H0z" />
    <g filter="url(#usxanlrhyj)">
      <path fill="#fff" d="M4 8h35.652v35.66H4z" />
      <path stroke="#fff" stroke-width=".147" d="M4 8h35.652v35.66H4z" />
      <path stroke="#A7ACB6" stroke-width=".147" d="M4 8h35.652v35.66H4z" />
    </g>
    <path d="M16.167 26h11.666" stroke="#23252C" stroke-width="1.5" stroke-linecap="round" stroke-linejoin="round" />
    <path
      d="M30.219 9.3v7.547c0 1.006.582 1.588 1.593 1.588h12.754c1.026 0 1.6-.58 1.6-1.61 0-3.474-.014-6.949.013-10.423a3.073 3.073 0 0 0-.584-1.858 14.46 14.46 0 0 0-2.337-2.597c-.576-.504-1.2-.957-1.822-1.404-.353-.254-.768-.338-1.212-.336-2.8.01-5.6.005-8.4.005-1.036 0-1.605.567-1.605 1.599V9.3z"
      stroke="#23252C" stroke-width=".147" stroke-linecap="round" stroke-linejoin="round" />
    <path
      d="M30.219 9.3V1.81c0-1.031.57-1.598 1.606-1.598 2.8 0 5.599.005 8.399-.005.444-.002.859.082 1.212.336.622.447 1.246.9 1.822 1.404a14.46 14.46 0 0 1 2.337 2.597c.392.559.589 1.153.584 1.858-.027 3.474-.012 6.949-.013 10.423 0 1.03-.574 1.61-1.6 1.61H31.813c-1.011 0-1.593-.582-1.593-1.588V9.301z"
      fill="#23252C" />
    <path
      d="M40.5 1.473c-.108-.007-.182-.015-.256-.015h-8.426c-.356 0-.427.08-.427.472v14.978c0 .411.072.485.475.485h12.698c.425 0 .49-.067.49-.498V6.012H41.31c-.645 0-.81-.164-.81-.804V1.473z"
      fill="#fff" />
    <path d="M41.617 4.755h2.717a17.569 17.569 0 0 0-2.717-2.72v2.72z" fill="#fff" />
    <path fill-rule="evenodd" clip-rule="evenodd"
      d="M43.164 10.223c-.808-.166-1.618-.068-2.428.004a.674.674 0 0 1-.38-.08C39.34 9.55 38.751 8.61 38.322 7.55c-.029-.072-.015-.167-.003-.248.1-.72.339-.91.382-1.758.043-.32-.146-1.075-.274-1.37-.155-.356-.51-.326-.83-.28-.294.042-.478.216-.509.527-.035.355-.071.722-.021 1.072.097.676.26 1.342.381 2.015.026.141.029.315-.031.438-.542 1.116-1.104 2.221-1.649 3.335a1.337 1.337 0 0 1-.655.643c-.635.308-1.233.682-1.7 1.22a2.59 2.59 0 0 0-.44.765c-.043.115.025.34.122.429.343.315.794.352 1.186.088a3.02 3.02 0 0 0 .722-.647c.408-.536.781-1.101 1.146-1.67.115-.179.239-.295.444-.343 1.149-.267 2.295-.542 3.445-.803.104-.024.234.012.34.054.459.184.906.403 1.373.567.492.173 1.003.29 1.535.236.316-.033.497-.194.576-.5.16-.613-.06-.966-.699-1.097zm-9.48 3.825c.037-.361.706-1.155 1.365-1.614-.373.595-.758 1.182-1.365 1.614zm4.168-9.88c.562.566.44 1.491.135 2.173-.358-.675-.459-1.501-.135-2.173zm-1.172 7.008 1.211-2.469 1.46 1.735-2.671.734zm6.634.057c-.236-.007-.48-.013-.707-.07-.31-.08-.608-.208-.912-.315l.009-.073c.517-.047 1.033-.063 1.541.092.04.012.08.035.117.05.095.042.164.138.164.208-.02.07-.142.11-.212.108z"
      fill="#FDBD00" />
    <path
      d="M30.613 39.047v7.547c0 1.006.583 1.587 1.593 1.587h12.755c1.026 0 1.6-.579 1.6-1.61 0-3.474-.015-6.948.012-10.422a3.071 3.071 0 0 0-.583-1.859 14.508 14.508 0 0 0-2.337-2.597c-.576-.504-1.2-.957-1.823-1.404-.352-.253-.767-.338-1.212-.336-2.8.01-5.599.005-8.399.006-1.036 0-1.605.566-1.605 1.598v7.49z"
      stroke="#23252C" stroke-width=".147" stroke-linecap="round" stroke-linejoin="round" />
    <path
      d="M30.613 39.047v-7.49c0-1.032.57-1.598 1.606-1.598 2.8 0 5.6.005 8.4-.006.444-.002.859.083 1.211.336.623.447 1.247.9 1.823 1.404.88.77 1.664 1.636 2.337 2.597.392.56.588 1.153.583 1.859-.027 3.474-.012 6.948-.012 10.423 0 1.03-.575 1.61-1.6 1.61H32.206c-1.01 0-1.592-.582-1.592-1.589v-7.546z"
      fill="#23252C" />
    <path
      d="M40.89 31.22c-.108-.007-.181-.016-.255-.016h-8.427c-.355 0-.426.08-.426.472v14.979c0 .41.071.484.475.484h12.697c.425 0 .49-.067.49-.498l.001-10.565v-.318H41.701c-.646 0-.811-.164-.811-.804v-3.735z"
      fill="#fff" />
    <path d="M42.016 34.5h2.717a17.619 17.619 0 0 0-2.717-2.719v2.72z" fill="#fff" />
    <path d="M43.373 43.77H33.211V34.5h.845v8.425h9.317v.845z" fill="#FDBD00" />
    <path
      d="m38.28 42.385-1.96-1.981-1.095 1.52-.686-.494 1.678-2.331 1.85 1.87 2.414-4.614 1.245 1.873 1.317-.054.035.844-1.792.074-.718-1.08-2.289 4.373z"
      fill="#FDBD00" />
  </g>
  <defs>
    <clipPath id="wkj4yo01ca">
      <path fill="#fff" d="M0 0h46.765v48H0z" />
    </clipPath>
    <clipPath id="okhe36sxpb">
      <path fill="#fff" transform="translate(.911)" d="M0 0h48.11v32.559H0z" />
    </clipPath>
    <clipPath id="71cd7rgb2c">
      <path fill="#fff" transform="translate(.911)" d="M0 0h48.11v32.559H0z" />
    </clipPath>
    <clipPath id="tpf42a6hgd">
      <path fill="#fff" transform="translate(.911 30.707)" d="M0 0h48.11v1.851H0z" />
    </clipPath>
    <clipPath id="dtnxcps3ee">
      <path fill="#fff" transform="translate(.911 24.567)" d="M0 0h48.11v1.851H0z" />
    </clipPath>
    <clipPath id="dxvaczdq2f">
      <path fill="#fff" transform="translate(.911 18.424)" d="M0 0h48.11v1.851H0z" />
    </clipPath>
    <clipPath id="ha5o4dutvg">
      <path fill="#fff" transform="translate(.911 12.283)" d="M0 0h48.11v1.851H0z" />
    </clipPath>
    <clipPath id="12px7zokih">
      <path fill="#fff" transform="translate(.911 6.143)" d="M0 0h48.11v1.851H0z" />
    </clipPath>
    <clipPath id="cc08umtvji">
      <path fill="#fff" transform="translate(.911)" d="M0 0h48.11v1.851H0z" />
    </clipPath>
    <filter id="usxanlrhyj" x="3.093" y="7.927" width="36.632" height="36.641" filterUnits="userSpaceOnUse"
      color-interpolation-filters="sRGB">
      <feFlood flood-opacity="0" result="BackgroundImageFix" />
      <feColorMatrix in="SourceAlpha" values="0 0 0 0 0 0 0 0 0 0 0 0 0 0 0 0 0 0 127 0" result="hardAlpha" />
      <feOffset dx="-.834" dy=".834" />
      <feColorMatrix values="0 0 0 0 0.133333 0 0 0 0 0.133333 0 0 0 0 0.133333 0 0 0 1 0" />
      <feBlend in2="BackgroundImageFix" result="effect1_dropShadow_714_23249" />
      <feBlend in="SourceGraphic" in2="effect1_dropShadow_714_23249" result="shape" />
    </filter>
  </defs>
</svg>