<svg width="33" height="44" viewBox="0 0 33 44" fill="none" xmlns="http://www.w3.org/2000/svg">
    <g clip-path="url(#clip0_481_13256)">
    <path d="M15.9796 19.4023L13.4555 24.8682C13.3679 25.1388 13.3679 25.4944 13.543 25.765C13.7182 26.0357 13.9758 26.2108 14.2385 26.2108H17.1953L14.9339 30.1536C14.6712 30.5994 14.8463 31.1407 15.1966 31.406C15.3718 31.4962 15.892 31.7669 16.4123 31.1354L19.4568 25.8499C19.6319 25.5793 19.6319 25.2237 19.4568 24.9531C19.2816 24.6825 19.024 24.5073 18.6738 24.5073H15.6293L17.5405 20.384C17.7156 19.9383 17.5405 19.397 17.1078 19.2219C16.675 18.7761 16.1496 18.9512 15.9796 19.4023Z" fill="black"/>
    <path d="M19.802 0.5L13.1053 0.5C11.5393 0.5 10.236 1.84259 10.236 3.45582L10.236 6.77249L1.37057 6.77249C0.85029 6.77249 0.5 7.13335 0.5 7.66932L0.5 42.6032C0.5 43.1391 0.85029 43.5 1.37057 43.5L31.6294 43.5C32.1497 43.5 32.5 43.1391 32.5 42.6032L32.5 7.66401C32.5 7.12804 32.1497 6.76719 31.6294 6.76719L22.7589 6.76719V3.45582C22.7589 1.84259 21.4556 0.5 19.802 0.5ZM11.9771 3.45582C11.9771 2.82963 12.4974 2.29366 13.1053 2.29366L19.802 2.29366C20.4099 2.29366 20.9301 2.82963 20.9301 3.45582V6.77249L11.9771 6.77249L11.9771 3.45582ZM30.7589 41.7063L2.24115 41.7063L2.24115 39.9127H14.5889C15.1091 39.9127 15.4594 39.5518 15.4594 39.0159C15.4594 38.4799 15.1091 38.119 14.5889 38.119H2.24115L2.24115 33.014C6.06858 34.8077 11.1993 35.7894 16.5 35.7894C21.8007 35.7894 26.9366 34.8024 30.7589 33.014L30.7589 41.701V41.7063ZM30.7589 31.0452C27.1066 32.9238 21.8883 34.001 16.5 34.001C11.1117 34.001 5.89343 32.9238 2.24115 31.0452L2.24115 19.222C5.89343 17.3434 11.1117 16.2661 16.5 16.2661C21.8883 16.2661 27.1066 17.3434 30.7589 19.222V31.0452ZM30.7589 8.56084V10.3545L18.4111 10.3545C17.8909 10.3545 17.5406 10.7154 17.5406 11.2513C17.5406 11.7873 17.8909 12.1482 18.4111 12.1482L30.7589 12.1482V17.2532C26.9314 15.4595 21.8007 14.4778 16.5 14.4778C11.1993 14.4778 6.06343 15.4648 2.24115 17.2532L2.24115 8.56084L30.7589 8.56084Z" fill="black"/>
    </g>
    <defs>
    <clipPath id="clip0_481_13256">
    <rect width="32" height="43" fill="white" transform="translate(0.5 0.5)"/>
    </clipPath>
    </defs>
    </svg>
    