<svg width="40" height="40" viewBox="0 0 40 40" fill="none" xmlns="http://www.w3.org/2000/svg">
    <path clip-rule="evenodd" d="M3.333 5.333a2 2 0 0 1 2-2h29.334a2 2 0 0 1 2 2v29.334a2 2 0 0 1-2 2H5.333a2 2 0 0 1-2-2V5.333z" stroke="#000" stroke-opacity=".87" stroke-width="2"/>
    <g clip-path="url(#nvvywnys6a)" stroke="#000" stroke-opacity=".87" stroke-width="2" stroke-linecap="round" stroke-linejoin="round">
        <path d="M14.86 25.833h-1.944a1.944 1.944 0 0 1-1.944-1.944v-7.778a1.944 1.944 0 0 1 1.944-1.944h3.101m8.566 0h1.944a1.945 1.945 0 0 1 1.945 1.944v7.778a1.945 1.945 0 0 1-1.945 1.944h-3.101M32.361 20.972v-1.944M20.694 14.167 16.805 20h5.834l-3.89 5.833"/>
    </g>
    <defs>
        <clipPath id="nvvywnys6a">
            <path fill="#fff" transform="translate(10 8.333)" d="M0 0h23.333v23.333H0z"/>
        </clipPath>
    </defs>
</svg>
