<svg width="226" height="34" viewBox="0 0 226 34" fill="none" xmlns="http://www.w3.org/2000/svg">
    <path d="M14.7061 16.6616C15.2065 17.0005 15.6731 17.3869 16.0995 17.8152C15.6731 17.3868 15.2065 17.0005 14.7061 16.6616Z" fill="#25262A"/>
    <path d="M16.0986 17.8154C16.7434 18.4567 17.2906 19.189 17.7228 19.9891C17.2906 19.189 16.7434 18.4567 16.0986 17.8154Z" fill="#25262A"/>
    <path d="M9.43262 24.0093V33.4416C14.6408 33.44 18.8619 29.2174 18.8619 24.0093L9.43262 24.0093Z" fill="#FDBD00"/>
    <path d="M17.7236 19.9888C18.1665 20.8011 18.4857 21.6749 18.6708 22.5814C18.4857 21.6749 18.1665 20.8011 17.7236 19.9888Z" fill="#25262A"/>
    <path d="M0 24.4816H9.43236V15.0522C4.22419 15.0522 0.00167341 19.2734 0 24.4816Z" fill="#FDBD00"/>
    <path d="M18.8613 24.4816H28.2937V15.0522C23.0855 15.0522 18.863 19.2734 18.8613 24.4816Z" fill="#FDBD00"/>
    <circle cx="33.0535" cy="5.3299" r="4.71466" fill="#FDBD00"/>
    <path d="M28.3389 15.0522C32.8155 15.0522 36.6757 18.1975 37.58 22.5815C37.707 23.2069 37.7711 23.8434 37.7712 24.4816V15.0522L28.3389 15.0522Z" fill="#FDBD00"/>
    <path d="M36.6302 19.9886C36.198 19.1885 35.6508 18.4562 35.006 17.8149C33.2388 16.0378 30.8333 15.0428 28.3271 15.0523V24.4816H37.7565C37.7563 23.8434 37.6922 23.2067 37.5652 22.5812C37.384 21.6754 37.0688 20.8016 36.6302 19.9886Z" fill="#E18800"/>
    <rect x="28.3389" y="24.0093" width="9.42933" height="9.42933" fill="#FDBD00"/>
    <path d="M9.43262 0.615234V14.7865C13.3459 14.7865 16.5183 11.6142 16.5183 7.70089C16.5183 3.7876 13.3459 0.615234 9.43262 0.615234Z" fill="#FDBD00"/>
    <path fill-rule="evenodd" clip-rule="evenodd" d="M46.0186 14.811H54.7505C56.8992 14.811 58.5943 15.3951 59.6687 16.4407C60.5238 17.2639 60.9908 18.398 60.9578 19.5715L60.9579 19.6241C61.0007 21.2935 60.0477 22.835 58.5167 23.5726C60.6952 24.3904 62.0382 25.6228 62.0382 28.0936V28.1462C62.0382 31.5164 59.2449 33.1987 54.9953 33.1987H46.0425L46.0186 14.811ZM56.8516 20.255C56.8516 19.0459 55.8787 18.3625 54.1359 18.3625H50.0474V22.2526H53.8673C55.6937 22.2526 56.8516 21.6685 56.8516 20.3075L56.8516 20.255ZM54.8342 25.6227H50.0593V29.6706H54.9774C56.8098 29.6706 57.908 29.0398 57.908 27.673V27.6204C57.9199 26.3821 56.959 25.6227 54.8342 25.6227L54.8342 25.6227Z" fill="black"/>
    <path d="M65.6738 14.2666H79.6579V17.9517H69.7273V21.7683H78.4695V25.4534H69.7273V29.4073H79.7932V33.0925H65.6738V14.2666Z" fill="black"/>
    <path d="M82.9307 14.2666H86.9286L96.1697 25.8596V14.2666H100.449V33.0925H96.7578L87.2102 21.1471V33.0925H82.9307L82.9307 14.2666Z" fill="black"/>
    <path d="M103.85 23.7292V23.6772C103.8 21.1537 104.83 18.7204 106.7 16.9433C108.57 15.1662 111.117 14.2003 113.75 14.2701C117.327 14.2701 119.47 15.4244 121.229 17.075L118.573 20.0125C117.11 18.7429 115.617 17.958 113.72 17.958C110.522 17.958 108.216 20.5088 108.216 23.6253V23.6772C108.216 26.7937 110.468 29.3908 113.72 29.3908C115.888 29.3908 117.218 28.5597 118.712 27.2612L121.367 29.8351C119.432 32.0056 116.564 33.2036 113.587 33.0843C110.988 33.1255 108.482 32.1523 106.646 30.3882C104.81 28.6241 103.801 26.2205 103.85 23.7292H103.85Z" fill="black"/>
    <path d="M124.767 14.2666H128.914V21.7145H136.569V14.2666H140.716V33.0925H136.569V25.537H128.914V33.0925H124.767V14.2666Z" fill="black"/>
    <path d="M144.899 14.2666H149.424L154.446 22.2282L159.462 14.2666H163.987V33.0925H159.819V20.8007L154.446 28.8399H154.337L149.019 20.8843V33.0925H144.899L144.899 14.2666Z" fill="black"/>
    <path fill-rule="evenodd" clip-rule="evenodd" d="M174.695 14.6841H178.485L186.549 33.2236H182.246L180.527 29.094H172.571L170.852 33.2236H166.632L174.695 14.6841ZM179.047 25.5191L176.546 19.5496L174.051 25.5191H179.047Z" fill="black"/>
    <path fill-rule="evenodd" clip-rule="evenodd" d="M189.473 14.811H198.073C200.461 14.811 202.323 15.4711 203.559 16.6802C204.653 17.8122 205.234 19.3286 205.17 20.8857L205.17 20.9383C205.295 23.5136 203.642 25.8518 201.135 26.645L205.731 33.222H200.897L196.868 27.3284H193.615V33.222H189.473V14.811ZM197.829 23.7537C199.846 23.7537 200.998 22.7023 200.998 21.1486V21.096C200.998 19.3437 199.763 18.4675 197.751 18.4675H193.639V23.7245L197.829 23.7537Z" fill="black"/>
    <path d="M209.266 14.2666H213.313V22.4969L220.766 14.2666H225.655L218.161 22.2521L226 33.0925H221.134L215.428 25.0771L213.296 27.3348V33.0925H209.266L209.266 14.2666Z" fill="black"/>
    <path d="M18.6701 22.5812C18.2985 20.7748 17.4044 19.1174 16.0988 17.8149C14.3316 16.0378 11.9261 15.0428 9.41992 15.0523V24.4816H18.8614C18.8627 23.8433 18.7987 23.2065 18.6701 22.5812H18.6701Z" fill="#E18800"/>
</svg>
