<svg width="227" height="34" viewBox="0 0 227 34" fill="none" xmlns="http://www.w3.org/2000/svg">
  <path d="M15.3809 16.3125C15.8813 16.6514 16.348 17.0377 16.7743 17.4661C16.348 17.0377 15.8813 16.6514 15.3809 16.3125Z" fill="#25262A"/>
  <path d="M16.7754 17.4648C17.4202 18.1061 17.9674 18.8384 18.3996 19.6385C17.9674 18.8384 17.4202 18.1061 16.7754 17.4648Z" fill="#25262A"/>
  <path d="M10.1074 23.6602V33.0925C15.3156 33.0908 19.5367 28.8683 19.5367 23.6602L10.1074 23.6602Z" fill="#FDBD00"/>
  <path d="M18.3984 19.6406C18.8413 20.4529 19.1605 21.3267 19.3456 22.2332C19.1605 21.3267 18.8413 20.4529 18.3984 19.6406Z" fill="#25262A"/>
  <path d="M0.675781 24.1324H10.1081V14.7031C4.89998 14.7031 0.677455 18.9243 0.675781 24.1324Z" fill="#FDBD00"/>
  <path d="M19.5371 24.1324H28.9695V14.7031C23.7613 14.7031 19.5388 18.9243 19.5371 24.1324Z" fill="#FDBD00"/>
  <circle cx="33.7283" cy="4.98029" r="4.71466" fill="#FDBD00"/>
  <path d="M29.0137 14.7031C33.4903 14.7031 37.3505 17.8483 38.2548 22.2323C38.3818 22.8577 38.4459 23.4943 38.446 24.1325V14.7031L29.0137 14.7031Z" fill="#FDBD00"/>
  <path d="M37.305 19.6395C36.8728 18.8394 36.3256 18.107 35.6808 17.4658C33.9136 15.6887 31.5081 14.6937 29.002 14.7032V24.1325H38.4313C38.4311 23.4942 38.367 22.8576 38.24 22.2321C38.0588 21.3262 37.7436 20.4525 37.305 19.6395Z" fill="#E18800"/>
  <rect x="29.0137" y="23.6602" width="9.42933" height="9.42933" fill="#FDBD00"/>
  <path d="M10.1074 0.265625V14.4369C14.0207 14.4369 17.1931 11.2646 17.1931 7.35129C17.1931 3.43799 14.0207 0.265625 10.1074 0.265625Z" fill="#FDBD00"/>
  <path fill-rule="evenodd" clip-rule="evenodd" d="M46.6953 14.4609H55.4273C57.576 14.4609 59.2711 15.045 60.3454 16.0906C61.2005 16.9138 61.6675 18.0479 61.6346 19.2214L61.6346 19.274C61.6774 20.9434 60.7244 22.4849 59.1935 23.2225C61.372 24.0403 62.7149 25.2727 62.7149 27.7435V27.7961C62.7149 31.1663 59.9216 32.8486 55.672 32.8486H46.7192L46.6953 14.4609ZM57.5283 19.9049C57.5283 18.6958 56.5554 18.0124 54.8126 18.0124H50.7241V21.9025H54.544C56.3704 21.9025 57.5283 21.3184 57.5283 19.9575L57.5283 19.9049ZM55.5109 25.2727H50.7361V29.3205H55.6541C57.4865 29.3205 58.5847 28.6897 58.5847 27.3229V27.2703C58.5967 26.032 57.6357 25.2727 55.5109 25.2727L55.5109 25.2727Z" fill="white"/>
  <path d="M66.3496 13.918H80.3337V17.6031H70.403V21.4196H79.1453V25.1048H70.403V29.0587H80.469V32.7438H66.3496V13.918Z" fill="white"/>
  <path d="M83.6074 13.918H87.6054L96.8464 25.5109V13.918H101.126V32.7438H97.4345L87.887 20.7985V32.7438H83.6074L83.6074 13.918Z" fill="white"/>
  <path d="M104.525 23.3806V23.3286C104.475 20.8051 105.504 18.3718 107.374 16.5947C109.245 14.8176 111.792 13.8516 114.425 13.9215C118.001 13.9215 120.145 15.0757 121.903 16.7263L119.248 19.6639C117.785 18.3942 116.291 17.6093 114.395 17.6093C111.197 17.6093 108.891 20.1602 108.891 23.2767V23.3286C108.891 26.4451 111.143 29.0421 114.395 29.0421C116.562 29.0421 117.893 28.2111 119.386 26.9125L122.042 29.4865C120.107 31.657 117.238 32.8549 114.262 32.7357C111.663 32.7769 109.157 31.8037 107.321 30.0396C105.485 28.2755 104.476 25.8719 104.525 23.3806H104.525Z" fill="white"/>
  <path d="M125.441 13.918H129.589V21.3659H137.244V13.918H141.391V32.7438H137.244V25.1884H129.589V32.7438H125.441V13.918Z" fill="white"/>
  <path d="M145.574 13.918H150.099L155.121 21.8795L160.137 13.918H164.662V32.7438H160.494V20.4521L155.121 28.4913H155.012L149.693 20.5357V32.7438H145.574L145.574 13.918Z" fill="white"/>
  <path fill-rule="evenodd" clip-rule="evenodd" d="M175.372 14.3359H179.162L187.226 32.8755H182.922L181.203 28.7458H173.247L171.528 32.8755H167.309L175.372 14.3359ZM179.723 25.171L177.222 19.2015L174.728 25.171H179.723Z" fill="white"/>
  <path fill-rule="evenodd" clip-rule="evenodd" d="M190.148 14.4609H198.749C201.137 14.4609 202.999 15.121 204.234 16.3301C205.329 17.4621 205.91 18.9785 205.846 20.5356L205.846 20.5882C205.971 23.1635 204.318 25.5017 201.811 26.2949L206.407 32.8719H201.572L197.544 26.9783H194.291V32.8719H190.148V14.4609ZM198.505 23.4036C200.522 23.4036 201.674 22.3522 201.674 20.7985V20.7459C201.674 18.9936 200.438 18.1174 198.427 18.1174H194.315V23.3744L198.505 23.4036Z" fill="white"/>
  <path d="M209.941 13.918H213.989V22.1483L221.442 13.918H226.331L218.837 21.9034L226.676 32.7438H221.81L216.104 24.7285L213.972 26.9862V32.7438H209.941L209.941 13.918Z" fill="white"/>
  <path d="M19.3459 22.2321C18.9743 20.4257 18.0802 18.7683 16.7746 17.4658C15.0074 15.6887 12.6019 14.6937 10.0957 14.7032V24.1325H19.5372C19.5385 23.4942 19.4744 22.8574 19.3459 22.2321H19.3459Z" fill="#E18800"/>
</svg>
