<svg width="138" height="20" viewBox="0 0 138 20" fill="none" xmlns="http://www.w3.org/2000/svg">
    <path d="M8.97949 9.77686C9.28508 9.98334 9.57002 10.2187 9.83036 10.4797C9.57002 10.2187 9.28508 9.98334 8.97949 9.77686Z" fill="#25262A"/>
    <path d="M9.83057 10.479C10.2243 10.8697 10.5584 11.3159 10.8223 11.8033C10.5584 11.3159 10.2243 10.8697 9.83057 10.479Z" fill="#25262A"/>
    <path d="M5.75977 14.2529V19.9997C8.93997 19.9987 11.5175 17.4261 11.5175 14.2529L5.75977 14.2529Z" fill="#FDBD00"/>
    <path d="M10.8228 11.8032C11.0932 12.2981 11.2881 12.8305 11.4011 13.3828C11.2881 12.8305 11.0932 12.2981 10.8228 11.8032Z" fill="#25262A"/>
    <path d="M0 14.5409H5.75957V8.7959C2.57937 8.7959 0.00102181 11.3677 0 14.5409Z" fill="#FDBD00"/>
    <path d="M11.5171 14.5409H17.2767V8.7959C14.0965 8.7959 11.5181 11.3677 11.5171 14.5409Z" fill="#FDBD00"/>
    <ellipse cx="20.1833" cy="2.87248" rx="2.87886" ry="2.87248" fill="#FDBD00"/>
    <path d="M17.3042 8.7959C20.0377 8.7959 22.3948 10.7122 22.947 13.3832C23.0246 13.7642 23.0637 14.152 23.0638 14.5409V8.7959L17.3042 8.7959Z" fill="#FDBD00"/>
    <path d="M22.3673 11.8034C22.1034 11.316 21.7693 10.8698 21.3756 10.4791C20.2965 9.39636 18.8277 8.79013 17.2974 8.79594V14.5409H23.0551C23.055 14.152 23.0159 13.7641 22.9383 13.383C22.8276 12.8311 22.6352 12.2988 22.3673 11.8034Z" fill="#E18800"/>
    <rect x="17.3042" y="14.2529" width="5.75772" height="5.74496" fill="#FDBD00"/>
    <path d="M5.75964 0V8.63409C8.14917 8.63409 10.0863 6.70129 10.0863 4.31705C10.0863 1.93281 8.14917 0 5.75964 0Z" fill="#FDBD00"/>
    <path fill-rule="evenodd" clip-rule="evenodd" d="M28.1001 8.64893H33.432C34.744 8.64893 35.7791 9.0048 36.4351 9.64182C36.9573 10.1434 37.2424 10.8343 37.2223 11.5493L37.2223 11.5813C37.2484 12.5985 36.6665 13.5376 35.7317 13.987C37.0619 14.4853 37.882 15.2362 37.882 16.7415V16.7736C37.882 18.827 36.1763 19.8519 33.5814 19.8519H28.1147L28.1001 8.64893ZM34.7153 11.9659C34.7153 11.2293 34.1212 10.8129 33.057 10.8129H30.5605V13.183H32.893C34.0083 13.183 34.7153 12.8272 34.7153 11.998L34.7153 11.9659ZM33.4835 15.2362H30.5679V17.7024H33.5709C34.6898 17.7024 35.3604 17.3181 35.3604 16.4853V16.4533C35.3677 15.6988 34.7809 15.2362 33.4835 15.2362L33.4835 15.2362Z" fill="black"/>
    <path d="M40.1021 8.31689H48.641V10.5621H42.5772V12.8874H47.9153V15.1326H42.5772V17.5416H48.7236V19.7868H40.1021V8.31689Z" fill="black"/>
    <path d="M50.6396 8.31689H53.0809L58.7236 15.3801V8.31689H61.3368V19.7868H59.0827L53.2528 12.509V19.7868H50.6397L50.6396 8.31689Z" fill="black"/>
    <path d="M63.4132 14.0821V14.0505C63.3824 12.513 64.0111 11.0304 65.153 9.94772C66.295 8.865 67.8505 8.27648 69.458 8.31905C71.642 8.31905 72.951 9.02229 74.0247 10.0279L72.4032 11.8177C71.5097 11.0441 70.5978 10.5659 69.4396 10.5659C67.4872 10.5659 66.0789 12.1201 66.0789 14.0188V14.0505C66.0789 15.9492 67.4541 17.5315 69.4396 17.5315C70.7633 17.5315 71.5759 17.0252 72.4877 16.234L74.1092 17.8023C72.9275 19.1247 71.1761 19.8545 69.3587 19.7819C67.7714 19.807 66.2416 19.2141 65.1204 18.1392C63.9993 17.0644 63.383 15.6 63.4132 14.0821H63.4132Z" fill="black"/>
    <path d="M76.1846 8.31689H78.7171V12.8546H83.3912V8.31689H85.9237V19.7868H83.3912V15.1836H78.7171V19.7868H76.1846V8.31689Z" fill="black"/>
    <path d="M88.4785 8.31689H91.2415L94.3079 13.1676L97.3705 8.31689H100.134V19.7868H97.5888V12.2979L94.3079 17.1959H94.2413L90.9937 12.3488V19.7868H88.4785L88.4785 8.31689Z" fill="black"/>
    <path fill-rule="evenodd" clip-rule="evenodd" d="M106.672 8.57178H108.987L113.91 19.8673H111.283L110.233 17.3512H105.375L104.325 19.8673H101.749L106.672 8.57178ZM109.329 15.173L107.802 11.5359L106.279 15.173H109.329Z" fill="black"/>
    <path fill-rule="evenodd" clip-rule="evenodd" d="M115.696 8.64893H120.948C122.405 8.64893 123.542 9.05106 124.297 9.78772C124.965 10.4775 125.32 11.4013 125.281 12.35L125.281 12.382C125.357 13.9511 124.348 15.3757 122.817 15.859L125.623 19.8661H122.671L120.211 16.2753H118.225V19.8661H115.696V8.64893ZM120.798 14.0974C122.03 14.0974 122.733 13.4568 122.733 12.5102V12.4782C122.733 11.4105 121.979 10.8767 120.75 10.8767H118.239V14.0796L120.798 14.0974Z" fill="black"/>
    <path d="M127.782 8.31689H130.253V13.3314L134.804 8.31689H137.789L133.214 13.1822L138 19.7868H135.029L131.544 14.9034L130.243 16.2789V19.7868H127.782L127.782 8.31689Z" fill="black"/>
    <path d="M11.4003 13.383C11.1734 12.2825 10.6274 11.2727 9.83018 10.4791C8.75112 9.39636 7.28227 8.79014 5.75195 8.79594V14.5409H11.5171C11.5179 14.152 11.4788 13.764 11.4003 13.383H11.4003Z" fill="#E18800"/>
</svg>
