<svg width="222" height="24" viewBox="0 0 222 24" fill="none" xmlns="http://www.w3.org/2000/svg">
<path d="M6.58691 16.9658V23.7441C8.33335 23.7441 10.0083 23.03 11.2432 21.7588C12.4781 20.4876 13.1719 18.7635 13.1719 16.9658H6.58691Z" fill="#FBBA00"/>
<path d="M8.92513e-08 16.9659H6.58495V10.1865C5.72011 10.1865 4.86375 10.3619 4.06475 10.7026C3.26576 11.0433 2.53979 11.5427 1.92831 12.1722C1.31682 12.8018 0.8318 13.5491 0.500938 14.3716C0.170077 15.1941 -0.000142295 16.0757 8.92513e-08 16.9659Z" fill="#FBBA00"/>
<path d="M13.1709 16.9635H19.7559V10.1841C18.891 10.1841 18.0346 10.3594 17.2357 10.7002C16.4367 11.0409 15.7107 11.5402 15.0992 12.1698C14.4877 12.7993 14.0027 13.5467 13.6718 14.3692C13.341 15.1917 13.1708 16.0732 13.1709 16.9635Z" fill="#FBBA00"/>
<path d="M23.0376 6.77827C24.856 6.77827 26.3301 5.2609 26.3301 3.38914C26.3301 1.51737 24.856 0 23.0376 0C21.2192 0 19.7451 1.51737 19.7451 3.38914C19.7451 5.2609 21.2192 6.77827 23.0376 6.77827Z" fill="#FBBA00"/>
<path d="M19.7451 10.187C20.6102 10.1857 21.4671 10.3601 22.2666 10.7003C23.0661 11.0405 23.7925 11.5397 24.4043 12.1694C25.016 12.7991 25.501 13.5468 25.8314 14.3698C26.1619 15.1928 26.3314 16.0748 26.3301 16.9653V10.187H19.7451Z" fill="#FBBA00"/>
<path d="M25.5354 13.7357C24.9703 12.6622 24.134 11.7657 23.1148 11.141C22.0956 10.5163 20.9313 10.1867 19.7451 10.187V16.9653H26.3301C26.3321 15.8369 26.0589 14.726 25.5354 13.7346V13.7357Z" fill="#E18800"/>
<path d="M26.3301 16.9658H19.7451V23.7441H26.3301V16.9658Z" fill="#FBBA00"/>
<path d="M6.58691 0.00111704V10.1864C7.89919 10.1864 9.15771 9.64977 10.0856 8.69462C11.0135 7.73946 11.5348 6.44398 11.5348 5.09319C11.5348 3.74239 11.0135 2.44692 10.0856 1.49176C9.15771 0.536602 7.89919 0 6.58691 0V0.00111704Z" fill="#FBBA00"/>
<path d="M13.0385 15.6005C12.7332 14.0714 11.9245 12.6977 10.749 11.7114C9.57357 10.7251 8.10342 10.1867 6.58691 10.187V16.9653H13.1719C13.1723 16.5069 13.1276 16.0496 13.0385 15.6005Z" fill="#E18800"/>
<path d="M45.3291 9.87354H55.3561V12.6346H48.2345V15.4957H54.5019V18.2567H48.2345V21.2191H55.4505V23.9801H45.3291V9.87354Z" fill="white"/>
<path d="M37.8361 18.1544H34.4558V21.2596H37.9305C39.2227 21.2596 40.0011 20.7754 40.0011 19.7277V19.6875C40.0011 18.741 39.3366 18.1567 37.8329 18.1567L37.8361 18.1544ZM39.2574 14.0464C39.2574 13.1206 38.5734 12.5962 37.3385 12.5962H34.4558V15.5783H37.1521C38.4433 15.5783 39.2607 15.1344 39.2607 14.0832V14.043L39.2574 14.0464ZM31.6035 9.87402H37.783C39.3008 9.87402 40.4933 10.3179 41.2587 11.123C41.558 11.4347 41.7934 11.8085 41.9503 12.2211C42.1072 12.6336 42.1821 13.0761 42.1705 13.5209V13.5657C42.1705 15.1574 41.3726 16.0441 40.4229 16.6076C41.9612 17.2321 42.9163 18.1786 42.9163 20.0727V20.113C42.9163 22.6914 40.9411 23.9806 37.9402 23.9806H31.6035V9.87402Z" fill="white"/>
<path d="M58.0576 9.87402H60.7538L66.9832 18.5598V9.87402H69.8691V23.9806H67.3822L60.9436 15.013V23.9806H58.0576V9.87402Z" fill="white"/>
<path d="M72.4639 16.9164V16.8775C72.4639 13.0002 75.3129 9.82471 79.3958 9.82471C81.9023 9.82471 83.407 10.6822 84.6375 11.9291L82.7771 14.1302C81.7526 13.1759 80.7076 12.5909 79.3784 12.5909C77.1375 12.5909 75.5233 14.5006 75.5233 16.8385V16.8775C75.5233 19.2132 77.0996 21.164 79.3784 21.164C80.8962 21.164 81.8275 20.5412 82.8725 19.5669L84.7286 21.4955C83.3604 22.9959 81.8415 23.9313 79.2776 23.9313C75.3704 23.9313 72.4639 20.8326 72.4639 16.9164Z" fill="white"/>
<path d="M87.0762 9.87402H90.0011V15.4559H95.3946V9.87402H98.3196V23.9806H95.3946V18.3182H90.0011V23.9806H87.0762V9.87402Z" fill="white"/>
<path d="M101.502 9.87402H104.655L108.149 15.839L111.643 9.87402H114.795V23.9806H111.89V14.7714L108.149 20.7962H108.073L104.369 14.8312V23.9806H101.502V9.87402Z" fill="white"/>
<path d="M125.25 9.87402H122.554L116.855 23.9806H119.838L121.051 20.8377H126.672L127.887 23.9783H130.945L125.25 9.87402ZM122.097 18.1162L123.863 13.5743L125.629 18.1162H122.097Z" fill="white"/>
<path d="M146.737 9.87402H149.662V16.0403L155.056 9.87402H158.588L153.175 15.8586L158.835 23.9806H155.321L151.201 17.9754L149.662 19.6677V23.9806H146.737V9.87402Z" fill="white"/>
<path d="M138.888 16.7282C140.313 16.7282 141.129 15.9227 141.129 14.7327V14.6925C141.129 13.3621 140.262 12.6762 138.832 12.6762H135.926V16.7282H138.888ZM133.001 9.87402H139.072C140.763 9.87402 142.073 10.3781 142.947 11.3056C143.687 12.0916 144.086 13.1999 144.086 14.5279V14.5682C144.086 16.8456 142.928 18.2772 141.237 18.9412L144.49 23.9806H141.071L138.222 19.4649H135.926V23.9806H132.999L133.001 9.87402Z" fill="white"/>
<path d="M166.463 23.6846V9.24846H172.341C173.881 9.24846 175.228 9.55781 176.383 10.1765C177.551 10.7814 178.459 11.627 179.105 12.7131C179.751 13.7993 180.074 15.0504 180.074 16.4665C180.074 17.8826 179.751 19.1338 179.105 20.2199C178.459 21.306 177.551 22.1585 176.383 22.7772C175.228 23.3821 173.881 23.6846 172.341 23.6846H166.463ZM167.989 22.3647H172.258C173.537 22.3647 174.644 22.1172 175.578 21.6223C176.527 21.1136 177.263 20.4193 177.785 19.5393C178.308 18.6457 178.569 17.6214 178.569 16.4665C178.569 15.2979 178.308 14.2736 177.785 13.3937C177.263 12.5138 176.527 11.8263 175.578 11.3314C174.644 10.8227 173.537 10.5683 172.258 10.5683H167.989V22.3647ZM180.99 23.6846L187.589 9.24846H189.095L195.694 23.6846H194.086L188.023 10.1353H188.641L182.578 23.6846H180.99ZM183.589 19.8281L184.042 18.5907H192.436L192.89 19.8281H183.589ZM200.162 23.6846V10.5683H195.089V9.24846H206.761V10.5683H201.688V23.6846H200.162ZM206.165 23.6846L212.764 9.24846H214.27L220.869 23.6846H219.26L213.197 10.1353H213.816L207.753 23.6846H206.165ZM208.763 19.8281L209.217 18.5907H217.61L218.064 19.8281H208.763Z" fill="white"/>
</svg>
