<svg viewBox="0 0 363 37" viewBox="0 0 363 37" fill="none" xmlns="http://www.w3.org/2000/svg">
  <path
    d="M9.88281 26.1751V36.6337C12.5026 36.6337 15.015 35.5318 16.8675 33.5705C18.7199 31.6091 19.7606 28.9489 19.7606 26.1751H9.88281Z"
    fill="#FBBA00" />
  <path
    d="M1.33882e-07 26.1768H9.87777V15.7165C8.58047 15.7165 7.29587 15.987 6.09734 16.5127C4.8988 17.0384 3.80982 17.809 2.89256 18.7803C1.9753 19.7517 1.24774 20.9048 0.751433 22.1739C0.255124 23.443 -0.000213449 24.8032 1.33882e-07 26.1768Z"
    fill="#FBBA00" />
  <path
    d="M19.7588 26.1768H29.6366V15.7165C28.3393 15.7165 27.0547 15.987 25.8561 16.5127C24.6576 17.0384 23.5686 17.809 22.6513 18.7803C21.7341 19.7517 21.0065 20.9048 20.5102 22.1739C20.0139 23.443 19.7586 24.8032 19.7588 26.1768Z"
    fill="#FBBA00" />
  <path
    d="M34.5639 10.4586C37.2916 10.4586 39.5028 8.11735 39.5028 5.22929C39.5028 2.34123 37.2916 0 34.5639 0C31.8362 0 29.625 2.34123 29.625 5.22929C29.625 8.11735 31.8362 10.4586 34.5639 10.4586Z"
    fill="#FBBA00" />
  <path
    d="M29.625 15.7165C30.9227 15.7144 32.208 15.9836 33.4073 16.5084C34.6066 17.0333 35.6963 17.8036 36.6139 18.7752C37.5316 19.7468 38.2591 20.9005 38.7548 22.1703C39.2505 23.4401 39.5047 24.801 39.5028 26.1751V15.7165H29.625Z"
    fill="#FBBA00" />
  <path
    d="M38.3107 21.192C37.4631 19.5355 36.2085 18.1523 34.6797 17.1884C33.1508 16.2246 31.4044 15.7161 29.625 15.7165V26.1751H39.5028C39.5058 24.434 39.096 22.72 38.3107 21.1903V21.192Z"
    fill="#E18800" />
  <path d="M39.5028 26.1751H29.625V36.6337H39.5028V26.1751Z" fill="#FBBA00" />
  <path
    d="M9.875 0.00172354V15.7171C11.8435 15.7171 13.7313 14.8892 15.1233 13.4154C16.5152 11.9417 17.2972 9.94279 17.2972 7.85857C17.2972 5.77435 16.5152 3.77549 15.1233 2.30172C13.7313 0.827954 11.8435 0 9.875 0V0.00172354Z"
    fill="#FBBA00" />
  <path
    d="M19.5606 24.0692C19.1025 21.71 17.8894 19.5904 16.1262 18.0686C14.363 16.5467 12.1576 15.7159 9.88281 15.7165V26.1751H19.7606C19.7612 25.4678 19.6942 24.7622 19.5606 24.0692Z"
    fill="#E18800" />
  <path
    d="M67.998 15.2331H83.0391V19.4933H72.3564V23.9079H81.7576V28.1681H72.3564V32.7389H83.1806V36.999H67.998V15.2331Z"
    fill="white" />
  <path
    d="M56.7614 28.0095H51.6908V32.8006H56.9029C58.8413 32.8006 60.009 32.0535 60.009 30.437V30.3748C60.009 28.9144 59.0121 28.013 56.7565 28.013L56.7614 28.0095ZM58.8934 21.671C58.8934 20.2425 57.8672 19.4333 56.0149 19.4333H51.6908V24.0346H55.7352C57.6721 24.0346 58.8983 23.3496 58.8983 21.7278V21.6657L58.8934 21.671ZM47.4121 15.2331H56.6817C58.9584 15.2331 60.7473 15.9181 61.8954 17.1602C62.3444 17.6411 62.6975 18.2179 62.9329 18.8545C63.1682 19.4911 63.2806 20.1739 63.2631 20.86V20.9292C63.2631 23.3851 62.0662 24.7533 60.6416 25.6228C62.9492 26.5863 64.3819 28.0467 64.3819 30.9693V31.0314C64.3819 35.0098 61.4189 36.999 56.9175 36.999H47.4121V15.2331Z"
    fill="white" />
  <path
    d="M87.0859 15.2331H91.1304L100.475 28.6349V15.2331H104.804V36.999H101.073L91.415 23.1624V36.999H87.0859V15.2331Z"
    fill="white" />
  <path
    d="M108.703 26.1036V26.0435C108.703 20.061 112.977 15.1614 119.101 15.1614C122.861 15.1614 125.118 16.4846 126.964 18.4084L124.174 21.8046C122.637 20.3322 121.069 19.4295 119.075 19.4295C115.714 19.4295 113.292 22.3761 113.292 25.9834V26.0435C113.292 29.6474 115.657 32.6575 119.075 32.6575C121.352 32.6575 122.749 31.6965 124.317 30.1931L127.101 33.1689C125.048 35.484 122.77 36.9273 118.924 36.9273C113.063 36.9273 108.703 32.1461 108.703 26.1036Z"
    fill="white" />
  <path d="M130.612 15.2331H135V23.8458H143.09V15.2331H147.478V36.999H143.09V28.2621H135V36.999H130.612V15.2331Z"
    fill="white" />
  <path
    d="M152.264 15.2331H156.993L162.234 24.4369L167.476 15.2331H172.205V36.999H167.846V22.7896L162.234 32.0856H162.12L156.565 22.8819V36.999H152.264V15.2331Z"
    fill="white" />
  <path
    d="M187.877 15.2341H183.833L175.285 37H179.759L181.579 32.1506H190.011L191.834 36.9965H196.42L187.877 15.2341ZM183.148 27.9514L185.797 20.9434L188.446 27.9514H183.148Z"
    fill="white" />
  <path
    d="M220.109 15.2331H224.497V24.7475L232.588 15.2331H237.886L229.766 24.467L238.257 36.999H232.986L226.805 27.7332L224.497 30.3443V36.999H220.109V15.2331Z"
    fill="white" />
  <path
    d="M208.337 25.8099C210.474 25.8099 211.698 24.5669 211.698 22.7309V22.6687C211.698 20.6161 210.397 19.5578 208.252 19.5578H203.894V25.8099H208.337ZM199.506 15.2341H208.613C211.15 15.2341 213.115 16.0118 214.425 17.443C215.536 18.6558 216.134 20.3657 216.134 22.4148V22.477C216.134 25.991 214.398 28.1999 211.861 29.2244L216.739 37H211.612L207.338 30.0324H203.894V37H199.503L199.506 15.2341Z"
    fill="white" />
  <path
    d="M246.747 36.2422C245.408 35.7347 244.374 35.0627 243.645 34.226L244.458 32.4824C245.168 33.2577 246.113 33.8844 247.294 34.3623C248.461 34.8393 249.698 35.0827 250.945 35.081C252.704 35.081 254.024 34.7269 254.905 34.0189C255.785 33.3108 256.225 32.3992 256.225 31.284C256.225 30.4273 255.986 29.7446 255.508 29.236C255.008 28.7102 254.409 28.3086 253.753 28.0588C252.804 27.7025 251.839 27.4012 250.86 27.156C249.66 26.8432 248.478 26.4501 247.321 25.9789C246.452 25.6093 245.676 25.0173 245.061 24.253C244.433 23.4777 244.12 22.428 244.121 21.1039C244.112 20.0578 244.385 19.0318 244.907 18.1531C245.43 17.268 246.235 16.56 247.321 16.0289C248.408 15.4979 249.756 15.2329 251.366 15.2341C252.482 15.233 253.593 15.4028 254.666 15.7386C255.661 16.034 256.605 16.504 257.461 17.1299L256.759 18.9337C255.946 18.3477 255.056 17.8995 254.119 17.6043C253.225 17.3153 252.298 17.1657 251.366 17.16C249.644 17.16 248.348 17.5217 247.476 18.2451C246.604 18.9685 246.171 19.9008 246.175 21.042C246.175 21.8987 246.414 22.5867 246.892 23.1059C247.398 23.6456 248.009 24.053 248.681 24.2973C249.401 24.5734 250.37 24.8743 251.587 25.2C252.773 25.5028 253.941 25.8859 255.084 26.3471C255.954 26.7092 256.731 27.2967 257.346 28.0588C257.962 28.8212 258.27 29.8555 258.271 31.1619C258.28 32.2096 258.001 33.2364 257.471 34.1109C256.938 34.9972 256.118 35.7005 255.014 36.2209C253.909 36.7414 252.554 37.001 250.948 36.9998C249.519 37.008 248.098 36.7518 246.747 36.2422Z"
    fill="white" />
  <path
    d="M266.095 35.5849C264.554 34.6813 263.271 33.3331 262.387 31.6879C261.513 29.987 261.054 28.0701 261.054 26.1206C261.054 24.1711 261.513 22.2542 262.387 20.5532C263.272 18.9085 264.555 17.5604 266.095 16.6563C267.723 15.7249 269.534 15.2369 271.373 15.2341C273.212 15.2313 275.024 15.7138 276.654 16.6403C278.189 17.5483 279.466 18.8959 280.347 20.5373C281.23 22.2399 281.694 24.1619 281.694 26.1171C281.694 28.0722 281.23 29.9943 280.347 31.6968C279.466 33.3382 278.189 34.6858 276.654 35.5938C275.024 36.5203 273.212 37.0028 271.373 37C269.534 36.9972 267.723 36.5092 266.095 35.5778V35.5849ZM275.602 33.8419C276.836 33.096 277.857 31.9924 278.551 30.6535C279.25 29.2608 279.617 27.6986 279.617 26.1109C279.617 24.5231 279.25 22.961 278.551 21.5682C277.857 20.2289 276.837 19.1253 275.602 18.3798C274.303 17.6274 272.854 17.2339 271.382 17.2339C269.91 17.2339 268.461 17.6274 267.162 18.3798C265.919 19.124 264.889 20.2273 264.184 21.5682C263.476 22.958 263.104 24.5213 263.104 26.1109C263.104 27.7004 263.476 29.2637 264.184 30.6535C264.889 31.9942 265.919 33.0974 267.162 33.8419C268.461 34.5944 269.91 34.9879 271.382 34.9879C272.854 34.9879 274.303 34.5944 275.602 33.8419Z"
    fill="white" />
  <path
    d="M288.325 34.5956C286.903 32.9927 286.191 30.6604 286.191 27.5986V15.2341H288.265V27.5022C288.265 30.0107 288.78 31.8807 289.81 33.1123C290.84 34.344 292.33 34.9616 294.282 34.9651C296.246 34.9651 297.744 34.3487 298.775 33.1159C299.806 31.8831 300.321 30.013 300.32 27.5058V15.2341H302.342V27.595C302.342 30.6556 301.637 32.988 300.228 34.5921C298.818 36.1962 296.836 36.9988 294.282 37C291.734 37 289.749 36.1985 288.325 34.5956Z"
    fill="white" />
  <path
    d="M322.025 37L317.535 30.0057C317.013 30.0685 316.488 30.0998 315.962 30.0994H310.682V37H308.604V15.2341H315.962C318.47 15.2341 320.436 15.8972 321.859 17.2235C323.283 18.5497 323.994 20.3734 323.994 22.6946C323.994 24.3965 323.606 25.832 322.828 27.001C322.051 28.17 320.942 29.015 319.501 29.5359L324.303 36.9964L322.025 37ZM320.368 26.7094C321.397 25.7564 321.912 24.4193 321.913 22.6982C321.913 20.9375 321.398 19.5855 320.368 18.6421C319.338 17.6987 317.851 17.2271 315.909 17.2271H310.685V28.1406H315.909C317.851 28.1406 319.338 27.6635 320.368 26.7094Z"
    fill="white" />
  <path
    d="M332.176 35.5782C330.643 34.6739 329.37 33.3265 328.496 31.6845C327.622 29.9801 327.164 28.0609 327.164 26.1094C327.164 24.1579 327.622 22.2387 328.496 20.5343C329.372 18.8897 330.651 17.5418 332.189 16.6406C333.81 15.6906 335.628 15.2069 337.469 15.2353C338.851 15.2201 340.224 15.4897 341.514 16.03C342.712 16.5326 343.788 17.3276 344.659 18.3538L343.338 19.7892C341.803 18.0995 339.865 17.2541 337.525 17.2529C336.043 17.2336 334.582 17.6337 333.285 18.414C332.04 19.1599 331.006 20.2614 330.294 21.5998C329.585 22.9826 329.213 24.5399 329.213 26.1236C329.213 27.7072 329.585 29.2645 330.294 30.6474C331.005 31.9864 332.04 33.0881 333.285 33.8331C334.582 34.6143 336.043 35.0144 337.525 34.9942C339.885 34.9942 341.823 34.1387 343.338 32.4279L344.659 33.8632C343.782 34.8936 342.702 35.6932 341.499 36.2012C339.993 36.8198 338.383 37.0841 336.776 36.9767C335.169 36.8693 333.601 36.3927 332.176 35.5782Z"
    fill="white" />
  <path d="M363 35.0188V37H349.098V15.2341H362.582V17.2243H351.179V24.9689H361.346V26.941H351.179V35.0278L363 35.0188Z"
    fill="white" />
</svg>