<svg width="530" height="80" viewBox="0 0 530 80" fill="none" xmlns="http://www.w3.org/2000/svg">
  <path d="M34.98 37.538ZM38.295 40.282Z" fill="#7A7B80" />
  <path d="M22.437 56.14v22.438c12.389-.004 22.43-10.049 22.43-22.438h-22.43Z" fill="#FDBD00" />
  <path d="M42.16 45.453Z" fill="#7A7B80" />
  <path
    d="M0 56.139h22.437v-22.43C10.048 33.709.004 43.75 0 56.139ZM44.866 56.139h22.438v-22.43c-12.39 0-22.434 10.041-22.438 22.43ZM74.463 22.43c6.194 0 11.215-5.021 11.215-11.215S80.657 0 74.463 0 63.248 5.021 63.248 11.215 68.27 22.43 74.463 22.43Z"
    fill="#FDBD00" />
  <path d="M63.247 33.709c10.649 0 19.832 7.482 21.983 17.91.302 1.488.454 3.002.454 4.52v-22.43H63.247Z"
    fill="#FDBD00" />
  <path
    d="M82.97 45.451a22.117 22.117 0 0 0-3.863-5.17 22.284 22.284 0 0 0-15.887-6.572v22.43h22.43c0-1.518-.153-3.033-.455-4.52a22.139 22.139 0 0 0-2.224-6.168Z"
    fill="#E18800" />
  <path
    d="M85.678 56.14h-22.43v22.43h22.43V56.14ZM22.437 0v33.71c9.309 0 16.855-7.546 16.855-16.855C39.292 7.546 31.746 0 22.437 0Z"
    fill="#FDBD00" />
  <path fill-rule="evenodd" clip-rule="evenodd"
    d="M108.088 33.343h20.51c5.046 0 9.028 1.372 11.551 3.828a9.823 9.823 0 0 1 3.028 7.354v.123c.1 3.921-2.137 7.542-5.734 9.274 5.118 1.921 8.272 4.816 8.272 10.62v.123c0 7.916-6.562 11.867-16.543 11.867h-21.028l-.056-43.189Zm25.444 12.787c0-2.84-2.285-4.445-6.378-4.445h-9.603v9.137h8.972c4.29 0 7.009-1.372 7.009-4.569v-.123Zm-4.738 12.608h-11.215v9.507h11.551c4.304 0 6.884-1.482 6.884-4.692v-.123c.028-2.909-2.229-4.692-7.22-4.692Z"
    fill="#000" fill-opacity=".87" />
  <path
    d="M152.059 32.965h33.264v8.766H161.7v9.078h20.796v8.766H161.7v9.406h23.945v8.766h-33.586V32.965ZM193.108 32.965h9.51l21.983 27.576V32.965h10.18v44.781h-8.782l-22.71-28.414v28.414h-10.181V32.965ZM242.87 55.474v-.124c-.119-6.003 2.329-11.791 6.777-16.018 4.45-4.227 10.51-6.525 16.771-6.359 8.509 0 13.609 2.746 17.79 6.672l-6.316 6.988c-3.48-3.02-7.034-4.888-11.545-4.888-7.606 0-13.092 6.068-13.092 13.482v.123c0 7.413 5.357 13.591 13.092 13.591 5.156 0 8.321-1.977 11.875-5.066l6.316 6.123c-4.603 5.163-11.427 8.013-18.506 7.73-6.183.097-12.143-2.218-16.512-6.414-4.367-4.196-6.768-9.914-6.65-15.84ZM292.623 32.965h9.866V50.68h18.209V32.965h9.865v44.781h-9.865V59.774h-18.209v17.972h-9.866V32.965ZM340.516 32.965h10.763l11.945 18.938 11.931-18.938h10.765v44.781h-9.915V48.508L363.224 67.63h-.259l-12.651-18.925v29.04h-9.798V32.965Z"
    fill="#000" fill-opacity=".87" />
  <path fill-rule="evenodd" clip-rule="evenodd"
    d="M410.323 33.044h8.902l18.939 43.546h-10.108l-4.037-9.7h-18.688l-4.037 9.7h-9.912l18.941-43.546Zm10.218 25.45-5.873-14.021-5.86 14.02h11.733ZM445.03 33.343h20.2c5.609 0 9.982 1.55 12.884 4.39 2.57 2.66 3.936 6.221 3.786 9.878v.124c.293 6.049-3.59 11.54-9.477 13.404l10.794 15.448h-11.355l-9.463-13.843h-7.64v13.843h-9.729V33.343Zm19.627 21.005c4.738 0 7.443-2.47 7.443-6.12v-.123c0-4.116-2.901-6.173-7.625-6.173h-9.659v12.347l9.841.069Z"
    fill="#000" fill-opacity=".87" />
  <path
    d="M490.195 32.965h9.628v19.577l17.727-19.578h11.631L511.354 51.96 530 77.746h-11.573L504.852 58.68l-5.071 5.37v13.697h-9.586V32.965Z"
    fill="#000" fill-opacity=".87" />
  <path
    d="M44.412 51.618a22.387 22.387 0 0 0-6.117-11.337 22.284 22.284 0 0 0-15.887-6.572v22.43h22.459a22.216 22.216 0 0 0-.455-4.52Z"
    fill="#E18800" />
</svg>