<svg width="274" height="40" viewBox="0 0 274 40" fill="none" xmlns="http://www.w3.org/2000/svg">
  <path d="M17.7148 19.0098C18.3177 19.418 18.8798 19.8834 19.3934 20.3994C18.8798 19.8834 18.3177 19.418 17.7148 19.0098Z" fill="#7A7B80"/>
  <path d="M19.3926 20.3984C20.1692 21.1709 20.8284 22.053 21.349 23.0168C20.8284 22.053 20.1693 21.1709 19.3926 20.3984Z" fill="#7A7B80"/>
  <path d="M11.3613 28.4277V39.7897C17.635 39.7877 22.7197 34.7014 22.7197 28.4277L11.3613 28.4277Z" fill="#FDBD00"/>
  <path d="M21.3496 23.0176C21.8831 23.9961 22.2676 25.0486 22.4906 26.1406C22.2676 25.0486 21.8831 23.9961 21.3496 23.0176Z" fill="#7A7B80"/>
  <path d="M0 28.4286H11.362V17.0703C5.08836 17.0703 0.00201575 22.155 0 28.4286Z" fill="#FDBD00"/>
  <path d="M22.7207 28.4286H34.0827V17.0703C27.8091 17.0703 22.7227 22.155 22.7207 28.4286Z" fill="#FDBD00"/>
  <circle cx="39.7612" cy="5.67916" r="5.67916" fill="#FDBD00"/>
  <path d="M34.082 17.0703C39.4745 17.0703 44.1244 20.859 45.2137 26.1398C45.3667 26.8932 45.4438 27.6599 45.444 28.4286V17.0703L34.082 17.0703Z" fill="#FDBD00"/>
  <path d="M44.07 23.0165C43.5494 22.0528 42.8902 21.1706 42.1135 20.3982C39.9849 18.2575 37.0873 17.0589 34.0684 17.0704V28.4287H45.4267C45.4265 27.6599 45.3493 26.893 45.1963 26.1395C44.978 25.0484 44.5984 23.9958 44.07 23.0165Z" fill="#E18800"/>
  <rect x="34.082" y="28.4277" width="11.3583" height="11.3583" fill="#FDBD00"/>
  <path d="M11.3613 0V17.0704C16.0752 17.0704 19.8965 13.2491 19.8965 8.53521C19.8965 3.82135 16.0752 0 11.3613 0Z" fill="#FDBD00"/>
  <path fill-rule="evenodd" clip-rule="evenodd" d="M53.9297 17.1055H64.5941C67.2183 17.1055 69.2885 17.8188 70.6006 19.0958C71.645 20.1012 72.2153 21.4863 72.1751 22.9195L72.1751 22.9836C72.2274 25.0226 71.0635 26.9052 69.1938 27.806C71.8544 28.8048 73.4945 30.31 73.4945 33.3275V33.3917C73.4945 37.5079 70.0831 39.5624 64.893 39.5624H53.9589L53.9297 17.1055ZM67.1603 23.7546C67.1603 22.2779 65.9721 21.4433 63.8436 21.4433H58.8503V26.1943H63.5156C65.7462 26.1943 67.1603 25.4809 67.1603 23.8188L67.1603 23.7546ZM64.6965 30.3092H58.865V35.2529H64.8714C67.1093 35.2529 68.4506 34.4824 68.4506 32.8131V32.7489C68.4652 31.2366 67.2916 30.3092 64.6965 30.3092L64.6965 30.3092Z" fill="currentColor" />
  <path d="M77.7969 16.6934H94.9537V21.194H82.77V25.8552H93.4957V30.3559H82.77V35.1848H95.1197V39.6855H77.7969V16.6934Z" fill="currentColor" />
  <path d="M98.8984 16.6934H103.786L115.084 30.8519V16.6934H120.316V39.6855H115.803L104.13 25.0966V39.6855H98.8985L98.8984 16.6934Z" fill="currentColor" />
  <path d="M124.41 28.2501V28.1866C124.349 25.1046 125.607 22.1328 127.894 19.9624C130.18 17.7921 133.295 16.6123 136.513 16.6977C140.886 16.6977 143.507 18.1074 145.656 20.1232L142.41 23.7109C140.621 22.1602 138.795 21.2016 136.476 21.2016C132.567 21.2016 129.748 24.317 129.748 28.1232V28.1866C129.748 31.9928 132.501 35.1646 136.476 35.1646C139.126 35.1646 140.753 34.1496 142.579 32.5637L145.826 35.7073C143.46 38.3581 139.953 39.8212 136.314 39.6756C133.136 39.7259 130.073 38.5373 127.829 36.3828C125.584 34.2282 124.35 31.2928 124.41 28.2501H124.41Z" fill="currentColor" />
  <path d="M149.922 16.6934H155V25.7895H164.372V16.6934H169.449V39.6855H164.372V30.458H155V39.6855H149.922V16.6934Z" fill="currentColor" />
  <path d="M174.488 16.6934H180.014L186.146 26.4169L192.27 16.6934H197.795V39.6855H192.706V24.6735L186.146 34.4918H186.012L179.518 24.7756V39.6855H174.488L174.488 16.6934Z" fill="currentColor" />
  <path fill-rule="evenodd" clip-rule="evenodd" d="M211.082 16.9492H215.711L225.559 39.5916H220.304L218.204 34.5481H208.487L206.388 39.5916H201.234L211.082 16.9492ZM216.396 30.1827L213.342 22.8921L210.295 30.1827H216.396Z" fill="currentColor" />
  <path fill-rule="evenodd" clip-rule="evenodd" d="M229.133 17.1055H239.637C242.553 17.1055 244.827 17.9116 246.336 19.3883C247.672 20.7709 248.382 22.6228 248.304 24.5245L248.304 24.5887C248.457 27.734 246.438 30.5896 243.376 31.5583L248.989 39.5909H243.085L238.164 32.393H234.192V39.5909H229.133V17.1055ZM239.338 28.0267C241.801 28.0267 243.208 26.7426 243.208 24.845V24.7808C243.208 22.6407 241.699 21.5707 239.243 21.5707H234.22V27.991L239.338 28.0267Z" fill="currentColor" />
  <path d="M252.914 16.6934H257.866V26.7451L266.984 16.6934H272.965L263.797 26.446L273.386 39.6855H267.434L260.453 29.8963L257.845 32.6536V39.6855H252.914L252.914 16.6934Z" fill="currentColor" />
  <path d="M22.4902 26.1395C22.0426 23.9636 20.9655 21.9671 19.3928 20.3982C17.2642 18.2575 14.3665 17.0589 11.3477 17.0704V28.4287H22.7206C22.7222 27.6598 22.6451 26.8927 22.4902 26.1395H22.4902Z" fill="#E18800"/>
</svg>
