<svg viewBox="0 0 377 38" viewBox="0 0 377 38" fill="none" xmlns="http://www.w3.org/2000/svg">
  <path
    d="M10.1006 26.019V36.4152C12.7779 36.4152 15.3455 35.3199 17.2386 33.3702C19.1318 31.4206 20.1953 28.7763 20.1953 26.019H10.1006Z"
    fill="#FBBA00" />
  <path
    d="M1.36822e-07 26.0203H10.0947V15.6224C8.76892 15.6224 7.45611 15.8913 6.23125 16.4139C5.0064 16.9365 3.89349 17.7024 2.95609 18.668C2.01868 19.6335 1.27515 20.7798 0.767937 22.0413C0.260727 23.3028 -0.000218137 24.6549 1.36822e-07 26.0203Z"
    fill="#FBBA00" />
  <path
    d="M20.1914 26.0203H30.2861V15.6223C28.9603 15.6223 27.6475 15.8913 26.4227 16.4139C25.1978 16.9364 24.0849 17.7024 23.1475 18.6679C22.2101 19.6335 21.4665 20.7798 20.9593 22.0413C20.4521 23.3028 20.1912 24.6549 20.1914 26.0203Z"
    fill="#FBBA00" />
  <path
    d="M35.3218 10.3962C38.1093 10.3962 40.3691 8.06894 40.3691 5.1981C40.3691 2.32727 38.1093 0 35.3218 0C32.5342 0 30.2744 2.32727 30.2744 5.1981C30.2744 8.06894 32.5342 10.3962 35.3218 10.3962Z"
    fill="#FBBA00" />
  <path
    d="M30.2744 15.6224C31.6006 15.6203 32.9142 15.8879 34.1398 16.4096C35.3655 16.9313 36.4791 17.697 37.4168 18.6628C38.3546 19.6286 39.0981 20.7755 39.6047 22.0377C40.1113 23.3 40.3711 24.6527 40.3691 26.0186V15.6224H30.2744Z"
    fill="#FBBA00" />
  <path
    d="M39.1509 21.0652C38.2847 19.4186 37.0026 18.0436 35.4401 17.0855C33.8776 16.1275 32.0929 15.6219 30.2744 15.6223V26.0186H40.3691C40.3723 24.2879 39.9534 22.5841 39.1509 21.0635V21.0652Z"
    fill="#E18800" />
  <path d="M40.3691 26.019H30.2744V36.4152H40.3691V26.019Z" fill="#FBBA00" />
  <path
    d="M10.0918 0.00171326V15.6234C12.1035 15.6234 14.0328 14.8004 15.4553 13.3354C16.8778 11.8704 17.677 9.88349 17.677 7.8117C17.677 5.73991 16.8778 3.75297 15.4553 2.28799C14.0328 0.823016 12.1035 0 10.0918 0V0.00171326Z"
    fill="#FBBA00" />
  <path
    d="M19.9909 23.9253C19.5228 21.5801 18.283 19.4732 16.4811 17.9604C14.6791 16.4476 12.4254 15.6218 10.1006 15.6223V26.0186H20.1953C20.1959 25.3155 20.1274 24.6141 19.9909 23.9253Z"
    fill="#E18800" />
  <path
    d="M69.4922 15.1423H84.8636V19.377H73.9462V23.7653H83.554V28.0001H73.9462V32.5436H85.0082V36.7784H69.4922V15.1423Z"
    fill="white" />
  <path
    d="M58.0077 27.8424H52.8257V32.605H58.1523C60.1334 32.605 61.3267 31.8623 61.3267 30.2554V30.1937C61.3267 28.742 60.3079 27.8459 58.0027 27.8459L58.0077 27.8424ZM60.1865 21.5417C60.1865 20.1218 59.1379 19.3174 57.2449 19.3174H52.8257V23.8913H56.959C58.9384 23.8913 60.1915 23.2104 60.1915 21.5982V21.5364L60.1865 21.5417ZM48.4531 15.1423H57.9263C60.253 15.1423 62.0812 15.8231 63.2545 17.0579C63.7133 17.5359 64.0743 18.1092 64.3148 18.742C64.5553 19.3749 64.6701 20.0535 64.6522 20.7356V20.8044C64.6522 23.2457 63.429 24.6056 61.9732 25.4699C64.3315 26.4278 65.7957 27.8794 65.7957 30.7846V30.8463C65.7957 34.801 62.7676 36.7784 58.1673 36.7784H48.4531V15.1423Z"
    fill="white" />
  <path
    d="M88.9971 15.1423H93.1304L102.68 28.4641V15.1423H107.104V36.7784H103.292L93.4212 23.0242V36.7784H88.9971V15.1423Z"
    fill="white" />
  <path
    d="M111.091 25.9479V25.8882C111.091 19.9414 115.458 15.071 121.717 15.071C125.56 15.071 127.867 16.3863 129.753 18.2986L126.901 21.6746C125.33 20.2109 123.728 19.3136 121.691 19.3136C118.256 19.3136 115.781 22.2427 115.781 25.8285V25.8882C115.781 29.4706 118.197 32.4628 121.691 32.4628C124.018 32.4628 125.445 31.5075 127.047 30.0131L129.893 32.9711C127.795 35.2724 125.467 36.7071 121.536 36.7071C115.547 36.7071 111.091 31.9544 111.091 25.9479Z"
    fill="white" />
  <path
    d="M133.483 15.1423H137.967V23.7035H146.236V15.1423H150.72V36.7784H146.236V28.0936H137.967V36.7784H133.483V15.1423Z"
    fill="white" />
  <path
    d="M155.607 15.1423H160.44L165.797 24.2911L171.153 15.1423H175.986V36.7784H171.532V22.6537L165.797 31.8943H165.681L160.003 22.7454V36.7784H155.607V15.1423Z"
    fill="white" />
  <path
    d="M192.003 15.1433H187.87L179.135 36.7794H183.707L185.567 31.9589H194.184L196.047 36.7759H200.734L192.003 15.1433ZM187.17 27.7848L189.878 20.8185L192.585 27.7848H187.17Z"
    fill="white" />
  <path
    d="M224.943 15.1423H229.427V24.5999L237.696 15.1423H243.11L234.812 24.3211L243.489 36.7784H238.103L231.786 27.5678L229.427 30.1633V36.7784H224.943V15.1423Z"
    fill="white" />
  <path
    d="M212.913 25.656C215.096 25.656 216.348 24.4204 216.348 22.5954V22.5336C216.348 20.4932 215.018 19.4412 212.826 19.4412H208.372V25.656H212.913ZM203.888 15.1433H213.195C215.788 15.1433 217.795 15.9164 219.135 17.339C220.27 18.5445 220.882 20.2443 220.882 22.2812V22.343C220.882 25.836 219.107 28.0317 216.514 29.0502L221.5 36.7794H216.26L211.892 29.8533H208.372V36.7794H203.885L203.888 15.1433Z"
    fill="white" />
  <path
    d="M256.399 35.0108V26.9272H267.654V24.9684H256.399V17.2268H269.022V15.237H254.099V37.0006H269.489V35.0108H256.399ZM290.356 15.237L281.962 34.1402L273.629 15.237H271.142L280.78 37.0006H283.05L292.688 15.237H290.356ZM298.147 35.0108V26.9272H309.402V24.9684H298.147V17.2268H310.77V15.237H295.847V37.0006H311.237V35.0108H298.147ZM332.563 15.237V32.8966L318.541 15.237H316.645V37.0006H318.946V19.341L332.936 37.0006H334.833V15.237H332.563ZM346.165 37.0006H348.466V17.2268H356.114V15.237H338.517V17.2268H346.165V37.0006ZM365.456 37.1872C371.021 37.1872 373.571 34.4512 373.571 31.2488C373.571 23.3206 360.171 26.9272 360.171 20.9577C360.171 18.7813 361.943 17.0092 365.922 17.0092C367.85 17.0092 370.026 17.5999 371.892 18.8124L372.669 16.9781C370.928 15.7655 368.379 15.0504 365.922 15.0504C360.388 15.0504 357.901 17.8175 357.901 21.0199C357.901 29.0724 371.301 25.4037 371.301 31.3732C371.301 33.5184 369.529 35.2284 365.456 35.2284C362.596 35.2284 359.829 34.1092 358.274 32.5857L357.372 34.3579C358.989 36.0368 362.192 37.1872 365.456 37.1872Z"
    fill="white" />
</svg>