<svg width="46" height="47" viewBox="0 0 46 47" fill="none" xmlns="http://www.w3.org/2000/svg">
    <g clip-path="url(#w45274haya)">
        <g clip-path="url(#w1k6tvmcub)">
            <g clip-path="url(#a4nnownncc)" fill="#FDC723" opacity=".4">
                <circle cx="2.163" cy="30.904" r=".904"/>
                <circle cx="7.402" cy="30.904" r=".904"/>
                <circle cx="12.542" cy="30.904" r=".904"/>
                <circle cx="17.685" cy="30.904" r=".904"/>
                <circle cx="22.825" cy="30.904" r=".904"/>
                <circle cx="27.964" cy="30.904" r=".904"/>
                <circle cx="33.108" cy="30.904" r=".904"/>
                <circle cx="38.343" cy="30.904" r=".904"/>
                <circle cx="43.387" cy="30.904" r=".904"/>
                <circle cx="2.163" cy="24.904" r=".904"/>
                <circle cx="7.402" cy="24.904" r=".904"/>
                <circle cx="12.542" cy="24.904" r=".904"/>
                <circle cx="17.685" cy="24.904" r=".904"/>
                <circle cx="22.825" cy="24.904" r=".904"/>
                <circle cx="27.964" cy="24.904" r=".904"/>
                <circle cx="33.108" cy="24.904" r=".904"/>
                <circle cx="38.343" cy="24.904" r=".904"/>
                <circle cx="43.387" cy="24.904" r=".904"/>
                <circle cx="2.163" cy="18.904" r=".904"/>
                <circle cx="7.402" cy="18.904" r=".904"/>
                <circle cx="12.542" cy="18.904" r=".904"/>
                <circle cx="17.685" cy="18.904" r=".904"/>
                <circle cx="22.825" cy="18.904" r=".904"/>
                <circle cx="27.964" cy="18.904" r=".904"/>
                <circle cx="33.108" cy="18.904" r=".904"/>
                <circle cx="38.343" cy="18.904" r=".904"/>
                <circle cx="43.387" cy="18.904" r=".904"/>
                <circle cx="2.163" cy="12.904" r=".904"/>
                <circle cx="7.402" cy="12.904" r=".904"/>
                <circle cx="12.542" cy="12.904" r=".904"/>
                <circle cx="17.685" cy="12.904" r=".904"/>
                <circle cx="22.825" cy="12.904" r=".904"/>
                <circle cx="27.964" cy="12.904" r=".904"/>
                <circle cx="33.108" cy="12.904" r=".904"/>
                <circle cx="38.343" cy="12.904" r=".904"/>
                <circle cx="43.387" cy="12.904" r=".904"/>
                <circle cx="2.163" cy="6.904" r=".904"/>
                <circle cx="7.402" cy="6.904" r=".904"/>
                <circle cx="12.542" cy="6.904" r=".904"/>
                <circle cx="17.685" cy="6.904" r=".904"/>
                <circle cx="22.825" cy="6.904" r=".904"/>
                <circle cx="27.964" cy="6.904" r=".904"/>
                <circle cx="33.104" cy="6.904" r=".904"/>
                <circle cx="38.343" cy="6.904" r=".904"/>
                <circle cx="43.387" cy="6.904" r=".904"/>
                <g clip-path="url(#4th83ecp5d)">
                    <circle cx="2.163" cy=".904" r=".904"/>
                    <circle cx="7.402" cy=".904" r=".904"/>
                    <circle cx="12.542" cy=".904" r=".904"/>
                    <circle cx="17.685" cy=".904" r=".904"/>
                    <circle cx="22.825" cy=".904" r=".904"/>
                    <circle cx="27.964" cy=".904" r=".904"/>
                    <circle cx="33.104" cy=".904" r=".904"/>
                    <circle cx="38.343" cy=".904" r=".904"/>
                    <circle cx="43.387" cy=".904" r=".904"/>
                </g>
            </g>
        </g>
        <g clip-path="url(#7cxwpykaqe)">
            <path fill="#FDBD00" d="M0 13.206h33.609v33.609H0z"/>
            <g filter="url(#20ocnh81xf)">
                <path fill="#fff" d="M3.75 7.687h33.423v35.306H3.75z"/>
                <path stroke="#fff" stroke-width=".138" d="M3.75 7.687h33.423v35.306H3.75z"/>
                <path stroke="#A7ACB6" stroke-width=".138" d="M3.75 7.687h33.423v35.306H3.75z"/>
            </g>
            <path d="M22 32h4.294c1.865 0 2.798 0 3.328-.39a2 2 0 0 0 .804-1.436c.058-.655-.429-1.451-1.401-3.043l-.997-1.631M15.13 23.605l-2.155 3.526c-.972 1.592-1.459 2.388-1.401 3.043a2 2 0 0 0 .805 1.435c.529.391 1.462.391 3.327.391H17.5m8.389-10-2.159-3.532c-.902-1.477-1.354-2.216-1.935-2.468a2 2 0 0 0-1.59 0c-.581.252-1.033.99-1.935 2.468l-1.02 1.669M27 18l-1.098 4.098L21.804 21M11 24.598l4.098-1.098 1.098 4.098M24.5 35l-3-3 3-3" stroke="#23252C" stroke-width="1.5" stroke-linecap="round" stroke-linejoin="round"/>
            <path d="M28.33 10.72v7.074c0 .943.546 1.488 1.493 1.489h11.958c.961 0 1.5-.543 1.5-1.51 0-3.257-.014-6.514.011-9.77a2.88 2.88 0 0 0-.546-1.743 13.55 13.55 0 0 0-2.191-2.435c-.54-.473-1.125-.897-1.709-1.316-.33-.238-.72-.316-1.136-.315-2.625.01-5.25.004-7.874.005-.972 0-1.506.531-1.506 1.498v7.022z" stroke="#23252C" stroke-width=".138" stroke-linecap="round" stroke-linejoin="round"/>
            <path d="M28.33 10.72V3.696c0-.967.534-1.498 1.506-1.498 2.624 0 5.249.005 7.873-.005.418-.001.806.077 1.137.315.584.42 1.168.843 1.709 1.316a13.55 13.55 0 0 1 2.19 2.435 2.88 2.88 0 0 1 .547 1.742c-.025 3.257-.01 6.514-.011 9.771 0 .967-.539 1.51-1.5 1.51H29.823c-.947 0-1.492-.546-1.493-1.489V10.72z" fill="#23252C"/>
            <path d="M37.968 3.381c-.1-.006-.17-.015-.239-.015h-7.9c-.333 0-.4.076-.4.443v14.043c0 .385.067.454.446.454h11.904c.398 0 .46-.063.46-.467V7.637H38.729c-.606 0-.761-.154-.761-.755v-3.5z" fill="#fff"/>
            <path d="M39.016 6.458h2.547a16.478 16.478 0 0 0-2.547-2.55v2.55z" fill="#fff"/>
            <path fill-rule="evenodd" clip-rule="evenodd" d="M40.467 11.584c-.758-.155-1.518-.063-2.277.004a.63.63 0 0 1-.357-.075c-.952-.56-1.503-1.442-1.905-2.435a.48.48 0 0 1-.003-.233c.095-.674.318-.853.358-1.648.04-.3-.137-1.007-.257-1.284-.145-.333-.477-.305-.777-.262-.277.039-.449.202-.478.494-.033.333-.067.677-.02 1.004.091.634.245 1.259.358 1.89.024.132.026.295-.03.41-.507 1.047-1.035 2.082-1.545 3.127-.137.28-.334.466-.615.603-.595.288-1.156.64-1.593 1.143a2.426 2.426 0 0 0-.412.718c-.042.107.023.318.114.402a.862.862 0 0 0 1.112.082c.25-.168.495-.369.676-.606.383-.503.733-1.032 1.074-1.565.108-.168.224-.277.417-.322 1.077-.25 2.151-.509 3.23-.754.097-.022.22.012.318.052.43.172.85.377 1.287.53.462.163.941.273 1.44.222.296-.03.465-.181.54-.468.149-.575-.056-.906-.655-1.029zm-8.889 3.586c.036-.339.663-1.082 1.28-1.514-.35.559-.71 1.109-1.28 1.514zm3.908-9.263c.527.53.412 1.398.126 2.038-.335-.634-.43-1.408-.126-2.038zm-1.099 6.57 1.136-2.314 1.368 1.626-2.504.688zm6.22.054c-.222-.007-.45-.012-.663-.067-.29-.074-.57-.194-.855-.294l.008-.069c.486-.044.97-.059 1.445.087.038.011.076.032.11.047.089.04.154.13.154.195-.02.065-.134.103-.199.101z" fill="#FDBD00"/>
            <path d="M28.7 38.606v7.075c0 .944.546 1.489 1.494 1.489H42.15c.961 0 1.5-.543 1.5-1.51 0-3.256-.014-6.513.011-9.77a2.878 2.878 0 0 0-.546-1.743 13.592 13.592 0 0 0-2.191-2.435c-.54-.473-1.125-.897-1.71-1.316-.33-.238-.718-.317-1.135-.315-2.625.01-5.25.005-7.874.005-.972 0-1.506.531-1.506 1.498v7.022z" stroke="#23252C" stroke-width=".138" stroke-linecap="round" stroke-linejoin="round"/>
            <path d="M28.7 38.606v-7.022c0-.967.534-1.498 1.506-1.498 2.624 0 5.249.005 7.874-.005.417-.002.806.077 1.136.315.584.42 1.169.843 1.709 1.316.825.722 1.56 1.534 2.19 2.435.368.524.552 1.08.547 1.742-.025 3.258-.01 6.515-.011 9.772 0 .966-.539 1.509-1.5 1.509H30.193c-.947 0-1.493-.545-1.493-1.489v-7.075z" fill="#23252C"/>
            <path d="M38.334 31.268c-.1-.006-.17-.015-.239-.015h-7.9c-.333 0-.4.076-.4.443V45.74c0 .384.067.454.446.454h11.903c.399 0 .46-.063.46-.467V35.524H39.096c-.606 0-.76-.154-.76-.755l-.001-3.5z" fill="#fff"/>
            <path d="M39.39 34.344h2.547a16.51 16.51 0 0 0-2.547-2.55v2.55z" fill="#fff"/>
            <path d="M40.663 43.034h-9.528v-8.69h.793v7.898h8.735v.792z" fill="#FDBD00"/>
            <path d="m35.887 41.736-1.838-1.857-1.026 1.425-.643-.463 1.574-2.186 1.734 1.753 2.263-4.325 1.167 1.756 1.235-.051.032.792-1.68.069-.673-1.013-2.145 4.1z" fill="#FDBD00"/>
        </g>
    </g>
    <defs>
        <clipPath id="w45274haya">
            <path fill="#fff" d="M0 0h45.79v47H0z"/>
        </clipPath>
        <clipPath id="w1k6tvmcub">
            <path fill="#fff" transform="translate(.88)" d="M0 0h44.235v32H0z"/>
        </clipPath>
        <clipPath id="a4nnownncc">
            <path fill="#fff" transform="translate(.88)" d="M0 0h44.235v32H0z"/>
        </clipPath>
        <clipPath id="4th83ecp5d">
            <path fill="#fff" transform="translate(.88)" d="M0 0h44.235v1.882H0z"/>
        </clipPath>
        <clipPath id="7cxwpykaqe">
            <path fill="#fff" transform="translate(0 2)" d="M0 0h43.842v45H0z"/>
        </clipPath>
        <filter id="20ocnh81xf" x="2.899" y="7.618" width="34.343" height="36.226" filterUnits="userSpaceOnUse" color-interpolation-filters="sRGB">
            <feFlood flood-opacity="0" result="BackgroundImageFix"/>
            <feColorMatrix in="SourceAlpha" values="0 0 0 0 0 0 0 0 0 0 0 0 0 0 0 0 0 0 127 0" result="hardAlpha"/>
            <feOffset dx="-.782" dy=".782"/>
            <feColorMatrix values="0 0 0 0 0.133333 0 0 0 0 0.133333 0 0 0 0 0.133333 0 0 0 1 0"/>
            <feBlend in2="BackgroundImageFix" result="effect1_dropShadow_702_80684"/>
            <feBlend in="SourceGraphic" in2="effect1_dropShadow_702_80684" result="shape"/>
        </filter>
    </defs>
</svg>
