<svg width="24" height="26" viewBox="0 0 24 26" fill="none" xmlns="http://www.w3.org/2000/svg">
  <path fill-rule="evenodd" clip-rule="evenodd"
    d="M0 23.7V5.485c0-.491.184-.921.532-1.29.348-.368.778-.532 1.27-.532h1.8v-1.37c0-.635.225-1.167.655-1.618C4.707.225 5.219 0 5.853 0h.9C7.369 0 7.9.225 8.35.675c.45.45.655.983.655 1.617v1.371h5.403v-1.37c0-.635.226-1.167.655-1.618.45-.45.962-.675 1.597-.675h.9c.614 0 1.146.225 1.597.675.45.45.654.983.654 1.617v1.371h1.802c.49 0 .9.185 1.268.533.348.368.533.777.533 1.289V23.68c0 .49-.185.92-.533 1.289-.348.368-.777.532-1.268.532H1.8c-.491 0-.9-.184-1.269-.532C.184 24.601 0 24.191 0 23.7Zm1.801 0h19.812V9.128H1.8V23.7ZM5.403 6.406c0 .123.041.246.123.327a.432.432 0 0 0 .327.123h.9c.124 0 .247-.04.328-.123a.432.432 0 0 0 .123-.327V2.313a.465.465 0 0 0-.123-.328.432.432 0 0 0-.327-.123h-.9a.465.465 0 0 0-.328.123.465.465 0 0 0-.123.328v4.093Zm10.806 0c0 .123.041.246.123.327a.432.432 0 0 0 .328.123h.9c.123 0 .246-.04.328-.123a.432.432 0 0 0 .122-.327V2.313a.465.465 0 0 0-.122-.328.432.432 0 0 0-.328-.123h-.9a.465.465 0 0 0-.328.123.465.465 0 0 0-.123.328v4.093Z"
    fill="#000" fill-opacity=".87" />
</svg>