<svg width="40" height="40" viewBox="0 0 40 40" fill="none" xmlns="http://www.w3.org/2000/svg">
    <path clip-rule="evenodd" d="M3.333 5.333a2 2 0 0 1 2-2h29.334a2 2 0 0 1 2 2v29.334a2 2 0 0 1-2 2H5.333a2 2 0 0 1-2-2V5.333z" stroke="#000" stroke-opacity=".87" stroke-width="2"/>
    <path d="M13.104 24.568a1.38 1.38 0 0 1-.031-.105l-.012-.047-.02-.092-.012-.08-.009-.07a1.766 1.766 0 0 1 1.755-1.925 1.766 1.766 0 0 1 1.754 1.924c-.002.024-.006.047-.009.07-.003.028-.007.054-.012.08a1.705 1.705 0 0 1-.031.14l-.031.105v.002a1.764 1.764 0 0 1-1.67 1.203 1.765 1.765 0 0 1-1.671-1.203l-.001-.002zM29.197 22.248c.974.002 1.76.79 1.763 1.763 0 .217-.042.425-.115.618a1.763 1.763 0 0 1-1.649 1.144 1.763 1.763 0 0 1 0-3.525z" fill="#000" fill-opacity=".87"/>
    <path d="M12.312 20.106c1.307-1.044 1.944-1.87 2.223-2.3-.338 0-.497-.12-.523-.157-.104-.146 4.681-.985 8.627-.468.686.09 2.19.597 4.39 1.934 1.218.74 3.257.27 4.644 1.331 1.263.966 1.67 1.606 1.633 2.077-.046.597-.3.753-.027 1.026.384.385-1.38 1.033-1.96 1.033h-.136a2.069 2.069 0 1 0-4.054-.571c0 .2.03.39.082.571h-1.007c-.354 0-4.082-.054-4.082-.054h-5.347a2.068 2.068 0 1 0-4 0h-.231s-.545-.49-.79-.49c-.463 0-.993-2.694.558-3.932zm10.265-.263s4.513.243 4.513.09c0-.59-3.58-2.256-4.68-2.398a16.665 16.665 0 0 0-1.152-.102l.568 2.357c.429.035.751.053.751.053zm-6.526-1.962c.087.325.231.685.443.994.393.574 3.25.672 4.096.789l.059.007-.166-2.27c-2.15-.054-4.523.136-4.431.48z" fill="#000" fill-opacity=".87"/>
    <path d="M7.02 16.13v-1.496a.19.19 0 0 1 .19-.19h.153a.19.19 0 0 1 .19.19v1.497h1.065v-1.497a.19.19 0 0 1 .19-.19h.153a.19.19 0 0 1 .19.19v1.497h.353v1.329c0 .634-.403 1.073-.862 1.343v1.216c-.001.63.214 1.19.539 1.579.327.39.743.602 1.19.603h.731c-.034.388-.009.76.05 1.064h-.783c-.801 0-1.515-.395-2.006-.986-.495-.594-.786-1.391-.786-2.26v-1.2c-.474-.267-.91-.712-.91-1.36v-1.328h.353z" fill="#000" fill-opacity=".87"/>
</svg>
