<svg width="31" height="54" viewBox="0 0 31 54" fill="none" xmlns="http://www.w3.org/2000/svg">
    <g clip-path="url(#clip0_481_13269)">
    <path d="M26.2894 2.45969C23.4053 0.875227 19.5895 0 15.5444 0C11.4993 0 7.68344 0.875227 4.79938 2.45969C1.73783 4.14224 0 6.36803 0 8.86545L0 17.5272C0 20.0246 1.70086 22.3258 4.7698 24.0084C7.65386 25.5928 11.4771 26.4681 15.5222 26.4681C19.5673 26.4681 23.3757 25.5928 26.2598 24.0084C29.3213 22.3258 31.0074 20.0246 31.0074 17.5272L31.0074 8.9409C31.0074 6.44348 29.3583 4.14224 26.2894 2.45969ZM29.2844 17.5347C29.2844 19.3154 27.9015 21.0356 25.4537 22.3862C22.8285 23.8273 19.3011 24.6195 15.5518 24.6195C11.8025 24.6195 8.21589 23.8273 5.59804 22.3862C3.15029 21.0432 1.73044 19.3229 1.73044 17.5347L1.73044 13.1888C2.76574 14.0112 3.54222 14.7657 4.74022 15.4221C7.62428 17.0066 11.4771 17.8818 15.5148 17.8818C19.5525 17.8818 23.4275 17.0066 26.3115 15.4221C27.4948 14.7732 28.5966 14.0263 29.2844 13.2189L29.2844 17.5347ZM29.2844 9.27288C28.9368 10.9403 27.761 12.5323 25.4685 13.7924C22.8433 15.2335 19.3158 16.0257 15.5666 16.0257C11.8173 16.0257 8.29723 15.2335 5.67199 13.7924C3.22424 12.4494 1.87094 10.7291 1.87094 8.9409C1.87094 7.15272 3.21684 5.43999 5.6646 4.08942C8.28984 2.64832 11.7951 1.85609 15.5444 1.85609C19.2937 1.85609 22.7989 2.68604 25.4241 4.12715C27.8719 5.47017 29.277 7.2508 29.277 9.0088V9.27288H29.2844Z" fill="black"/>
    <path d="M23.4792 7.95236L16.2986 7.95236C16.2986 7.25067 16.2986 6.39053 16.2986 5.61339C16.2986 5.00979 16.2986 4.39864 16.2986 3.79503C16.2986 3.3876 15.9584 3.04053 15.5591 3.04053C15.1597 3.04053 14.8196 3.38006 14.8196 3.79503C14.8196 4.76835 14.8196 5.7492 14.8196 6.71497C14.8196 7.1224 14.8196 7.59774 14.8196 7.95236L7.6242 7.95236C7.22487 7.95236 6.89209 8.24662 6.89209 8.65405C6.89209 9.06149 7.22487 9.35574 7.6242 9.35574L14.8196 9.35574C14.8196 10.0574 14.8196 10.9251 14.8196 11.7023C14.8196 12.3059 14.8196 12.9246 14.8196 13.5282C14.8196 13.9431 15.1597 14.2902 15.5591 14.2902C15.9584 14.2902 16.2986 13.9507 16.2986 13.5357C16.2986 12.5624 16.2986 11.5664 16.2986 10.5931C16.2986 10.1857 16.2986 9.70282 16.2986 9.35574L23.4866 9.35574C23.8859 9.35574 24.2187 9.06149 24.2187 8.65405C24.2187 8.24662 23.8859 7.95236 23.4866 7.95236H23.4792Z" fill="black"/>
    <path d="M26.2894 29.9841C23.4053 28.3996 19.5895 27.5244 15.5444 27.5244C11.4993 27.5244 7.68344 28.3996 4.79938 29.9841C1.73783 31.6667 0 33.9 0 36.3974L0 45.0591C0 47.5566 1.70086 49.8578 4.7698 51.5403C7.65386 53.1248 11.4771 54 15.5222 54C19.5673 54 23.3757 53.1248 26.2598 51.5403C29.3213 49.8578 31.0074 47.5566 31.0074 45.0591L31.0074 36.4653C31.0074 33.9679 29.3583 31.6667 26.2894 29.9841ZM29.2844 45.0591C29.2844 46.8398 27.9015 48.56 25.4537 49.9106C22.8285 51.3517 19.3011 52.1439 15.5518 52.1439C11.8025 52.1439 8.21589 51.3517 5.59804 49.9106C3.15029 48.5676 1.73044 46.8473 1.73044 45.0591L1.73044 40.7132C2.76574 41.5356 3.54222 42.2901 4.74022 42.9465C7.62428 44.531 11.4771 45.4062 15.5148 45.4062C19.5525 45.4062 23.4275 44.531 26.3115 42.9465C27.4948 42.2976 28.5966 41.5507 29.2844 40.7434L29.2844 45.0591ZM29.2844 36.7973C28.9368 38.4648 27.761 40.0568 25.4685 41.3168C22.8433 42.7579 19.3158 43.5501 15.5666 43.5501C11.8173 43.5501 8.29723 42.7579 5.67199 41.3168C3.22424 39.9738 1.87094 38.2535 1.87094 36.4653C1.87094 34.6771 3.21684 32.9644 5.6646 31.6138C8.28984 30.1727 11.7951 29.3805 15.5444 29.3805C19.2937 29.3805 22.7989 30.2105 25.4241 31.6516C27.8719 32.9946 29.277 34.7752 29.277 36.5332V36.7973H29.2844Z" fill="black"/>
    <path d="M23.4792 35.4771L7.6242 35.4771C7.22487 35.4771 6.89209 35.7713 6.89209 36.1787C6.89209 36.5862 7.22487 36.8804 7.6242 36.8804L23.4792 36.8804C23.8785 36.8804 24.2113 36.5862 24.2113 36.1787C24.2113 35.7713 23.8785 35.4771 23.4792 35.4771Z" fill="black"/>
    </g>
    <defs>
    <clipPath id="clip0_481_13269">
    <rect width="31" height="54" fill="white"/>
    </clipPath>
    </defs>
    </svg>
    