<svg width="60" height="48" viewBox="0 0 60 48" fill="none" xmlns="http://www.w3.org/2000/svg">
  <path
    d="M5.016 47.144c-.856 0-1.632-.184-2.328-.552a4.277 4.277 0 0 1-1.632-1.548C.664 44.38.468 43.632.468 42.8c0-.832.196-1.576.588-2.232.4-.664.944-1.18 1.632-1.548.696-.376 1.476-.564 2.34-.564.728 0 1.384.128 1.968.384a3.943 3.943 0 0 1 1.488 1.104l-1.248 1.152c-.568-.656-1.272-.984-2.112-.984-.52 0-.984.116-1.392.348-.408.224-.728.54-.96.948a2.844 2.844 0 0 0-.336 1.392c0 .52.112.984.336 1.392.232.408.552.728.96.96.408.224.872.336 1.392.336.84 0 1.544-.332 2.112-.996l1.248 1.152c-.4.488-.896.86-1.488 1.116-.592.256-1.252.384-1.98.384Zm7.206-6.696c1 0 1.768.24 2.304.72.536.472.804 1.188.804 2.148V47h-1.752v-.804c-.352.6-1.008.9-1.968.9-.496 0-.928-.084-1.296-.252a1.93 1.93 0 0 1-.828-.696 1.811 1.811 0 0 1-.288-1.008c0-.6.224-1.072.672-1.416.456-.344 1.156-.516 2.1-.516h1.488c0-.408-.124-.72-.372-.936-.248-.224-.62-.336-1.116-.336-.344 0-.684.056-1.02.168a2.603 2.603 0 0 0-.84.432l-.672-1.308c.352-.248.772-.44 1.26-.576a5.737 5.737 0 0 1 1.524-.204Zm-.144 5.388c.32 0 .604-.072.852-.216.248-.152.424-.372.528-.66v-.66h-1.284c-.768 0-1.152.252-1.152.756 0 .24.092.432.276.576.192.136.452.204.78.204Zm9.11.852a2 2 0 0 1-.684.312 3.556 3.556 0 0 1-.84.096c-.768 0-1.364-.196-1.788-.588-.416-.392-.624-.968-.624-1.728v-2.652h-.996v-1.44h.996v-1.572h1.872v1.572h1.608v1.44h-1.608v2.628c0 .272.068.484.204.636.144.144.344.216.6.216.296 0 .548-.08.756-.24l.504 1.32Zm4.975-6.24c.8 0 1.444.24 1.932.72.496.48.744 1.192.744 2.136V47h-1.872v-3.408c0-.512-.112-.892-.336-1.14-.224-.256-.548-.384-.972-.384-.472 0-.848.148-1.128.444-.28.288-.42.72-.42 1.296V47h-1.872v-8.904h1.872v3.12c.248-.248.548-.436.9-.564a3.17 3.17 0 0 1 1.152-.204Zm7.515 6.648c-.68 0-1.292-.14-1.836-.42a3.22 3.22 0 0 1-1.26-1.188 3.257 3.257 0 0 1-.456-1.716c0-.64.152-1.212.456-1.716a3.135 3.135 0 0 1 1.26-1.176c.544-.288 1.156-.432 1.836-.432.68 0 1.288.144 1.824.432.536.28.956.672 1.26 1.176.304.504.456 1.076.456 1.716 0 .64-.152 1.212-.456 1.716a3.22 3.22 0 0 1-1.26 1.188c-.536.28-1.144.42-1.824.42Zm0-1.536c.48 0 .872-.16 1.176-.48.312-.328.468-.764.468-1.308s-.156-.976-.468-1.296c-.304-.328-.696-.492-1.176-.492s-.876.164-1.188.492c-.312.32-.468.752-.468 1.296s.156.98.468 1.308c.312.32.708.48 1.188.48Zm11.367-7.464V47h-1.788v-.744c-.463.56-1.136.84-2.015.84-.608 0-1.16-.136-1.656-.408a2.932 2.932 0 0 1-1.152-1.164c-.28-.504-.42-1.088-.42-1.752 0-.664.14-1.248.42-1.752.28-.504.663-.892 1.152-1.164a3.387 3.387 0 0 1 1.656-.408c.824 0 1.468.26 1.931.78v-3.132h1.872Zm-3.48 7.464c.473 0 .864-.16 1.177-.48.312-.328.468-.764.468-1.308s-.157-.976-.468-1.296a1.555 1.555 0 0 0-1.176-.492c-.48 0-.877.164-1.189.492-.312.32-.468.752-.468 1.296s.157.98.468 1.308c.313.32.709.48 1.188.48Zm11.537-1.764c0 .024-.012.192-.036.504h-4.884c.088.4.296.716.624.948.328.232.736.348 1.224.348.336 0 .632-.048.888-.144a2.23 2.23 0 0 0 .732-.48l.996 1.08c-.608.696-1.496 1.044-2.664 1.044-.728 0-1.372-.14-1.932-.42a3.163 3.163 0 0 1-1.296-1.188 3.257 3.257 0 0 1-.456-1.716c0-.632.148-1.2.444-1.704a3.15 3.15 0 0 1 1.236-1.188 3.623 3.623 0 0 1 1.764-.432 3.6 3.6 0 0 1 1.716.408c.512.272.912.664 1.2 1.176.296.504.444 1.092.444 1.764Zm-3.348-1.932c-.424 0-.78.12-1.068.36-.288.24-.464.568-.528.984h3.18c-.064-.408-.24-.732-.528-.972-.288-.248-.64-.372-1.056-.372Zm6.766 5.232c-.536 0-1.06-.064-1.572-.192-.512-.136-.92-.304-1.224-.504l.624-1.344c.288.184.636.336 1.044.456.408.112.808.168 1.2.168.792 0 1.188-.196 1.188-.588 0-.184-.108-.316-.324-.396-.216-.08-.548-.148-.996-.204a9.609 9.609 0 0 1-1.308-.276 2.071 2.071 0 0 1-.9-.552c-.248-.264-.372-.64-.372-1.128 0-.408.116-.768.348-1.08.24-.32.584-.568 1.032-.744.456-.176.992-.264 1.608-.264.456 0 .908.052 1.356.156.456.096.832.232 1.128.408l-.624 1.332a3.725 3.725 0 0 0-1.86-.48c-.4 0-.7.056-.9.168-.2.112-.3.256-.3.432 0 .2.108.34.324.42.216.08.56.156 1.032.228.528.088.96.184 1.296.288.336.096.628.276.876.54s.372.632.372 1.104c0 .4-.12.756-.36 1.068-.24.312-.592.556-1.056.732-.456.168-1 .252-1.632.252Z"
    fill="currentColor" />
  <path d="M40.666 16H19.333M30 5.333v21.334V5.333Z" stroke="currentColor" stroke-width="2.667" stroke-linecap="round"
    stroke-linejoin="round" />
</svg>