<svg width="40" height="40" viewBox="0 0 40 40" fill="none" xmlns="http://www.w3.org/2000/svg">
    <path clip-rule="evenodd" d="M3.333 5.333a2 2 0 0 1 2-2h29.334a2 2 0 0 1 2 2v29.334a2 2 0 0 1-2 2H5.333a2 2 0 0 1-2-2V5.333z" stroke="#000" stroke-opacity=".87" stroke-width="2"/>
    <path d="M15.307 26.667c2.245 0 4.103-.81 5.317-2.302l-1.913-1.768c-.865 1.013-1.95 1.528-3.239 1.528-2.41 0-4.121-1.694-4.121-4.125 0-2.43 1.711-4.125 4.121-4.125 1.288 0 2.374.515 3.239 1.51l1.913-1.768c-1.214-1.473-3.072-2.284-5.299-2.284-4.01 0-6.991 2.781-6.991 6.667 0 3.886 2.98 6.667 6.973 6.667zM26.803 26.593c3.147 0 5.428-2.118 5.428-5.101 0-2.984-2.281-5.102-5.428-5.102-3.146 0-5.446 2.118-5.446 5.102 0 2.983 2.3 5.101 5.447 5.101zm0-2.357c-1.435 0-2.539-1.032-2.539-2.744 0-1.713 1.104-2.744 2.54-2.744 1.435 0 2.52 1.031 2.52 2.744 0 1.712-1.085 2.744-2.52 2.744z" fill="#000" fill-opacity=".87"/>
</svg>
