<svg width="170" height="160" viewBox="0 0 170 160" fill="none" xmlns="http://www.w3.org/2000/svg">
  <g clip-path="url(#a)">
    <g clip-path="url(#b)" fill="#FAB906" opacity=".4">
      <g clip-path="url(#c)">
        <circle cx="9.832" cy="107.39" r="3.142" />
        <circle cx="27.354" cy="107.39" r="3.142" />
        <circle cx="44.727" cy="107.39" r="3.142" />
        <circle cx="62.174" cy="107.39" r="3.142" />
        <circle cx="79.621" cy="107.39" r="3.142" />
        <circle cx="97.069" cy="107.39" r="3.142" />
        <circle cx="114.516" cy="107.39" r="3.142" />
        <circle cx="131.963" cy="107.39" r="3.142" />
        <circle cx="149.336" cy="107.39" r="3.142" />
        <circle cx="166.858" cy="107.39" r="3.142" />
      </g>
      <g clip-path="url(#d)">
        <circle cx="9.832" cy="86.54" r="3.142" />
        <circle cx="27.354" cy="86.54" r="3.142" />
        <circle cx="44.727" cy="86.54" r="3.142" />
        <circle cx="62.174" cy="86.54" r="3.142" />
        <circle cx="79.621" cy="86.54" r="3.142" />
        <circle cx="97.069" cy="86.54" r="3.142" />
        <circle cx="114.516" cy="86.54" r="3.142" />
        <circle cx="131.963" cy="86.54" r="3.142" />
        <circle cx="149.336" cy="86.54" r="3.142" />
        <circle cx="166.858" cy="86.54" r="3.142" />
      </g>
      <g clip-path="url(#e)">
        <circle cx="9.832" cy="65.691" r="3.142" />
        <circle cx="27.354" cy="65.691" r="3.142" />
        <circle cx="44.727" cy="65.691" r="3.142" />
        <circle cx="62.174" cy="65.691" r="3.142" />
        <circle cx="79.621" cy="65.691" r="3.142" />
        <circle cx="97.069" cy="65.691" r="3.142" />
        <circle cx="114.516" cy="65.691" r="3.142" />
        <circle cx="131.963" cy="65.691" r="3.142" />
        <circle cx="149.336" cy="65.691" r="3.142" />
        <circle cx="166.858" cy="65.691" r="3.142" />
      </g>
      <g clip-path="url(#f)">
        <circle cx="9.832" cy="44.841" r="3.142" />
        <circle cx="27.354" cy="44.841" r="3.142" />
        <circle cx="44.727" cy="44.841" r="3.142" />
        <circle cx="62.174" cy="44.841" r="3.142" />
        <circle cx="79.621" cy="44.841" r="3.142" />
        <circle cx="97.069" cy="44.841" r="3.142" />
        <circle cx="114.516" cy="44.841" r="3.142" />
        <circle cx="131.963" cy="44.841" r="3.142" />
        <circle cx="149.336" cy="44.841" r="3.142" />
        <circle cx="166.858" cy="44.841" r="3.142" />
      </g>
      <g clip-path="url(#g)">
        <circle cx="9.832" cy="23.992" r="3.142" />
        <circle cx="27.354" cy="23.992" r="3.142" />
        <circle cx="44.727" cy="23.992" r="3.142" />
        <circle cx="62.174" cy="23.992" r="3.142" />
        <circle cx="79.621" cy="23.992" r="3.142" />
        <circle cx="97.069" cy="23.992" r="3.142" />
        <circle cx="114.516" cy="23.992" r="3.142" />
        <circle cx="131.963" cy="23.992" r="3.142" />
        <circle cx="149.336" cy="23.992" r="3.142" />
        <circle cx="166.858" cy="23.992" r="3.142" />
      </g>
      <g clip-path="url(#h)">
        <circle cx="9.832" cy="3.142" r="3.142" />
        <circle cx="27.354" cy="3.142" r="3.142" />
        <circle cx="44.727" cy="3.142" r="3.142" />
        <circle cx="62.174" cy="3.142" r="3.142" />
        <circle cx="79.621" cy="3.142" r="3.142" />
        <circle cx="97.069" cy="3.142" r="3.142" />
        <circle cx="114.516" cy="3.142" r="3.142" />
        <circle cx="131.963" cy="3.142" r="3.142" />
        <circle cx="149.336" cy="3.142" r="3.142" />
        <circle cx="166.858" cy="3.142" r="3.142" />
      </g>
    </g>
  </g>
  <path fill="#FAB906" d="M0 40.129h119.313v119.313H0z" />
  <g filter="url(#i)">
    <path fill="#fff" d="M14.063 27.197h118.64v118.682H14.063z" />
    <path stroke="#D3D3D3" stroke-width=".5" d="M14.063 27.197h118.64v118.682H14.063z" />
  </g>
  <path
    d="M53.842 113.529c-4.922 0-9.384-1.058-13.386-3.174-3.956-2.162-7.084-5.129-9.384-8.901-2.254-3.818-3.381-8.119-3.381-12.903 0-4.784 1.127-9.062 3.381-12.834 2.3-3.818 5.428-6.785 9.384-8.9 4.002-2.163 8.487-3.244 13.455-3.244 4.186 0 7.958.736 11.316 2.208 3.404 1.472 6.256 3.588 8.556 6.348l-7.176 6.624c-3.266-3.772-7.314-5.658-12.144-5.658-2.99 0-5.658.667-8.004 2.001-2.346 1.288-4.186 3.105-5.52 5.451-1.288 2.346-1.932 5.014-1.932 8.004 0 2.99.644 5.658 1.932 8.004a14.461 14.461 0 0 0 5.52 5.52c2.346 1.288 5.014 1.932 8.004 1.932 4.83 0 8.878-1.909 12.144-5.727l7.176 6.624c-2.3 2.806-5.152 4.945-8.556 6.417-3.404 1.472-7.199 2.208-11.385 2.208Zm43.114-.276c-3.91 0-7.429-.805-10.557-2.415-3.082-1.656-5.497-3.933-7.245-6.831-1.748-2.898-2.622-6.187-2.622-9.867 0-3.68.874-6.969 2.622-9.867 1.748-2.898 4.163-5.152 7.245-6.762 3.128-1.656 6.647-2.484 10.557-2.484s7.406.828 10.488 2.484c3.082 1.61 5.497 3.864 7.245 6.762 1.748 2.898 2.622 6.187 2.622 9.867 0 3.68-.874 6.969-2.622 9.867-1.748 2.898-4.163 5.175-7.245 6.831-3.082 1.61-6.578 2.415-10.488 2.415Zm0-8.832c2.76 0 5.014-.92 6.762-2.76 1.794-1.886 2.691-4.393 2.691-7.52 0-3.129-.897-5.613-2.691-7.453-1.748-1.886-4.002-2.829-6.762-2.829s-5.037.943-6.83 2.83c-1.795 1.84-2.692 4.323-2.692 7.451 0 3.128.897 5.635 2.691 7.521 1.794 1.84 4.071 2.76 6.831 2.76Z"
    fill="#222" />
  <path
    d="m101.872 126.974.001 25.117c0 3.349 1.937 5.284 5.301 5.284 14.149.004 28.3.004 42.451.001 3.412-.001 5.323-1.928 5.324-5.358 0-11.563-.049-23.126.04-34.689.018-2.349-.638-4.325-1.94-6.185a48.22 48.22 0 0 0-7.778-8.645c-1.919-1.678-3.994-3.182-6.067-4.672-1.173-.844-2.553-1.124-4.034-1.118-9.317.035-18.635.017-27.952.018-3.45 0-5.345 1.885-5.345 5.321l-.001 24.926Z"
    stroke="#000" stroke-width=".5" stroke-linecap="round" stroke-linejoin="round" />
  <path
    d="m101.872 126.974.001-24.926c0-3.436 1.895-5.32 5.345-5.32 9.317-.002 18.635.016 27.952-.019 1.481-.006 2.861.274 4.034 1.118 2.073 1.49 4.148 2.994 6.067 4.672a48.22 48.22 0 0 1 7.778 8.645c1.302 1.86 1.958 3.836 1.94 6.185-.089 11.563-.04 23.126-.04 34.689-.001 3.43-1.912 5.357-5.324 5.358-14.151.003-28.302.003-42.451-.001-3.364 0-5.301-1.935-5.301-5.284l-.001-25.117Z"
    fill="#222" />
  <path
    d="M136.078 100.921c-.356-.023-.602-.052-.847-.052-9.348-.002-18.697-.003-28.045 0-1.183 0-1.421.268-1.421 1.572v49.851c0 1.367.238 1.612 1.582 1.612 14.086.003 28.172.003 42.258.001 1.415 0 1.633-.225 1.633-1.658.002-11.721.002-23.441.002-35.162v-1.057h-12.461c-2.149-.002-2.7-.547-2.7-2.678l-.001-12.429Z"
    fill="#fff" />
  <path d="M139.818 111.84h9.043a58.635 58.635 0 0 0-9.043-9.051v9.051Z" fill="#FCFCFC" />
  <path d="M144.34 142.694h-33.823v-30.852h2.813v28.039h31.01v2.813Z" fill="#FAB906" />
  <path
    d="m127.386 138.09-6.523-6.595-3.642 5.06-2.283-1.644 5.586-7.759 6.155 6.223 8.034-15.354 4.145 6.233 4.383-.181.115 2.81-5.964.247-2.389-3.594-7.617 14.554Z"
    fill="#FAB906" />
  <path
    d="M23.938 133.41c1.326 0 2.288.234 2.886.702.598.46.897 1.114.897 1.963 0 .52-.121.984-.364 1.391-.234.399-.59.715-1.066.949-.477.234-1.062.351-1.755.351a5.08 5.08 0 0 1-1.859-.338c-.572-.225-1.018-.52-1.339-.884l.338-.507c.286.33.68.598 1.183.806a4.374 4.374 0 0 0 1.664.312c.815 0 1.439-.186 1.872-.559.442-.372.663-.871.663-1.495 0-.684-.251-1.204-.754-1.56-.494-.355-1.33-.533-2.509-.533h-1.846l.481-4.407h4.823v.598h-4.264l-.351 3.211h1.3Zm9.901.533c.624.165 1.105.442 1.443.832.347.39.52.867.52 1.43 0 .798-.308 1.426-.923 1.885-.615.451-1.46.676-2.535.676-1.066 0-1.907-.225-2.522-.676-.607-.459-.91-1.087-.91-1.885 0-.572.165-1.048.494-1.43.338-.39.819-.667 1.443-.832-.52-.173-.919-.433-1.196-.78-.277-.346-.416-.771-.416-1.274 0-.728.282-1.3.845-1.716.563-.424 1.317-.637 2.262-.637.945 0 1.703.213 2.275.637.572.425.858.997.858 1.716 0 .494-.143.919-.429 1.274-.277.347-.68.607-1.209.78Zm-3.939-2.041c0 .546.212.98.637 1.3.433.321 1.036.481 1.807.481.771 0 1.374-.156 1.807-.468.442-.32.663-.754.663-1.3 0-.554-.225-.992-.676-1.313-.442-.329-1.04-.494-1.794-.494s-1.352.161-1.794.481c-.433.321-.65.759-.65 1.313Zm2.444 6.292c.875 0 1.56-.177 2.054-.533.494-.355.741-.84.741-1.456 0-.606-.247-1.087-.741-1.443-.494-.355-1.179-.533-2.054-.533-.867 0-1.547.178-2.041.533-.485.356-.728.837-.728 1.443 0 .616.243 1.101.728 1.456.485.356 1.166.533 2.041.533Zm5.546.559a.558.558 0 0 1-.39-.156.573.573 0 0 1-.156-.403.53.53 0 0 1 .156-.39.558.558 0 0 1 .39-.156c.147 0 .273.052.377.156a.509.509 0 0 1 .169.39.549.549 0 0 1-.17.403.514.514 0 0 1-.376.156Zm4.76-9.217c1.179 0 2.08.403 2.704 1.209.633.798.95 1.916.95 3.354 0 1.006-.17 1.859-.508 2.561-.329.694-.797 1.218-1.404 1.573-.606.356-1.317.533-2.132.533-.858 0-1.547-.156-2.067-.468l.273-.533c.434.278 1.032.416 1.794.416 1.049 0 1.872-.338 2.47-1.014.607-.684.91-1.672.91-2.964 0-.398-.026-.762-.078-1.092a2.413 2.413 0 0 1-1.066 1.378c-.52.33-1.13.494-1.833.494-.598 0-1.13-.108-1.599-.325a2.52 2.52 0 0 1-1.066-.949 2.708 2.708 0 0 1-.377-1.43c0-.546.13-1.027.39-1.443.26-.416.62-.736 1.08-.962a3.5 3.5 0 0 1 1.56-.338Zm.104 4.875c.486 0 .919-.095 1.3-.286.39-.19.69-.45.897-.78a1.965 1.965 0 0 0 .013-2.145c-.199-.329-.494-.593-.884-.793-.39-.199-.858-.299-1.404-.299-.71 0-1.287.2-1.729.598-.442.39-.663.91-.663 1.56s.221 1.17.663 1.56c.442.39 1.045.585 1.807.585Zm7.616-.845c1.005.026 1.768.273 2.288.741.528.46.793 1.071.793 1.833 0 .512-.122.967-.364 1.365-.243.39-.607.698-1.092.923-.477.226-1.053.338-1.73.338a5.267 5.267 0 0 1-1.858-.325c-.58-.225-1.032-.524-1.352-.897l.338-.507c.294.33.693.598 1.196.806a4.41 4.41 0 0 0 1.677.312c.806 0 1.425-.177 1.859-.533.433-.364.65-.858.65-1.482 0-.632-.221-1.126-.663-1.482-.442-.355-1.105-.533-1.99-.533h-.571v-.481l2.69-3.445h-4.848v-.598H53.1v.468l-2.73 3.497Zm7.185 0c1.006.026 1.768.273 2.288.741.529.46.793 1.071.793 1.833 0 .512-.121.967-.364 1.365-.242.39-.606.698-1.092.923-.476.226-1.053.338-1.729.338a5.267 5.267 0 0 1-1.859-.325c-.58-.225-1.031-.524-1.352-.897l.338-.507c.295.33.694.598 1.196.806a4.41 4.41 0 0 0 1.677.312c.806 0 1.426-.177 1.86-.533.433-.364.65-.858.65-1.482 0-.632-.222-1.126-.664-1.482-.442-.355-1.105-.533-1.989-.533h-.572v-.481l2.691-3.445h-4.849v-.598h5.707v.468l-2.73 3.497ZM28.786 46.103v.598h-6.253v-.468l3.848-3.822c.503-.503.84-.931 1.014-1.287.182-.364.273-.736.273-1.118 0-.58-.2-1.035-.598-1.365-.39-.33-.958-.494-1.703-.494-.572 0-1.075.087-1.508.26a2.926 2.926 0 0 0-1.105.793l-.468-.416a3.431 3.431 0 0 1 1.313-.923c.537-.216 1.144-.325 1.82-.325.893 0 1.603.217 2.132.65.529.434.793 1.019.793 1.755 0 .468-.104.914-.312 1.34-.208.424-.598.918-1.17 1.481l-3.354 3.341h5.278Zm7.456-8.502v.468l-3.913 8.632h-.728l3.874-8.502h-5.109v1.742h-.65v-2.34h6.526Z"
    fill="#000" />
  <path
    d="M100.56 37.966c0 8.372-.002 16.744 0 25.116.001 3.348 1.936 5.284 5.3 5.285 14.151.003 28.3.003 42.451 0 3.412 0 5.323-1.928 5.324-5.357.002-11.563-.047-23.127.041-34.689.017-2.35-.638-4.326-1.941-6.185a48.092 48.092 0 0 0-7.778-8.645c-1.918-1.678-3.994-3.184-6.066-4.673-1.174-.843-2.554-1.122-4.034-1.117-9.318.034-18.636.017-27.953.017-3.45.002-5.344 1.886-5.344 5.32-.002 8.309 0 16.62 0 24.928h0Z"
    stroke="#000" stroke-width=".5" stroke-linecap="round" stroke-linejoin="round" />
  <path
    d="M100.56 37.966c0-8.309-.002-16.619 0-24.928 0-3.434 1.894-5.318 5.344-5.32 9.317 0 18.635.017 27.953-.017 1.48-.005 2.86.274 4.034 1.117 2.072 1.49 4.148 2.995 6.066 4.673a48.092 48.092 0 0 1 7.778 8.645c1.303 1.86 1.958 3.835 1.941 6.185-.088 11.562-.039 23.126-.041 34.69-.001 3.428-1.912 5.356-5.324 5.356-14.151.003-28.3.003-42.451 0-3.364-.001-5.299-1.937-5.3-5.285-.002-8.372 0-16.744 0-25.116Z"
    fill="#222" />
  <path
    d="M134.765 11.912c-.357-.024-.602-.052-.848-.052-9.348-.003-18.697-.004-28.045 0-1.183 0-1.421.269-1.421 1.571v49.852c0 1.366.239 1.612 1.582 1.612h42.26c1.413 0 1.633-.225 1.633-1.658V27.018h-12.461c-2.149 0-2.7-.546-2.7-2.677V11.912Z"
    fill="#fff" />
  <path d="M138.504 22.832h9.043a58.496 58.496 0 0 0-9.043-9.05v9.05Z" fill="#FCFCFC" />
  <path fill-rule="evenodd" clip-rule="evenodd"
    d="M143.636 41.042c-2.692-.552-5.387-.226-8.083.015-.415.038-.91-.057-1.266-.266-3.38-1.992-5.336-5.12-6.763-8.646-.096-.24-.05-.555-.012-.825.337-2.395 1.128-3.03 1.273-5.85.141-1.067-.486-3.578-.913-4.558-.514-1.185-1.694-1.086-2.76-.934-.98.14-1.592.717-1.695 1.754-.118 1.183-.238 2.403-.07 3.568.322 2.249.866 4.465 1.268 6.705.085.47.095 1.05-.104 1.46-1.803 3.713-3.676 7.39-5.487 11.098-.487.994-1.184 1.655-2.183 2.14-2.111 1.024-4.104 2.271-5.653 4.06-.635.732-1.119 1.64-1.466 2.547-.146.381.083 1.13.405 1.426 1.141 1.05 2.641 1.172 3.948.293.886-.597 1.759-1.31 2.4-2.15 1.36-1.785 2.602-3.667 3.816-5.557.382-.598.794-.985 1.478-1.144 3.822-.888 7.638-1.804 11.464-2.674.348-.08.781.042 1.13.181 1.53.613 3.018 1.34 4.57 1.886 1.64.577 3.342.965 5.111.785 1.053-.107 1.653-.644 1.917-1.661.53-2.042-.197-3.215-2.325-3.653Zm-31.555 12.73c.125-1.202 2.351-3.84 4.545-5.371-1.242 1.981-2.525 3.936-4.545 5.372Zm13.876-32.885c1.869 1.883 1.461 4.963.447 7.232-1.191-2.248-1.524-4.996-.447-7.232ZM122.06 44.21l4.032-8.22 4.856 5.775-8.888 2.445Zm22.075.188c-.787-.024-1.596-.04-2.352-.235-1.033-.266-2.025-.69-3.035-1.047l.028-.244c1.723-.156 3.44-.21 5.13.308.135.042.267.115.387.167.318.14.548.459.548.694-.067.228-.473.364-.706.357Z"
    fill="#FAB906" />
  <defs>
    <clipPath id="a">
      <path fill="#fff" transform="translate(6.69)" d="M0 0h163.31v110.532H0z" />
    </clipPath>
    <clipPath id="b">
      <path fill="#fff" transform="translate(6.69)" d="M0 0h163.31v110.532H0z" />
    </clipPath>
    <clipPath id="c">
      <path fill="#fff" transform="translate(6.69 104.248)" d="M0 0h163.31v6.284H0z" />
    </clipPath>
    <clipPath id="d">
      <path fill="#fff" transform="translate(6.69 83.398)" d="M0 0h163.31v6.284H0z" />
    </clipPath>
    <clipPath id="e">
      <path fill="#fff" transform="translate(6.69 62.549)" d="M0 0h163.31v6.284H0z" />
    </clipPath>
    <clipPath id="f">
      <path fill="#fff" transform="translate(6.69 41.7)" d="M0 0h163.31v6.284H0z" />
    </clipPath>
    <clipPath id="g">
      <path fill="#fff" transform="translate(6.69 20.85)" d="M0 0h163.31v6.284H0z" />
    </clipPath>
    <clipPath id="h">
      <path fill="#fff" transform="translate(6.69)" d="M0 0h163.31v6.284H0z" />
    </clipPath>
    <filter id="i" x="10.979" y="26.947" width="121.975" height="122.017" filterUnits="userSpaceOnUse"
      color-interpolation-filters="sRGB">
      <feFlood flood-opacity="0" result="BackgroundImageFix" />
      <feColorMatrix in="SourceAlpha" values="0 0 0 0 0 0 0 0 0 0 0 0 0 0 0 0 0 0 127 0" result="hardAlpha" />
      <feOffset dx="-2.835" dy="2.835" />
      <feColorMatrix values="0 0 0 0 0.133333 0 0 0 0 0.133333 0 0 0 0 0.133333 0 0 0 1 0" />
      <feBlend in2="BackgroundImageFix" result="effect1_dropShadow" />
      <feBlend in="SourceGraphic" in2="effect1_dropShadow" result="shape" />
    </filter>
  </defs>
</svg>