<svg width="44" height="62" fill="none" viewBox="0 0 44 62" xmlns="http://www.w3.org/2000/svg">
  <path clip-rule="evenodd" d="M2 4.079C2 2.93 2.93 2 4.079 2H39.92C41.07 2 42 2.93 42 4.079V39.92C42 41.07 41.07 42 39.921 42H4.08A2.079 2.079 0 0 1 2 39.921V4.08Z" stroke="currentColor" stroke-width="2.5" />
  <path d="M17.06 29.905c2.62 0 4.79-.946 6.208-2.688l-2.234-2.064c-1.01 1.183-2.277 1.785-3.78 1.785-2.815 0-4.813-1.979-4.813-4.817s1.998-4.816 4.812-4.816c1.504 0 2.771.602 3.78 1.763l2.235-2.064c-1.418-1.72-3.587-2.666-6.187-2.666-4.683 0-8.163 3.247-8.163 7.783 0 4.537 3.48 7.784 8.142 7.784ZM30.482 29.819c3.674 0 6.337-2.473 6.337-5.956 0-3.483-2.663-5.956-6.337-5.956-3.673 0-6.358 2.473-6.358 5.956 0 3.483 2.685 5.956 6.358 5.956Zm0-2.752c-1.675 0-2.964-1.204-2.964-3.204s1.289-3.204 2.964-3.204c1.676 0 2.943 1.204 2.943 3.204s-1.267 3.204-2.943 3.204ZM6.016 61.144c-.856 0-1.632-.184-2.328-.552a4.277 4.277 0 0 1-1.632-1.548c-.392-.664-.588-1.412-.588-2.244 0-.832.196-1.576.588-2.232.4-.664.944-1.18 1.632-1.548.696-.376 1.476-.564 2.34-.564.728 0 1.384.128 1.968.384a3.943 3.943 0 0 1 1.488 1.104l-1.248 1.152c-.568-.656-1.272-.984-2.112-.984-.52 0-.984.116-1.392.348-.408.224-.728.54-.96.948a2.844 2.844 0 0 0-.336 1.392c0 .52.112.984.336 1.392.232.408.552.728.96.96.408.224.872.336 1.392.336.84 0 1.544-.332 2.112-.996l1.248 1.152c-.4.488-.896.86-1.488 1.116-.592.256-1.252.384-1.98.384Zm7.498-.048c-.68 0-1.292-.14-1.836-.42a3.22 3.22 0 0 1-1.26-1.188 3.257 3.257 0 0 1-.456-1.716c0-.64.152-1.212.456-1.716a3.135 3.135 0 0 1 1.26-1.176c.544-.288 1.156-.432 1.836-.432.68 0 1.288.144 1.824.432.536.28.956.672 1.26 1.176.304.504.456 1.076.456 1.716 0 .64-.152 1.212-.456 1.716a3.22 3.22 0 0 1-1.26 1.188c-.536.28-1.144.42-1.824.42Zm0-1.536c.48 0 .872-.16 1.176-.48.312-.328.468-.764.468-1.308s-.156-.976-.468-1.296c-.304-.328-.696-.492-1.176-.492s-.876.164-1.188.492c-.312.32-.468.752-.468 1.296s.156.98.468 1.308c.312.32.708.48 1.188.48Zm8.607-5.112c.6 0 1.144.14 1.632.42.496.272.884.66 1.164 1.164.28.496.42 1.076.42 1.74 0 .664-.14 1.248-.42 1.752-.28.496-.668.884-1.164 1.164a3.295 3.295 0 0 1-1.632.408c-.888 0-1.564-.28-2.028-.84V61h-1.788v-8.904h1.872v3.132c.472-.52 1.12-.78 1.944-.78Zm-.324 5.112c.48 0 .872-.16 1.176-.48.312-.328.468-.764.468-1.308s-.156-.976-.468-1.296c-.304-.328-.696-.492-1.176-.492s-.876.164-1.188.492c-.304.32-.456.752-.456 1.296s.152.98.456 1.308c.312.32.708.48 1.188.48Zm7.292-5.112c1 0 1.768.24 2.304.72.536.472.804 1.188.804 2.148V61h-1.752v-.804c-.352.6-1.008.9-1.968.9-.496 0-.928-.084-1.296-.252a1.93 1.93 0 0 1-.828-.696 1.811 1.811 0 0 1-.288-1.008c0-.6.224-1.072.672-1.416.456-.344 1.156-.516 2.1-.516h1.488c0-.408-.124-.72-.372-.936-.248-.224-.62-.336-1.116-.336-.344 0-.684.056-1.02.168a2.603 2.603 0 0 0-.84.432l-.672-1.308c.352-.248.772-.44 1.26-.576a5.737 5.737 0 0 1 1.524-.204Zm-.144 5.388c.32 0 .604-.072.852-.216.248-.152.424-.372.528-.66v-.66h-1.284c-.768 0-1.152.252-1.152.756 0 .24.092.432.276.576.192.136.452.204.78.204Zm4.946-7.74h1.872V61h-1.872v-8.904Zm8.242 8.592a2 2 0 0 1-.684.312 3.556 3.556 0 0 1-.84.096c-.767 0-1.364-.196-1.788-.588-.415-.392-.623-.968-.623-1.728v-2.652h-.996v-1.44h.995v-1.572h1.872v1.572h1.608v1.44H40.07v2.628c0 .272.069.484.204.636.144.144.344.216.6.216.297 0 .549-.08.757-.24l.503 1.32Z" fill="currentColor" />
</svg>
