<svg width="28" height="29" viewBox="0 0 28 29" fill="none" xmlns="http://www.w3.org/2000/svg">
    <g clip-path="url(#clip0_14323_117368)">
        <path
            d="M15.4426 10.1644C16.1433 10.4527 16.4777 11.2544 16.1895 11.9552C15.9013 12.6559 15.0995 12.9903 14.3988 12.702C13.698 12.4138 13.3636 11.6121 13.6518 10.9113C13.9401 10.2106 14.7418 9.87616 15.4426 10.1644Z"
            fill="#E18800" />
        <path
            d="M19.1527 18.9238L18.0607 18.2517C18.0327 18.2238 17.9766 18.2517 17.9486 18.2797L17.5566 18.9517L15.8486 17.8877C15.8486 17.8317 15.6527 16.6277 15.5407 16.0957C15.5407 16.0397 15.5407 15.8157 15.5687 15.6757C15.6246 14.9757 15.7646 13.8277 14.7287 13.2117L13.7207 12.7638C12.6287 12.3158 11.5927 12.2878 11.1167 12.4558C10.9767 12.5118 10.6126 12.6238 9.46465 14.2478C9.26869 14.5278 9.32465 14.8919 9.60465 15.0878C9.82869 15.2278 10.1087 15.2278 10.3047 15.0878L11.2006 15.6199C11.2006 15.6478 11.1726 15.6758 11.1726 15.7039C10.8086 16.5998 10.9486 17.6919 11.0606 18.5039C11.0886 18.8119 11.1446 19.2039 11.1446 19.2879C10.8926 19.96 10.0526 21.8639 10.0526 21.8639C9.88464 22.228 10.0526 22.648 10.4167 22.816C10.5007 22.8439 10.6126 22.8719 10.6967 22.8719C10.9767 22.8719 11.2287 22.7039 11.3687 22.4519C11.3967 22.3679 12.2367 20.4919 12.4887 19.7919C12.6007 19.456 12.5727 19.036 12.5167 18.5319C12.8807 18.9799 13.2167 19.484 13.3567 19.7919C13.4126 20.0719 13.3567 21.2199 13.2726 22.116C13.2447 22.508 13.5247 22.8719 13.9167 22.9H13.9726C14.3367 22.9 14.6447 22.62 14.7006 22.256C14.8406 20.66 14.8406 19.624 14.6726 19.26C14.5886 19.092 14.0847 18.168 13.4126 17.412C13.4406 17.3 13.4686 17.216 13.5247 17.104L14.5326 17.72C14.5606 17.944 14.5886 18.084 14.5886 18.084C14.6446 18.392 14.8966 18.5881 15.1766 18.5881H15.2606C15.4006 18.5601 15.5406 18.504 15.6247 18.3921L17.2206 19.3721L16.8286 20.0162C16.8006 20.0441 16.8286 20.1002 16.8566 20.1282L17.9486 20.8002C18.4806 21.1082 19.1526 20.9682 19.4606 20.4361C19.8247 19.9318 19.6567 19.2598 19.1527 18.9239L19.1527 18.9238ZM10.6407 14.7238C11.0047 14.2478 11.3966 13.7438 11.5647 13.6038C11.6768 13.5758 11.9568 13.5758 12.2927 13.6317C11.9568 14.0238 11.6207 14.6117 11.3968 15.1997L10.6407 14.7238ZM13.7207 16.5997C13.9167 16.1238 14.1407 15.5917 14.3647 15.1717C14.3647 15.2838 14.3368 15.4238 14.3368 15.5638C14.3088 15.8438 14.2808 16.0958 14.3368 16.3197C14.3647 16.4877 14.4208 16.7677 14.4768 17.0477L13.7207 16.5997Z"
            fill="#E18800" />
        <path
            d="M26.8526 21.2758L16.5206 4.61576C15.9886 3.74778 15.0366 3.21576 14.0006 3.21576C12.9647 3.21576 12.0406 3.74778 11.4806 4.61576L1.14864 21.2758C0.588644 22.1998 0.560668 23.3198 1.06461 24.2718C1.59663 25.2238 2.54865 25.7838 3.64061 25.7838H24.3046C25.3966 25.7838 26.3487 25.2238 26.8806 24.2718C27.4407 23.3198 27.4127 22.1998 26.8527 21.2758H26.8526ZM25.7606 23.6278C25.4526 24.1598 24.9206 24.4678 24.3326 24.4678H3.66864C3.05269 24.4678 2.52067 24.1598 2.24067 23.6278C1.93269 23.0957 1.96067 22.4798 2.26865 21.9478L12.6006 5.28776C12.9086 4.81181 13.4127 4.50371 14.0006 4.50371C14.5606 4.50371 15.0927 4.78371 15.4007 5.28776L25.7327 21.9478C26.0406 22.4798 26.0686 23.0957 25.7606 23.6278Z"
            fill="#E18800" />
    </g>
    <defs>
        <clipPath id="clip0_14323_117368">
            <rect width="28" height="28" fill="white" transform="translate(0.000488281 0.499756)" />
        </clipPath>
    </defs>
</svg>
    