<svg width="1442" height="1766" fill="none" xmlns="http://www.w3.org/2000/svg">
  <g opacity=".2" stroke="#000" stroke-width=".25" stroke-miterlimit="10">
    <path
      d="M709.719 1118.05a95.757 95.757 0 0 0 32.787 41.69c37.673 62.59 115.277 116.48 172.99 121.01a220.863 220.863 0 0 0 72.712 31.77c-93.228-7.37-217.55-94.57-278.489-194.47Z" />
    <path d="M717.734 1133.7c53.646 88.14 163.31 164.82 244.952 171.23" />
    <path d="M788.215 1211.25c-2.405 5.75-1.384 7.87 2.79 6.3M887.945 1281.08a57.292 57.292 0 0 1-34.836-20.11" />
    <path
      d="M716.58 1131.81a389.095 389.095 0 0 0 97.028 107.06 385.324 385.324 0 0 0 33.868 23.02c7.656 4.42 19.293 11.14 34.064 18.44a394.566 394.566 0 0 0 74.491 26.58c-87.628-21.5-191.842-100.56-246.133-189.17a94.627 94.627 0 0 0 6.682 14.07Z" />
    <path
      d="M709.723 1118.05a95.871 95.871 0 0 0 32.787 41.69c37.673 62.58 115.277 116.47 172.989 121.01a221.085 221.085 0 0 0 72.713 31.77c-93.228-7.38-217.55-94.57-278.489-194.47Z" />
    <path d="M717.734 1133.7c53.646 88.14 163.31 164.82 244.952 171.23" />
    <path d="M729.008 1147.76c45.927 75.52 139.893 141.2 209.784 146.74" />
    <path
      d="M788.219 1211.24c-2.405 5.76-1.384 7.88 2.79 6.31M887.949 1281.08a57.306 57.306 0 0 1-34.836-20.12M987.656 1312.61a220.89 220.89 0 0 1-72.713-31.78c57.669 4.61 73.744-42.15 35.85-104.35a636.79 636.79 0 0 0 94.337-31.49c61.02 99.75 35.21 174.88-57.474 167.62Z" />
    <path d="M962.686 1304.93c81.684 6.33 104.264-59.65 50.694-147.74" />
    <path d="M938.365 1294.36c69.895 5.54 89.375-51.19 43.483-126.59" />
    <path
      d="M1057.34 1294.45a386.55 386.55 0 0 1-98.89-25.15M1077.99 1234.3c-35.51 3-71.23 2.15-106.555-2.52M1045.3 1144.69a636.801 636.801 0 0 1-94.338 31.49c-37.673-62.59-115.397-116.44-172.989-121.01a516.62 516.62 0 0 1-10.849-104.977c92.789 7.431 217.276 94.517 278.176 194.497Z" />
    <path d="M1013.38 1157.18c-53.65-88.13-163.237-164.777-244.911-171.303" />
    <path d="M981.889 1167.69c-45.927-75.51-139.893-141.2-209.861-146.78" />
    <path
      d="M966.732 1051.45c-22.959 24.21-44.705 46.67-64.642 66.7M867.027 981.732a787.96 787.96 0 0 0-27.049 92.998M767.151 950.511A516.711 516.711 0 0 0 778 1055.49c-57.668-4.61-73.744 42.15-35.85 104.35a95.873 95.873 0 0 1-32.404-41.47c-60.916-100.3-35.098-175.432 57.405-167.859Z" />
    <path d="M768.476 985.88c-81.686-6.329-104.306 59.72-50.737 147.82" />
    <path d="M771.732 1020.73c-69.452-5.59-89.071 51.37-42.717 127.03" />
    <path
      d="M697.68 968.283a421.274 421.274 0 0 0 36.889 98.067M676.992 1028.51a273.373 273.373 0 0 0 44.755 75.25M742.507 1159.74a165.606 165.606 0 0 0 87.201 28.6 291.728 291.728 0 0 0 85.788 92.41c-58.096-4.76-135.523-58.95-172.989-121.01Z" />
    <path d="M766.242 1173.44c25.669 42.18 78.161 78.92 117.229 81.98" />
    <path d="M795.414 1183.04c12.976 21.37 39.627 39.92 59.412 41.55" />
    <path
      d="M790.846 1217.46a182.921 182.921 0 0 0 38.323-29.42M853.076 1261.04c-13.492-16.06-21.487-40.58-23.744-72.92" />
    <path
      d="M914.937 1280.83a291.691 291.691 0 0 1-85.787-92.4 389.256 389.256 0 0 0 121.417-11.56c38.291 61.51 22.216 108.27-35.63 103.96Z" />
    <path
      d="M883.476 1255.42c39.024 3.13 49.954-28.53 24.286-70.71M854.825 1224.59c19.732 1.18 25.307-14.49 12.331-35.86" />
    <path
      d="M958.45 1269.31a428.848 428.848 0 0 1-129.118-81.19M971.433 1231.78a436.154 436.154 0 0 1-142.016-43.81M950.968 1176.17a388.964 388.964 0 0 1-121.417 11.57 421.306 421.306 0 0 1-51.352-132.96c57.371 4.95 134.919 59.12 172.769 121.39Z" />
    <path
      d="M907.712 1184.79c-25.668-42.18-78.161-78.92-117.228-81.98M867.157 1188.73c-13.052-21.42-39.659-40.05-59.489-41.59" />
    <path
      d="M902.09 1118.15c-28.958 29.11-53.46 52.63-72.893 70.2M839.98 1074.73a410.2 410.2 0 0 0-10.647 113.39M777.979 1055.17a421.318 421.318 0 0 0 51.351 132.95 165.678 165.678 0 0 1-86.819-28.38c-38.276-62.42-22.201-109.18 35.468-104.57Z" />
    <path
      d="M790.53 1102.74c-39.023-3.14-49.954 28.53-24.286 70.7M807.534 1147.36c-19.733-1.18-25.307 14.49-12.255 35.9" />
    <path d="M734.57 1066.35a445.126 445.126 0 0 0 94.759 121.77M721.75 1103.76a340.167 340.167 0 0 0 107.579 84.36" />
    <path
      d="M955.851 1307.21a390.181 390.181 0 0 1-74.293-26.56 399.358 399.358 0 0 1-67.299-40.79 386.971 386.971 0 0 1-53.055-48.5 391.673 391.673 0 0 1-44.627-59.55 98.438 98.438 0 0 0 25.929 27.93 98.603 98.603 0 0 1-25.546-27.71 389.21 389.21 0 0 1-25.428-49.49c-34.727-81.3-5.119-138.422 76.205-131.996 92.637 7.343 216.991 94.656 278.023 194.406 61.02 99.75 35.03 175.19-57.607 167.84a209.212 209.212 0 0 1-32.302-5.58Z" />
    <path
      d="M767.151 950.511A516.711 516.711 0 0 0 778 1055.49c-57.668-4.61-73.744 42.15-35.85 104.35a95.873 95.873 0 0 1-32.404-41.47c-60.916-100.3-35.098-175.432 57.405-167.859Z" />
    <path
      d="M691.152 1082.32a278.183 278.183 0 0 0 18.57 35.73 94.513 94.513 0 0 0 6.681 14.06 393.958 393.958 0 0 1-25.251-49.79ZM529.989 1540.92c-85.621-6.76-154.908-29.62-205.848-67.81 89.623 147.3 272.8 275.41 409.272 286.22-78.871-52.58-147.22-126.04-203.424-218.41Z" />
    <path d="M449.918 1528.78c30.676 50.48 93.333 94.72 140.261 98.13" />
    <path d="M381.008 1506.15c60.677 99.65 184.628 186.43 276.991 193.71" />
    <path
      d="M529.985 1540.92c-45.578 40.75-76.012 64.11-90.555 69.5M529.988 1540.92c5.318 76.36 24.491 134.39 56.287 172.14M529.992 1540.92c56.203 92.37 124.553 165.82 203.105 218.43 136.581 10.97 174.356-99.73 84.778-247.1-105.482 25.87-202.262 35.43-287.883 28.67Z" />
    <path
      d="M590.173 1626.92c46.751 3.71 59.761-34.2 29.085-84.68M658.006 1699.86c92.318 7.36 118.004-67.54 57.326-167.19" />
    <path
      d="M529.988 1540.92a1011.23 1011.23 0 0 0 305.575 191.94M529.99 1540.92a1031.532 1031.532 0 0 0 336.004 103.34" />
    <path
      d="M529.983 1540.92c85.621 6.76 182.401-2.8 287.839-28.59-89.591-147.17-272.845-275.33-409.196-286.17a992.951 992.951 0 0 0 121.357 314.76Z" />
    <path
      d="M619.259 1542.24c-30.796-50.45-93.332-94.72-140.305-98.05M715.149 1532.98c-60.601-99.6-184.596-186.3-276.914-193.66" />
    <path d="M529.983 1540.92c45.502-40.8 103.429-96.57 172.348-165.91" />
    <path
      d="M529.987 1540.92c-5.318-76.37 3.187-166.6 25.462-268.48M529.984 1540.92a992.963 992.963 0 0 1-121.224-314.98c-136.625-10.9-174.356 99.72-84.854 247.04 51.169 38.32 120.687 61.31 206.078 67.94Z" />
    <path
      d="M478.96 1444.18c-46.828-3.76-59.837 34.16-29.04 84.6M438.417 1339.01c-92.362-7.29-118.003 67.54-57.402 167.14" />
    <path d="M529.986 1540.92a1046.281 1046.281 0 0 1-223.947-288.24" />
    <path
      d="M529.987 1540.92a805.653 805.653 0 0 1-254.299-199.6M323.821 1473.13a226.01 226.01 0 0 1-76.618-98.03c144.087 236.31 438.621 442.6 657.448 459.82a518.666 518.666 0 0 1-171.482-75.53c-136.625-10.89-319.726-138.96-409.348-286.26Z" />
    <path d="M292.043 1444.89c108.695 178.61 330.952 333.99 496.395 347.13" />
    <path d="M266.219 1412.01c126.83 208.38 386.222 389.78 579.299 405.09" />
    <path
      d="M439.438 1610.42c-9.962 3.64-12.199-1.33-6.469-14.96M586.352 1713.11c20.666 25.45 50 42.39 82.38 47.56M733.168 1759.39a518.351 518.351 0 0 0 171.602 75.49c219.13 17.39 280.06-160.27 136.1-396.81a1495.11 1495.11 0 0 1-222.969 74.31c89.546 147.24 51.847 257.98-84.733 247.01Z" />
    <path d="M788.215 1791.88c165.825 13.36 211.437-120.98 102.742-299.6" />
    <path d="M845.514 1817.11c193.076 15.31 246.796-141.2 119.982-349.27" />
    <path
      d="M835.558 1732.86a913.928 913.928 0 0 0 233.802 59.34M865.991 1644.26a1150.877 1150.877 0 0 0 252.049 5.47M817.821 1512.33a1495.03 1495.03 0 0 0 223.279-74.13c-144.085-236.31-438.62-442.599-657.446-459.813a1211.168 1211.168 0 0 0 25.278 247.953c135.892 10.57 319.299 138.82 408.889 285.99Z" />
    <path d="M890.956 1492.28c-108.618-178.57-330.875-333.94-496.318-347.08" />
    <path d="M965.522 1467.45c-127.136-208.56-386.222-389.79-579.299-405.1" />
    <path
      d="M702.246 1375.16c47.133-47.51 98.83-100.45 152.881-157.64M555.448 1272.45a1805.704 1805.704 0 0 1 63.779-219.92M408.634 1226.16a1211.096 1211.096 0 0 1-25.279-247.952C164.222 960.817 103.12 1138.79 247.206 1375.1a226.112 226.112 0 0 0 76.573 98.11c-89.501-147.33-51.617-257.85 84.855-247.05Z" />
    <path d="M394.637 1145.2c-165.443-13.14-211.735 121.32-102.59 299.69" />
    <path d="M386.222 1062.35c-193.154-15.36-246.869 141.16-119.982 349.26" />
    <path
      d="M306.043 1252.68a990.903 990.903 0 0 1-87.316-231.91M275.684 1341.32a641.973 641.973 0 0 1-105.868-178.21" />
    <path
      d="M263.585 1407.73a231.45 231.45 0 0 0 60.238 65.4c51.258 38.17 120.546 61.03 205.849 67.81-85.621-6.76-154.909-29.62-205.849-67.81a231.45 231.45 0 0 1-60.238-65.4c-17.873-29.51-26.559-46.47-35.778-64.45-9.219-17.98-17.209-35.97-25.143-54.23-81.627-192.08-11.005-326.069 180.691-310.84 219.132 17.391 513.537 223.2 657.445 459.81 143.91 236.62 83.03 414.21-136.103 396.82a478.33 478.33 0 0 1-73.974-12.09 910.032 910.032 0 0 1-177.337-63.08 893.113 893.113 0 0 1-80.644-43.5c-15.55-9.49-35.853-22.94-50.962-33.2-9.019-6.12-20.493-14.89-29.259-21.28-14.34-10.52-18.601-14.11-52.924-43.42-7.952-6.73-17.987-16.41-25.642-23.48-.919-.53-20.934-19.44-50.276-51.89-15.854-17.63-36.566-42.75-49.819-60.82-23.881-32.37-32.2-45.54-50.275-74.35Z" />
    <path
      d="M323.821 1473.13a226.01 226.01 0 0 1-76.618-98.03c144.087 236.31 438.621 442.6 657.448 459.82a518.666 518.666 0 0 1-171.482-75.53c-136.625-10.89-319.726-138.96-409.348-286.26Z" />
    <path d="M266.223 1412.01c126.83 208.38 386.221 389.78 579.299 405.09" />
    <path d="M439.43 1610.42c-9.962 3.64-12.199-1.32-6.469-14.96M586.352 1713.11c20.666 25.45 50 42.39 82.38 47.56" />
    <path
      d="M830.764 1822.68c-207.527-50.4-455.327-236.86-583.518-447.66a216.245 216.245 0 0 0 16.336 32.71 921.309 921.309 0 0 0 105.113 140.62c13.116 14.41 31.545 32.7 45.212 46.52 7.555 7.42 18.096 16.57 25.904 23.73 10.441 9.5 41.163 34.79 54.596 44.59 10.962 8.06 25.673 19.01 37.022 26.58 15.229 10.22 35.994 23.23 51.666 32.69 0 0 31.463 18.88 70.319 37.33 35.738 16.96 65.272 28.39 83.654 34.92a917.674 917.674 0 0 0 93.696 27.97Z" />
    <path
      d="M408.634 1226.16a1211.096 1211.096 0 0 1-25.279-247.952C164.222 960.817 103.12 1138.79 247.206 1375.1a226.112 226.112 0 0 0 76.573 98.11c-89.501-147.33-51.617-257.85 84.855-247.05Z" />
    <path
      d="M263.586 1407.73c-13.594-22.96-20.812-34.68-34.224-61.31-11.132-21.74-19.078-39.8-26.698-57.37a656.1 656.1 0 0 0 44.587 85.97 217.176 217.176 0 0 0 16.335 32.71ZM904.696 1834.84l82.955-522.23c92.639 7.34 118.459-67.79 57.599-167.85l-4.54 293.42c144.04 236.39 83.12 414.05-136.014 396.66Z" />
    <path
      d="m1041.1 1438.2 4.54-293.41c-60.893-99.98-185.38-187.064-278.016-194.407l-383.697 28.063C602.48 995.604 896.885 1201.41 1041.1 1438.2ZM855.124 1217.52l111.6-166.07M619.306 1052.58l247.717-70.842" />
    <path
      d="m383.349 978.211 383.697-28.062c-92.637-7.343-118.455 67.791-57.559 167.771L247.201 1375.1c-144.087-236.31-82.984-414.28 136.148-396.889Z" />
    <path
      d="M1117.44 1641.93c-5.8-59.09-30.82-128.55-76.79-203.99-144.088-236.31-438.623-442.602-657.449-459.817a336.003 336.003 0 0 0-49.518-.516l412.368-27.332a131.153 131.153 0 0 1 21.096.236c92.637 7.343 216.991 94.659 278.023 194.409a211.131 211.131 0 0 1 31.98 86.04l40.29 410.97Z" />
    <path
      d="m247.213 1375.1 462.472-256.98c60.851 100.06 185.261 187.1 277.974 194.49l-82.999 522.31c-219.165-17.52-513.361-223.51-657.447-459.82ZM432.97 1595.46l355.325-384.17M668.871 1760.44l219.086-479.37M904.704 1834.84l82.955-522.23c92.631 7.34 118.451-67.79 57.601-167.85l-4.54 293.42c144.04 236.39 83.12 414.05-136.016 396.66ZM1069.38 1792.21l-12.03-497.76M1118.28 1649.86l-40.29-415.56" />
    <path
      d="m1077.67 1230.95 39.97 410.99c12.16 126.05-63.65 204.67-213.279 192.6-218.871-17.14-513.067-223.13-657.153-459.44l462.472-256.98c60.851 100.06 185.261 187.1 277.974 194.49 63.116 4.89 95.176-28.35 90.016-81.66ZM383.353 978.211l383.697-28.062c-92.637-7.343-118.455 67.791-57.559 167.771L247.205 1375.1c-144.087-236.31-82.984-414.28 136.148-396.889ZM218.726 1020.77l478.952-52.486M169.818 1163.11l507.17-134.6" />
    <path
      d="m333.834 977.694 412.367-27.332c-75.278 5.027-92.645 75.948-36.615 167.918L247.203 1375.1c-132.447-217.75-91.446-385.479 86.631-397.406ZM1319.76 803.671a516.409 516.409 0 0 1 10.85 104.977c92.64 7.343 118.41-67.711 57.56-167.767a96.65 96.65 0 0 0-32.67-41.727c38.01 62.366 21.93 109.127-35.74 104.517Z" />
    <path d="M1329.27 872.958c81.69 6.329 104.3-59.724 50.66-147.862" />
    <path
      d="M1355.51 699.15a96.694 96.694 0 0 1 32.36 41.549c-60.79-99.815-185.23-186.974-277.78-194.47a218.87 218.87 0 0 1 72.72 31.773c57.46 4.796 134.96 59.036 172.7 121.148Z" />
    <path d="M1379.93 725.095c-53.61-88.017-163.28-164.704-244.87-171.186" />
    <path d="M1307.12 641.512c4.17-1.571 5.12.506 2.71 6.263M1244.67 597.798a56.716 56.716 0 0 0-34.83-20.112" />
    <path
      d="M1381.01 726.94a378.25 378.25 0 0 0-44.47-59.466 395.707 395.707 0 0 0-53.06-48.496 402.63 402.63 0 0 0-37.51-25.025s-13.39-7.736-29.71-15.725a380.557 380.557 0 0 0-75.04-26.684c87.76 21.268 192.51 100.116 246.8 189.244a282.611 282.611 0 0 1 18.81 36.379 374.233 374.233 0 0 0-25.82-50.227ZM1268.42 670.713a389.013 389.013 0 0 0-121.64 11.948c37.67 62.583 115.32 116.396 172.99 121.007a421.349 421.349 0 0 0-51.35-132.955Z" />
    <path
      d="M1230.59 670.105c13.05 21.419 39.66 40.047 59.41 41.55M1190.04 674.049c25.66 42.178 78.16 78.915 117.22 81.973" />
    <path
      d="M1268.42 670.713c-19.37 17.294-43.95 40.772-72.89 70.206M1268.42 670.713a410.515 410.515 0 0 1-10.87 113.773M1268.42 670.711a421.334 421.334 0 0 1 51.35 132.954c57.67 4.61 73.75-42.152 35.9-104.429a166.587 166.587 0 0 0-87.25-28.525Z" />
    <path
      d="M1290.14 711.425c19.73 1.185 25.38-14.438 12.33-35.857M1307.22 756.097c39.03 3.135 49.88-28.573 24.29-70.706" />
    <path d="M1268.42 670.713a443.853 443.853 0 0 1 94.53 121.644" />
    <path
      d="M1268.42 670.716a341.767 341.767 0 0 1 107.55 84.244M1268.42 670.712a166.548 166.548 0 0 1 87.09 28.438c-37.67-62.583-115.4-116.441-173.03-120.93a291.88 291.88 0 0 1 85.94 92.492Z" />
    <path d="M1302.33 675.796c-12.97-21.374-39.62-39.926-59.41-41.549" />
    <path d="M1331.5 685.393c-25.67-42.178-78.16-78.916-117.23-81.974" />
    <path d="M1268.42 670.714a179.48 179.48 0 0 1 38.7-29.204M1268.42 670.711c-2.51-32.074-10.21-56.934-23.75-72.916" />
    <path
      d="M1268.42 670.714a291.711 291.711 0 0 0-85.61-92.71c-57.67-4.61-73.74 42.152-35.85 104.352a388.968 388.968 0 0 1 121.46-11.642Z" />
    <path
      d="M1242.92 634.248c-19.73-1.185-25.31 14.482-12.33 35.857M1214.28 603.417c-39.03-3.135-49.96 28.529-24.29 70.706" />
    <path d="M1268.42 670.715a427.1 427.1 0 0 0-129.2-81.226" />
    <path
      d="M1268.42 670.714a436.305 436.305 0 0 0-142.1-43.661M1146.78 682.663a636.507 636.507 0 0 0-94.33 31.489c60.85 100.057 185.3 187.018 278.02 194.405a517.11 517.11 0 0 0-10.85-104.976c-57.52-4.522-134.99-58.641-172.84-120.918Z" />
    <path d="M1115.86 691.143c45.92 75.515 139.89 141.199 209.78 146.741" />
    <path d="M1084.37 701.648c53.65 88.138 163.23 164.781 244.91 171.308" />
    <path
      d="M1195.66 740.689c-19.94 20.033-41.68 42.492-64.64 66.7M1257.55 784.488a788.663 788.663 0 0 1-27.05 92.998M1319.77 803.665a516.416 516.416 0 0 1 10.85 104.977c92.64 7.343 118.41-67.711 57.56-167.767a96.703 96.703 0 0 0-32.66-41.727c38 62.366 21.92 109.128-35.75 104.517Z" />
    <path d="M1325.63 837.884c69.97 5.586 89.46-51.15 43.49-126.589" />
    <path d="M1329.28 872.955c81.69 6.329 104.31-59.725 50.66-147.863" />
    <path
      d="M1362.95 792.355a419.258 419.258 0 0 1 36.97 98.108M1375.96 754.957a274.11 274.11 0 0 1 44.75 75.444M1355.51 699.152a96.694 96.694 0 0 1 32.36 41.549c-60.79-99.815-185.23-186.974-277.78-194.47a218.87 218.87 0 0 1 72.72 31.773c57.46 4.796 134.96 59.036 172.7 121.148Z" />
    <path d="M1368.97 711.207c-45.93-75.515-139.89-141.2-209.79-146.741" />
    <path d="M1379.94 725.095c-53.61-88.017-163.27-164.704-244.87-171.186" />
    <path
      d="M1307.13 641.508c4.17-1.571 5.12.506 2.71 6.263M1244.67 597.798a56.716 56.716 0 0 0-34.83-20.112M1182.81 578.003a218.886 218.886 0 0 0-72.71-31.772c-92.64-7.343-118.459 67.787-57.56 167.767a636.12 636.12 0 0 1 94.33-31.489c-37.98-62.048-21.91-108.809 35.94-104.506Z" />
    <path d="M1159.38 564.476c-70.01-5.509-89.5 51.227-43.53 126.665" />
    <path d="M1135.07 553.905c-81.69-6.329-104.31 59.725-50.7 147.742" />
    <path d="M1139.22 589.485a386.783 386.783 0 0 0-98.82-25.101M1126.31 627.052a490.107 490.107 0 0 0-106.68-2.285" />
    <path
      d="M1406.83 777.168c34.73 81.299 4.64 137.834-75.99 131.609-92.71-7.387-216.99-94.655-278.01-194.405a636.24 636.24 0 0 0 0 0c-61.282-100.201-35.46-175.331 57.26-168.142 10.53.901 20.96 2.627 31.22 5.162a395.452 395.452 0 0 1 39.68 11.887 385.02 385.02 0 0 1 45.72 19.657 397.082 397.082 0 0 1 69.01 45.254 418.382 418.382 0 0 1 33.78 31.139 396.384 396.384 0 0 1 30.37 35.806 390.03 390.03 0 0 1 46.96 82.033Z" />
    <path
      d="m1330.6 908.324 383.7-28.063c219.23 17.754 280.33-160.218 136.24-396.529l-462.51 257.054c60.85 100.057 35.08 175.11-57.43 167.538ZM1400.06 890.552l478.95-52.486M1420.7 830.399l507.22-134.679" />
    <path
      d="m1388.02 740.788 462.52-257.054c-144.09-236.311-438.36-442.346-657.49-459.737l-82.96 522.232c92.55 7.496 217 94.655 277.93 194.559ZM1309.46 647.551l355.32-384.171M1209.75 577.838l219.2-479.398" />
    <path
      d="m1110.1 546.23 82.95-522.233c-219.13-17.39-280.056 160.274-136.18 396.77l-4.54 293.416c-60.775-100.013-34.96-175.143 57.77-167.953ZM1040.41 564.384l-12.03-497.753M1019.72 624.613l-40.2-415.715" />
    <path
      d="M1351.36 908.781c75.28-5.026 92.65-75.95 36.66-167.991-60.94-99.904-185.38-187.063-277.93-194.559-63.07-4.974-95.2 28.229-90.05 81.533l-39.506-410.722C967.992 90.774 1043.81 12.149 1193.05 23.998c219.13 17.391 513.4 223.427 657.49 459.738 132.41 217.628 91.49 385.404-86.51 397.375l-41.2 2.755-20.67 1.334-41.25 2.832-41.27 2.711-20.6 1.377-41.24 2.832-41.32 2.788-20.6 1.377-41.32 2.788-41.45 3.017-20.65 1.455-41.1 2.404Z" />
    <path
      d="m1052.44 714.148 4.42-293.382c144.09 236.311 438.62 442.599 657.45 459.813l-383.72 27.745c-92.84-7.157-217.3-94.119-278.15-194.176ZM1131.01 807.385l111.6-166.068M1230.72 877.099l247.79-70.797" />
    <path
      d="m1330.59 908.324 383.7-28.063c219.23 17.754 280.33-160.218 136.24-396.529l-462.51 257.054c60.85 100.057 35.07 175.11-57.43 167.538Z" />
    <path
      d="m1763.9 881.14-41.19 2.755-20.68 1.334-41.24 2.832-41.28 2.711-20.6 1.377-41.24 2.832-41.2 2.755-20.6 1.378-41.32 2.788-41.45 3.017-20.64 1.454-41.28 2.711c-6.87.23-13.75-.025-20.59-.76-92.71-7.387-216.99-94.655-278.01-194.405l4.28-293.153c144.09 236.311 438.62 442.599 657.45 459.813a335.894 335.894 0 0 0 49.59.561Z" />
    <path
      d="m1110.1 546.228 82.95-522.233C973.92 6.605 912.994 184.27 1056.87 420.766l-4.54 293.415c-60.775-100.013-34.96-175.143 57.77-167.953Z" />
    <path
      d="m1019.96 627.914-39.421-410.875c5.341 58.821 30.441 128.333 76.331 203.727l-4.54 293.415a210.682 210.682 0 0 1-32.37-86.267ZM1850.54 483.734a226.038 226.038 0 0 0-76.57-98.109c-89.67-147.216-272.54-275.153-409.16-286.046a520.46 520.46 0 0 0-171.76-75.582c219.14 17.39 513.41 223.426 657.49 459.737Z" />
    <path d="M1831.48 446.905C1704.69 238.446 1445.3 57.041 1252.23 41.729" />
    <path d="M1428.88 98.396a133.853 133.853 0 0 1 82.46 47.607" />
    <path
      d="M1894.84 569.131c-13.33-29.951-15.15-33.863-26.46-56.721-3.75-7.474-13.39-25.599-22.14-40.858a919.649 919.649 0 0 0-62.4-94.723 894.203 894.203 0 0 0-72.18-84.854c-8.24-8.535-19.21-19.768-27.99-27.9-15.28-14.027-36.04-32.344-51.87-45.77-7.72-6.603-18.39-15.006-26.62-21.085-34.53-25.242-34.53-25.242-54.23-38.149a929.026 929.026 0 0 0-82.53-47.65c-20.62-10.268-30.92-15.402-44.47-21.285-30.03-13.05-34.21-14.648-63.5-25.635-11.12-4.074-26.19-9.097-37.54-12.59-25.2-7.81-27.73-8.557-55.31-15.599 207.4 50.63 454.77 236.938 582.94 447.42a670.763 670.763 0 0 1 44.3 85.399ZM1056.87 420.765a1502.426 1502.426 0 0 1 223.05-74.263c89.59 147.172 272.84 275.329 409.19 286.167a1217.097 1217.097 0 0 1 25.28 247.954c-218.9-17.259-513.54-223.197-657.52-459.858Z" />
    <path d="M1132.22 391.381c126.83 208.382 386.22 389.787 579.3 405.099" />
    <path d="M1206.71 366.504c108.7 178.618 330.95 333.99 496.35 347.205" />
    <path
      d="M1242.61 641.315c54.24-56.987 105.75-110.137 152.88-157.649M1478.43 806.258a1792.834 1792.834 0 0 0 63.86-219.869M1850.54 483.73a226.038 226.038 0 0 0-76.57-98.109c-89.67-147.216-272.54-275.152-409.17-286.046a520.409 520.409 0 0 0-171.75-75.582c219.13 17.39 513.4 223.426 657.49 459.737Z" />
    <path d="M1831.48 446.903C1704.69 238.444 1445.3 57.039 1252.23 41.727" />
    <path d="M1805.92 414.077c-108.7-178.617-330.95-333.99-496.4-347.128" />
    <path
      d="M1428.88 98.388a133.852 133.852 0 0 1 82.46 47.607M1193.05 23.993a520.318 520.318 0 0 1 171.75 75.582c-136.58-10.97-174.35 99.722-84.77 247.09a1503.054 1503.054 0 0 0-223.16 74.098C912.991 184.267 973.917 6.602 1193.05 23.993Z" />
    <path d="M1252.23 41.724C1059.15 26.412 1005.39 183 1132.25 390.987" />
    <path d="M1309.53 66.951c-165.45-13.138-211.44 120.983-102.82 299.557" />
    <path
      d="M1028.37 66.63a912.726 912.726 0 0 1 233.8 59.345M979.515 208.897a1157.145 1157.145 0 0 1 252.005 5.541M1279.92 346.502c105.39-25.716 202.29-35.307 287.79-28.511a993.776 993.776 0 0 1 121.22 314.985c-135.79-10.924-319.42-139.302-409.01-286.474Z" />
    <path d="M1382.51 325.807c60.68 99.65 184.67 186.346 276.99 193.709" />
    <path
      d="M1395.49 483.667c68.76-69.226 126.76-124.957 172.35-165.908M1773.92 385.697c-51.26-38.169-120.67-60.99-205.85-67.806-56.56-92.274-124.87-165.805-203.27-218.317 136.63 10.894 319.5 138.831 409.12 286.123Z" />
    <path d="M1716.65 352.636c-60.6-99.605-184.59-186.302-276.91-193.665" />
    <path
      d="M1364.8 99.574c78.55 52.6 146.86 126.131 203.06 218.502-85.5-6.795-182.4 2.796-287.79 28.512-89.78-147.381-51.85-257.985 84.73-247.014Z" />
    <path
      d="M1439.74 158.969c-92.36-7.287-117.7 67.714-57.23 166.836M1507.52 231.994c-46.75-3.717-59.76 34.199-29.04 84.601" />
    <path d="M1262.18 125.972a1010.892 1010.892 0 0 1 305.53 192.017" />
    <path d="M1231.75 214.568a1034.28 1034.28 0 0 1 335.96 103.42" />
    <path
      d="M1834.16 451.102a923.54 923.54 0 0 1 60.68 118.028c82.04 192.425 11.44 326.734-180.45 311.493-218.9-17.259-513.54-223.197-657.53-459.858 72.3-30.54 146.88-55.37 223.05-74.263 105.4-25.716 202.3-35.307 287.8-28.511-85.5-6.796-182.4 2.795-287.8 28.511a1503.313 1503.313 0 0 0-223.05 74.263C912.778 184.454 973.836 6.559 1192.97 23.95a486.898 486.898 0 0 1 74.51 12.394 937.468 937.468 0 0 1 93.1 27.927c18.61 6.662 48.45 17.76 83.73 34.969 38.94 18.496 70.32 37.332 70.32 37.332 15.93 9.194 36.4 22.543 51.67 32.688 11.35 7.573 26.06 18.516 37.1 26.625a914.592 914.592 0 0 1 230.61 255.644l.15-.427Z" />
  </g>
</svg>