<svg width="48" height="48" viewBox="0 0 48 48" fill="none" xmlns="http://www.w3.org/2000/svg">
  <g clip-path="url(#clip0_4894_123561)">
    <path d="M42.2857 0H5.71429C2.56 0 0 2.56 0 5.71429V42.2857C0 45.44 2.56 48 5.71429 48H42.2857C45.44 48 48 45.44 48 42.2857V5.71429C48 2.56 45.44 0 42.2857 0ZM2.28571 5.71429C2.28571 3.81714 3.81714 2.28571 5.71429 2.28571H11.4286V11.4286H2.28571V5.71429ZM2.28571 13.7143H11.4286V22.8571H2.28571V13.7143ZM34.2857 45.7143H25.1429V36.5714H34.2857V45.7143ZM45.7143 42.2857C45.7143 44.1829 44.1829 45.7143 42.2857 45.7143H36.5714V36.5714H45.7143V42.2857ZM45.7143 22.8571H40C39.36 22.8571 38.8571 23.36 38.8571 24C38.8571 24.64 39.36 25.1429 40 25.1429H45.7143V34.2857H36.5714V28.5714C36.5714 27.9314 36.0686 27.4286 35.4286 27.4286C34.7886 27.4286 34.2857 27.9314 34.2857 28.5714V34.2857H25.1429V25.1429H30.8571C31.4971 25.1429 32 24.64 32 24C32 23.36 31.4971 22.8571 30.8571 22.8571H25.1429V19.4286C25.1429 18.7886 24.64 18.2857 24 18.2857C23.36 18.2857 22.8571 18.7886 22.8571 19.4286V34.2857H17.1429C16.5029 34.2857 16 34.7886 16 35.4286C16 36.0686 16.5029 36.5714 17.1429 36.5714H22.8571V45.7143H13.7143V40C13.7143 39.36 13.2114 38.8571 12.5714 38.8571C11.9314 38.8571 11.4286 39.36 11.4286 40V45.7143H5.71429C3.81714 45.7143 2.28571 44.1829 2.28571 42.2857V36.5714H8C8.64 36.5714 9.14286 36.0686 9.14286 35.4286C9.14286 34.7886 8.64 34.2857 8 34.2857H2.28571V25.1429H11.4286V30.8571C11.4286 31.4971 11.9314 32 12.5714 32C13.2114 32 13.7143 31.4971 13.7143 30.8571V25.1429H14.8571C15.4971 25.1429 16 24.64 16 24C16 23.36 15.4971 22.8571 14.8571 22.8571H13.7143V13.7143H19.4286C20.0686 13.7143 20.5714 13.2114 20.5714 12.5714C20.5714 11.9314 20.0686 11.4286 19.4286 11.4286H13.7143V2.28571H22.8571V8C22.8571 8.64 23.36 9.14286 24 9.14286C24.64 9.14286 25.1429 8.64 25.1429 8V2.28571H34.2857V11.4286H28.5714C27.9314 11.4286 27.4286 11.9314 27.4286 12.5714C27.4286 13.2114 27.9314 13.7143 28.5714 13.7143H34.2857V19.4286C34.2857 20.0686 34.7886 20.5714 35.4286 20.5714C36.0686 20.5714 36.5714 20.0686 36.5714 19.4286V13.7143H45.7143V22.8571ZM45.7143 11.4286H36.5714V2.28571H42.2857C44.1829 2.28571 45.7143 3.81714 45.7143 5.71429V11.4286ZM24.8 11.7486C24.5257 11.4743 24.16 11.36 23.7943 11.4286C23.4286 11.4971 23.1086 11.7486 22.9486 12.0914L12.7771 34.72L4.96 41.4171C4.48 41.8286 4.43429 42.56 4.84571 43.0171C5.07429 43.2914 5.39429 43.4057 5.71429 43.4057C5.96571 43.4057 6.24 43.3143 6.44571 43.1314L14.4457 36.2743C14.5829 36.16 14.6743 36.0229 14.7429 35.8857L24.3429 14.5371L34.6057 24.8C35.04 25.2343 35.7714 25.2343 36.2286 24.8L43.0857 17.9429C43.52 17.5086 43.52 16.7771 43.0857 16.32C42.6514 15.8629 41.92 15.8857 41.4629 16.32L35.4057 22.3771L24.7771 11.7486H24.8Z" fill="black"/>
  </g>
  <defs>
    <clipPath id="clip0_4894_123561">
      <rect width="48" height="48" fill="white"/>
    </clipPath>
  </defs>
</svg>
