<svg width="48" height="40" viewBox="0 0 48 40" fill="none" xmlns="http://www.w3.org/2000/svg">
    <g clip-path="url(#clip0_172_2819)">
    <path d="M24 18.7824C21.12 18.7824 18.7826 16.445 18.7826 13.565C18.7826 10.685 21.12 8.34766 24 8.34766C26.88 8.34766 29.2174 10.685 29.2174 13.565C29.2174 16.445 26.88 18.7824 24 18.7824ZM24 10.4346C22.2678 10.4346 20.8696 11.8329 20.8696 13.565C20.8696 15.2972 22.2678 16.6955 24 16.6955C25.7322 16.6955 27.1304 15.2972 27.1304 13.565C27.1304 11.8329 25.7322 10.4346 24 10.4346Z" fill="black"/>
    <path d="M32.3478 27.1301H15.6522C15.0678 27.1301 14.6087 26.671 14.6087 26.0866C14.6087 20.911 18.8243 16.6953 24 16.6953C29.1757 16.6953 33.3913 20.911 33.3913 26.0866C33.3913 26.671 32.9322 27.1301 32.3478 27.1301ZM16.7791 25.0431H31.2417C30.7409 21.5162 27.6939 18.7823 24.0209 18.7823C20.3478 18.7823 17.3009 21.5162 16.7791 25.0431Z" fill="black"/>
    <path d="M11.4783 10.4348C8.59826 10.4348 6.26087 8.09739 6.26087 5.21739C6.26087 2.33739 8.59826 0 11.4783 0C14.3583 0 16.6957 2.33739 16.6957 5.21739C16.6957 8.09739 14.3583 10.4348 11.4783 10.4348ZM11.4783 2.08696C9.74609 2.08696 8.34783 3.48522 8.34783 5.21739C8.34783 6.94957 9.74609 8.34783 11.4783 8.34783C13.2104 8.34783 14.6087 6.94957 14.6087 5.21739C14.6087 3.48522 13.2104 2.08696 11.4783 2.08696Z" fill="black"/>
    <path d="M5.21739 25.0437C2.33739 25.0437 0 22.7063 0 19.8263C0 16.9463 2.33739 14.6089 5.21739 14.6089C8.09739 14.6089 10.4348 16.9463 10.4348 19.8263C10.4348 22.7063 8.09739 25.0437 5.21739 25.0437ZM5.21739 16.6958C3.48522 16.6958 2.08696 18.0941 2.08696 19.8263C2.08696 21.5585 3.48522 22.9567 5.21739 22.9567C6.94956 22.9567 8.34783 21.5585 8.34783 19.8263C8.34783 18.0941 6.94956 16.6958 5.21739 16.6958Z" fill="black"/>
    <path d="M11.4783 39.6521C8.59826 39.6521 6.26087 37.3147 6.26087 34.4347C6.26087 31.5547 8.59826 29.2173 11.4783 29.2173C14.3583 29.2173 16.6957 31.5547 16.6957 34.4347C16.6957 37.3147 14.3583 39.6521 11.4783 39.6521ZM11.4783 31.3042C9.74609 31.3042 8.34783 32.7025 8.34783 34.4347C8.34783 36.1669 9.74609 37.5651 11.4783 37.5651C13.2104 37.5651 14.6087 36.1669 14.6087 34.4347C14.6087 32.7025 13.2104 31.3042 11.4783 31.3042Z" fill="black"/>
    <path d="M36.5217 39.6521C33.6417 39.6521 31.3044 37.3147 31.3044 34.4347C31.3044 31.5547 33.6417 29.2173 36.5217 29.2173C39.4017 29.2173 41.7391 31.5547 41.7391 34.4347C41.7391 37.3147 39.4017 39.6521 36.5217 39.6521ZM36.5217 31.3042C34.7896 31.3042 33.3913 32.7025 33.3913 34.4347C33.3913 36.1669 34.7896 37.5651 36.5217 37.5651C38.2539 37.5651 39.6522 36.1669 39.6522 34.4347C39.6522 32.7025 38.2539 31.3042 36.5217 31.3042Z" fill="black"/>
    <path d="M42.7826 25.0437C39.9026 25.0437 37.5652 22.7063 37.5652 19.8263C37.5652 16.9463 39.9026 14.6089 42.7826 14.6089C45.6626 14.6089 48 16.9463 48 19.8263C48 22.7063 45.6626 25.0437 42.7826 25.0437ZM42.7826 16.6958C41.0504 16.6958 39.6522 18.0941 39.6522 19.8263C39.6522 21.5585 41.0504 22.9567 42.7826 22.9567C44.5148 22.9567 45.913 21.5585 45.913 19.8263C45.913 18.0941 44.5148 16.6958 42.7826 16.6958Z" fill="black"/>
    <path d="M36.5217 10.4348C33.6417 10.4348 31.3044 8.09739 31.3044 5.21739C31.3044 2.33739 33.6417 0 36.5217 0C39.4017 0 41.7391 2.33739 41.7391 5.21739C41.7391 8.09739 39.4017 10.4348 36.5217 10.4348ZM36.5217 2.08696C34.7896 2.08696 33.3913 3.48522 33.3913 5.21739C33.3913 6.94957 34.7896 8.34783 36.5217 8.34783C38.2539 8.34783 39.6522 6.94957 39.6522 5.21739C39.6522 3.48522 38.2539 2.08696 36.5217 2.08696Z" fill="black"/>
    <path d="M16.6957 11.4785C16.4243 11.4785 16.153 11.3741 15.9652 11.1654L13.8783 9.07847C13.4609 8.66108 13.4609 8.01413 13.8783 7.59673C14.2957 7.17934 14.9426 7.17934 15.36 7.59673L17.447 9.68369C17.8435 10.1011 17.8435 10.748 17.447 11.1654C17.2383 11.3741 16.9878 11.4785 16.7165 11.4785H16.6957Z" fill="black"/>
    <path d="M13.5652 20.8697H9.3913C8.80695 20.8697 8.34782 20.4105 8.34782 19.8262C8.34782 19.2418 8.80695 18.7827 9.3913 18.7827H13.5652C14.1496 18.7827 14.6087 19.2418 14.6087 19.8262C14.6087 20.4105 14.1496 20.8697 13.5652 20.8697Z" fill="black"/>
    <path d="M14.6087 32.3476C14.3374 32.3476 14.0661 32.2432 13.8783 32.0345C13.4609 31.638 13.4609 30.9702 13.8783 30.5528L15.9652 28.4658C16.3617 28.0693 17.0296 28.0693 17.447 28.4658C17.8643 28.8624 17.8435 29.5302 17.447 29.9476L15.36 32.0345C15.1513 32.2432 14.9009 32.3476 14.6296 32.3476H14.6087Z" fill="black"/>
    <path d="M33.3913 32.3477C33.12 32.3477 32.8487 32.2433 32.6609 32.0346L30.5739 29.9477C30.1774 29.5511 30.1774 28.8833 30.5739 28.4659C30.9704 28.0485 31.6383 28.0694 32.0557 28.4659L34.1426 30.5529C34.5391 30.9494 34.5391 31.6172 34.1426 32.0346C33.9339 32.2433 33.6626 32.3477 33.4122 32.3477H33.3913Z" fill="black"/>
    <path d="M38.6087 20.8697H34.4348C33.8504 20.8697 33.3913 20.4105 33.3913 19.8262C33.3913 19.2418 33.8504 18.7827 34.4348 18.7827H38.6087C39.193 18.7827 39.6522 19.2418 39.6522 19.8262C39.6522 20.4105 39.193 20.8697 38.6087 20.8697Z" fill="black"/>
    <path d="M31.3043 11.4785C31.033 11.4785 30.7617 11.3741 30.5739 11.1654C30.1774 10.748 30.1774 10.1011 30.5739 9.68369L32.6609 7.59673C33.0574 7.17934 33.7252 7.17934 34.1426 7.59673C34.56 8.01413 34.5391 8.66108 34.1426 9.07847L32.0556 11.1654C31.847 11.3741 31.5757 11.4785 31.3252 11.4785H31.3043Z" fill="black"/>
    </g>
    <defs>
    <clipPath id="clip0_172_2819">
    <rect width="48" height="39.6522" fill="white"/>
    </clipPath>
    </defs>
    </svg>
    