<svg width="700" height="700" viewBox="0 0 185.208 185.208" xmlns="http://www.w3.org/2000/svg">
  <g transform="translate(952.56 -1192.52)">
    <path
      d="M-172.91-1050.9c3.399-2.538 3-7.829 0-10.828l-36.204-36.204c-3-3-7.828-3-10.828 0l-58.717 58.615-58.638 58.536c-3.026 18.772-6.13 37.622-9.157 56.394l56.182-9.368c30.372-30.373 44.725-44.671 59.211-59.103 14.486-14.432 28.733-28.625 58.15-58.041z"
      fill="none" stroke="#000" stroke-linecap="round" stroke-linejoin="round" stroke-miterlimit="6.2"
      stroke-width="9.26" style="paint-order:normal" />
    <rect transform="scale(-.99999 -1) rotate(-45)" x="-601.16" y="865.36" width="11.067" height="67.307" ry="5.082"
      style="paint-order:normal" />
    <path d="m-312.87-925.23-32.298-32.298-1.276 33.122z" />
    <rect transform="scale(-.99999 -1) rotate(-45)" x="-467.45" y="865.78" width="11.067" height="67.307" ry="5.082"
      style="paint-order:normal" />
  </g>
  <g transform="translate(221.445 -535.31)">
    <ellipse cx="-352.56" cy="-1716.3" rx="5.334" ry="5.342" style="paint-order:normal" />
    <path d="M-352.56-1698.5v37.858" fill="none" stroke="#000" stroke-linecap="round" stroke-linejoin="round"
      stroke-width="9.26" />
    <path
      d="M-436.72-1743.3a3.806 3.806 0 0 0-3.808 3.822v103.57a3.807 3.807 0 0 0 3.808 3.823h23.241v36.286l71.375-36.286h73.718a3.807 3.807 0 0 0 3.808-3.823v-103.57a3.807 3.807 0 0 0-3.808-3.822z"
      fill="none" stroke="#000" stroke-linecap="round" stroke-linejoin="round" stroke-miterlimit="6.2"
      stroke-width="9.26" style="paint-order:normal" />
  </g>
  <g fill="none" stroke="#000" stroke-linecap="round" stroke-linejoin="round" stroke-width="9.26">
    <path
      d="M-1049.4-945.2h41.122l69.633-108.8h65.031M-873.6-1054l-39.659-19.993M-873.6-1054l-39.659 19.993M-873.6-945.2l-39.659-19.993M-873.6-945.2l-39.659 19.993" />
    <path d="M-1049.4-1054h41.122l69.633 108.8h65.031" />
  </g>
  <g fill="none" stroke="#000" stroke-linecap="round" stroke-linejoin="round" stroke-width="9.26">
    <path
      d="M-867.12-414.19h104.67a6.063 6.063 0 0 1 6.088 6.065v144.09a6.063 6.063 0 0 1-6.088 6.065h-104.67a6.063 6.063 0 0 1-6.088-6.065v-144.09a6.063 6.063 0 0 1 6.088-6.065z"
      stroke-miterlimit="6.2" style="paint-order:normal" transform="translate(-152.69 -1062.22)" />
    <path
      d="M-1025.45-1490.82h116.32M-1000.52-1456.23v115.87M-967.47-1456.23v115.87M-934.42-1456.23v115.87M-984.38-1496.13h34.159" />
  </g>
  <g fill="none" stroke="#000" stroke-linecap="round" stroke-linejoin="round" stroke-width="9.26">
    <path d="M-508.09-666.26v50.635c0 1.264-.843 2.28-1.89 2.28h-172.17c-1.047 0-1.89-1.016-1.89-2.28v-50.635"
      stroke-miterlimit="6.2" style="paint-order:normal" transform="translate(-1598.03 -706.15)" />
    <path d="M-2194.1-1496.792v150.83M-2194.1-1345.96l-43.482-44.424M-2194.1-1345.96l43.482-44.424" />
  </g>
  <g fill="none" stroke="#000" stroke-linecap="round" stroke-linejoin="round" stroke-width="9.26">
    <path d="M-1798.37-1320.28v-175.78M-1763.23-1320.18h-70.286M-1763.22-1496.16h-70.286" />
  </g>
  <g fill="none" stroke="#000" stroke-linecap="round" stroke-linejoin="round" stroke-width="9.26">
    <path d="M-610.33-2204.83h175.82M-610.33-2264.03h175.82M-610.33-2145.63h175.82" />
  </g>
  <g fill="none" stroke="#000" stroke-linecap="round" stroke-linejoin="round" stroke-width="6.482">
    <path d="M-127.05-111.19v84.94h-97.204v-120.69h59.76" stroke-miterlimit="6.2" style="paint-order:normal"
      transform="matrix(1.4022 0 0 1.4556 338.906 218.635)" />
    <path
      d="M-128.34-109.95h-36.15c-.717 0-1.294-.551-1.294-1.235v-34.51c0-.685.577-1.236 1.294-1.236l37.444 35.745c0 .685-.577 1.236-1.294 1.236z"
      style="paint-order:normal" transform="matrix(1.4022 0 0 1.4556 338.906 218.635)" />
  </g>
  <g fill="none" stroke="#000" stroke-linecap="round" stroke-linejoin="round">
    <g stroke-width="8.073">
      <path d="M1064-145.82v108.35H945.63v-153.95h72.773" stroke-miterlimit="6.2" style="paint-order:normal"
        transform="matrix(1.15128 0 0 1.14296 -1679.293 -1277.333)" />
      <path
        d="M1062.5-144.25h-44.021a1.572 1.572 0 0 1-1.576-1.576v-44.02c0-.874.703-1.577 1.576-1.577l45.597 45.597c0 .873-.703 1.576-1.576 1.576z"
        style="paint-order:normal" transform="matrix(1.15128 0 0 1.14296 -1679.293 -1277.333)" />
    </g>
    <path d="M-203.73-65.836h56.15M-203.73-86.588h56.15M-203.73-45.084h56.15" stroke-width="6.618"
      transform="matrix(1.4034 0 0 1.3953 -274.77 -1289.32)" />
  </g>
  <g fill="none" stroke="#000" stroke-linejoin="round">
    <path d="M-1479.3-1348.6h131.96l43.987 43.987v131.96h-175.95v-175.95z" stroke-width="9.26"
      style="paint-order:normal" transform="translate(848.77 -518.76)" />
    <path stroke-width="9.26" style="paint-order:normal" d="M-1427.7-1348.6h72.677v47.425h-72.677z"
      transform="translate(848.77 -518.76)" />
    <path d="M-528.63-1851.66v15.495" stroke-linecap="round" stroke-width="9.26" />
    <g stroke-width="8.037">
      <path style="paint-order:normal" d="M-3414 67.181h98.601v61.57H-3414z"
        transform="translate(3334.37 -1839.76) scale(1.1522)" />
      <g stroke-linecap="round">
        <path d="M-504.99-1739.73h-74.819M-504.99-1714.032h-74.819" stroke-width="9.2602314" />
      </g>
    </g>
  </g>
  <g fill="none" stroke="#000" stroke-linejoin="round" stroke-width="9.26">
    <path d="M-270.94-413.34v22.494m-104.46 0v-62.721h64.22" stroke-miterlimit="6.2" style="paint-order:normal"
      transform="translate(1470.57 -1839.22)" />
    <path
      d="M-272.33-411.95h-38.847c-.77 0-1.39-.62-1.39-1.39v-38.837c0-.77.62-1.39 1.39-1.39l40.238 40.226c0 .77-.62 1.39-1.39 1.39z"
      stroke-linecap="round" style="paint-order:normal" transform="translate(1470.57 -1839.22)" />
    <path d="M1206.64-2212.74h12.752" stroke-linecap="round" />
    <path d="M-374.82-325.25h-36.321v-64.504h175.95v64.504h-33.492" style="paint-order:normal"
      transform="translate(1470.57 -1839.22)" />
    <path d="M1117.23-2156.81h60.34M1117.23-2137.957h60.34" stroke-linecap="round" />
    <path style="paint-order:normal" d="M-204.64-89.977h106.13v61.087h-106.13z"
      transform="translate(1298.97 -2087.95)" />
  </g>
  <g fill="none" stroke="#000" stroke-linecap="round" stroke-linejoin="round" stroke-width="9.26">
    <path d="m-1886.29-561.24 175.85-175.85M-1886.29-737.097l175.85 175.85" />
  </g>
  <g transform="translate(482.3 -865.12)" fill="none" stroke="#000" stroke-linecap="round" stroke-linejoin="round"
    stroke-width="9.26">
    <ellipse transform="scale(.9999 1.00009) rotate(-45)" cx="-344.67" cy="-2283.1" rx="57.372" ry="56.435"
      style="paint-order:normal" />
    <path d="m-1738.9-1251.8-79.106-79.12" />
  </g>
  <path d="M-925.98-1197h-35.149v-18.316h35.149z" fill="none" stroke="#000" stroke-linecap="round"
    stroke-linejoin="round" stroke-miterlimit="6.2" stroke-width="9.26" style="paint-order:normal"
    transform="translate(1230.33 -652.05)" />
  <g fill="none" stroke="#000" stroke-linecap="round" stroke-linejoin="round" stroke-miterlimit="6.2"
    stroke-width="9.26">
    <path d="M-80.133-22.106h-142.87v-157.63h142.87z" style="paint-order:normal"
      transform="translate(438.34 -1669.35)" />
    <path d="M-106.55-167.14h-90.033v-6.89h90.033z" style="paint-order:normal" transform="translate(438.34 -1669.35)" />
  </g>
  <g fill="none" stroke="#000" stroke-linecap="round" stroke-linejoin="round" stroke-width="7.957">
    <path d="M-3788.4-212.56h68.377M-3788.4-237.18h68.377M-3788.4-187.93h68.377M-3789-163.31h68.377"
      transform="matrix(1.1649 0 0 1.1627 4660.53 -1532.6)" />
  </g>
  <g transform="translate(-1540.73 -705.2)" fill="none" stroke="#000" stroke-linecap="round" stroke-linejoin="round">
    <ellipse transform="matrix(.50751 -.86165 .87029 .49253 0 0)" cx="704.22" cy="-258.7" rx="23.977" ry="23.822"
      stroke-width="9.261" style="paint-order:normal" />
    <path d="m185.26-702.97-32.842-18.587" stroke-width="9.26" />
    <ellipse transform="matrix(.50751 .86165 .87029 -.49253 0 0)" cx="-519.54" cy="454.94" rx="23.977" ry="23.822"
      stroke-width="9.261" style="paint-order:normal" />
    <path d="m185.26-702.97-32.842 18.587M185.27-702.97l98.805-29.777M185.27-702.97l98.805 29.777"
      stroke-width="9.26" />
  </g>
  <g fill="none" stroke="#000" stroke-linecap="round" stroke-width=".657">
    <g transform="matrix(1.5227 0 0 1.5212 316.38 -1420.4)">
      <path d="M-1690.973 468.409v-19.234M-1690.973 564.743v-65.341" stroke-linejoin="round"
        stroke-width="6.08454626" />
      <circle cx="-1691" cy="483.92" r="15.502" stroke-linejoin="bevel" stroke-width="6.085"
        style="paint-order:normal" />
    </g>
    <g transform="matrix(1.5227 0 0 1.5212 318.89 -1420.4)">
      <path d="M-1650.36 512.303v-63.134M-1650.36 564.743v-21.44" stroke-linejoin="round" stroke-width="6.08454626" />
      <circle cx="-1650.4" cy="527.82" r="15.502" stroke-linejoin="bevel" stroke-width="6.085"
        style="paint-order:normal" />
    </g>
    <g transform="matrix(1.5227 0 0 1.5212 274.19 -1418.78)">
      <path d="M-1578.712 480.95v-32.845M-1578.712 563.684v-51.728" stroke-linejoin="round" stroke-width="6.08454626" />
      <circle cx="-1578.7" cy="496.46" r="15.502" stroke-linejoin="bevel" stroke-width="6.085"
        style="paint-order:normal" />
    </g>
  </g>
  <g fill="none" stroke="#000" stroke-linecap="round" stroke-linejoin="round" stroke-width="9.26">
    <path stroke-miterlimit="6.2" style="paint-order:normal" d="M-2262.1-1850.6h116.03v175.95h-116.03z"
      transform="translate(15.94 -16.73)" />
    <path d="M-2196.16-1779.43h132.04M-2064.16-1779.43l-38.889 38.051M-2064.16-1779.43l-38.889-38.051" />
  </g>
  <g fill="none" stroke="#000" stroke-linecap="round" stroke-linejoin="round" stroke-width="9.26">
    <path stroke-miterlimit="6.2" style="paint-order:normal" d="M-1895.2-1873.8h116.03v175.95h-116.03z"
      transform="translate(28.64 6.46)" />
    <path d="M-1684.46-1779.44h-132.04M-1816.56-1779.44l38.889 38.051M-1816.56-1779.44l38.889-38.051" />
  </g>
  <g fill="none" stroke="#000" stroke-linecap="round" stroke-linejoin="round" stroke-width="9.26">
    <path d="M-822.95-666.6v50.635c0 1.264-.843 2.28-1.89 2.28h-172.17c-1.047 0-1.89-1.016-1.89-2.28V-666.6"
      stroke-miterlimit="6.2" style="paint-order:normal" transform="translate(-1649.13 -705.8)" />
    <path d="M-2560.05-1345.948v-150.83M-2560.05-1496.78l-43.482 44.424M-2560.05-1496.78l43.482 44.424" />
  </g>
  <path d="M536.37-1001.22h175.78" fill="none" stroke="#000" stroke-linecap="round" stroke-linejoin="round"
    stroke-width="9.26" />
  <g fill="none" stroke="#000" stroke-linecap="round" stroke-linejoin="round" stroke-width="9.26">
    <path d="M157.11-1020.8h175.78M245-1108.69v175.78" />
  </g>
  <g transform="translate(-156.91 -990.22)" fill="none" stroke="#000" stroke-linecap="round" stroke-linejoin="round"
    stroke-width="9.26">
    <ellipse transform="scale(.9999 1.00009) rotate(-45)" cx="-840.6" cy="-2602.2" rx="57.372" ry="56.435"
      style="paint-order:normal" />
    <path d="m-2315.2-1126.7-79.106-79.12M-2472.2-1245.8h76.099M-2434.2-1283.8v76.099" />
  </g>
  <g transform="translate(307.531 -899.32)" fill="none" stroke="#000" stroke-linecap="round" stroke-linejoin="round"
    stroke-width="9.26">
    <ellipse transform="scale(.9999 1.00009) rotate(-45)" cx="-566.18" cy="-2456.3" rx="57.372" ry="56.435"
      style="paint-order:normal" />
    <path d="m-2018-1217.6-79.106-79.12M-2175-1336.6h76.099" />
  </g>
  <g transform="translate(236.72 -619.44)"><text x="-2507.133" y="-1592.797" font-family="sans-serif" font-size="64.968"
      letter-spacing="0" stroke-width=".265" word-spacing="0" style="line-height:3.3499999" xml:space="preserve" />
    <ellipse transform="scale(.9999 1.00009) rotate(-45)" cx="-598.09" cy="-2883.9" rx="57.372" ry="56.435" fill="none"
      stroke="#000" stroke-linecap="round" stroke-linejoin="round" stroke-width="9.26" style="paint-order:normal" />
    <path d="m-2342.9-1497.5-79.106-79.12" fill="none" stroke="#000" stroke-linecap="round" stroke-linejoin="round"
      stroke-width="9.26" />
  </g>
  <g fill="none" stroke="#000" stroke-linecap="round" stroke-linejoin="round" stroke-miterlimit="6.2"
    stroke-width="9.26">
    <path style="paint-order:normal" d="M228.71-496.78h153.95v153.95H228.71z" transform="translate(-2876.73 -218.37)" />
    <path d="M250.71-496.78v-22.001h153.95v153.95h-22.001" style="paint-order:normal"
      transform="translate(-2876.73 -218.37)" />
  </g>
  <g fill="none" stroke="#000" stroke-linecap="round" stroke-linejoin="round" stroke-width="9.26">
    <path
      d="M324.53-1342.499h-71.21c-61.035 0-61.035-93.208 5.202-93.208h125.55M384.08-1435.71l-38.889 38.051M384.08-1435.71l-38.889-38.051" />
  </g>
  <g fill="none" stroke="#000" stroke-linecap="round" stroke-linejoin="round" stroke-width="9.26">
    <path
      d="M-159.485-1342.52h71.21c61.035 0 61.035-93.208-5.202-93.208h-125.55M-219.025-1435.73l38.889 38.051M-219.025-1435.73l38.889-38.051" />
  </g>
  <g fill="none" stroke="#000" stroke-linecap="round" stroke-linejoin="round" stroke-width="9.26">
    <path d="m-1380.4-985.03-95.204 87.928M-1380.4-985.03l-95.204-87.928" />
  </g>
  <g fill="none" stroke="#000" stroke-linecap="round" stroke-linejoin="round" stroke-width="9.26">
    <path d="m-2607.56-1001.2 95.204 87.928M-2607.56-1001.2l95.204-87.928" />
  </g>
  <g fill="none" stroke="#000">
    <g stroke-linecap="round" stroke-linejoin="round" stroke-width="9.027">
      <path d="m-158.47 96.672 38.889 38.051M-158.47 96.672l38.889-38.051"
        transform="matrix(1.026 0 0 1.0256 -58.76 -1147.69)" />
    </g>
    <path
      d="M-221.39-980.11c0 27.681 16.681 52.636 42.264 63.229 25.583 10.593 55.031 4.738 74.611-14.836 19.58-19.573 25.438-49.01 14.841-74.584-10.597-25.574-35.13-42.246-62.821-42.246l-68.842.003"
      stroke-width="9.26" />
  </g>
  <path
    d="M-1515-863.95h-175.95l90.042-75.866zm-106.82 100.07h-46.533v-100.07h129.18v100.07h-46.533m-36.114-.118v-48.06h36.115v48.06"
    fill="none" stroke="#000" stroke-linecap="round" stroke-linejoin="round" stroke-width="9.26"
    style="paint-order:normal" transform="translate(244.17 202.68)" />
  <g fill="none" stroke="#000">
    <g stroke-linecap="round" stroke-linejoin="round" stroke-width="9.027">
      <path d="m-158.47 96.672 38.889 38.051M-158.47 96.672l38.889-38.051"
        transform="matrix(-1.026 0 0 1.0256 -683.145 -1181.49)" />
    </g>
    <path
      d="M-520.505-1013.91c0 27.681-16.681 52.636-42.264 63.229-25.583 10.593-55.031 4.738-74.611-14.836-19.58-19.573-25.438-49.01-14.841-74.584 10.597-25.574 35.13-42.246 62.821-42.246l68.842.003"
      stroke-width="9.26" />
  </g>
  <g transform="translate(3.22 -934.82)" fill="none" stroke="#000" stroke-linecap="round" stroke-linejoin="round"
    stroke-width="9.26">
    <circle transform="rotate(45)" cx="-690.9" cy="-1105.2" r="87.974" style="paint-order:normal" />
    <circle transform="rotate(45)" cx="-690.9" cy="-1105.2" r="59.536" style="paint-order:normal" />
    <path
      d="m335.03-1227.9 20.05 20.05M230.78-1332.2l20.05 20.05M250.83-1227.9l-20.05 20.05M355.08-1332.2l-20.05 20.05" />
  </g>
  <g transform="translate(-47.3 -955.82)" fill="none" stroke="#000" stroke-linecap="round" stroke-linejoin="round"
    stroke-width="9.26">
    <ellipse transform="rotate(-90.006) skewX(-.011)" cx="452.4" cy="693.55" rx="31.199" ry="31.635"
      style="paint-order:normal" />
    <path d="m837.76-452.34-112.59-.006M781.1-426.26l.006-26.058M799.03-430.78l.006-21.572M816.96-426.28l.006-26.058" />
  </g>
  <path transform="matrix(.62427 0 0 .62366 1139.52 -970.62)"
    d="m-112.51-183.04 38.32 95.424 102.6 6.957-78.912 65.932 25.088 99.723-87.09-54.676-87.09 54.676 25.088-99.723-78.912-65.932 102.6-6.957z"
    fill="none" stroke="#000" stroke-linecap="round" stroke-linejoin="round" stroke-width="14.841"
    style="paint-order:normal" />
  <g transform="translate(242.761 -1331.02)" fill="none" stroke="#000" stroke-linecap="round" stroke-linejoin="round">
    <ellipse transform="matrix(.50751 -.86165 .87029 .49253 0 0)" cx="518.3" cy="619.6" rx="23.977" ry="23.822"
      stroke-width="9.261" style="paint-order:normal" />
    <ellipse transform="matrix(.50751 -.86165 .87029 .49253 0 0)" cx="406.42" cy="684.84" rx="23.977" ry="23.822"
      stroke-width="9.261" style="paint-order:normal" />
    <ellipse transform="matrix(.50751 -.86165 .87029 .49253 0 0)" cx="525.33" cy="762.39" rx="23.977" ry="23.822"
      stroke-width="9.261" style="paint-order:normal" />
    <path d="m827.84-128.57 76.633 38.525M823.82-23.72l84.739-42.6" stroke-width="9.26" />
  </g>
  <g fill="none" stroke="#000" stroke-linecap="round" stroke-linejoin="round" stroke-width="9.26">
    <path d="m-2194.1-1048.791 87.928 95.204M-2194.1-1048.791l-87.928 95.204" />
  </g>
  <g fill="none" stroke="#000" stroke-linecap="round" stroke-linejoin="round" stroke-width="9.26">
    <path d="m-1829.21-955.359 87.928-95.204M-1829.21-955.359l-87.928-95.204" />
  </g>
  <g fill="none" stroke="#000" stroke-linecap="round" stroke-width="9.26">
    <g stroke-linejoin="round">
      <path d="m-964.65-649.16 95.204-62.484M-964.65-649.16l95.204 62.484" />
    </g>
    <path d="M-974.02-737.1v175.86" />
  </g>
  <g fill="none" stroke="#000" stroke-linecap="round" stroke-width="9.26">
    <g stroke-linejoin="round">
      <path d="m-512.84-649.167-95.204-62.484M-512.84-649.167l-95.204 62.484" />
    </g>
    <path d="M-503.54-737.1v175.86" />
  </g>
  <g transform="translate(1666.97 -473.24)" fill="none" stroke="#000" stroke-linecap="round" stroke-linejoin="round"
    stroke-width="9.26">
    <ellipse cx="-1833.9" cy="-222.46" rx="41.306" ry="41.449" style="paint-order:normal" />
    <path
      d="M-1921.6-88.029h175.41m-175.41 0a87.974 86.257 0 0 1-.268-6.724 87.974 86.257 0 0 1 87.974-86.257 87.974 86.257 0 0 1 87.974 86.257 87.974 86.257 0 0 1-.268 6.726" />
  </g>
  <path
    d="M67.944-879.66c-5.379-20.224-23.863-34.319-45.004-34.319-1.688 0-3.375.09-5.054.272m-39.874 34.013c-.523-.02-1.047-.03-1.57-.03-22.902 0-41.467 18.365-41.467 41.018 0 9.846 2.163 21.359 10.074 26.799 42.647 29.32 113.17 29.327 155.81 0 7.91-5.44 10.065-16.952 10.065-26.8 0-22.652-18.565-41.016-41.466-41.016-.524 0-1.047.01-1.57.03m-89.933.033c5.38-20.224 23.863-34.319 45.004-34.319 1.688 0 3.375.091 5.054.273M-429.93-2070.1h175.95v175.95h-175.95z"
    fill="none" stroke="#000" stroke-linecap="round" stroke-linejoin="round" stroke-width="9.26"
    style="paint-order:normal" transform="translate(244.17 202.68)" />
  <g fill="none" stroke="#000" stroke-linecap="round" stroke-linejoin="round" stroke-width="9.26">
    <path style="paint-order:normal"
      d="M-516.69-200.04h25.929v25.929h-25.929zM-462.98-200.04h25.929v25.929h-25.929zM-409.27-200.04h25.929v25.929h-25.929zM-516.69-142.89h25.929v25.929h-25.929zM-462.98-142.89h25.929v25.929h-25.929zM-409.27-142.89h25.929v25.929h-25.929z"
      transform="translate(352.24 -1620.92)" />
  </g>
  <path fill="none" stroke="#000" stroke-linecap="round" stroke-linejoin="round" stroke-width="9.26"
    style="paint-order:normal" d="M-429.93-2051.8h175.95v139.34h-175.95z" transform="translate(244.17 202.68)" />
  <g fill="none" stroke="#000" stroke-linecap="round" stroke-linejoin="round" stroke-width="9.26">
    <path stroke-miterlimit="6.2" style="paint-order:normal" d="M-1630.5-1101.3h116.03v175.95h-116.03z"
      transform="translate(178.799 -766.03)" />
    <path d="M-1517.801-1779.43h132.04M-1385.701-1779.43l-38.889 38.051M-1385.701-1779.43l-38.889-38.051" />
  </g>
  <g fill="none" stroke="#000" stroke-linecap="round" stroke-linejoin="round" stroke-width="9.26">
    <path stroke-miterlimit="6.2" style="paint-order:normal" d="M-2486.7-2693.8h116.03v175.95h-116.03z"
      transform="translate(1440.27 826.47)" />
    <path d="M-980.33-1779.43h-132.04M-1112.43-1779.43l38.889 38.051M-1112.43-1779.43l38.889-38.051" />
  </g>
  <g transform="translate(112.94 -229.92)">
    <path d="M510.39-419.25h99.06M510.39-478.44h99.06M510.39-360.07h99.06" fill="none" stroke="#000"
      stroke-linecap="round" stroke-linejoin="round" stroke-width="9.26" />
    <circle cx="491.24" cy="-478.44" r="4.63" style="paint-order:normal" />
    <circle cx="491.24" cy="-419.25" r="4.63" style="paint-order:normal" />
    <circle cx="491.24" cy="-360.07" r="4.63" style="paint-order:normal" />
    <path d="M433.62-419.25h38.456M433.62-478.44h38.456M433.62-360.07h38.456" fill="none" stroke="#000"
      stroke-linecap="round" stroke-linejoin="round" stroke-width="9.26" />
  </g>
  <path
    d="m-2550.33-1828.42-21.048-23.281h-35.36m-32.911 23.281 21.048-23.281h35.36m111.22 144.57h-175.95v-121.29h175.95v121.29z"
    fill="none" stroke="#000" stroke-linecap="round" stroke-linejoin="round" stroke-width="9.26" />
  <g fill="none" stroke="#000" stroke-linecap="round" stroke-linejoin="round" stroke-width="9.26">
    <path style="paint-order:normal" d="M744.32-2034.9h175.95v105.58H744.32z" transform="translate(244.17 202.68)" />
    <path d="m920.27-2034.9-175.96-.337 87.691 78.011z" style="paint-order:normal"
      transform="translate(244.17 202.68)" />
    <path d="m803.85-1981.9-59.539 52.967 175.96-.337-59.796-52.617-28.461 25.044z" style="paint-order:normal"
      transform="translate(244.17 202.68)" />
  </g>
  <path d="M-941.63-2138.92v-133.06h-42.622v155.07h61.812v-175.94h-83.077v153.94" fill="none" stroke="#000"
    stroke-width="9.26" />
  <g transform="translate(214.062 183.708)" fill="none" stroke="#000" stroke-linecap="round" stroke-linejoin="round"
    stroke-width="9.26">
    <path
      d="M763.42-840.02a150.89 154.11 0 0 1 50.689-8.957 150.89 154.11 0 0 1 50.686 8.956M744.76-872.99a187.69 191.7 0 0 1 69.355-13.568 187.69 191.7 0 0 1 69.338 13.561M726.19-905.84a224.49 229.29 0 0 1 87.901-18.308 224.49 229.29 0 0 1 87.923 18.318"
      style="paint-order:normal" />
    <ellipse cx="814.1" cy="-798.32" rx="18.761" ry="18.767" style="paint-order:normal" />
  </g>
</svg>