<svg width="22" height="24" viewBox="0 0 22 25" fill="none" xmlns="http://www.w3.org/2000/svg">
<path d="M16.3674 4.15142L15.1548 2.79883H5.60541C4.91645 2.79883 4.65018 3.31202 4.65018 3.71282V7.32305H5.98948V4.44282C5.98948 4.28966 6.11817 4.16037 6.26665 4.16037H13.0998C13.2503 4.16037 13.3255 4.18722 13.3255 4.31154V9.10529H18.1888C18.3798 9.10529 18.4541 9.20474 18.4541 9.34995V21.0558C18.4541 21.3005 18.3551 21.3373 18.2066 21.3373H6.26665C6.19302 21.3355 6.12297 21.305 6.07126 21.2523C6.01955 21.1996 5.99023 21.1288 5.98948 21.0548V19.9847H4.65908V21.6705C4.64127 22.2672 4.95803 22.6899 5.60541 22.6899H18.8678C19.5607 22.6899 19.7973 22.1856 19.7973 21.7262V7.95757L19.4509 7.57964L16.3664 4.15241L16.3674 4.15142ZM14.6866 4.31055L15.0697 4.74218L17.6394 7.57964L17.7809 7.7517H15.1548C14.9568 7.7517 14.8311 7.71888 14.7786 7.65225C14.7262 7.5876 14.6955 7.48317 14.6866 7.34095V4.31055ZM13.6076 13.4077H18.1383V14.7345H13.6066V13.4077H13.6076ZM13.6076 10.7562H18.1383V12.082H13.6066V10.7552L13.6076 10.7562ZM13.6076 16.0602H18.1383V17.3869H13.6066V16.0602H13.6076ZM1.98047 8.39418V19.0031H12.3396V8.39418H1.98047ZM7.16051 14.5644L6.52699 15.5371H7.16051V16.7226H3.97607L6.28645 13.2317L4.23938 10.0929H5.94989L7.1615 11.9189L8.37212 10.0929H10.0816L8.03062 13.2317L10.344 16.7226H8.56911L7.16051 14.5644Z" fill="currentColor"/>
</svg>
