<svg width="22" height="24" viewBox="0 0 22 24" fill="none" xmlns="http://www.w3.org/2000/svg">
<path fill-rule="evenodd" clip-rule="evenodd" d="M19.0438 6.66L14.5337 1.71L14.0525 1.5H3.4375L2.75 2.25V10.5H4.125V3H12.375V8.25L13.0625 9H17.875V10.5H19.25V7.2L19.0438 6.66ZM13.75 7.5V3L17.875 7.5H13.75ZM3.4375 12L2.75 12.75V21.75L3.4375 22.5H18.5625L19.25 21.75V12.75L18.5625 12H3.4375ZM17.875 19.5V21H4.125V13.5H17.875V19.5ZM6.875 18H6.435V19.5H5.5V15H6.9575C7.98875 15 8.51125 15.54 8.51125 16.5C8.51391 16.704 8.47595 16.9063 8.39998 17.0927C8.32402 17.2792 8.21186 17.4454 8.07125 17.58C7.7305 17.8698 7.30671 18.0185 6.875 18ZM6.7925 15.825H6.435V17.22H6.7925C7.2875 17.22 7.535 16.98 7.535 16.515C7.535 16.05 7.2875 15.825 6.7925 15.825ZM12.375 18.87C12.5781 18.6518 12.7369 18.3895 12.8411 18.1001C12.9453 17.8107 12.9926 17.5006 12.98 17.19C12.98 15.69 12.2513 15 10.78 15H9.3225V19.5H10.78C11.0708 19.5154 11.3616 19.4676 11.6354 19.3594C11.9092 19.2513 12.1606 19.0849 12.375 18.87ZM10.2437 18.675V15.825H10.6975C10.8729 15.8128 11.0487 15.8398 11.2142 15.9043C11.3797 15.9688 11.5314 16.0694 11.66 16.2C11.7765 16.3335 11.8671 16.4914 11.9262 16.6641C11.9852 16.8368 12.0116 17.0208 12.0037 17.205C12.0243 17.6004 11.9008 17.9886 11.66 18.285C11.5341 18.4164 11.3852 18.5187 11.2221 18.5857C11.0591 18.6527 10.8853 18.6831 10.7112 18.675H10.2437ZM16.3625 17.76H15.0288V19.5H14.0938V15H16.4862V15.825H15.0288V16.935H16.3625V17.76Z" fill="currentColor"/>
</svg>
