<svg width="24" height="24" viewBox="0 0 24 24" fill="none" xmlns="http://www.w3.org/2000/svg">
<path d="M3 4C3 3.44772 3.44772 3 4 3H20C20.5523 3 21 3.44772 21 4V6.58579C21 6.851 20.8946 7.10536 20.7071 7.29289L14.2929 13.7071C14.1054 13.8946 14 14.149 14 14.4142V17L10 21V14.4142C10 14.149 9.89464 13.8946 9.70711 13.7071L3.29289 7.29289C3.10536 7.10536 3 6.851 3 6.58579V4Z" stroke="#7A7B80" stroke-width="2" stroke-linecap="round" stroke-linejoin="round"/>
<path fill-rule="evenodd" clip-rule="evenodd" d="M21.9167 16.6695L21.3292 16.082L19 18.4112L16.6709 16.082L16.0834 16.6695L18.4125 18.9987L16.0834 21.3279L16.6709 21.9154L19 19.5862L21.3292 21.9154L21.9167 21.3279L19.5875 18.9987L21.9167 16.6695Z" fill="#7A7B80"/>
</svg>
