<svg width="47" height="48" viewBox="0 0 47 48" fill="none" xmlns="http://www.w3.org/2000/svg">
<g clip-path="url(#clip0_1762_260123)">
<rect y="11.9531" width="35.8494" height="35.8494" fill="#FDBD00"/>
<g filter="url(#filter0_d_1762_260123)">
<rect x="4.22656" y="6.06641" width="35.6516" height="37.6601" fill="white"/>
<rect x="4.22656" y="6.06641" width="35.6516" height="37.6601" stroke="white" stroke-width="0.147059"/>
</g>
<path d="M20.41 20.7127V24.0427H26.242V26.3827H20.41V30.9727H17.494V18.3727H27.016V20.7127H20.41Z" fill="#23252C"/>
<path d="M7.35199 37.8274V40.5039H7.15699V38.0033H6.50316V37.8274H7.35199ZM9.46081 39.1045C9.64434 39.1529 9.78581 39.2345 9.88522 39.3492C9.98718 39.4639 10.0382 39.6041 10.0382 39.7698C10.0382 40.0043 9.94767 40.1891 9.76669 40.3242C9.58571 40.4567 9.33718 40.523 9.02111 40.523C8.70758 40.523 8.46032 40.4567 8.27934 40.3242C8.10091 40.1891 8.01169 40.0043 8.01169 39.7698C8.01169 39.6016 8.06012 39.4614 8.15699 39.3492C8.2564 39.2345 8.39787 39.1529 8.5814 39.1045C8.42846 39.0535 8.3112 38.977 8.22963 38.8751C8.14807 38.7731 8.10728 38.6482 8.10728 38.5004C8.10728 38.2863 8.19012 38.118 8.35581 37.9957C8.5215 37.8708 8.74326 37.8083 9.02111 37.8083C9.29895 37.8083 9.52199 37.8708 9.69022 37.9957C9.85846 38.1206 9.94258 38.2888 9.94258 38.5004C9.94258 38.6457 9.90052 38.7706 9.8164 38.8751C9.73483 38.977 9.6163 39.0535 9.46081 39.1045ZM8.30228 38.5042C8.30228 38.6648 8.36473 38.7922 8.48963 38.8866C8.61709 38.9809 8.79424 39.028 9.02111 39.028C9.24797 39.028 9.42512 38.9821 9.55258 38.8904C9.68258 38.7961 9.74758 38.6686 9.74758 38.508C9.74758 38.3449 9.6813 38.2162 9.54875 38.1218C9.41875 38.025 9.24287 37.9766 9.02111 37.9766C8.79934 37.9766 8.62346 38.0237 8.49346 38.118C8.36601 38.2123 8.30228 38.3411 8.30228 38.5042ZM9.02111 40.3548C9.27856 40.3548 9.47993 40.3025 9.62522 40.198C9.77052 40.0935 9.84316 39.9508 9.84316 39.7698C9.84316 39.5914 9.77052 39.4499 9.62522 39.3454C9.47993 39.2409 9.27856 39.1886 9.02111 39.1886C8.7662 39.1886 8.56611 39.2409 8.42081 39.3454C8.27807 39.4499 8.20669 39.5914 8.20669 39.7698C8.20669 39.9508 8.27807 40.0935 8.42081 40.198C8.56356 40.3025 8.76365 40.3548 9.02111 40.3548ZM10.6522 40.5192C10.6089 40.5192 10.5707 40.5039 10.5375 40.4733C10.5069 40.4402 10.4916 40.4007 10.4916 40.3548C10.4916 40.3089 10.5069 40.2707 10.5375 40.2401C10.5707 40.2095 10.6089 40.1942 10.6522 40.1942C10.6956 40.1942 10.7325 40.2095 10.7631 40.2401C10.7962 40.2707 10.8128 40.3089 10.8128 40.3548C10.8128 40.4007 10.7962 40.4402 10.7631 40.4733C10.7325 40.5039 10.6956 40.5192 10.6522 40.5192ZM12.0524 37.8083C12.3991 37.8083 12.6642 37.9268 12.8477 38.1639C13.0338 38.3984 13.1268 38.7272 13.1268 39.1504C13.1268 39.4461 13.0771 39.6971 12.9777 39.9036C12.8808 40.1075 12.7432 40.2617 12.5647 40.3663C12.3863 40.4708 12.1773 40.523 11.9377 40.523C11.6853 40.523 11.4827 40.4771 11.3297 40.3854L11.41 40.2286C11.5375 40.3102 11.7134 40.351 11.9377 40.351C12.2461 40.351 12.4883 40.2516 12.6642 40.0527C12.8426 39.8514 12.9318 39.5608 12.9318 39.181C12.9318 39.0637 12.9242 38.9567 12.9089 38.8598C12.8553 39.0331 12.7508 39.1682 12.5953 39.2651C12.4424 39.3619 12.2627 39.4104 12.0562 39.4104C11.8803 39.4104 11.7236 39.3785 11.5859 39.3148C11.4508 39.2485 11.3463 39.1555 11.2724 39.0357C11.1985 38.9133 11.1615 38.7731 11.1615 38.6151C11.1615 38.4545 11.1997 38.313 11.2762 38.1907C11.3527 38.0683 11.4585 37.974 11.5936 37.9077C11.7287 37.8415 11.8816 37.8083 12.0524 37.8083ZM12.083 39.2421C12.2257 39.2421 12.3532 39.2141 12.4653 39.158C12.58 39.1019 12.668 39.0255 12.7292 38.9286C12.7929 38.8317 12.8247 38.7234 12.8247 38.6036C12.8247 38.4966 12.7942 38.3946 12.733 38.2977C12.6743 38.2009 12.5877 38.1231 12.473 38.0645C12.3583 38.0059 12.2206 37.9766 12.06 37.9766C11.851 37.9766 11.6815 38.0352 11.5515 38.1524C11.4215 38.2671 11.3565 38.4201 11.3565 38.6113C11.3565 38.8024 11.4215 38.9554 11.5515 39.0701C11.6815 39.1848 11.8587 39.2421 12.083 39.2421ZM14.3525 37.8083C14.6991 37.8083 14.9642 37.9268 15.1478 38.1639C15.3339 38.3984 15.4269 38.7272 15.4269 39.1504C15.4269 39.4461 15.3772 39.6971 15.2778 39.9036C15.1809 40.1075 15.0433 40.2617 14.8648 40.3663C14.6864 40.4708 14.4774 40.523 14.2378 40.523C13.9854 40.523 13.7828 40.4771 13.6298 40.3854L13.7101 40.2286C13.8376 40.3102 14.0135 40.351 14.2378 40.351C14.5462 40.351 14.7884 40.2516 14.9642 40.0527C15.1427 39.8514 15.2319 39.5608 15.2319 39.181C15.2319 39.0637 15.2242 38.9567 15.2089 38.8598C15.1554 39.0331 15.0509 39.1682 14.8954 39.2651C14.7425 39.3619 14.5628 39.4104 14.3563 39.4104C14.1804 39.4104 14.0237 39.3785 13.886 39.3148C13.7509 39.2485 13.6464 39.1555 13.5725 39.0357C13.4986 38.9133 13.4616 38.7731 13.4616 38.6151C13.4616 38.4545 13.4998 38.313 13.5763 38.1907C13.6528 38.0683 13.7586 37.974 13.8937 37.9077C14.0288 37.8415 14.1817 37.8083 14.3525 37.8083ZM14.3831 39.2421C14.5258 39.2421 14.6533 39.2141 14.7654 39.158C14.8801 39.1019 14.9681 39.0255 15.0292 38.9286C15.093 38.8317 15.1248 38.7234 15.1248 38.6036C15.1248 38.4966 15.0942 38.3946 15.0331 38.2977C14.9744 38.2009 14.8878 38.1231 14.7731 38.0645C14.6584 38.0059 14.5207 37.9766 14.3601 37.9766C14.1511 37.9766 13.9816 38.0352 13.8516 38.1524C13.7216 38.2671 13.6566 38.4201 13.6566 38.6113C13.6566 38.8024 13.7216 38.9554 13.8516 39.0701C13.9816 39.1848 14.1588 39.2421 14.3831 39.2421ZM17.2796 39.1045C17.4632 39.1529 17.6046 39.2345 17.704 39.3492C17.806 39.4639 17.857 39.6041 17.857 39.7698C17.857 40.0043 17.7665 40.1891 17.5855 40.3242C17.4045 40.4567 17.156 40.523 16.8399 40.523C16.5264 40.523 16.2791 40.4567 16.0982 40.3242C15.9197 40.1891 15.8305 40.0043 15.8305 39.7698C15.8305 39.6016 15.8789 39.4614 15.9758 39.3492C16.0752 39.2345 16.2167 39.1529 16.4002 39.1045C16.2473 39.0535 16.13 38.977 16.0485 38.8751C15.9669 38.7731 15.9261 38.6482 15.9261 38.5004C15.9261 38.2863 16.0089 38.118 16.1746 37.9957C16.3403 37.8708 16.5621 37.8083 16.8399 37.8083C17.1178 37.8083 17.3408 37.8708 17.509 37.9957C17.6773 38.1206 17.7614 38.2888 17.7614 38.5004C17.7614 38.6457 17.7193 38.7706 17.6352 38.8751C17.5536 38.977 17.4351 39.0535 17.2796 39.1045ZM16.1211 38.5042C16.1211 38.6648 16.1836 38.7922 16.3085 38.8866C16.4359 38.9809 16.6131 39.028 16.8399 39.028C17.0668 39.028 17.2439 38.9821 17.3714 38.8904C17.5014 38.7961 17.5664 38.6686 17.5664 38.508C17.5664 38.3449 17.5001 38.2162 17.3676 38.1218C17.2376 38.025 17.0617 37.9766 16.8399 37.9766C16.6182 37.9766 16.4423 38.0237 16.3123 38.118C16.1848 38.2123 16.1211 38.3411 16.1211 38.5042ZM16.8399 40.3548C17.0974 40.3548 17.2987 40.3025 17.444 40.198C17.5893 40.0935 17.662 39.9508 17.662 39.7698C17.662 39.5914 17.5893 39.4499 17.444 39.3454C17.2987 39.2409 17.0974 39.1886 16.8399 39.1886C16.585 39.1886 16.3849 39.2409 16.2396 39.3454C16.0969 39.4499 16.0255 39.5914 16.0255 39.7698C16.0255 39.9508 16.0969 40.0935 16.2396 40.198C16.3824 40.3025 16.5825 40.3548 16.8399 40.3548Z" fill="#23252C"/>
<path d="M7.78268 10.4528C8.12935 10.4528 8.39445 10.5714 8.57798 10.8084C8.76406 11.0429 8.8571 11.3718 8.8571 11.7949C8.8571 12.0906 8.80739 12.3417 8.70798 12.5481C8.61112 12.7521 8.47347 12.9063 8.29504 13.0108C8.11661 13.1153 7.90759 13.1676 7.66798 13.1676C7.41563 13.1676 7.21298 13.1217 7.06004 13.0299L7.14033 12.8731C7.26778 12.9547 7.44366 12.9955 7.66798 12.9955C7.97641 12.9955 8.21857 12.8961 8.39445 12.6973C8.57288 12.4959 8.6621 12.2053 8.6621 11.8255C8.6621 11.7082 8.65445 11.6012 8.63915 11.5043C8.58562 11.6777 8.48112 11.8128 8.32563 11.9096C8.17268 12.0065 7.99298 12.0549 7.78651 12.0549C7.61063 12.0549 7.45386 12.023 7.31621 11.9593C7.18112 11.893 7.07661 11.8 7.00268 11.6802C6.92876 11.5578 6.8918 11.4177 6.8918 11.2596C6.8918 11.099 6.93004 10.9576 7.00651 10.8352C7.08298 10.7128 7.18876 10.6185 7.32386 10.5523C7.45896 10.486 7.6119 10.4528 7.78268 10.4528ZM7.81327 11.8867C7.95602 11.8867 8.08347 11.8586 8.19562 11.8026C8.31033 11.7465 8.39827 11.67 8.45945 11.5731C8.52317 11.4763 8.55504 11.3679 8.55504 11.2481C8.55504 11.1411 8.52445 11.0391 8.46327 10.9423C8.40464 10.8454 8.31798 10.7677 8.20327 10.709C8.08857 10.6504 7.95092 10.6211 7.79033 10.6211C7.58131 10.6211 7.4118 10.6797 7.2818 10.797C7.1518 10.9117 7.0868 11.0646 7.0868 11.2558C7.0868 11.447 7.1518 11.5999 7.2818 11.7146C7.4118 11.8293 7.58896 11.8867 7.81327 11.8867Z" fill="#23252C"/>
<path d="M30.2189 9.30054C30.2189 11.816 30.2185 14.3315 30.2189 16.847C30.2194 17.8531 30.8008 18.4346 31.8116 18.435C36.0634 18.4358 40.3147 18.4358 44.5665 18.435C45.5917 18.435 46.1659 17.8557 46.1663 16.8251C46.1668 13.3508 46.152 9.87649 46.1786 6.4022C46.1837 5.69653 45.9867 5.10283 45.5955 4.5442C44.9227 3.58246 44.1385 2.71664 43.2583 1.94673C42.6819 1.44262 42.0582 0.990059 41.4358 0.542565C41.0829 0.289453 40.6684 0.205359 40.2235 0.207056C37.424 0.217195 34.6241 0.2117 31.8247 0.212127C30.7881 0.212127 30.2189 0.77878 30.2189 1.81067C30.2185 4.30714 30.2189 6.80364 30.2189 9.30054Z" stroke="#23252C" stroke-width="0.147059" stroke-linecap="round" stroke-linejoin="round"/>
<path d="M30.2189 9.30054C30.2189 6.80364 30.2185 4.30714 30.2189 1.81067C30.2189 0.77878 30.7881 0.212127 31.8247 0.212127C34.6241 0.2117 37.424 0.217195 40.2235 0.207056C40.6684 0.205359 41.0829 0.289453 41.4358 0.542565C42.0582 0.990059 42.6819 1.44262 43.2583 1.94673C44.1385 2.71664 44.9227 3.58246 45.5955 4.5442C45.9867 5.10283 46.1837 5.69653 46.1786 6.4022C46.152 9.87648 46.1668 13.3508 46.1663 16.8251C46.1659 17.8557 45.5917 18.435 44.5665 18.435C40.3147 18.4359 36.0634 18.4359 31.8116 18.435C30.8008 18.4346 30.2194 17.8531 30.2189 16.847C30.2185 14.3315 30.2189 11.816 30.2189 9.30054Z" fill="#23252C"/>
<path d="M40.4992 1.47315C40.3919 1.4664 40.3184 1.45752 40.2444 1.45752C37.4357 1.4571 34.6265 1.45667 31.8177 1.45752C31.4624 1.45794 31.3909 1.53865 31.3909 1.92994C31.3905 6.9229 31.3905 11.9159 31.3909 16.9084C31.3909 17.3191 31.4628 17.3931 31.8663 17.3931C36.0987 17.3935 40.331 17.3935 44.5638 17.3931C44.9885 17.3931 45.0544 17.3255 45.0544 16.8949C45.0544 13.3733 45.0544 9.85167 45.0544 6.33005V6.01229H44.6982C43.5691 6.01229 42.4396 6.01272 41.3105 6.01229C40.6649 6.01229 40.4992 5.84834 40.4992 5.20774C40.4988 3.97429 40.4992 2.74083 40.4992 1.47315H40.4992Z" fill="white"/>
<path d="M41.6172 4.75475H44.3342C43.5166 3.73596 42.6356 2.85703 41.6172 2.03516V4.75475Z" fill="white"/>
<path fill-rule="evenodd" clip-rule="evenodd" d="M43.1645 10.2232C42.3557 10.0571 41.5457 10.1552 40.7356 10.2274C40.611 10.2388 40.4622 10.2105 40.3553 10.1476C39.3399 9.54921 38.7521 8.60944 38.3232 7.54966C38.2945 7.47782 38.308 7.38317 38.3199 7.30162C38.4209 6.582 38.6588 6.39142 38.7023 5.54377C38.7445 5.22347 38.5561 4.4692 38.428 4.17426C38.2734 3.81846 37.9189 3.84846 37.5986 3.89409C37.304 3.93593 37.1202 4.1096 37.0894 4.42103C37.0539 4.7764 37.018 5.14318 37.0678 5.49264C37.165 6.16874 37.3285 6.83468 37.4494 7.50782C37.4747 7.64895 37.4777 7.82306 37.4177 7.94644C36.8764 9.062 36.3136 10.167 35.7693 11.2809C35.6231 11.5796 35.4135 11.7782 35.1135 11.924C34.4792 12.2316 33.8805 12.6064 33.4148 13.1439C33.2242 13.3637 33.0789 13.6366 32.9745 13.9092C32.9305 14.0237 32.9994 14.2485 33.0962 14.3377C33.4389 14.6533 33.8898 14.6896 34.2823 14.4255C34.5485 14.2464 34.8109 14.0322 35.0036 13.779C35.4122 13.2428 35.7853 12.6778 36.1496 12.1099C36.265 11.9303 36.3888 11.8141 36.5941 11.7664C37.7426 11.4993 38.889 11.2238 40.0388 10.9627C40.1432 10.939 40.2734 10.9749 40.3782 11.0172C40.8379 11.2014 41.285 11.4199 41.7515 11.5838C42.2442 11.7571 42.7555 11.8737 43.2871 11.8196C43.6035 11.7875 43.7836 11.6261 43.863 11.3206C44.0223 10.707 43.8038 10.3542 43.1645 10.2232L43.1645 10.2232ZM33.6836 14.0478C33.7212 13.6865 34.3901 12.8933 35.0493 12.4336C34.6762 13.029 34.2908 13.6159 33.6836 14.0478ZM37.8521 4.16797C38.4137 4.73377 38.2912 5.65918 37.9865 6.34119C37.6286 5.66552 37.5284 4.83984 37.8521 4.16797ZM36.6816 11.176C37.0932 10.3373 37.5023 9.50398 37.8931 8.70703C38.3706 9.27495 38.8701 9.86823 39.3522 10.4416C38.5003 10.6762 37.5948 10.925 36.6816 11.176H36.6816ZM43.3141 11.2331C43.0775 11.226 42.8345 11.2205 42.6072 11.1621C42.297 11.0827 41.9987 10.9547 41.6953 10.8478L41.7038 10.7747C42.2214 10.7278 42.7374 10.7117 43.2453 10.8672C43.2858 10.8795 43.3255 10.9019 43.3615 10.9175C43.457 10.9593 43.5263 11.0552 43.5263 11.1254C43.506 11.1943 43.3839 11.2353 43.3141 11.2331Z" fill="#FDBD00"/>
<path d="M30.6134 39.0466C30.6134 41.5621 30.613 44.0776 30.6138 46.5935C30.6138 47.5997 31.1957 48.1811 32.2064 48.1811C36.4578 48.1824 40.7096 48.182 44.9614 48.1811C45.9865 48.1811 46.5608 47.6022 46.5608 46.5716C46.5612 43.0973 46.5464 39.623 46.573 36.1487C46.5785 35.4426 46.3816 34.8494 45.9903 34.2903C45.3172 33.3286 44.5329 32.4632 43.6532 31.6928C43.0768 31.1887 42.4531 30.7361 41.8302 30.2891C41.4778 30.0356 41.0633 29.9515 40.6183 29.9531C37.8185 29.9637 35.019 29.9582 32.2195 29.9586C31.183 29.9586 30.6138 30.5249 30.6138 31.5568C30.6134 34.0537 30.6134 36.5502 30.6134 39.0466V39.0466Z" stroke="#23252C" stroke-width="0.147059" stroke-linecap="round" stroke-linejoin="round"/>
<path d="M30.6134 39.0466C30.6134 36.5502 30.6134 34.0537 30.6138 31.5568C30.6138 30.5249 31.183 29.9586 32.2195 29.9586C35.019 29.9582 37.8185 29.9637 40.6183 29.9531C41.0633 29.9515 41.4778 30.0356 41.8302 30.2891C42.4531 30.7361 43.0768 31.1887 43.6532 31.6928C44.5329 32.4632 45.3172 33.3286 45.9903 34.2903C46.3816 34.8494 46.5785 35.4426 46.573 36.1487C46.5464 39.623 46.5612 43.0973 46.5608 46.5716C46.5608 47.6022 45.9865 48.1811 44.9614 48.1811C40.7096 48.182 36.4578 48.1824 32.2064 48.1811C31.1957 48.1811 30.6138 47.5997 30.6138 46.5935C30.613 44.0776 30.6134 41.5621 30.6134 39.0466V39.0466Z" fill="#23252C"/>
<path d="M40.8894 31.2194C40.7825 31.2126 40.7086 31.2038 40.635 31.2038C37.8263 31.2029 35.0171 31.2029 32.2084 31.2038C31.8526 31.2038 31.7816 31.2845 31.7816 31.6762C31.7811 36.6687 31.7811 41.6617 31.7816 46.6547C31.7816 47.0649 31.853 47.1389 32.2569 47.1389C36.4893 47.1397 40.7217 47.1393 44.954 47.1393C45.3791 47.1389 45.4446 47.0717 45.4446 46.6411C45.445 43.1195 45.445 39.5979 45.445 36.0763V35.7585H45.0888C43.9597 35.7585 42.8302 35.7585 41.7012 35.7585C41.0551 35.7581 40.8898 35.5941 40.8898 34.954C40.8894 33.7205 40.8894 32.4871 40.8894 31.2194H40.8894Z" fill="white"/>
<path d="M42.0156 34.5008H44.7327C43.915 33.4825 43.034 32.6036 42.0156 31.7812V34.5008Z" fill="white"/>
<path d="M43.3734 43.7699H33.2109V34.5H34.0561V42.9248H43.3734V43.7699Z" fill="#FDBD00"/>
<path d="M38.2794 42.3854L36.3193 40.4038L35.2249 41.9241L34.5391 41.4301L36.2173 39.099L38.0669 40.9688L40.4809 36.3555L41.7261 38.2281L43.0431 38.1738L43.0777 39.0181L41.2858 39.0922L40.5678 38.0123L38.2794 42.3854Z" fill="#FDBD00"/>
</g>
<defs>
<filter id="filter0_d_1762_260123" x="3.31862" y="5.99268" width="36.6345" height="38.6408" filterUnits="userSpaceOnUse" color-interpolation-filters="sRGB">
<feFlood flood-opacity="0" result="BackgroundImageFix"/>
<feColorMatrix in="SourceAlpha" type="matrix" values="0 0 0 0 0 0 0 0 0 0 0 0 0 0 0 0 0 0 127 0" result="hardAlpha"/>
<feOffset dx="-0.833719" dy="0.833719"/>
<feColorMatrix type="matrix" values="0 0 0 0 0.133333 0 0 0 0 0.133333 0 0 0 0 0.133333 0 0 0 1 0"/>
<feBlend mode="normal" in2="BackgroundImageFix" result="effect1_dropShadow_1762_260123"/>
<feBlend mode="normal" in="SourceGraphic" in2="effect1_dropShadow_1762_260123" result="shape"/>
</filter>
<clipPath id="clip0_1762_260123">
<rect width="46.7647" height="48" fill="white"/>
</clipPath>
</defs>
</svg>
