<svg width="170" height="158" viewBox="0 0 170 158" fill="none" xmlns="http://www.w3.org/2000/svg">
  <g clip-path="url(#a)">
    <g clip-path="url(#b)">
      <g clip-path="url(#c)" fill="#000" fill-opacity=".87" opacity=".4">
        <g clip-path="url(#d)">
          <circle cx="2.837" cy="90.942" r="2.837" />
          <circle cx="18.656" cy="90.942" r="2.837" />
          <circle cx="39.249" cy="90.942" r="2.837" />
          <circle cx="57.455" cy="90.942" r="2.837" />
          <circle cx="75.66" cy="90.942" r="2.837" />
          <circle cx="93.866" cy="90.942" r="2.837" />
          <circle cx="112.072" cy="90.942" r="2.837" />
          <circle cx="130.278" cy="90.942" r="2.837" />
          <circle cx="150.871" cy="90.942" r="2.837" />
          <circle cx="166.69" cy="90.942" r="2.837" />
        </g>
        <g clip-path="url(#e)">
          <circle cx="2.837" cy="72.118" r="2.837" />
          <circle cx="18.656" cy="72.118" r="2.837" />
          <circle cx="39.249" cy="72.118" r="2.837" />
          <circle cx="57.455" cy="72.118" r="2.837" />
          <circle cx="75.66" cy="72.118" r="2.837" />
          <circle cx="93.866" cy="72.118" r="2.837" />
          <circle cx="112.072" cy="72.118" r="2.837" />
          <circle cx="130.278" cy="72.118" r="2.837" />
          <circle cx="150.871" cy="72.118" r="2.837" />
          <circle cx="166.69" cy="72.118" r="2.837" />
        </g>
        <g clip-path="url(#f)">
          <circle cx="2.837" cy="53.295" r="2.837" />
          <circle cx="18.656" cy="53.295" r="2.837" />
          <circle cx="39.249" cy="53.295" r="2.837" />
          <circle cx="57.455" cy="53.295" r="2.837" />
          <circle cx="75.66" cy="53.295" r="2.837" />
          <circle cx="93.866" cy="53.295" r="2.837" />
          <circle cx="112.072" cy="53.295" r="2.837" />
          <circle cx="130.278" cy="53.295" r="2.837" />
          <circle cx="150.871" cy="53.295" r="2.837" />
          <circle cx="166.69" cy="53.295" r="2.837" />
        </g>
        <g clip-path="url(#g)">
          <circle cx="2.837" cy="34.471" r="2.837" />
          <circle cx="18.656" cy="34.471" r="2.837" />
          <circle cx="39.249" cy="34.471" r="2.837" />
          <circle cx="57.455" cy="34.471" r="2.837" />
          <circle cx="75.66" cy="34.471" r="2.837" />
          <circle cx="93.866" cy="34.471" r="2.837" />
          <circle cx="112.072" cy="34.471" r="2.837" />
          <circle cx="130.278" cy="34.471" r="2.837" />
          <circle cx="150.871" cy="34.471" r="2.837" />
          <circle cx="166.69" cy="34.471" r="2.837" />
        </g>
        <g clip-path="url(#h)">
          <circle cx="2.837" cy="15.648" r="2.837" />
          <circle cx="18.656" cy="15.648" r="2.837" />
          <circle cx="39.249" cy="15.648" r="2.837" />
          <circle cx="57.455" cy="15.648" r="2.837" />
          <circle cx="75.66" cy="15.648" r="2.837" />
          <circle cx="93.866" cy="15.648" r="2.837" />
          <circle cx="112.072" cy="15.648" r="2.837" />
          <circle cx="130.278" cy="15.648" r="2.837" />
          <circle cx="150.871" cy="15.648" r="2.837" />
          <circle cx="166.69" cy="15.648" r="2.837" />
        </g>
      </g>
    </g>
    <g clip-path="url(#i)" fill="#000" fill-opacity=".87">
      <path fill-rule="evenodd" clip-rule="evenodd"
        d="m140.767 95.004-29.866-22.338c-1.55-1.16-3.998-.258-4.049 1.494l-.546 19.245-27.728-20.74c-1.55-1.16-3.998-.257-4.049 1.495l-.558 19.647-28.265-21.141c-1.553-1.16-4-.258-4.05 1.494l-.588 20.7H4.2c-.919 0-1.671.638-1.671 1.415v46.472c0 .777.752 1.414 1.671 1.414h135.851c.919 0 1.671-.637 1.671-1.414V96.275c0-.56-.394-1.042-.955-1.27ZM85.408 129c0 .777-.752 1.414-1.67 1.414h-7.706c-.92 0-1.673-.637-1.673-1.414v-11.994c0-.778.753-1.414 1.673-1.414h7.705c.919 0 1.671.636 1.671 1.414v11.994Zm19.147 0c0 .777-.752 1.414-1.672 1.414h-7.705c-.92 0-1.673-.637-1.673-1.414v-11.994c0-.778.754-1.414 1.673-1.414h7.705c.92 0 1.672.636 1.672 1.414v11.994Zm19.146 0c0 .777-.752 1.414-1.673 1.414h-7.703c-.921 0-1.673-.637-1.673-1.414v-11.994c0-.778.752-1.414 1.673-1.414h7.703c.921 0 1.673.636 1.673 1.414v11.994Z" />
      <g clip-path="url(#j)">
        <path
          d="M9.808 73.21h18.508a651880.31 651880.31 0 0 0-4.286-41.958h-9.934L9.808 73.21ZM49.86 0c-4.776 0-8.962 2.513-11.318 6.286a10.35 10.35 0 0 0-2.851-.401c-4.205 0-7.822 2.514-9.434 6.12a7.981 7.981 0 1 0 1.766 11.133 10.306 10.306 0 0 0 7.668 3.409c2.467 0 4.73-.866 6.507-2.309a13.274 13.274 0 0 0 7.661 2.424c7.363 0 13.332-5.969 13.332-13.33C63.19 5.969 57.222 0 49.859 0Z" />
      </g>
    </g>
    <path
      d="M120.86 29.473c0 7.558-.002 15.116.001 22.675 0 3.023 1.748 4.77 4.785 4.771 12.775.003 25.55.003 38.324 0 3.082 0 4.807-1.74 4.807-4.837.002-10.44-.043-20.879.037-31.318.017-2.12-.576-3.904-1.751-5.583a43.461 43.461 0 0 0-7.024-7.805c-1.73-1.514-3.604-2.874-5.476-4.219-1.059-.76-2.306-1.013-3.643-1.008-8.411.03-16.823.015-25.236.015-3.114.002-4.823 1.703-4.824 4.803-.002 7.502 0 15.003 0 22.506v0Z"
      stroke="#000" stroke-opacity=".87" stroke-width=".5" stroke-linecap="round" stroke-linejoin="round" />
    <path
      d="M120.86 29.473c0-7.503-.002-15.004 0-22.506.001-3.1 1.71-4.801 4.824-4.803 8.413 0 16.825.015 25.236-.015 1.337-.005 2.584.248 3.643 1.008 1.872 1.345 3.746 2.705 5.476 4.22a43.46 43.46 0 0 1 7.024 7.804c1.175 1.679 1.768 3.462 1.751 5.583-.08 10.44-.035 20.878-.037 31.318 0 3.096-1.725 4.837-4.807 4.837-12.774.003-25.549.003-38.324 0-3.037-.001-4.785-1.748-4.785-4.771-.003-7.559-.001-15.117-.001-22.676Z"
      fill="#000" fill-opacity=".87" />
    <path
      d="M151.741 5.95c-.322-.02-.543-.045-.764-.047-8.441 0-16.881-.002-25.322 0-1.067.002-1.281.244-1.282 1.42v45.006c0 1.234.216 1.456 1.43 1.456 12.717.002 25.434.002 38.151 0 1.276 0 1.474-.203 1.474-1.496v-32.7h-1.069c-3.394 0-6.786.002-10.18 0-1.94 0-2.437-.492-2.438-2.417V5.95Z"
      fill="#fff" />
    <path d="M155.117 15.81h8.165a52.726 52.726 0 0 0-8.165-8.17v8.17Z" fill="#fff" />
    <path fill-rule="evenodd" clip-rule="evenodd"
      d="M159.75 32.249c-2.43-.499-4.863-.204-7.298.013-.374.034-.822-.051-1.142-.24-3.052-1.798-4.818-4.622-6.106-7.806-.087-.216-.045-.5-.011-.746.304-2.162 1.02-2.735 1.149-5.281.128-.963-.439-3.23-.824-4.116-.465-1.069-1.53-.978-2.492-.841-.884.125-1.438.647-1.53 1.583-.106 1.068-.215 2.17-.064 3.221.292 2.03.784 4.031 1.147 6.054.076.424.085.947-.095 1.318-1.627 3.352-3.318 6.672-4.955 10.019-.439.898-1.068 1.494-1.969 1.932-1.906.925-3.705 2.051-5.105 3.666-.572.66-1.008 1.48-1.323 2.3-.133.343.076 1.019.366 1.287 1.029.948 2.385 1.057 3.564.264.8-.538 1.588-1.182 2.167-1.941 1.229-1.613 2.349-3.31 3.444-5.017.347-.54.719-.889 1.336-1.032 3.45-.803 6.896-1.63 10.349-2.415.314-.071.705.038 1.02.164 1.381.553 2.724 1.21 4.126 1.702 1.481.52 3.018.871 4.614.709.951-.097 1.492-.582 1.731-1.5.478-1.843-.177-2.902-2.099-3.297Zm-28.489 11.493c.113-1.085 2.123-3.469 4.103-4.85-1.119 1.789-2.279 3.552-4.103 4.85Zm12.528-29.69c1.688 1.7 1.32 4.48.403 6.53-1.074-2.03-1.375-4.511-.403-6.53Zm-3.519 21.056 3.642-7.42 4.383 5.212-8.025 2.208Zm19.932.17c-.711-.021-1.442-.036-2.124-.213-.933-.239-1.829-.623-2.74-.944l.024-.22c1.555-.141 3.107-.19 4.633.278.122.037.241.104.348.151.288.126.495.414.495.625-.06.207-.428.33-.636.323Z"
      fill="#FDBD00" />
    <path
      d="M122.045 130.338c0 7.558-.002 15.117 0 22.676.001 3.023 1.748 4.77 4.785 4.77 12.776.004 25.55.003 38.325.002 3.082-.002 4.807-1.741 4.807-4.838.002-10.439-.043-20.878.037-31.318.017-2.121-.576-3.904-1.752-5.584a43.428 43.428 0 0 0-7.023-7.804c-1.731-1.515-3.606-2.875-5.476-4.218-1.059-.762-2.306-1.015-3.642-1.01-8.412.032-16.824.015-25.237.017-3.114 0-4.823 1.701-4.824 4.803-.002 7.501 0 15.002 0 22.504Z"
      stroke="#000" stroke-opacity=".87" stroke-width=".5" stroke-linecap="round" stroke-linejoin="round" />
    <path
      d="M122.045 130.338c0-7.502-.002-15.003 0-22.504.001-3.102 1.71-4.803 4.824-4.803 8.413-.002 16.825.015 25.237-.017 1.337-.005 2.583.248 3.642 1.01 1.87 1.343 3.745 2.703 5.476 4.218a43.428 43.428 0 0 1 7.023 7.804c1.176 1.68 1.769 3.463 1.752 5.584-.08 10.44-.035 20.879-.037 31.318 0 3.097-1.725 4.836-4.807 4.838-12.775.001-25.549.002-38.325-.002-3.037 0-4.784-1.747-4.785-4.77-.002-7.559 0-15.118 0-22.676Z"
      fill="#000" fill-opacity=".87" />
    <path
      d="M152.926 106.817c-.323-.02-.543-.047-.764-.047-8.441-.003-16.881-.003-25.322 0-1.067 0-1.282.242-1.282 1.419v45.007c0 1.233.216 1.455 1.43 1.455 12.717.002 25.434.001 38.151.001 1.276-.001 1.474-.203 1.474-1.497v-32.699H155.364c-1.94-.001-2.438-.494-2.438-2.418v-11.221Z"
      fill="#fff" />
    <path d="M156.302 116.676h8.164a52.883 52.883 0 0 0-8.164-8.172v8.172Z" fill="#fff" />
    <path d="M160.385 144.529h-30.536v-27.853h2.539v25.314h27.997v2.539Z" fill="#FDBD00" />
    <path
      d="m145.08 140.373-5.89-5.954-3.288 4.568-2.061-1.484 5.043-7.004 5.557 5.618 7.254-13.862 3.741 5.627 3.957-.163.104 2.536-5.384.223-2.157-3.245-6.876 13.14Z"
      fill="#FDBD00" />
  </g>
  <defs>
    <clipPath id="a">
      <path fill="#fff" d="M0 0h169.999v157.787H0z" />
    </clipPath>
    <clipPath id="b">
      <path fill="#fff" transform="translate(0 12.811)" d="M0 0h169.527v80.967H0z" />
    </clipPath>
    <clipPath id="c">
      <path fill="#fff" transform="translate(0 12.811)" d="M0 0h169.527v80.967H0z" />
    </clipPath>
    <clipPath id="d">
      <path fill="#fff" transform="translate(0 88.105)" d="M0 0h169.527v5.673H0z" />
    </clipPath>
    <clipPath id="e">
      <path fill="#fff" transform="translate(0 69.281)" d="M0 0h169.527v5.673H0z" />
    </clipPath>
    <clipPath id="f">
      <path fill="#fff" transform="translate(0 50.458)" d="M0 0h169.527v5.673H0z" />
    </clipPath>
    <clipPath id="g">
      <path fill="#fff" transform="translate(0 31.634)" d="M0 0h169.527v5.673H0z" />
    </clipPath>
    <clipPath id="h">
      <path fill="#fff" transform="translate(0 12.811)" d="M0 0h169.527v5.673H0z" />
    </clipPath>
    <clipPath id="i">
      <path fill="#fff" transform="translate(2.529)" d="M0 0h147.337v144.161H0z" />
    </clipPath>
    <clipPath id="j">
      <path fill="#fff" transform="translate(9.808)" d="M0 0h140.058v77.279H0z" />
    </clipPath>
  </defs>
</svg>