<svg width="76" height="76" viewBox="0 0 76 76" fill="none" xmlns="http://www.w3.org/2000/svg">
<path d="M2.21972 34H10C14.4183 34 18 37.5817 18 42V46C18 50.4183 21.5817 54 26 54C30.4183 54 34 57.5817 34 62V73.7803M22 5.74208V12C22 17.5228 26.4772 22 32 22H34C38.4183 22 42 25.5817 42 30C42 34.4183 45.5817 38 50 38C54.4183 38 58 34.4183 58 30C58 25.5817 61.5817 22 66 22L70.2579 22M50 71.9515V62C50 57.5817 53.5817 54 58 54H70.2579M74 38C74 57.8823 57.8823 74 38 74C18.1177 74 2 57.8823 2 38C2 18.1177 18.1177 2 38 2C57.8823 2 74 18.1177 74 38Z" stroke="#FDBD00" stroke-width="4" stroke-linecap="round" stroke-linejoin="round"/>
</svg>
