<svg width="60" height="59" viewBox="0 0 60 59" fill="none" xmlns="http://www.w3.org/2000/svg">
  <path d="M10 0h40v40H10z" />
  <path d="m15 20 3.333-3.333m0 0L30 5l11.667 11.667m-23.334 0v16.666c0 .92.747 1.667 1.667 1.667h5m16.667-18.333L45 20m-3.333-3.333v16.666c0 .92-.747 1.667-1.667 1.667h-5m-10 0c.92 0 1.667-.746 1.667-1.667v-6.666c0-.92.746-1.667 1.666-1.667h3.334c.92 0 1.666.746 1.666 1.667v6.666c0 .92.747 1.667 1.667 1.667m-10 0h10" stroke="currentColor" stroke-width="2" stroke-linecap="round" stroke-linejoin="round" />
  <path d="M5.31 55.144c-.872 0-1.66-.188-2.364-.564a4.255 4.255 0 0 1-1.644-1.548C.91 52.368.714 51.624.714 50.8c0-.824.196-1.564.588-2.22.4-.664.948-1.184 1.644-1.56.704-.376 1.492-.564 2.364-.564.872 0 1.656.188 2.352.564a4.226 4.226 0 0 1 1.644 1.56c.4.656.6 1.396.6 2.22 0 .824-.2 1.568-.6 2.232a4.255 4.255 0 0 1-1.644 1.548c-.696.376-1.48.564-2.352.564Zm0-1.656c.496 0 .944-.112 1.344-.336.4-.232.712-.552.936-.96.232-.408.348-.872.348-1.392 0-.52-.116-.984-.348-1.392a2.372 2.372 0 0 0-.936-.948 2.63 2.63 0 0 0-1.344-.348 2.63 2.63 0 0 0-1.344.348c-.4.224-.716.54-.948.948a2.844 2.844 0 0 0-.336 1.392c0 .52.112.984.336 1.392.232.408.548.728.948.96.4.224.848.336 1.344.336Zm12.333-4.944L14.92 55h-1.932l-2.712-6.456h1.932l1.788 4.392 1.848-4.392h1.8Zm6.912 3.252c0 .024-.012.192-.036.504h-4.884c.088.4.296.716.624.948.328.232.736.348 1.224.348.336 0 .632-.048.888-.144a2.23 2.23 0 0 0 .732-.48l.996 1.08c-.608.696-1.496 1.044-2.664 1.044-.728 0-1.372-.14-1.932-.42a3.163 3.163 0 0 1-1.296-1.188 3.257 3.257 0 0 1-.456-1.716c0-.632.148-1.2.444-1.704a3.15 3.15 0 0 1 1.236-1.188 3.623 3.623 0 0 1 1.764-.432 3.6 3.6 0 0 1 1.716.408c.512.272.912.664 1.2 1.176.296.504.444 1.092.444 1.764Zm-3.348-1.932c-.424 0-.78.12-1.068.36-.288.24-.464.568-.528.984h3.18c-.064-.408-.24-.732-.528-.972-.288-.248-.64-.372-1.056-.372Zm6.383-.468c.224-.312.523-.548.9-.708.384-.16.824-.24 1.32-.24v1.728a6.756 6.756 0 0 0-.42-.024c-.537 0-.957.152-1.26.456-.304.296-.456.744-.456 1.344V55h-1.872v-6.456h1.788v.852Zm9.963-.852L34.83 55h-1.932l-2.712-6.456h1.932l1.788 4.392 1.848-4.392h1.8Zm.764 0h1.872V55h-1.872v-6.456Zm.936-.9c-.344 0-.624-.1-.84-.3a.973.973 0 0 1-.324-.744c0-.296.108-.544.324-.744.216-.2.496-.3.84-.3s.624.096.84.288a.923.923 0 0 1 .324.72c0 .312-.108.572-.324.78-.216.2-.496.3-.84.3Zm8.998 4.152c0 .024-.012.192-.036.504H43.33c.089.4.297.716.625.948.328.232.736.348 1.224.348.335 0 .631-.048.887-.144a2.23 2.23 0 0 0 .732-.48l.996 1.08c-.607.696-1.495 1.044-2.663 1.044-.728 0-1.373-.14-1.932-.42a3.163 3.163 0 0 1-1.296-1.188 3.257 3.257 0 0 1-.456-1.716c0-.632.147-1.2.444-1.704a3.15 3.15 0 0 1 1.236-1.188 3.623 3.623 0 0 1 1.764-.432 3.6 3.6 0 0 1 1.715.408c.512.272.913.664 1.2 1.176.297.504.445 1.092.445 1.764Zm-3.348-1.932c-.425 0-.78.12-1.069.36-.288.24-.464.568-.528.984h3.18c-.063-.408-.24-.732-.527-.972-.289-.248-.64-.372-1.056-.372Zm14.845-1.32L57.408 55h-1.8l-1.452-4.008-1.5 4.008h-1.8l-2.328-6.456h1.764l1.524 4.368 1.584-4.368h1.584l1.536 4.368 1.572-4.368h1.656Z" fill="currentColor" />
</svg>
