<svg viewBox="0 0 42 42" fill="none" xmlns="http://www.w3.org/2000/svg">
  <path d="M25.6104 15.473C26.1478 16.1035 27.0946 16.179 27.7251 15.6416C28.3555 15.1042 28.431 14.1575 27.8936 13.527L25.6104 15.473ZM16.8321 26.527C16.2948 25.8965 15.348 25.821 14.7175 26.3584C14.087 26.8958 14.0116 27.8425 14.549 28.473L16.8321 26.527ZM22.7213 10.1667C22.7213 9.33824 22.0497 8.66667 21.2213 8.66667C20.3928 8.66667 19.7213 9.33824 19.7213 10.1667H22.7213ZM19.7213 31.8333C19.7213 32.6617 20.3928 33.3333 21.2212 33.3333C22.0497 33.3334 22.7213 32.6618 22.7213 31.8334L19.7213 31.8333ZM38.8761 21C38.8761 30.9665 30.9466 39 21.2213 39V42C32.6538 42 41.8761 32.5726 41.8761 21H38.8761ZM21.2213 39C11.4959 39 3.56641 30.9665 3.56641 21H0.566406C0.566406 32.5726 9.78876 42 21.2213 42V39ZM3.56641 21C3.56641 11.0335 11.4959 3 21.2213 3V0C9.78876 0 0.566406 9.42739 0.566406 21H3.56641ZM21.2213 3C30.9466 3 38.8761 11.0335 38.8761 21H41.8761C41.8761 9.42739 32.6538 0 21.2213 0V3ZM21.2213 19.5C19.7184 19.5 18.4245 19.084 17.5488 18.4896C16.6649 17.8898 16.3363 17.2182 16.3363 16.6667H13.3363C13.3363 18.5084 14.437 20.0035 15.8641 20.9719C17.2993 21.946 19.1978 22.5 21.2213 22.5V19.5ZM16.3363 16.6667C16.3363 16.1151 16.6649 15.4435 17.5488 14.8437C18.4245 14.2494 19.7184 13.8333 21.2213 13.8333V10.8333C19.1978 10.8333 17.2993 11.3873 15.8641 12.3614C14.437 13.3299 13.3363 14.825 13.3363 16.6667H16.3363ZM21.2213 13.8333C23.266 13.8333 24.8614 14.5943 25.6104 15.473L27.8936 13.527C26.4347 11.8153 23.9032 10.8333 21.2213 10.8333V13.8333ZM21.2213 22.5C22.7241 22.5 24.0181 22.916 24.8938 23.5104C25.7777 24.1102 26.1063 24.7818 26.1063 25.3333H29.1063C29.1063 23.4916 28.0055 21.9965 26.5785 21.028C25.1433 20.054 23.2447 19.5 21.2213 19.5V22.5ZM19.7213 10.1667V12.3333H22.7213V10.1667H19.7213ZM19.7213 29.6666L19.7213 31.8333L22.7213 31.8334L22.7213 29.6667L19.7213 29.6666ZM21.2213 28.1667C19.1766 28.1667 17.5811 27.4057 16.8321 26.527L14.549 28.473C16.0079 30.1847 18.5394 31.1667 21.2213 31.1667L21.2213 28.1667ZM26.1063 25.3333C26.1063 25.8849 25.7777 26.5565 24.8938 27.1563C24.0181 27.7506 22.7242 28.1667 21.2213 28.1667V31.1667C23.2448 31.1667 25.1433 30.6127 26.5785 29.6386C28.0055 28.6701 29.1063 27.175 29.1063 25.3333H26.1063ZM19.7213 12.3333L19.7213 29.6667L22.7213 29.6667L22.7213 12.3333L19.7213 12.3333Z" fill="currentColor"/>
</svg>
