<svg viewBox="0 0 18 22" fill="none" xmlns="http://www.w3.org/2000/svg">
  <path fill-rule="evenodd" clip-rule="evenodd" d="M17.2387 5.66L12.6826 0.71L12.1964 0.5H1.47285L0.77832 1.25V9.5H2.16738V2H10.5017V7.25L11.1963 8H16.058V9.5H17.447V6.2L17.2387 5.66ZM11.8908 6.5V2L16.058 6.5H11.8908ZM1.47285 11L0.77832 11.75V20.75L1.47285 21.5H16.7525L17.447 20.75V11.75L16.7525 11H1.47285ZM16.058 18.5V20H2.16738V12.5H16.058V18.5ZM4.9455 17H4.501V18.5H3.55644V14H5.02884C6.07064 14 6.59848 14.54 6.59848 15.5C6.60117 15.704 6.56282 15.9063 6.48607 16.0927C6.40933 16.2792 6.29602 16.4454 6.15398 16.58C5.80974 16.8698 5.38162 17.0185 4.9455 17ZM4.86215 14.825H4.501V16.22H4.86215C5.36222 16.22 5.61225 15.98 5.61225 15.515C5.61225 15.05 5.36222 14.825 4.86215 14.825ZM10.5017 17.87C10.7069 17.6518 10.8673 17.3895 10.9726 17.1001C11.0779 16.8107 11.1257 16.5006 11.1129 16.19C11.1129 14.69 10.3767 14 8.89043 14H7.41802V18.5H8.89043C9.18425 18.5154 9.47797 18.4676 9.75457 18.3594C10.0312 18.2513 10.2851 18.0849 10.5017 17.87ZM8.34869 17.675V14.825H8.80708C8.98425 14.8128 9.16185 14.8398 9.32904 14.9043C9.49622 14.9688 9.64947 15.0694 9.77942 15.2C9.89715 15.3335 9.98862 15.4914 10.0483 15.6641C10.108 15.8368 10.1347 16.0208 10.1267 16.205C10.1475 16.6004 10.0227 16.9886 9.77942 17.285C9.65225 17.4164 9.5018 17.5187 9.33709 17.5857C9.17238 17.6527 8.99683 17.6831 8.82097 17.675H8.34869ZM14.53 16.76H13.1826V18.5H12.2381V14H14.655V14.825H13.1826V15.935H14.53V16.76Z" fill="currentColor"/>
</svg>
