<svg width="15" height="15" viewBox="0 0 26 22" fill="none" xmlns="http://www.w3.org/2000/svg">
  <path d="M21.75 21H4.25C2.86929 21 1.75 19.8807 1.75 18.5L1.75 3.5C1.75 2.11929 2.86929 1 4.25 1L16.75 1C18.1307 1 19.25 2.11929 19.25 3.5V4.75M21.75 21C20.3693 21 19.25 19.8807 19.25 18.5L19.25 4.75M21.75 21C23.1307 21 24.25 19.8807 24.25 18.5V7.25C24.25 5.86929 23.1307 4.75 21.75 4.75L19.25 4.75M14.25 1L9.25 1M6.75 16H14.25M6.75 6H14.25V11H6.75V6Z" stroke="#111827" stroke-width="2" stroke-linecap="round" stroke-linejoin="round"/>
</svg>
