<svg viewBox="0 0 18 20" viewBox="0 0 18 20" fill="none" xmlns="http://www.w3.org/2000/svg">
  <path
    d="M14.534 1.35259L13.309 0H3.662C2.966 0 2.697 0.513189 2.697 0.913994V4.52422H4.05001V1.644C4.05001 1.49083 4.18001 1.36154 4.33001 1.36154H11.233C11.385 1.36154 11.461 1.3884 11.461 1.51271V6.30646H16.374C16.567 6.30646 16.642 6.40591 16.642 6.55112V18.257C16.642 18.5017 16.542 18.5385 16.392 18.5385H4.33001C4.25562 18.5367 4.18485 18.5062 4.13262 18.4535C4.08038 18.4008 4.05076 18.33 4.05001 18.256V17.1859H2.706V18.8716C2.688 19.4684 3.008 19.8911 3.662 19.8911H17.06C17.76 19.8911 17.999 19.3868 17.999 18.9273V5.15874L17.649 4.78081L14.533 1.35359L14.534 1.35259ZM12.836 1.51172L13.223 1.94336L15.819 4.78081L15.962 4.95287H13.309C13.109 4.95287 12.982 4.92005 12.929 4.85342C12.876 4.78877 12.845 4.68434 12.836 4.54212V1.51172ZM11.746 10.6089H16.323V11.9356H11.745V10.6089H11.746ZM11.746 7.95742H16.323V9.28315H11.745V7.95642L11.746 7.95742ZM11.746 13.2614H16.323V14.5881H11.745V13.2614H11.746ZM0 5.59535V16.2042H10.465V5.59535H0ZM5.23301 11.7656L4.59301 12.7382H5.23301V13.9237H2.016L4.35001 10.4329L2.282 7.29405H4.01001L5.23401 9.12005L6.45701 7.29405H8.18401L6.11201 10.4329L8.44901 13.9237H6.65601L5.23301 11.7656Z"
    fill="currentColor" />
</svg>