<svg width="24" height="25" viewBox="0 0 24 25" fill="none" xmlns="http://www.w3.org/2000/svg">
    <path d="M8 21.857h8m-4-4v4m-5.2-4h10.4c1.68 0 2.52 0 3.162-.327a3 3 0 0 0 1.311-1.31c.327-.643.327-1.483.327-3.163v-4.4c0-1.68 0-2.52-.327-3.162a3 3 0 0 0-1.311-1.31c-.642-.328-1.482-.328-3.162-.328H6.8c-1.68 0-2.52 0-3.162.327a3 3 0 0 0-1.311 1.311C2 6.137 2 6.977 2 8.657v4.4c0 1.68 0 2.52.327 3.162a3 3 0 0 0 1.311 1.311c.642.327 1.482.327 3.162.327z" stroke="currentColor" stroke-width="2" stroke-linecap="round" stroke-linejoin="round"/>
</svg>
