<svg width="40" height="41" viewBox="0 0 40 41" fill="none" xmlns="http://www.w3.org/2000/svg">
  <path d="M37.1429 0.25H2.85714C2.08333 0.25 1.39881 0.547619 0.803571 1.14286C0.267857 1.67857 0 2.33333 0 3.10714V37.3929C0 38.1667 0.267857 38.8214 0.803571 39.3571C1.39881 39.9524 2.08333 40.25 2.85714 40.25H37.1429C37.9167 40.25 38.5714 39.9524 39.1071 39.3571C39.7024 38.8214 40 38.1667 40 37.3929V3.10714C40 2.33333 39.7024 1.67857 39.1071 1.14286C38.5714 0.547619 37.9167 0.25 37.1429 0.25ZM12.0536 34.5357H6.16071V15.4286H12.1429V34.5357H12.0536ZM9.10714 12.8393C8.15476 12.8393 7.35119 12.5119 6.69643 11.8571C6.04167 11.1429 5.71429 10.3393 5.71429 9.44643C5.71429 8.49405 6.04167 7.69048 6.69643 7.03571C7.35119 6.32143 8.15476 5.96429 9.10714 5.96429C10.0595 5.96429 10.8631 6.32143 11.5179 7.03571C12.2321 7.69048 12.5893 8.49405 12.5893 9.44643C12.5893 10.3393 12.2321 11.1429 11.5179 11.8571C10.8631 12.5119 10.0595 12.8393 9.10714 12.8393ZM34.2857 34.5357H28.3929V25.25C28.3929 23.7024 28.244 22.5714 27.9464 21.8571C27.5298 20.7262 26.6369 20.1607 25.2679 20.1607C23.8988 20.1607 22.9167 20.6667 22.3214 21.6786C21.9048 22.4524 21.6964 23.5833 21.6964 25.0714V34.5357H15.8036V15.4286H21.5179V18.0179H21.6071C22.0238 17.1845 22.6786 16.5 23.5714 15.9643C24.6429 15.3095 25.8631 14.9821 27.2321 14.9821C29.9702 14.9821 31.9048 15.8452 33.0357 17.5714C33.869 18.9405 34.2857 21.1131 34.2857 24.0893V34.5357Z" fill="#0077B5"/>
</svg>
