<svg width="24" height="24" viewBox="0 0 24 24" fill="none" xmlns="http://www.w3.org/2000/svg">
    <path d="M19.5 3.75h-15a.75.75 0 0 0-.75.75v15c0 .414.336.75.75.75h15a.75.75 0 0 0 .75-.75v-15a.75.75 0 0 0-.75-.75zM11.25 10.5v6M8.25 10.5v6" stroke="currentColor" stroke-width="2" stroke-linecap="round" stroke-linejoin="round"/>
    <path d="M11.25 13.125a2.625 2.625 0 0 1 5.25 0V16.5" stroke="currentColor" stroke-width="2" stroke-linecap="round" stroke-linejoin="round"/>
    <path d="M8.25 8.625a1.125 1.125 0 1 0 0-2.25 1.125 1.125 0 0 0 0 2.25z" fill="currentColor"/>
</svg>
