<svg width="48" height="65" viewBox="0 0 48 65" fill="none" xmlns="http://www.w3.org/2000/svg">
  <path clip-rule="evenodd" d="M5 4.053C5 2.919 5.919 2 7.053 2h35.894C44.081 2 45 2.919 45 4.053v35.894A2.053 2.053 0 0 1 42.947 42H7.053A2.053 2.053 0 0 1 5 39.947V4.053Z" stroke="currentColor" stroke-width="2.5" />
  <path d="M15.795 30h11.02v-2.838h-7.54V14.949h-3.48v15.05ZM30.198 16.82c1.246 0 2.084-.818 2.084-1.936 0-1.032-.838-1.806-2.083-1.806-1.246 0-2.084.817-2.084 1.87 0 1.054.838 1.871 2.084 1.871ZM28.523 30h3.351V18.432h-3.351V30ZM.996 55.6H2.94v6.816h4.212V64H.996v-8.4Zm7.11 1.944h1.872V64H8.106v-6.456Zm.936-.9c-.344 0-.624-.1-.84-.3a.973.973 0 0 1-.324-.744c0-.296.108-.544.324-.744.216-.2.496-.3.84-.3s.624.096.84.288a.923.923 0 0 1 .324.72c0 .312-.108.572-.324.78-.216.2-.496.3-.84.3Zm6.838 7.044a2 2 0 0 1-.684.312 3.556 3.556 0 0 1-.84.096c-.768 0-1.364-.196-1.788-.588-.416-.392-.624-.968-.624-1.728v-2.652h-.996v-1.44h.996v-1.572h1.872v1.572h1.608v1.44h-1.608v2.628c0 .272.068.484.204.636.144.144.344.216.6.216.296 0 .548-.08.756-.24l.504 1.32Zm4.974-6.24c.8 0 1.444.24 1.932.72.496.48.744 1.192.744 2.136V64h-1.872v-3.408c0-.512-.112-.892-.336-1.14-.224-.256-.548-.384-.972-.384-.472 0-.848.148-1.128.444-.28.288-.42.72-.42 1.296V64H16.93v-8.904h1.872v3.12c.248-.248.548-.436.9-.564a3.17 3.17 0 0 1 1.152-.204Zm4.373.096H27.1V64h-1.872v-6.456Zm.936-.9c-.344 0-.624-.1-.84-.3A.973.973 0 0 1 25 55.6c0-.296.108-.544.324-.744.216-.2.496-.3.84-.3s.624.096.84.288a.923.923 0 0 1 .324.72c0 .312-.108.572-.324.78-.216.2-.496.3-.84.3Zm9.178.9V64h-1.776v-.768c-.248.28-.544.496-.888.648a2.86 2.86 0 0 1-1.116.216c-.848 0-1.52-.244-2.016-.732s-.744-1.212-.744-2.172v-3.648h1.872v3.372c0 1.04.436 1.56 1.308 1.56.448 0 .808-.144 1.08-.432.272-.296.408-.732.408-1.308v-3.192h1.872Zm10.002-.096c.808 0 1.448.24 1.92.72.48.472.72 1.184.72 2.136V64H46.11v-3.408c0-.512-.108-.892-.324-1.14-.208-.256-.508-.384-.9-.384-.44 0-.788.144-1.044.432-.256.28-.384.7-.384 1.26V64h-1.872v-3.408c0-1.016-.408-1.524-1.224-1.524-.432 0-.776.144-1.032.432-.256.28-.384.7-.384 1.26V64h-1.872v-6.456h1.788v.744c.24-.272.532-.48.876-.624a3.014 3.014 0 0 1 1.152-.216c.456 0 .868.092 1.236.276.368.176.664.436.888.78a2.66 2.66 0 0 1 .996-.78 3.202 3.202 0 0 1 1.332-.276Z" fill="currentColor" />
</svg>
