<svg width="170" height="163" fill="none" viewBox="0 0 170 163">
  <g clip-path="url(#a)">
    <g clip-path="url(#b)">
      <g clip-path="url(#c)" fill="#FAB906" opacity=".4">
        <g clip-path="url(#d)">
          <circle cx="6.361" cy="109.708" r="3.21" />
          <circle cx="24.261" cy="109.708" r="3.21" />
          <circle cx="42.012" cy="109.708" r="3.21" />
          <circle cx="59.837" cy="109.708" r="3.21" />
          <circle cx="77.662" cy="109.708" r="3.21" />
          <circle cx="95.488" cy="109.708" r="3.21" />
          <circle cx="113.314" cy="109.708" r="3.21" />
          <circle cx="131.139" cy="109.708" r="3.21" />
          <circle cx="148.89" cy="109.708" r="3.21" />
          <circle cx="166.79" cy="109.708" r="3.21" />
        </g>
        <g clip-path="url(#e)">
          <circle cx="6.361" cy="88.407" r="3.21" />
          <circle cx="24.261" cy="88.407" r="3.21" />
          <circle cx="42.012" cy="88.407" r="3.21" />
          <circle cx="59.837" cy="88.407" r="3.21" />
          <circle cx="77.662" cy="88.407" r="3.21" />
          <circle cx="95.488" cy="88.407" r="3.21" />
          <circle cx="113.314" cy="88.407" r="3.21" />
          <circle cx="131.139" cy="88.407" r="3.21" />
          <circle cx="148.89" cy="88.407" r="3.21" />
          <circle cx="166.79" cy="88.407" r="3.21" />
        </g>
        <g clip-path="url(#f)">
          <circle cx="6.361" cy="67.108" r="3.21" />
          <circle cx="24.261" cy="67.108" r="3.21" />
          <circle cx="42.012" cy="67.108" r="3.21" />
          <circle cx="59.837" cy="67.108" r="3.21" />
          <circle cx="77.662" cy="67.108" r="3.21" />
          <circle cx="95.488" cy="67.108" r="3.21" />
          <circle cx="113.314" cy="67.108" r="3.21" />
          <circle cx="131.139" cy="67.108" r="3.21" />
          <circle cx="148.89" cy="67.108" r="3.21" />
          <circle cx="166.79" cy="67.108" r="3.21" />
        </g>
        <g clip-path="url(#g)">
          <circle cx="6.361" cy="45.809" r="3.21" />
          <circle cx="24.261" cy="45.809" r="3.21" />
          <circle cx="42.012" cy="45.809" r="3.21" />
          <circle cx="59.837" cy="45.809" r="3.21" />
          <circle cx="77.662" cy="45.809" r="3.21" />
          <circle cx="95.488" cy="45.809" r="3.21" />
          <circle cx="113.314" cy="45.809" r="3.21" />
          <circle cx="131.139" cy="45.809" r="3.21" />
          <circle cx="148.89" cy="45.809" r="3.21" />
          <circle cx="166.79" cy="45.809" r="3.21" />
        </g>
        <g clip-path="url(#h)">
          <circle cx="6.361" cy="24.511" r="3.21" />
          <circle cx="24.261" cy="24.511" r="3.21" />
          <circle cx="42.012" cy="24.511" r="3.21" />
          <circle cx="59.837" cy="24.511" r="3.21" />
          <circle cx="77.662" cy="24.511" r="3.21" />
          <circle cx="95.488" cy="24.511" r="3.21" />
          <circle cx="113.314" cy="24.511" r="3.21" />
          <circle cx="131.139" cy="24.511" r="3.21" />
          <circle cx="148.89" cy="24.511" r="3.21" />
          <circle cx="166.79" cy="24.511" r="3.21" />
        </g>
        <g clip-path="url(#i)">
          <circle cx="6.361" cy="3.21" r="3.21" />
          <circle cx="24.261" cy="3.21" r="3.21" />
          <circle cx="42.012" cy="3.21" r="3.21" />
          <circle cx="59.837" cy="3.21" r="3.21" />
          <circle cx="77.662" cy="3.21" r="3.21" />
          <circle cx="95.488" cy="3.21" r="3.21" />
          <circle cx="113.314" cy="3.21" r="3.21" />
          <circle cx="131.139" cy="3.21" r="3.21" />
          <circle cx="148.89" cy="3.21" r="3.21" />
          <circle cx="166.79" cy="3.21" r="3.21" />
        </g>
      </g>
    </g>
    <path fill="#FAB906" d="M0 40.84h121.888v121.888H0z" />
    <g filter="url(#j)">
      <path fill="#fff" d="M14.367 27.629h121.216v121.244H14.367z" />
      <path stroke="#D3D3D3" stroke-width=".5" d="M14.367 27.629h121.216v121.244H14.367z" />
    </g>
    <path
      d="M104.085 129.559c0 8.552-.001 17.105.002 25.659 0 3.421 1.978 5.398 5.415 5.398 14.454.004 28.91.003 43.367 0 3.485 0 5.437-1.969 5.437-5.473.002-11.812-.048-23.625.042-35.437.019-2.401-.651-4.418-1.981-6.319a49.32 49.32 0 0 0-7.946-8.831c-1.96-1.714-4.081-3.253-6.198-4.773-1.199-.862-2.608-1.148-4.121-1.142-9.519.036-19.038.017-28.556.018-3.524 0-5.459 1.926-5.459 5.434-.002 8.49-.002 16.978-.002 25.466v0Z"
      stroke="#000" stroke-width=".5" stroke-linecap="round" stroke-linejoin="round" />
    <path
      d="M104.085 129.559c0-8.488 0-16.976.002-25.466 0-3.508 1.935-5.434 5.459-5.434 9.518-.001 19.037.018 28.556-.018 1.513-.006 2.922.28 4.121 1.142 2.117 1.52 4.238 3.059 6.198 4.773a49.32 49.32 0 0 1 7.946 8.831c1.33 1.901 2 3.918 1.981 6.319-.09 11.812-.04 23.625-.042 35.437 0 3.504-1.952 5.473-5.437 5.473-14.457.003-28.913.004-43.367 0-3.437 0-5.415-1.977-5.415-5.398-.003-8.554-.002-17.107-.002-25.659Z"
      fill="#222" />
    <path
      d="M139.029 102.944c-.364-.023-.615-.053-.865-.053-9.55-.003-19.101-.003-28.651 0-1.21 0-1.451.274-1.451 1.606v50.927c0 1.395.243 1.646 1.616 1.646 14.39.003 28.78.002 43.17.002 1.446-.002 1.668-.23 1.668-1.694.002-11.974.002-23.947.002-35.921v-1.08H141.789c-2.197-.001-2.759-.559-2.759-2.735l-.001-12.698Z"
      fill="#fff" />
    <path d="M142.85 114.1h9.238a59.874 59.874 0 0 0-9.238-9.246v9.246Z" fill="#FCFCFC" />
    <path d="M147.469 145.617h-34.552V114.1h2.873v28.644h31.679v2.873Z" fill="#FAB906" />
    <path
      d="m130.15 140.914-6.664-6.737-3.721 5.168-2.332-1.679 5.706-7.926 6.289 6.357 8.207-15.685 4.234 6.367 4.478-.184.118 2.87-6.093.252-2.441-3.672-7.781 14.869Z"
      fill="#FAB906" />
    <path
      d="M45.81 65.71h11.34v39.761h24.57v9.24H45.81v-49Zm41.476 11.34h10.92v37.661h-10.92v-37.66Zm5.46-5.25c-2.007 0-3.64-.582-4.9-1.75-1.26-1.166-1.89-2.612-1.89-4.34 0-1.726.63-3.172 1.89-4.34 1.26-1.166 2.893-1.75 4.9-1.75 2.007 0 3.64.56 4.9 1.68 1.26 1.12 1.89 2.52 1.89 4.2 0 1.82-.63 3.338-1.89 4.55-1.26 1.168-2.893 1.75-4.9 1.75Z"
      fill="#222" />
    <path
      d="M26.355 135.329c.598 0 1.127.113 1.586.338.468.217.828.533 1.079.949.251.407.377.88.377 1.417 0 .546-.13 1.027-.39 1.443-.26.416-.62.737-1.079.962a3.5 3.5 0 0 1-1.56.338c-1.179 0-2.084-.399-2.717-1.196-.624-.806-.936-1.928-.936-3.367 0-1.005.165-1.855.494-2.548.338-.702.81-1.231 1.417-1.586s1.317-.533 2.132-.533c.858 0 1.547.156 2.067.468l-.273.533c-.433-.277-1.031-.416-1.794-.416-1.049 0-1.876.342-2.483 1.027-.598.676-.897 1.66-.897 2.951 0 .399.026.763.078 1.092a2.431 2.431 0 0 1 1.053-1.378c.529-.329 1.144-.494 1.846-.494Zm-.013 4.875c.71 0 1.287-.195 1.729-.585.442-.399.663-.923.663-1.573 0-.65-.221-1.17-.663-1.56-.442-.39-1.044-.585-1.807-.585-.485 0-.923.095-1.313.286-.381.191-.68.451-.897.78a2.026 2.026 0 0 0-.312 1.105c0 .364.1.711.299 1.04.208.329.507.594.897.793.39.199.858.299 1.404.299Zm4.905.559a.558.558 0 0 1-.39-.156.574.574 0 0 1-.156-.403.53.53 0 0 1 .156-.39.558.558 0 0 1 .39-.156c.148 0 .273.052.377.156a.509.509 0 0 1 .17.39c0 .156-.057.29-.17.403a.514.514 0 0 1-.377.156Zm4.76-9.217c1.18 0 2.08.403 2.705 1.209.632.797.949 1.915.949 3.354 0 1.005-.17 1.859-.507 2.561-.33.693-.798 1.218-1.404 1.573-.607.355-1.318.533-2.132.533-.858 0-1.547-.156-2.067-.468l.273-.533c.433.277 1.031.416 1.794.416 1.048 0 1.872-.338 2.47-1.014.606-.685.91-1.673.91-2.964 0-.399-.026-.763-.078-1.092a2.416 2.416 0 0 1-1.066 1.378c-.52.329-1.131.494-1.833.494-.598 0-1.131-.108-1.6-.325a2.527 2.527 0 0 1-1.065-.949 2.712 2.712 0 0 1-.377-1.43c0-.546.13-1.027.39-1.443.26-.416.62-.737 1.079-.962a3.5 3.5 0 0 1 1.56-.338Zm.105 4.875c.485 0 .919-.095 1.3-.286.39-.191.689-.451.897-.78a1.966 1.966 0 0 0 .013-2.145 2.137 2.137 0 0 0-.884-.793c-.39-.199-.858-.299-1.404-.299-.71 0-1.287.199-1.73.598-.441.39-.662.91-.662 1.56s.22 1.17.663 1.56c.442.39 1.044.585 1.807.585Zm12.565 1.768h-1.91v2.522h-.65v-2.522h-5.188v-.481l4.94-6.097h.741l-4.849 5.993h4.368v-2.223h.637v2.223h1.911v.585ZM26.484 42.576c1.005.026 1.768.273 2.288.74.529.46.793 1.071.793 1.834 0 .511-.121.966-.364 1.365-.243.39-.607.698-1.092.923-.477.225-1.053.338-1.729.338a5.274 5.274 0 0 1-1.859-.325c-.58-.225-1.031-.524-1.352-.897l.338-.507c.295.33.693.598 1.196.806a4.41 4.41 0 0 0 1.677.312c.806 0 1.426-.178 1.859-.533.433-.364.65-.858.65-1.482 0-.633-.221-1.127-.663-1.482-.442-.355-1.105-.533-1.989-.533h-.572v-.481l2.691-3.445h-4.849v-.598h5.707v.468l-2.73 3.497Z"
      fill="#000" />
    <path
      d="M102.745 38.629c0 8.553-.002 17.105 0 25.658.001 3.42 1.978 5.398 5.414 5.4 14.457.002 28.911.002 43.367 0 3.486 0 5.438-1.97 5.44-5.475.001-11.812-.049-23.625.041-35.438.018-2.399-.652-4.417-1.982-6.317a49.174 49.174 0 0 0-7.947-8.831c-1.959-1.714-4.08-3.253-6.196-4.774-1.2-.86-2.609-1.147-4.122-1.141-9.518.034-19.038.016-28.556.017-3.524 0-5.459 1.927-5.459 5.435-.002 8.488 0 16.976 0 25.466Z"
      stroke="#000" stroke-width=".5" stroke-linecap="round" stroke-linejoin="round" />
    <path
      d="M102.745 38.629c0-8.49-.002-16.978 0-25.466 0-3.508 1.935-5.435 5.459-5.435 9.518-.001 19.038.017 28.556-.017 1.513-.006 2.922.28 4.122 1.14 2.116 1.522 4.237 3.06 6.196 4.775a49.174 49.174 0 0 1 7.947 8.831c1.33 1.9 2 3.918 1.982 6.317-.09 11.813-.04 23.626-.041 35.438-.002 3.504-1.954 5.474-5.44 5.474-14.456.003-28.91.003-43.367 0-3.436-.001-5.413-1.978-5.414-5.4-.002-8.552 0-17.105 0-25.657Z"
      fill="#222" />
    <path
      d="M137.688 12.012c-.365-.023-.615-.053-.866-.053-9.55-.002-19.101-.003-28.651 0-1.208.001-1.451.276-1.451 1.606v50.927c0 1.396.244 1.648 1.616 1.648h43.172c1.444 0 1.668-.23 1.668-1.694V27.445H140.447c-2.196 0-2.759-.558-2.759-2.736V12.012Z"
      fill="#fff" />
    <path d="M141.508 23.17h9.238a59.773 59.773 0 0 0-9.238-9.246v9.246Z" fill="#FCFCFC" />
    <path fill-rule="evenodd" clip-rule="evenodd"
      d="M146.751 41.77c-2.75-.564-5.504-.23-8.258.015-.424.039-.93-.057-1.293-.272-3.453-2.034-5.451-5.23-6.909-8.832-.098-.245-.052-.566-.012-.844.344-2.447 1.152-3.094 1.3-5.976.144-1.09-.497-3.654-.932-4.657-.526-1.21-1.731-1.108-2.82-.952-1.002.142-1.627.732-1.732 1.791-.12 1.209-.242 2.456-.073 3.644.331 2.298.887 4.563 1.298 6.851.086.48.096 1.072-.108 1.492-1.841 3.792-3.754 7.55-5.605 11.337-.497 1.015-1.209 1.69-2.23 2.186-2.156 1.046-4.192 2.32-5.775 4.148-.648.747-1.142 1.675-1.497 2.602-.15.39.085 1.154.414 1.457 1.165 1.073 2.698 1.197 4.033.299.905-.61 1.797-1.338 2.452-2.199 1.389-1.823 2.658-3.744 3.896-5.675.392-.61.813-1.005 1.512-1.168 3.905-.908 7.802-1.844 11.712-2.732.355-.08.797.042 1.153.185 1.563.627 3.084 1.37 4.67 1.927 1.675.589 3.413.985 5.221.802 1.076-.11 1.688-.658 1.958-1.697.541-2.086-.201-3.286-2.375-3.731Zm-32.237 13.006c.128-1.229 2.402-3.926 4.644-5.489-1.269 2.025-2.579 4.02-4.644 5.489ZM128.69 21.18c1.91 1.924 1.493 5.07.457 7.389-1.217-2.297-1.557-5.105-.457-7.39Zm-3.981 23.825 4.119-8.395 4.961 5.898-9.08 2.497Zm22.552.194c-.805-.025-1.631-.043-2.404-.242-1.054-.27-2.068-.705-3.1-1.069l.029-.248c1.76-.16 3.514-.214 5.241.314.138.042.273.118.395.171.325.143.56.469.56.707-.069.234-.484.374-.721.367Z"
      fill="#FAB906" />
  </g>
  <defs>
    <clipPath id="a">
      <path fill="#fff" d="M0 0h170v163H0z" />
    </clipPath>
    <clipPath id="b">
      <path fill="#fff" transform="translate(3.15)" d="M0 0h166.849v112.918H0z" />
    </clipPath>
    <clipPath id="c">
      <path fill="#fff" transform="translate(3.15)" d="M0 0h166.849v112.918H0z" />
    </clipPath>
    <clipPath id="d">
      <path fill="#fff" transform="translate(3.15 106.498)" d="M0 0h166.849v6.42H0z" />
    </clipPath>
    <clipPath id="e">
      <path fill="#fff" transform="translate(3.15 85.197)" d="M0 0h166.849v6.42H0z" />
    </clipPath>
    <clipPath id="f">
      <path fill="#fff" transform="translate(3.15 63.898)" d="M0 0h166.849v6.42H0z" />
    </clipPath>
    <clipPath id="g">
      <path fill="#fff" transform="translate(3.15 42.6)" d="M0 0h166.849v6.42H0z" />
    </clipPath>
    <clipPath id="h">
      <path fill="#fff" transform="translate(3.15 21.3)" d="M0 0h166.849v6.42H0z" />
    </clipPath>
    <clipPath id="i">
      <path fill="#fff" transform="translate(3.15)" d="M0 0h166.849v6.42H0z" />
    </clipPath>
    <filter id="j" x="11.282" y="27.379" width="124.55" height="124.579" filterUnits="userSpaceOnUse"
      color-interpolation-filters="sRGB">
      <feFlood flood-opacity="0" result="BackgroundImageFix" />
      <feColorMatrix in="SourceAlpha" values="0 0 0 0 0 0 0 0 0 0 0 0 0 0 0 0 0 0 127 0" result="hardAlpha" />
      <feOffset dx="-2.835" dy="2.835" />
      <feColorMatrix values="0 0 0 0 0.133333 0 0 0 0 0.133333 0 0 0 0 0.133333 0 0 0 1 0" />
      <feBlend in2="BackgroundImageFix" result="effect1_dropShadow" />
      <feBlend in="SourceGraphic" in2="effect1_dropShadow" result="shape" />
    </filter>
  </defs>
</svg>