<svg width="50" height="50" viewBox="0 0 50 50" fill="none" xmlns="http://www.w3.org/2000/svg">
<g clip-path="url(#clip0_1418_289911)">
<g opacity="0.4" clip-path="url(#clip1_1418_289911)">
<g clip-path="url(#clip2_1418_289911)">
<g clip-path="url(#clip3_1418_289911)">
<circle cx="4.3631" cy="32.8358" r="0.960756" fill="#FDC723"/>
<circle cx="9.92951" cy="32.8358" r="0.960756" fill="#FDC723"/>
<circle cx="15.3904" cy="32.8358" r="0.960756" fill="#FDC723"/>
<circle cx="20.8553" cy="32.8358" r="0.960756" fill="#FDC723"/>
<circle cx="26.3162" cy="32.8358" r="0.960756" fill="#FDC723"/>
<circle cx="31.7772" cy="32.8358" r="0.960756" fill="#FDC723"/>
<circle cx="37.242" cy="32.8358" r="0.960756" fill="#FDC723"/>
<circle cx="42.8045" cy="32.8358" r="0.960756" fill="#FDC723"/>
<circle cx="48.1639" cy="32.8358" r="0.960756" fill="#FDC723"/>
</g>
<g clip-path="url(#clip4_1418_289911)">
<circle cx="4.3631" cy="26.4608" r="0.960756" fill="#FDC723"/>
<circle cx="9.92951" cy="26.4608" r="0.960756" fill="#FDC723"/>
<circle cx="15.3904" cy="26.4608" r="0.960756" fill="#FDC723"/>
<circle cx="20.8553" cy="26.4608" r="0.960756" fill="#FDC723"/>
<circle cx="26.3162" cy="26.4608" r="0.960756" fill="#FDC723"/>
<circle cx="31.7772" cy="26.4608" r="0.960756" fill="#FDC723"/>
<circle cx="37.242" cy="26.4608" r="0.960756" fill="#FDC723"/>
<circle cx="42.8045" cy="26.4608" r="0.960756" fill="#FDC723"/>
<circle cx="48.1639" cy="26.4608" r="0.960756" fill="#FDC723"/>
</g>
<g clip-path="url(#clip5_1418_289911)">
<circle cx="4.3631" cy="20.0858" r="0.960756" fill="#FDC723"/>
<circle cx="9.92951" cy="20.0858" r="0.960756" fill="#FDC723"/>
<circle cx="15.3904" cy="20.0858" r="0.960756" fill="#FDC723"/>
<circle cx="20.8553" cy="20.0858" r="0.960756" fill="#FDC723"/>
<circle cx="26.3162" cy="20.0858" r="0.960756" fill="#FDC723"/>
<circle cx="31.7772" cy="20.0858" r="0.960756" fill="#FDC723"/>
<circle cx="37.242" cy="20.0858" r="0.960756" fill="#FDC723"/>
<circle cx="42.8045" cy="20.0858" r="0.960756" fill="#FDC723"/>
<circle cx="48.1639" cy="20.0858" r="0.960756" fill="#FDC723"/>
</g>
<g clip-path="url(#clip6_1418_289911)">
<circle cx="4.3631" cy="13.7108" r="0.960756" fill="#FDC723"/>
<circle cx="9.92951" cy="13.7108" r="0.960756" fill="#FDC723"/>
<circle cx="15.3904" cy="13.7108" r="0.960756" fill="#FDC723"/>
<circle cx="20.8553" cy="13.7108" r="0.960756" fill="#FDC723"/>
<circle cx="26.3162" cy="13.7108" r="0.960756" fill="#FDC723"/>
<circle cx="31.7772" cy="13.7108" r="0.960756" fill="#FDC723"/>
<circle cx="37.242" cy="13.7108" r="0.960756" fill="#FDC723"/>
<circle cx="42.8045" cy="13.7108" r="0.960756" fill="#FDC723"/>
<circle cx="48.1639" cy="13.7108" r="0.960756" fill="#FDC723"/>
</g>
<g clip-path="url(#clip7_1418_289911)">
<circle cx="4.3631" cy="7.33576" r="0.960756" fill="#FDC723"/>
<circle cx="9.92951" cy="7.33576" r="0.960756" fill="#FDC723"/>
<circle cx="15.3904" cy="7.33576" r="0.960756" fill="#FDC723"/>
<circle cx="20.8553" cy="7.33576" r="0.960756" fill="#FDC723"/>
<circle cx="26.3162" cy="7.33576" r="0.960756" fill="#FDC723"/>
<circle cx="31.7772" cy="7.33576" r="0.960756" fill="#FDC723"/>
<circle cx="37.2381" cy="7.33576" r="0.960756" fill="#FDC723"/>
<circle cx="42.8045" cy="7.33576" r="0.960756" fill="#FDC723"/>
<circle cx="48.1639" cy="7.33576" r="0.960756" fill="#FDC723"/>
</g>
<g clip-path="url(#clip8_1418_289911)">
<circle cx="4.3631" cy="0.960756" r="0.960756" fill="#FDC723"/>
<circle cx="9.92951" cy="0.960756" r="0.960756" fill="#FDC723"/>
<circle cx="15.3904" cy="0.960756" r="0.960756" fill="#FDC723"/>
<circle cx="20.8553" cy="0.960756" r="0.960756" fill="#FDC723"/>
<circle cx="26.3162" cy="0.960756" r="0.960756" fill="#FDC723"/>
<circle cx="31.7772" cy="0.960756" r="0.960756" fill="#FDC723"/>
<circle cx="37.2381" cy="0.960756" r="0.960756" fill="#FDC723"/>
<circle cx="42.8045" cy="0.960756" r="0.960756" fill="#FDC723"/>
<circle cx="48.1639" cy="0.960756" r="0.960756" fill="#FDC723"/>
</g>
</g>
</g>
<g clip-path="url(#clip9_1418_289911)">
<rect y="13" width="36" height="37" fill="#FDC723"/>
<g filter="url(#filter0_d_1418_289911)">
<rect x="4.30078" y="8.19531" width="37.4203" height="37.3599" fill="white"/>
<rect x="4.30078" y="8.19531" width="37.4203" height="37.3599" stroke="#A7ACB6" stroke-width="0.156249"/>
</g>
<path d="M20.8248 35L20.8042 26.3522L16.5627 33.4763H15.0596L10.8387 26.5375V35H7.70897V20.587H10.468L15.8626 29.5436L21.1748 20.587H23.9133L23.9545 35H20.8248ZM33.8805 23.7579C35.2531 23.7579 36.3581 24.1697 37.1955 24.9933C38.0465 25.8169 38.472 27.0385 38.472 28.6583V35H35.26V29.1524C35.26 28.2739 35.0678 27.6219 34.6835 27.1964C34.2991 26.7571 33.7432 26.5375 33.0157 26.5375C32.2058 26.5375 31.5607 26.7915 31.0802 27.2993C30.5998 27.7935 30.3596 28.5347 30.3596 29.5231V35H27.1475V23.9226H30.2154V25.2197C30.641 24.753 31.1695 24.3961 31.8009 24.1491C32.4323 23.8883 33.1255 23.7579 33.8805 23.7579Z" fill="#23252C"/>
<path d="M32.293 39.7737C32.293 42.3337 32.293 44.8936 32.2934 47.454C32.2934 48.4775 32.8855 49.0696 33.9142 49.0696C38.2407 49.0709 42.5676 49.0705 46.8945 49.0696C47.9378 49.0696 48.5222 48.48 48.5226 47.4316C48.5226 43.896 48.5076 40.3603 48.5346 36.8246C48.5402 36.106 48.3398 35.5023 47.9416 34.9333C47.2566 33.9546 46.4589 33.0739 45.5632 32.29C44.9766 31.777 44.3419 31.3164 43.708 30.8614C43.3494 30.6034 42.9275 30.5178 42.4747 30.5196C39.6258 30.5303 36.7764 30.5247 33.9275 30.5251C32.8726 30.5251 32.2934 31.1014 32.2934 32.1515C32.293 34.6925 32.293 37.2331 32.293 39.7737L32.293 39.7737Z" stroke="#23252C" stroke-width="0.156249" stroke-linecap="round" stroke-linejoin="round"/>
<path d="M32.293 39.7737C32.293 37.2331 32.293 34.6925 32.2934 32.1515C32.2934 31.1014 32.8726 30.5251 33.9275 30.5251C36.7764 30.5247 39.6258 30.5303 42.4747 30.5196C42.9275 30.5178 43.3494 30.6034 43.708 30.8614C44.3419 31.3164 44.9766 31.777 45.5632 32.29C46.4589 33.0739 47.2566 33.9546 47.9416 34.9333C48.3398 35.5023 48.5402 36.106 48.5346 36.8246C48.5076 40.3603 48.5226 43.896 48.5226 47.4316C48.5222 48.48 47.9378 49.0696 46.8945 49.0696C42.5676 49.0705 38.2407 49.0709 33.9142 49.0696C32.8855 49.0696 32.2934 48.4775 32.2934 47.454C32.293 44.8936 32.293 42.3337 32.293 39.7737L32.293 39.7737Z" fill="#23252C"/>
<path d="M42.7535 31.8056C42.6447 31.7987 42.5694 31.7897 42.4946 31.7897C39.6362 31.7888 36.7774 31.7888 33.919 31.7897C33.5574 31.7897 33.4847 31.8718 33.4847 32.2705C33.4843 37.3512 33.4843 42.4324 33.4847 47.5136C33.4847 47.9312 33.5574 48.0065 33.9685 48.0065C38.2756 48.0073 42.5828 48.0069 46.8899 48.0065C47.3225 48.0065 47.3892 47.9381 47.3892 47.4999C47.3896 43.916 47.3896 40.3322 47.3896 36.7484V36.425H47.0271C45.8781 36.425 44.7286 36.425 43.5796 36.425C42.9225 36.4245 42.7539 36.2577 42.7539 35.6062C42.7535 34.351 42.7535 33.0957 42.7535 31.8056H42.7535Z" fill="white"/>
<path d="M43.8984 35.1466H46.6635C45.8314 34.1102 44.9348 33.2158 43.8984 32.3789V35.1466Z" fill="white"/>
<path d="M45.2796 44.5821H34.9375V35.1484H35.7976V43.7221H45.2796V44.5821Z" fill="#FDC723"/>
<path d="M40.0955 43.1756L38.1007 41.159L36.987 42.7061L36.2891 42.2034L37.997 39.8311L39.8792 41.7339L42.3359 37.0391L43.6031 38.9448L44.9433 38.8896L44.9786 39.7488L43.155 39.8242L42.4243 38.7252L40.0955 43.1756Z" fill="#FDC723"/>
<path d="M7.48062 41.7684C7.895 41.7684 8.19562 41.8416 8.38249 41.9878C8.56937 42.1314 8.6628 42.3358 8.6628 42.6013C8.6628 42.7638 8.62489 42.9086 8.54906 43.0359C8.47593 43.1605 8.36489 43.2594 8.21593 43.3325C8.06697 43.4056 7.88416 43.4422 7.6675 43.4422C7.46166 43.4422 7.26802 43.407 7.08656 43.3366C6.90781 43.2661 6.76833 43.1741 6.66812 43.0603L6.77375 42.9019C6.86312 43.0048 6.98635 43.0888 7.14344 43.1538C7.30323 43.2188 7.47656 43.2513 7.66343 43.2513C7.91802 43.2513 8.11302 43.193 8.24843 43.0766C8.38656 42.9601 8.45562 42.8044 8.45562 42.6094C8.45562 42.3954 8.37708 42.2329 8.21999 42.1219C8.06562 42.0108 7.80427 41.9553 7.43593 41.9553H6.85906L7.00937 40.5781H8.51656V40.765H7.18406L7.07437 41.7684H7.48062ZM11.4237 42.6338H10.8266V43.4219H10.6234V42.6338H9.0025V42.4834L10.5462 40.5781H10.7778L9.2625 42.4509H10.6275V41.7563H10.8266V42.4509H11.4237V42.6338ZM11.9715 43.4381C11.9254 43.4381 11.8848 43.4219 11.8496 43.3894C11.8171 43.3542 11.8009 43.3122 11.8009 43.2634C11.8009 43.2147 11.8171 43.1741 11.8496 43.1416C11.8848 43.1091 11.9254 43.0928 11.9715 43.0928C12.0175 43.0928 12.0568 43.1091 12.0893 43.1416C12.1245 43.1741 12.1421 43.2147 12.1421 43.2634C12.1421 43.3122 12.1245 43.3542 12.0893 43.3894C12.0568 43.4219 12.0175 43.4381 11.9715 43.4381ZM13.4591 40.5578C13.8275 40.5578 14.1091 40.6838 14.3041 40.9356C14.5018 41.1848 14.6007 41.5342 14.6007 41.9838C14.6007 42.2979 14.5479 42.5647 14.4423 42.7841C14.3393 43.0007 14.1931 43.1646 14.0035 43.2756C13.8139 43.3867 13.5918 43.4422 13.3373 43.4422C13.0691 43.4422 12.8538 43.3934 12.6913 43.2959L12.7766 43.1294C12.9121 43.216 13.0989 43.2594 13.3373 43.2594C13.665 43.2594 13.9223 43.1538 14.1091 42.9425C14.2987 42.7285 14.3935 42.4198 14.3935 42.0163C14.3935 41.8917 14.3854 41.7779 14.3691 41.675C14.3123 41.8592 14.2012 42.0027 14.036 42.1056C13.8735 42.2085 13.6826 42.26 13.4632 42.26C13.2763 42.26 13.1098 42.2262 12.9635 42.1584C12.82 42.088 12.7089 41.9892 12.6304 41.8619C12.5519 41.7319 12.5126 41.5829 12.5126 41.415C12.5126 41.2444 12.5532 41.0941 12.6345 40.9641C12.7157 40.8341 12.8281 40.7339 12.9716 40.6634C13.1152 40.593 13.2777 40.5578 13.4591 40.5578ZM13.4916 42.0813C13.6433 42.0813 13.7787 42.0515 13.8979 41.9919C14.0198 41.9323 14.1132 41.851 14.1782 41.7481C14.2459 41.6452 14.2798 41.5301 14.2798 41.4028C14.2798 41.2891 14.2473 41.1807 14.1823 41.0778C14.12 40.9749 14.0279 40.8923 13.906 40.83C13.7841 40.7677 13.6379 40.7366 13.4673 40.7366C13.2452 40.7366 13.0651 40.7989 12.927 40.9234C12.7888 41.0453 12.7198 41.2078 12.7198 41.4109C12.7198 41.6141 12.7888 41.7766 12.927 41.8984C13.0651 42.0203 13.2533 42.0813 13.4916 42.0813ZM15.8714 41.8172C16.1856 41.8253 16.4239 41.9025 16.5864 42.0488C16.7516 42.1923 16.8342 42.3832 16.8342 42.6216C16.8342 42.7814 16.7963 42.9235 16.7205 43.0481C16.6447 43.17 16.5309 43.2661 16.3792 43.3366C16.2303 43.407 16.0502 43.4422 15.8389 43.4422C15.6331 43.4422 15.4395 43.4083 15.258 43.3406C15.0765 43.2702 14.9357 43.1768 14.8355 43.0603L14.9411 42.9019C15.0332 43.0048 15.1578 43.0888 15.3149 43.1538C15.4747 43.2188 15.6493 43.2513 15.8389 43.2513C16.0908 43.2513 16.2844 43.1957 16.4199 43.0847C16.5553 42.9709 16.623 42.8166 16.623 42.6216C16.623 42.4239 16.5539 42.2695 16.4158 42.1584C16.2777 42.0474 16.0705 41.9919 15.7942 41.9919H15.6155V41.8416L16.4564 40.765H14.9411V40.5781H16.7246V40.7244L15.8714 41.8172ZM18.7949 41.935C18.9899 41.9865 19.1402 42.0731 19.2458 42.195C19.3541 42.3169 19.4083 42.4658 19.4083 42.6419C19.4083 42.891 19.3122 43.0874 19.1199 43.2309C18.9276 43.3718 18.6635 43.4422 18.3277 43.4422C17.9946 43.4422 17.7318 43.3718 17.5396 43.2309C17.35 43.0874 17.2552 42.891 17.2552 42.6419C17.2552 42.4631 17.3066 42.3142 17.4096 42.195C17.5152 42.0731 17.6655 41.9865 17.8605 41.935C17.698 41.8808 17.5734 41.7996 17.4867 41.6913C17.4001 41.5829 17.3567 41.4502 17.3567 41.2931C17.3567 41.0656 17.4448 40.8869 17.6208 40.7569C17.7968 40.6242 18.0325 40.5578 18.3277 40.5578C18.6229 40.5578 18.8599 40.6242 19.0386 40.7569C19.2174 40.8896 19.3067 41.0683 19.3067 41.2931C19.3067 41.4475 19.262 41.5802 19.1727 41.6913C19.086 41.7996 18.9601 41.8808 18.7949 41.935ZM17.5639 41.2972C17.5639 41.4678 17.6303 41.6032 17.763 41.7034C17.8984 41.8037 18.0866 41.8538 18.3277 41.8538C18.5687 41.8538 18.7569 41.805 18.8924 41.7075C19.0305 41.6073 19.0996 41.4719 19.0996 41.3013C19.0996 41.1279 19.0291 40.9912 18.8883 40.8909C18.7502 40.788 18.5633 40.7366 18.3277 40.7366C18.0921 40.7366 17.9052 40.7867 17.7671 40.8869C17.6316 40.9871 17.5639 41.1239 17.5639 41.2972ZM18.3277 43.2634C18.6012 43.2634 18.8152 43.2079 18.9696 43.0969C19.1239 42.9858 19.2011 42.8342 19.2011 42.6419C19.2011 42.4523 19.1239 42.302 18.9696 42.1909C18.8152 42.0799 18.6012 42.0244 18.3277 42.0244C18.0568 42.0244 17.8442 42.0799 17.6899 42.1909C17.5382 42.302 17.4624 42.4523 17.4624 42.6419C17.4624 42.8342 17.5382 42.9858 17.6899 43.0969C17.8415 43.2079 18.0541 43.2634 18.3277 43.2634Z" fill="#23252C"/>
<path d="M8.99562 14.1725V14.3594H7.04156V14.2131L8.24406 13.0188C8.40114 12.8617 8.50676 12.7276 8.56093 12.6166C8.61781 12.5028 8.64624 12.3864 8.64624 12.2672C8.64624 12.0857 8.58395 11.9436 8.45937 11.8406C8.33749 11.7377 8.1601 11.6863 7.92718 11.6863C7.74843 11.6863 7.59135 11.7133 7.45594 11.7675C7.32323 11.8217 7.20812 11.9043 7.11062 12.0153L6.96437 11.8853C7.07271 11.7607 7.20948 11.6646 7.37469 11.5969C7.5426 11.5292 7.73218 11.4953 7.94343 11.4953C8.22239 11.4953 8.44447 11.563 8.60968 11.6984C8.77489 11.8339 8.85749 12.0167 8.85749 12.2469C8.85749 12.3931 8.82499 12.5326 8.75999 12.6653C8.69499 12.798 8.57312 12.9524 8.39437 13.1284L7.34625 14.1725H8.99562ZM10.0822 12.7059C10.4966 12.7059 10.7972 12.7791 10.9841 12.9253C11.171 13.0689 11.2644 13.2733 11.2644 13.5388C11.2644 13.7013 11.2265 13.8461 11.1507 13.9734C11.0775 14.098 10.9665 14.1969 10.8175 14.27C10.6686 14.3431 10.4858 14.3797 10.2691 14.3797C10.0633 14.3797 9.86963 14.3445 9.68818 14.2741C9.50943 14.2036 9.36995 14.1116 9.26974 13.9978L9.37536 13.8394C9.46474 13.9423 9.58797 14.0263 9.74505 14.0913C9.90484 14.1563 10.0782 14.1888 10.265 14.1888C10.5196 14.1888 10.7146 14.1305 10.85 14.0141C10.9882 13.8976 11.0572 13.7419 11.0572 13.5469C11.0572 13.3329 10.9787 13.1704 10.8216 13.0594C10.6672 12.9483 10.4059 12.8928 10.0375 12.8928H9.46068L9.61099 11.5156H11.1182V11.7025H9.78568L9.67599 12.7059H10.0822Z" fill="#23252C"/>
<path d="M32.3205 11.4886C32.3205 14.0485 32.3201 16.6085 32.3205 19.1684C32.3209 20.1923 32.9127 20.784 33.9413 20.7845C38.2682 20.7853 42.5947 20.7853 46.9216 20.7845C47.9649 20.784 48.5493 20.1949 48.5497 19.1461C48.5501 15.6104 48.5351 12.0747 48.5622 8.53904C48.5673 7.82089 48.367 7.2167 47.9688 6.6482C47.2841 5.66946 46.486 4.78833 45.5903 4.00483C45.0037 3.49181 44.369 3.03125 43.7356 2.57585C43.3765 2.31827 42.9546 2.23268 42.5018 2.2344C39.6529 2.24472 36.8035 2.23913 33.9546 2.23957C32.8998 2.23957 32.3205 2.81579 32.3205 3.86636C32.3201 6.40696 32.3205 8.94756 32.3205 11.4886Z" stroke="#23252C" stroke-width="0.156249" stroke-linecap="round" stroke-linejoin="round"/>
<path d="M32.3205 11.4886C32.3205 8.94755 32.3201 6.40696 32.3205 3.86636C32.3205 2.81579 32.8998 2.23957 33.9546 2.23957C36.8035 2.23913 39.6529 2.24472 42.5018 2.2344C42.9546 2.23268 43.3765 2.31827 43.7356 2.57585C44.369 3.03125 45.0037 3.49181 45.5903 4.00483C46.486 4.78833 47.2841 5.66946 47.9688 6.6482C48.367 7.2167 48.5673 7.82089 48.5622 8.53904C48.5351 12.0747 48.5501 15.6104 48.5497 19.1461C48.5493 20.1949 47.9649 20.784 46.9216 20.7845C42.5947 20.7853 38.2682 20.7853 33.9413 20.7845C32.9127 20.784 32.3209 20.1923 32.3205 19.1684C32.3201 16.6085 32.3205 14.0485 32.3205 11.4886Z" fill="#23252C"/>
<path d="M42.7774 3.52031C42.6681 3.51344 42.5933 3.5044 42.5181 3.5044C39.6597 3.50398 36.8008 3.50354 33.9425 3.5044C33.5808 3.50484 33.5081 3.58697 33.5081 3.98518C33.5077 9.06636 33.5077 14.1476 33.5081 19.2283C33.5081 19.6463 33.5812 19.7216 33.9919 19.7216C38.2991 19.722 42.6062 19.722 46.9138 19.7216C47.346 19.7216 47.413 19.6528 47.413 19.2146C47.413 15.6307 47.413 12.0469 47.413 8.46305V8.13966H47.0505C45.9015 8.13966 44.752 8.14009 43.603 8.13966C42.9459 8.13966 42.7774 7.97238 42.7774 7.32089C42.7769 6.06565 42.7774 4.81039 42.7774 3.5203L42.7774 3.52031Z" fill="white"/>
<path d="M43.9219 6.86115H46.6869C45.8548 5.82436 44.9582 4.92992 43.9219 4.09351V6.86115Z" fill="white"/>
<path fill-rule="evenodd" clip-rule="evenodd" d="M45.4933 12.4293C44.6702 12.2604 43.8458 12.3601 43.0215 12.4337C42.8946 12.4453 42.7432 12.4165 42.6344 12.3524C41.6011 11.743 41.0029 10.7871 40.5664 9.70858C40.5372 9.63545 40.5514 9.53913 40.563 9.45614C40.6658 8.7238 40.9079 8.52986 40.9522 7.66723C40.9952 7.34126 40.8034 6.57367 40.6731 6.27351C40.5157 5.91101 40.1549 5.94196 39.8289 5.98841C39.5292 6.03098 39.3422 6.20773 39.3108 6.52465C39.2746 6.88631 39.2381 7.25957 39.2893 7.6152C39.3877 8.30325 39.5542 8.98097 39.6772 9.66557C39.7029 9.80963 39.706 9.9868 39.6453 10.1124C39.094 11.2476 38.5212 12.3722 37.9674 13.5057C37.8186 13.8097 37.6053 14.0118 37.3 14.1602C36.6545 14.4733 36.0451 14.8547 35.5713 15.4017C35.3773 15.6253 35.2294 15.9031 35.1232 16.1805C35.0784 16.297 35.1485 16.5258 35.247 16.6165C35.5958 16.9377 36.0546 16.9747 36.4541 16.706C36.725 16.5236 36.9921 16.3056 37.1881 16.048C37.604 15.5023 37.9837 14.9274 38.3548 14.3494C38.4718 14.1667 38.5978 14.0484 38.8068 13.9998C39.9756 13.728 41.1422 13.4477 42.3123 13.1819C42.4186 13.1578 42.551 13.1944 42.6577 13.2374C43.1255 13.4249 43.5805 13.6472 44.0552 13.814C44.5567 13.9904 45.077 14.109 45.618 14.054C45.94 14.0213 46.1232 13.857 46.2041 13.5461C46.3662 12.9217 46.1439 12.5626 45.4933 12.4293H45.4933ZM35.8438 16.3224C35.882 15.9547 36.5628 15.1476 37.2336 14.6797C36.8539 15.2856 36.4617 15.8829 35.8438 16.3224ZM40.0861 6.26562C40.6576 6.84141 40.5329 7.78318 40.2228 8.47724C39.8586 7.78965 39.7566 6.94937 40.0861 6.26562ZM38.8945 13.3955C39.3134 12.5419 39.7296 11.6939 40.1274 10.8828C40.6133 11.4608 41.1216 12.0645 41.6123 12.6481C40.7454 12.8867 39.8238 13.14 38.8945 13.3955V13.3955ZM45.6474 13.4527C45.4066 13.4454 45.1593 13.4398 44.928 13.3805C44.6124 13.2997 44.3088 13.1694 44 13.0606L44.0086 12.9862C44.5354 12.9384 45.0605 12.9221 45.5773 13.0803C45.6186 13.0928 45.659 13.1156 45.6956 13.1315C45.7928 13.1741 45.8633 13.2717 45.8633 13.3431C45.8427 13.4132 45.7184 13.4549 45.6474 13.4527Z" fill="#FDC723"/>
</g>
</g>
<defs>
<filter id="filter0_d_1418_289911" x="3.33683" y="8.11719" width="38.462" height="38.4019" filterUnits="userSpaceOnUse" color-interpolation-filters="sRGB">
<feFlood flood-opacity="0" result="BackgroundImageFix"/>
<feColorMatrix in="SourceAlpha" type="matrix" values="0 0 0 0 0 0 0 0 0 0 0 0 0 0 0 0 0 0 127 0" result="hardAlpha"/>
<feOffset dx="-0.885823" dy="0.885823"/>
<feColorMatrix type="matrix" values="0 0 0 0 0.133333 0 0 0 0 0.133333 0 0 0 0 0.133333 0 0 0 1 0"/>
<feBlend mode="normal" in2="BackgroundImageFix" result="effect1_dropShadow_1418_289911"/>
<feBlend mode="normal" in="SourceGraphic" in2="effect1_dropShadow_1418_289911" result="shape"/>
</filter>
<clipPath id="clip0_1418_289911">
<rect width="50" height="50" fill="white"/>
</clipPath>
<clipPath id="clip1_1418_289911">
<rect width="47" height="34" fill="white" transform="translate(3)"/>
</clipPath>
<clipPath id="clip2_1418_289911">
<rect width="47" height="34" fill="white" transform="translate(3)"/>
</clipPath>
<clipPath id="clip3_1418_289911">
<rect width="47" height="3" fill="white" transform="translate(3 31)"/>
</clipPath>
<clipPath id="clip4_1418_289911">
<rect width="47" height="3" fill="white" transform="translate(3 25)"/>
</clipPath>
<clipPath id="clip5_1418_289911">
<rect width="47" height="3" fill="white" transform="translate(3 19)"/>
</clipPath>
<clipPath id="clip6_1418_289911">
<rect width="47" height="3" fill="white" transform="translate(3 12)"/>
</clipPath>
<clipPath id="clip7_1418_289911">
<rect width="47" height="3" fill="white" transform="translate(3 6)"/>
</clipPath>
<clipPath id="clip8_1418_289911">
<rect width="47" height="2" fill="white" transform="translate(3)"/>
</clipPath>
<clipPath id="clip9_1418_289911">
<rect width="49" height="48" fill="white" transform="translate(0 2)"/>
</clipPath>
</defs>
</svg>
