<svg width="24" height="24" viewBox="0 0 24 24" fill="none" xmlns="http://www.w3.org/2000/svg">
    <path d="M8 3h-.2c-1.68 0-2.52 0-3.162.328a3 3 0 0 0-1.311 1.31C3 5.282 3 6.122 3 7.802V8m5 13h-.2c-1.68 0-2.52 0-3.162-.327a3 3 0 0 1-1.311-1.311C3 18.72 3 17.88 3 16.2V16m18-8v-.2c0-1.68 0-2.52-.327-3.162a3 3 0 0 0-1.311-1.311C18.72 3 17.88 3 16.2 3H16m5 13v.2c0 1.68 0 2.52-.327 3.162a3 3 0 0 1-1.311 1.31c-.642.328-1.482.328-3.162.328H16" stroke="#23252C" stroke-width="2" stroke-linecap="round" stroke-linejoin="round"/>
</svg>
