<svg width="40" height="40" viewBox="0 0 40 40" fill="none" xmlns="http://www.w3.org/2000/svg">
    <path clip-rule="evenodd" d="M3.333 5.333a2 2 0 0 1 2-2h29.334a2 2 0 0 1 2 2v29.334a2 2 0 0 1-2 2H5.333a2 2 0 0 1-2-2V5.333z" stroke="#000" stroke-opacity=".87" stroke-width="2"/>
    <path d="M21.131 26.667h-2.786l-.018-7.7-3.777 6.343H13.21l-3.758-6.178v7.535H6.667V13.833h2.456l4.804 7.975 4.73-7.975h2.438l.037 12.834zM29.053 16.657c2.328 0 4.088 1.356 4.088 4.363v5.647h-2.86V21.46c0-1.595-.733-2.328-1.998-2.328-1.375 0-2.365.843-2.365 2.658v4.877h-2.86v-9.864h2.732v1.155c.77-.843 1.925-1.301 3.263-1.301z" fill="#000" fill-opacity=".87"/>
</svg>
