<svg width="40" height="40" viewBox="0 0 40 40" fill="none" xmlns="http://www.w3.org/2000/svg">
    <path clip-rule="evenodd" d="M3.333 5.333a2 2 0 0 1 2-2h29.334a2 2 0 0 1 2 2v29.334a2 2 0 0 1-2 2H5.333a2 2 0 0 1-2-2V5.333z" stroke="#000" stroke-opacity=".87" stroke-width="2"/>
    <path d="M19.825 14.807v7.2l-5.89-7.2h-2.269v11.86h2.709v-7.2l5.907 7.2h2.25v-11.86h-2.707zM26.47 16.281c.982 0 1.642-.643 1.642-1.524 0-.814-.66-1.424-1.642-1.424-.982 0-1.642.644-1.642 1.474s.66 1.474 1.642 1.474zm-1.32 10.386h2.64v-9.115h-2.64v9.115z" fill="#000" fill-opacity=".87"/>
</svg>
