<svg width="44" height="59" viewBox="0 0 44 59" fill="none" xmlns="http://www.w3.org/2000/svg">
  <path clip-rule="evenodd" d="M2 4.053C2 2.919 2.919 2 4.053 2h35.894C41.081 2 42 2.919 42 4.053v35.894A2.053 2.053 0 0 1 39.947 42H4.053A2.053 2.053 0 0 1 2 39.947V4.053Z" stroke="currentColor" stroke-width="2.5" />
  <path d="M21.244 14.949v9.138l-7.475-9.138H10.89v15.05h3.437v-9.137L21.824 30h2.857V14.949h-3.437ZM29.678 16.82c1.246 0 2.084-.818 2.084-1.936 0-1.032-.838-1.806-2.084-1.806s-2.084.817-2.084 1.87c0 1.054.838 1.871 2.084 1.871ZM28.003 30h3.35V18.432h-3.35V30ZM10.7 49.6V58H9.104l-4.188-5.1V58h-1.92v-8.4h1.608l4.176 5.1v-5.1h1.92Zm1.855 1.944h1.872V58h-1.872v-6.456Zm.936-.9c-.344 0-.624-.1-.84-.3a.973.973 0 0 1-.324-.744c0-.296.108-.544.324-.744.216-.2.496-.3.84-.3s.624.096.84.288a.923.923 0 0 1 .324.72c0 .312-.108.572-.324.78-.216.2-.496.3-.84.3Zm5.794 7.452c-.688 0-1.308-.14-1.86-.42a3.286 3.286 0 0 1-1.284-1.188 3.257 3.257 0 0 1-.456-1.716c0-.64.152-1.212.456-1.716a3.2 3.2 0 0 1 1.284-1.176c.552-.288 1.172-.432 1.86-.432.68 0 1.272.144 1.776.432.512.28.884.684 1.116 1.212l-1.452.78c-.336-.592-.82-.888-1.452-.888-.488 0-.892.16-1.212.48-.32.32-.48.756-.48 1.308s.16.988.48 1.308c.32.32.724.48 1.212.48.64 0 1.124-.296 1.452-.888l1.452.792a2.57 2.57 0 0 1-1.116 1.2c-.504.288-1.096.432-1.776.432Zm6.695-2.628-.9.888V58h-1.872v-8.904h1.872v5.04l2.736-2.592h2.232L27.36 54.28 30.288 58H28.02l-2.04-2.532Zm11.192-.672c0 .024-.012.192-.036.504h-4.884c.088.4.296.716.624.948.328.232.736.348 1.224.348.336 0 .632-.048.888-.144a2.23 2.23 0 0 0 .732-.48l.996 1.08c-.608.696-1.496 1.044-2.664 1.044-.728 0-1.372-.14-1.932-.42a3.163 3.163 0 0 1-1.296-1.188 3.257 3.257 0 0 1-.456-1.716c0-.632.148-1.2.444-1.704a3.15 3.15 0 0 1 1.236-1.188 3.623 3.623 0 0 1 1.764-.432 3.6 3.6 0 0 1 1.716.408c.512.272.912.664 1.2 1.176.296.504.444 1.092.444 1.764Zm-3.348-1.932c-.424 0-.78.12-1.068.36-.288.24-.464.568-.528.984h3.18c-.064-.408-.24-.732-.528-.972-.288-.248-.64-.372-1.056-.372Zm4.595-3.768h1.872V58h-1.872v-8.904Z" fill="currentColor" />
</svg>
