<svg width="170" height="160" viewBox="0 0 170 160" fill="none" xmlns="http://www.w3.org/2000/svg">
  <g clip-path="url(#a)">
    <g clip-path="url(#b)" fill="#FAB906" opacity=".4">
      <g clip-path="url(#c)">
        <circle cx="9.62" cy="105.079" r="3.074" />
        <circle cx="26.765" cy="105.079" r="3.074" />
        <circle cx="44.577" cy="105.079" r="3.074" />
        <circle cx="62.055" cy="105.079" r="3.074" />
        <circle cx="79.534" cy="105.079" r="3.074" />
        <circle cx="97.012" cy="105.079" r="3.074" />
        <circle cx="114.49" cy="105.079" r="3.074" />
        <circle cx="131.968" cy="105.079" r="3.074" />
        <circle cx="149.78" cy="105.079" r="3.074" />
        <circle cx="166.925" cy="105.079" r="3.074" />
      </g>
      <g clip-path="url(#d)">
        <circle cx="9.62" cy="84.678" r="3.074" />
        <circle cx="26.765" cy="84.678" r="3.074" />
        <circle cx="44.577" cy="84.678" r="3.074" />
        <circle cx="62.055" cy="84.678" r="3.074" />
        <circle cx="79.534" cy="84.678" r="3.074" />
        <circle cx="97.012" cy="84.678" r="3.074" />
        <circle cx="114.49" cy="84.678" r="3.074" />
        <circle cx="131.968" cy="84.678" r="3.074" />
        <circle cx="149.78" cy="84.678" r="3.074" />
        <circle cx="166.925" cy="84.678" r="3.074" />
      </g>
      <g clip-path="url(#e)">
        <circle cx="9.62" cy="64.278" r="3.074" />
        <circle cx="26.765" cy="64.278" r="3.074" />
        <circle cx="44.577" cy="64.278" r="3.074" />
        <circle cx="62.055" cy="64.278" r="3.074" />
        <circle cx="79.534" cy="64.278" r="3.074" />
        <circle cx="97.012" cy="64.278" r="3.074" />
        <circle cx="114.49" cy="64.278" r="3.074" />
        <circle cx="131.968" cy="64.278" r="3.074" />
        <circle cx="149.78" cy="64.278" r="3.074" />
        <circle cx="166.925" cy="64.278" r="3.074" />
      </g>
      <g clip-path="url(#f)">
        <circle cx="9.62" cy="43.876" r="3.074" />
        <circle cx="26.765" cy="43.876" r="3.074" />
        <circle cx="44.577" cy="43.876" r="3.074" />
        <circle cx="62.055" cy="43.876" r="3.074" />
        <circle cx="79.534" cy="43.876" r="3.074" />
        <circle cx="97.012" cy="43.876" r="3.074" />
        <circle cx="114.49" cy="43.876" r="3.074" />
        <circle cx="131.968" cy="43.876" r="3.074" />
        <circle cx="149.78" cy="43.876" r="3.074" />
        <circle cx="166.925" cy="43.876" r="3.074" />
      </g>
      <g clip-path="url(#g)">
        <circle cx="9.62" cy="23.476" r="3.074" />
        <circle cx="26.765" cy="23.476" r="3.074" />
        <circle cx="44.577" cy="23.476" r="3.074" />
        <circle cx="62.055" cy="23.476" r="3.074" />
        <circle cx="79.534" cy="23.476" r="3.074" />
        <circle cx="97.012" cy="23.476" r="3.074" />
        <circle cx="114.49" cy="23.476" r="3.074" />
        <circle cx="131.968" cy="23.476" r="3.074" />
        <circle cx="149.78" cy="23.476" r="3.074" />
        <circle cx="166.925" cy="23.476" r="3.074" />
      </g>
      <g clip-path="url(#h)">
        <circle cx="9.62" cy="3.074" r="3.074" />
        <circle cx="26.765" cy="3.074" r="3.074" />
        <circle cx="44.577" cy="3.074" r="3.074" />
        <circle cx="62.055" cy="3.074" r="3.074" />
        <circle cx="79.534" cy="3.074" r="3.074" />
        <circle cx="97.012" cy="3.074" r="3.074" />
        <circle cx="114.49" cy="3.074" r="3.074" />
        <circle cx="131.968" cy="3.074" r="3.074" />
        <circle cx="149.78" cy="3.074" r="3.074" />
        <circle cx="166.925" cy="3.074" r="3.074" />
      </g>
    </g>
  </g>
  <g clip-path="url(#i)">
    <path fill="#FAB906" d="M0 42.306h116.746v116.746H0z" />
    <g filter="url(#j)">
      <path fill="#fff" d="M13.761 26.229h119.745v119.552H13.761z" />
      <path stroke="#D3D3D3" stroke-width=".5" d="M13.761 26.229h119.745v119.552H13.761z" />
    </g>
    <path
      d="M78.85 64.951v46.2h-8.778l-23.034-28.05v28.05h-10.56v-46.2h8.844l22.968 28.05v-28.05h10.56Zm10.205 10.692H99.35v35.508H89.055V75.643Zm5.148-4.95c-1.892 0-3.432-.55-4.62-1.65-1.188-1.1-1.782-2.464-1.782-4.092 0-1.628.594-2.992 1.782-4.092 1.188-1.1 2.728-1.65 4.62-1.65s3.432.528 4.62 1.584c1.188 1.056 1.782 2.376 1.782 3.96 0 1.716-.594 3.146-1.782 4.29-1.188 1.1-2.728 1.65-4.62 1.65Z"
      fill="#222" />
    <path
      d="m103.338 127.281.001 24.577c0 3.275 1.895 5.169 5.187 5.169 13.845.005 27.691.003 41.537 0 3.338 0 5.209-1.886 5.21-5.241 0-11.314-.048-22.629.038-33.943.018-2.299-.623-4.231-1.897-6.052a47.201 47.201 0 0 0-7.611-8.459c-1.877-1.641-3.908-3.115-5.937-4.571-1.147-.826-2.497-1.1-3.946-1.094-9.117.034-18.235.017-27.352.018-3.375 0-5.229 1.844-5.229 5.204l-.001 24.392h0Z"
      stroke="#000" stroke-width=".5" stroke-linecap="round" stroke-linejoin="round" />
    <path
      d="m103.338 127.281.001-24.392c0-3.36 1.854-5.204 5.229-5.204 9.117-.001 18.235.016 27.352-.018 1.449-.005 2.799.268 3.946 1.094 2.029 1.456 4.06 2.93 5.937 4.571a47.201 47.201 0 0 1 7.611 8.459c1.274 1.821 1.915 3.753 1.897 6.052-.086 11.314-.038 22.629-.038 33.943-.001 3.355-1.872 5.241-5.21 5.241-13.846.003-27.692.005-41.537 0-3.292 0-5.187-1.894-5.187-5.169l-.001-24.577Z"
      fill="#222" />
    <path
      d="M136.807 101.788c-.348-.022-.589-.051-.828-.051-9.147-.002-18.295-.002-27.442 0-1.157 0-1.39.263-1.39 1.539v48.778c0 1.336.233 1.577 1.548 1.577 13.783.003 27.566.002 41.349 0 1.384 0 1.598-.219 1.598-1.621l.001-34.405v-1.035h-12.192c-2.103-.001-2.642-.535-2.642-2.62-.002-4.017-.002-8.033-.002-12.162Z"
      fill="#fff" />
    <path d="M140.468 112.474h8.848a57.357 57.357 0 0 0-8.848-8.857v8.857Z" fill="#FCFCFC" />
    <path d="M144.892 142.663h-33.095v-30.188h2.752v27.435h30.343v2.753Z" fill="#FAB906" />
    <path
      d="m128.304 138.158-6.384-6.453-3.563 4.951-2.234-1.609 5.465-7.591 6.024 6.089 7.861-15.024 4.055 6.099 4.289-.177.113 2.75-5.836.241-2.338-3.517-7.452 14.241Z"
      fill="#FAB906" />
    <path
      d="M23.938 133.86c1.326 0 2.288.234 2.886.702.598.46.897 1.114.897 1.963 0 .52-.121.984-.364 1.391-.234.399-.59.715-1.066.949-.477.234-1.062.351-1.755.351a5.08 5.08 0 0 1-1.859-.338c-.572-.225-1.018-.52-1.339-.884l.338-.507c.286.33.68.598 1.183.806a4.374 4.374 0 0 0 1.664.312c.815 0 1.439-.186 1.872-.559.442-.372.663-.871.663-1.495 0-.684-.251-1.204-.754-1.56-.494-.355-1.33-.533-2.509-.533h-1.846l.481-4.407h4.823v.598h-4.264l-.351 3.211h1.3Zm9.901.533c.624.165 1.105.442 1.443.832.347.39.52.867.52 1.43 0 .798-.308 1.426-.923 1.885-.615.451-1.46.676-2.535.676-1.066 0-1.907-.225-2.522-.676-.607-.459-.91-1.087-.91-1.885 0-.572.165-1.048.494-1.43.338-.39.819-.667 1.443-.832-.52-.173-.919-.433-1.196-.78-.277-.346-.416-.771-.416-1.274 0-.728.282-1.3.845-1.716.563-.424 1.317-.637 2.262-.637.945 0 1.703.213 2.275.637.572.425.858.997.858 1.716 0 .494-.143.919-.429 1.274-.277.347-.68.607-1.209.78Zm-3.939-2.041c0 .546.212.98.637 1.3.433.321 1.036.481 1.807.481.771 0 1.374-.156 1.807-.468.442-.32.663-.754.663-1.3 0-.554-.225-.992-.676-1.313-.442-.329-1.04-.494-1.794-.494s-1.352.161-1.794.481c-.433.321-.65.759-.65 1.313Zm2.444 6.292c.875 0 1.56-.177 2.054-.533.494-.355.741-.84.741-1.456 0-.606-.247-1.087-.741-1.443-.494-.355-1.179-.533-2.054-.533-.867 0-1.547.178-2.041.533-.485.356-.728.837-.728 1.443 0 .616.243 1.101.728 1.456.485.356 1.166.533 2.041.533Zm5.546.559a.558.558 0 0 1-.39-.156.573.573 0 0 1-.156-.403.53.53 0 0 1 .156-.39.558.558 0 0 1 .39-.156c.147 0 .273.052.377.156a.509.509 0 0 1 .169.39.549.549 0 0 1-.17.403.514.514 0 0 1-.376.156Zm5.518-5.434c.598 0 1.126.113 1.586.338.468.217.827.533 1.079.949.251.408.377.88.377 1.417 0 .546-.13 1.027-.39 1.443-.26.416-.62.737-1.08.962-.459.226-.979.338-1.56.338-1.178 0-2.084-.398-2.716-1.196-.624-.806-.936-1.928-.936-3.367 0-1.005.164-1.854.494-2.548.338-.702.81-1.23 1.417-1.586.606-.355 1.317-.533 2.132-.533.858 0 1.547.156 2.067.468l-.273.533c-.434-.277-1.032-.416-1.794-.416-1.049 0-1.877.343-2.483 1.027-.598.676-.897 1.66-.897 2.951 0 .399.026.763.078 1.092a2.434 2.434 0 0 1 1.053-1.378c.528-.329 1.144-.494 1.846-.494Zm-.013 4.875c.71 0 1.287-.195 1.729-.585.442-.398.663-.923.663-1.573 0-.65-.221-1.17-.663-1.56-.442-.39-1.045-.585-1.807-.585a2.96 2.96 0 0 0-1.313.286c-.382.191-.68.451-.897.78-.208.33-.312.698-.312 1.105 0 .364.1.711.299 1.04.208.33.507.594.897.793.39.2.858.299 1.404.299Zm6.936-8.658c1.179 0 2.08.403 2.704 1.209.633.798.949 1.916.949 3.354 0 1.006-.169 1.859-.507 2.561-.33.694-.797 1.218-1.404 1.573-.607.356-1.317.533-2.132.533-.858 0-1.547-.156-2.067-.468l.273-.533c.433.278 1.031.416 1.794.416 1.049 0 1.872-.338 2.47-1.014.607-.684.91-1.672.91-2.964 0-.398-.026-.762-.078-1.092a2.413 2.413 0 0 1-1.066 1.378c-.52.33-1.131.494-1.833.494-.598 0-1.131-.108-1.599-.325a2.52 2.52 0 0 1-1.066-.949 2.71 2.71 0 0 1-.377-1.43c0-.546.13-1.027.39-1.443a2.59 2.59 0 0 1 1.079-.962 3.5 3.5 0 0 1 1.56-.338Zm.104 4.875c.485 0 .919-.095 1.3-.286.39-.19.689-.45.897-.78a1.964 1.964 0 0 0 .013-2.145c-.2-.329-.494-.593-.884-.793-.39-.199-.858-.299-1.404-.299-.71 0-1.287.2-1.729.598-.442.39-.663.91-.663 1.56s.221 1.17.663 1.56c.442.39 1.044.585 1.807.585Zm7.615-.845c1.006.026 1.768.273 2.288.741.53.46.793 1.071.793 1.833 0 .512-.12.967-.364 1.365-.242.39-.606.698-1.092.923-.476.226-1.053.338-1.729.338a5.267 5.267 0 0 1-1.859-.325c-.58-.225-1.03-.524-1.352-.897l.338-.507c.295.33.694.598 1.196.806a4.41 4.41 0 0 0 1.677.312c.806 0 1.426-.177 1.86-.533.433-.364.65-.858.65-1.482 0-.632-.222-1.126-.664-1.482-.442-.355-1.105-.533-1.989-.533h-.572v-.481l2.691-3.445h-4.849v-.598h5.707v.468l-2.73 3.497ZM28.786 45.553v.598h-6.253v-.468l3.848-3.822c.503-.502.84-.931 1.014-1.287.182-.364.273-.736.273-1.118 0-.58-.2-1.035-.598-1.365-.39-.329-.958-.494-1.703-.494-.572 0-1.075.087-1.508.26a2.926 2.926 0 0 0-1.105.793l-.468-.416a3.431 3.431 0 0 1 1.313-.923c.537-.216 1.144-.325 1.82-.325.893 0 1.603.217 2.132.65.529.434.793 1.019.793 1.755 0 .468-.104.915-.312 1.34-.208.424-.598.918-1.17 1.481l-3.354 3.341h5.278Zm6.13-4.16c.623.165 1.104.442 1.442.832.347.39.52.867.52 1.43 0 .798-.307 1.426-.923 1.885-.615.451-1.46.676-2.535.676-1.066 0-1.907-.225-2.522-.676-.607-.459-.91-1.087-.91-1.885 0-.572.165-1.048.494-1.43.338-.39.82-.667 1.443-.832-.52-.173-.919-.433-1.196-.78-.277-.346-.416-.771-.416-1.274 0-.728.282-1.3.845-1.716.563-.424 1.317-.637 2.262-.637.945 0 1.703.213 2.275.637.572.425.858.997.858 1.716 0 .494-.143.919-.429 1.274-.277.347-.68.607-1.209.78Zm-3.94-2.04c0 .545.213.979.637 1.3.434.32 1.036.48 1.807.48.771 0 1.374-.156 1.807-.468.442-.32.663-.754.663-1.3 0-.554-.225-.992-.676-1.313-.442-.329-1.04-.494-1.794-.494s-1.352.16-1.794.481c-.433.321-.65.759-.65 1.313Zm2.444 6.291c.875 0 1.56-.177 2.054-.533.494-.355.741-.84.741-1.456 0-.606-.247-1.087-.74-1.443-.495-.355-1.18-.533-2.055-.533-.867 0-1.547.178-2.04.533-.486.356-.729.837-.729 1.443 0 .616.243 1.101.728 1.456.485.356 1.166.533 2.041.533Z"
      fill="#000" />
    <path
      d="M103.43 36.765c0 8.192-.002 16.384 0 24.575.001 3.277 1.894 5.17 5.186 5.172 13.846.003 27.691.003 41.537 0 3.339-.002 5.209-1.887 5.21-5.243.002-11.314-.047-22.628.04-33.943.017-2.298-.625-4.231-1.899-6.05a47.104 47.104 0 0 0-7.611-8.46c-1.877-1.64-3.908-3.115-5.935-4.572-1.149-.824-2.499-1.098-3.948-1.093-9.117.033-18.235.016-27.351.017-3.376 0-5.229 1.844-5.229 5.206-.002 8.13 0 16.26 0 24.39Z"
      stroke="#000" stroke-width=".5" stroke-linecap="round" stroke-linejoin="round" />
    <path
      d="M103.43 36.765c0-8.131-.002-16.261 0-24.391 0-3.362 1.853-5.206 5.229-5.206 9.116-.001 18.234.016 27.351-.017 1.449-.005 2.799.269 3.948 1.093 2.027 1.457 4.058 2.931 5.935 4.573a47.104 47.104 0 0 1 7.611 8.459c1.274 1.819 1.916 3.752 1.899 6.05-.087 11.315-.038 22.629-.04 33.943-.001 3.356-1.871 5.241-5.21 5.243-13.846.003-27.691.003-41.537 0-3.292-.002-5.185-1.895-5.186-5.172-.002-8.191 0-16.383 0-24.575Z"
      fill="#222" />
    <path
      d="M136.898 11.272c-.349-.022-.588-.05-.829-.05-9.147-.002-18.295-.003-27.442 0-1.158 0-1.39.264-1.39 1.538-.002 16.26-.002 32.52 0 48.778 0 1.338.234 1.578 1.548 1.578 13.783.002 27.566.002 41.35 0 1.383 0 1.598-.22 1.598-1.622v-35.44h-1.16c-3.677 0-7.355.002-11.032 0-2.103 0-2.642-.535-2.642-2.62-.002-4.017 0-8.034 0-12.162h-.001Z"
      fill="#fff" />
    <path d="M140.558 21.958h8.848a57.253 57.253 0 0 0-8.848-8.856v8.856Z" fill="#FCFCFC" />
    <path fill-rule="evenodd" clip-rule="evenodd"
      d="M145.58 39.774c-2.634-.54-5.272-.221-7.91.014-.406.037-.89-.055-1.239-.26-3.306-1.95-5.221-5.01-6.617-8.46-.094-.234-.048-.543-.011-.808.329-2.344 1.103-2.964 1.245-5.725.138-1.043-.476-3.499-.893-4.46-.504-1.16-1.658-1.06-2.701-.912-.959.136-1.558.702-1.658 1.716-.116 1.157-.233 2.352-.069 3.49.315 2.202.847 4.37 1.241 6.561.083.461.092 1.028-.102 1.43-1.764 3.633-3.597 7.231-5.369 10.858-.476.973-1.159 1.62-2.136 2.095-2.066 1.002-4.015 2.222-5.532 3.973-.621.715-1.094 1.604-1.434 2.492-.143.373.081 1.105.397 1.395 1.116 1.028 2.584 1.146 3.862.286.867-.583 1.722-1.28 2.349-2.105 1.331-1.746 2.546-3.586 3.734-5.436.374-.584.777-.963 1.446-1.118 3.74-.87 7.473-1.767 11.218-2.618.34-.077.763.04 1.105.178 1.497.6 2.953 1.311 4.472 1.845 1.604.564 3.27.944 5.001.768 1.03-.105 1.617-.63 1.875-1.625.519-1.998-.192-3.147-2.274-3.574ZM114.703 52.23c.122-1.176 2.301-3.759 4.447-5.256-1.215 1.939-2.47 3.85-4.447 5.257Zm13.578-32.178c1.829 1.843 1.43 4.856.437 7.077-1.165-2.2-1.491-4.889-.437-7.077Zm-3.813 22.82 3.945-8.04 4.752 5.648-8.697 2.392Zm21.6.185c-.77-.023-1.562-.04-2.302-.23-1.01-.26-1.982-.676-2.97-1.024l.028-.238c1.686-.153 3.366-.206 5.02.3.132.04.261.114.378.165.311.136.537.448.537.677-.066.224-.464.357-.691.35Z"
      fill="#FAB906" />
  </g>
  <defs>
    <clipPath id="a">
      <path fill="#fff" transform="translate(6.546)" d="M0 0h163.454v108.154H0z" />
    </clipPath>
    <clipPath id="b">
      <path fill="#fff" transform="translate(6.546)" d="M0 0h163.454v108.154H0z" />
    </clipPath>
    <clipPath id="c">
      <path fill="#fff" transform="translate(6.546 102.005)" d="M0 0h163.454v6.149H0z" />
    </clipPath>
    <clipPath id="d">
      <path fill="#fff" transform="translate(6.546 81.603)" d="M0 0h163.454v6.149H0z" />
    </clipPath>
    <clipPath id="e">
      <path fill="#fff" transform="translate(6.546 61.203)" d="M0 0h163.454v6.149H0z" />
    </clipPath>
    <clipPath id="f">
      <path fill="#fff" transform="translate(6.546 40.802)" d="M0 0h163.454v6.149H0z" />
    </clipPath>
    <clipPath id="g">
      <path fill="#fff" transform="translate(6.546 20.401)" d="M0 0h163.454v6.149H0z" />
    </clipPath>
    <clipPath id="h">
      <path fill="#fff" transform="translate(6.546)" d="M0 0h163.454v6.149H0z" />
    </clipPath>
    <clipPath id="i">
      <path fill="#fff" transform="translate(0 6.001)" d="M0 0h156v154H0z" />
    </clipPath>
    <filter id="j" x="10.676" y="25.979" width="123.08" height="122.887" filterUnits="userSpaceOnUse"
      color-interpolation-filters="sRGB">
      <feFlood flood-opacity="0" result="BackgroundImageFix" />
      <feColorMatrix in="SourceAlpha" values="0 0 0 0 0 0 0 0 0 0 0 0 0 0 0 0 0 0 127 0" result="hardAlpha" />
      <feOffset dx="-2.835" dy="2.835" />
      <feColorMatrix values="0 0 0 0 0.133333 0 0 0 0 0.133333 0 0 0 0 0.133333 0 0 0 1 0" />
      <feBlend in2="BackgroundImageFix" result="effect1_dropShadow" />
      <feBlend in="SourceGraphic" in2="effect1_dropShadow" result="shape" />
    </filter>
  </defs>
</svg>