<svg width="18" height="15" viewBox="0 0 18 15" fill="none" xmlns="http://www.w3.org/2000/svg">
  <path fill-rule="evenodd" clip-rule="evenodd"
    d="M15.834 9.708V1.482a.921.921 0 0 0-.925-.925H2.982a.922.922 0 0 0-.926.925v8.226c0 .061 0 .123.021.185L0 13.553v.103c0 .493.39.884.864.884H16.82c.473 0 .864-.39.864-.884v-.103l-1.953-3.434a.936.936 0 0 0 .102-.411ZM2.88 1.482c0-.062.041-.103.103-.103h11.927c.062 0 .103.041.103.103v8.226c0 .061-.041.102-.103.102H2.982c-.062 0-.103-.04-.103-.102V1.482Zm13.942 12.236H.844l1.788-3.147a.932.932 0 0 0 .33.062h11.926c.062 0 .103 0 .165-.02l1.768 3.105Z"
    fill="#262A33" />
  <path
    d="M13.983 11.662H3.701a.413.413 0 0 0-.411.411c0 .227.185.412.411.412h10.282a.412.412 0 0 0 .412-.412.412.412 0 0 0-.412-.41Z"
    fill="#262A33" />
</svg>