<svg width="20" height="20" viewBox="0 0 20 20" fill="none" xmlns="http://www.w3.org/2000/svg">
    <path d="M10 18.333a8.333 8.333 0 1 0 0-16.666 8.333 8.333 0 0 0 0 16.666z" stroke="currentColor" stroke-width="1.5" stroke-linecap="round" stroke-linejoin="round"/>
    <path d="M7.917 7.471c0-.398 0-.597.083-.708a.417.417 0 0 1 .304-.165c.138-.01.306.097.64.312l3.934 2.53c.29.186.435.28.486.398a.417.417 0 0 1 0 .324c-.05.119-.196.212-.486.399L8.944 13.09c-.334.215-.502.322-.64.312A.417.417 0 0 1 8 13.237c-.083-.111-.083-.31-.083-.708V7.47z" stroke="currentColor" stroke-width="1.5" stroke-linecap="round" stroke-linejoin="round"/>
</svg>
