<svg width="47" height="48" viewBox="0 0 47 48" fill="none" xmlns="http://www.w3.org/2000/svg">
<g clip-path="url(#clip0_1762_260121)">
<rect y="11.9531" width="35.8494" height="35.8494" fill="#FDBD00"/>
<g filter="url(#filter0_d_1762_260121)">
<rect x="3" y="6.06641" width="35.6516" height="37.6601" fill="white"/>
<rect x="3" y="6.06641" width="35.6516" height="37.6601" stroke="white" stroke-width="0.147059"/>
</g>
<path d="M19.948 18.3727C21.064 18.3727 22.03 18.5587 22.846 18.9307C23.674 19.3027 24.31 19.8307 24.754 20.5147C25.198 21.1987 25.42 22.0087 25.42 22.9447C25.42 23.8687 25.198 24.6787 24.754 25.3747C24.31 26.0587 23.674 26.5867 22.846 26.9587C22.03 27.3187 21.064 27.4987 19.948 27.4987H17.41V30.9727H14.494V18.3727H19.948ZM19.786 25.1227C20.662 25.1227 21.328 24.9367 21.784 24.5647C22.24 24.1807 22.468 23.6407 22.468 22.9447C22.468 22.2367 22.24 21.6967 21.784 21.3247C21.328 20.9407 20.662 20.7487 19.786 20.7487H17.41V25.1227H19.786Z" fill="#23252C"/>
<path d="M7.48581 37.8083C7.83248 37.8083 8.09757 37.9268 8.2811 38.1639C8.46718 38.3984 8.56022 38.7272 8.56022 39.1504C8.56022 39.4461 8.51051 39.6971 8.4111 39.9036C8.31424 40.1075 8.17659 40.2617 7.99816 40.3663C7.81973 40.4708 7.61071 40.523 7.3711 40.523C7.11875 40.523 6.9161 40.4771 6.76316 40.3854L6.84346 40.2286C6.97091 40.3102 7.14679 40.351 7.3711 40.351C7.67953 40.351 7.92169 40.2516 8.09757 40.0527C8.276 39.8514 8.36522 39.5608 8.36522 39.181C8.36522 39.0637 8.35757 38.9567 8.34228 38.8598C8.28875 39.0331 8.18424 39.1682 8.02875 39.2651C7.87581 39.3619 7.6961 39.4104 7.48963 39.4104C7.31375 39.4104 7.15699 39.3785 7.01934 39.3148C6.88424 39.2485 6.77973 39.1555 6.70581 39.0357C6.63189 38.9133 6.59493 38.7731 6.59493 38.6151C6.59493 38.4545 6.63316 38.313 6.70963 38.1907C6.7861 38.0683 6.89189 37.974 7.02699 37.9077C7.16208 37.8415 7.31502 37.8083 7.48581 37.8083ZM7.5164 39.2421C7.65914 39.2421 7.78659 39.2141 7.89875 39.158C8.01346 39.1019 8.1014 39.0255 8.16257 38.9286C8.2263 38.8317 8.25816 38.7234 8.25816 38.6036C8.25816 38.4966 8.22757 38.3946 8.1664 38.2977C8.10777 38.2009 8.0211 38.1231 7.9064 38.0645C7.79169 38.0059 7.65404 37.9766 7.49346 37.9766C7.28444 37.9766 7.11493 38.0352 6.98493 38.1524C6.85493 38.2671 6.78993 38.4201 6.78993 38.6113C6.78993 38.8024 6.85493 38.9554 6.98493 39.0701C7.11493 39.1848 7.29208 39.2421 7.5164 39.2421ZM11.2121 39.7621H10.65V40.5039H10.4588V39.7621H8.93325V39.6207L10.3862 37.8274H10.6041L9.17796 39.5901H10.4627V38.9363H10.65V39.5901H11.2121V39.7621ZM11.7276 40.5192C11.6843 40.5192 11.646 40.5039 11.6129 40.4733C11.5823 40.4402 11.567 40.4007 11.567 40.3548C11.567 40.3089 11.5823 40.2707 11.6129 40.2401C11.646 40.2095 11.6843 40.1942 11.7276 40.1942C11.7709 40.1942 11.8079 40.2095 11.8385 40.2401C11.8716 40.2707 11.8882 40.3089 11.8882 40.3548C11.8882 40.4007 11.8716 40.4402 11.8385 40.4733C11.8079 40.5039 11.7709 40.5192 11.7276 40.5192ZM13.1278 37.8083C13.4744 37.8083 13.7395 37.9268 13.923 38.1639C14.1091 38.3984 14.2022 38.7272 14.2022 39.1504C14.2022 39.4461 14.1525 39.6971 14.053 39.9036C13.9562 40.1075 13.8185 40.2617 13.6401 40.3663C13.4617 40.4708 13.2527 40.523 13.013 40.523C12.7607 40.523 12.558 40.4771 12.4051 40.3854L12.4854 40.2286C12.6129 40.3102 12.7887 40.351 13.013 40.351C13.3215 40.351 13.5636 40.2516 13.7395 40.0527C13.918 39.8514 14.0072 39.5608 14.0072 39.181C14.0072 39.0637 13.9995 38.9567 13.9842 38.8598C13.9307 39.0331 13.8262 39.1682 13.6707 39.2651C13.5178 39.3619 13.338 39.4104 13.1316 39.4104C12.9557 39.4104 12.7989 39.3785 12.6613 39.3148C12.5262 39.2485 12.4217 39.1555 12.3478 39.0357C12.2738 38.9133 12.2369 38.7731 12.2369 38.6151C12.2369 38.4545 12.2751 38.313 12.3516 38.1907C12.428 38.0683 12.5338 37.974 12.6689 37.9077C12.804 37.8415 12.957 37.8083 13.1278 37.8083ZM13.1583 39.2421C13.3011 39.2421 13.4285 39.2141 13.5407 39.158C13.6554 39.1019 13.7433 39.0255 13.8045 38.9286C13.8682 38.8317 13.9001 38.7234 13.9001 38.6036C13.9001 38.4966 13.8695 38.3946 13.8083 38.2977C13.7497 38.2009 13.663 38.1231 13.5483 38.0645C13.4336 38.0059 13.296 37.9766 13.1354 37.9766C12.9264 37.9766 12.7569 38.0352 12.6269 38.1524C12.4969 38.2671 12.4319 38.4201 12.4319 38.6113C12.4319 38.8024 12.4969 38.9554 12.6269 39.0701C12.7569 39.1848 12.934 39.2421 13.1583 39.2421ZM15.3982 38.9936C15.6938 39.0013 15.9182 39.0739 16.0711 39.2116C16.2266 39.3467 16.3043 39.5264 16.3043 39.7507C16.3043 39.9011 16.2686 40.0349 16.1973 40.1521C16.1259 40.2668 16.0188 40.3573 15.8761 40.4236C15.7359 40.4899 15.5664 40.523 15.3676 40.523C15.1738 40.523 14.9916 40.4912 14.8208 40.4274C14.65 40.3612 14.5175 40.2732 14.4232 40.1636L14.5226 40.0145C14.6092 40.1114 14.7265 40.1904 14.8743 40.2516C15.0247 40.3127 15.1891 40.3433 15.3676 40.3433C15.6046 40.3433 15.7869 40.2911 15.9143 40.1866C16.0418 40.0795 16.1055 39.9342 16.1055 39.7507C16.1055 39.5646 16.0405 39.4193 15.9105 39.3148C15.7805 39.2103 15.5855 39.158 15.3255 39.158H15.1573V39.0166L15.9487 38.0033H14.5226V37.8274H16.2011V37.9651L15.3982 38.9936Z" fill="#23252C"/>
<path d="M7.64886 10.472V13.1484H7.45386V10.6478H6.80004V10.472H7.64886ZM8.97769 11.5923C9.36769 11.5923 9.65063 11.6611 9.82651 11.7987C10.0024 11.9338 10.0903 12.1263 10.0903 12.3761C10.0903 12.529 10.0546 12.6654 9.98327 12.7852C9.91445 12.9025 9.80994 12.9955 9.66974 13.0643C9.52955 13.1331 9.35749 13.1676 9.15357 13.1676C8.95984 13.1676 8.77759 13.1344 8.6068 13.0681C8.43857 13.0019 8.30729 12.9152 8.21298 12.8081L8.31239 12.659C8.39651 12.7559 8.51249 12.8349 8.66033 12.8961C8.81073 12.9573 8.97386 12.9878 9.14974 12.9878C9.38935 12.9878 9.57288 12.933 9.70033 12.8234C9.83033 12.7138 9.89533 12.5673 9.89533 12.3837C9.89533 12.1824 9.82141 12.0294 9.67357 11.9249C9.52827 11.8204 9.28229 11.7681 8.93563 11.7681H8.39269L8.53416 10.472H9.95269V10.6478H8.69857L8.59533 11.5923H8.97769Z" fill="#23252C"/>
<path d="M30.2189 9.30054C30.2189 11.816 30.2185 14.3315 30.2189 16.847C30.2194 17.8531 30.8008 18.4346 31.8116 18.435C36.0634 18.4358 40.3147 18.4358 44.5665 18.435C45.5917 18.435 46.1659 17.8557 46.1663 16.8251C46.1668 13.3508 46.152 9.87649 46.1786 6.4022C46.1837 5.69653 45.9867 5.10283 45.5955 4.5442C44.9227 3.58246 44.1385 2.71664 43.2583 1.94673C42.6819 1.44262 42.0582 0.990059 41.4358 0.542565C41.0829 0.289453 40.6684 0.205359 40.2235 0.207056C37.424 0.217195 34.6241 0.2117 31.8247 0.212127C30.7881 0.212127 30.2189 0.77878 30.2189 1.81067C30.2185 4.30714 30.2189 6.80364 30.2189 9.30054Z" stroke="#23252C" stroke-width="0.147059" stroke-linecap="round" stroke-linejoin="round"/>
<path d="M30.2189 9.30054C30.2189 6.80364 30.2185 4.30714 30.2189 1.81067C30.2189 0.77878 30.7881 0.212127 31.8247 0.212127C34.6241 0.2117 37.424 0.217195 40.2235 0.207056C40.6684 0.205359 41.0829 0.289453 41.4358 0.542565C42.0582 0.990059 42.6819 1.44262 43.2583 1.94673C44.1385 2.71664 44.9227 3.58246 45.5955 4.5442C45.9867 5.10283 46.1837 5.69653 46.1786 6.4022C46.152 9.87648 46.1668 13.3508 46.1663 16.8251C46.1659 17.8557 45.5917 18.435 44.5665 18.435C40.3147 18.4359 36.0634 18.4359 31.8116 18.435C30.8008 18.4346 30.2194 17.8531 30.2189 16.847C30.2185 14.3315 30.2189 11.816 30.2189 9.30054Z" fill="#23252C"/>
<path d="M40.4992 1.47315C40.3919 1.4664 40.3184 1.45752 40.2444 1.45752C37.4357 1.4571 34.6265 1.45667 31.8177 1.45752C31.4624 1.45794 31.3909 1.53865 31.3909 1.92994C31.3905 6.9229 31.3905 11.9159 31.3909 16.9084C31.3909 17.3191 31.4628 17.3931 31.8663 17.3931C36.0987 17.3935 40.331 17.3935 44.5638 17.3931C44.9885 17.3931 45.0544 17.3255 45.0544 16.8949C45.0544 13.3733 45.0544 9.85167 45.0544 6.33005V6.01229H44.6982C43.5691 6.01229 42.4396 6.01272 41.3105 6.01229C40.6649 6.01229 40.4992 5.84834 40.4992 5.20774C40.4988 3.97429 40.4992 2.74083 40.4992 1.47315H40.4992Z" fill="white"/>
<path d="M41.6172 4.75475H44.3342C43.5166 3.73596 42.6356 2.85703 41.6172 2.03516V4.75475Z" fill="white"/>
<path fill-rule="evenodd" clip-rule="evenodd" d="M43.1645 10.2232C42.3557 10.0571 41.5457 10.1552 40.7356 10.2274C40.611 10.2388 40.4622 10.2105 40.3553 10.1476C39.3399 9.54921 38.7521 8.60944 38.3232 7.54966C38.2945 7.47782 38.308 7.38317 38.3199 7.30162C38.4209 6.582 38.6588 6.39142 38.7023 5.54377C38.7445 5.22347 38.5561 4.4692 38.428 4.17426C38.2734 3.81846 37.9189 3.84846 37.5986 3.89409C37.304 3.93593 37.1202 4.1096 37.0894 4.42103C37.0539 4.7764 37.018 5.14318 37.0678 5.49264C37.165 6.16874 37.3285 6.83468 37.4494 7.50782C37.4747 7.64895 37.4777 7.82306 37.4177 7.94644C36.8764 9.062 36.3136 10.167 35.7693 11.2809C35.6231 11.5796 35.4135 11.7782 35.1135 11.924C34.4792 12.2316 33.8805 12.6064 33.4148 13.1439C33.2242 13.3637 33.0789 13.6366 32.9745 13.9092C32.9305 14.0237 32.9994 14.2485 33.0962 14.3377C33.4389 14.6533 33.8898 14.6896 34.2823 14.4255C34.5485 14.2464 34.8109 14.0322 35.0036 13.779C35.4122 13.2428 35.7853 12.6778 36.1496 12.1099C36.265 11.9303 36.3888 11.8141 36.5941 11.7664C37.7426 11.4993 38.889 11.2238 40.0388 10.9627C40.1432 10.939 40.2734 10.9749 40.3782 11.0172C40.8379 11.2014 41.285 11.4199 41.7515 11.5838C42.2442 11.7571 42.7555 11.8737 43.2871 11.8196C43.6035 11.7875 43.7836 11.6261 43.863 11.3206C44.0223 10.707 43.8038 10.3542 43.1645 10.2232L43.1645 10.2232ZM33.6836 14.0478C33.7212 13.6865 34.3901 12.8933 35.0493 12.4336C34.6762 13.029 34.2908 13.6159 33.6836 14.0478ZM37.8521 4.16797C38.4137 4.73377 38.2912 5.65918 37.9865 6.34119C37.6286 5.66552 37.5284 4.83984 37.8521 4.16797ZM36.6816 11.176C37.0932 10.3373 37.5023 9.50398 37.8931 8.70703C38.3706 9.27495 38.8701 9.86823 39.3522 10.4416C38.5003 10.6762 37.5948 10.925 36.6816 11.176H36.6816ZM43.3141 11.2331C43.0775 11.226 42.8345 11.2205 42.6072 11.1621C42.297 11.0827 41.9987 10.9547 41.6953 10.8478L41.7038 10.7747C42.2214 10.7278 42.7374 10.7117 43.2453 10.8672C43.2858 10.8795 43.3255 10.9019 43.3615 10.9175C43.457 10.9593 43.5263 11.0552 43.5263 11.1254C43.506 11.1943 43.3839 11.2353 43.3141 11.2331Z" fill="#FDBD00"/>
<path d="M30.6134 39.0466C30.6134 41.5621 30.613 44.0776 30.6138 46.5935C30.6138 47.5997 31.1957 48.1811 32.2064 48.1811C36.4578 48.1824 40.7096 48.182 44.9614 48.1811C45.9865 48.1811 46.5608 47.6022 46.5608 46.5716C46.5612 43.0973 46.5464 39.623 46.573 36.1487C46.5785 35.4426 46.3816 34.8494 45.9903 34.2903C45.3172 33.3286 44.5329 32.4632 43.6532 31.6928C43.0768 31.1887 42.4531 30.7361 41.8302 30.2891C41.4778 30.0356 41.0633 29.9515 40.6183 29.9531C37.8185 29.9637 35.019 29.9582 32.2195 29.9586C31.183 29.9586 30.6138 30.5249 30.6138 31.5568C30.6134 34.0537 30.6134 36.5502 30.6134 39.0466V39.0466Z" stroke="#23252C" stroke-width="0.147059" stroke-linecap="round" stroke-linejoin="round"/>
<path d="M30.6134 39.0466C30.6134 36.5502 30.6134 34.0537 30.6138 31.5568C30.6138 30.5249 31.183 29.9586 32.2195 29.9586C35.019 29.9582 37.8185 29.9637 40.6183 29.9531C41.0633 29.9515 41.4778 30.0356 41.8302 30.2891C42.4531 30.7361 43.0768 31.1887 43.6532 31.6928C44.5329 32.4632 45.3172 33.3286 45.9903 34.2903C46.3816 34.8494 46.5785 35.4426 46.573 36.1487C46.5464 39.623 46.5612 43.0973 46.5608 46.5716C46.5608 47.6022 45.9865 48.1811 44.9614 48.1811C40.7096 48.182 36.4578 48.1824 32.2064 48.1811C31.1957 48.1811 30.6138 47.5997 30.6138 46.5935C30.613 44.0776 30.6134 41.5621 30.6134 39.0466V39.0466Z" fill="#23252C"/>
<path d="M40.8894 31.2194C40.7825 31.2126 40.7086 31.2038 40.635 31.2038C37.8263 31.2029 35.0171 31.2029 32.2084 31.2038C31.8526 31.2038 31.7816 31.2845 31.7816 31.6762C31.7811 36.6687 31.7811 41.6617 31.7816 46.6547C31.7816 47.0649 31.853 47.1389 32.2569 47.1389C36.4893 47.1397 40.7217 47.1393 44.954 47.1393C45.3791 47.1389 45.4446 47.0717 45.4446 46.6411C45.445 43.1195 45.445 39.5979 45.445 36.0763V35.7585H45.0888C43.9597 35.7585 42.8302 35.7585 41.7012 35.7585C41.0551 35.7581 40.8898 35.5941 40.8898 34.954C40.8894 33.7205 40.8894 32.4871 40.8894 31.2194H40.8894Z" fill="white"/>
<path d="M42.0156 34.5008H44.7327C43.915 33.4825 43.034 32.6036 42.0156 31.7812V34.5008Z" fill="white"/>
<path d="M43.3734 43.7699H33.2109V34.5H34.0561V42.9248H43.3734V43.7699Z" fill="#FDBD00"/>
<path d="M38.2794 42.3854L36.3193 40.4038L35.2249 41.9241L34.5391 41.4301L36.2173 39.099L38.0669 40.9688L40.4809 36.3555L41.7261 38.2281L43.0431 38.1738L43.0777 39.0181L41.2858 39.0922L40.5678 38.0123L38.2794 42.3854Z" fill="#FDBD00"/>
</g>
<defs>
<filter id="filter0_d_1762_260121" x="2.09206" y="5.99268" width="36.6345" height="38.6408" filterUnits="userSpaceOnUse" color-interpolation-filters="sRGB">
<feFlood flood-opacity="0" result="BackgroundImageFix"/>
<feColorMatrix in="SourceAlpha" type="matrix" values="0 0 0 0 0 0 0 0 0 0 0 0 0 0 0 0 0 0 127 0" result="hardAlpha"/>
<feOffset dx="-0.833719" dy="0.833719"/>
<feColorMatrix type="matrix" values="0 0 0 0 0.133333 0 0 0 0 0.133333 0 0 0 0 0.133333 0 0 0 1 0"/>
<feBlend mode="normal" in2="BackgroundImageFix" result="effect1_dropShadow_1762_260121"/>
<feBlend mode="normal" in="SourceGraphic" in2="effect1_dropShadow_1762_260121" result="shape"/>
</filter>
<clipPath id="clip0_1762_260121">
<rect width="46.7647" height="48" fill="white"/>
</clipPath>
</defs>
</svg>
