<svg xmlns="http://www.w3.org/2000/svg" width="24" height="24" viewBox="0 0 24 24" fill="none">
  <g clip-path="url(#clip0_18336_157329)">
    <path d="M19.968 -0.000244141H4.03205C1.80521 -0.000244141 0 1.80496 0 4.0318V19.9677C0 22.1945 1.80521 23.9998 4.03205 23.9998H19.968C22.1948 23.9998 24 22.1945 24 19.9677V4.0318C24 1.80496 22.1948 -0.000244141 19.968 -0.000244141Z" fill="#003A1E"/>
    <path d="M6.771 15.0027V19.0206C9.16096 19.0199 11.0978 17.2209 11.0978 15.0027H6.771Z" fill="#B3FFA3" stroke="#B3FFA3" stroke-width="0.13148" stroke-miterlimit="10"/>
    <path d="M2.44507 14.973H6.70826V10.7112C4.35435 10.7112 2.44578 12.6191 2.44507 14.973Z" fill="#B3FFA3" stroke="#B3FFA3" stroke-width="0.13148" stroke-miterlimit="10"/>
    <path d="M11.1006 15.0016H15.1185V10.6748C12.8996 10.6748 11.1013 12.6117 11.1006 15.0016Z" fill="#B3FFA3" stroke="#B3FFA3" stroke-width="0.13148" stroke-miterlimit="10"/>
    <path d="M17.3849 8.44613C18.5616 8.44613 19.5155 7.49226 19.5155 6.3156C19.5155 5.13893 18.5616 4.18506 17.3849 4.18506C16.2083 4.18506 15.2544 5.13893 15.2544 6.3156C15.2544 7.49226 16.2083 8.44613 17.3849 8.44613Z" fill="#B3FFA3" stroke="#B3FFA3" stroke-width="0.13148" stroke-miterlimit="10"/>
    <path d="M15.1167 10.6729C17.1702 10.6729 18.9409 12.1163 19.3559 14.1281C19.4138 14.4151 19.4435 14.707 19.4435 15.0004V10.6736H15.1167V10.6729Z" fill="#B3FFA3" stroke="#B3FFA3" stroke-width="0.13148" stroke-miterlimit="10"/>
    <path d="M18.9268 12.9397C18.7282 12.5728 18.4772 12.2363 18.1817 11.9423C17.3709 11.1265 16.2668 10.6699 15.1167 10.6748V15.0017H19.4435C19.4435 14.709 19.4138 14.4164 19.3559 14.1294C19.2724 13.7137 19.1282 13.3129 18.9268 12.9397Z" fill="#B3FFA3" stroke="#B3FFA3" stroke-width="0.13148" stroke-miterlimit="10"/>
    <path d="M19.4435 15.0027H15.1167V19.0206H19.4435V15.0027Z" fill="#B3FFA3" stroke="#B3FFA3" stroke-width="0.13148" stroke-miterlimit="10"/>
    <path d="M6.70776 4.18506V10.5894C8.47638 10.5894 9.90993 9.15584 9.90993 7.38723C9.90993 5.61861 8.47638 4.18506 6.70776 4.18506Z" fill="#B3FFA3" stroke="#B3FFA3" stroke-width="0.13148" stroke-miterlimit="10"/>
    <path d="M11.0102 14.1294C10.8398 13.3002 10.4298 12.5396 9.83179 11.9423C9.0217 11.1265 7.91968 10.6699 6.771 10.6748V15.0017H11.0978C11.0978 14.709 11.0688 14.4164 11.0102 14.1294Z" fill="#B3FFA3" stroke="#B3FFA3" stroke-width="0.13148" stroke-miterlimit="10"/>
  </g>
  <defs>
    <clipPath id="clip0_18336_157329">
      <rect width="24" height="24" fill="white"/>
    </clipPath>
  </defs>
</svg>
