<svg width="48" height="48" viewBox="0 0 48 48" fill="none" xmlns="http://www.w3.org/2000/svg">
  <g clip-path="url(#clip0_4894_123564)">
    <path d="M24 48C10.7687 48 0 37.2313 0 24C0 10.7687 10.7687 0 24 0C37.2313 0 48 10.7687 48 24C48 37.2313 37.2313 48 24 48ZM24 2.08696C11.9165 2.08696 2.08696 11.9165 2.08696 24C2.08696 36.0835 11.9165 45.913 24 45.913C36.0835 45.913 45.913 36.0835 45.913 24C45.913 11.9165 36.0835 2.08696 24 2.08696Z" fill="black"/>
    <path d="M24 8.34783C23.4157 8.34783 22.9565 7.8887 22.9565 7.30435V1.04348C22.9565 0.45913 23.4157 0 24 0C24.5844 0 25.0435 0.45913 25.0435 1.04348V7.30435C25.0435 7.8887 24.5844 8.34783 24 8.34783Z" fill="black"/>
    <path d="M24 48.0002C23.4157 48.0002 22.9565 47.541 22.9565 46.9567V40.6958C22.9565 40.1115 23.4157 39.6523 24 39.6523C24.5844 39.6523 25.0435 40.1115 25.0435 40.6958V46.9567C25.0435 47.541 24.5844 48.0002 24 48.0002Z" fill="black"/>
    <path d="M13.5652 25.043H1.04348C0.45913 25.043 0 24.5839 0 23.9995C0 23.4152 0.45913 22.9561 1.04348 22.9561H13.5652C14.1496 22.9561 14.6087 23.4152 14.6087 23.9995C14.6087 24.5839 14.1496 25.043 13.5652 25.043Z" fill="black"/>
    <path d="M46.9566 25.043H34.4348C33.8505 25.043 33.3914 24.5839 33.3914 23.9995C33.3914 23.4152 33.8505 22.9561 34.4348 22.9561H46.9566C47.5409 22.9561 48.0001 23.4152 48.0001 23.9995C48.0001 24.5839 47.5409 25.043 46.9566 25.043Z" fill="black"/>
    <path d="M23.9999 35.478C19.9721 35.478 16.6956 32.6606 16.6956 29.2171C16.6956 28.6328 17.1547 28.1737 17.739 28.1737C18.3234 28.1737 18.7825 28.6328 18.7825 29.2171C18.7825 31.5128 21.1199 33.391 23.9999 33.391C26.8799 33.391 29.2173 31.5128 29.2173 29.2171C29.2173 26.9215 26.8799 25.0432 23.9999 25.0432C19.9721 25.0432 16.6956 22.2258 16.6956 18.7824C16.6956 15.3389 19.9721 12.5215 23.9999 12.5215C28.0277 12.5215 31.3043 15.3389 31.3043 18.7824C31.3043 19.3667 30.8451 19.8258 30.2608 19.8258C29.6764 19.8258 29.2173 19.3667 29.2173 18.7824C29.2173 16.4867 26.8799 14.6084 23.9999 14.6084C21.1199 14.6084 18.7825 16.4867 18.7825 18.7824C18.7825 21.078 21.1199 22.9563 23.9999 22.9563C28.0277 22.9563 31.3043 25.7737 31.3043 29.2171C31.3043 32.6606 28.0277 35.478 23.9999 35.478Z" fill="black"/>
    <path d="M24 37.565C23.4157 37.565 22.9565 37.1059 22.9565 36.5215V11.478C22.9565 10.8937 23.4157 10.4346 24 10.4346C24.5844 10.4346 25.0435 10.8937 25.0435 11.478V36.5215C25.0435 37.1059 24.5844 37.565 24 37.565Z" fill="black"/>
  </g>
  <defs>
    <clipPath id="clip0_4894_123564">
      <rect width="48" height="48" fill="white"/>
    </clipPath>
  </defs>
</svg>
