<svg width="80" height="80" viewBox="0 0 80 80" fill="none" xmlns="http://www.w3.org/2000/svg">
<path d="M40 12C40 7.58172 43.5817 4 48 4C52.4183 4 56 7.58172 56 12V16C56 18.2091 57.7909 20 60 20H72C74.2091 20 76 21.7909 76 24V36C76 38.2091 74.2091 40 72 40H68C63.5817 40 60 43.5817 60 48C60 52.4183 63.5817 56 68 56H72C74.2091 56 76 57.7909 76 60V72C76 74.2091 74.2091 76 72 76H60C57.7909 76 56 74.2091 56 72V68C56 63.5817 52.4183 60 48 60C43.5817 60 40 63.5817 40 68V72C40 74.2091 38.2091 76 36 76H24C21.7909 76 20 74.2091 20 72V60C20 57.7909 18.2091 56 16 56H12C7.58172 56 4 52.4183 4 48C4 43.5817 7.58172 40 12 40H16C18.2091 40 20 38.2091 20 36V24C20 21.7909 21.7909 20 24 20H36C38.2091 20 40 18.2091 40 16V12Z" stroke="#FDBD00" stroke-width="8" stroke-linecap="round" stroke-linejoin="round"/>
</svg>
