<svg width="50" height="48" viewBox="0 0 50 48" fill="none" xmlns="http://www.w3.org/2000/svg">
<g clip-path="url(#clip0_14837_123960)">
<g opacity="0.4" clip-path="url(#clip1_14837_123960)">
<g clip-path="url(#clip2_14837_123960)">
<g clip-path="url(#clip3_14837_123960)">
<circle cx="1.87181" cy="32.2663" r="0.944073" fill="#FDBD00"/>
<circle cx="7.13743" cy="32.2663" r="0.944073" fill="#FDBD00"/>
<circle cx="12.3581" cy="32.2663" r="0.944073" fill="#FDBD00"/>
<circle cx="17.6003" cy="32.2663" r="0.944073" fill="#FDBD00"/>
<circle cx="22.8425" cy="32.2663" r="0.944073" fill="#FDBD00"/>
<circle cx="28.0847" cy="32.2663" r="0.944073" fill="#FDBD00"/>
<circle cx="33.3288" cy="32.2663" r="0.944073" fill="#FDBD00"/>
<circle cx="38.571" cy="32.2663" r="0.944073" fill="#FDBD00"/>
<circle cx="43.7917" cy="32.2663" r="0.944073" fill="#FDBD00"/>
<circle cx="49.0574" cy="32.2663" r="0.944073" fill="#FDBD00"/>
</g>
<g clip-path="url(#clip4_14837_123960)">
<circle cx="1.87181" cy="26.0027" r="0.944073" fill="#FDBD00"/>
<circle cx="7.13743" cy="26.0027" r="0.944073" fill="#FDBD00"/>
<circle cx="12.3581" cy="26.0027" r="0.944073" fill="#FDBD00"/>
<circle cx="17.6003" cy="26.0027" r="0.944073" fill="#FDBD00"/>
<circle cx="22.8425" cy="26.0027" r="0.944073" fill="#FDBD00"/>
<circle cx="28.0847" cy="26.0027" r="0.944073" fill="#FDBD00"/>
<circle cx="33.3288" cy="26.0027" r="0.944073" fill="#FDBD00"/>
<circle cx="38.571" cy="26.0027" r="0.944073" fill="#FDBD00"/>
<circle cx="43.7917" cy="26.0027" r="0.944073" fill="#FDBD00"/>
<circle cx="49.0574" cy="26.0027" r="0.944073" fill="#FDBD00"/>
</g>
<g clip-path="url(#clip5_14837_123960)">
<circle cx="1.87181" cy="19.737" r="0.944073" fill="#FDBD00"/>
<circle cx="7.13743" cy="19.737" r="0.944073" fill="#FDBD00"/>
<circle cx="12.3581" cy="19.737" r="0.944073" fill="#FDBD00"/>
<circle cx="17.6003" cy="19.737" r="0.944073" fill="#FDBD00"/>
<circle cx="22.8425" cy="19.737" r="0.944073" fill="#FDBD00"/>
<circle cx="28.0847" cy="19.737" r="0.944073" fill="#FDBD00"/>
<circle cx="33.3288" cy="19.737" r="0.944073" fill="#FDBD00"/>
<circle cx="38.571" cy="19.737" r="0.944073" fill="#FDBD00"/>
<circle cx="43.7917" cy="19.737" r="0.944073" fill="#FDBD00"/>
<circle cx="49.0574" cy="19.737" r="0.944073" fill="#FDBD00"/>
</g>
<g clip-path="url(#clip6_14837_123960)">
<circle cx="1.87181" cy="13.4734" r="0.944073" fill="#FDBD00"/>
<circle cx="7.13743" cy="13.4734" r="0.944073" fill="#FDBD00"/>
<circle cx="12.3581" cy="13.4734" r="0.944073" fill="#FDBD00"/>
<circle cx="17.6003" cy="13.4734" r="0.944073" fill="#FDBD00"/>
<circle cx="22.8425" cy="13.4734" r="0.944073" fill="#FDBD00"/>
<circle cx="28.0847" cy="13.4734" r="0.944073" fill="#FDBD00"/>
<circle cx="33.3288" cy="13.4734" r="0.944073" fill="#FDBD00"/>
<circle cx="38.571" cy="13.4734" r="0.944073" fill="#FDBD00"/>
<circle cx="43.7917" cy="13.4734" r="0.944073" fill="#FDBD00"/>
<circle cx="49.0574" cy="13.4734" r="0.944073" fill="#FDBD00"/>
</g>
<g clip-path="url(#clip7_14837_123960)">
<circle cx="1.87181" cy="7.2097" r="0.944073" fill="#FDBD00"/>
<circle cx="7.13743" cy="7.2097" r="0.944073" fill="#FDBD00"/>
<circle cx="12.3581" cy="7.2097" r="0.944073" fill="#FDBD00"/>
<circle cx="17.6003" cy="7.2097" r="0.944073" fill="#FDBD00"/>
<circle cx="22.8425" cy="7.2097" r="0.944073" fill="#FDBD00"/>
<circle cx="28.0847" cy="7.2097" r="0.944073" fill="#FDBD00"/>
<circle cx="33.3288" cy="7.2097" r="0.944073" fill="#FDBD00"/>
<circle cx="38.571" cy="7.2097" r="0.944073" fill="#FDBD00"/>
<circle cx="43.7917" cy="7.2097" r="0.944073" fill="#FDBD00"/>
<circle cx="49.0574" cy="7.2097" r="0.944073" fill="#FDBD00"/>
</g>
<g clip-path="url(#clip8_14837_123960)">
<circle cx="1.87181" cy="0.944073" r="0.944073" fill="#FDBD00"/>
<circle cx="7.13743" cy="0.944073" r="0.944073" fill="#FDBD00"/>
<circle cx="12.3581" cy="0.944073" r="0.944073" fill="#FDBD00"/>
<circle cx="17.6003" cy="0.944073" r="0.944073" fill="#FDBD00"/>
<circle cx="22.8425" cy="0.944073" r="0.944073" fill="#FDBD00"/>
<circle cx="28.0847" cy="0.944073" r="0.944073" fill="#FDBD00"/>
<circle cx="33.3288" cy="0.944073" r="0.944073" fill="#FDBD00"/>
<circle cx="38.571" cy="0.944073" r="0.944073" fill="#FDBD00"/>
<circle cx="43.7917" cy="0.944073" r="0.944073" fill="#FDBD00"/>
<circle cx="49.0574" cy="0.944073" r="0.944073" fill="#FDBD00"/>
</g>
</g>
</g>
<g clip-path="url(#clip9_14837_123960)">
<rect y="12.0117" width="35.8494" height="35.8494" fill="#FDBD00"/>
<g filter="url(#filter0_d_14837_123960)">
<rect x="4.22656" y="8.125" width="35.6516" height="35.6601" fill="white"/>
<rect x="4.22656" y="8.125" width="35.6516" height="35.6601" stroke="white" stroke-width="0.147059"/>
</g>
<path d="M10.5795 26.1974H12.9101V29.2083C12.9101 29.4795 13.1297 29.6994 13.4012 29.6994H15.2393V30.2898C15.2393 30.5609 15.459 30.7809 15.7304 30.7809H18.7299V32.8784H16.1853C15.9139 32.8784 15.6942 33.0983 15.6942 33.3695C15.6942 33.6407 15.9139 33.8606 16.1853 33.8606H28.4618C28.7332 33.8606 28.9529 33.6408 28.9529 33.3695C28.9529 33.0984 28.7332 32.8784 28.4618 32.8784H25.9169L25.9167 30.7808H28.0055C28.0757 30.9661 28.2517 31.0989 28.4617 31.0989H30.8379C31.7298 31.0989 32.0722 29.8015 32.2521 28.8256C32.4579 27.7112 32.571 26.2177 32.571 24.6197C32.571 22.2002 32.3456 18.1406 30.8379 18.1406H28.4617C28.2516 18.1406 28.0756 18.2737 28.0054 18.459L18.0588 18.4591H15.7301C15.4587 18.4591 15.239 18.679 15.239 18.9502V19.5406H13.4008C13.1294 19.5406 12.9097 19.7605 12.9097 20.0317V23.0427L10.5792 23.0425C10.161 23.0425 9.76536 23.2048 9.45984 23.5055C9.16353 23.8077 9 24.2028 9 24.6183C9 25.4892 9.70825 26.1975 10.5792 26.1975L10.5795 26.1974ZM28.9531 19.1229H30.7945C31.1341 19.4125 31.5892 21.4372 31.5892 24.6198C31.5892 27.8026 31.1342 29.8273 30.7946 30.117H28.9532L28.9531 19.1229ZM24.9349 32.8784H19.7121V30.7808H24.9349V32.8784ZM18.5502 19.4412H27.9711V29.7986H18.5502V19.4412ZM16.2215 29.2083V19.4412H17.5681V29.7986H16.2215V29.2083ZM13.8923 25.7063V20.5226H15.2393V28.7172H13.8923V25.7063ZM10.1551 24.1995C10.2696 24.0865 10.4208 24.0245 10.5795 24.0245H12.9101V25.2153H10.5795C10.2505 25.2153 9.98239 24.9474 9.98239 24.6182C9.98239 24.4616 10.0457 24.3108 10.1551 24.1995Z" fill="black"/>
<path d="M19.932 21.906H26.5883C26.8597 21.906 27.0794 21.6862 27.0794 21.4149C27.0794 21.1438 26.8597 20.9238 26.5883 20.9238L19.932 20.9239C19.6606 20.9239 19.4409 21.1438 19.4409 21.415C19.4409 21.6862 19.6606 21.906 19.932 21.906Z" fill="black"/>
<path d="M19.932 24.0427H26.5883C26.8597 24.0427 27.0794 23.8229 27.0794 23.5516C27.0794 23.2805 26.8597 23.0605 26.5883 23.0605H19.932C19.6606 23.0605 19.4409 23.2804 19.4409 23.5516C19.4409 23.8229 19.6606 24.0427 19.932 24.0427Z" fill="black"/>
<path d="M19.932 26.1795H26.5883C26.8597 26.1795 27.0794 25.9596 27.0794 25.6884C27.0794 25.4172 26.8597 25.1973 26.5883 25.1973L19.932 25.1974C19.6606 25.1974 19.4409 25.4172 19.4409 25.6885C19.4409 25.9596 19.6606 26.1795 19.932 26.1795Z" fill="black"/>
<path d="M19.932 28.3162H26.5883C26.8597 28.3162 27.0794 28.0963 27.0794 27.8251C27.0794 27.5539 26.8597 27.334 26.5883 27.334L19.932 27.3341C19.6606 27.3341 19.4409 27.5539 19.4409 27.8252C19.4409 28.0963 19.6606 28.3162 19.932 28.3162Z" fill="black"/>
<path d="M30.6134 38.1052C30.6134 40.6207 30.613 43.1362 30.6138 45.6521C30.6138 46.6583 31.1957 47.2397 32.2064 47.2397C36.4578 47.241 40.7096 47.2405 44.9614 47.2397C45.9865 47.2397 46.5608 46.6608 46.5608 45.6302C46.5612 42.1559 46.5464 38.6816 46.573 35.2073C46.5785 34.5012 46.3816 33.9079 45.9903 33.3489C45.3172 32.3872 44.5329 31.5218 43.6532 30.7514C43.0768 30.2473 42.4531 29.7947 41.8302 29.3477C41.4778 29.0941 41.0633 29.0101 40.6183 29.0117C37.8185 29.0223 35.019 29.0168 32.2195 29.0172C31.183 29.0172 30.6138 29.5835 30.6138 30.6154C30.6134 33.1123 30.6134 35.6087 30.6134 38.1052V38.1052Z" stroke="black" stroke-opacity="0.87" stroke-width="0.147059" stroke-linecap="round" stroke-linejoin="round"/>
<path d="M30.6134 38.1052C30.6134 35.6087 30.6134 33.1123 30.6138 30.6154C30.6138 29.5835 31.183 29.0172 32.2195 29.0172C35.019 29.0168 37.8185 29.0223 40.6183 29.0117C41.0633 29.0101 41.4778 29.0941 41.8302 29.3477C42.4531 29.7947 43.0768 30.2473 43.6532 30.7514C44.5329 31.5218 45.3172 32.3872 45.9903 33.3489C46.3816 33.9079 46.5785 34.5012 46.573 35.2073C46.5464 38.6816 46.5612 42.1559 46.5608 45.6302C46.5608 46.6608 45.9865 47.2397 44.9614 47.2397C40.7096 47.2405 36.4578 47.241 32.2064 47.2397C31.1957 47.2397 30.6138 46.6583 30.6138 45.6521C30.613 43.1362 30.6134 40.6207 30.6134 38.1052V38.1052Z" fill="black" fill-opacity="0.87"/>
<path d="M40.8914 30.278C40.7845 30.2712 40.7105 30.2624 40.637 30.2624C37.8282 30.2615 35.0191 30.2615 32.2103 30.2624C31.8545 30.2624 31.7835 30.3431 31.7835 30.7348C31.7831 35.7273 31.7831 40.7203 31.7835 45.7132C31.7835 46.1235 31.8549 46.1975 32.2589 46.1975C36.4913 46.1983 40.7236 46.1979 44.956 46.1979C45.3811 46.1975 45.4466 46.1303 45.4466 45.6997C45.447 42.1781 45.447 38.6565 45.447 35.1349V34.8171H45.0908C43.9617 34.8171 42.8322 34.8171 41.7031 34.8171C41.057 34.8167 40.8918 34.6527 40.8918 34.0126C40.8914 32.7791 40.8914 31.5457 40.8914 30.278H40.8914Z" fill="white"/>
<path d="M42.0156 33.5575H44.7327C43.915 32.5391 43.034 31.6602 42.0156 30.8379V33.5575Z" fill="white"/>
<path d="M43.3734 42.8285H33.2109V33.5586H34.0561V41.9834H43.3734V42.8285Z" fill="#FDBD00"/>
<path d="M38.2794 41.4459L36.3193 39.4644L35.2249 40.9846L34.5391 40.4907L36.2173 38.1596L38.0669 40.0293L40.4809 35.416L41.7261 37.2886L43.0431 37.2344L43.0777 38.0787L41.2858 38.1527L40.5678 37.0728L38.2794 41.4459Z" fill="#FDBD00"/>
<path d="M30.2189 11.3611C30.2189 13.8766 30.2185 16.3921 30.2189 18.9076C30.2194 19.9137 30.8008 20.4951 31.8116 20.4956C36.0634 20.4964 40.3147 20.4964 44.5665 20.4956C45.5917 20.4956 46.1659 19.9162 46.1663 18.8856C46.1668 15.4113 46.152 11.937 46.1786 8.46275C46.1837 7.75708 45.9867 7.16338 45.5955 6.60475C44.9227 5.64301 44.1385 4.77718 43.2583 4.00727C42.6819 3.50316 42.0582 3.05061 41.4358 2.60311C41.0829 2.35 40.6684 2.26591 40.2235 2.2676C37.424 2.27774 34.6241 2.27225 31.8247 2.27267C30.7881 2.27267 30.2189 2.83933 30.2189 3.87121C30.2185 6.36769 30.2189 8.86418 30.2189 11.3611Z" stroke="black" stroke-opacity="0.87" stroke-width="0.147059" stroke-linecap="round" stroke-linejoin="round"/>
<path d="M30.2189 11.3611C30.2189 8.86418 30.2185 6.36769 30.2189 3.87121C30.2189 2.83933 30.7881 2.27267 31.8247 2.27267C34.6241 2.27225 37.424 2.27774 40.2235 2.2676C40.6684 2.26591 41.0829 2.35 41.4358 2.60311C42.0582 3.05061 42.6819 3.50316 43.2583 4.00727C44.1385 4.77718 44.9227 5.64301 45.5955 6.60475C45.9867 7.16338 46.1837 7.75708 46.1786 8.46275C46.152 11.937 46.1668 15.4113 46.1663 18.8856C46.1659 19.9162 45.5917 20.4956 44.5665 20.4956C40.3147 20.4964 36.0634 20.4964 31.8116 20.4956C30.8008 20.4951 30.2194 19.9137 30.2189 18.9076C30.2185 16.3921 30.2189 13.8766 30.2189 11.3611Z" fill="black" fill-opacity="0.87"/>
<path d="M40.4973 3.5337C40.3899 3.52694 40.3164 3.51807 40.2425 3.51807C37.4337 3.51764 34.6245 3.51722 31.8158 3.51807C31.4604 3.51849 31.389 3.5992 31.389 3.99049C31.3886 8.98345 31.3886 13.9764 31.389 18.969C31.389 19.3797 31.4608 19.4536 31.8644 19.4536C36.0967 19.4541 40.3291 19.4541 44.5619 19.4536C44.9865 19.4536 45.0525 19.386 45.0525 18.9554C45.0525 15.4338 45.0525 11.9122 45.0525 8.3906V8.07283H44.6962C43.5672 8.07283 42.4377 8.07326 41.3086 8.07283C40.6629 8.07283 40.4973 7.90888 40.4973 7.26829C40.4968 6.03483 40.4973 4.80138 40.4973 3.5337H40.4973Z" fill="white"/>
<path d="M41.6191 6.81334H44.3362C43.5186 5.79456 42.6375 4.91562 41.6191 4.09375V6.81334Z" fill="white"/>
<path fill-rule="evenodd" clip-rule="evenodd" d="M43.1625 12.2857C42.3538 12.1196 41.5437 12.2177 40.7337 12.2899C40.609 12.3013 40.4603 12.273 40.3534 12.2101C39.338 11.6117 38.7502 10.6719 38.3213 9.61216C38.2926 9.54032 38.3061 9.44567 38.3179 9.36412C38.4189 8.6445 38.6568 8.45392 38.7003 7.60627C38.7426 7.28597 38.5541 6.5317 38.4261 6.23676C38.2714 5.88096 37.9169 5.91096 37.5966 5.95659C37.3021 5.99843 37.1183 6.1721 37.0874 6.48353C37.0519 6.8389 37.016 7.20568 37.0659 7.55514C37.1631 8.23124 37.3266 8.89718 37.4474 9.57032C37.4728 9.71145 37.4757 9.88556 37.4157 10.0089C36.8744 11.1245 36.3116 12.2295 35.7673 13.3434C35.6211 13.6421 35.4115 13.8407 35.1115 13.9865C34.4773 14.2941 33.8785 14.6689 33.4128 15.2064C33.2223 15.4262 33.0769 15.6991 32.9725 15.9717C32.9286 16.0862 32.9975 16.311 33.0942 16.4002C33.4369 16.7158 33.8878 16.7521 34.2804 16.488C34.5466 16.3089 34.809 16.0947 35.0017 15.8415C35.4103 15.3053 35.7834 14.7403 36.1476 14.1724C36.263 13.9928 36.3868 13.8766 36.5922 13.8289C37.7407 13.5618 38.8871 13.2863 40.0369 13.0252C40.1413 13.0015 40.2714 13.0374 40.3762 13.0797C40.8359 13.2639 41.283 13.4824 41.7495 13.6463C42.2422 13.8196 42.7535 13.9362 43.2851 13.8821C43.6016 13.85 43.7816 13.6886 43.861 13.3831C44.0203 12.7695 43.8019 12.4167 43.1626 12.2857L43.1625 12.2857ZM33.6816 16.1103C33.7193 15.749 34.3882 14.9558 35.0474 14.4961C34.6742 15.0915 34.2889 15.6784 33.6816 16.1103ZM37.8502 6.23047C38.4118 6.79627 38.2892 7.72168 37.9845 8.40369C37.6266 7.72802 37.5265 6.90234 37.8502 6.23047ZM36.6797 13.2367C37.0913 12.3979 37.5004 11.5646 37.8912 10.7676C38.3687 11.3356 38.8682 11.9288 39.3503 12.5022C38.4984 12.7368 37.5929 12.9857 36.6797 13.2367H36.6797ZM43.3122 13.2938C43.0756 13.2866 42.8326 13.2811 42.6052 13.2228C42.2951 13.1434 41.9968 13.0153 41.6934 12.9084L41.7018 12.8353C42.2194 12.7884 42.7354 12.7724 43.2433 12.9279C43.2839 12.9401 43.3236 12.9625 43.3595 12.9782C43.455 13.02 43.5243 13.1159 43.5243 13.1861C43.504 13.2549 43.3819 13.2959 43.3122 13.2938Z" fill="#FDBD00"/>
</g>
</g>
<defs>
<filter id="filter0_d_14837_123960" x="3.31911" y="8.05078" width="36.6325" height="36.6423" filterUnits="userSpaceOnUse" color-interpolation-filters="sRGB">
<feFlood flood-opacity="0" result="BackgroundImageFix"/>
<feColorMatrix in="SourceAlpha" type="matrix" values="0 0 0 0 0 0 0 0 0 0 0 0 0 0 0 0 0 0 127 0" result="hardAlpha"/>
<feOffset dx="-0.833719" dy="0.833719"/>
<feColorMatrix type="matrix" values="0 0 0 0 0.133333 0 0 0 0 0.133333 0 0 0 0 0.133333 0 0 0 1 0"/>
<feBlend mode="normal" in2="BackgroundImageFix" result="effect1_dropShadow_14837_123960"/>
<feBlend mode="normal" in="SourceGraphic" in2="effect1_dropShadow_14837_123960" result="shape"/>
</filter>
<clipPath id="clip0_14837_123960">
<rect width="50" height="47.9412" fill="white"/>
</clipPath>
<clipPath id="clip1_14837_123960">
<rect width="49.0732" height="33.2111" fill="white" transform="translate(0.927734)"/>
</clipPath>
<clipPath id="clip2_14837_123960">
<rect width="49.0732" height="33.2111" fill="white" transform="translate(0.927734)"/>
</clipPath>
<clipPath id="clip3_14837_123960">
<rect width="49.0732" height="1.88815" fill="white" transform="translate(0.927734 31.3223)"/>
</clipPath>
<clipPath id="clip4_14837_123960">
<rect width="49.0732" height="1.88815" fill="white" transform="translate(0.927734 25.0586)"/>
</clipPath>
<clipPath id="clip5_14837_123960">
<rect width="49.0732" height="1.88815" fill="white" transform="translate(0.927734 18.793)"/>
</clipPath>
<clipPath id="clip6_14837_123960">
<rect width="49.0732" height="1.88815" fill="white" transform="translate(0.927734 12.5293)"/>
</clipPath>
<clipPath id="clip7_14837_123960">
<rect width="49.0732" height="1.88815" fill="white" transform="translate(0.927734 6.26562)"/>
</clipPath>
<clipPath id="clip8_14837_123960">
<rect width="49.0732" height="1.88815" fill="white" transform="translate(0.927734)"/>
</clipPath>
<clipPath id="clip9_14837_123960">
<rect width="46.7647" height="45.8824" fill="white" transform="translate(0 2.05859)"/>
</clipPath>
</defs>
</svg>
