<svg width="40" height="40" viewBox="0 0 40 40" fill="none" xmlns="http://www.w3.org/2000/svg">
    <path clip-rule="evenodd" d="M3.333 5.333a2 2 0 0 1 2-2h29.334a2 2 0 0 1 2 2v29.334a2 2 0 0 1-2 2H5.333a2 2 0 0 1-2-2V5.333z" stroke="#000" stroke-opacity=".87" stroke-width="2"/>
    <g clip-path="url(#3b7hgzioqa)" fill="#000" fill-opacity=".87">
        <path d="m28.907 24.254-2.52-4.308a.531.531 0 1 0-.919.536l2.521 4.309a.761.761 0 0 1 0 .766.796.796 0 0 1-.685.389H22.79l1.252-1.252a.53.53 0 1 0-.751-.752l-2.16 2.16a.531.531 0 0 0 0 .75l2.16 2.159a.53.53 0 0 0 .751 0 .53.53 0 0 0 0-.752l-1.251-1.25h4.513c.658 0 1.272-.351 1.603-.915a1.825 1.825 0 0 0 0-1.84zM17.66 25.909l-4.99.002a.762.762 0 0 1-.663-.386.794.794 0 0 1 .01-.787l2.278-3.898.45 1.713a.531.531 0 1 0 1.027-.27l-.774-2.953a.53.53 0 0 0-.65-.38l-2.953.775a.531.531 0 1 0 .27 1.028l1.712-.449-2.278 3.898a1.861 1.861 0 0 0-.017 1.844c.322.572.93.928 1.587.928l4.992-.002a.531.531 0 0 0 0-1.063zM23.963 17.622a.532.532 0 0 0 .512-.388l.82-2.94a.531.531 0 1 0-1.024-.286l-.475 1.705-2.216-3.933a1.862 1.862 0 0 0-1.583-.946h-.03c-.645 0-1.246.343-1.572.902l-2.517 4.31a.531.531 0 0 0 .918.537l2.517-4.31a.79.79 0 0 1 .666-.377c.278.005.537.16.675.406l2.216 3.932-1.705-.476a.531.531 0 1 0-.285 1.024l2.94.82c.047.014.095.02.143.02z"/>
    </g>
    <defs>
        <clipPath id="3b7hgzioqa">
            <path fill="#fff" transform="translate(10 10)" d="M0 0h20v20H0z"/>
        </clipPath>
    </defs>
</svg>
