<svg width="28" height="29" viewBox="0 0 28 29" fill="none" xmlns="http://www.w3.org/2000/svg">
<path d="M6.38662 13.1216C5.18989 14.3309 4.66871 16.0568 4.86438 17.734C5.08079 19.5864 6.07777 21.2238 7.5479 22.3535C9.8243 24.1027 13.2865 24.2087 15.3906 22.126C15.7911 21.7297 15.1737 21.113 14.7737 21.5091C13.6653 22.6062 12.0494 23.004 10.5502 22.7394C8.86089 22.441 7.37801 21.3829 6.49603 19.9069C5.89655 18.9033 5.62725 17.7724 5.71033 16.6094C5.78538 15.5615 6.24369 14.506 7.0031 13.7388C7.39952 13.3383 6.78255 12.721 6.3865 13.1216L6.38662 13.1216Z" fill="#138800"/>
<path d="M20.3832 24.1728C20.4095 24.1991 20.436 24.2254 20.4623 24.252C20.7817 24.5714 21.2542 24.5684 21.6012 24.3209C21.6306 24.3027 21.6596 24.2802 21.6873 24.2526L23.5881 22.3518C23.7046 22.2353 23.8261 22.1254 23.9061 21.9784C24.0899 21.6402 24.0076 21.2168 23.7406 20.9496C23.5834 20.7924 23.4265 20.6355 23.2695 20.4785C21.7741 18.9831 20.2788 17.4878 18.7833 15.9923L18.227 15.436C18.0623 15.2716 17.8594 15.1589 17.6228 15.146C17.3256 15.1299 17.0881 15.2725 16.8869 15.4736C16.6652 15.6956 16.4433 15.9173 16.2216 16.1393C16.2083 16.1204 16.1936 16.1024 16.177 16.0858C16.1006 16.0094 16.0242 15.933 15.9475 15.8566C16.5406 15.2635 17.1335 14.6706 17.7266 14.0778C17.9967 13.8077 18.2669 13.5375 18.5367 13.2674C18.6225 13.1819 18.6956 13.1027 18.7673 13.0012C19.0045 12.6635 18.883 12.188 18.6114 11.9168L16.6378 9.94319C16.2363 9.54165 15.689 9.5347 15.2858 9.93797L14.5438 10.68C13.919 11.3043 13.2947 11.929 12.6701 12.5534C12.5826 12.4659 12.4948 12.3782 12.4074 12.2908C12.3991 12.2825 12.39 12.2747 12.3811 12.2673C12.568 12.0804 12.755 11.8934 12.9419 11.7068C13.0586 11.5903 13.1802 11.4801 13.2599 11.3332C13.444 10.9952 13.3617 10.5718 13.0944 10.3044L12.6233 9.83329C11.1279 8.3379 9.63256 6.84257 8.13708 5.34709L7.58103 4.79103C7.41633 4.62634 7.21343 4.51373 6.97686 4.50103C6.67963 4.48472 6.44214 4.62725 6.24098 4.8287C5.58446 5.48522 4.92794 6.14137 4.27151 6.79817C3.97592 7.09376 3.90338 7.56595 4.14997 7.91687C4.20475 7.99489 4.26511 8.05634 4.33124 8.12219C4.5435 8.33445 4.75551 8.54671 4.96786 8.75881C5.74646 9.53741 6.52496 10.3159 7.30356 11.0945C7.9426 11.7338 8.58201 12.3732 9.2213 13.0125L9.7369 13.5281C9.7632 13.5544 9.78951 13.581 9.81609 13.6073C10.1355 13.9267 10.6079 13.9234 10.955 13.6762C10.9846 13.658 11.0131 13.6355 11.041 13.6079C11.2832 13.3662 11.5251 13.124 11.767 12.8821C11.7748 12.891 11.7822 12.8999 11.7905 12.9085L12.0532 13.1711C11.8821 13.3418 11.7113 13.5129 11.5403 13.6839C11.4947 13.7293 11.449 13.7752 11.4036 13.8207C11.0837 14.1409 11.0853 14.6133 11.3333 14.9612C11.3516 14.9906 11.374 15.0194 11.4017 15.0473L12.1266 15.7722C12.1241 15.7744 12.1219 15.7766 12.1194 15.7789C12.0164 15.8821 11.9132 15.9851 11.8103 16.0882L11.7037 15.9817C11.3054 15.5833 10.6885 16.2006 11.0868 16.5985L11.9354 17.4471C12.3337 17.8455 12.9503 17.2282 12.5523 16.8303L12.4272 16.7051L12.7363 16.396C12.7388 16.3938 12.7407 16.3913 12.7429 16.3888C12.9295 16.5754 13.116 16.7619 13.3026 16.9485C13.4191 17.065 13.529 17.1865 13.6762 17.2665C14.0186 17.4525 14.4407 17.3651 14.71 17.0961C14.9167 16.8893 15.124 16.6823 15.3307 16.4753C15.4071 16.5517 15.4835 16.6284 15.5599 16.7045C15.5765 16.7211 15.5945 16.7358 15.6131 16.7491C15.3811 16.981 15.1494 17.213 14.9173 17.4449C14.6217 17.7405 14.5491 18.2127 14.7957 18.5636C14.8508 18.6419 14.9109 18.7028 14.977 18.7689C15.1892 18.9809 15.4015 19.1932 15.6136 19.4053L20.3832 24.1728ZM23.1352 21.5795V21.5782L23.1354 21.5784L23.1352 21.5795ZM23.1396 21.5521C23.138 21.5624 23.1365 21.5701 23.1357 21.577L23.1346 21.5756C23.1362 21.5704 23.138 21.5629 23.1396 21.5521ZM17.5749 16.0176L17.5752 16.0179C17.5572 16.0267 17.5153 16.035 17.5749 16.0176ZM18.0141 12.5606C18.0155 12.558 18.0164 12.5567 18.0166 12.5553C18.0172 12.5556 18.0174 12.5561 18.0174 12.5561C18.0105 12.5855 18.0092 12.5874 18.0141 12.5606ZM18.0174 12.554C18.0174 12.5543 18.0177 12.5548 18.0177 12.5548C18.0177 12.5548 18.0174 12.5545 18.0174 12.554ZM18.0169 12.552L18.0164 12.5523C18.0077 12.534 18.0005 12.4964 18.0169 12.552ZM15.9632 10.4945C15.9627 10.4948 15.9627 10.4951 15.9621 10.4956H15.9619C15.9627 10.4951 15.9629 10.4948 15.9632 10.4945ZM12.4897 10.934L12.4895 10.9324L12.4897 10.9327V10.934ZM12.4939 10.9066C12.4923 10.9169 12.4911 10.9246 12.49 10.9315C12.4897 10.9312 12.4892 10.9304 12.4892 10.9304C12.4903 10.9249 12.4922 10.9174 12.4939 10.9066ZM6.92874 5.37169C6.86928 5.38944 6.91136 5.38115 6.92874 5.37169V5.37169ZM11.4957 11.9187C11.1404 12.2744 10.7847 12.6297 10.4291 12.9853C10.4159 12.9721 10.4028 12.959 10.3895 12.9457C10.3195 12.8757 10.2489 12.8051 10.1789 12.7351C9.90186 12.4583 9.62509 12.1816 9.34832 11.9048C8.5327 11.0892 7.71734 10.2735 6.90168 9.45816C6.27758 8.83406 5.65342 8.20963 5.02908 7.58556C4.9798 7.53601 4.93051 7.48699 4.88132 7.43744C4.88132 7.43744 4.88213 7.43663 4.8824 7.43609C4.8879 7.43888 4.8879 7.43411 4.88547 7.42834C4.88601 7.42528 4.88574 7.42285 4.88294 7.42366L4.88186 7.4214C4.88826 7.41474 4.89484 7.40843 4.9015 7.40176L6.92997 5.3733C6.97286 5.41618 7.01601 5.45934 7.05863 5.50195L8.88394 7.32727C9.70318 8.14651 10.5224 8.96572 11.3417 9.78498L12.4296 10.8727L12.4797 10.9228C12.4787 10.9253 12.4789 10.9305 12.4797 10.9347C12.4642 10.9502 12.4487 10.9654 12.4332 10.9809L12.2096 11.2048C11.9718 11.4429 11.7337 11.6807 11.4957 11.9187ZM14.0761 16.4937C14.0327 16.4857 14.0518 16.4854 14.0684 16.4885C14.0689 16.4895 14.072 16.491 14.0769 16.4929C14.0772 16.4929 14.0767 16.4934 14.0761 16.4937ZM14.0778 16.4939C14.0778 16.4939 14.0783 16.4934 14.0791 16.4934C14.0843 16.4948 14.0918 16.4965 14.1026 16.4984C14.0924 16.4967 14.0847 16.4954 14.0778 16.4939ZM14.0863 16.4843C14.0835 16.4835 14.0783 16.4835 14.0742 16.4843C14.0321 16.4422 13.9903 16.4002 13.9479 16.3581L13.243 15.6532C12.8364 15.2469 12.4302 14.8404 12.0236 14.4338C12.0424 14.4149 12.0613 14.3964 12.0801 14.3776C12.1745 14.2831 12.2686 14.1888 12.363 14.0947C12.7079 13.7495 13.053 13.4047 13.3981 13.0596L15.6649 10.7928C15.7509 10.7067 15.8365 10.6209 15.9225 10.5351L15.9505 10.5072L15.9527 10.5077C15.9507 10.5121 15.9558 10.5121 15.9613 10.5097C15.9652 10.5105 15.969 10.5108 15.9718 10.5105L16.7966 11.3353C17.1633 11.7023 17.5301 12.0691 17.8971 12.4358C17.9333 12.4723 17.9696 12.5085 18.0058 12.5445L18.0144 12.5533C18.0089 12.5586 17.9981 12.5719 17.9942 12.5758L17.9015 12.6685C16.6299 13.9408 15.3582 15.2124 14.0864 16.4844L14.0863 16.4843ZM15.5288 18.0691C15.5288 18.0691 15.528 18.0677 15.5277 18.0668C15.5344 18.0604 15.5407 18.0538 15.5471 18.0472L16.5091 17.0854L17.5759 16.0187L17.7045 16.1474C18.3128 16.7559 18.9215 17.3644 19.5298 17.9729C20.3491 18.7922 21.1683 19.6111 21.9875 20.4304L23.0755 21.5184C23.0921 21.535 23.1088 21.5516 23.1256 21.5682C23.1248 21.571 23.1248 21.5762 23.1256 21.5801C23.1104 21.5956 23.0946 21.6108 23.0794 21.6263L22.8558 21.8499C22.6178 22.088 22.3797 22.326 22.1417 22.5637C21.7864 22.9194 21.4307 23.2748 21.0751 23.6304C21.0621 23.6171 21.0488 23.6041 21.0358 23.5911C20.9655 23.5208 20.8954 23.4507 20.8251 23.3802C20.5481 23.1034 20.2713 22.8264 19.9946 22.5499C19.1789 21.7343 18.3636 20.9186 17.5479 20.1032C16.9238 19.4791 16.2994 18.8547 15.6753 18.2304C15.626 18.1808 15.5768 18.1318 15.5276 18.0822C15.5278 18.082 15.5281 18.0814 15.5284 18.0809C15.5339 18.0837 15.5342 18.0789 15.532 18.0731C15.5319 18.0708 15.5313 18.0685 15.5288 18.0691L15.5288 18.0691Z" fill="#138800"/>
<path d="M8.05926 15.7906C8.20513 15.4922 8.35928 15.2836 8.57848 15.061C8.97346 14.66 8.35676 14.0425 7.96161 14.4442C6.68407 15.742 6.61732 17.7548 7.48167 19.2957C8.39332 20.9214 10.2697 21.8459 12.1067 21.5561C12.8438 21.4398 13.539 21.0731 14.069 20.5514C14.4702 20.1564 13.8531 19.5396 13.4521 19.9345C12.9149 20.4632 12.2011 20.7297 11.461 20.7468C10.6537 20.7651 9.88537 20.4848 9.21505 19.9877C8.55304 19.4967 8.08249 18.7472 7.87491 17.9651C7.77365 17.5829 7.74653 17.2316 7.7786 16.8102C7.8013 16.5077 7.92311 16.0693 8.05925 15.7907L8.05926 15.7906Z" fill="#138800"/>
<path d="M9.58782 15.7011C8.73895 16.578 8.88266 17.969 9.70215 18.8111C10.5216 19.6533 11.9523 19.7576 12.8121 18.9252C13.217 18.5333 12.5993 17.9169 12.1952 18.3083C11.9495 18.5463 11.6397 18.6418 11.2883 18.6326C10.9473 18.6235 10.5909 18.4583 10.3193 18.1942C10.0461 17.9285 9.89891 17.5615 9.8809 17.2253C9.86207 16.8773 9.97171 16.5591 10.205 16.3183C10.596 15.9136 9.97965 15.2961 9.58773 15.701L9.58782 15.7011Z" fill="#138800"/>
<rect x="27.001" y="1.49976" width="26" height="26" rx="3" transform="rotate(90 27.001 1.49976)" stroke="#138800" stroke-width="2"/>
</svg>
