<svg width="47" height="48" viewBox="0 0 47 48" fill="none" xmlns="http://www.w3.org/2000/svg">
<g clip-path="url(#clip0_1762_260120)">
<rect y="11.9531" width="35.8494" height="35.8494" fill="#FDBD00"/>
<g filter="url(#filter0_d_1762_260120)">
<rect x="3" y="6" width="35.6516" height="37.6601" fill="white"/>
<rect x="3" y="6" width="35.6516" height="37.6601" stroke="white" stroke-width="0.147059"/>
</g>
<path d="M17.634 31.216C16.638 31.216 15.672 31.084 14.736 30.82C13.812 30.544 13.068 30.19 12.504 29.758L13.494 27.562C14.034 27.958 14.676 28.276 15.42 28.516C16.164 28.756 16.908 28.876 17.652 28.876C18.48 28.876 19.092 28.756 19.488 28.516C19.884 28.264 20.082 27.934 20.082 27.526C20.082 27.226 19.962 26.98 19.722 26.788C19.494 26.584 19.194 26.422 18.822 26.302C18.462 26.182 17.97 26.05 17.346 25.906C16.386 25.678 15.6 25.45 14.988 25.222C14.376 24.994 13.848 24.628 13.404 24.124C12.972 23.62 12.756 22.948 12.756 22.108C12.756 21.376 12.954 20.716 13.35 20.128C13.746 19.528 14.34 19.054 15.132 18.706C15.936 18.358 16.914 18.184 18.066 18.184C18.87 18.184 19.656 18.28 20.424 18.472C21.192 18.664 21.864 18.94 22.44 19.3L21.54 21.514C20.376 20.854 19.212 20.524 18.048 20.524C17.232 20.524 16.626 20.656 16.23 20.92C15.846 21.184 15.654 21.532 15.654 21.964C15.654 22.396 15.876 22.72 16.32 22.936C16.776 23.14 17.466 23.344 18.39 23.548C19.35 23.776 20.136 24.004 20.748 24.232C21.36 24.46 21.882 24.82 22.314 25.312C22.758 25.804 22.98 26.47 22.98 27.31C22.98 28.03 22.776 28.69 22.368 29.29C21.972 29.878 21.372 30.346 20.568 30.694C19.764 31.042 18.786 31.216 17.634 31.216ZM24.7745 21.316H27.5825V31H24.7745V21.316ZM26.1785 19.966C25.6625 19.966 25.2425 19.816 24.9185 19.516C24.5945 19.216 24.4325 18.844 24.4325 18.4C24.4325 17.956 24.5945 17.584 24.9185 17.284C25.2425 16.984 25.6625 16.834 26.1785 16.834C26.6945 16.834 27.1145 16.978 27.4385 17.266C27.7625 17.554 27.9245 17.914 27.9245 18.346C27.9245 18.814 27.7625 19.204 27.4385 19.516C27.1145 19.816 26.6945 19.966 26.1785 19.966Z" fill="#23252C"/>
<path d="M8.46463 40.328V40.5039H6.62551V40.3663L7.75728 39.2421C7.90512 39.0943 8.00453 38.9681 8.05551 38.8636C8.10904 38.7566 8.13581 38.6469 8.13581 38.5348C8.13581 38.364 8.07718 38.2302 7.95993 38.1333C7.84522 38.0365 7.67826 37.988 7.45904 37.988C7.29081 37.988 7.14297 38.0135 7.01551 38.0645C6.89061 38.1155 6.78228 38.1932 6.69051 38.2977L6.55287 38.1754C6.65483 38.0581 6.78355 37.9676 6.93904 37.9039C7.09708 37.8402 7.27551 37.8083 7.47434 37.8083C7.73689 37.8083 7.94591 37.872 8.1014 37.9995C8.25689 38.1269 8.33463 38.299 8.33463 38.5157C8.33463 38.6533 8.30404 38.7846 8.24287 38.9095C8.18169 39.0344 8.06699 39.1797 7.89875 39.3454L6.91228 40.328H8.46463ZM10.2673 39.1045C10.4509 39.1529 10.5923 39.2345 10.6917 39.3492C10.7937 39.4639 10.8447 39.6041 10.8447 39.7698C10.8447 40.0043 10.7542 40.1891 10.5732 40.3242C10.3922 40.4567 10.1437 40.523 9.82763 40.523C9.5141 40.523 9.26685 40.4567 9.08587 40.3242C8.90743 40.1891 8.81822 40.0043 8.81822 39.7698C8.81822 39.6016 8.86665 39.4614 8.96351 39.3492C9.06292 39.2345 9.2044 39.1529 9.38792 39.1045C9.23498 39.0535 9.11773 38.977 9.03616 38.8751C8.95459 38.7731 8.91381 38.6482 8.91381 38.5004C8.91381 38.2863 8.99665 38.118 9.16234 37.9957C9.32802 37.8708 9.54979 37.8083 9.82763 37.8083C10.1055 37.8083 10.3285 37.8708 10.4967 37.9957C10.665 38.1206 10.7491 38.2888 10.7491 38.5004C10.7491 38.6457 10.707 38.7706 10.6229 38.8751C10.5414 38.977 10.4228 39.0535 10.2673 39.1045ZM9.10881 38.5042C9.10881 38.6648 9.17126 38.7922 9.29616 38.8866C9.42361 38.9809 9.60077 39.028 9.82763 39.028C10.0545 39.028 10.2317 38.9821 10.3591 38.8904C10.4891 38.7961 10.5541 38.6686 10.5541 38.508C10.5541 38.3449 10.4878 38.2162 10.3553 38.1218C10.2253 38.025 10.0494 37.9766 9.82763 37.9766C9.60587 37.9766 9.42998 38.0237 9.29998 38.118C9.17253 38.2123 9.10881 38.3411 9.10881 38.5042ZM9.82763 40.3548C10.0851 40.3548 10.2865 40.3025 10.4317 40.198C10.577 40.0935 10.6497 39.9508 10.6497 39.7698C10.6497 39.5914 10.577 39.4499 10.4317 39.3454C10.2865 39.2409 10.0851 39.1886 9.82763 39.1886C9.57273 39.1886 9.37263 39.2409 9.22734 39.3454C9.08459 39.4499 9.01322 39.5914 9.01322 39.7698C9.01322 39.9508 9.08459 40.0935 9.22734 40.198C9.37008 40.3025 9.57018 40.3548 9.82763 40.3548ZM11.4588 40.5192C11.4154 40.5192 11.3772 40.5039 11.344 40.4733C11.3135 40.4402 11.2982 40.4007 11.2982 40.3548C11.2982 40.3089 11.3135 40.2707 11.344 40.2401C11.3772 40.2095 11.4154 40.1942 11.4588 40.1942C11.5021 40.1942 11.539 40.2095 11.5696 40.2401C11.6028 40.2707 11.6193 40.3089 11.6193 40.3548C11.6193 40.4007 11.6028 40.4402 11.5696 40.4733C11.539 40.5039 11.5021 40.5192 11.4588 40.5192ZM13.0587 40.523C12.8548 40.523 12.6725 40.4682 12.512 40.3586C12.3539 40.2465 12.2303 40.0884 12.1411 39.8845C12.0544 39.6806 12.0111 39.441 12.0111 39.1657C12.0111 38.8904 12.0544 38.6508 12.1411 38.4468C12.2303 38.2429 12.3539 38.0862 12.512 37.9766C12.6725 37.8644 12.8548 37.8083 13.0587 37.8083C13.2626 37.8083 13.4436 37.8644 13.6017 37.9766C13.7623 38.0862 13.8859 38.2429 13.9725 38.4468C14.0618 38.6508 14.1064 38.8904 14.1064 39.1657C14.1064 39.441 14.0618 39.6806 13.9725 39.8845C13.8859 40.0884 13.7623 40.2465 13.6017 40.3586C13.4436 40.4682 13.2626 40.523 13.0587 40.523ZM13.0587 40.3433C13.227 40.3433 13.3748 40.2974 13.5023 40.2057C13.6323 40.1114 13.7329 39.9763 13.8043 39.8004C13.8757 39.6219 13.9114 39.4104 13.9114 39.1657C13.9114 38.921 13.8757 38.7107 13.8043 38.5348C13.7329 38.3564 13.6323 38.2213 13.5023 38.1295C13.3748 38.0352 13.227 37.988 13.0587 37.988C12.8905 37.988 12.7414 38.0352 12.6114 38.1295C12.4839 38.2213 12.3845 38.3564 12.3131 38.5348C12.2418 38.7107 12.2061 38.921 12.2061 39.1657C12.2061 39.4104 12.2418 39.6219 12.3131 39.8004C12.3845 39.9763 12.4839 40.1114 12.6114 40.2057C12.7414 40.2974 12.8905 40.3433 13.0587 40.3433ZM15.9616 39.1045C16.1451 39.1529 16.2866 39.2345 16.386 39.3492C16.4879 39.4639 16.5389 39.6041 16.5389 39.7698C16.5389 40.0043 16.4484 40.1891 16.2674 40.3242C16.0865 40.4567 15.8379 40.523 15.5219 40.523C15.2083 40.523 14.9611 40.4567 14.7801 40.3242C14.6017 40.1891 14.5124 40.0043 14.5124 39.7698C14.5124 39.6016 14.5609 39.4614 14.6577 39.3492C14.7571 39.2345 14.8986 39.1529 15.0821 39.1045C14.9292 39.0535 14.8119 38.977 14.7304 38.8751C14.6488 38.7731 14.608 38.6482 14.608 38.5004C14.608 38.2863 14.6909 38.118 14.8566 37.9957C15.0222 37.8708 15.244 37.8083 15.5219 37.8083C15.7997 37.8083 16.0227 37.8708 16.191 37.9957C16.3592 38.1206 16.4433 38.2888 16.4433 38.5004C16.4433 38.6457 16.4013 38.7706 16.3171 38.8751C16.2356 38.977 16.117 39.0535 15.9616 39.1045ZM14.803 38.5042C14.803 38.6648 14.8655 38.7922 14.9904 38.8866C15.1178 38.9809 15.295 39.028 15.5219 39.028C15.7487 39.028 15.9259 38.9821 16.0533 38.8904C16.1833 38.7961 16.2483 38.6686 16.2483 38.508C16.2483 38.3449 16.182 38.2162 16.0495 38.1218C15.9195 38.025 15.7436 37.9766 15.5219 37.9766C15.3001 37.9766 15.1242 38.0237 14.9942 38.118C14.8668 38.2123 14.803 38.3411 14.803 38.5042ZM15.5219 40.3548C15.7793 40.3548 15.9807 40.3025 16.126 40.198C16.2713 40.0935 16.3439 39.9508 16.3439 39.7698C16.3439 39.5914 16.2713 39.4499 16.126 39.3454C15.9807 39.2409 15.7793 39.1886 15.5219 39.1886C15.2669 39.1886 15.0669 39.2409 14.9216 39.3454C14.7788 39.4499 14.7074 39.5914 14.7074 39.7698C14.7074 39.9508 14.7788 40.0935 14.9216 40.198C15.0643 40.3025 15.2644 40.3548 15.5219 40.3548ZM17.5974 38.9477C17.9874 38.9477 18.2703 39.0166 18.4462 39.1542C18.6221 39.2893 18.71 39.4817 18.71 39.7316C18.71 39.8845 18.6744 40.0209 18.603 40.1407C18.5342 40.2579 18.4297 40.351 18.2895 40.4198C18.1493 40.4886 17.9772 40.523 17.7733 40.523C17.5796 40.523 17.3973 40.4899 17.2265 40.4236C17.0583 40.3573 16.927 40.2707 16.8327 40.1636L16.9321 40.0145C17.0162 40.1114 17.1322 40.1904 17.28 40.2516C17.4304 40.3127 17.5936 40.3433 17.7695 40.3433C18.0091 40.3433 18.1926 40.2885 18.32 40.1789C18.45 40.0693 18.515 39.9227 18.515 39.7392C18.515 39.5378 18.4411 39.3849 18.2933 39.2804C18.148 39.1759 17.902 39.1236 17.5553 39.1236H17.0124L17.1539 37.8274H18.5724V38.0033H17.3183L17.215 38.9477H17.5974Z" fill="#23252C"/>
<path d="M7.64886 10.472V13.1484H7.45386V10.6478H6.80004V10.472H7.64886ZM10.5568 12.4067H9.99474V13.1484H9.80357V12.4067H8.27798V12.2652L9.73092 10.472H9.94886L8.52269 12.2346H9.80739V11.5808H9.99474V12.2346H10.5568V12.4067Z" fill="#23252C"/>
<path d="M30.2189 9.30054C30.2189 11.816 30.2185 14.3315 30.2189 16.847C30.2194 17.8531 30.8008 18.4346 31.8116 18.435C36.0634 18.4358 40.3147 18.4358 44.5665 18.435C45.5917 18.435 46.1659 17.8557 46.1663 16.8251C46.1668 13.3508 46.152 9.87649 46.1786 6.4022C46.1837 5.69653 45.9867 5.10283 45.5955 4.5442C44.9227 3.58246 44.1385 2.71664 43.2583 1.94673C42.6819 1.44262 42.0582 0.990059 41.4358 0.542565C41.0829 0.289453 40.6684 0.205359 40.2235 0.207056C37.424 0.217195 34.6241 0.2117 31.8247 0.212127C30.7881 0.212127 30.2189 0.77878 30.2189 1.81067C30.2185 4.30714 30.2189 6.80364 30.2189 9.30054Z" stroke="#23252C" stroke-width="0.147059" stroke-linecap="round" stroke-linejoin="round"/>
<path d="M30.2189 9.30054C30.2189 6.80364 30.2185 4.30714 30.2189 1.81067C30.2189 0.77878 30.7881 0.212127 31.8247 0.212127C34.6241 0.2117 37.424 0.217195 40.2235 0.207056C40.6684 0.205359 41.0829 0.289453 41.4358 0.542565C42.0582 0.990059 42.6819 1.44262 43.2583 1.94673C44.1385 2.71664 44.9227 3.58246 45.5955 4.5442C45.9867 5.10283 46.1837 5.69653 46.1786 6.4022C46.152 9.87648 46.1668 13.3508 46.1663 16.8251C46.1659 17.8557 45.5917 18.435 44.5665 18.435C40.3147 18.4359 36.0634 18.4359 31.8116 18.435C30.8008 18.4346 30.2194 17.8531 30.2189 16.847C30.2185 14.3315 30.2189 11.816 30.2189 9.30054Z" fill="#23252C"/>
<path d="M40.4992 1.47315C40.3919 1.4664 40.3184 1.45752 40.2444 1.45752C37.4357 1.4571 34.6265 1.45667 31.8177 1.45752C31.4624 1.45794 31.3909 1.53865 31.3909 1.92994C31.3905 6.9229 31.3905 11.9159 31.3909 16.9084C31.3909 17.3191 31.4628 17.3931 31.8663 17.3931C36.0987 17.3935 40.331 17.3935 44.5638 17.3931C44.9885 17.3931 45.0544 17.3255 45.0544 16.8949C45.0544 13.3733 45.0544 9.85167 45.0544 6.33005V6.01229H44.6982C43.5691 6.01229 42.4396 6.01272 41.3105 6.01229C40.6649 6.01229 40.4992 5.84834 40.4992 5.20774C40.4988 3.97429 40.4992 2.74083 40.4992 1.47315H40.4992Z" fill="white"/>
<path d="M41.6172 4.75475H44.3342C43.5166 3.73596 42.6356 2.85703 41.6172 2.03516V4.75475Z" fill="white"/>
<path fill-rule="evenodd" clip-rule="evenodd" d="M43.1645 10.2232C42.3557 10.0571 41.5457 10.1552 40.7356 10.2274C40.611 10.2388 40.4622 10.2105 40.3553 10.1476C39.3399 9.54921 38.7521 8.60944 38.3232 7.54966C38.2945 7.47782 38.308 7.38317 38.3199 7.30162C38.4209 6.582 38.6588 6.39142 38.7023 5.54377C38.7445 5.22347 38.5561 4.4692 38.428 4.17426C38.2734 3.81846 37.9189 3.84846 37.5986 3.89409C37.304 3.93593 37.1202 4.1096 37.0894 4.42103C37.0539 4.7764 37.018 5.14318 37.0678 5.49264C37.165 6.16874 37.3285 6.83468 37.4494 7.50782C37.4747 7.64895 37.4777 7.82306 37.4177 7.94644C36.8764 9.062 36.3136 10.167 35.7693 11.2809C35.6231 11.5796 35.4135 11.7782 35.1135 11.924C34.4792 12.2316 33.8805 12.6064 33.4148 13.1439C33.2242 13.3637 33.0789 13.6366 32.9745 13.9092C32.9305 14.0237 32.9994 14.2485 33.0962 14.3377C33.4389 14.6533 33.8898 14.6896 34.2823 14.4255C34.5485 14.2464 34.8109 14.0322 35.0036 13.779C35.4122 13.2428 35.7853 12.6778 36.1496 12.1099C36.265 11.9303 36.3888 11.8141 36.5941 11.7664C37.7426 11.4993 38.889 11.2238 40.0388 10.9627C40.1432 10.939 40.2734 10.9749 40.3782 11.0172C40.8379 11.2014 41.285 11.4199 41.7515 11.5838C42.2442 11.7571 42.7555 11.8737 43.2871 11.8196C43.6035 11.7875 43.7836 11.6261 43.863 11.3206C44.0223 10.707 43.8038 10.3542 43.1645 10.2232L43.1645 10.2232ZM33.6836 14.0478C33.7212 13.6865 34.3901 12.8933 35.0493 12.4336C34.6762 13.029 34.2908 13.6159 33.6836 14.0478ZM37.8521 4.16797C38.4137 4.73377 38.2912 5.65918 37.9865 6.34119C37.6286 5.66552 37.5284 4.83984 37.8521 4.16797ZM36.6816 11.176C37.0932 10.3373 37.5023 9.50398 37.8931 8.70703C38.3706 9.27495 38.8701 9.86823 39.3522 10.4416C38.5003 10.6762 37.5948 10.925 36.6816 11.176H36.6816ZM43.3141 11.2331C43.0775 11.226 42.8345 11.2205 42.6072 11.1621C42.297 11.0827 41.9987 10.9547 41.6953 10.8478L41.7038 10.7747C42.2214 10.7278 42.7374 10.7117 43.2453 10.8672C43.2858 10.8795 43.3255 10.9019 43.3615 10.9175C43.457 10.9593 43.5263 11.0552 43.5263 11.1254C43.506 11.1943 43.3839 11.2353 43.3141 11.2331Z" fill="#FDBD00"/>
<path d="M30.6134 39.0466C30.6134 41.5621 30.613 44.0776 30.6138 46.5935C30.6138 47.5997 31.1957 48.1811 32.2064 48.1811C36.4578 48.1824 40.7096 48.182 44.9614 48.1811C45.9865 48.1811 46.5608 47.6022 46.5608 46.5716C46.5612 43.0973 46.5464 39.623 46.573 36.1487C46.5785 35.4426 46.3816 34.8494 45.9903 34.2903C45.3172 33.3286 44.5329 32.4632 43.6532 31.6928C43.0768 31.1887 42.4531 30.7361 41.8302 30.2891C41.4778 30.0356 41.0633 29.9515 40.6183 29.9531C37.8185 29.9637 35.019 29.9582 32.2195 29.9586C31.183 29.9586 30.6138 30.5249 30.6138 31.5568C30.6134 34.0537 30.6134 36.5502 30.6134 39.0466V39.0466Z" stroke="#23252C" stroke-width="0.147059" stroke-linecap="round" stroke-linejoin="round"/>
<path d="M30.6134 39.0466C30.6134 36.5502 30.6134 34.0537 30.6138 31.5568C30.6138 30.5249 31.183 29.9586 32.2195 29.9586C35.019 29.9582 37.8185 29.9637 40.6183 29.9531C41.0633 29.9515 41.4778 30.0356 41.8302 30.2891C42.4531 30.7361 43.0768 31.1887 43.6532 31.6928C44.5329 32.4632 45.3172 33.3286 45.9903 34.2903C46.3816 34.8494 46.5785 35.4426 46.573 36.1487C46.5464 39.623 46.5612 43.0973 46.5608 46.5716C46.5608 47.6022 45.9865 48.1811 44.9614 48.1811C40.7096 48.182 36.4578 48.1824 32.2064 48.1811C31.1957 48.1811 30.6138 47.5997 30.6138 46.5935C30.613 44.0776 30.6134 41.5621 30.6134 39.0466V39.0466Z" fill="#23252C"/>
<path d="M40.8894 31.2194C40.7825 31.2126 40.7086 31.2038 40.635 31.2038C37.8263 31.2029 35.0171 31.2029 32.2084 31.2038C31.8526 31.2038 31.7816 31.2845 31.7816 31.6762C31.7811 36.6687 31.7811 41.6617 31.7816 46.6547C31.7816 47.0649 31.853 47.1389 32.2569 47.1389C36.4893 47.1397 40.7217 47.1393 44.954 47.1393C45.3791 47.1389 45.4446 47.0717 45.4446 46.6411C45.445 43.1195 45.445 39.5979 45.445 36.0763V35.7585H45.0888C43.9597 35.7585 42.8302 35.7585 41.7012 35.7585C41.0551 35.7581 40.8898 35.5941 40.8898 34.954C40.8894 33.7205 40.8894 32.4871 40.8894 31.2194H40.8894Z" fill="white"/>
<path d="M42.0156 34.5008H44.7327C43.915 33.4825 43.034 32.6036 42.0156 31.7812V34.5008Z" fill="white"/>
<path d="M43.3734 43.7699H33.2109V34.5H34.0561V42.9248H43.3734V43.7699Z" fill="#FDBD00"/>
<path d="M38.2794 42.3854L36.3193 40.4038L35.2249 41.9241L34.5391 41.4301L36.2173 39.099L38.0669 40.9688L40.4809 36.3555L41.7261 38.2281L43.0431 38.1738L43.0777 39.0181L41.2858 39.0922L40.5678 38.0123L38.2794 42.3854Z" fill="#FDBD00"/>
</g>
<defs>
<filter id="filter0_d_1762_260120" x="2.09206" y="5.92627" width="36.6345" height="38.6408" filterUnits="userSpaceOnUse" color-interpolation-filters="sRGB">
<feFlood flood-opacity="0" result="BackgroundImageFix"/>
<feColorMatrix in="SourceAlpha" type="matrix" values="0 0 0 0 0 0 0 0 0 0 0 0 0 0 0 0 0 0 127 0" result="hardAlpha"/>
<feOffset dx="-0.833719" dy="0.833719"/>
<feColorMatrix type="matrix" values="0 0 0 0 0.133333 0 0 0 0 0.133333 0 0 0 0 0.133333 0 0 0 1 0"/>
<feBlend mode="normal" in2="BackgroundImageFix" result="effect1_dropShadow_1762_260120"/>
<feBlend mode="normal" in="SourceGraphic" in2="effect1_dropShadow_1762_260120" result="shape"/>
</filter>
<clipPath id="clip0_1762_260120">
<rect width="46.7647" height="48" fill="white"/>
</clipPath>
</defs>
</svg>
