<svg width="47" height="48" viewBox="0 0 47 48" fill="none" xmlns="http://www.w3.org/2000/svg">
<g clip-path="url(#clip0_14208_371230)">
<rect y="11.9531" width="35.8494" height="35.8494" fill="#FDBD00"/>
<g filter="url(#filter0_d_14208_371230)">
<rect x="4.22461" y="6.06738" width="35.6516" height="37.6601" fill="white"/>
<rect x="4.22461" y="6.06738" width="35.6516" height="37.6601" stroke="white" stroke-width="0.147059"/>
</g>
<path d="M19.17 18.3736H22.05V30.9736H19.656L13.374 23.3236V30.9736H10.494V18.3736H12.906L19.17 26.0236V18.3736ZM28.7391 21.1456C31.6911 21.1456 33.4011 22.5136 33.4011 25.4476V30.9736H30.7731V29.7676C30.2511 30.6496 29.2431 31.1176 27.8211 31.1176C25.5531 31.1176 24.2031 29.8576 24.2031 28.1836C24.2031 26.4736 25.4091 25.2856 28.3611 25.2856H30.5931C30.5931 24.0796 29.8731 23.3776 28.3611 23.3776C27.3351 23.3776 26.2731 23.7196 25.5711 24.2776L24.5631 22.3156C25.6251 21.5596 27.1911 21.1456 28.7391 21.1456ZM28.5231 29.2276C29.4591 29.2276 30.2691 28.7956 30.5931 27.9136V26.9236H28.6671C27.3531 26.9236 26.9391 27.4096 26.9391 28.0576C26.9391 28.7596 27.5331 29.2276 28.5231 29.2276Z" fill="black" fill-opacity="0.87"/>
<path d="M6.91423 40.327H8.46659V40.5029H6.62747V40.3653L7.75923 39.2412C8.07659 38.9238 8.13776 38.7365 8.13776 38.5338C8.13776 38.1973 7.90453 37.987 7.461 37.987C7.12453 37.987 6.876 38.0865 6.69247 38.2968L6.55482 38.1744C6.75747 37.9412 7.07482 37.8073 7.47629 37.8073C8.00011 37.8073 8.33659 38.0788 8.33659 38.5147C8.33659 38.7709 8.25247 38.9965 7.9007 39.3444L6.91423 40.327ZM9.0687 40.327H10.6211V40.5029H8.78194V40.3653L9.9137 39.2412C10.2311 38.9238 10.2922 38.7365 10.2922 38.5338C10.2922 38.1973 10.059 37.987 9.61547 37.987C9.279 37.987 9.03047 38.0865 8.84694 38.2968L8.70929 38.1744C8.91194 37.9412 9.22929 37.8073 9.63076 37.8073C10.1546 37.8073 10.4911 38.0788 10.4911 38.5147C10.4911 38.7709 10.4069 38.9965 10.0552 39.3444L9.0687 40.327ZM11.1993 40.5182C11.1114 40.5182 11.0387 40.4456 11.0387 40.3538C11.0387 40.262 11.1114 40.1932 11.1993 40.1932C11.2873 40.1932 11.3599 40.262 11.3599 40.3538C11.3599 40.4456 11.2873 40.5182 11.1993 40.5182ZM12.5995 37.8073C13.303 37.8073 13.6739 38.312 13.6739 39.1494C13.6739 40.0556 13.1921 40.522 12.4848 40.522C12.2554 40.522 12.0413 40.4838 11.8768 40.3844L11.9571 40.2276C12.0948 40.3156 12.2821 40.35 12.4848 40.35C13.0851 40.35 13.4789 39.9562 13.4789 39.18C13.4789 39.0997 13.4751 38.9812 13.456 38.8588C13.3451 39.2106 13.0086 39.4094 12.6033 39.4094C12.068 39.4094 11.7086 39.0959 11.7086 38.6141C11.7086 38.1247 12.0871 37.8073 12.5995 37.8073ZM12.6301 39.2412C13.0698 39.2412 13.3718 38.962 13.3718 38.6026C13.3718 38.2891 13.108 37.9756 12.6071 37.9756C12.1904 37.9756 11.9036 38.2241 11.9036 38.6103C11.9036 38.9926 12.1789 39.2412 12.6301 39.2412ZM15.5266 39.1035C15.8937 39.1991 16.104 39.4362 16.104 39.7688C16.104 40.2353 15.7178 40.522 15.0869 40.522C14.4561 40.522 14.0775 40.2353 14.0775 39.7688C14.0775 39.4323 14.284 39.1991 14.6472 39.1035C14.3413 39.0041 14.1731 38.7938 14.1731 38.4994C14.1731 38.0712 14.5325 37.8073 15.0869 37.8073C15.6413 37.8073 16.0084 38.0712 16.0084 38.4994C16.0084 38.7938 15.8363 39.0041 15.5266 39.1035ZM14.3681 38.5032C14.3681 38.8244 14.6319 39.027 15.0869 39.027C15.5419 39.027 15.8134 38.8244 15.8134 38.507C15.8134 38.1782 15.5305 37.9756 15.0869 37.9756C14.6434 37.9756 14.3681 38.1782 14.3681 38.5032ZM15.0869 40.3538C15.6031 40.3538 15.909 40.1282 15.909 39.7688C15.909 39.4132 15.6031 39.1876 15.0869 39.1876C14.5708 39.1876 14.2725 39.4132 14.2725 39.7688C14.2725 40.1282 14.5708 40.3538 15.0869 40.3538ZM17.3154 37.8073C18.019 37.8073 18.3898 38.312 18.3898 39.1494C18.3898 40.0556 17.9081 40.522 17.2007 40.522C16.9713 40.522 16.7572 40.4838 16.5928 40.3844L16.6731 40.2276C16.8107 40.3156 16.9981 40.35 17.2007 40.35C17.801 40.35 18.1948 39.9562 18.1948 39.18C18.1948 39.0997 18.191 38.9812 18.1719 38.8588C18.061 39.2106 17.7245 39.4094 17.3193 39.4094C16.784 39.4094 16.4245 39.0959 16.4245 38.6141C16.4245 38.1247 16.8031 37.8073 17.3154 37.8073ZM17.346 39.2412C17.7857 39.2412 18.0878 38.962 18.0878 38.6026C18.0878 38.2891 17.824 37.9756 17.3231 37.9756C16.9063 37.9756 16.6195 38.2241 16.6195 38.6103C16.6195 38.9926 16.8948 39.2412 17.346 39.2412Z" fill="black" fill-opacity="0.87"/>
<path d="M6.79808 10.4739H7.64691V13.1504H7.45191V10.6498H6.79808V10.4739ZM8.14603 10.4739H8.99485V13.1504H8.79985V10.6498H8.14603V10.4739Z" fill="black" fill-opacity="0.87"/>
<path d="M30.2189 9.30249C30.2189 11.818 30.2185 14.3335 30.2189 16.849C30.2194 17.8551 30.8008 18.4365 31.8116 18.437C36.0634 18.4378 40.3147 18.4378 44.5665 18.437C45.5917 18.437 46.1659 17.8576 46.1663 16.827C46.1668 13.3527 46.152 9.87844 46.1786 6.40416C46.1837 5.69848 45.9867 5.10479 45.5955 4.54616C44.9227 3.58441 44.1385 2.71859 43.2583 1.94868C42.6819 1.44457 42.0582 0.992012 41.4358 0.544518C41.0829 0.291407 40.6684 0.207312 40.2235 0.209009C37.424 0.219148 34.6241 0.213654 31.8247 0.21408C30.7881 0.21408 30.2189 0.780733 30.2189 1.81262C30.2185 4.3091 30.2189 6.80559 30.2189 9.30249Z" stroke="black" stroke-opacity="0.87" stroke-width="0.147059" stroke-linecap="round" stroke-linejoin="round"/>
<path d="M30.2189 9.30249C30.2189 6.80559 30.2185 4.3091 30.2189 1.81262C30.2189 0.780733 30.7881 0.21408 31.8247 0.21408C34.6241 0.213654 37.424 0.219148 40.2235 0.209009C40.6684 0.207312 41.0829 0.291407 41.4358 0.544518C42.0582 0.992012 42.6819 1.44457 43.2583 1.94868C44.1385 2.71859 44.9227 3.58441 45.5955 4.54616C45.9867 5.10479 46.1837 5.69848 46.1786 6.40416C46.152 9.87844 46.1668 13.3527 46.1663 16.827C46.1659 17.8576 45.5917 18.437 44.5665 18.437C40.3147 18.4378 36.0634 18.4378 31.8116 18.437C30.8008 18.4365 30.2194 17.8551 30.2189 16.849C30.2185 14.3335 30.2189 11.818 30.2189 9.30249Z" fill="black" fill-opacity="0.87"/>
<path d="M40.4973 1.47413C40.3899 1.46737 40.3164 1.4585 40.2425 1.4585C37.4337 1.45807 34.6245 1.45765 31.8158 1.4585C31.4604 1.45892 31.389 1.53963 31.389 1.93092C31.3886 6.92388 31.3886 11.9169 31.389 16.9094C31.389 17.3201 31.4608 17.3941 31.8644 17.3941C36.0967 17.3945 40.3291 17.3945 44.5619 17.3941C44.9865 17.3941 45.0525 17.3265 45.0525 16.8959C45.0525 13.3743 45.0525 9.85264 45.0525 6.33103V6.01326H44.6962C43.5672 6.01326 42.4377 6.01369 41.3086 6.01326C40.6629 6.01326 40.4973 5.84931 40.4973 5.20872C40.4968 3.97526 40.4973 2.74181 40.4973 1.47413H40.4973Z" fill="white"/>
<path d="M41.6191 4.75572H44.3362C43.5186 3.73694 42.6375 2.85801 41.6191 2.03613V4.75572Z" fill="white"/>
<path fill-rule="evenodd" clip-rule="evenodd" d="M43.1625 10.2271C42.3538 10.061 41.5437 10.1591 40.7337 10.2313C40.609 10.2427 40.4603 10.2144 40.3534 10.1515C39.338 9.55312 38.7502 8.61335 38.3213 7.55356C38.2926 7.48173 38.3061 7.38708 38.3179 7.30553C38.4189 6.5859 38.6568 6.39533 38.7003 5.54768C38.7426 5.22738 38.5541 4.47311 38.4261 4.17816C38.2714 3.82236 37.9169 3.85237 37.5966 3.898C37.3021 3.93983 37.1183 4.11351 37.0874 4.42494C37.0519 4.78031 37.016 5.14709 37.0659 5.49654C37.1631 6.17264 37.3266 6.83859 37.4474 7.51172C37.4728 7.65286 37.4757 7.82696 37.4157 7.95035C36.8744 9.0659 36.3116 10.1709 35.7673 11.2848C35.6211 11.5835 35.4115 11.7821 35.1115 11.9279C34.4773 12.2355 33.8785 12.6103 33.4128 13.1478C33.2223 13.3676 33.0769 13.6405 32.9725 13.9131C32.9286 14.0276 32.9975 14.2524 33.0942 14.3416C33.4369 14.6572 33.8878 14.6936 34.2804 14.4295C34.5466 14.2503 34.809 14.0361 35.0017 13.7829C35.4103 13.2467 35.7834 12.6817 36.1476 12.1138C36.263 11.9342 36.3868 11.818 36.5922 11.7703C37.7407 11.5032 38.8871 11.2277 40.0369 10.9666C40.1413 10.9429 40.2714 10.9788 40.3762 11.0211C40.8359 11.2053 41.283 11.4238 41.7495 11.5877C42.2422 11.761 42.7535 11.8776 43.2851 11.8235C43.6016 11.7914 43.7816 11.63 43.861 11.3245C44.0203 10.7109 43.8019 10.3581 43.1626 10.2271L43.1625 10.2271ZM33.6816 14.0527C33.7193 13.6914 34.3882 12.8982 35.0474 12.4385C34.6742 13.0339 34.2889 13.6208 33.6816 14.0527ZM37.8502 4.1709C38.4118 4.7367 38.2892 5.66211 37.9845 6.34412C37.6266 5.66845 37.5265 4.84277 37.8502 4.1709ZM36.6797 11.1781C37.0913 10.3393 37.5004 9.50599 37.8912 8.70904C38.3687 9.27697 38.8682 9.87024 39.3503 10.4437C38.4984 10.6782 37.5929 10.9271 36.6797 11.1781H36.6797ZM43.3122 11.2352C43.0756 11.228 42.8326 11.2225 42.6052 11.1642C42.2951 11.0848 41.9968 10.9567 41.6934 10.8498L41.7018 10.7767C42.2194 10.7298 42.7354 10.7138 43.2433 10.8693C43.2839 10.8815 43.3236 10.9039 43.3595 10.9196C43.455 10.9614 43.5243 11.0573 43.5243 11.1275C43.504 11.1963 43.3819 11.2373 43.3122 11.2352Z" fill="#FDBD00"/>
<path d="M30.6134 39.0466C30.6134 41.5621 30.613 44.0776 30.6138 46.5935C30.6138 47.5997 31.1957 48.1811 32.2064 48.1811C36.4578 48.1824 40.7096 48.182 44.9614 48.1811C45.9865 48.1811 46.5608 47.6022 46.5608 46.5716C46.5612 43.0973 46.5464 39.623 46.573 36.1487C46.5785 35.4426 46.3816 34.8494 45.9903 34.2903C45.3172 33.3286 44.5329 32.4632 43.6532 31.6928C43.0768 31.1887 42.4531 30.7361 41.8302 30.2891C41.4778 30.0356 41.0633 29.9515 40.6183 29.9531C37.8185 29.9637 35.019 29.9582 32.2195 29.9586C31.183 29.9586 30.6138 30.5249 30.6138 31.5568C30.6134 34.0537 30.6134 36.5502 30.6134 39.0466V39.0466Z" stroke="black" stroke-opacity="0.87" stroke-width="0.147059" stroke-linecap="round" stroke-linejoin="round"/>
<path d="M30.6134 39.0466C30.6134 36.5502 30.6134 34.0537 30.6138 31.5568C30.6138 30.5249 31.183 29.9586 32.2195 29.9586C35.019 29.9582 37.8185 29.9637 40.6183 29.9531C41.0633 29.9515 41.4778 30.0356 41.8302 30.2891C42.4531 30.7361 43.0768 31.1887 43.6532 31.6928C44.5329 32.4632 45.3172 33.3286 45.9903 34.2903C46.3816 34.8494 46.5785 35.4426 46.573 36.1487C46.5464 39.623 46.5612 43.0973 46.5608 46.5716C46.5608 47.6022 45.9865 48.1811 44.9614 48.1811C40.7096 48.182 36.4578 48.1824 32.2064 48.1811C31.1957 48.1811 30.6138 47.5997 30.6138 46.5935C30.613 44.0776 30.6134 41.5621 30.6134 39.0466V39.0466Z" fill="black" fill-opacity="0.87"/>
<path d="M40.8914 31.2184C40.7845 31.2117 40.7105 31.2028 40.637 31.2028C37.8282 31.2019 35.0191 31.2019 32.2103 31.2028C31.8545 31.2028 31.7835 31.2835 31.7835 31.6752C31.7831 36.6677 31.7831 41.6607 31.7835 46.6537C31.7835 47.064 31.8549 47.1379 32.2589 47.1379C36.4913 47.1388 40.7236 47.1383 44.956 47.1383C45.3811 47.1379 45.4466 47.0707 45.4466 46.6401C45.447 43.1185 45.447 39.5969 45.447 36.0753V35.7575H45.0908C43.9617 35.7575 42.8322 35.7575 41.7031 35.7575C41.057 35.7571 40.8918 35.5932 40.8918 34.953C40.8914 33.7195 40.8914 32.4861 40.8914 31.2184H40.8914Z" fill="white"/>
<path d="M42.0156 34.4999H44.7327C43.915 33.4815 43.034 32.6026 42.0156 31.7803V34.4999Z" fill="white"/>
<path d="M43.3734 43.7699H33.2109V34.5H34.0561V42.9248H43.3734V43.7699Z" fill="#FDBD00"/>
<path d="M38.2794 42.3864L36.3193 40.4048L35.2249 41.925L34.5391 41.4311L36.2173 39.1L38.0669 40.9697L40.4809 36.3564L41.7261 38.2291L43.0431 38.1748L43.0777 39.0191L41.2858 39.0932L40.5678 38.0133L38.2794 42.3864Z" fill="#FDBD00"/>
</g>
<defs>
<filter id="filter0_d_14208_371230" x="3.31716" y="5.99414" width="36.6325" height="38.6404" filterUnits="userSpaceOnUse" color-interpolation-filters="sRGB">
<feFlood flood-opacity="0" result="BackgroundImageFix"/>
<feColorMatrix in="SourceAlpha" type="matrix" values="0 0 0 0 0 0 0 0 0 0 0 0 0 0 0 0 0 0 127 0" result="hardAlpha"/>
<feOffset dx="-0.833719" dy="0.833719"/>
<feColorMatrix type="matrix" values="0 0 0 0 0.133333 0 0 0 0 0.133333 0 0 0 0 0.133333 0 0 0 1 0"/>
<feBlend mode="normal" in2="BackgroundImageFix" result="effect1_dropShadow_14208_371230"/>
<feBlend mode="normal" in="SourceGraphic" in2="effect1_dropShadow_14208_371230" result="shape"/>
</filter>
<clipPath id="clip0_14208_371230">
<rect width="46.7647" height="48" fill="white"/>
</clipPath>
</defs>
</svg>
