<svg width="75" height="66" viewBox="0 0 75 66" fill="none" xmlns="http://www.w3.org/2000/svg">
<path d="M27 6V18.5C27 21.2614 31.4772 23.5 37 23.5C42.5228 23.5 47 21.2614 47 18.5V6M27 6C27 8.76142 31.4772 11 37 11C42.5228 11 47 8.76142 47 6M27 6C27 3.23858 31.4772 1 37 1C42.5228 1 47 3.23858 47 6M47 12.25C47 15.0114 42.5228 17.25 37 17.25C31.4772 17.25 27 15.0114 27 12.25" stroke="currentColor" stroke-width="1.58333"/>
<path d="M8.17883 39.37C7.61883 39.37 7.08216 39.2967 6.56883 39.15C6.05549 38.9967 5.64216 38.8 5.32883 38.56L5.87883 37.34C6.17883 37.5533 6.53216 37.73 6.93883 37.87C7.35216 38.0033 7.76883 38.07 8.18883 38.07C8.50883 38.07 8.7655 38.04 8.95883 37.98C9.15883 37.9133 9.3055 37.8233 9.39883 37.71C9.49216 37.5967 9.53883 37.4667 9.53883 37.32C9.53883 37.1333 9.4655 36.9867 9.31883 36.88C9.17216 36.7667 8.97883 36.6767 8.73883 36.61C8.49883 36.5367 8.23216 36.47 7.93883 36.41C7.65216 36.3433 7.36216 36.2633 7.06883 36.17C6.78216 36.0767 6.51883 35.9567 6.27883 35.81C6.03883 35.6633 5.84216 35.47 5.68883 35.23C5.54216 34.99 5.46883 34.6833 5.46883 34.31C5.46883 33.91 5.57549 33.5467 5.78883 33.22C6.00883 32.8867 6.33549 32.6233 6.76883 32.43C7.20883 32.23 7.75883 32.13 8.41883 32.13C8.85883 32.13 9.29216 32.1833 9.71883 32.29C10.1455 32.39 10.5222 32.5433 10.8488 32.75L10.3488 33.98C10.0222 33.7933 9.6955 33.6567 9.36883 33.57C9.04216 33.4767 8.72216 33.43 8.40883 33.43C8.09549 33.43 7.83883 33.4667 7.63883 33.54C7.43883 33.6133 7.29549 33.71 7.20883 33.83C7.12216 33.9433 7.07883 34.0767 7.07883 34.23C7.07883 34.41 7.15216 34.5567 7.29883 34.67C7.44549 34.7767 7.63883 34.8633 7.87883 34.93C8.11883 34.9967 8.38216 35.0633 8.66883 35.13C8.96216 35.1967 9.25216 35.2733 9.53883 35.36C9.83216 35.4467 10.0988 35.5633 10.3388 35.71C10.5788 35.8567 10.7722 36.05 10.9188 36.29C11.0722 36.53 11.1488 36.8333 11.1488 37.2C11.1488 37.5933 11.0388 37.9533 10.8188 38.28C10.5988 38.6067 10.2688 38.87 9.82883 39.07C9.39549 39.27 8.84549 39.37 8.17883 39.37ZM14.7058 39.33C14.1324 39.33 13.6224 39.21 13.1758 38.97C12.7358 38.73 12.3858 38.4033 12.1258 37.99C11.8724 37.57 11.7458 37.0933 11.7458 36.56C11.7458 36.02 11.8724 35.5433 12.1258 35.13C12.3858 34.71 12.7358 34.3833 13.1758 34.15C13.6224 33.91 14.1324 33.79 14.7058 33.79C15.2724 33.79 15.7791 33.91 16.2258 34.15C16.6724 34.3833 17.0224 34.7067 17.2758 35.12C17.5291 35.5333 17.6558 36.0133 17.6558 36.56C17.6558 37.0933 17.5291 37.57 17.2758 37.99C17.0224 38.4033 16.6724 38.73 16.2258 38.97C15.7791 39.21 15.2724 39.33 14.7058 39.33ZM14.7058 38.05C14.9658 38.05 15.1991 37.99 15.4058 37.87C15.6124 37.75 15.7758 37.58 15.8958 37.36C16.0158 37.1333 16.0758 36.8667 16.0758 36.56C16.0758 36.2467 16.0158 35.98 15.8958 35.76C15.7758 35.54 15.6124 35.37 15.4058 35.25C15.1991 35.13 14.9658 35.07 14.7058 35.07C14.4458 35.07 14.2124 35.13 14.0058 35.25C13.7991 35.37 13.6324 35.54 13.5058 35.76C13.3858 35.98 13.3258 36.2467 13.3258 36.56C13.3258 36.8667 13.3858 37.1333 13.5058 37.36C13.6324 37.58 13.7991 37.75 14.0058 37.87C14.2124 37.99 14.4458 38.05 14.7058 38.05ZM18.6985 39.25V31.83H20.2585V39.25H18.6985ZM21.7063 39.25V33.87H23.2663V39.25H21.7063ZM22.4863 33.12C22.1997 33.12 21.9663 33.0367 21.7863 32.87C21.6063 32.7033 21.5163 32.4967 21.5163 32.25C21.5163 32.0033 21.6063 31.7967 21.7863 31.63C21.9663 31.4633 22.1997 31.38 22.4863 31.38C22.773 31.38 23.0063 31.46 23.1863 31.62C23.3663 31.7733 23.4563 31.9733 23.4563 32.22C23.4563 32.48 23.3663 32.6967 23.1863 32.87C23.013 33.0367 22.7797 33.12 22.4863 33.12ZM27.0241 39.33C26.5175 39.33 26.0608 39.2167 25.6541 38.99C25.2475 38.7567 24.9241 38.4333 24.6841 38.02C24.4508 37.6067 24.3341 37.12 24.3341 36.56C24.3341 35.9933 24.4508 35.5033 24.6841 35.09C24.9241 34.6767 25.2475 34.3567 25.6541 34.13C26.0608 33.9033 26.5175 33.79 27.0241 33.79C27.4775 33.79 27.8741 33.89 28.2141 34.09C28.5541 34.29 28.8175 34.5933 29.0041 35C29.1908 35.4067 29.2841 35.9267 29.2841 36.56C29.2841 37.1867 29.1941 37.7067 29.0141 38.12C28.8341 38.5267 28.5741 38.83 28.2341 39.03C27.9008 39.23 27.4975 39.33 27.0241 39.33ZM27.2941 38.05C27.5475 38.05 27.7775 37.99 27.9841 37.87C28.1908 37.75 28.3541 37.58 28.4741 37.36C28.6008 37.1333 28.6641 36.8667 28.6641 36.56C28.6641 36.2467 28.6008 35.98 28.4741 35.76C28.3541 35.54 28.1908 35.37 27.9841 35.25C27.7775 35.13 27.5475 35.07 27.2941 35.07C27.0341 35.07 26.8008 35.13 26.5941 35.25C26.3875 35.37 26.2208 35.54 26.0941 35.76C25.9741 35.98 25.9141 36.2467 25.9141 36.56C25.9141 36.8667 25.9741 37.1333 26.0941 37.36C26.2208 37.58 26.3875 37.75 26.5941 37.87C26.8008 37.99 27.0341 38.05 27.2941 38.05ZM28.7041 39.25V38.15L28.7341 36.55L28.6341 34.96V31.83H30.1941V39.25H28.7041ZM36.88 39.37C36.32 39.37 35.7833 39.2967 35.27 39.15C34.7567 38.9967 34.3433 38.8 34.03 38.56L34.58 37.34C34.88 37.5533 35.2333 37.73 35.64 37.87C36.0533 38.0033 36.47 38.07 36.89 38.07C37.21 38.07 37.4667 38.04 37.66 37.98C37.86 37.9133 38.0067 37.8233 38.1 37.71C38.1933 37.5967 38.24 37.4667 38.24 37.32C38.24 37.1333 38.1667 36.9867 38.02 36.88C37.8733 36.7667 37.68 36.6767 37.44 36.61C37.2 36.5367 36.9333 36.47 36.64 36.41C36.3533 36.3433 36.0633 36.2633 35.77 36.17C35.4833 36.0767 35.22 35.9567 34.98 35.81C34.74 35.6633 34.5433 35.47 34.39 35.23C34.2433 34.99 34.17 34.6833 34.17 34.31C34.17 33.91 34.2767 33.5467 34.49 33.22C34.71 32.8867 35.0367 32.6233 35.47 32.43C35.91 32.23 36.46 32.13 37.12 32.13C37.56 32.13 37.9933 32.1833 38.42 32.29C38.8467 32.39 39.2233 32.5433 39.55 32.75L39.05 33.98C38.7233 33.7933 38.3967 33.6567 38.07 33.57C37.7433 33.4767 37.4233 33.43 37.11 33.43C36.7967 33.43 36.54 33.4667 36.34 33.54C36.14 33.6133 35.9967 33.71 35.91 33.83C35.8233 33.9433 35.78 34.0767 35.78 34.23C35.78 34.41 35.8533 34.5567 36 34.67C36.1467 34.7767 36.34 34.8633 36.58 34.93C36.82 34.9967 37.0833 35.0633 37.37 35.13C37.6633 35.1967 37.9533 35.2733 38.24 35.36C38.5333 35.4467 38.8 35.5633 39.04 35.71C39.28 35.8567 39.4733 36.05 39.62 36.29C39.7733 36.53 39.85 36.8333 39.85 37.2C39.85 37.5933 39.74 37.9533 39.52 38.28C39.3 38.6067 38.97 38.87 38.53 39.07C38.0967 39.27 37.5467 39.37 36.88 39.37ZM43.047 39.33C42.4136 39.33 41.9203 39.17 41.567 38.85C41.2136 38.5233 41.037 38.04 41.037 37.4V32.68H42.597V37.38C42.597 37.6067 42.657 37.7833 42.777 37.91C42.897 38.03 43.0603 38.09 43.267 38.09C43.5136 38.09 43.7236 38.0233 43.897 37.89L44.317 38.99C44.157 39.1033 43.9636 39.19 43.737 39.25C43.517 39.3033 43.287 39.33 43.047 39.33ZM40.207 35.19V33.99H43.937V35.19H40.207ZM48.4927 39.25V38.2L48.3927 37.97V36.09C48.3927 35.7567 48.2893 35.4967 48.0827 35.31C47.8827 35.1233 47.5727 35.03 47.1527 35.03C46.866 35.03 46.5827 35.0767 46.3027 35.17C46.0293 35.2567 45.796 35.3767 45.6027 35.53L45.0427 34.44C45.336 34.2333 45.6893 34.0733 46.1027 33.96C46.516 33.8467 46.936 33.79 47.3627 33.79C48.1827 33.79 48.8193 33.9833 49.2727 34.37C49.726 34.7567 49.9527 35.36 49.9527 36.18V39.25H48.4927ZM46.8527 39.33C46.4327 39.33 46.0727 39.26 45.7727 39.12C45.4727 38.9733 45.2427 38.7767 45.0827 38.53C44.9227 38.2833 44.8427 38.0067 44.8427 37.7C44.8427 37.38 44.9193 37.1 45.0727 36.86C45.2327 36.62 45.4827 36.4333 45.8227 36.3C46.1627 36.16 46.606 36.09 47.1527 36.09H48.5827V37H47.3227C46.956 37 46.7027 37.06 46.5627 37.18C46.4293 37.3 46.3627 37.45 46.3627 37.63C46.3627 37.83 46.4393 37.99 46.5927 38.11C46.7527 38.2233 46.9693 38.28 47.2427 38.28C47.5027 38.28 47.736 38.22 47.9427 38.1C48.1493 37.9733 48.2993 37.79 48.3927 37.55L48.6327 38.27C48.5193 38.6167 48.3127 38.88 48.0127 39.06C47.7127 39.24 47.326 39.33 46.8527 39.33ZM53.5645 39.33C52.9312 39.33 52.4379 39.17 52.0845 38.85C51.7312 38.5233 51.5545 38.04 51.5545 37.4V32.68H53.1145V37.38C53.1145 37.6067 53.1745 37.7833 53.2945 37.91C53.4145 38.03 53.5779 38.09 53.7845 38.09C54.0312 38.09 54.2412 38.0233 54.4145 37.89L54.8345 38.99C54.6745 39.1033 54.4812 39.19 54.2545 39.25C54.0345 39.3033 53.8045 39.33 53.5645 39.33ZM50.7245 35.19V33.99H54.4545V35.19H50.7245ZM58.2142 39.33C57.6009 39.33 57.0609 39.21 56.5942 38.97C56.1342 38.73 55.7776 38.4033 55.5242 37.99C55.2709 37.57 55.1442 37.0933 55.1442 36.56C55.1442 36.02 55.2676 35.5433 55.5142 35.13C55.7676 34.71 56.1109 34.3833 56.5442 34.15C56.9776 33.91 57.4676 33.79 58.0142 33.79C58.5409 33.79 59.0142 33.9033 59.4342 34.13C59.8609 34.35 60.1976 34.67 60.4442 35.09C60.6909 35.5033 60.8142 36 60.8142 36.58C60.8142 36.64 60.8109 36.71 60.8042 36.79C60.7976 36.8633 60.7909 36.9333 60.7842 37H56.4142V36.09H59.9642L59.3642 36.36C59.3642 36.08 59.3076 35.8367 59.1942 35.63C59.0809 35.4233 58.9242 35.2633 58.7242 35.15C58.5242 35.03 58.2909 34.97 58.0242 34.97C57.7576 34.97 57.5209 35.03 57.3142 35.15C57.1142 35.2633 56.9576 35.4267 56.8442 35.64C56.7309 35.8467 56.6742 36.0933 56.6742 36.38V36.62C56.6742 36.9133 56.7376 37.1733 56.8642 37.4C56.9976 37.62 57.1809 37.79 57.4142 37.91C57.6542 38.0233 57.9342 38.08 58.2542 38.08C58.5409 38.08 58.7909 38.0367 59.0042 37.95C59.2242 37.8633 59.4242 37.7333 59.6042 37.56L60.4342 38.46C60.1876 38.74 59.8776 38.9567 59.5042 39.11C59.1309 39.2567 58.7009 39.33 58.2142 39.33ZM66.3148 38.06V33.44H67.6048V38.06H66.3148ZM64.5848 36.36V35.14H69.3448V36.36H64.5848ZM1.88957 51.25V44.25H3.50957V49.93H7.01957V51.25H1.88957ZM7.81473 51.25V45.87H9.37473V51.25H7.81473ZM8.59473 45.12C8.30806 45.12 8.07473 45.0367 7.89473 44.87C7.71473 44.7033 7.62473 44.4967 7.62473 44.25C7.62473 44.0033 7.71473 43.7967 7.89473 43.63C8.07473 43.4633 8.30806 43.38 8.59473 43.38C8.88139 43.38 9.11473 43.46 9.29473 43.62C9.47473 43.7733 9.56473 43.9733 9.56473 44.22C9.56473 44.48 9.47473 44.6967 9.29473 44.87C9.12139 45.0367 8.88806 45.12 8.59473 45.12ZM13.0225 51.33C12.3892 51.33 11.8959 51.17 11.5425 50.85C11.1892 50.5233 11.0125 50.04 11.0125 49.4V44.68H12.5725V49.38C12.5725 49.6067 12.6325 49.7833 12.7525 49.91C12.8725 50.03 13.0359 50.09 13.2425 50.09C13.4892 50.09 13.6992 50.0233 13.8725 49.89L14.2925 50.99C14.1325 51.1033 13.9392 51.19 13.7125 51.25C13.4925 51.3033 13.2625 51.33 13.0225 51.33ZM10.1825 47.19V45.99H13.9125V47.19H10.1825ZM18.4382 45.79C18.8649 45.79 19.2449 45.8767 19.5782 46.05C19.9182 46.2167 20.1849 46.4767 20.3782 46.83C20.5716 47.1767 20.6682 47.6233 20.6682 48.17V51.25H19.1082V48.41C19.1082 47.9767 19.0116 47.6567 18.8182 47.45C18.6316 47.2433 18.3649 47.14 18.0182 47.14C17.7716 47.14 17.5482 47.1933 17.3482 47.3C17.1549 47.4 17.0016 47.5567 16.8882 47.77C16.7816 47.9833 16.7282 48.2567 16.7282 48.59V51.25H15.1682V43.83H16.7282V47.36L16.3782 46.91C16.5716 46.55 16.8482 46.2733 17.2082 46.08C17.5682 45.8867 17.9782 45.79 18.4382 45.79ZM22.0823 51.25V45.87H23.6423V51.25H22.0823ZM22.8623 45.12C22.5756 45.12 22.3423 45.0367 22.1623 44.87C21.9823 44.7033 21.8923 44.4967 21.8923 44.25C21.8923 44.0033 21.9823 43.7967 22.1623 43.63C22.3423 43.4633 22.5756 43.38 22.8623 43.38C23.149 43.38 23.3823 43.46 23.5623 43.62C23.7423 43.7733 23.8323 43.9733 23.8323 44.22C23.8323 44.48 23.7423 44.6967 23.5623 44.87C23.389 45.0367 23.1556 45.12 22.8623 45.12ZM27.3601 51.33C26.9135 51.33 26.5135 51.2433 26.1601 51.07C25.8135 50.8967 25.5435 50.6333 25.3501 50.28C25.1568 49.92 25.0601 49.4633 25.0601 48.91V45.87H26.6201V48.68C26.6201 49.1267 26.7135 49.4567 26.9001 49.67C27.0935 49.8767 27.3635 49.98 27.7101 49.98C27.9501 49.98 28.1635 49.93 28.3501 49.83C28.5368 49.7233 28.6835 49.5633 28.7901 49.35C28.8968 49.13 28.9501 48.8567 28.9501 48.53V45.87H30.5101V51.25H29.0301V49.77L29.3001 50.2C29.1201 50.5733 28.8535 50.8567 28.5001 51.05C28.1535 51.2367 27.7735 51.33 27.3601 51.33ZM38.8454 45.79C39.272 45.79 39.6487 45.8767 39.9754 46.05C40.3087 46.2167 40.5687 46.4767 40.7554 46.83C40.9487 47.1767 41.0454 47.6233 41.0454 48.17V51.25H39.4854V48.41C39.4854 47.9767 39.3954 47.6567 39.2154 47.45C39.0354 47.2433 38.782 47.14 38.4554 47.14C38.2287 47.14 38.0254 47.1933 37.8454 47.3C37.6654 47.4 37.5254 47.5533 37.4254 47.76C37.3254 47.9667 37.2754 48.23 37.2754 48.55V51.25H35.7154V48.41C35.7154 47.9767 35.6254 47.6567 35.4454 47.45C35.272 47.2433 35.022 47.14 34.6954 47.14C34.4687 47.14 34.2654 47.1933 34.0854 47.3C33.9054 47.4 33.7654 47.5533 33.6654 47.76C33.5654 47.9667 33.5154 48.23 33.5154 48.55V51.25H31.9554V45.87H33.4454V47.34L33.1654 46.91C33.352 46.5433 33.6154 46.2667 33.9554 46.08C34.302 45.8867 34.6954 45.79 35.1354 45.79C35.6287 45.79 36.0587 45.9167 36.4254 46.17C36.7987 46.4167 37.0454 46.7967 37.1654 47.31L36.6154 47.16C36.7954 46.74 37.082 46.4067 37.4754 46.16C37.8754 45.9133 38.332 45.79 38.8454 45.79ZM45.3857 51.25V44.25H46.7257L49.7057 49.19H48.9957L51.9257 44.25H53.2557L53.2757 51.25H51.7557L51.7457 46.58H52.0257L49.6857 50.51H48.9557L46.5657 46.58H46.9057V51.25H45.3857ZM57.4964 51.33C56.8831 51.33 56.3431 51.21 55.8764 50.97C55.4164 50.73 55.0598 50.4033 54.8064 49.99C54.5531 49.57 54.4264 49.0933 54.4264 48.56C54.4264 48.02 54.5498 47.5433 54.7964 47.13C55.0498 46.71 55.3931 46.3833 55.8264 46.15C56.2598 45.91 56.7498 45.79 57.2964 45.79C57.8231 45.79 58.2964 45.9033 58.7164 46.13C59.1431 46.35 59.4798 46.67 59.7264 47.09C59.9731 47.5033 60.0964 48 60.0964 48.58C60.0964 48.64 60.0931 48.71 60.0864 48.79C60.0798 48.8633 60.0731 48.9333 60.0664 49H55.6964V48.09H59.2464L58.6464 48.36C58.6464 48.08 58.5898 47.8367 58.4764 47.63C58.3631 47.4233 58.2064 47.2633 58.0064 47.15C57.8064 47.03 57.5731 46.97 57.3064 46.97C57.0398 46.97 56.8031 47.03 56.5964 47.15C56.3964 47.2633 56.2398 47.4267 56.1264 47.64C56.0131 47.8467 55.9564 48.0933 55.9564 48.38V48.62C55.9564 48.9133 56.0198 49.1733 56.1464 49.4C56.2798 49.62 56.4631 49.79 56.6964 49.91C56.9364 50.0233 57.2164 50.08 57.5364 50.08C57.8231 50.08 58.0731 50.0367 58.2864 49.95C58.5064 49.8633 58.7064 49.7333 58.8864 49.56L59.7164 50.46C59.4698 50.74 59.1598 50.9567 58.7864 51.11C58.4131 51.2567 57.9831 51.33 57.4964 51.33ZM63.335 51.33C62.7017 51.33 62.2084 51.17 61.855 50.85C61.5017 50.5233 61.325 50.04 61.325 49.4V44.68H62.885V49.38C62.885 49.6067 62.945 49.7833 63.065 49.91C63.185 50.03 63.3484 50.09 63.555 50.09C63.8017 50.09 64.0117 50.0233 64.185 49.89L64.605 50.99C64.445 51.1033 64.2517 51.19 64.025 51.25C63.805 51.3033 63.575 51.33 63.335 51.33ZM60.495 47.19V45.99H64.225V47.19H60.495ZM68.7807 51.25V50.2L68.6807 49.97V48.09C68.6807 47.7567 68.5774 47.4967 68.3707 47.31C68.1707 47.1233 67.8607 47.03 67.4407 47.03C67.1541 47.03 66.8707 47.0767 66.5907 47.17C66.3174 47.2567 66.0841 47.3767 65.8907 47.53L65.3307 46.44C65.6241 46.2333 65.9774 46.0733 66.3907 45.96C66.8041 45.8467 67.2241 45.79 67.6507 45.79C68.4707 45.79 69.1074 45.9833 69.5607 46.37C70.0141 46.7567 70.2407 47.36 70.2407 48.18V51.25H68.7807ZM67.1407 51.33C66.7207 51.33 66.3607 51.26 66.0607 51.12C65.7607 50.9733 65.5307 50.7767 65.3707 50.53C65.2107 50.2833 65.1307 50.0067 65.1307 49.7C65.1307 49.38 65.2074 49.1 65.3607 48.86C65.5207 48.62 65.7707 48.4333 66.1107 48.3C66.4507 48.16 66.8941 48.09 67.4407 48.09H68.8707V49H67.6107C67.2441 49 66.9907 49.06 66.8507 49.18C66.7174 49.3 66.6507 49.45 66.6507 49.63C66.6507 49.83 66.7274 49.99 66.8807 50.11C67.0407 50.2233 67.2574 50.28 67.5307 50.28C67.7907 50.28 68.0241 50.22 68.2307 50.1C68.4374 49.9733 68.5874 49.79 68.6807 49.55L68.9207 50.27C68.8074 50.6167 68.6007 50.88 68.3007 51.06C68.0007 51.24 67.6141 51.33 67.1407 51.33ZM71.6526 51.25V43.83H73.2126V51.25H71.6526ZM14.6093 63.25V56.25H18.0293C18.9093 56.25 19.5693 56.4167 20.0093 56.75C20.456 57.0833 20.6793 57.5233 20.6793 58.07C20.6793 58.4367 20.5893 58.7567 20.4093 59.03C20.2293 59.2967 19.9826 59.5033 19.6693 59.65C19.356 59.7967 18.996 59.87 18.5893 59.87L18.7793 59.46C19.2193 59.46 19.6093 59.5333 19.9493 59.68C20.2893 59.82 20.5526 60.03 20.7393 60.31C20.9326 60.59 21.0293 60.9333 21.0293 61.34C21.0293 61.94 20.7926 62.41 20.3193 62.75C19.846 63.0833 19.1493 63.25 18.2293 63.25H14.6093ZM16.2193 62.03H18.1093C18.5293 62.03 18.846 61.9633 19.0593 61.83C19.2793 61.69 19.3893 61.47 19.3893 61.17C19.3893 60.8767 19.2793 60.66 19.0593 60.52C18.846 60.3733 18.5293 60.3 18.1093 60.3H16.0993V59.12H17.8293C18.2226 59.12 18.5226 59.0533 18.7293 58.92C18.9426 58.78 19.0493 58.57 19.0493 58.29C19.0493 58.0167 18.9426 57.8133 18.7293 57.68C18.5226 57.54 18.2226 57.47 17.8293 57.47H16.2193V62.03ZM25.4458 63.25V62.2L25.3458 61.97V60.09C25.3458 59.7567 25.2424 59.4967 25.0358 59.31C24.8358 59.1233 24.5258 59.03 24.1058 59.03C23.8191 59.03 23.5358 59.0767 23.2558 59.17C22.9824 59.2567 22.7491 59.3767 22.5558 59.53L21.9958 58.44C22.2891 58.2333 22.6424 58.0733 23.0558 57.96C23.4691 57.8467 23.8891 57.79 24.3158 57.79C25.1358 57.79 25.7724 57.9833 26.2258 58.37C26.6791 58.7567 26.9058 59.36 26.9058 60.18V63.25H25.4458ZM23.8058 63.33C23.3858 63.33 23.0258 63.26 22.7258 63.12C22.4258 62.9733 22.1958 62.7767 22.0358 62.53C21.8758 62.2833 21.7958 62.0067 21.7958 61.7C21.7958 61.38 21.8724 61.1 22.0258 60.86C22.1858 60.62 22.4358 60.4333 22.7758 60.3C23.1158 60.16 23.5591 60.09 24.1058 60.09H25.5358V61H24.2758C23.9091 61 23.6558 61.06 23.5158 61.18C23.3824 61.3 23.3158 61.45 23.3158 61.63C23.3158 61.83 23.3924 61.99 23.5458 62.11C23.7058 62.2233 23.9224 62.28 24.1958 62.28C24.4558 62.28 24.6891 62.22 24.8958 62.1C25.1024 61.9733 25.2524 61.79 25.3458 61.55L25.5858 62.27C25.4724 62.6167 25.2658 62.88 24.9658 63.06C24.6658 63.24 24.2791 63.33 23.8058 63.33ZM30.5177 63.33C29.8843 63.33 29.391 63.17 29.0377 62.85C28.6843 62.5233 28.5077 62.04 28.5077 61.4V56.68H30.0677V61.38C30.0677 61.6067 30.1277 61.7833 30.2477 61.91C30.3677 62.03 30.531 62.09 30.7377 62.09C30.9843 62.09 31.1943 62.0233 31.3677 61.89L31.7877 62.99C31.6277 63.1033 31.4343 63.19 31.2077 63.25C30.9877 63.3033 30.7577 63.33 30.5177 63.33ZM27.6777 59.19V57.99H31.4077V59.19H27.6777ZM34.7462 63.33C34.1128 63.33 33.6195 63.17 33.2662 62.85C32.9128 62.5233 32.7362 62.04 32.7362 61.4V56.68H34.2962V61.38C34.2962 61.6067 34.3562 61.7833 34.4762 61.91C34.5962 62.03 34.7595 62.09 34.9662 62.09C35.2128 62.09 35.4228 62.0233 35.5962 61.89L36.0162 62.99C35.8562 63.1033 35.6628 63.19 35.4362 63.25C35.2162 63.3033 34.9862 63.33 34.7462 63.33ZM31.9062 59.19V57.99H35.6362V59.19H31.9062ZM39.3959 63.33C38.7825 63.33 38.2425 63.21 37.7759 62.97C37.3159 62.73 36.9592 62.4033 36.7059 61.99C36.4525 61.57 36.3259 61.0933 36.3259 60.56C36.3259 60.02 36.4492 59.5433 36.6959 59.13C36.9492 58.71 37.2925 58.3833 37.7259 58.15C38.1592 57.91 38.6492 57.79 39.1959 57.79C39.7225 57.79 40.1959 57.9033 40.6159 58.13C41.0425 58.35 41.3792 58.67 41.6259 59.09C41.8725 59.5033 41.9959 60 41.9959 60.58C41.9959 60.64 41.9925 60.71 41.9859 60.79C41.9792 60.8633 41.9725 60.9333 41.9659 61H37.5959V60.09H41.1459L40.5459 60.36C40.5459 60.08 40.4892 59.8367 40.3759 59.63C40.2625 59.4233 40.1059 59.2633 39.9059 59.15C39.7059 59.03 39.4725 58.97 39.2059 58.97C38.9392 58.97 38.7025 59.03 38.4959 59.15C38.2959 59.2633 38.1392 59.4267 38.0259 59.64C37.9125 59.8467 37.8559 60.0933 37.8559 60.38V60.62C37.8559 60.9133 37.9192 61.1733 38.0459 61.4C38.1792 61.62 38.3625 61.79 38.5959 61.91C38.8359 62.0233 39.1159 62.08 39.4359 62.08C39.7225 62.08 39.9725 62.0367 40.1859 61.95C40.4059 61.8633 40.6059 61.7333 40.7859 61.56L41.6159 62.46C41.3692 62.74 41.0592 62.9567 40.6859 63.11C40.3125 63.2567 39.8825 63.33 39.3959 63.33ZM43.0345 63.25V57.87H44.5245V59.39L44.3145 58.95C44.4745 58.57 44.7311 58.2833 45.0845 58.09C45.4378 57.89 45.8678 57.79 46.3745 57.79V59.23C46.3078 59.2233 46.2478 59.22 46.1945 59.22C46.1411 59.2133 46.0845 59.21 46.0245 59.21C45.5978 59.21 45.2511 59.3333 44.9845 59.58C44.7245 59.82 44.5945 60.1967 44.5945 60.71V63.25H43.0345ZM47.3118 63.25V57.87H48.8718V63.25H47.3118ZM48.0918 57.12C47.8051 57.12 47.5718 57.0367 47.3918 56.87C47.2118 56.7033 47.1218 56.4967 47.1218 56.25C47.1218 56.0033 47.2118 55.7967 47.3918 55.63C47.5718 55.4633 47.8051 55.38 48.0918 55.38C48.3785 55.38 48.6118 55.46 48.7918 55.62C48.9718 55.7733 49.0618 55.9733 49.0618 56.22C49.0618 56.48 48.9718 56.6967 48.7918 56.87C48.6185 57.0367 48.3851 57.12 48.0918 57.12ZM52.9896 63.33C52.3763 63.33 51.8363 63.21 51.3696 62.97C50.9096 62.73 50.5529 62.4033 50.2996 61.99C50.0463 61.57 49.9196 61.0933 49.9196 60.56C49.9196 60.02 50.0429 59.5433 50.2896 59.13C50.5429 58.71 50.8863 58.3833 51.3196 58.15C51.7529 57.91 52.2429 57.79 52.7896 57.79C53.3163 57.79 53.7896 57.9033 54.2096 58.13C54.6363 58.35 54.9729 58.67 55.2196 59.09C55.4663 59.5033 55.5896 60 55.5896 60.58C55.5896 60.64 55.5863 60.71 55.5796 60.79C55.5729 60.8633 55.5663 60.9333 55.5596 61H51.1896V60.09H54.7396L54.1396 60.36C54.1396 60.08 54.0829 59.8367 53.9696 59.63C53.8563 59.4233 53.6996 59.2633 53.4996 59.15C53.2996 59.03 53.0663 58.97 52.7996 58.97C52.5329 58.97 52.2963 59.03 52.0896 59.15C51.8896 59.2633 51.7329 59.4267 51.6196 59.64C51.5063 59.8467 51.4496 60.0933 51.4496 60.38V60.62C51.4496 60.9133 51.5129 61.1733 51.6396 61.4C51.7729 61.62 51.9563 61.79 52.1896 61.91C52.4296 62.0233 52.7096 62.08 53.0296 62.08C53.3163 62.08 53.5663 62.0367 53.7796 61.95C53.9996 61.8633 54.1996 61.7333 54.3796 61.56L55.2096 62.46C54.9629 62.74 54.6529 62.9567 54.2796 63.11C53.9063 63.2567 53.4763 63.33 52.9896 63.33ZM58.4382 63.33C57.9782 63.33 57.5349 63.2767 57.1082 63.17C56.6882 63.0567 56.3549 62.9167 56.1082 62.75L56.6282 61.63C56.8749 61.7833 57.1649 61.91 57.4982 62.01C57.8382 62.1033 58.1715 62.15 58.4982 62.15C58.8582 62.15 59.1115 62.1067 59.2582 62.02C59.4115 61.9333 59.4882 61.8133 59.4882 61.66C59.4882 61.5333 59.4282 61.44 59.3082 61.38C59.1949 61.3133 59.0415 61.2633 58.8482 61.23C58.6549 61.1967 58.4415 61.1633 58.2082 61.13C57.9815 61.0967 57.7515 61.0533 57.5182 61C57.2849 60.94 57.0715 60.8533 56.8782 60.74C56.6849 60.6267 56.5282 60.4733 56.4082 60.28C56.2949 60.0867 56.2382 59.8367 56.2382 59.53C56.2382 59.19 56.3349 58.89 56.5282 58.63C56.7282 58.37 57.0149 58.1667 57.3882 58.02C57.7615 57.8667 58.2082 57.79 58.7282 57.79C59.0949 57.79 59.4682 57.83 59.8482 57.91C60.2282 57.99 60.5449 58.1067 60.7982 58.26L60.2782 59.37C60.0182 59.2167 59.7549 59.1133 59.4882 59.06C59.2282 59 58.9749 58.97 58.7282 58.97C58.3815 58.97 58.1282 59.0167 57.9682 59.11C57.8082 59.2033 57.7282 59.3233 57.7282 59.47C57.7282 59.6033 57.7849 59.7033 57.8982 59.77C58.0182 59.8367 58.1749 59.89 58.3682 59.93C58.5615 59.97 58.7715 60.0067 58.9982 60.04C59.2315 60.0667 59.4649 60.11 59.6982 60.17C59.9315 60.23 60.1415 60.3167 60.3282 60.43C60.5215 60.5367 60.6782 60.6867 60.7982 60.88C60.9182 61.0667 60.9782 61.3133 60.9782 61.62C60.9782 61.9533 60.8782 62.25 60.6782 62.51C60.4782 62.7633 60.1882 62.9633 59.8082 63.11C59.4349 63.2567 58.9782 63.33 58.4382 63.33Z" fill="currentColor"/>
</svg>
