<svg width="47" height="48" viewBox="0 0 47 48" fill="none" xmlns="http://www.w3.org/2000/svg">
<g clip-path="url(#clip0_1762_260122)">
<rect y="11.9531" width="35.8494" height="35.8494" fill="#FDBD00"/>
<g filter="url(#filter0_d_1762_260122)">
<rect x="4.22656" y="6.06641" width="35.6516" height="37.6601" fill="white"/>
<rect x="4.22656" y="6.06641" width="35.6516" height="37.6601" stroke="white" stroke-width="0.147059"/>
</g>
<path d="M15.332 20.2337V28.5671C15.332 30.408 18.3168 31.9004 21.9987 31.9004C25.6806 31.9004 28.6654 30.408 28.6654 28.5671V20.2337M15.332 20.2337C15.332 22.0747 18.3168 23.5671 21.9987 23.5671C25.6806 23.5671 28.6654 22.0747 28.6654 20.2337M15.332 20.2337C15.332 18.3928 18.3168 16.9004 21.9987 16.9004C25.6806 16.9004 28.6654 18.3928 28.6654 20.2337M28.6654 24.4004C28.6654 26.2413 25.6806 27.7337 21.9987 27.7337C18.3168 27.7337 15.332 26.2413 15.332 24.4004" stroke="#23252C" stroke-width="1.2"/>
<path d="M30.2189 9.30054C30.2189 11.816 30.2185 14.3315 30.2189 16.847C30.2194 17.8531 30.8008 18.4346 31.8116 18.435C36.0634 18.4358 40.3147 18.4358 44.5665 18.435C45.5917 18.435 46.1659 17.8557 46.1663 16.8251C46.1668 13.3508 46.152 9.87649 46.1786 6.4022C46.1837 5.69653 45.9867 5.10283 45.5955 4.5442C44.9227 3.58246 44.1385 2.71664 43.2583 1.94673C42.6819 1.44262 42.0582 0.990059 41.4358 0.542565C41.0829 0.289453 40.6684 0.205359 40.2235 0.207056C37.424 0.217195 34.6241 0.2117 31.8247 0.212127C30.7881 0.212127 30.2189 0.77878 30.2189 1.81067C30.2185 4.30714 30.2189 6.80364 30.2189 9.30054Z" stroke="#23252C" stroke-width="0.147059" stroke-linecap="round" stroke-linejoin="round"/>
<path d="M30.2189 9.30054C30.2189 6.80364 30.2185 4.30714 30.2189 1.81067C30.2189 0.77878 30.7881 0.212127 31.8247 0.212127C34.6241 0.2117 37.424 0.217195 40.2235 0.207056C40.6684 0.205359 41.0829 0.289453 41.4358 0.542565C42.0582 0.990059 42.6819 1.44262 43.2583 1.94673C44.1385 2.71664 44.9227 3.58246 45.5955 4.5442C45.9867 5.10283 46.1837 5.69653 46.1786 6.4022C46.152 9.87648 46.1668 13.3508 46.1663 16.8251C46.1659 17.8557 45.5917 18.435 44.5665 18.435C40.3147 18.4359 36.0634 18.4359 31.8116 18.435C30.8008 18.4346 30.2194 17.8531 30.2189 16.847C30.2185 14.3315 30.2189 11.816 30.2189 9.30054Z" fill="#23252C"/>
<path d="M40.4992 1.47315C40.3919 1.4664 40.3184 1.45752 40.2444 1.45752C37.4357 1.4571 34.6265 1.45667 31.8177 1.45752C31.4624 1.45794 31.3909 1.53865 31.3909 1.92994C31.3905 6.9229 31.3905 11.9159 31.3909 16.9084C31.3909 17.3191 31.4628 17.3931 31.8663 17.3931C36.0987 17.3935 40.331 17.3935 44.5638 17.3931C44.9885 17.3931 45.0544 17.3255 45.0544 16.8949C45.0544 13.3733 45.0544 9.85167 45.0544 6.33005V6.01229H44.6982C43.5691 6.01229 42.4396 6.01272 41.3105 6.01229C40.6649 6.01229 40.4992 5.84834 40.4992 5.20774C40.4988 3.97429 40.4992 2.74083 40.4992 1.47315H40.4992Z" fill="white"/>
<path d="M41.6172 4.75475H44.3342C43.5166 3.73596 42.6356 2.85703 41.6172 2.03516V4.75475Z" fill="white"/>
<path fill-rule="evenodd" clip-rule="evenodd" d="M43.1645 10.2232C42.3557 10.0571 41.5457 10.1552 40.7356 10.2274C40.611 10.2388 40.4622 10.2105 40.3553 10.1476C39.3399 9.54921 38.7521 8.60944 38.3232 7.54966C38.2945 7.47782 38.308 7.38317 38.3199 7.30162C38.4209 6.582 38.6588 6.39142 38.7023 5.54377C38.7445 5.22347 38.5561 4.4692 38.428 4.17426C38.2734 3.81846 37.9189 3.84846 37.5986 3.89409C37.304 3.93593 37.1202 4.1096 37.0894 4.42103C37.0539 4.7764 37.018 5.14318 37.0678 5.49264C37.165 6.16874 37.3285 6.83468 37.4494 7.50782C37.4747 7.64895 37.4777 7.82306 37.4177 7.94644C36.8764 9.062 36.3136 10.167 35.7693 11.2809C35.6231 11.5796 35.4135 11.7782 35.1135 11.924C34.4792 12.2316 33.8805 12.6064 33.4148 13.1439C33.2242 13.3637 33.0789 13.6366 32.9745 13.9092C32.9305 14.0237 32.9994 14.2485 33.0962 14.3377C33.4389 14.6533 33.8898 14.6896 34.2823 14.4255C34.5485 14.2464 34.8109 14.0322 35.0036 13.779C35.4122 13.2428 35.7853 12.6778 36.1496 12.1099C36.265 11.9303 36.3888 11.8141 36.5941 11.7664C37.7426 11.4993 38.889 11.2238 40.0388 10.9627C40.1432 10.939 40.2734 10.9749 40.3782 11.0172C40.8379 11.2014 41.285 11.4199 41.7515 11.5838C42.2442 11.7571 42.7555 11.8737 43.2871 11.8196C43.6035 11.7875 43.7836 11.6261 43.863 11.3206C44.0223 10.707 43.8038 10.3542 43.1645 10.2232L43.1645 10.2232ZM33.6836 14.0478C33.7212 13.6865 34.3901 12.8933 35.0493 12.4336C34.6762 13.029 34.2908 13.6159 33.6836 14.0478ZM37.8521 4.16797C38.4137 4.73377 38.2912 5.65918 37.9865 6.34119C37.6286 5.66552 37.5284 4.83984 37.8521 4.16797ZM36.6816 11.176C37.0932 10.3373 37.5023 9.50398 37.8931 8.70703C38.3706 9.27495 38.8701 9.86823 39.3522 10.4416C38.5003 10.6762 37.5948 10.925 36.6816 11.176H36.6816ZM43.3141 11.2331C43.0775 11.226 42.8345 11.2205 42.6072 11.1621C42.297 11.0827 41.9987 10.9547 41.6953 10.8478L41.7038 10.7747C42.2214 10.7278 42.7374 10.7117 43.2453 10.8672C43.2858 10.8795 43.3255 10.9019 43.3615 10.9175C43.457 10.9593 43.5263 11.0552 43.5263 11.1254C43.506 11.1943 43.3839 11.2353 43.3141 11.2331Z" fill="#FDBD00"/>
<path d="M30.6134 39.0466C30.6134 41.5621 30.613 44.0776 30.6138 46.5935C30.6138 47.5997 31.1957 48.1811 32.2064 48.1811C36.4578 48.1824 40.7096 48.182 44.9614 48.1811C45.9865 48.1811 46.5608 47.6022 46.5608 46.5716C46.5612 43.0973 46.5464 39.623 46.573 36.1487C46.5785 35.4426 46.3816 34.8494 45.9903 34.2903C45.3172 33.3286 44.5329 32.4632 43.6532 31.6928C43.0768 31.1887 42.4531 30.7361 41.8302 30.2891C41.4778 30.0356 41.0633 29.9515 40.6183 29.9531C37.8185 29.9637 35.019 29.9582 32.2195 29.9586C31.183 29.9586 30.6138 30.5249 30.6138 31.5568C30.6134 34.0537 30.6134 36.5502 30.6134 39.0466V39.0466Z" stroke="#23252C" stroke-width="0.147059" stroke-linecap="round" stroke-linejoin="round"/>
<path d="M30.6134 39.0466C30.6134 36.5502 30.6134 34.0537 30.6138 31.5568C30.6138 30.5249 31.183 29.9586 32.2195 29.9586C35.019 29.9582 37.8185 29.9637 40.6183 29.9531C41.0633 29.9515 41.4778 30.0356 41.8302 30.2891C42.4531 30.7361 43.0768 31.1887 43.6532 31.6928C44.5329 32.4632 45.3172 33.3286 45.9903 34.2903C46.3816 34.8494 46.5785 35.4426 46.573 36.1487C46.5464 39.623 46.5612 43.0973 46.5608 46.5716C46.5608 47.6022 45.9865 48.1811 44.9614 48.1811C40.7096 48.182 36.4578 48.1824 32.2064 48.1811C31.1957 48.1811 30.6138 47.5997 30.6138 46.5935C30.613 44.0776 30.6134 41.5621 30.6134 39.0466V39.0466Z" fill="#23252C"/>
<path d="M40.8894 31.2194C40.7825 31.2126 40.7086 31.2038 40.635 31.2038C37.8263 31.2029 35.0171 31.2029 32.2084 31.2038C31.8526 31.2038 31.7816 31.2845 31.7816 31.6762C31.7811 36.6687 31.7811 41.6617 31.7816 46.6547C31.7816 47.0649 31.853 47.1389 32.2569 47.1389C36.4893 47.1397 40.7217 47.1393 44.954 47.1393C45.3791 47.1389 45.4446 47.0717 45.4446 46.6411C45.445 43.1195 45.445 39.5979 45.445 36.0763V35.7585H45.0888C43.9597 35.7585 42.8302 35.7585 41.7012 35.7585C41.0551 35.7581 40.8898 35.5941 40.8898 34.954C40.8894 33.7205 40.8894 32.4871 40.8894 31.2194H40.8894Z" fill="white"/>
<path d="M42.0156 34.5008H44.7327C43.915 33.4825 43.034 32.6036 42.0156 31.7812V34.5008Z" fill="white"/>
<path d="M43.3734 43.7699H33.2109V34.5H34.0561V42.9248H43.3734V43.7699Z" fill="#FDBD00"/>
<path d="M38.2794 42.3854L36.3193 40.4038L35.2249 41.9241L34.5391 41.4301L36.2173 39.099L38.0669 40.9688L40.4809 36.3555L41.7261 38.2281L43.0431 38.1738L43.0777 39.0181L41.2858 39.0922L40.5678 38.0123L38.2794 42.3854Z" fill="#FDBD00"/>
</g>
<defs>
<filter id="filter0_d_1762_260122" x="3.31862" y="5.99268" width="36.6345" height="38.6408" filterUnits="userSpaceOnUse" color-interpolation-filters="sRGB">
<feFlood flood-opacity="0" result="BackgroundImageFix"/>
<feColorMatrix in="SourceAlpha" type="matrix" values="0 0 0 0 0 0 0 0 0 0 0 0 0 0 0 0 0 0 127 0" result="hardAlpha"/>
<feOffset dx="-0.833719" dy="0.833719"/>
<feColorMatrix type="matrix" values="0 0 0 0 0.133333 0 0 0 0 0.133333 0 0 0 0 0.133333 0 0 0 1 0"/>
<feBlend mode="normal" in2="BackgroundImageFix" result="effect1_dropShadow_1762_260122"/>
<feBlend mode="normal" in="SourceGraphic" in2="effect1_dropShadow_1762_260122" result="shape"/>
</filter>
<clipPath id="clip0_1762_260122">
<rect width="46.7647" height="48" fill="white"/>
</clipPath>
</defs>
</svg>
