<svg width="61" height="72" viewBox="0 0 61 72" fill="none" xmlns="http://www.w3.org/2000/svg">
  <path d="M13.053 1.25h35.894c.444 0 .803.36.803.803v35.894c0 .444-.36.803-.803.803H13.053a.803.803 0 0 1-.803-.803V2.053c0-.444.36-.803.803-.803Z" stroke="currentColor" stroke-width="2.5" />
  <path d="M31.141 28.258c2.62 0 4.79-.946 6.208-2.687l-2.234-2.065c-1.01 1.183-2.277 1.785-3.78 1.785-2.815 0-4.812-1.978-4.812-4.816s1.997-4.816 4.811-4.816c1.504 0 2.771.602 3.781 1.763l2.234-2.065c-1.418-1.72-3.587-2.666-6.186-2.666-4.683 0-8.163 3.247-8.163 7.784s3.48 7.783 8.141 7.783ZM4.22 52.144c2.4 0 3.565-1.2 3.565-2.604 0-3.084-4.884-2.016-4.884-3.564 0-.528.444-.96 1.596-.96.744 0 1.548.216 2.328.66l.6-1.476c-.78-.492-1.86-.744-2.916-.744-2.388 0-3.54 1.188-3.54 2.616 0 3.12 4.884 2.04 4.884 3.612 0 .516-.468.9-1.62.9-1.008 0-2.064-.36-2.772-.876L.8 51.172c.744.576 2.088.972 3.42.972Zm9.252-6.6-1.824 4.38-1.812-4.38H7.904l2.796 6.504-.024.06c-.252.576-.54.804-1.056.804a1.66 1.66 0 0 1-1.056-.408l-.684 1.332c.42.372 1.14.588 1.8.588 1.164 0 2.052-.468 2.676-2.028l2.916-6.852h-1.8Zm6.488-.096c-.876 0-1.632.3-2.136.852v-.756h-1.788V52h1.872v-3.192c0-1.188.648-1.74 1.548-1.74.828 0 1.308.48 1.308 1.524V52h1.872v-3.696c0-1.968-1.152-2.856-2.676-2.856Zm8.033 4.92c-.204.156-.48.24-.756.24-.504 0-.804-.3-.804-.852v-2.628h1.608v-1.44h-1.608v-1.572H24.56v1.572h-.996v1.44h.996v2.652c0 1.536.888 2.316 2.412 2.316.576 0 1.14-.132 1.524-.408l-.504-1.32Zm5.479-4.92c-.828 0-1.548.264-2.052.768v-3.12h-1.872V52h1.872v-3.192c0-1.188.648-1.74 1.548-1.74.828 0 1.308.48 1.308 1.524V52h1.872v-3.696c0-1.968-1.152-2.856-2.676-2.856Zm10.767 3.348c0-2.076-1.464-3.348-3.36-3.348-1.968 0-3.444 1.392-3.444 3.324 0 1.92 1.452 3.324 3.684 3.324 1.164 0 2.064-.36 2.664-1.044l-.996-1.08c-.444.42-.936.624-1.62.624-.984 0-1.668-.492-1.848-1.296h4.884c.012-.156.036-.36.036-.504Zm-3.348-1.932c.84 0 1.452.528 1.584 1.344h-3.18c.132-.828.744-1.344 1.596-1.344Zm8.254 3.504c-.204.156-.48.24-.756.24-.504 0-.804-.3-.804-.852v-2.628h1.608v-1.44h-1.608v-1.572h-1.872v1.572h-.996v1.44h.996v2.652c0 1.536.888 2.316 2.412 2.316.576 0 1.14-.132 1.524-.408l-.504-1.32Zm2.49-5.724c.697 0 1.165-.456 1.165-1.08 0-.576-.468-1.008-1.164-1.008s-1.164.456-1.164 1.044c0 .588.468 1.044 1.164 1.044ZM50.7 52h1.872v-6.456H50.7V52Zm6.73.096c1.355 0 2.423-.6 2.891-1.632l-1.452-.792c-.348.624-.864.888-1.452.888-.948 0-1.692-.66-1.692-1.788 0-1.128.744-1.788 1.692-1.788.588 0 1.104.276 1.452.888l1.452-.78c-.468-1.056-1.536-1.644-2.892-1.644-2.1 0-3.6 1.38-3.6 3.324s1.5 3.324 3.6 3.324ZM9.907 66.128c-.492.264-.984.36-1.512.36-1.608 0-2.724-1.116-2.724-2.688 0-1.596 1.116-2.688 2.748-2.688.852 0 1.56.3 2.172.948l1.248-1.152c-.816-.948-2.04-1.452-3.516-1.452-2.676 0-4.62 1.812-4.62 4.344s1.944 4.344 4.584 4.344c1.2 0 2.472-.372 3.396-1.068v-3.408H9.908v2.46Zm5.238-3.732v-.852h-1.788V68h1.872v-3.048c0-1.236.684-1.8 1.716-1.8.144 0 .264.012.42.024v-1.728c-.996 0-1.764.324-2.22.948Zm5.902-.948c-1.032 0-2.076.276-2.784.78l.672 1.308c.468-.372 1.176-.6 1.86-.6 1.008 0 1.488.468 1.488 1.272h-1.488c-1.968 0-2.772.792-2.772 1.932 0 1.116.9 1.956 2.412 1.956.948 0 1.62-.312 1.968-.9V68h1.752v-3.684c0-1.956-1.14-2.868-3.108-2.868Zm-.144 5.388c-.66 0-1.056-.312-1.056-.78 0-.432.276-.756 1.152-.756h1.284v.66c-.216.588-.756.876-1.38.876Zm8.762-5.388c-.864 0-1.56.276-2.028.84v-.744H25.85v8.784h1.872v-3.012c.48.528 1.14.78 1.944.78 1.812 0 3.216-1.296 3.216-3.324 0-2.028-1.404-3.324-3.216-3.324Zm-.324 5.112c-.936 0-1.644-.672-1.644-1.788s.708-1.788 1.644-1.788c.936 0 1.644.672 1.644 1.788s-.708 1.788-1.644 1.788Zm8.718-5.112c-.829 0-1.549.264-2.053.768v-3.12h-1.871V68h1.871v-3.192c0-1.188.649-1.74 1.549-1.74.828 0 1.308.48 1.308 1.524V68h1.872v-3.696c0-1.968-1.152-2.856-2.676-2.856Zm5.308-.804c.696 0 1.164-.456 1.164-1.08 0-.576-.468-1.008-1.164-1.008s-1.164.456-1.164 1.044c0 .588.468 1.044 1.164 1.044ZM42.432 68h1.872v-6.456h-1.872V68Zm7.27-1.632c-.204.156-.48.24-.756.24-.504 0-.804-.3-.804-.852v-2.628h1.608v-1.44h-1.608v-1.572H46.27v1.572h-.996v1.44h.996v2.652c0 1.536.888 2.316 2.412 2.316.576 0 1.14-.132 1.524-.408l-.504-1.32Zm7.68-1.572c0-2.076-1.465-3.348-3.36-3.348-1.969 0-3.445 1.392-3.445 3.324 0 1.92 1.452 3.324 3.684 3.324 1.164 0 2.064-.36 2.664-1.044l-.996-1.08c-.444.42-.936.624-1.62.624-.984 0-1.668-.492-1.848-1.296h4.884c.012-.156.036-.36.036-.504Zm-3.349-1.932c.84 0 1.452.528 1.584 1.344h-3.18c.132-.828.744-1.344 1.596-1.344Z" fill="currentColor" />
</svg>
