<svg width="170" height="158" viewBox="0 0 170 158" fill="none" xmlns="http://www.w3.org/2000/svg">
  <g clip-path="url(#a)">
    <g clip-path="url(#b)">
      <g clip-path="url(#c)" fill="#FAB906" opacity=".4">
        <g clip-path="url(#d)">
          <circle cx="11.465" cy="105.851" r="3.097" />
          <circle cx="28.736" cy="105.851" r="3.097" />
          <circle cx="46.007" cy="105.851" r="3.097" />
          <circle cx="63.278" cy="105.851" r="3.097" />
          <circle cx="80.549" cy="105.851" r="3.097" />
          <circle cx="97.82" cy="105.851" r="3.097" />
          <circle cx="115.091" cy="105.851" r="3.097" />
          <circle cx="132.361" cy="105.851" r="3.097" />
          <circle cx="149.632" cy="105.851" r="3.097" />
          <circle cx="166.903" cy="105.851" r="3.097" />
        </g>
        <g clip-path="url(#e)">
          <circle cx="11.465" cy="85.3" r="3.097" />
          <circle cx="28.736" cy="85.3" r="3.097" />
          <circle cx="46.007" cy="85.3" r="3.097" />
          <circle cx="63.278" cy="85.3" r="3.097" />
          <circle cx="80.549" cy="85.3" r="3.097" />
          <circle cx="97.82" cy="85.3" r="3.097" />
          <circle cx="115.091" cy="85.3" r="3.097" />
          <circle cx="132.361" cy="85.3" r="3.097" />
          <circle cx="149.632" cy="85.3" r="3.097" />
          <circle cx="166.903" cy="85.3" r="3.097" />
        </g>
        <g clip-path="url(#f)">
          <circle cx="11.465" cy="64.749" r="3.097" />
          <circle cx="28.736" cy="64.749" r="3.097" />
          <circle cx="46.007" cy="64.749" r="3.097" />
          <circle cx="63.278" cy="64.749" r="3.097" />
          <circle cx="80.549" cy="64.749" r="3.097" />
          <circle cx="97.82" cy="64.749" r="3.097" />
          <circle cx="115.091" cy="64.749" r="3.097" />
          <circle cx="132.361" cy="64.749" r="3.097" />
          <circle cx="149.632" cy="64.749" r="3.097" />
          <circle cx="166.903" cy="64.749" r="3.097" />
        </g>
        <g clip-path="url(#g)">
          <circle cx="11.465" cy="44.199" r="3.097" />
          <circle cx="28.736" cy="44.199" r="3.097" />
          <circle cx="46.007" cy="44.199" r="3.097" />
          <circle cx="63.278" cy="44.199" r="3.097" />
          <circle cx="80.549" cy="44.199" r="3.097" />
          <circle cx="97.82" cy="44.199" r="3.097" />
          <circle cx="115.091" cy="44.199" r="3.097" />
          <circle cx="132.361" cy="44.199" r="3.097" />
          <circle cx="149.632" cy="44.199" r="3.097" />
          <circle cx="166.903" cy="44.199" r="3.097" />
        </g>
        <g clip-path="url(#h)">
          <circle cx="11.465" cy="23.648" r="3.097" />
          <circle cx="28.736" cy="23.648" r="3.097" />
          <circle cx="46.007" cy="23.648" r="3.097" />
          <circle cx="63.278" cy="23.648" r="3.097" />
          <circle cx="80.549" cy="23.648" r="3.097" />
          <circle cx="97.82" cy="23.648" r="3.097" />
          <circle cx="115.091" cy="23.648" r="3.097" />
          <circle cx="132.361" cy="23.648" r="3.097" />
          <circle cx="149.632" cy="23.648" r="3.097" />
          <circle cx="166.903" cy="23.648" r="3.097" />
        </g>
        <g clip-path="url(#i)">
          <circle cx="11.465" cy="3.097" r="3.097" />
          <circle cx="28.736" cy="3.097" r="3.097" />
          <circle cx="46.007" cy="3.097" r="3.097" />
          <circle cx="63.278" cy="3.097" r="3.097" />
          <circle cx="80.549" cy="3.097" r="3.097" />
          <circle cx="97.82" cy="3.097" r="3.097" />
          <circle cx="115.091" cy="3.097" r="3.097" />
          <circle cx="132.361" cy="3.097" r="3.097" />
          <circle cx="149.632" cy="3.097" r="3.097" />
          <circle cx="166.903" cy="3.097" r="3.097" />
        </g>
      </g>
    </g>
    <path fill="#FAB906" d="M0 39.505h117.603v117.603H0z" />
    <g filter="url(#j)">
      <path fill="#fff" d="M13.862 26.138h117.603v117.603H13.862z" />
      <path stroke="#D3D3D3" stroke-width=".5" d="M13.862 26.138h117.603v117.603H13.862z" />
    </g>
    <path
      d="M99.782 36.751c0 8.252-.002 16.504 0 24.756.001 3.3 1.908 5.208 5.224 5.21 13.948.002 27.895.002 41.843 0 3.364 0 5.248-1.901 5.248-5.282.001-11.397-.047-22.795.04-34.192.018-2.315-.629-4.262-1.913-6.095a47.448 47.448 0 0 0-7.667-8.521c-1.891-1.654-3.937-3.138-5.979-4.606-1.156-.83-2.517-1.107-3.977-1.101-9.183.033-18.367.015-27.552.017-3.4.001-5.266 1.859-5.267 5.244-.002 8.19 0 16.379 0 24.57h0Z"
      stroke="#000" stroke-width=".5" stroke-linecap="round" stroke-linejoin="round" />
    <path
      d="M99.782 36.751c0-8.191-.002-16.38 0-24.57.001-3.385 1.867-5.243 5.267-5.244 9.185-.002 18.369.016 27.552-.017 1.46-.006 2.821.27 3.977 1.1 2.042 1.469 4.088 2.953 5.979 4.607a47.445 47.445 0 0 1 7.667 8.52c1.284 1.834 1.931 3.781 1.913 6.096-.087 11.397-.039 22.795-.04 34.192 0 3.381-1.884 5.281-5.248 5.281-13.948.003-27.895.003-41.843 0-3.316 0-5.223-1.908-5.224-5.209-.002-8.252 0-16.504 0-24.756Z"
      fill="#222" />
    <path
      d="M133.497 11.07c-.353-.023-.594-.052-.835-.052-9.215-.001-18.429-.003-27.645 0-1.166.002-1.4.266-1.4 1.55v49.137c0 1.347.236 1.59 1.561 1.59h41.652c1.393 0 1.61-.222 1.61-1.635V25.96h-12.282c-2.118 0-2.661-.538-2.661-2.64V11.07Z"
      fill="#fff" />
    <path d="M137.183 21.836h8.913a57.577 57.577 0 0 0-8.913-8.922v8.922Z" fill="#FCFCFC" />
    <path fill-rule="evenodd" clip-rule="evenodd"
      d="M142.241 39.782c-2.654-.544-5.311-.223-7.968.014-.408.038-.897-.055-1.248-.262-3.331-1.963-5.259-5.045-6.665-8.522-.095-.236-.05-.546-.012-.814.331-2.36 1.112-2.986 1.254-5.766.139-1.051-.479-3.525-.899-4.493-.508-1.167-1.671-1.069-2.721-.92-.967.138-1.57.708-1.671 1.73-.116 1.165-.234 2.369-.069 3.515.317 2.218.855 4.402 1.252 6.61.083.464.092 1.035-.104 1.44-1.777 3.66-3.623 7.284-5.409 10.938-.48.98-1.167 1.632-2.152 2.11-2.08 1.009-4.043 2.238-5.572 4.002-.625.72-1.102 1.616-1.445 2.51-.144.376.084 1.113.4 1.406 1.124 1.035 2.603 1.154 3.892.288.872-.588 1.733-1.29 2.365-2.12 1.342-1.76 2.564-3.613 3.761-5.476.377-.59.783-.97 1.457-1.127 3.767-.876 7.528-1.78 11.3-2.637.342-.077.769.04 1.113.18 1.508.603 2.975 1.32 4.505 1.858 1.616.568 3.295.95 5.038.773 1.038-.105 1.628-.634 1.889-1.637.523-2.012-.194-3.17-2.291-3.6ZM111.137 52.33c.123-1.185 2.318-3.787 4.48-5.295-1.224 1.953-2.488 3.879-4.48 5.295Zm13.678-32.415c1.842 1.857 1.44 4.892.44 7.13-1.172-2.217-1.501-4.926-.44-7.13Zm-3.842 22.988 3.975-8.1 4.786 5.69c-2.794.77-5.764 1.586-8.761 2.41Zm21.76.187c-.777-.024-1.574-.04-2.319-.233-1.018-.26-1.997-.68-2.992-1.031l.028-.24c1.698-.154 3.39-.207 5.057.303.133.04.264.114.381.165.315.138.541.452.541.682-.066.226-.468.36-.696.354Z"
      fill="#FAB906" />
    <path
      d="M101.077 125.105c0 8.252-.002 16.504 0 24.757.001 3.301 1.908 5.208 5.224 5.208 13.948.004 27.895.003 41.843.001 3.362-.001 5.246-1.9 5.248-5.281.001-11.397-.047-22.795.04-34.192.017-2.316-.629-4.263-1.913-6.097a47.487 47.487 0 0 0-7.667-8.52c-1.891-1.654-3.937-3.139-5.979-4.605-1.157-.832-2.517-1.108-3.977-1.103-9.183.035-18.368.017-27.552.019-3.4 0-5.267 1.857-5.267 5.242-.002 8.191 0 16.381 0 24.571v0Z"
      stroke="#000" stroke-width=".5" stroke-linecap="round" stroke-linejoin="round" />
    <path
      d="M101.077 125.105c0-8.19-.002-16.38 0-24.571 0-3.385 1.867-5.243 5.267-5.243 9.184 0 18.369.017 27.552-.017 1.46-.006 2.82.27 3.977 1.102 2.042 1.466 4.088 2.95 5.979 4.605a47.487 47.487 0 0 1 7.667 8.52c1.284 1.834 1.93 3.781 1.913 6.097-.087 11.397-.039 22.795-.04 34.192-.002 3.381-1.886 5.28-5.248 5.281-13.948.002-27.895.003-41.843-.001-3.316 0-5.223-1.907-5.224-5.208-.002-8.253 0-16.505 0-24.757Z"
      fill="#222" />
    <path
      d="M134.791 99.424c-.352-.022-.593-.05-.835-.05-9.215-.004-18.43-.004-27.644 0-1.166 0-1.4.264-1.4 1.549v49.137c0 1.346.236 1.588 1.559 1.588 13.885.003 27.769.001 41.654.001 1.393-.001 1.61-.221 1.61-1.634v-35.7h-12.282c-2.118-.001-2.662-.539-2.662-2.639V99.424Z"
      fill="#fff" />
    <path d="M138.478 110.189h8.913a57.705 57.705 0 0 0-8.913-8.921v8.921Z" fill="#FCFCFC" />
    <path d="M142.934 140.598h-33.338v-30.41h2.772v27.638h30.566v2.772Z" fill="#FAB906" />
    <path
      d="m126.224 136.062-6.43-6.5-3.59 4.987-2.25-1.621 5.506-7.647 6.067 6.134 7.919-15.134 4.085 6.143 4.32-.178.114 2.77-5.878.243-2.356-3.543-7.507 14.346Z"
      fill="#FAB906" />
    <path
      d="M76.006 112.724c-4.78 0-9.112-1.027-12.998-3.082-3.841-2.099-6.879-4.98-9.112-8.643-2.189-3.707-3.283-7.884-3.283-12.53 0-4.644 1.094-8.798 3.283-12.461 2.233-3.707 5.27-6.588 9.112-8.643 3.886-2.1 8.241-3.15 13.065-3.15 4.065 0 7.727.716 10.988 2.145 3.305 1.43 6.075 3.484 8.308 6.164l-6.968 6.432c-3.171-3.663-7.102-5.494-11.792-5.494-2.903 0-5.494.648-7.772 1.943-2.278 1.25-4.065 3.015-5.36 5.293-1.25 2.278-1.876 4.869-1.876 7.772 0 2.903.625 5.494 1.876 7.772a14.04 14.04 0 0 0 5.36 5.36c2.278 1.251 4.869 1.876 7.772 1.876 4.69 0 8.62-1.854 11.792-5.561l6.968 6.432c-2.233 2.725-5.003 4.802-8.308 6.231-3.305 1.429-6.99 2.144-11.055 2.144Z"
      fill="#222" />
    <path
      d="M24.003 127.82v9.1h-.663v-8.502h-2.223v-.598h2.886Zm8.366 8.502v.598h-6.253v-.468l3.848-3.822c.503-.503.84-.932 1.014-1.287.182-.364.273-.737.273-1.118 0-.581-.2-1.036-.598-1.365-.39-.329-.958-.494-1.703-.494-.572 0-1.075.087-1.508.26a2.927 2.927 0 0 0-1.105.793l-.468-.416a3.432 3.432 0 0 1 1.313-.923c.537-.217 1.144-.325 1.82-.325.893 0 1.603.217 2.132.65.529.433.793 1.018.793 1.755 0 .468-.104.914-.312 1.339-.208.425-.598.919-1.17 1.482l-3.354 3.341h5.278Zm1.966.65a.558.558 0 0 1-.39-.156.574.574 0 0 1-.156-.403.53.53 0 0 1 .156-.39.558.558 0 0 1 .39-.156c.148 0 .273.052.377.156a.509.509 0 0 1 .17.39c0 .156-.057.29-.17.403a.514.514 0 0 1-.377.156Zm5.44.013a3.218 3.218 0 0 1-1.859-.559c-.537-.381-.958-.919-1.261-1.612-.295-.693-.442-1.508-.442-2.444 0-.936.147-1.751.442-2.444.303-.693.724-1.226 1.261-1.599a3.17 3.17 0 0 1 1.859-.572c.693 0 1.309.191 1.846.572.546.373.966.906 1.261 1.599.303.693.455 1.508.455 2.444 0 .936-.152 1.751-.455 2.444-.295.693-.715 1.231-1.261 1.612-.537.373-1.153.559-1.846.559Zm0-.611c.572 0 1.075-.156 1.508-.468.442-.321.784-.78 1.027-1.378.243-.607.364-1.326.364-2.158 0-.832-.121-1.547-.364-2.145-.243-.607-.585-1.066-1.027-1.378a2.465 2.465 0 0 0-1.508-.481c-.572 0-1.079.16-1.521.481-.433.312-.771.771-1.014 1.378-.243.598-.364 1.313-.364 2.145 0 .832.121 1.551.364 2.158.243.598.58 1.057 1.014 1.378.442.312.949.468 1.521.468Zm7.27-8.554v9.1h-.663v-8.502h-2.223v-.598h2.886Zm4.583 0v9.1h-.663v-8.502h-2.223v-.598h2.886ZM26.355 40.538c.598 0 1.127.113 1.586.338.468.217.828.533 1.079.949.251.407.377.88.377 1.417 0 .546-.13 1.027-.39 1.443-.26.416-.62.737-1.079.962-.46.225-.98.338-1.56.338-1.179 0-2.084-.399-2.717-1.196-.624-.806-.936-1.928-.936-3.367 0-1.005.165-1.855.494-2.548.338-.702.81-1.23 1.417-1.586.607-.355 1.317-.533 2.132-.533.858 0 1.547.156 2.067.468l-.273.533c-.433-.277-1.031-.416-1.794-.416-1.049 0-1.876.342-2.483 1.027-.598.676-.897 1.66-.897 2.95 0 .4.026.764.078 1.093a2.431 2.431 0 0 1 1.053-1.378c.529-.33 1.144-.494 1.846-.494Zm-.013 4.875c.71 0 1.287-.195 1.729-.585.442-.399.663-.923.663-1.573 0-.65-.221-1.17-.663-1.56-.442-.39-1.044-.585-1.807-.585a2.95 2.95 0 0 0-1.313.286c-.381.19-.68.45-.897.78-.208.33-.312.698-.312 1.105 0 .364.1.71.299 1.04.208.33.507.594.897.793.39.2.858.299 1.404.299Z"
      fill="#000" />
  </g>
  <defs>
    <clipPath id="a">
      <path fill="#fff" d="M0 0h170.001v158H0z" />
    </clipPath>
    <clipPath id="b">
      <path fill="#fff" transform="translate(8.368)" d="M0 0h161.633v108.948H0z" />
    </clipPath>
    <clipPath id="c">
      <path fill="#fff" transform="translate(8.368)" d="M0 0h161.633v108.948H0z" />
    </clipPath>
    <clipPath id="d">
      <path fill="#fff" transform="translate(8.368 102.754)" d="M0 0h161.633v6.194H0z" />
    </clipPath>
    <clipPath id="e">
      <path fill="#fff" transform="translate(8.368 82.203)" d="M0 0h161.633v6.194H0z" />
    </clipPath>
    <clipPath id="f">
      <path fill="#fff" transform="translate(8.368 61.652)" d="M0 0h161.633v6.194H0z" />
    </clipPath>
    <clipPath id="g">
      <path fill="#fff" transform="translate(8.368 41.102)" d="M0 0h161.633v6.194H0z" />
    </clipPath>
    <clipPath id="h">
      <path fill="#fff" transform="translate(8.368 20.55)" d="M0 0h161.633v6.194H0z" />
    </clipPath>
    <clipPath id="i">
      <path fill="#fff" transform="translate(8.368)" d="M0 0h161.633v6.194H0z" />
    </clipPath>
    <filter id="j" x="10.777" y="25.888" width="120.938" height="120.938" filterUnits="userSpaceOnUse"
      color-interpolation-filters="sRGB">
      <feFlood flood-opacity="0" result="BackgroundImageFix" />
      <feColorMatrix in="SourceAlpha" values="0 0 0 0 0 0 0 0 0 0 0 0 0 0 0 0 0 0 127 0" result="hardAlpha" />
      <feOffset dx="-2.835" dy="2.835" />
      <feColorMatrix values="0 0 0 0 0.133333 0 0 0 0 0.133333 0 0 0 0 0.133333 0 0 0 1 0" />
      <feBlend in2="BackgroundImageFix" result="effect1_dropShadow" />
      <feBlend in="SourceGraphic" in2="effect1_dropShadow" result="shape" />
    </filter>
  </defs>
</svg>