<svg width="28" height="45" viewBox="0 0 28 45" fill="none" xmlns="http://www.w3.org/2000/svg">
<g clip-path="url(#clip0_172_2802)">
<path d="M17.7333 33.7502H10.2666C6.77596 33.7502 5.67463 27.7877 5.20797 25.2377C5.17063 25.0502 5.05863 24.8627 4.89063 24.7127C1.9413 22.1814 0.149298 18.4877 -3.48613e-05 14.6064C-0.149368 10.9127 1.2693 7.20019 3.88263 4.44394C6.49597 1.66894 10.0986 0.0564375 13.776 0.000187539C17.528 -0.0185625 21.1306 1.36894 23.8186 4.03144C26.5066 6.69394 28 10.2564 28 14.0627C28 18.1502 26.2266 22.0502 23.1093 24.7314C22.9413 24.8814 22.8293 25.0502 22.792 25.2377C22.3626 27.5627 21.224 33.7502 17.7333 33.7502ZM14 1.87519C14 1.87519 13.8693 1.87519 13.7946 1.87519C10.6213 1.93144 7.50397 3.31894 5.2453 5.71894C2.98663 8.11894 1.75463 11.3252 1.86663 14.5314C1.9973 17.9064 3.52797 21.0939 6.10397 23.3064C6.60797 23.7377 6.9253 24.2814 7.0373 24.9002C8.1573 30.9752 9.53863 31.8752 10.2666 31.8752H17.7333C18.4613 31.8752 19.8426 30.9752 20.9626 24.9002C21.0746 24.2814 21.392 23.7377 21.896 23.3064C24.584 20.9814 26.1333 17.6252 26.1333 14.0627C26.1333 10.7627 24.8453 7.68769 22.512 5.38144C20.216 3.11269 17.2106 1.87519 14 1.87519Z" fill="black"/>
<path d="M17.7333 37.5H10.2667C9.74401 37.5 9.33334 37.0875 9.33334 36.5625C9.33334 36.0375 9.74401 35.625 10.2667 35.625H17.7333C18.256 35.625 18.6667 36.0375 18.6667 36.5625C18.6667 37.0875 18.256 37.5 17.7333 37.5Z" fill="black"/>
<path d="M17.7333 41.25H10.2667C9.74401 41.25 9.33334 40.8375 9.33334 40.3125C9.33334 39.7875 9.74401 39.375 10.2667 39.375H17.7333C18.256 39.375 18.6667 39.7875 18.6667 40.3125C18.6667 40.8375 18.256 41.25 17.7333 41.25Z" fill="black"/>
<path d="M15.8667 45H12.1333C11.6107 45 11.2 44.5875 11.2 44.0625C11.2 43.5375 11.6107 43.125 12.1333 43.125H15.8667C16.3893 43.125 16.8 43.5375 16.8 44.0625C16.8 44.5875 16.3893 45 15.8667 45Z" fill="black"/>
</g>
<defs>
<clipPath id="clip0_172_2802">
<rect width="28" height="45" fill="white"/>
</clipPath>
</defs>
</svg>
    