<svg width="24" height="24" viewBox="0 0 24 24" fill="none" xmlns="http://www.w3.org/2000/svg">
<g clip-path="url(#clip0_6201_67630)">
<path d="M11.9999 13.2C13.9881 13.2 15.5999 11.5882 15.5999 9.6C15.5999 7.61178 13.9881 6 11.9999 6C10.0117 6 8.3999 7.61178 8.3999 9.6C8.3999 11.5882 10.0117 13.2 11.9999 13.2Z" fill="#FDAF00"/>
<path d="M12 0C9.62663 0 7.30655 0.703788 5.33316 2.02236C3.35977 3.34094 1.8217 5.21509 0.913451 7.4078C0.00519941 9.60051 -0.232441 12.0133 0.230582 14.3411C0.693605 16.6689 1.83649 18.8071 3.51472 20.4853C5.19295 22.1635 7.33115 23.3064 9.65892 23.7694C11.9867 24.2324 14.3995 23.9948 16.5922 23.0866C18.7849 22.1783 20.6591 20.6402 21.9776 18.6668C23.2962 16.6935 24 14.3734 24 12C24 10.4241 23.6896 8.86371 23.0866 7.4078C22.4835 5.95189 21.5996 4.62902 20.4853 3.51472C19.371 2.40042 18.0481 1.5165 16.5922 0.913446C15.1363 0.310389 13.5759 0 12 0V0ZM19.2 18.36C18.96 16.152 15.84 14.4 12 14.4C8.16001 14.4 5.04001 16.152 4.80001 18.36C3.578 16.9744 2.78178 15.2656 2.50688 13.4386C2.23197 11.6117 2.49007 9.74427 3.2502 8.06039C4.01033 6.37652 5.2402 4.94774 6.79223 3.94552C8.34426 2.94329 10.1525 2.4102 12 2.4102C13.8475 2.4102 15.6558 2.94329 17.2078 3.94552C18.7598 4.94774 19.9897 6.37652 20.7498 8.06039C21.5099 9.74427 21.768 11.6117 21.4931 13.4386C21.2182 15.2656 20.422 16.9744 19.2 18.36V18.36Z" fill="#FDAF00"/>
</g>
<defs>
<clipPath id="clip0_6201_67630">
<rect width="24" height="24" fill="white"/>
</clipPath>
</defs>
</svg>
