<svg width="84" height="68" viewBox="0 0 84 68" fill="none" xmlns="http://www.w3.org/2000/svg">
<path d="M62 66H82V58C82 51.3726 76.6274 46 70 46C66.1776 46 62.7726 47.7872 60.575 50.5716M62 66H22M62 66V58C62 55.375 61.4943 52.8682 60.575 50.5716M22 66H2V58C2 51.3726 7.37258 46 14 46C17.8224 46 21.2274 47.7872 23.425 50.5716M22 66V58C22 55.375 22.5057 52.8682 23.425 50.5716M23.425 50.5716C26.374 43.2041 33.5793 38 42 38C50.4207 38 57.626 43.2041 60.575 50.5716M54 14C54 20.6274 48.6274 26 42 26C35.3726 26 30 20.6274 30 14C30 7.37258 35.3726 2 42 2C48.6274 2 54 7.37258 54 14ZM78 26C78 30.4183 74.4183 34 70 34C65.5817 34 62 30.4183 62 26C62 21.5817 65.5817 18 70 18C74.4183 18 78 21.5817 78 26ZM22 26C22 30.4183 18.4183 34 14 34C9.58172 34 6 30.4183 6 26C6 21.5817 9.58172 18 14 18C18.4183 18 22 21.5817 22 26Z" stroke="#FDBD00" stroke-width="4" stroke-linecap="round" stroke-linejoin="round"/>
</svg>
