<svg width="80" height="80" viewBox="0 0 80 80" fill="none" xmlns="http://www.w3.org/2000/svg">
<path d="M12.4841 63.215C20.6107 58.6216 29.9992 56 40 56C50.0008 56 59.3894 58.6216 67.5159 63.215M52 32C52 38.6274 46.6274 44 40 44C33.3726 44 28 38.6274 28 32C28 25.3726 33.3726 20 40 20C46.6274 20 52 25.3726 52 32ZM76 40C76 59.8823 59.8823 76 40 76C20.1177 76 4 59.8823 4 40C4 20.1177 20.1177 4 40 4C59.8823 4 76 20.1177 76 40Z" stroke="#FDBD00" stroke-width="8" stroke-linecap="round" stroke-linejoin="round"/>
</svg>
