<svg width="46" height="44" viewBox="0 0 46 44" fill="none" xmlns="http://www.w3.org/2000/svg">
    <g clip-path="url(#clip0_481_13241)">
    <path d="M37.5674 35.646C36.8036 35.646 36.0745 35.9575 35.5363 36.5094C34.9981 37.0613 34.6943 37.8135 34.6943 38.5924C34.6943 39.3757 34.9981 40.1234 35.5363 40.6753C36.0745 41.2272 36.8079 41.5388 37.5674 41.5388C38.3269 41.5388 39.0604 41.2272 39.5986 40.6753C40.1367 40.1234 40.4405 39.3713 40.4405 38.5924C40.4405 37.8135 40.1367 37.0613 39.5986 36.5094C39.0604 35.9575 38.3269 35.646 37.5674 35.646ZM37.5674 39.9721C37.2116 39.9721 36.8687 39.8252 36.617 39.5671C36.3652 39.309 36.222 38.9573 36.222 38.5924C36.222 38.2274 36.3652 37.8758 36.617 37.6177C36.8687 37.3595 37.2116 37.2127 37.5674 37.2127C37.9233 37.2127 38.2662 37.3595 38.5179 37.6177C38.7696 37.8758 38.9128 38.2274 38.9128 38.5924C38.9128 38.9573 38.7696 39.309 38.5179 39.5671C38.2662 39.8252 37.9233 39.9721 37.5674 39.9721Z" fill="black"/>
    <path d="M6.22808 35.646C5.46424 35.646 4.73511 35.9575 4.19695 36.5094C3.65878 37.0613 3.35498 37.8135 3.35498 38.5924C3.35498 39.3757 3.65878 40.1234 4.19695 40.6753C4.73511 41.2272 5.46858 41.5388 6.22808 41.5388C6.98759 41.5388 7.72105 41.2272 8.25922 40.6753C8.79738 40.1234 9.10118 39.3713 9.10118 38.5924C9.10118 37.8135 8.79738 37.0613 8.25922 36.5094C7.72105 35.9575 6.98759 35.646 6.22808 35.646ZM6.22808 39.9721C5.8722 39.9721 5.52934 39.8252 5.27761 39.5671C5.02589 39.309 4.88267 38.9573 4.88267 38.5924C4.88267 38.2274 5.02589 37.8758 5.27761 37.6177C5.52934 37.3595 5.8722 37.2127 6.22808 37.2127C6.58396 37.2127 6.92683 37.3595 7.17855 37.6177C7.43027 37.8758 7.57349 38.2274 7.57349 38.5924C7.57349 38.9573 7.43027 39.309 7.17855 39.5671C6.92683 39.8252 6.58396 39.9721 6.22808 39.9721Z" fill="black"/>
    <path d="M0.251722 30.9371C0.0911407 31.084 0 31.2932 0 31.5157L0 35.3611C0 36.0377 0.125861 36.7053 0.368903 37.3328L0.963487 38.855C1.04161 40.4661 1.81413 41.9571 3.07274 42.9229C4.33135 43.8888 5.94584 44.227 7.47354 43.8442C9.00123 43.4615 10.2815 42.4022 10.9673 40.9513L32.8193 40.9513C33.3965 42.1752 34.4034 43.1321 35.6403 43.6262C36.8773 44.1202 38.2487 44.1202 39.4813 43.6262C40.7182 43.1321 41.7251 42.1752 42.3023 40.9513H42.9273C43.0792 40.9513 43.2267 40.9068 43.3526 40.8177C45.0061 39.6917 45.9957 37.7912 45.9957 35.7573V34.8493C45.9957 34.7781 45.9957 34.7024 45.9913 34.6312C45.9436 33.3138 45.4792 32.0498 44.672 31.0261V31.0172C44.4029 30.679 44.0991 30.3719 43.7692 30.1048L43.2875 29.7087C42.2329 28.8453 40.9265 28.3779 39.5811 28.3735L32.5112 28.3735L28.3795 24.1364C27.5896 23.3219 26.5176 22.8679 25.3979 22.8724H23.4058L21.0101 20.4156H22.9935C23.3016 20.4156 23.5837 20.2242 23.7009 19.9304C23.8181 19.6367 23.753 19.2984 23.536 19.0714L21.4615 16.944C21.5439 16.9306 21.6307 16.9173 21.7132 16.8995C24.4908 16.3164 26.7867 14.3225 27.8066 11.6076C28.8265 8.89705 28.4316 5.83495 26.752 3.49386C25.081 1.14387 22.3555 -0.164649 19.5258 0.0178311C16.6961 0.200311 14.1528 1.84263 12.7727 4.38401C11.3926 6.92538 11.3709 10.0097 12.712 12.5689C14.053 15.1325 16.5702 16.8149 19.3999 17.0419L21.1533 18.84H19.1699C18.8618 18.84 18.5797 19.0314 18.4625 19.3251C18.3453 19.6189 18.4104 19.9571 18.6274 20.1841L21.2488 22.8724L10.5333 22.8724C9.48297 22.8724 8.47174 23.2729 7.69488 23.9984L0.251722 30.9371ZM23.0977 8.51874V10.9755C23.0977 11.3005 22.6767 11.6654 22.0691 11.6654H17.9981C17.3905 11.6654 16.9695 11.3049 16.9695 10.9755V8.51874H23.102H23.0977ZM20.7974 15.453C20.2896 15.5108 19.7732 15.5108 19.2654 15.453V13.2365H20.7974V15.453ZM26.8344 8.51874C26.8344 9.95633 26.3961 11.3539 25.5888 12.5289C24.7816 13.7039 23.6445 14.594 22.3295 15.0836V13.2232C23.6185 13.1075 24.6297 12.1416 24.6297 10.9755V7.73096C24.6297 7.29479 24.2868 6.94318 23.8615 6.94318H23.0933V4.58429C23.0933 4.14812 22.7504 3.79651 22.3251 3.79651C21.8998 3.79651 21.5569 4.14812 21.5569 4.58429V6.94318L18.4885 6.94318V4.58429C18.4885 4.14812 18.1457 3.79651 17.7204 3.79651C17.295 3.79651 16.9522 4.14812 16.9522 4.58429V6.94318H16.184C15.98 6.94318 15.7847 7.02774 15.6415 7.17462C15.4983 7.32149 15.4158 7.52178 15.4158 7.73096V10.9755C15.4158 12.1416 16.427 13.1075 17.716 13.2232V15.0836C16.1449 14.505 14.8342 13.3522 14.04 11.8523C13.2414 10.348 13.0114 8.5944 13.3933 6.92983C13.7753 5.2608 14.7388 3.79651 16.1059 2.81289C17.473 1.82928 19.1439 1.39311 20.8018 1.58894C22.4597 1.78477 23.9917 2.59926 25.1027 3.87662C26.2138 5.15398 26.8257 6.80521 26.8257 8.51874H26.8344ZM15.3333 37.5687V29.9446H29.1346L29.1346 39.3802L16.5095 39.3802L15.3333 37.5687ZM10.2859 28.3735C10.1557 28.3735 10.0428 28.2934 9.99076 28.1732C9.94301 28.053 9.96905 27.9106 10.0602 27.8171L13.3499 24.4435H16.0972V28.3735L10.2815 28.3735H10.2859ZM25.4065 24.4435C26.1183 24.4435 26.804 24.7328 27.3031 25.2491L30.3498 28.3735H17.6336V24.4435H25.4022H25.4065ZM43.6998 32.3035C44.0166 32.7797 44.2423 33.3138 44.3638 33.8746H43.409L42.6408 32.3035H43.6998ZM37.5673 42.4245C36.5778 42.4245 35.6273 42.0194 34.9242 41.2984C34.2255 40.5819 33.8306 39.6071 33.8262 38.5879C33.8262 37.5732 34.2212 36.5984 34.9199 35.8774C35.6186 35.1564 36.5735 34.7558 37.563 34.7558C38.5525 34.7558 39.503 35.1609 40.2061 35.8774C40.9091 36.594 41.2997 37.5732 41.2997 38.5879C41.2997 39.6027 40.9048 40.5774 40.2061 41.2984C39.5073 42.0194 38.5525 42.42 37.563 42.42L37.5673 42.4245ZM37.5673 33.1847C36.0353 33.1847 34.577 33.8657 33.5788 35.054C32.5763 36.2424 32.1293 37.818 32.3549 39.3757H30.671L30.671 29.9401L39.5941 29.9401C40.4795 29.9401 41.3431 30.2161 42.0723 30.7279H41.4039C41.1392 30.7279 40.8918 30.8703 40.7529 31.1018C40.614 31.3332 40.601 31.6225 40.7182 31.8673L42.2502 35.014C42.3804 35.281 42.6452 35.4502 42.9359 35.4502H44.468V35.7617C44.468 37.1414 43.8517 38.4455 42.7927 39.3C42.9924 37.7556 42.5367 36.1979 41.5341 35.0273C40.5316 33.8568 39.0863 33.1847 37.5673 33.1892V33.1847ZM11.4447 39.3757C11.4837 39.1131 11.5011 38.8505 11.5011 38.5879C11.5011 35.6059 9.04463 33.0824 6.13247 33.0824C4.17077 33.0824 2.4608 34.2485 1.58411 35.9664C1.54939 35.7662 1.53637 35.5614 1.53637 35.3567L1.53637 31.8584L8.73215 25.1511C9.22691 24.6927 9.86923 24.4346 10.5376 24.4346L11.1843 24.4346L8.97519 26.7C8.62798 27.0561 8.43268 27.5367 8.43268 28.0441C8.43268 28.5515 8.62798 29.0322 8.97519 29.3883C9.32239 29.7443 9.79111 29.9446 10.2859 29.9446L13.8013 29.9446V37.8046C13.8013 37.9604 13.8447 38.1117 13.9315 38.2408L14.6693 39.3757H11.4447ZM3.58921 41.2984C2.89046 40.5819 2.49552 39.6071 2.49118 38.5879C2.49118 36.4204 4.12303 34.6579 6.13247 34.6579C8.1419 34.6579 9.96471 36.456 9.96471 38.5879C9.96471 39.6027 9.56977 40.5774 8.86669 41.2984C8.16794 42.015 7.21747 42.42 6.22361 42.4245C5.23408 42.4245 4.28361 42.0194 3.58053 41.2984H3.58921Z" fill="black"/>
    <path d="M27.5981 37.8045H19.9336V36.2334H27.5981V37.8045Z" fill="black"/>
    <path d="M18.4017 37.8045H16.8696V36.2334H18.4017V37.8045Z" fill="black"/>
    <path d="M27.5982 33.0867H24.5298V31.5156H27.5982V33.0867Z" fill="black"/>
    </g>
    <defs>
    <clipPath id="clip0_481_13241">
    <rect width="46" height="44" fill="white"/>
    </clipPath>
    </defs>
    </svg>
    