<svg width="18" height="20" viewBox="0 0 18 20" fill="none" xmlns="http://www.w3.org/2000/svg">
  <path
    d="M14.534 1.353 13.309 0H3.662c-.696 0-.965.513-.965.914v3.61H4.05v-2.88c0-.153.13-.282.28-.282h6.903c.152 0 .228.026.228.15v4.794h4.913c.193 0 .268.1.268.245v11.706c0 .245-.1.281-.25.281H4.33a.288.288 0 0 1-.28-.282v-1.07H2.706v1.686c-.018.596.302 1.02.956 1.02H17.06c.7 0 .939-.505.939-.965V5.16l-.35-.378-3.116-3.427.001-.001Zm-1.698.159.387.431 2.596 2.838.143.172h-2.653c-.2 0-.327-.033-.38-.1-.053-.064-.084-.169-.093-.31V1.511Zm-1.09 9.097h4.577v1.327h-4.578v-1.327h.001Zm0-2.652h4.577v1.326h-4.578V7.956l.001.001Zm0 5.304h4.577v1.327h-4.578v-1.327h.001ZM0 5.595v10.61h10.465V5.594H0Zm5.233 6.17-.64.973h.64v1.186H2.016l2.334-3.491-2.068-3.139H4.01L5.234 9.12l1.223-1.826h1.727l-2.072 3.139 2.337 3.49H6.656l-1.423-2.157Z"
    fill="#000" />
</svg>